<svg width="185" height="34" viewBox="0 0 185 34" fill="none" xmlns="http://www.w3.org/2000/svg">
<path d="M183.79 1.42472L146.463 1.5438L130.014 1.42472L65.3208 1.47212L43.5685 1.36728L23.7373 1.42472H1.0192V9.70648V13.5269V16.3285L1.38171 18.4037L1.0192 18.9223L1.20139 19.2536L1.0192 32.6763H40.9868L42.8198 32.7049L96.1131 32.6763L164.575 32.6941L183.79 32.6763V28.1718V16.7106L184.019 9.10406L183.79 5.24618V1.42472Z" fill="#F5F5F5" stroke="#343131" stroke-linejoin="round"/>
<path d="M10.3595 24.1432C9.56754 22.9192 10.5215 19.0852 10.9355 17.4292C11.3495 15.7732 11.6555 14.1172 12.1955 12.4432C12.2675 12.2452 12.4835 11.5792 12.7895 11.0212C12.9695 10.7332 13.1315 10.3912 13.3475 10.2112C13.6715 9.88719 13.9055 9.68919 14.3195 9.68919C14.7695 9.68919 14.9675 9.97719 15.1835 10.2652C15.4715 10.5892 15.9395 11.9212 16.1735 12.4252C16.6235 13.5592 17.1995 14.6932 18.0095 15.7372C18.6935 14.6932 20.2055 12.9652 21.0875 12.1912C21.9875 11.3812 22.9775 10.4632 23.7155 9.97719C23.8775 9.86919 24.0755 9.74319 24.3815 9.74319C24.8855 9.74319 25.3535 10.0672 25.6775 10.3552C26.4155 11.0212 25.9475 12.8032 25.6055 13.8292C25.3715 14.5492 25.0655 15.2872 24.8315 16.0252C24.4715 17.1052 24.2375 18.2032 23.8595 19.3192C23.5355 20.3092 22.8695 22.2532 22.3295 23.1532C22.0415 23.6572 21.5015 24.1792 20.9615 24.1792C20.4575 24.1792 20.3495 23.7652 20.2595 23.4412C20.0615 22.8652 20.4035 22.3252 20.5295 21.7312C20.6555 21.0472 20.8535 20.3632 21.0695 19.6972C21.2135 19.2292 21.4115 18.7612 21.5735 18.2572C21.8075 17.5552 21.9335 16.8712 22.1495 16.2052C22.2575 15.8272 22.4555 15.0532 22.5995 14.7112C21.6275 15.5392 20.2955 17.4292 19.7555 18.1492C19.2515 18.8332 18.5135 19.8952 17.5955 19.8952C16.8755 19.8952 16.3355 18.8332 15.9755 18.3652C15.2915 17.5372 14.6615 16.5292 14.2475 15.5392C13.8875 16.9792 13.5455 18.3832 13.2755 19.8232C13.1135 20.5972 12.8435 21.3892 12.7175 22.1452C12.6815 22.4512 12.6455 22.7752 12.5375 23.0992C12.3395 23.7112 11.7455 24.5392 11.0075 24.5392C10.6475 24.5392 10.5215 24.3592 10.3595 24.1432ZM29.7041 16.2232C30.2981 16.1512 30.8381 16.0972 31.4141 16.0972C32.5841 16.0972 33.7361 16.1512 34.8701 16.2232C36.0221 16.3132 37.3001 16.4392 36.8321 17.9152C36.4721 19.0312 34.3841 18.9412 33.6461 18.9412C32.8721 18.9412 32.0801 18.9052 31.3061 18.9052C30.8021 18.9052 30.2621 18.9052 29.7581 19.0132C29.5421 19.0312 29.2901 19.0852 29.0021 19.1212C28.7681 19.6432 28.5161 20.1652 28.3541 20.6512C28.2821 20.8852 28.2641 21.1012 28.1921 21.3352C28.5701 21.3352 28.9841 21.2632 29.3801 21.1732C30.1721 21.0472 30.9281 21.0652 31.7201 20.9392C32.9981 20.7412 34.4021 20.6872 35.6261 20.6872C36.6701 20.6872 36.8321 21.1012 36.6161 21.7492C36.5081 22.1092 36.2201 22.6312 35.7881 22.8112C34.9061 23.2072 33.4121 23.3692 32.4761 23.5492C32.0801 23.6212 31.7201 23.7112 31.3601 23.7652C30.2261 23.9632 28.7141 24.2332 27.6341 24.2332C25.9421 24.2332 25.2581 22.7392 25.5641 21.1552C25.7261 20.5072 25.9421 19.8772 26.1581 19.2472C26.4821 18.2572 26.6621 17.2852 26.9681 16.3312C27.1841 15.6832 27.3461 15.0352 27.5621 14.3692C27.7241 13.8292 28.0121 13.3072 28.1921 12.7672C28.3541 12.2632 28.4621 11.7412 28.6781 11.2552C29.1461 10.4092 30.2981 10.0492 31.0721 10.0492C32.6741 10.0492 34.2041 10.2292 35.8061 10.2832C36.6701 10.3012 39.9641 10.7692 39.5501 12.0472C39.3521 12.6232 38.7221 12.9112 38.1821 13.0192C36.5801 13.2712 34.4741 13.3252 32.9081 13.3252C32.8721 13.3252 31.4321 13.1452 30.9461 13.2532C30.5141 13.9372 30.1541 14.8372 29.8841 15.6832L29.7041 16.2232ZM41.1868 24.5392C40.5388 24.5392 40.1428 24.1432 39.9808 23.5492C39.5848 22.2532 40.1788 19.0132 40.6288 17.3212C40.9348 16.2772 41.1328 15.2332 41.3488 14.1892C41.4928 13.5232 41.6188 12.7852 41.8528 12.1012C42.0328 11.5252 42.5548 10.5892 43.2568 10.4092C43.4008 10.3912 43.5628 10.3552 43.6888 10.3552C44.8588 10.3552 44.9308 11.5612 45.1828 12.3892C45.3268 12.8572 45.5248 13.8832 45.7948 14.2432C46.4068 15.2332 47.1268 16.2232 47.8288 17.1952C48.1888 17.7892 48.6208 18.3292 49.0888 18.8512C49.3048 19.0312 49.5028 19.1752 49.7728 19.2292C50.2948 17.6272 50.8348 16.0252 51.3568 14.4052C51.5548 13.7752 52.1488 12.1372 52.5808 11.5252C52.9948 10.9312 53.7508 10.3372 54.5068 10.3372C55.0288 10.3372 55.1188 10.6972 55.1548 11.1112C54.9748 12.7312 53.3008 17.1412 52.6168 18.8332C52.5808 18.9412 52.5448 19.0672 52.5088 19.1752C52.1128 20.3992 51.8788 21.6412 51.5008 22.8472C51.2128 23.7472 50.5828 24.0532 49.9528 24.0532C49.3948 24.0532 48.8188 23.8192 48.4408 23.5492C47.4868 22.6852 46.7128 21.6772 45.9388 20.6512C45.5248 20.1832 45.0928 19.5892 44.7328 18.9952C44.3008 18.2932 43.9408 17.5372 43.4908 16.8532C43.3288 17.6272 43.2208 18.3832 43.1308 19.1392C43.0408 20.2372 42.9328 21.2992 42.7168 22.3972C42.5728 23.3152 42.3568 24.5392 41.1868 24.5392ZM61.9162 22.9732C61.8082 23.3332 61.1422 24.3052 60.1522 24.3052C59.6302 24.3052 59.4682 23.9452 59.3782 23.6572C59.3062 23.3152 59.2882 22.8652 59.3422 22.4332C59.5042 20.7592 60.1162 18.7972 60.6742 17.1052C60.9442 16.2592 61.1422 15.3952 61.2682 14.5492C61.3222 14.2432 61.5382 13.4332 61.6102 13.1272C60.6922 13.1272 59.8642 13.1812 58.9102 13.4152C58.6042 13.4872 58.2262 13.5592 57.9202 13.5592C57.2002 13.5592 56.8762 13.2712 56.7502 12.9112C56.6062 12.4792 56.6962 11.9572 57.0022 11.4352C57.5062 10.4632 60.2422 10.2652 61.0702 10.2652C63.3202 10.2652 66.3442 10.3012 68.3242 10.9132C68.9722 11.0932 69.2062 11.9752 68.9722 12.7132C68.8642 13.0372 68.4682 13.1992 68.2162 13.2532C67.9102 13.3072 67.4962 13.3252 67.0462 13.3252C66.1822 13.3252 65.1742 13.2532 64.6162 13.2352C64.1662 14.2252 63.5542 16.0252 63.1582 17.2132C62.7982 18.3292 62.3842 19.9852 62.1142 21.1012C61.9522 21.7492 62.1322 22.3252 61.9162 22.9732ZM71.7996 17.8612C72.6996 17.7352 73.8876 17.6812 74.7156 17.6812C74.6436 16.6192 74.3916 15.1612 74.2476 14.1352C73.5276 15.0532 72.3576 16.9252 71.7996 17.8612ZM68.4336 23.3872C68.1096 24.0712 67.4976 24.3052 66.9036 24.3052C66.0936 24.3052 65.9496 23.7292 65.9316 23.3332C65.9316 22.0912 66.8136 20.6512 67.4436 19.6612C67.9836 18.8512 68.5776 18.0412 69.0456 17.3212C69.4056 16.8172 69.7296 16.3312 70.0176 15.8272C70.6476 14.7472 71.3136 13.7572 72.0876 12.7132C72.5016 12.1372 72.9156 11.5252 73.3476 10.9852C73.7256 10.5172 74.0676 9.92319 74.7336 9.92319C75.0036 9.92319 75.2196 10.0132 75.4176 10.1572C76.0296 10.3912 76.6416 11.1652 76.6776 11.7772C76.7496 12.1012 76.8216 12.4432 76.9116 12.7852C77.3796 15.0352 77.3256 17.3392 77.5776 19.6072C77.7036 20.6332 77.7396 21.8572 77.3796 22.9192C77.1636 23.6032 76.6956 24.4132 75.8676 24.4132C74.7156 24.4132 75.0036 23.3332 74.9496 22.6672C74.8776 21.8032 74.9496 21.1552 74.7696 20.3632C74.1216 20.5072 70.0716 20.8132 70.0716 20.8132C69.6036 21.7852 68.9556 22.4332 68.4336 23.3872ZM79.8085 22.1992C79.8625 21.8032 79.9705 21.2632 80.1145 20.7412C80.9785 17.6092 81.8425 14.4772 82.8505 11.3452C83.0665 10.6792 83.6425 10.1572 84.3625 10.1572C84.4885 10.1572 84.6325 10.1752 84.7225 10.2292C85.3885 10.5712 85.5325 11.1652 85.4425 11.7412C85.3525 12.2812 85.1005 12.8932 84.9565 13.3612C84.5785 14.5312 84.1105 15.7552 83.8945 16.9252C83.7685 17.5372 83.5885 18.1312 83.4085 18.7072C83.1565 19.5892 82.8865 20.4712 82.6345 21.3532C82.6885 21.3892 82.7965 21.3892 82.9225 21.3892C83.2465 21.3892 83.5885 21.3352 83.9485 21.2632C85.0465 21.0472 86.0905 20.8672 87.1345 20.8672C87.3325 20.8672 87.6205 20.8672 87.8185 20.9212C88.4845 21.0292 89.1505 21.5692 89.5645 21.9832C89.7985 22.1992 89.7985 22.5772 89.7085 22.8472C89.5285 23.3872 89.1685 23.6032 88.6465 23.7652C87.9265 23.8552 87.2245 23.9992 86.5225 24.0712C85.4425 24.1432 84.3085 24.2332 83.9125 24.2512C83.2645 24.3772 82.4725 24.7012 81.8245 24.7012C80.5465 24.7012 79.7725 23.3332 79.8085 22.1992ZM99.0468 22.5772C99.5328 21.1192 99.8208 19.6432 100.289 18.1852C100.757 16.7452 102.899 10.5172 104.933 10.5172C105.689 10.5172 106.031 11.0392 105.779 11.7772C105.707 12.0292 105.563 12.2812 105.419 12.5692C105.077 13.2532 104.789 13.9552 104.519 14.6572C104.195 15.4672 103.763 16.3852 103.511 17.1952C105.023 16.9072 106.643 16.8712 108.101 16.8532C108.191 16.4392 108.335 16.0252 108.479 15.5932C108.695 14.9272 108.947 14.2792 109.235 13.5592C109.613 12.6232 109.901 11.7232 110.351 10.8052C110.693 10.2112 111.485 9.45519 112.151 9.45519C112.619 9.45519 112.691 9.70719 112.745 10.0672C112.781 11.0932 112.403 12.2632 112.061 13.3252C111.827 14.0272 111.539 14.7472 111.305 15.4492C110.603 17.6272 110.153 19.8232 109.451 21.9832C109.271 22.5592 108.965 23.8912 108.533 24.3772C108.371 24.5932 108.011 24.8452 107.543 24.8452C106.787 24.8452 106.445 24.3232 106.481 23.6572C106.571 22.3252 106.877 21.2272 107.237 19.8772C106.517 19.9312 105.761 19.9492 105.005 20.0032C104.177 20.0392 103.331 20.2372 102.467 20.4172C102.125 21.4612 101.747 22.5052 101.297 23.5492C100.955 24.2332 100.523 24.6652 99.8028 24.6652C99.4248 24.6652 99.1728 24.5392 99.0468 24.3592C98.8488 23.9092 98.8668 23.1352 99.0468 22.5772ZM116.206 16.2232C116.8 16.1512 117.34 16.0972 117.916 16.0972C119.086 16.0972 120.238 16.1512 121.372 16.2232C122.524 16.3132 123.802 16.4392 123.334 17.9152C122.974 19.0312 120.886 18.9412 120.148 18.9412C119.374 18.9412 118.582 18.9052 117.808 18.9052C117.304 18.9052 116.764 18.9052 116.26 19.0132C116.044 19.0312 115.792 19.0852 115.504 19.1212C115.27 19.6432 115.018 20.1652 114.856 20.6512C114.784 20.8852 114.766 21.1012 114.694 21.3352C115.072 21.3352 115.486 21.2632 115.882 21.1732C116.674 21.0472 117.43 21.0652 118.222 20.9392C119.5 20.7412 120.904 20.6872 122.128 20.6872C123.172 20.6872 123.334 21.1012 123.118 21.7492C123.01 22.1092 122.722 22.6312 122.29 22.8112C121.408 23.2072 119.914 23.3692 118.978 23.5492C118.582 23.6212 118.222 23.7112 117.862 23.7652C116.728 23.9632 115.216 24.2332 114.136 24.2332C112.444 24.2332 111.76 22.7392 112.066 21.1552C112.228 20.5072 112.444 19.8772 112.66 19.2472C112.984 18.2572 113.164 17.2852 113.47 16.3312C113.686 15.6832 113.848 15.0352 114.064 14.3692C114.226 13.8292 114.514 13.3072 114.694 12.7672C114.856 12.2632 114.964 11.7412 115.18 11.2552C115.648 10.4092 116.8 10.0492 117.574 10.0492C119.176 10.0492 120.706 10.2292 122.308 10.2832C123.172 10.3012 126.466 10.7692 126.052 12.0472C125.854 12.6232 125.224 12.9112 124.684 13.0192C123.082 13.2712 120.976 13.3252 119.41 13.3252C119.374 13.3252 117.934 13.1452 117.448 13.2532C117.016 13.9372 116.656 14.8372 116.386 15.6832L116.206 16.2232ZM130.335 17.8612C131.235 17.7352 132.423 17.6812 133.251 17.6812C133.179 16.6192 132.927 15.1612 132.783 14.1352C132.063 15.0532 130.893 16.9252 130.335 17.8612ZM126.969 23.3872C126.645 24.0712 126.033 24.3052 125.439 24.3052C124.629 24.3052 124.485 23.7292 124.467 23.3332C124.467 22.0912 125.349 20.6512 125.979 19.6612C126.519 18.8512 127.113 18.0412 127.581 17.3212C127.941 16.8172 128.265 16.3312 128.553 15.8272C129.183 14.7472 129.849 13.7572 130.623 12.7132C131.037 12.1372 131.451 11.5252 131.883 10.9852C132.261 10.5172 132.603 9.92319 133.269 9.92319C133.539 9.92319 133.755 10.0132 133.953 10.1572C134.565 10.3912 135.177 11.1652 135.213 11.7772C135.285 12.1012 135.357 12.4432 135.447 12.7852C135.915 15.0352 135.861 17.3392 136.113 19.6072C136.239 20.6332 136.275 21.8572 135.915 22.9192C135.699 23.6032 135.231 24.4132 134.403 24.4132C133.251 24.4132 133.539 23.3332 133.485 22.6672C133.413 21.8032 133.485 21.1552 133.305 20.3632C132.657 20.5072 128.607 20.8132 128.607 20.8132C128.139 21.7852 127.491 22.4332 126.969 23.3872ZM138.344 22.1992C138.398 21.8032 138.506 21.2632 138.65 20.7412C139.514 17.6092 140.378 14.4772 141.386 11.3452C141.602 10.6792 142.178 10.1572 142.898 10.1572C143.024 10.1572 143.168 10.1752 143.258 10.2292C143.924 10.5712 144.068 11.1652 143.978 11.7412C143.888 12.2812 143.636 12.8932 143.492 13.3612C143.114 14.5312 142.646 15.7552 142.43 16.9252C142.304 17.5372 142.124 18.1312 141.944 18.7072C141.692 19.5892 141.422 20.4712 141.17 21.3532C141.224 21.3892 141.332 21.3892 141.458 21.3892C141.782 21.3892 142.124 21.3352 142.484 21.2632C143.582 21.0472 144.626 20.8672 145.67 20.8672C145.868 20.8672 146.156 20.8672 146.354 20.9212C147.02 21.0292 147.686 21.5692 148.1 21.9832C148.334 22.1992 148.334 22.5772 148.244 22.8472C148.064 23.3872 147.704 23.6032 147.182 23.7652C146.462 23.8552 145.76 23.9992 145.058 24.0712C143.978 24.1432 142.844 24.2332 142.448 24.2512C141.8 24.3772 141.008 24.7012 140.36 24.7012C139.082 24.7012 138.308 23.3332 138.344 22.1992ZM154.641 22.9732C154.533 23.3332 153.867 24.3052 152.877 24.3052C152.355 24.3052 152.193 23.9452 152.103 23.6572C152.031 23.3152 152.013 22.8652 152.067 22.4332C152.229 20.7592 152.841 18.7972 153.399 17.1052C153.669 16.2592 153.867 15.3952 153.993 14.5492C154.047 14.2432 154.263 13.4332 154.335 13.1272C153.417 13.1272 152.589 13.1812 151.635 13.4152C151.329 13.4872 150.951 13.5592 150.645 13.5592C149.925 13.5592 149.601 13.2712 149.475 12.9112C149.331 12.4792 149.421 11.9572 149.727 11.4352C150.231 10.4632 152.967 10.2652 153.795 10.2652C156.045 10.2652 159.069 10.3012 161.049 10.9132C161.697 11.0932 161.931 11.9752 161.697 12.7132C161.589 13.0372 161.193 13.1992 160.941 13.2532C160.635 13.3072 160.221 13.3252 159.771 13.3252C158.907 13.3252 157.899 13.2532 157.341 13.2352C156.891 14.2252 156.279 16.0252 155.883 17.2132C155.523 18.3292 155.109 19.9852 154.839 21.1012C154.677 21.7492 154.857 22.3252 154.641 22.9732ZM160.359 22.5772C160.845 21.1192 161.133 19.6432 161.601 18.1852C162.069 16.7452 164.211 10.5172 166.245 10.5172C167.001 10.5172 167.343 11.0392 167.091 11.7772C167.019 12.0292 166.875 12.2812 166.731 12.5692C166.389 13.2532 166.101 13.9552 165.831 14.6572C165.507 15.4672 165.075 16.3852 164.823 17.1952C166.335 16.9072 167.955 16.8712 169.413 16.8532C169.503 16.4392 169.647 16.0252 169.791 15.5932C170.007 14.9272 170.259 14.2792 170.547 13.5592C170.925 12.6232 171.213 11.7232 171.663 10.8052C172.005 10.2112 172.797 9.45519 173.463 9.45519C173.931 9.45519 174.003 9.70719 174.057 10.0672C174.093 11.0932 173.715 12.2632 173.373 13.3252C173.139 14.0272 172.851 14.7472 172.617 15.4492C171.915 17.6272 171.465 19.8232 170.763 21.9832C170.583 22.5592 170.277 23.8912 169.845 24.3772C169.683 24.5932 169.323 24.8452 168.855 24.8452C168.099 24.8452 167.757 24.3232 167.793 23.6572C167.883 22.3252 168.189 21.2272 168.549 19.8772C167.829 19.9312 167.073 19.9492 166.317 20.0032C165.489 20.0392 164.643 20.2372 163.779 20.4172C163.437 21.4612 163.059 22.5052 162.609 23.5492C162.267 24.2332 161.835 24.6652 161.115 24.6652C160.737 24.6652 160.485 24.5392 160.359 24.3592C160.161 23.9092 160.179 23.1352 160.359 22.5772Z" fill="#343131"/>
</svg>
