<svg width="131" height="29" viewBox="0 0 131 29" fill="none" xmlns="http://www.w3.org/2000/svg">
<path d="M129.453 1.20914L103.122 1.30968L91.518 1.20914L45.8811 1.24916L30.5362 1.16064L16.5466 1.20914H0.520416V8.20138V11.4269V13.7923L0.776138 15.5444L0.520416 15.9823L0.648941 16.2619L0.520416 27.5947H28.7151L30.0081 27.6188L67.6032 27.5947L115.899 27.6097L129.453 27.5947V23.7915V14.1149L129.615 7.69276L129.453 4.43558V1.20914Z" fill="#F5F5F5" stroke="#343131" stroke-linejoin="round"/>
<path d="M13.173 14.3725C14.379 14.3725 17.187 13.8685 18.411 13.3285C18.663 13.2205 19.095 12.9145 19.563 12.5365C19.941 12.2305 20.319 11.9245 20.607 11.7085C20.535 11.5465 20.427 11.4025 20.265 11.2945C19.977 11.0065 17.907 10.6465 17.223 10.6465C16.413 10.6465 15.261 10.8265 14.325 11.0245C14.253 11.3665 14.145 11.7445 14.055 12.0505C13.803 12.8245 13.497 13.5805 13.173 14.3725ZM11.589 20.4385C11.355 21.1945 10.797 22.0765 9.897 22.0765C9.213 22.0765 8.835 21.6985 8.817 21.0325C8.781 19.6645 9.735 16.7665 10.203 15.3085C10.545 14.2825 10.941 13.2205 11.211 12.1765C11.409 11.4025 11.463 10.6465 11.715 9.89053C12.165 8.48653 13.263 8.14453 14.595 8.00053C15.693 7.85653 16.773 7.69453 17.817 7.69453C19.275 7.69453 20.103 8.03653 21.273 8.52253C22.515 9.08053 23.847 9.94453 23.271 11.6905C22.767 13.2385 20.571 14.8405 18.897 15.7585C17.439 16.6225 14.793 17.2705 13.065 17.2705C12.813 17.2705 12.579 17.2705 12.363 17.2345C11.841 18.6385 11.967 19.3225 11.589 20.4385ZM28.609 18.8185C29.401 18.8185 30.193 18.7285 31.057 18.5305C32.317 18.2245 34.135 16.6405 34.441 15.6685C34.585 15.2365 34.675 14.1925 34.567 13.2205C34.531 12.6805 34.369 11.5105 33.739 11.4205C33.055 11.3305 32.281 11.2585 31.813 10.8445C31.759 10.8805 31.705 10.8985 31.615 10.9525C31.111 11.1145 30.625 11.4205 30.121 11.6545C28.447 12.4465 26.521 14.2465 25.981 15.9385C25.711 16.7665 25.567 17.5225 26.143 17.9905C26.557 18.3865 27.817 18.6925 28.609 18.8185ZM28.681 21.8785C25.963 21.8785 22.633 19.9705 22.921 17.0545C23.011 16.6405 23.083 16.2265 23.227 15.7945C24.127 13.0405 27.655 7.92853 32.641 7.92853C36.007 7.92853 36.925 10.5385 37.285 12.4105C37.519 13.5265 37.501 14.6245 37.105 15.8845C36.961 16.3165 36.745 16.7845 36.547 17.2345C35.071 20.1505 31.489 21.8785 28.681 21.8785ZM38.0365 19.6645C38.0905 19.2685 38.1985 18.7285 38.3425 18.2065C39.2065 15.0745 40.0705 11.9425 41.0785 8.81053C41.2945 8.14453 41.8705 7.62253 42.5905 7.62253C42.7165 7.62253 42.8605 7.64053 42.9505 7.69453C43.6165 8.03653 43.7605 8.63053 43.6705 9.20653C43.5805 9.74653 43.3285 10.3585 43.1845 10.8265C42.8065 11.9965 42.3385 13.2205 42.1225 14.3905C41.9965 15.0025 41.8165 15.5965 41.6365 16.1725C41.3845 17.0545 41.1145 17.9365 40.8625 18.8185C40.9165 18.8545 41.0245 18.8545 41.1505 18.8545C41.4745 18.8545 41.8165 18.8005 42.1765 18.7285C43.2745 18.5125 44.3185 18.3325 45.3625 18.3325C45.5605 18.3325 45.8485 18.3325 46.0465 18.3865C46.7125 18.4945 47.3785 19.0345 47.7925 19.4485C48.0265 19.6645 48.0265 20.0425 47.9365 20.3125C47.7565 20.8525 47.3965 21.0685 46.8745 21.2305C46.1545 21.3205 45.4525 21.4645 44.7505 21.5365C43.6705 21.6085 42.5365 21.6985 42.1405 21.7165C41.4925 21.8425 40.7005 22.1665 40.0525 22.1665C38.7745 22.1665 38.0005 20.7985 38.0365 19.6645ZM49.73 19.9705C50.054 18.9625 51.908 18.6385 52.664 18.6385C53.15 18.6385 53.654 18.6745 54.104 18.7285C54.176 18.5305 54.23 18.3505 54.302 18.1525C54.824 16.5325 55.58 14.8945 56.12 13.2385C56.39 12.4465 56.588 11.6005 56.786 10.7725C56.282 10.7005 55.778 10.5565 55.328 10.4305C54.248 10.1425 54.158 9.42253 54.428 8.63053C54.644 7.92853 56.192 7.53253 56.714 7.53253C57.074 7.53253 57.596 7.58653 57.938 7.67653C58.334 7.74853 58.676 7.82053 58.982 7.82053C60.602 7.82053 62.258 7.62253 63.86 7.62253C64.724 7.62253 64.85 8.00053 64.67 8.52253C64.526 8.99053 64.058 9.47653 63.59 9.78253C62.978 10.3045 60.188 10.6645 59.342 10.7725C58.856 12.4465 58.316 14.0845 57.776 15.7585C57.488 16.6405 57.344 17.5225 57.056 18.4045C57.02 18.4945 57.002 18.5845 56.984 18.6385C57.092 18.6205 57.164 18.6205 57.29 18.5845C57.596 18.5305 57.938 18.4585 58.226 18.3865C58.892 18.2605 59.54 18.0985 60.008 18.0985C60.368 18.0985 60.872 18.1165 61.268 18.2245C61.682 18.2965 61.682 19.0165 61.556 19.3945C61.502 19.5565 61.43 19.7185 61.268 19.8985C61.034 20.1325 60.62 20.3125 60.224 20.4385C57.524 21.4285 54.014 21.6985 51.17 21.6985C50.594 21.5905 50.378 21.5365 50.072 21.0145C49.946 20.7085 49.586 20.3845 49.73 19.9705ZM71.2087 20.4385C71.1007 20.7985 70.4347 21.7705 69.4447 21.7705C68.9227 21.7705 68.7607 21.4105 68.6707 21.1225C68.5987 20.7805 68.5807 20.3305 68.6347 19.8985C68.7967 18.2245 69.4087 16.2625 69.9667 14.5705C70.2367 13.7245 70.4347 12.8605 70.5607 12.0145C70.6147 11.7085 70.8307 10.8985 70.9027 10.5925C69.9847 10.5925 69.1567 10.6465 68.2027 10.8805C67.8967 10.9525 67.5187 11.0245 67.2127 11.0245C66.4927 11.0245 66.1687 10.7365 66.0427 10.3765C65.8987 9.94453 65.9887 9.42253 66.2947 8.90053C66.7987 7.92853 69.5347 7.73053 70.3627 7.73053C72.6127 7.73053 75.6367 7.76653 77.6167 8.37853C78.2647 8.55853 78.4987 9.44053 78.2647 10.1785C78.1567 10.5025 77.7607 10.6645 77.5087 10.7185C77.2027 10.7725 76.7887 10.7905 76.3387 10.7905C75.4747 10.7905 74.4667 10.7185 73.9087 10.7005C73.4587 11.6905 72.8467 13.4905 72.4507 14.6785C72.0907 15.7945 71.6767 17.4505 71.4067 18.5665C71.2447 19.2145 71.4247 19.7905 71.2087 20.4385ZM75.7281 19.9705C76.0521 18.9625 77.9061 18.6385 78.6621 18.6385C79.1481 18.6385 79.6521 18.6745 80.1021 18.7285C80.1741 18.5305 80.2281 18.3505 80.3001 18.1525C80.8221 16.5325 81.5781 14.8945 82.1181 13.2385C82.3881 12.4465 82.5861 11.6005 82.7841 10.7725C82.2801 10.7005 81.7761 10.5565 81.3261 10.4305C80.2461 10.1425 80.1561 9.42253 80.4261 8.63053C80.6421 7.92853 82.1901 7.53253 82.7121 7.53253C83.0721 7.53253 83.5941 7.58653 83.9361 7.67653C84.3321 7.74853 84.6741 7.82053 84.9801 7.82053C86.6001 7.82053 88.2561 7.62253 89.8581 7.62253C90.7221 7.62253 90.8481 8.00053 90.6681 8.52253C90.5241 8.99053 90.0561 9.47653 89.5881 9.78253C88.9761 10.3045 86.1861 10.6645 85.3401 10.7725C84.8541 12.4465 84.3141 14.0845 83.7741 15.7585C83.4861 16.6405 83.3421 17.5225 83.0541 18.4045C83.0181 18.4945 83.0001 18.5845 82.9821 18.6385C83.0901 18.6205 83.1621 18.6205 83.2881 18.5845C83.5941 18.5305 83.9361 18.4585 84.2241 18.3865C84.8901 18.2605 85.5381 18.0985 86.0061 18.0985C86.3661 18.0985 86.8701 18.1165 87.2661 18.2245C87.6801 18.2965 87.6801 19.0165 87.5541 19.3945C87.5001 19.5565 87.4281 19.7185 87.2661 19.8985C87.0321 20.1325 86.6181 20.3125 86.2221 20.4385C83.5221 21.4285 80.0121 21.6985 77.1681 21.6985C76.5921 21.5905 76.3761 21.5365 76.0701 21.0145C75.9441 20.7085 75.5841 20.3845 75.7281 19.9705ZM93.9386 15.0925C93.1466 17.5045 94.8026 18.7645 97.0706 18.7645C98.9786 18.7645 101.067 18.0445 102.201 18.0445C102.849 18.0445 103.443 18.4945 103.263 19.0525C103.119 19.5025 102.417 20.0785 102.057 20.3305C101.139 20.9605 97.8986 21.7525 96.9086 21.7525C93.2006 21.7525 91.5086 19.9165 90.7166 17.6845C90.4106 16.8205 90.5186 15.4885 90.8246 14.5165C91.2026 13.3825 92.1746 12.3025 93.0746 11.3125C93.4526 10.9345 93.8126 10.4845 94.1726 10.0885C95.3786 8.77453 97.5746 7.44253 99.3386 7.44253C100.257 7.44253 101.211 7.67653 101.859 7.98253C103.119 8.48653 104.487 10.0345 103.965 11.6545C103.911 11.8345 103.803 12.1585 103.623 12.4645C103.425 12.7525 103.029 13.1485 102.381 13.1485C101.895 13.1485 101.283 12.5725 101.193 12.1765C101.121 12.0145 101.139 11.8345 101.085 11.6905C100.995 11.1685 100.257 10.3585 99.7346 10.3585C97.6826 10.3585 94.5326 13.2385 93.9386 15.0925ZM108.531 17.4505C108.675 18.7285 111.069 19.2505 112.293 19.2505C113.283 19.2505 114.471 19.0525 115.371 18.1705C114.921 17.8825 114.435 17.7025 113.931 17.4685C113.067 17.0725 112.221 16.6945 111.321 16.3525C110.457 15.9925 109.593 15.6505 108.783 15.2005C107.739 14.4805 106.803 13.4005 107.325 11.8165C108.171 9.20653 111.897 7.64053 114.165 7.64053C116.145 7.64053 117.639 8.63053 118.467 10.0885C118.791 10.5385 119.025 11.1145 118.845 11.6365C118.647 12.2485 117.711 12.6445 117.063 12.6445C116.307 12.6445 115.731 11.6905 115.587 11.1145C115.479 10.7005 115.101 10.2685 114.651 10.2685C113.715 10.2685 112.311 10.6105 111.357 11.2585C110.979 11.5465 110.583 11.8705 110.205 12.1585C110.205 12.3025 110.799 12.7705 110.925 12.8785C111.429 13.2925 111.915 13.6345 111.969 13.6885C112.581 13.9225 113.139 14.1925 113.733 14.3725C115.047 14.8405 116.325 15.4705 117.351 16.1725C118.161 16.7485 118.467 17.7025 118.161 18.6205C117.621 20.3125 116.073 21.4285 114.345 21.7525C113.517 21.8965 112.581 22.0045 111.771 22.0045C110.475 22.0045 109.665 21.5185 108.603 21.1225C107.199 20.5645 105.039 19.1605 105.651 17.2885C105.867 16.6405 106.371 16.2265 107.055 16.2265C107.847 16.2265 108.477 16.7125 108.531 17.4505Z" fill="#343131"/>
</svg>
