<svg width="165" height="56" viewBox="0 0 165 56" fill="none" xmlns="http://www.w3.org/2000/svg">
<mask id="path-1-inside-1_3_21" fill="white">
<path d="M7.22 19.5H24.86C25.1167 19.5 25.3383 19.5933 25.525 19.78C25.7117 19.9667 25.805 20.1883 25.805 20.445V25.765C25.805 26.0217 25.7117 26.2433 25.525 26.43C25.3383 26.6167 25.1167 26.71 24.86 26.71H14.85V29.3H24.16C24.4167 29.3 24.6383 29.3933 24.825 29.58C25.0117 29.7667 25.105 29.9883 25.105 30.245V35.53C25.105 35.7867 25.0117 36.0083 24.825 36.195C24.6383 36.3817 24.4167 36.475 24.16 36.475H14.85V43.055C14.85 43.3117 14.7567 43.5333 14.57 43.72C14.3833 43.9067 14.1617 44 13.905 44H7.22C6.96333 44 6.74167 43.9067 6.555 43.72C6.36833 43.5333 6.275 43.3117 6.275 43.055V20.445C6.275 20.1883 6.36833 19.9667 6.555 19.78C6.74167 19.5933 6.96333 19.5 7.22 19.5ZM52.023 42.845C52.093 42.985 52.128 43.1367 52.128 43.3C52.128 43.4633 52.0463 43.6267 51.883 43.79C51.743 43.93 51.568 44 51.358 44H44.183C43.4597 44 42.958 43.685 42.678 43.055L39.668 36.37H38.233V43.055C38.233 43.3117 38.1397 43.5333 37.953 43.72C37.7663 43.9067 37.5447 44 37.288 44H30.428C30.1713 44 29.9497 43.9067 29.763 43.72C29.5763 43.5333 29.483 43.3117 29.483 43.055V20.445C29.483 20.1883 29.5763 19.9667 29.763 19.78C29.9497 19.5933 30.1713 19.5 30.428 19.5H40.788C44.148 19.5 46.773 20.2583 48.663 21.775C50.553 23.2683 51.498 25.4267 51.498 28.25C51.498 31.05 50.238 33.255 47.718 34.865L52.023 42.845ZM38.233 26.01V29.72H40.788C41.3013 29.72 41.698 29.5567 41.978 29.23C42.258 28.88 42.398 28.4483 42.398 27.935C42.398 27.4217 42.258 26.9783 41.978 26.605C41.7213 26.2083 41.3247 26.01 40.788 26.01H38.233ZM63.5446 44H56.4046C56.1479 44 55.9262 43.9067 55.7396 43.72C55.5529 43.5333 55.4596 43.3117 55.4596 43.055V20.445C55.4596 20.1883 55.5529 19.9667 55.7396 19.78C55.9262 19.5933 56.1479 19.5 56.4046 19.5H63.5446C63.8012 19.5 64.0229 19.5933 64.2096 19.78C64.3962 19.9667 64.4896 20.1883 64.4896 20.445V43.055C64.4896 43.3117 64.3962 43.5333 64.2096 43.72C64.0229 43.9067 63.8012 44 63.5446 44ZM69.9739 19.5H80.0539C83.4606 19.5 86.2606 20.3517 88.4539 22.055C90.6706 23.735 91.7789 26.0917 91.7789 29.125V34.34C91.7789 37.5133 90.7056 39.9167 88.5589 41.55C86.4122 43.1833 83.5889 44 80.0889 44H69.9739C69.7172 44 69.4956 43.9067 69.3089 43.72C69.1222 43.5333 69.0289 43.3117 69.0289 43.055V20.445C69.0289 20.1883 69.1222 19.9667 69.3089 19.78C69.4956 19.5933 69.7172 19.5 69.9739 19.5ZM77.7789 26.325V37.175H80.0539C80.8472 37.175 81.4772 36.9417 81.9439 36.475C82.4339 35.985 82.6789 35.2733 82.6789 34.34V29.125C82.6789 27.2583 81.8039 26.325 80.0539 26.325H77.7789ZM103.286 19.5H110.881C111.721 19.5 112.246 19.885 112.456 20.655L120.261 42.985C120.284 43.055 120.296 43.1717 120.296 43.335C120.296 43.475 120.214 43.6267 120.051 43.79C119.911 43.93 119.736 44 119.526 44H113.051C112.351 44 111.896 43.7083 111.686 43.125L110.846 40.815H103.321L102.481 43.125C102.271 43.7083 101.816 44 101.116 44H94.6407C94.4307 44 94.244 43.93 94.0807 43.79C93.9407 43.6267 93.8707 43.475 93.8707 43.335C93.8707 43.1717 93.8824 43.055 93.9057 42.985L101.711 20.655C101.921 19.885 102.446 19.5 103.286 19.5ZM105.106 33.99H109.061L107.066 27.48L105.106 33.99ZM136.926 44H130.066C129.81 44 129.588 43.9067 129.401 43.72C129.215 43.5333 129.121 43.3117 129.121 43.055V36.16L121.246 20.585C121.2 20.4917 121.176 20.3633 121.176 20.2C121.176 20.0367 121.246 19.885 121.386 19.745C121.55 19.5817 121.736 19.5 121.946 19.5H128.526C129.226 19.5 129.716 19.7917 129.996 20.375L133.496 27.41L136.996 20.375C137.276 19.7917 137.766 19.5 138.466 19.5H145.046C145.256 19.5 145.431 19.5817 145.571 19.745C145.735 19.885 145.816 20.0367 145.816 20.2C145.816 20.3633 145.793 20.4917 145.746 20.585L137.871 36.16V43.055C137.871 43.3117 137.778 43.5333 137.591 43.72C137.405 43.9067 137.183 44 136.926 44Z"/>
</mask>
<path d="M25.525 19.78L24.8179 20.4871L24.8179 20.4871L25.525 19.78ZM25.525 26.43L24.8179 25.7229L24.8179 25.7229L25.525 26.43ZM14.85 26.71V25.71H13.85V26.71H14.85ZM14.85 29.3H13.85V30.3H14.85V29.3ZM24.825 29.58L25.5321 28.8729L25.5321 28.8729L24.825 29.58ZM14.85 36.475V35.475H13.85V36.475H14.85ZM14.57 43.72L15.2771 44.4271L15.2771 44.4271L14.57 43.72ZM6.555 43.72L7.26211 43.0129L7.26211 43.0129L6.555 43.72ZM6.555 19.78L7.26211 20.4871L7.26211 20.4871L6.555 19.78ZM7.22 20.5H24.86V18.5H7.22V20.5ZM24.86 20.5C24.8633 20.5 24.861 20.5003 24.8544 20.499C24.8477 20.4977 24.8394 20.4953 24.8307 20.4916C24.822 20.488 24.816 20.4843 24.8129 20.4822C24.81 20.4802 24.8118 20.4811 24.8179 20.4871L26.2321 19.0729C25.8639 18.7047 25.3902 18.5 24.86 18.5V20.5ZM24.8179 20.4871C24.8239 20.4932 24.8248 20.495 24.8228 20.4921C24.8207 20.489 24.817 20.483 24.8134 20.4743C24.8097 20.4656 24.8073 20.4573 24.806 20.4506C24.8047 20.444 24.805 20.4417 24.805 20.445H26.805C26.805 19.9148 26.6003 19.4411 26.2321 19.0729L24.8179 20.4871ZM24.805 20.445V25.765H26.805V20.445H24.805ZM24.805 25.765C24.805 25.7683 24.8047 25.766 24.806 25.7594C24.8073 25.7527 24.8097 25.7444 24.8134 25.7357C24.817 25.727 24.8207 25.721 24.8228 25.7179C24.8248 25.715 24.8239 25.7168 24.8179 25.7229L26.2321 27.1371C26.6003 26.7689 26.805 26.2952 26.805 25.765H24.805ZM24.8179 25.7229C24.8118 25.7289 24.81 25.7298 24.8129 25.7278C24.816 25.7257 24.822 25.722 24.8307 25.7184C24.8394 25.7147 24.8477 25.7123 24.8544 25.711C24.861 25.7097 24.8633 25.71 24.86 25.71V27.71C25.3902 27.71 25.8639 27.5053 26.2321 27.1371L24.8179 25.7229ZM24.86 25.71H14.85V27.71H24.86V25.71ZM13.85 26.71V29.3H15.85V26.71H13.85ZM14.85 30.3H24.16V28.3H14.85V30.3ZM24.16 30.3C24.1633 30.3 24.161 30.3003 24.1544 30.299C24.1477 30.2977 24.1394 30.2953 24.1307 30.2916C24.122 30.288 24.116 30.2843 24.1129 30.2822C24.11 30.2802 24.1118 30.2811 24.1179 30.2871L25.5321 28.8729C25.1639 28.5047 24.6902 28.3 24.16 28.3V30.3ZM24.1179 30.2871C24.1239 30.2932 24.1248 30.295 24.1228 30.2921C24.1207 30.289 24.117 30.283 24.1134 30.2743C24.1097 30.2656 24.1073 30.2573 24.106 30.2506C24.1047 30.244 24.105 30.2417 24.105 30.245H26.105C26.105 29.7148 25.9003 29.2411 25.5321 28.8729L24.1179 30.2871ZM24.105 30.245V35.53H26.105V30.245H24.105ZM24.105 35.53C24.105 35.5333 24.1047 35.531 24.106 35.5244C24.1073 35.5177 24.1097 35.5094 24.1134 35.5007C24.117 35.492 24.1207 35.486 24.1228 35.4829C24.1248 35.48 24.1239 35.4818 24.1179 35.4879L25.5321 36.9021C25.9003 36.5339 26.105 36.0602 26.105 35.53H24.105ZM24.1179 35.4879C24.1118 35.4939 24.11 35.4948 24.1129 35.4928C24.116 35.4907 24.122 35.487 24.1307 35.4834C24.1394 35.4797 24.1477 35.4773 24.1544 35.476C24.161 35.4747 24.1633 35.475 24.16 35.475V37.475C24.6902 37.475 25.1639 37.2703 25.5321 36.9021L24.1179 35.4879ZM24.16 35.475H14.85V37.475H24.16V35.475ZM13.85 36.475V43.055H15.85V36.475H13.85ZM13.85 43.055C13.85 43.0583 13.8497 43.056 13.851 43.0494C13.8523 43.0427 13.8547 43.0344 13.8584 43.0257C13.862 43.017 13.8657 43.011 13.8678 43.0079C13.8698 43.005 13.8689 43.0068 13.8629 43.0129L15.2771 44.4271C15.6453 44.0589 15.85 43.5852 15.85 43.055H13.85ZM13.8629 43.0129C13.8568 43.0189 13.855 43.0198 13.8579 43.0178C13.861 43.0157 13.867 43.012 13.8757 43.0084C13.8844 43.0047 13.8927 43.0023 13.8994 43.001C13.906 42.9997 13.9083 43 13.905 43V45C14.4352 45 14.9089 44.7953 15.2771 44.4271L13.8629 43.0129ZM13.905 43H7.22V45H13.905V43ZM7.22 43C7.21671 43 7.21902 42.9997 7.22557 43.001C7.23229 43.0023 7.24061 43.0047 7.24931 43.0084C7.25797 43.012 7.26403 43.0157 7.26709 43.0178C7.26998 43.0198 7.26815 43.0189 7.26211 43.0129L5.84789 44.4271C6.21611 44.7953 6.68977 45 7.22 45V43ZM7.26211 43.0129C7.25606 43.0068 7.25525 43.005 7.25723 43.0079C7.25933 43.011 7.26299 43.017 7.26664 43.0257C7.2703 43.0344 7.27268 43.0427 7.27399 43.0494C7.27527 43.056 7.275 43.0583 7.275 43.055H5.275C5.275 43.5852 5.47967 44.0589 5.84789 44.4271L7.26211 43.0129ZM7.275 43.055V20.445H5.275V43.055H7.275ZM7.275 20.445C7.275 20.4417 7.27527 20.444 7.27399 20.4506C7.27268 20.4573 7.2703 20.4656 7.26664 20.4743C7.26299 20.483 7.25933 20.489 7.25723 20.4921C7.25525 20.495 7.25606 20.4932 7.26211 20.4871L5.84789 19.0729C5.47968 19.4411 5.275 19.9148 5.275 20.445H7.275ZM7.26211 20.4871C7.26815 20.4811 7.26998 20.4802 7.26709 20.4822C7.26403 20.4843 7.25797 20.488 7.24931 20.4916C7.24061 20.4953 7.23229 20.4977 7.22557 20.499C7.21902 20.5003 7.21671 20.5 7.22 20.5V18.5C6.68977 18.5 6.21611 18.7047 5.84789 19.0729L7.26211 20.4871ZM52.023 42.845L52.9174 42.3978L52.9105 42.3839L52.9031 42.3702L52.023 42.845ZM51.883 43.79L52.5901 44.4971L52.5901 44.4971L51.883 43.79ZM42.678 43.055L43.5918 42.6489L43.5898 42.6444L42.678 43.055ZM39.668 36.37L40.5798 35.9594L40.3144 35.37H39.668V36.37ZM38.233 36.37V35.37H37.233V36.37H38.233ZM37.953 43.72L37.2459 43.0129L37.2459 43.0129L37.953 43.72ZM29.763 43.72L30.4701 43.0129L30.4701 43.0129L29.763 43.72ZM29.763 19.78L30.4701 20.4871L30.4701 20.4871L29.763 19.78ZM48.663 21.775L48.0371 22.5549L48.0431 22.5596L48.663 21.775ZM47.718 34.865L47.1796 34.0223L46.3969 34.5224L46.8379 35.3398L47.718 34.865ZM38.233 26.01V25.01H37.233V26.01H38.233ZM38.233 29.72H37.233V30.72H38.233V29.72ZM41.978 29.23L42.7373 29.8808L42.7483 29.8679L42.7589 29.8547L41.978 29.23ZM41.978 26.605L41.1384 27.1483L41.1572 27.1773L41.178 27.205L41.978 26.605ZM51.1286 43.2922C51.1286 43.2923 51.1284 43.2919 51.1281 43.2909C51.1277 43.2899 51.1275 43.2891 51.1274 43.2886C51.127 43.2872 51.128 43.2903 51.128 43.3H53.128C53.128 42.9884 53.0599 42.6827 52.9174 42.3978L51.1286 43.2922ZM51.128 43.3C51.128 43.2089 51.152 43.1384 51.1723 43.0978C51.1904 43.0617 51.2008 43.058 51.1759 43.0829L52.5901 44.4971C52.8624 44.2248 53.128 43.8221 53.128 43.3H51.128ZM51.1759 43.0829C51.1967 43.0621 51.2308 43.0368 51.2754 43.019C51.3187 43.0017 51.3503 43 51.358 43V45C51.8154 45 52.2503 44.8369 52.5901 44.4971L51.1759 43.0829ZM51.358 43H44.183V45H51.358V43ZM44.183 43C43.9677 43 43.8555 42.9542 43.796 42.9169C43.7397 42.8815 43.6647 42.8128 43.5918 42.6489L41.7642 43.4611C41.9714 43.9272 42.2871 44.331 42.7325 44.6106C43.1746 44.8883 43.6749 45 44.183 45V43ZM43.5898 42.6444L40.5798 35.9594L38.7562 36.7806L41.7662 43.4656L43.5898 42.6444ZM39.668 35.37H38.233V37.37H39.668V35.37ZM37.233 36.37V43.055H39.233V36.37H37.233ZM37.233 43.055C37.233 43.0583 37.2327 43.056 37.234 43.0494C37.2353 43.0427 37.2377 43.0344 37.2414 43.0257C37.245 43.017 37.2487 43.011 37.2508 43.0079C37.2528 43.005 37.2519 43.0068 37.2459 43.0129L38.6601 44.4271C39.0283 44.0589 39.233 43.5852 39.233 43.055H37.233ZM37.2459 43.0129C37.2399 43.0189 37.238 43.0198 37.2409 43.0178C37.244 43.0157 37.25 43.012 37.2587 43.0084C37.2674 43.0047 37.2757 43.0023 37.2824 43.001C37.289 42.9997 37.2913 43 37.288 43V45C37.8182 45 38.2919 44.7953 38.6601 44.4271L37.2459 43.0129ZM37.288 43H30.428V45H37.288V43ZM30.428 43C30.4247 43 30.427 42.9997 30.4336 43.001C30.4403 43.0023 30.4486 43.0047 30.4573 43.0084C30.466 43.012 30.472 43.0157 30.4751 43.0178C30.478 43.0198 30.4762 43.0189 30.4701 43.0129L29.0559 44.4271C29.4241 44.7953 29.8978 45 30.428 45V43ZM30.4701 43.0129C30.4641 43.0068 30.4633 43.005 30.4652 43.0079C30.4673 43.011 30.471 43.017 30.4746 43.0257C30.4783 43.0344 30.4807 43.0427 30.482 43.0494C30.4833 43.056 30.483 43.0583 30.483 43.055H28.483C28.483 43.5852 28.6877 44.0589 29.0559 44.4271L30.4701 43.0129ZM30.483 43.055V20.445H28.483V43.055H30.483ZM30.483 20.445C30.483 20.4417 30.4833 20.444 30.482 20.4506C30.4807 20.4573 30.4783 20.4656 30.4746 20.4743C30.471 20.483 30.4673 20.489 30.4652 20.4921C30.4633 20.495 30.4641 20.4932 30.4701 20.4871L29.0559 19.0729C28.6877 19.4411 28.483 19.9148 28.483 20.445H30.483ZM30.4701 20.4871C30.4762 20.4811 30.478 20.4802 30.4751 20.4822C30.472 20.4843 30.466 20.488 30.4573 20.4916C30.4486 20.4953 30.4403 20.4977 30.4336 20.499C30.427 20.5003 30.4247 20.5 30.428 20.5V18.5C29.8978 18.5 29.4241 18.7047 29.0559 19.0729L30.4701 20.4871ZM30.428 20.5H40.788V18.5H30.428V20.5ZM40.788 20.5C44.0073 20.5 46.3822 21.2269 48.0371 22.5549L49.2889 20.9951C47.1638 19.2897 44.2887 18.5 40.788 18.5V20.5ZM48.0431 22.5596C49.6502 23.8295 50.498 25.6735 50.498 28.25H52.498C52.498 25.1798 51.4558 22.7072 49.283 20.9904L48.0431 22.5596ZM50.498 28.25C50.498 30.6818 49.4355 32.5811 47.1796 34.0223L48.2564 35.7077C51.0405 33.9289 52.498 31.4182 52.498 28.25H50.498ZM46.8379 35.3398L51.1429 43.3198L52.9031 42.3702L48.5981 34.3902L46.8379 35.3398ZM37.233 26.01V29.72H39.233V26.01H37.233ZM38.233 30.72H40.788V28.72H38.233V30.72ZM40.788 30.72C41.5313 30.72 42.2303 30.4722 42.7373 29.8808L41.2188 28.5792C41.1657 28.6411 41.0714 28.72 40.788 28.72V30.72ZM42.7589 29.8547C43.201 29.3021 43.398 28.6407 43.398 27.935H41.398C41.398 28.256 41.315 28.4579 41.1971 28.6053L42.7589 29.8547ZM43.398 27.935C43.398 27.2281 43.2009 26.5688 42.778 26.005L41.178 27.205C41.3151 27.3878 41.398 27.6152 41.398 27.935H43.398ZM42.8176 26.0617C42.349 25.3376 41.6097 25.01 40.788 25.01V27.01C41.0396 27.01 41.0937 27.0791 41.1384 27.1483L42.8176 26.0617ZM40.788 25.01H38.233V27.01H40.788V25.01ZM55.7396 43.72L56.4467 43.0129L56.4467 43.0129L55.7396 43.72ZM55.7396 19.78L56.4467 20.4871L56.4467 20.4871L55.7396 19.78ZM64.2096 19.78L64.9167 19.0729L64.9167 19.0729L64.2096 19.78ZM64.2096 43.72L64.9167 44.4271L64.9167 44.4271L64.2096 43.72ZM63.5446 43H56.4046V45H63.5446V43ZM56.4046 43C56.4013 43 56.4036 42.9997 56.4101 43.001C56.4169 43.0023 56.4252 43.0047 56.4339 43.0084C56.4425 43.012 56.4486 43.0157 56.4517 43.0178C56.4546 43.0198 56.4527 43.0189 56.4467 43.0129L55.0325 44.4271C55.4007 44.7953 55.8743 45 56.4046 45V43ZM56.4467 43.0129C56.4406 43.0068 56.4398 43.005 56.4418 43.0079C56.4439 43.011 56.4476 43.017 56.4512 43.0257C56.4549 43.0344 56.4573 43.0427 56.4586 43.0494C56.4598 43.056 56.4596 43.0583 56.4596 43.055H54.4596C54.4596 43.5852 54.6642 44.0589 55.0325 44.4271L56.4467 43.0129ZM56.4596 43.055V20.445H54.4596V43.055H56.4596ZM56.4596 20.445C56.4596 20.4417 56.4598 20.444 56.4586 20.4506C56.4573 20.4573 56.4549 20.4656 56.4512 20.4743C56.4476 20.483 56.4439 20.489 56.4418 20.4921C56.4398 20.495 56.4406 20.4932 56.4467 20.4871L55.0325 19.0729C54.6642 19.4411 54.4596 19.9148 54.4596 20.445H56.4596ZM56.4467 20.4871C56.4527 20.4811 56.4546 20.4802 56.4517 20.4822C56.4486 20.4843 56.4425 20.488 56.4339 20.4916C56.4252 20.4953 56.4169 20.4977 56.4101 20.499C56.4036 20.5003 56.4013 20.5 56.4046 20.5V18.5C55.8743 18.5 55.4007 18.7047 55.0325 19.0729L56.4467 20.4871ZM56.4046 20.5H63.5446V18.5H56.4046V20.5ZM63.5446 20.5C63.5479 20.5 63.5456 20.5003 63.539 20.499C63.5323 20.4977 63.524 20.4953 63.5153 20.4916C63.5066 20.488 63.5005 20.4843 63.4975 20.4822C63.4946 20.4802 63.4964 20.4811 63.5025 20.4871L64.9167 19.0729C64.5485 18.7047 64.0748 18.5 63.5446 18.5V20.5ZM63.5025 20.4871C63.5085 20.4932 63.5093 20.495 63.5073 20.4921C63.5052 20.489 63.5016 20.483 63.4979 20.4743C63.4943 20.4656 63.4919 20.4573 63.4906 20.4506C63.4893 20.444 63.4896 20.4417 63.4896 20.445H65.4896C65.4896 19.9148 65.2849 19.4411 64.9167 19.0729L63.5025 20.4871ZM63.4896 20.445V43.055H65.4896V20.445H63.4896ZM63.4896 43.055C63.4896 43.0583 63.4893 43.056 63.4906 43.0494C63.4919 43.0427 63.4943 43.0344 63.4979 43.0257C63.5016 43.017 63.5052 43.011 63.5073 43.0079C63.5093 43.005 63.5085 43.0068 63.5025 43.0129L64.9167 44.4271C65.2849 44.0589 65.4896 43.5852 65.4896 43.055H63.4896ZM63.5025 43.0129C63.4964 43.0189 63.4946 43.0198 63.4975 43.0178C63.5005 43.0157 63.5066 43.012 63.5153 43.0084C63.524 43.0047 63.5323 43.0023 63.539 43.001C63.5456 42.9997 63.5479 43 63.5446 43V45C64.0748 45 64.5485 44.7953 64.9167 44.4271L63.5025 43.0129ZM88.4539 22.055L87.8405 22.8449L87.8499 22.852L88.4539 22.055ZM69.3089 43.72L70.016 43.0129L70.016 43.0129L69.3089 43.72ZM69.3089 19.78L70.016 20.4871L70.016 20.4871L69.3089 19.78ZM77.7789 26.325V25.325H76.7789V26.325H77.7789ZM77.7789 37.175H76.7789V38.175H77.7789V37.175ZM81.9439 36.475L81.2368 35.7679L81.2368 35.7679L81.9439 36.475ZM69.9739 20.5H80.0539V18.5H69.9739V20.5ZM80.0539 20.5C83.2901 20.5 85.8595 21.3063 87.8405 22.8448L89.0673 21.2652C86.6617 19.397 83.631 18.5 80.0539 18.5V20.5ZM87.8499 22.852C89.7921 24.324 90.7789 26.3719 90.7789 29.125H92.7789C92.7789 25.8114 91.549 23.146 89.0579 21.258L87.8499 22.852ZM90.7789 29.125V34.34H92.7789V29.125H90.7789ZM90.7789 34.34C90.7789 37.2632 89.8059 39.3447 87.9534 40.7542L89.1644 42.3458C91.6053 40.4887 92.7789 37.7635 92.7789 34.34H90.7789ZM87.9534 40.7542C86.0265 42.2203 83.4355 43 80.0889 43V45C83.7423 45 86.798 44.1464 89.1644 42.3458L87.9534 40.7542ZM80.0889 43H69.9739V45H80.0889V43ZM69.9739 43C69.9706 43 69.9729 42.9997 69.9795 43.001C69.9862 43.0023 69.9945 43.0047 70.0032 43.0084C70.0119 43.012 70.0179 43.0157 70.021 43.0178C70.0239 43.0198 70.0221 43.0189 70.016 43.0129L68.6018 44.4271C68.97 44.7953 69.4437 45 69.9739 45V43ZM70.016 43.0129C70.01 43.0068 70.0092 43.005 70.0111 43.0079C70.0132 43.011 70.0169 43.017 70.0205 43.0257C70.0242 43.0344 70.0266 43.0427 70.0279 43.0494C70.0292 43.056 70.0289 43.0583 70.0289 43.055H68.0289C68.0289 43.5852 68.2336 44.0589 68.6018 44.4271L70.016 43.0129ZM70.0289 43.055V20.445H68.0289V43.055H70.0289ZM70.0289 20.445C70.0289 20.4417 70.0292 20.444 70.0279 20.4506C70.0266 20.4573 70.0242 20.4656 70.0205 20.4743C70.0169 20.483 70.0132 20.489 70.0111 20.4921C70.0092 20.495 70.01 20.4932 70.016 20.4871L68.6018 19.0729C68.2336 19.4411 68.0289 19.9148 68.0289 20.445H70.0289ZM70.016 20.4871C70.0221 20.4811 70.0239 20.4802 70.021 20.4822C70.0179 20.4843 70.0119 20.488 70.0032 20.4916C69.9945 20.4953 69.9862 20.4977 69.9795 20.499C69.9729 20.5003 69.9706 20.5 69.9739 20.5V18.5C69.4437 18.5 68.97 18.7047 68.6018 19.0729L70.016 20.4871ZM76.7789 26.325V37.175H78.7789V26.325H76.7789ZM77.7789 38.175H80.0539V36.175H77.7789V38.175ZM80.0539 38.175C81.0551 38.175 81.9598 37.8733 82.651 37.1821L81.2368 35.7679C80.9947 36.01 80.6394 36.175 80.0539 36.175V38.175ZM82.651 37.1821C83.3863 36.4468 83.6789 35.4438 83.6789 34.34H81.6789C81.6789 35.1028 81.4815 35.5232 81.2368 35.7679L82.651 37.1821ZM83.6789 34.34V29.125H81.6789V34.34H83.6789ZM83.6789 29.125C83.6789 28.053 83.4289 27.0629 82.7522 26.3411C82.0641 25.6071 81.1002 25.325 80.0539 25.325V27.325C80.7577 27.325 81.1062 27.5096 81.2931 27.7089C81.4914 27.9204 81.6789 28.3303 81.6789 29.125H83.6789ZM80.0539 25.325H77.7789V27.325H80.0539V25.325ZM112.456 20.655L111.491 20.9181L111.5 20.9519L111.512 20.985L112.456 20.655ZM120.261 42.985L121.209 42.6688L121.207 42.6619L121.205 42.655L120.261 42.985ZM120.051 43.79L119.344 43.0829L119.344 43.0829L120.051 43.79ZM111.686 43.125L112.627 42.7863L112.625 42.7833L111.686 43.125ZM110.846 40.815L111.785 40.4733L111.546 39.815H110.846V40.815ZM103.321 40.815V39.815H102.62L102.381 40.4733L103.321 40.815ZM102.481 43.125L101.541 42.7833L101.54 42.7863L102.481 43.125ZM94.0807 43.79L93.3214 44.4408L93.3715 44.4992L93.4299 44.5493L94.0807 43.79ZM93.9057 42.985L92.9617 42.655L92.9593 42.6619L92.957 42.6688L93.9057 42.985ZM101.711 20.655L102.655 20.985L102.666 20.9519L102.675 20.9181L101.711 20.655ZM105.106 33.99L104.148 33.7017L103.76 34.99H105.106V33.99ZM109.061 33.99V34.99H110.413L110.017 33.697L109.061 33.99ZM107.066 27.48L108.022 27.187L107.057 24.0394L106.108 27.1917L107.066 27.48ZM103.286 20.5H110.881V18.5H103.286V20.5ZM110.881 20.5C111.15 20.5 111.266 20.5606 111.313 20.5952C111.355 20.6259 111.432 20.7005 111.491 20.9181L113.42 20.3919C113.27 19.8395 112.979 19.3366 112.496 18.9823C112.018 18.6319 111.452 18.5 110.881 18.5V20.5ZM111.512 20.985L119.317 43.315L121.205 42.655L113.4 20.325L111.512 20.985ZM119.312 43.3012C119.306 43.2826 119.302 43.2672 119.299 43.256C119.296 43.2446 119.294 43.236 119.293 43.2305C119.291 43.2202 119.291 43.2175 119.292 43.2245C119.293 43.2312 119.294 43.2436 119.294 43.2629C119.295 43.282 119.296 43.3058 119.296 43.335H121.296C121.296 43.1624 121.288 42.9043 121.209 42.6688L119.312 43.3012ZM119.296 43.335C119.296 43.2056 119.334 43.1164 119.354 43.0796C119.372 43.0463 119.378 43.0482 119.344 43.0829L120.758 44.4971C120.993 44.262 121.296 43.8682 121.296 43.335H119.296ZM119.344 43.0829C119.364 43.0621 119.399 43.0368 119.443 43.019C119.486 43.0017 119.518 43 119.526 43V45C119.983 45 120.418 44.8369 120.758 44.4971L119.344 43.0829ZM119.526 43H113.051V45H119.526V43ZM113.051 43C112.836 43 112.749 42.9555 112.724 42.9394C112.709 42.9296 112.668 42.9025 112.627 42.7863L110.745 43.4637C110.913 43.9308 111.205 44.3413 111.645 44.6231C112.075 44.8986 112.565 45 113.051 45V43ZM112.625 42.7833L111.785 40.4733L109.906 41.1567L110.746 43.4667L112.625 42.7833ZM110.846 39.815H103.321V41.815H110.846V39.815ZM102.381 40.4733L101.541 42.7833L103.42 43.4667L104.26 41.1567L102.381 40.4733ZM101.54 42.7863C101.498 42.9025 101.458 42.9296 101.442 42.9394C101.417 42.9555 101.33 43 101.116 43V45C101.601 45 102.092 44.8986 102.522 44.6231C102.961 44.3413 103.253 43.9308 103.422 43.4637L101.54 42.7863ZM101.116 43H94.6407V45H101.116V43ZM94.6407 43C94.6491 43 94.6695 43.0019 94.6943 43.0112C94.7057 43.0154 94.7151 43.0202 94.7221 43.0244C94.7289 43.0285 94.732 43.0312 94.7315 43.0307L93.4299 44.5493C93.7696 44.8405 94.1857 45 94.6407 45V43ZM94.84 43.1392C94.8137 43.1086 94.8183 43.1068 94.8312 43.1347C94.8452 43.1652 94.8707 43.2351 94.8707 43.335H92.8707C92.8707 43.8129 93.1059 44.1893 93.3214 44.4408L94.84 43.1392ZM94.8707 43.335C94.8707 43.3058 94.8712 43.282 94.872 43.2629C94.8728 43.2436 94.8738 43.2312 94.8745 43.2245C94.8752 43.2175 94.8752 43.2202 94.8733 43.2305C94.8722 43.236 94.8705 43.2446 94.8676 43.256C94.8648 43.2672 94.8606 43.2826 94.8544 43.3012L92.957 42.6688C92.8785 42.9043 92.8707 43.1624 92.8707 43.335H94.8707ZM94.8497 43.315L102.655 20.985L100.767 20.325L92.9617 42.655L94.8497 43.315ZM102.675 20.9181C102.735 20.7005 102.811 20.6259 102.853 20.5952C102.9 20.5606 103.017 20.5 103.286 20.5V18.5C102.715 18.5 102.149 18.6319 101.671 18.9823C101.188 19.3366 100.897 19.8395 100.746 20.3919L102.675 20.9181ZM105.106 34.99H109.061V32.99H105.106V34.99ZM110.017 33.697L108.022 27.187L106.11 27.773L108.105 34.283L110.017 33.697ZM106.108 27.1917L104.148 33.7017L106.063 34.2783L108.023 27.7683L106.108 27.1917ZM129.401 43.72L128.694 44.4271L128.694 44.4271L129.401 43.72ZM129.121 36.16H130.121V35.9216L130.014 35.7088L129.121 36.16ZM121.246 20.585L120.352 21.0322L120.354 21.0362L121.246 20.585ZM121.386 19.745L122.093 20.4521L122.093 20.4521L121.386 19.745ZM129.996 20.375L129.095 20.8078L129.101 20.8204L129.996 20.375ZM133.496 27.41L132.601 27.8554L133.496 29.655L134.391 27.8554L133.496 27.41ZM136.996 20.375L137.892 20.8205L137.898 20.8077L136.996 20.375ZM145.571 19.745L144.812 20.3958L144.862 20.4542L144.92 20.5043L145.571 19.745ZM145.746 20.585L146.639 21.0362L146.641 21.0322L145.746 20.585ZM137.871 36.16L136.979 35.7088L136.871 35.9216V36.16H137.871ZM137.591 43.72L138.298 44.4271L138.298 44.4271L137.591 43.72ZM136.926 43H130.066V45H136.926V43ZM130.066 43C130.063 43 130.065 42.9997 130.072 43.001C130.078 43.0023 130.087 43.0047 130.095 43.0084C130.104 43.012 130.11 43.0157 130.113 43.0178C130.116 43.0198 130.114 43.0189 130.108 43.0129L128.694 44.4271C129.062 44.7953 129.536 45 130.066 45V43ZM130.108 43.0129C130.102 43.0068 130.101 43.005 130.103 43.0079C130.105 43.011 130.109 43.017 130.113 43.0257C130.116 43.0344 130.119 43.0427 130.12 43.0494C130.121 43.056 130.121 43.0583 130.121 43.055H128.121C128.121 43.5852 128.326 44.0589 128.694 44.4271L130.108 43.0129ZM130.121 43.055V36.16H128.121V43.055H130.121ZM130.014 35.7088L122.139 20.1338L120.354 21.0362L128.229 36.6112L130.014 35.7088ZM122.141 20.1378C122.169 20.1939 122.176 20.233 122.178 20.2399C122.179 20.2473 122.176 20.2359 122.176 20.2H120.176C120.176 20.4396 120.207 20.7434 120.352 21.0322L122.141 20.1378ZM122.176 20.2C122.176 20.2664 122.161 20.3303 122.137 20.3828C122.114 20.4319 122.092 20.4538 122.093 20.4521L120.679 19.0379C120.394 19.323 120.176 19.7169 120.176 20.2H122.176ZM122.093 20.4521C122.098 20.4469 122.085 20.462 122.049 20.4774C122.013 20.4936 121.975 20.5 121.946 20.5V18.5C121.443 18.5 121.009 18.7076 120.679 19.0379L122.093 20.4521ZM121.946 20.5H128.526V18.5H121.946V20.5ZM128.526 20.5C128.737 20.5 128.849 20.5432 128.907 20.578C128.961 20.61 129.028 20.6689 129.095 20.8077L130.898 19.9423C130.684 19.4978 130.366 19.1191 129.93 18.8595C129.499 18.6027 129.015 18.5 128.526 18.5V20.5ZM129.101 20.8204L132.601 27.8554L134.391 26.9646L130.891 19.9296L129.101 20.8204ZM134.391 27.8554L137.891 20.8204L136.101 19.9296L132.601 26.9646L134.391 27.8554ZM137.898 20.8077C137.964 20.6689 138.031 20.61 138.085 20.578C138.144 20.5432 138.255 20.5 138.466 20.5V18.5C137.977 18.5 137.494 18.6027 137.062 18.8595C136.626 19.1191 136.308 19.4978 136.095 19.9423L137.898 20.8077ZM138.466 20.5H145.046V18.5H138.466V20.5ZM145.046 20.5C145.018 20.5 144.968 20.4936 144.912 20.4674C144.857 20.4415 144.824 20.4098 144.812 20.3958L146.33 19.0942C146.006 18.7154 145.556 18.5 145.046 18.5V20.5ZM144.92 20.5043C144.931 20.5133 144.904 20.4936 144.874 20.4379C144.841 20.3762 144.816 20.2929 144.816 20.2H146.816C146.816 19.6589 146.532 19.2516 146.222 18.9857L144.92 20.5043ZM144.816 20.2C144.816 20.2359 144.813 20.2473 144.815 20.2399C144.816 20.233 144.824 20.1939 144.852 20.1378L146.641 21.0322C146.785 20.7434 146.816 20.4396 146.816 20.2H144.816ZM144.854 20.1338L136.979 35.7088L138.764 36.6112L146.639 21.0362L144.854 20.1338ZM136.871 36.16V43.055H138.871V36.16H136.871ZM136.871 43.055C136.871 43.0583 136.871 43.056 136.872 43.0494C136.873 43.0427 136.876 43.0344 136.88 43.0257C136.883 43.017 136.887 43.011 136.889 43.0079C136.891 43.005 136.89 43.0068 136.884 43.0129L138.298 44.4271C138.666 44.0589 138.871 43.5852 138.871 43.055H136.871ZM136.884 43.0129C136.878 43.0189 136.876 43.0198 136.879 43.0178C136.882 43.0157 136.888 43.012 136.897 43.0084C136.906 43.0047 136.914 43.0023 136.921 43.001C136.927 42.9997 136.929 43 136.926 43V45C137.456 45 137.93 44.7953 138.298 44.4271L136.884 43.0129Z" fill="black" mask="url(#path-1-inside-1_3_21)"/>
<path d="M3.22 16.5H20.86C21.1167 16.5 21.3383 16.5933 21.525 16.78C21.7117 16.9667 21.805 17.1883 21.805 17.445V22.765C21.805 23.0217 21.7117 23.2433 21.525 23.43C21.3383 23.6167 21.1167 23.71 20.86 23.71H10.85V26.3H20.16C20.4167 26.3 20.6383 26.3933 20.825 26.58C21.0117 26.7667 21.105 26.9883 21.105 27.245V32.53C21.105 32.7867 21.0117 33.0083 20.825 33.195C20.6383 33.3817 20.4167 33.475 20.16 33.475H10.85V40.055C10.85 40.3117 10.7567 40.5333 10.57 40.72C10.3833 40.9067 10.1617 41 9.905 41H3.22C2.96333 41 2.74167 40.9067 2.555 40.72C2.36833 40.5333 2.275 40.3117 2.275 40.055V17.445C2.275 17.1883 2.36833 16.9667 2.555 16.78C2.74167 16.5933 2.96333 16.5 3.22 16.5ZM48.023 39.845C48.093 39.985 48.128 40.1367 48.128 40.3C48.128 40.4633 48.0463 40.6267 47.883 40.79C47.743 40.93 47.568 41 47.358 41H40.183C39.4597 41 38.958 40.685 38.678 40.055L35.668 33.37H34.233V40.055C34.233 40.3117 34.1397 40.5333 33.953 40.72C33.7663 40.9067 33.5447 41 33.288 41H26.428C26.1713 41 25.9497 40.9067 25.763 40.72C25.5763 40.5333 25.483 40.3117 25.483 40.055V17.445C25.483 17.1883 25.5763 16.9667 25.763 16.78C25.9497 16.5933 26.1713 16.5 26.428 16.5H36.788C40.148 16.5 42.773 17.2583 44.663 18.775C46.553 20.2683 47.498 22.4267 47.498 25.25C47.498 28.05 46.238 30.255 43.718 31.865L48.023 39.845ZM34.233 23.01V26.72H36.788C37.3013 26.72 37.698 26.5567 37.978 26.23C38.258 25.88 38.398 25.4483 38.398 24.935C38.398 24.4217 38.258 23.9783 37.978 23.605C37.7213 23.2083 37.3247 23.01 36.788 23.01H34.233ZM59.5446 41H52.4046C52.1479 41 51.9262 40.9067 51.7396 40.72C51.5529 40.5333 51.4596 40.3117 51.4596 40.055V17.445C51.4596 17.1883 51.5529 16.9667 51.7396 16.78C51.9262 16.5933 52.1479 16.5 52.4046 16.5H59.5446C59.8012 16.5 60.0229 16.5933 60.2096 16.78C60.3962 16.9667 60.4896 17.1883 60.4896 17.445V40.055C60.4896 40.3117 60.3962 40.5333 60.2096 40.72C60.0229 40.9067 59.8012 41 59.5446 41ZM65.9739 16.5H76.0539C79.4606 16.5 82.2606 17.3517 84.4539 19.055C86.6706 20.735 87.7789 23.0917 87.7789 26.125V31.34C87.7789 34.5133 86.7056 36.9167 84.5589 38.55C82.4122 40.1833 79.5889 41 76.0889 41H65.9739C65.7172 41 65.4956 40.9067 65.3089 40.72C65.1222 40.5333 65.0289 40.3117 65.0289 40.055V17.445C65.0289 17.1883 65.1222 16.9667 65.3089 16.78C65.4956 16.5933 65.7172 16.5 65.9739 16.5ZM73.7789 23.325V34.175H76.0539C76.8472 34.175 77.4772 33.9417 77.9439 33.475C78.4339 32.985 78.6789 32.2733 78.6789 31.34V26.125C78.6789 24.2583 77.8039 23.325 76.0539 23.325H73.7789ZM99.2857 16.5H106.881C107.721 16.5 108.246 16.885 108.456 17.655L116.261 39.985C116.284 40.055 116.296 40.1717 116.296 40.335C116.296 40.475 116.214 40.6267 116.051 40.79C115.911 40.93 115.736 41 115.526 41H109.051C108.351 41 107.896 40.7083 107.686 40.125L106.846 37.815H99.3207L98.4807 40.125C98.2707 40.7083 97.8157 41 97.1157 41H90.6407C90.4307 41 90.244 40.93 90.0807 40.79C89.9407 40.6267 89.8707 40.475 89.8707 40.335C89.8707 40.1717 89.8824 40.055 89.9057 39.985L97.7107 17.655C97.9207 16.885 98.4457 16.5 99.2857 16.5ZM101.106 30.99H105.061L103.066 24.48L101.106 30.99ZM132.926 41H126.066C125.81 41 125.588 40.9067 125.401 40.72C125.215 40.5333 125.121 40.3117 125.121 40.055V33.16L117.246 17.585C117.2 17.4917 117.176 17.3633 117.176 17.2C117.176 17.0367 117.246 16.885 117.386 16.745C117.55 16.5817 117.736 16.5 117.946 16.5H124.526C125.226 16.5 125.716 16.7917 125.996 17.375L129.496 24.41L132.996 17.375C133.276 16.7917 133.766 16.5 134.466 16.5H141.046C141.256 16.5 141.431 16.5817 141.571 16.745C141.735 16.885 141.816 17.0367 141.816 17.2C141.816 17.3633 141.793 17.4917 141.746 17.585L133.871 33.16V40.055C133.871 40.3117 133.778 40.5333 133.591 40.72C133.405 40.9067 133.183 41 132.926 41Z" fill="#343131"/>
</svg>
