<?xml version="1.0" encoding="UTF-8" standalone="no"?>
<svg
   width="145"
   height="29"
   viewBox="0 0 145 29"
   fill="none"
   version="1.1"
   id="svg3"
   sodipodi:docname="Friday.svg"
   inkscape:version="1.3.2 (091e20ef0f, 2023-11-25)"
   xmlns:inkscape="http://www.inkscape.org/namespaces/inkscape"
   xmlns:sodipodi="http://sodipodi.sourceforge.net/DTD/sodipodi-0.dtd"
   xmlns="http://www.w3.org/2000/svg"
   xmlns:svg="http://www.w3.org/2000/svg">
  <defs
     id="defs3" />
  <sodipodi:namedview
     id="namedview3"
     pagecolor="#ffffff"
     bordercolor="#000000"
     borderopacity="0.25"
     inkscape:showpageshadow="2"
     inkscape:pageopacity="0.0"
     inkscape:pagecheckerboard="0"
     inkscape:deskcolor="#d1d1d1"
     inkscape:zoom="12.2"
     inkscape:cx="82.5"
     inkscape:cy="28.032787"
     inkscape:window-width="2560"
     inkscape:window-height="1368"
     inkscape:window-x="1920"
     inkscape:window-y="0"
     inkscape:window-maximized="1"
     inkscape:current-layer="svg3" />
  <mask
     id="path-1-inside-1_3_21"
     fill="#ffffff">
    <path
       d="m 7.22,19.5 h 17.64 c 0.2567,0 0.4783,0.0933 0.665,0.28 0.1867,0.1867 0.28,0.4083 0.28,0.665 v 5.32 c 0,0.2567 -0.0933,0.4783 -0.28,0.665 -0.1867,0.1867 -0.4083,0.28 -0.665,0.28 H 14.85 v 2.59 h 9.31 c 0.2567,0 0.4783,0.0933 0.665,0.28 0.1867,0.1867 0.28,0.4083 0.28,0.665 v 5.285 c 0,0.2567 -0.0933,0.4783 -0.28,0.665 -0.1867,0.1867 -0.4083,0.28 -0.665,0.28 h -9.31 v 6.58 c 0,0.2567 -0.0933,0.4783 -0.28,0.665 C 14.3833,43.9067 14.1617,44 13.905,44 H 7.22 C 6.96333,44 6.74167,43.9067 6.555,43.72 6.36833,43.5333 6.275,43.3117 6.275,43.055 v -22.61 c 0,-0.2567 0.09333,-0.4783 0.28,-0.665 C 6.74167,19.5933 6.96333,19.5 7.22,19.5 Z m 44.803,23.345 c 0.07,0.14 0.105,0.2917 0.105,0.455 0,0.1633 -0.0817,0.3267 -0.245,0.49 -0.14,0.14 -0.315,0.21 -0.525,0.21 h -7.175 c -0.7233,0 -1.225,-0.315 -1.505,-0.945 l -3.01,-6.685 h -1.435 v 6.685 c 0,0.2567 -0.0933,0.4783 -0.28,0.665 C 37.7663,43.9067 37.5447,44 37.288,44 h -6.86 c -0.2567,0 -0.4783,-0.0933 -0.665,-0.28 -0.1867,-0.1867 -0.28,-0.4083 -0.28,-0.665 v -22.61 c 0,-0.2567 0.0933,-0.4783 0.28,-0.665 0.1867,-0.1867 0.4083,-0.28 0.665,-0.28 h 10.36 c 3.36,0 5.985,0.7583 7.875,2.275 1.89,1.4933 2.835,3.6517 2.835,6.475 0,2.8 -1.26,5.005 -3.78,6.615 z M 38.233,26.01 v 3.71 h 2.555 c 0.5133,0 0.91,-0.1633 1.19,-0.49 0.28,-0.35 0.42,-0.7817 0.42,-1.295 0,-0.5133 -0.14,-0.9567 -0.42,-1.33 -0.2567,-0.3967 -0.6533,-0.595 -1.19,-0.595 z M 63.5446,44 h -7.14 c -0.2567,0 -0.4784,-0.0933 -0.665,-0.28 -0.1867,-0.1867 -0.28,-0.4083 -0.28,-0.665 v -22.61 c 0,-0.2567 0.0933,-0.4783 0.28,-0.665 0.1866,-0.1867 0.4083,-0.28 0.665,-0.28 h 7.14 c 0.2566,0 0.4783,0.0933 0.665,0.28 0.1866,0.1867 0.28,0.4083 0.28,0.665 v 22.61 c 0,0.2567 -0.0934,0.4783 -0.28,0.665 -0.1867,0.1867 -0.4084,0.28 -0.665,0.28 z m 6.4293,-24.5 h 10.08 c 3.4067,0 6.2067,0.8517 8.4,2.555 2.2167,1.68 3.325,4.0367 3.325,7.07 v 5.215 c 0,3.1733 -1.0733,5.5767 -3.22,7.21 -2.1467,1.6333 -4.97,2.45 -8.47,2.45 h -10.115 c -0.2567,0 -0.4783,-0.0933 -0.665,-0.28 -0.1867,-0.1867 -0.28,-0.4083 -0.28,-0.665 v -22.61 c 0,-0.2567 0.0933,-0.4783 0.28,-0.665 0.1867,-0.1867 0.4083,-0.28 0.665,-0.28 z m 7.805,6.825 v 10.85 h 2.275 c 0.7933,0 1.4233,-0.2333 1.89,-0.7 0.49,-0.49 0.735,-1.2017 0.735,-2.135 v -5.215 c 0,-1.8667 -0.875,-2.8 -2.625,-2.8 z M 103.286,19.5 h 7.595 c 0.84,0 1.365,0.385 1.575,1.155 l 7.805,22.33 c 0.023,0.07 0.035,0.1867 0.035,0.35 0,0.14 -0.082,0.2917 -0.245,0.455 -0.14,0.14 -0.315,0.21 -0.525,0.21 h -6.475 c -0.7,0 -1.155,-0.2917 -1.365,-0.875 l -0.84,-2.31 h -7.525 l -0.84,2.31 C 102.271,43.7083 101.816,44 101.116,44 h -6.4753 c -0.21,0 -0.3967,-0.07 -0.56,-0.21 -0.14,-0.1633 -0.21,-0.315 -0.21,-0.455 0,-0.1633 0.0117,-0.28 0.035,-0.35 l 7.8053,-22.33 c 0.21,-0.77 0.735,-1.155 1.575,-1.155 z m 1.82,14.49 h 3.955 l -1.995,-6.51 z M 136.926,44 h -6.86 c -0.256,0 -0.478,-0.0933 -0.665,-0.28 -0.186,-0.1867 -0.28,-0.4083 -0.28,-0.665 V 36.16 l -7.875,-15.575 c -0.046,-0.0933 -0.07,-0.2217 -0.07,-0.385 0,-0.1633 0.07,-0.315 0.21,-0.455 0.164,-0.1633 0.35,-0.245 0.56,-0.245 h 6.58 c 0.7,0 1.19,0.2917 1.47,0.875 l 3.5,7.035 3.5,-7.035 c 0.28,-0.5833 0.77,-0.875 1.47,-0.875 h 6.58 c 0.21,0 0.385,0.0817 0.525,0.245 0.164,0.14 0.245,0.2917 0.245,0.455 0,0.1633 -0.023,0.2917 -0.07,0.385 l -7.875,15.575 v 6.895 c 0,0.2567 -0.093,0.4783 -0.28,0.665 -0.186,0.1867 -0.408,0.28 -0.665,0.28 z"
       id="path1" />
  </mask>
  <path
     d="m 25.525,19.78 -0.7071,0.7071 v 0 z m 0,6.65 -0.7071,-0.7071 v 0 z M 14.85,26.71 v -1 h -1 v 1 z m 0,2.59 h -1 v 1 h 1 z m 9.975,0.28 0.7071,-0.7071 v 0 z m -9.975,6.895 v -1 h -1 v 1 z m -0.28,7.245 0.7071,0.7071 v 0 z m -8.015,0 0.70711,-0.7071 v 0 z m 0,-23.94 0.70711,0.7071 v 0 z M 7.22,20.5 h 17.64 v -2 H 7.22 Z m 17.64,0 c 0.0033,0 0.001,3e-4 -0.0056,-0.001 -0.0067,-0.0013 -0.015,-0.0037 -0.0237,-0.0074 -0.0087,-0.0036 -0.0147,-0.0073 -0.0178,-0.0094 -0.0029,-0.002 -0.0011,-0.0011 0.005,0.0049 l 1.4142,-1.4142 C 25.8639,18.7047 25.3902,18.5 24.86,18.5 Z m -0.0421,-0.0129 c 0.006,0.0061 0.0069,0.0079 0.0049,0.005 C 24.8207,20.489 24.817,20.483 24.8134,20.4743 24.8097,20.4656 24.8073,20.4573 24.806,20.4506 24.8047,20.444 24.805,20.4417 24.805,20.445 h 2 c 0,-0.5302 -0.2047,-1.0039 -0.5729,-1.3721 z M 24.805,20.445 v 5.32 h 2 v -5.32 z m 0,5.32 c 0,0.0033 -3e-4,10e-4 0.001,-0.0056 0.0013,-0.0067 0.0037,-0.015 0.0074,-0.0237 0.0036,-0.0087 0.0073,-0.0147 0.0094,-0.0178 0.002,-0.0029 0.0011,-0.0011 -0.0049,0.005 l 1.4142,1.4142 c 0.3682,-0.3682 0.5729,-0.8419 0.5729,-1.3721 z m 0.0129,-0.0421 c -0.0061,0.006 -0.0079,0.0069 -0.005,0.0049 0.0031,-0.0021 0.0091,-0.0058 0.0178,-0.0094 0.0087,-0.0037 0.017,-0.0061 0.0237,-0.0074 0.0066,-0.0013 0.0089,-10e-4 0.0056,-10e-4 v 2 c 0.5302,0 1.0039,-0.2047 1.3721,-0.5729 z M 24.86,25.71 H 14.85 v 2 h 10.01 z m -11.01,1 v 2.59 h 2 v -2.59 z m 1,3.59 h 9.31 v -2 h -9.31 z m 9.31,0 c 0.0033,0 0.001,3e-4 -0.0056,-0.001 -0.0067,-0.0013 -0.015,-0.0037 -0.0237,-0.0074 -0.0087,-0.0036 -0.0147,-0.0073 -0.0178,-0.0094 -0.0029,-0.002 -0.0011,-0.0011 0.005,0.0049 l 1.4142,-1.4142 C 25.1639,28.5047 24.6902,28.3 24.16,28.3 Z m -0.0421,-0.0129 c 0.006,0.0061 0.0069,0.0079 0.0049,0.005 C 24.1207,30.289 24.117,30.283 24.1134,30.2743 24.1097,30.2656 24.1073,30.2573 24.106,30.2506 24.1047,30.244 24.105,30.2417 24.105,30.245 h 2 c 0,-0.5302 -0.2047,-1.0039 -0.5729,-1.3721 z M 24.105,30.245 v 5.285 h 2 v -5.285 z m 0,5.285 c 0,0.0033 -3e-4,10e-4 0.001,-0.0056 0.0013,-0.0067 0.0037,-0.015 0.0074,-0.0237 0.0036,-0.0087 0.0073,-0.0147 0.0094,-0.0178 0.002,-0.0029 0.0011,-0.0011 -0.0049,0.005 l 1.4142,1.4142 C 25.9003,36.5339 26.105,36.0602 26.105,35.53 Z m 0.0129,-0.0421 c -0.0061,0.006 -0.0079,0.0069 -0.005,0.0049 0.0031,-0.0021 0.0091,-0.0058 0.0178,-0.0094 0.0087,-0.0037 0.017,-0.0061 0.0237,-0.0074 0.0066,-0.0013 0.0089,-10e-4 0.0056,-10e-4 v 2 c 0.5302,0 1.0039,-0.2047 1.3721,-0.5729 z M 24.16,35.475 h -9.31 v 2 h 9.31 z m -10.31,1 v 6.58 h 2 v -6.58 z m 0,6.58 c 0,0.0033 -3e-4,10e-4 0.001,-0.0056 0.0013,-0.0067 0.0037,-0.015 0.0074,-0.0237 0.0036,-0.0087 0.0073,-0.0147 0.0094,-0.0178 0.002,-0.0029 0.0011,-0.0011 -0.0049,0.005 l 1.4142,1.4142 C 15.6453,44.0589 15.85,43.5852 15.85,43.055 Z m 0.0129,-0.0421 c -0.0061,0.006 -0.0079,0.0069 -0.005,0.0049 0.0031,-0.0021 0.0091,-0.0058 0.0178,-0.0094 0.0087,-0.0037 0.017,-0.0061 0.0237,-0.0074 C 13.906,42.9997 13.9083,43 13.905,43 v 2 c 0.5302,0 1.0039,-0.2047 1.3721,-0.5729 z M 13.905,43 H 7.22 v 2 h 6.685 z M 7.22,43 c -0.00329,0 -9.8e-4,-3e-4 0.00557,10e-4 0.00672,0.0013 0.01504,0.0037 0.02374,0.0074 0.00866,0.0036 0.01472,0.0073 0.01778,0.0094 0.00289,0.002 0.00106,0.0011 -0.00498,-0.0049 L 5.84789,44.4271 C 6.21611,44.7953 6.68977,45 7.22,45 Z m 0.04211,0.0129 C 7.25606,43.0068 7.25525,43.005 7.25723,43.0079 c 0.0021,0.0031 0.00576,0.0091 0.00941,0.0178 0.00366,0.0087 0.00604,0.017 0.00735,0.0237 C 7.27527,43.056 7.275,43.0583 7.275,43.055 h -2 c 0,0.5302 0.20467,1.0039 0.57289,1.3721 z M 7.275,43.055 v -22.61 h -2 v 22.61 z m 0,-22.61 c 0,-0.0033 2.7e-4,-0.001 -0.00101,0.0056 C 7.27268,20.4573 7.2703,20.4656 7.26664,20.4743 7.26299,20.483 7.25933,20.489 7.25723,20.4921 7.25525,20.495 7.25606,20.4932 7.26211,20.4871 L 5.84789,19.0729 C 5.47968,19.4411 5.275,19.9148 5.275,20.445 Z M 7.26211,20.4871 C 7.26815,20.4811 7.26998,20.4802 7.26709,20.4822 7.26403,20.4843 7.25797,20.488 7.24931,20.4916 7.24061,20.4953 7.23229,20.4977 7.22557,20.499 7.21902,20.5003 7.21671,20.5 7.22,20.5 v -2 c -0.53023,0 -1.00389,0.2047 -1.37211,0.5729 z M 52.023,42.845 52.9174,42.3978 52.9105,42.3839 52.9031,42.3702 Z m -0.14,0.945 0.7071,0.7071 v 0 z m -9.205,-0.735 0.9138,-0.4061 -0.002,-0.0045 z M 39.668,36.37 40.5798,35.9594 40.3144,35.37 H 39.668 Z m -1.435,0 v -1 h -1 v 1 z m -0.28,7.35 -0.7071,-0.7071 v 0 z m -8.19,0 0.7071,-0.7071 v 0 z m 0,-23.94 0.7071,0.7071 v 0 z m 18.9,1.995 -0.6259,0.7799 0.006,0.0047 z m -0.945,13.09 -0.5384,-0.8427 -0.7827,0.5001 0.441,0.8174 z M 38.233,26.01 v -1 h -1 v 1 z m 0,3.71 h -1 v 1 h 1 z m 3.745,-0.49 0.7593,0.6508 0.011,-0.0129 0.0106,-0.0132 z m 0,-2.625 -0.8396,0.5433 0.0188,0.029 0.0208,0.0277 z m 9.1506,16.6872 c 0,10e-5 -2e-4,-3e-4 -5e-4,-0.0013 -4e-4,-10e-4 -6e-4,-0.0018 -7e-4,-0.0023 -4e-4,-0.0014 6e-4,0.0017 6e-4,0.0114 h 2 c 0,-0.3116 -0.0681,-0.6173 -0.2106,-0.9022 z M 51.128,43.3 c 0,-0.0911 0.024,-0.1616 0.0443,-0.2022 0.0181,-0.0361 0.0285,-0.0398 0.0036,-0.0149 l 1.4142,1.4142 C 52.8624,44.2248 53.128,43.8221 53.128,43.3 Z m 0.0479,-0.2171 C 51.1967,43.0621 51.2308,43.0368 51.2754,43.019 51.3187,43.0017 51.3503,43 51.358,43 v 2 c 0.4574,0 0.8923,-0.1631 1.2321,-0.5029 z M 51.358,43 h -7.175 v 2 h 7.175 z m -7.175,0 c -0.2153,0 -0.3275,-0.0458 -0.387,-0.0831 -0.0563,-0.0354 -0.1313,-0.1041 -0.2042,-0.268 l -1.8276,0.8122 c 0.2072,0.4661 0.5229,0.8699 0.9683,1.1495 C 43.1746,44.8883 43.6749,45 44.183,45 Z m -0.5932,-0.3556 -3.01,-6.685 -1.8236,0.8212 3.01,6.685 z M 39.668,35.37 h -1.435 v 2 h 1.435 z m -2.435,1 v 6.685 h 2 V 36.37 Z m 0,6.685 c 0,0.0033 -3e-4,10e-4 0.001,-0.0056 0.0013,-0.0067 0.0037,-0.015 0.0074,-0.0237 0.0036,-0.0087 0.0073,-0.0147 0.0094,-0.0178 0.002,-0.0029 0.0011,-0.0011 -0.0049,0.005 l 1.4142,1.4142 c 0.3682,-0.3682 0.5729,-0.8419 0.5729,-1.3721 z m 0.0129,-0.0421 c -0.006,0.006 -0.0079,0.0069 -0.005,0.0049 0.0031,-0.0021 0.0091,-0.0058 0.0178,-0.0094 0.0087,-0.0037 0.017,-0.0061 0.0237,-0.0074 C 37.289,42.9997 37.2913,43 37.288,43 v 2 c 0.5302,0 1.0039,-0.2047 1.3721,-0.5729 z M 37.288,43 h -6.86 v 2 h 6.86 z m -6.86,0 c -0.0033,0 -0.001,-3e-4 0.0056,10e-4 0.0067,0.0013 0.015,0.0037 0.0237,0.0074 0.0087,0.0036 0.0147,0.0073 0.0178,0.0094 0.0029,0.002 0.0011,0.0011 -0.005,-0.0049 l -1.4142,1.4142 C 29.4241,44.7953 29.8978,45 30.428,45 Z m 0.0421,0.0129 c -0.006,-0.0061 -0.0068,-0.0079 -0.0049,-0.005 0.0021,0.0031 0.0058,0.0091 0.0094,0.0178 0.0037,0.0087 0.0061,0.017 0.0074,0.0237 0.0013,0.0066 0.001,0.0089 0.001,0.0056 h -2 c 0,0.5302 0.2047,1.0039 0.5729,1.3721 z m 0.0129,0.0421 v -22.61 h -2 v 22.61 z m 0,-22.61 c 0,-0.0033 3e-4,-0.001 -0.001,0.0056 -0.0013,0.0067 -0.0037,0.015 -0.0074,0.0237 -0.0036,0.0087 -0.0073,0.0147 -0.0094,0.0178 -0.0019,0.0029 -0.0011,0.0011 0.0049,-0.005 l -1.4142,-1.4142 c -0.3682,0.3682 -0.5729,0.8419 -0.5729,1.3721 z m -0.0129,0.0421 c 0.0061,-0.006 0.0079,-0.0069 0.005,-0.0049 -0.0031,0.0021 -0.0091,0.0058 -0.0178,0.0094 -0.0087,0.0037 -0.017,0.0061 -0.0237,0.0074 C 30.427,20.5003 30.4247,20.5 30.428,20.5 v -2 c -0.5302,0 -1.0039,0.2047 -1.3721,0.5729 z M 30.428,20.5 h 10.36 v -2 h -10.36 z m 10.36,0 c 3.2193,0 5.5942,0.7269 7.2491,2.0549 l 1.2518,-1.5598 C 47.1638,19.2897 44.2887,18.5 40.788,18.5 Z m 7.2551,2.0596 c 1.6071,1.2699 2.4549,3.1139 2.4549,5.6904 h 2 c 0,-3.0702 -1.0422,-5.5428 -3.215,-7.2596 z M 50.498,28.25 c 0,2.4318 -1.0625,4.3311 -3.3184,5.7723 l 1.0768,1.6854 C 51.0405,33.9289 52.498,31.4182 52.498,28.25 Z m -3.6601,7.0898 4.305,7.98 1.7602,-0.9496 -4.305,-7.98 z M 37.233,26.01 v 3.71 h 2 v -3.71 z m 1,4.71 h 2.555 v -2 h -2.555 z m 2.555,0 c 0.7433,0 1.4423,-0.2478 1.9493,-0.8392 L 41.2188,28.5792 C 41.1657,28.6411 41.0714,28.72 40.788,28.72 Z m 1.9709,-0.8653 c 0.4421,-0.5526 0.6391,-1.214 0.6391,-1.9197 h -2 c 0,0.321 -0.083,0.5229 -0.2009,0.6703 z M 43.398,27.935 c 0,-0.7069 -0.1971,-1.3662 -0.62,-1.93 l -1.6,1.2 c 0.1371,0.1828 0.22,0.4102 0.22,0.73 z M 42.8176,26.0617 C 42.349,25.3376 41.6097,25.01 40.788,25.01 v 2 c 0.2516,0 0.3057,0.0691 0.3504,0.1383 z M 40.788,25.01 h -2.555 v 2 h 2.555 z m 14.9516,18.71 0.7071,-0.7071 v 0 z m 0,-23.94 0.7071,0.7071 v 0 z m 8.47,0 0.7071,-0.7071 v 0 z m 0,23.94 0.7071,0.7071 v 0 z M 63.5446,43 h -7.14 v 2 h 7.14 z m -7.14,0 c -0.0033,0 -0.001,-3e-4 0.0055,10e-4 0.0068,0.0013 0.0151,0.0037 0.0238,0.0074 0.0086,0.0036 0.0147,0.0073 0.0178,0.0094 0.0029,0.002 10e-4,0.0011 -0.005,-0.0049 l -1.4142,1.4142 C 55.4007,44.7953 55.8743,45 56.4046,45 Z m 0.0421,0.0129 c -0.0061,-0.0061 -0.0069,-0.0079 -0.0049,-0.005 0.0021,0.0031 0.0058,0.0091 0.0094,0.0178 0.0037,0.0087 0.0061,0.017 0.0074,0.0237 0.0012,0.0066 0.001,0.0089 0.001,0.0056 h -2 c 0,0.5302 0.2046,1.0039 0.5729,1.3721 z m 0.0129,0.0421 v -22.61 h -2 v 22.61 z m 0,-22.61 c 0,-0.0033 2e-4,-0.001 -0.001,0.0056 -0.0013,0.0067 -0.0037,0.015 -0.0074,0.0237 -0.0036,0.0087 -0.0073,0.0147 -0.0094,0.0178 -0.002,0.0029 -0.0012,0.0011 0.0049,-0.005 l -1.4142,-1.4142 c -0.3683,0.3682 -0.5729,0.8419 -0.5729,1.3721 z m -0.0129,0.0421 c 0.006,-0.006 0.0079,-0.0069 0.005,-0.0049 -0.0031,0.0021 -0.0092,0.0058 -0.0178,0.0094 -0.0087,0.0037 -0.017,0.0061 -0.0238,0.0074 -0.0065,0.0013 -0.0088,0.001 -0.0055,0.001 v -2 c -0.5303,0 -1.0039,0.2047 -1.3721,0.5729 z M 56.4046,20.5 h 7.14 v -2 h -7.14 z m 7.14,0 c 0.0033,0 10e-4,3e-4 -0.0056,-0.001 -0.0067,-0.0013 -0.015,-0.0037 -0.0237,-0.0074 -0.0087,-0.0036 -0.0148,-0.0073 -0.0178,-0.0094 -0.0029,-0.002 -0.0011,-0.0011 0.005,0.0049 l 1.4142,-1.4142 C 64.5485,18.7047 64.0748,18.5 63.5446,18.5 Z m -0.0421,-0.0129 c 0.006,0.0061 0.0068,0.0079 0.0048,0.005 -0.0021,-0.0031 -0.0057,-0.0091 -0.0094,-0.0178 -0.0036,-0.0087 -0.006,-0.017 -0.0073,-0.0237 -0.0013,-0.0066 -10e-4,-0.0089 -10e-4,-0.0056 h 2 c 0,-0.5302 -0.2047,-1.0039 -0.5729,-1.3721 z M 63.4896,20.445 v 22.61 h 2 v -22.61 z m 0,22.61 c 0,0.0033 -3e-4,10e-4 10e-4,-0.0056 0.0013,-0.0067 0.0037,-0.015 0.0073,-0.0237 0.0037,-0.0087 0.0073,-0.0147 0.0094,-0.0178 0.002,-0.0029 0.0012,-0.0011 -0.0048,0.005 l 1.4142,1.4142 c 0.3682,-0.3682 0.5729,-0.8419 0.5729,-1.3721 z m 0.0129,-0.0421 c -0.0061,0.006 -0.0079,0.0069 -0.005,0.0049 0.003,-0.0021 0.0091,-0.0058 0.0178,-0.0094 0.0087,-0.0037 0.017,-0.0061 0.0237,-0.0074 C 63.5456,42.9997 63.5479,43 63.5446,43 v 2 c 0.5302,0 1.0039,-0.2047 1.3721,-0.5729 z M 88.4539,22.055 87.8405,22.8449 87.8499,22.852 Z M 69.3089,43.72 70.016,43.0129 v 0 z m 0,-23.94 0.7071,0.7071 v 0 z m 8.47,6.545 v -1 h -1 v 1 z m 0,10.85 h -1 v 1 h 1 z m 4.165,-0.7 -0.7071,-0.7071 v 0 z M 69.9739,20.5 h 10.08 v -2 h -10.08 z m 10.08,0 c 3.2362,0 5.8056,0.8063 7.7866,2.3448 l 1.2268,-1.5796 C 86.6617,19.397 83.631,18.5 80.0539,18.5 Z m 7.796,2.352 c 1.9422,1.472 2.929,3.5199 2.929,6.273 h 2 c 0,-3.3136 -1.2299,-5.979 -3.721,-7.867 z m 2.929,6.273 v 5.215 h 2 v -5.215 z m 0,5.215 c 0,2.9232 -0.973,5.0047 -2.8255,6.4142 l 1.211,1.5916 c 2.4409,-1.8571 3.6145,-4.5823 3.6145,-8.0058 z m -2.8255,6.4142 C 86.0265,42.2203 83.4355,43 80.0889,43 v 2 c 3.6534,0 6.7091,-0.8536 9.0755,-2.6542 z M 80.0889,43 h -10.115 v 2 h 10.115 z m -10.115,0 c -0.0033,0 -0.001,-3e-4 0.0056,10e-4 0.0067,0.0013 0.015,0.0037 0.0237,0.0074 0.0087,0.0036 0.0147,0.0073 0.0178,0.0094 0.0029,0.002 0.0011,0.0011 -0.005,-0.0049 l -1.4142,1.4142 C 68.97,44.7953 69.4437,45 69.9739,45 Z m 0.0421,0.0129 c -0.006,-0.0061 -0.0068,-0.0079 -0.0049,-0.005 0.0021,0.0031 0.0058,0.0091 0.0094,0.0178 0.0037,0.0087 0.0061,0.017 0.0074,0.0237 0.0013,0.0066 10e-4,0.0089 10e-4,0.0056 h -2 c 0,0.5302 0.2047,1.0039 0.5729,1.3721 z m 0.0129,0.0421 v -22.61 h -2 v 22.61 z m 0,-22.61 c 0,-0.0033 3e-4,-0.001 -10e-4,0.0056 -0.0013,0.0067 -0.0037,0.015 -0.0074,0.0237 -0.0036,0.0087 -0.0073,0.0147 -0.0094,0.0178 -0.0019,0.0029 -0.0011,0.0011 0.0049,-0.005 l -1.4142,-1.4142 c -0.3682,0.3682 -0.5729,0.8419 -0.5729,1.3721 z m -0.0129,0.0421 c 0.0061,-0.006 0.0079,-0.0069 0.005,-0.0049 -0.0031,0.0021 -0.0091,0.0058 -0.0178,0.0094 -0.0087,0.0037 -0.017,0.0061 -0.0237,0.0074 -0.0066,0.0013 -0.0089,0.001 -0.0056,0.001 v -2 c -0.5302,0 -1.0039,0.2047 -1.3721,0.5729 z m 6.7629,5.8379 v 10.85 h 2 v -10.85 z m 1,11.85 h 2.275 v -2 h -2.275 z m 2.275,0 c 1.0012,0 1.9059,-0.3017 2.5971,-0.9929 L 81.2368,35.7679 C 80.9947,36.01 80.6394,36.175 80.0539,36.175 Z m 2.5971,-0.9929 c 0.7353,-0.7353 1.0279,-1.7383 1.0279,-2.8421 h -2 c 0,0.7628 -0.1974,1.1832 -0.4421,1.4279 z M 83.6789,34.34 v -5.215 h -2 v 5.215 z m 0,-5.215 c 0,-1.072 -0.25,-2.0621 -0.9267,-2.7839 -0.6881,-0.734 -1.652,-1.0161 -2.6983,-1.0161 v 2 c 0.7038,0 1.0523,0.1846 1.2392,0.3839 0.1983,0.2115 0.3858,0.6214 0.3858,1.4161 z m -3.625,-3.8 h -2.275 v 2 h 2.275 z m 32.4021,-4.67 -0.965,0.2631 0.009,0.0338 0.012,0.0331 z m 7.805,22.33 0.948,-0.3162 -0.002,-0.0069 -0.002,-0.0069 z m -0.21,0.805 -0.707,-0.7071 v 0 z m -8.365,-0.665 0.941,-0.3387 -0.002,-0.003 z m -0.84,-2.31 0.939,-0.3417 -0.239,-0.6583 h -0.7 z m -7.525,0 v -1 h -0.701 l -0.239,0.6583 z m -0.84,2.31 -0.94,-0.3417 -10e-4,0.003 z m -8.4003,0.665 -0.7593,0.6508 0.0501,0.0584 0.0584,0.0501 z m -0.175,-0.805 -0.944,-0.33 -0.0024,0.0069 -0.0023,0.0069 z m 7.8053,-22.33 0.944,0.33 0.011,-0.0331 0.009,-0.0338 z m 3.395,13.335 -0.958,-0.2883 -0.388,1.2883 h 1.346 z m 3.955,0 v 1 h 1.352 l -0.396,-1.293 z m -1.995,-6.51 0.956,-0.293 -0.965,-3.1476 -0.949,3.1523 z m -3.78,-6.98 h 7.595 v -2 h -7.595 z m 7.595,0 c 0.269,0 0.385,0.0606 0.432,0.0952 0.042,0.0307 0.119,0.1053 0.178,0.3229 l 1.929,-0.5262 c -0.15,-0.5524 -0.441,-1.0553 -0.924,-1.4096 C 112.018,18.6319 111.452,18.5 110.881,18.5 Z m 0.631,0.485 7.805,22.33 1.888,-0.66 -7.805,-22.33 z m 7.8,22.3162 c -0.006,-0.0186 -0.01,-0.034 -0.013,-0.0452 -0.003,-0.0114 -0.005,-0.02 -0.006,-0.0255 -0.002,-0.0103 -0.002,-0.013 -0.001,-0.006 0.001,0.0067 0.002,0.0191 0.002,0.0384 0.001,0.0191 0.002,0.0429 0.002,0.0721 h 2 c 0,-0.1726 -0.008,-0.4307 -0.087,-0.6662 z m -0.016,0.0338 c 0,-0.1294 0.038,-0.2186 0.058,-0.2554 0.018,-0.0333 0.024,-0.0314 -0.01,0.0033 l 1.414,1.4142 c 0.235,-0.2351 0.538,-0.6289 0.538,-1.1621 z m 0.048,-0.2521 c 0.02,-0.0208 0.055,-0.0461 0.099,-0.0639 0.043,-0.0173 0.075,-0.019 0.083,-0.019 v 2 c 0.457,0 0.892,-0.1631 1.232,-0.5029 z M 119.526,43 h -6.475 v 2 h 6.475 z m -6.475,0 c -0.215,0 -0.302,-0.0445 -0.327,-0.0606 -0.015,-0.0098 -0.056,-0.0369 -0.097,-0.1531 l -1.882,0.6774 c 0.168,0.4671 0.46,0.8776 0.9,1.1594 0.43,0.2755 0.92,0.3769 1.406,0.3769 z m -0.426,-0.2167 -0.84,-2.31 -1.879,0.6834 0.84,2.31 z m -1.779,-2.9683 h -7.525 v 2 h 7.525 z m -8.465,0.6583 -0.84,2.31 1.879,0.6834 0.84,-2.31 z m -0.841,2.313 c -0.042,0.1162 -0.082,0.1433 -0.098,0.1531 C 101.417,42.9555 101.33,43 101.116,43 v 2 c 0.485,0 0.976,-0.1014 1.406,-0.3769 0.439,-0.2818 0.731,-0.6923 0.9,-1.1594 z M 101.116,43 h -6.4753 v 2 h 6.4753 z m -6.4753,0 c 0.0084,0 0.0288,0.0019 0.0536,0.0112 0.0114,0.0042 0.0208,0.009 0.0278,0.0132 0.0068,0.0041 0.0099,0.0068 0.0094,0.0063 l -1.3016,1.5186 C 93.7696,44.8405 94.1857,45 94.6407,45 Z m 0.1993,0.1392 c -0.0263,-0.0306 -0.0217,-0.0324 -0.0088,-0.0045 0.014,0.0305 0.0395,0.1004 0.0395,0.2003 h -2 c 0,0.4779 0.2352,0.8543 0.4507,1.1058 z m 0.0307,0.1958 c 0,-0.0292 5e-4,-0.053 0.0013,-0.0721 8e-4,-0.0193 0.0018,-0.0317 0.0025,-0.0384 7e-4,-0.007 7e-4,-0.0043 -0.0012,0.006 -0.0011,0.0055 -0.0028,0.0141 -0.0057,0.0255 -0.0028,0.0112 -0.007,0.0266 -0.0132,0.0452 L 92.957,42.6688 c -0.0785,0.2355 -0.0863,0.4936 -0.0863,0.6662 z m -0.021,-0.02 7.8053,-22.33 -1.888,-0.66 -7.8053,22.33 z m 7.8253,-22.3969 c 0.06,-0.2176 0.136,-0.2922 0.178,-0.3229 0.047,-0.0346 0.164,-0.0952 0.433,-0.0952 v -2 c -0.571,0 -1.137,0.1319 -1.615,0.4823 -0.483,0.3543 -0.774,0.8572 -0.925,1.4096 z m 2.431,14.0719 h 3.955 v -2 h -3.955 z m 4.911,-1.293 -1.995,-6.51 -1.912,0.586 1.995,6.51 z m -3.909,-6.5053 -1.96,6.51 1.915,0.5766 1.96,-6.51 z m 23.293,16.5283 -0.707,0.7071 v 0 z m -0.28,-7.56 h 1 v -0.2384 l -0.107,-0.2128 z m -7.875,-15.575 -0.894,0.4472 0.002,0.004 z m 0.14,-0.84 0.707,0.7071 v 0 z m 8.61,0.63 -0.901,0.4328 0.006,0.0126 z m 3.5,7.035 -0.895,0.4454 0.895,1.7996 0.895,-1.7996 z m 3.5,-7.035 0.896,0.4455 0.006,-0.0128 z m 8.575,-0.63 -0.759,0.6508 0.05,0.0584 0.058,0.0501 z m 0.175,0.84 0.893,0.4512 0.002,-0.004 z m -7.875,15.575 -0.892,-0.4512 -0.108,0.2128 V 36.16 Z m -0.28,7.56 0.707,0.7071 v 0 z M 136.926,43 h -6.86 v 2 h 6.86 z m -6.86,0 c -0.003,0 -0.001,-3e-4 0.006,10e-4 0.006,0.0013 0.015,0.0037 0.023,0.0074 0.009,0.0036 0.015,0.0073 0.018,0.0094 0.003,0.002 0.001,0.0011 -0.005,-0.0049 l -1.414,1.4142 C 129.062,44.7953 129.536,45 130.066,45 Z m 0.042,0.0129 c -0.006,-0.0061 -0.007,-0.0079 -0.005,-0.005 0.002,0.0031 0.006,0.0091 0.01,0.0178 0.003,0.0087 0.006,0.017 0.007,0.0237 0.001,0.0066 0.001,0.0089 0.001,0.0056 h -2 c 0,0.5302 0.205,1.0039 0.573,1.3721 z m 0.013,0.0421 V 36.16 h -2 v 6.895 z m -0.107,-7.3462 -7.875,-15.575 -1.785,0.9024 7.875,15.575 z m -7.873,-15.571 c 0.028,0.0561 0.035,0.0952 0.037,0.1021 0.001,0.0074 -0.002,-0.004 -0.002,-0.0399 h -2 c 0,0.2396 0.031,0.5434 0.176,0.8322 z m 0.035,0.0622 c 0,0.0664 -0.015,0.1303 -0.039,0.1828 -0.023,0.0491 -0.045,0.071 -0.044,0.0693 l -1.414,-1.4142 c -0.285,0.2851 -0.503,0.679 -0.503,1.1621 z m -0.083,0.2521 c 0.005,-0.0052 -0.008,0.0099 -0.044,0.0253 -0.036,0.0162 -0.074,0.0226 -0.103,0.0226 v -2 c -0.503,0 -0.937,0.2076 -1.267,0.5379 z M 121.946,20.5 h 6.58 v -2 h -6.58 z m 6.58,0 c 0.211,0 0.323,0.0432 0.381,0.078 0.054,0.032 0.121,0.0909 0.188,0.2297 l 1.803,-0.8654 C 130.684,19.4978 130.366,19.1191 129.93,18.8595 129.499,18.6027 129.015,18.5 128.526,18.5 Z m 0.575,0.3204 3.5,7.035 1.79,-0.8908 -3.5,-7.035 z m 5.29,7.035 3.5,-7.035 -1.79,-0.8908 -3.5,7.035 z m 3.507,-7.0477 c 0.066,-0.1388 0.133,-0.1977 0.187,-0.2297 0.059,-0.0348 0.17,-0.078 0.381,-0.078 v -2 c -0.489,0 -0.972,0.1027 -1.404,0.3595 -0.436,0.2596 -0.754,0.6383 -0.967,1.0828 z M 138.466,20.5 h 6.58 v -2 h -6.58 z m 6.58,0 c -0.028,0 -0.078,-0.0064 -0.134,-0.0326 -0.055,-0.0259 -0.088,-0.0576 -0.1,-0.0716 l 1.518,-1.3016 C 146.006,18.7154 145.556,18.5 145.046,18.5 Z m -0.126,0.0043 c 0.011,0.009 -0.016,-0.0107 -0.046,-0.0664 -0.033,-0.0617 -0.058,-0.145 -0.058,-0.2379 h 2 c 0,-0.5411 -0.284,-0.9484 -0.594,-1.2143 z M 144.816,20.2 c 0,0.0359 -0.003,0.0473 -0.001,0.0399 0.001,-0.0069 0.009,-0.046 0.037,-0.1021 l 1.789,0.8944 c 0.144,-0.2888 0.175,-0.5926 0.175,-0.8322 z m 0.038,-0.0662 -7.875,15.575 1.785,0.9024 7.875,-15.575 z M 136.871,36.16 v 6.895 h 2 V 36.16 Z m 0,6.895 c 0,0.0033 0,10e-4 0.001,-0.0056 10e-4,-0.0067 0.004,-0.015 0.008,-0.0237 0.003,-0.0087 0.007,-0.0147 0.009,-0.0178 0.002,-0.0029 10e-4,-0.0011 -0.005,0.005 l 1.414,1.4142 c 0.368,-0.3682 0.573,-0.8419 0.573,-1.3721 z m 0.013,-0.0421 c -0.006,0.006 -0.008,0.0069 -0.005,0.0049 0.003,-0.0021 0.009,-0.0058 0.018,-0.0094 0.009,-0.0037 0.017,-0.0061 0.024,-0.0074 0.006,-0.0013 0.008,-10e-4 0.005,-10e-4 v 2 c 0.53,0 1.004,-0.2047 1.372,-0.5729 z"
     fill="#000000"
     mask="url(#path-1-inside-1_3_21)"
     id="path2"
     transform="translate(-1.8852459,-15.983607)" />
  <path
     d="M 1.3347541,0.51639344 H 18.974754 c 0.2567,0 0.4783,0.0933 0.665,0.28 0.1867,0.1867 0.28,0.40829996 0.28,0.66499996 v 5.32 c 0,0.2567 -0.0933,0.4783 -0.28,0.665 -0.1867,0.1867 -0.4083,0.28 -0.665,0.28 H 8.9647541 v 2.5899996 h 9.3099999 c 0.2567,0 0.4783,0.0933 0.665,0.28 0.1867,0.1867 0.28,0.4083 0.28,0.665 v 5.285 c 0,0.2567 -0.0933,0.4783 -0.28,0.665 -0.1867,0.1867 -0.4083,0.28 -0.665,0.28 H 8.9647541 v 6.58 c 0,0.2567 -0.0933,0.4783 -0.28,0.665 -0.1867,0.1867 -0.4083,0.28 -0.665,0.28 h -6.685 c -0.25667,0 -0.47833,-0.0933 -0.665,-0.28 -0.18667,-0.1867 -0.28,-0.4083 -0.28,-0.665 V 1.4613934 c 0,-0.2567 0.09333,-0.47829996 0.28,-0.66499996 0.18667,-0.1867 0.40833,-0.28 0.665,-0.28 z M 46.137754,23.861393 c 0.07,0.14 0.105,0.2917 0.105,0.455 0,0.1633 -0.0817,0.3267 -0.245,0.49 -0.14,0.14 -0.315,0.21 -0.525,0.21 h -7.175 c -0.7233,0 -1.225,-0.315 -1.505,-0.945 l -3.01,-6.685 h -1.435 v 6.685 c 0,0.2567 -0.0933,0.4783 -0.28,0.665 -0.1867,0.1867 -0.4083,0.28 -0.665,0.28 h -6.86 c -0.2567,0 -0.4783,-0.0933 -0.665,-0.28 -0.1867,-0.1867 -0.28,-0.4083 -0.28,-0.665 V 1.4613934 c 0,-0.2567 0.0933,-0.47829996 0.28,-0.66499996 0.1867,-0.1867 0.4083,-0.28 0.665,-0.28 h 10.36 c 3.36,0 5.985,0.75829996 7.875,2.27499996 1.89,1.4933 2.835,3.6517 2.835,6.475 0,2.7999996 -1.26,5.0049996 -3.78,6.6149996 z m -13.79,-16.8349996 v 3.7099996 h 2.555 c 0.5133,0 0.91,-0.1633 1.19,-0.49 0.28,-0.3499996 0.42,-0.7816996 0.42,-1.2949996 0,-0.5133 -0.14,-0.9567 -0.42,-1.33 -0.2567,-0.3967 -0.6533,-0.595 -1.19,-0.595 z m 25.3116,17.9899996 h -7.14 c -0.2567,0 -0.4784,-0.0933 -0.665,-0.28 -0.1867,-0.1867 -0.28,-0.4083 -0.28,-0.665 V 1.4613934 c 0,-0.2567 0.0933,-0.47829996 0.28,-0.66499996 0.1866,-0.1867 0.4083,-0.28 0.665,-0.28 h 7.14 c 0.2566,0 0.4783,0.0933 0.665,0.28 0.1866,0.1867 0.28,0.40829996 0.28,0.66499996 V 24.071393 c 0,0.2567 -0.0934,0.4783 -0.28,0.665 -0.1867,0.1867 -0.4084,0.28 -0.665,0.28 z m 6.4293,-24.49999956 h 10.08 c 3.4067,0 6.2067,0.85169996 8.4,2.55499996 2.2167,1.68 3.325,4.0367 3.325,7.0699996 v 5.215 c 0,3.1733 -1.0733,5.5767 -3.22,7.21 -2.1467,1.6333 -4.97,2.45 -8.47,2.45 h -10.115 c -0.2567,0 -0.4783,-0.0933 -0.665,-0.28 -0.1867,-0.1867 -0.28,-0.4083 -0.28,-0.665 V 1.4613934 c 0,-0.2567 0.0933,-0.47829996 0.28,-0.66499996 0.1867,-0.1867 0.4083,-0.28 0.665,-0.28 z m 7.805,6.82499996 V 18.191393 h 2.275 c 0.7933,0 1.4233,-0.2333 1.89,-0.7 0.49,-0.49 0.735,-1.2017 0.735,-2.135 v -5.215 c 0,-1.8666996 -0.875,-2.7999996 -2.625,-2.7999996 z m 25.5068,-6.82499996 h 7.595296 c 0.84,0 1.365,0.385 1.575,1.15499996 l 7.805,22.3299996 c 0.023,0.07 0.035,0.1867 0.035,0.35 0,0.14 -0.082,0.2917 -0.245,0.455 -0.14,0.14 -0.315,0.21 -0.525,0.21 h -6.475 c -0.7,0 -1.155,-0.2917 -1.365,-0.875 l -0.84,-2.31 h -7.525296 l -0.84,2.31 c -0.21,0.5833 -0.665,0.875 -1.365,0.875 h -6.475 c -0.21,0 -0.3967,-0.07 -0.56,-0.21 -0.14,-0.1633 -0.21,-0.315 -0.21,-0.455 0,-0.1633 0.0117,-0.28 0.035,-0.35 l 7.805,-22.3299996 c 0.21,-0.76999996 0.735,-1.15499996 1.575,-1.15499996 z m 1.8203,14.48999956 h 3.954996 l -1.995,-6.5099996 z m 31.819996,10.01 h -6.86 c -0.256,0 -0.478,-0.0933 -0.665,-0.28 -0.186,-0.1867 -0.28,-0.4083 -0.28,-0.665 v -6.895 l -7.875,-15.5749996 c -0.046,-0.0933 -0.07,-0.2217 -0.07,-0.385 0,-0.1633 0.07,-0.31499996 0.21,-0.45499996 0.164,-0.1633 0.35,-0.245 0.56,-0.245 h 6.58 c 0.7,0 1.19,0.2917 1.47,0.87499996 l 3.5,7.035 3.5,-7.035 c 0.28,-0.58329996 0.77,-0.87499996 1.47,-0.87499996 h 6.58 c 0.21,0 0.385,0.0817 0.525,0.245 0.164,0.14 0.245,0.29169996 0.245,0.45499996 0,0.1633 -0.023,0.2917 -0.07,0.385 l -7.875,15.5749996 v 6.895 c 0,0.2567 -0.093,0.4783 -0.28,0.665 -0.186,0.1867 -0.408,0.28 -0.665,0.28 z"
     fill="#343131"
     id="path3" />
</svg>
