<svg width="392" height="90" viewBox="0 0 392 90" fill="none" xmlns="http://www.w3.org/2000/svg">
<g filter="url(#filter0_d_14_34)">
<path fill-rule="evenodd" clip-rule="evenodd" d="M19.4754 2.10804C11.4769 2.20417 4.34156 7.54776 2.84996 15.4066C0.174327 29.5037 0.536296 40.7604 3.06578 54.7708C4.53602 62.9142 11.7964 68.6393 20.0707 68.7515C146.057 70.4594 222.178 70.569 348.992 68.7195C351.983 68.6759 354.886 67.9007 357.404 66.5027C367.009 77.5941 379.268 81.1233 386.046 83.075C388.012 83.6409 389.517 84.0742 390.363 84.5208C376.513 74.0518 367.245 63.8526 364.222 59.1487C364.305 58.9606 364.385 58.7701 364.462 58.5773C370.927 42.2437 370.717 29.8126 364.369 12.8111C361.931 6.28184 355.492 2.21974 348.523 2.13843C221.806 0.660041 145.635 0.591942 19.4754 2.10804ZM391 85C390.874 84.8345 390.659 84.6768 390.363 84.5208C390.574 84.6805 390.787 84.8402 391 85Z" fill="white"/>
<path d="M2.84996 15.4066L1.86749 15.2201L1.8675 15.2201L2.84996 15.4066ZM19.4754 2.10804L19.4875 3.10797L19.4754 2.10804ZM3.06578 54.7708L2.08169 54.9485L2.08169 54.9485L3.06578 54.7708ZM20.0707 68.7515L20.0571 69.7514L20.0571 69.7514L20.0707 68.7515ZM348.992 68.7195L349.006 69.7194L349.006 69.7194L348.992 68.7195ZM357.404 66.5027L356.919 65.6284C357.333 65.3987 357.85 65.4904 358.16 65.848L357.404 66.5027ZM386.046 83.075L386.323 82.114L386.323 82.114L386.046 83.075ZM364.222 59.1487L363.381 59.6893C363.199 59.4063 363.171 59.0507 363.308 58.7432L364.222 59.1487ZM364.462 58.5773L365.392 58.9453L365.392 58.9453L364.462 58.5773ZM364.369 12.8111L365.306 12.4613L365.306 12.4613L364.369 12.8111ZM348.523 2.13843L348.512 3.13837L348.523 2.13843ZM391 85L391.795 84.3937C392.098 84.7905 392.061 85.3496 391.71 85.704C391.359 86.0584 390.8 86.0996 390.401 85.8004L391 85ZM1.8675 15.2201C3.45802 6.8401 11.0459 1.20927 19.4634 1.10812L19.4875 3.10797C11.9079 3.19906 5.2251 8.25541 3.83242 15.593L1.8675 15.2201ZM2.08169 54.9485C-0.46555 40.8397 -0.834804 29.4578 1.86749 15.2201L3.83242 15.593C1.18346 29.5497 1.53814 40.6811 4.04987 54.5931L2.08169 54.9485ZM20.0571 69.7514C11.3406 69.6332 3.64327 63.5978 2.08169 54.9485L4.04987 54.5931C5.42877 62.2305 12.2522 67.6454 20.0842 67.7516L20.0571 69.7514ZM349.006 69.7194C222.183 71.5691 146.052 71.4594 20.0571 69.7514L20.0842 67.7516C146.062 69.4593 222.174 69.569 348.977 67.7196L349.006 69.7194ZM357.89 67.377C355.225 68.8564 352.16 69.6734 349.006 69.7194L348.977 67.7196C351.807 67.6784 354.547 66.9449 356.919 65.6284L357.89 67.377ZM358.16 65.848C367.556 76.6978 379.553 80.1648 386.323 82.114L385.77 84.036C378.982 82.0818 366.463 78.4903 356.648 67.1573L358.16 65.848ZM386.323 82.114C388.232 82.6637 389.868 83.1288 390.83 83.6364L389.896 85.4051C389.166 85.0196 387.792 84.6182 385.77 84.036L386.323 82.114ZM389.76 85.3185C375.859 74.8107 366.491 64.5289 363.381 59.6893L365.063 58.6081C367.999 63.1763 377.168 73.2929 390.966 83.723L389.76 85.3185ZM365.392 58.9453C365.31 59.1508 365.225 59.3538 365.136 59.5543L363.308 58.7432C363.386 58.5675 363.461 58.3895 363.532 58.2092L365.392 58.9453ZM365.306 12.4613C368.507 21.0333 370.182 28.5116 370.22 35.9395C370.259 43.3713 368.659 50.6906 365.392 58.9453L363.532 58.2092C366.73 50.1304 368.257 43.0673 368.22 35.9499C368.183 28.8283 366.58 21.5904 363.432 13.1609L365.306 12.4613ZM348.535 1.1385C355.87 1.22408 362.708 5.50302 365.306 12.4613L363.432 13.1609C361.154 7.06066 355.114 3.2154 348.512 3.13837L348.535 1.1385ZM19.4634 1.10812C145.632 -0.408087 221.811 -0.339976 348.535 1.1385L348.512 3.13837C221.802 1.66006 145.639 1.59197 19.4875 3.10797L19.4634 1.10812ZM390.205 85.6063C390.213 85.6169 390.202 85.599 390.146 85.5578C390.092 85.5175 390.012 85.4661 389.896 85.4051L390.83 83.6364C391.171 83.8163 391.538 84.056 391.795 84.3937L390.205 85.6063ZM390.966 83.723C391.176 83.8818 391.387 84.0407 391.599 84.1996L390.401 85.8004C390.186 85.6397 389.972 85.4791 389.76 85.3185L390.966 83.723Z" fill="black"/>
</g>
<path d="M102.964 36.1C103 35.836 103.072 35.476 103.168 35.128C103.744 33.04 104.32 30.952 104.992 28.864C105.136 28.42 105.52 28.072 106 28.072C106.084 28.072 106.18 28.084 106.24 28.12C106.684 28.348 106.78 28.744 106.72 29.128C106.66 29.488 106.492 29.896 106.396 30.208C106.144 30.988 105.832 31.804 105.688 32.584C105.604 32.992 105.484 33.388 105.364 33.772C105.196 34.36 105.016 34.948 104.848 35.536C104.884 35.56 104.956 35.56 105.04 35.56C105.256 35.56 105.484 35.524 105.724 35.476C106.456 35.332 107.152 35.212 107.848 35.212C107.98 35.212 108.172 35.212 108.304 35.248C108.748 35.32 109.192 35.68 109.468 35.956C109.624 36.1 109.624 36.352 109.564 36.532C109.444 36.892 109.204 37.036 108.856 37.144C108.376 37.204 107.908 37.3 107.44 37.348C106.72 37.396 105.964 37.456 105.7 37.468C105.268 37.552 104.74 37.768 104.308 37.768C103.456 37.768 102.94 36.856 102.964 36.1ZM110.76 36.304C110.976 35.632 112.212 35.416 112.716 35.416C113.04 35.416 113.376 35.44 113.676 35.476C113.724 35.344 113.76 35.224 113.808 35.092C114.156 34.012 114.66 32.92 115.02 31.816C115.2 31.288 115.332 30.724 115.464 30.172C115.128 30.124 114.792 30.028 114.492 29.944C113.772 29.752 113.712 29.272 113.892 28.744C114.036 28.276 115.068 28.012 115.416 28.012C115.656 28.012 116.004 28.048 116.232 28.108C116.496 28.156 116.724 28.204 116.928 28.204C118.008 28.204 119.112 28.072 120.18 28.072C120.756 28.072 120.84 28.324 120.72 28.672C120.624 28.984 120.312 29.308 120 29.512C119.592 29.86 117.732 30.1 117.168 30.172C116.844 31.288 116.484 32.38 116.124 33.496C115.932 34.084 115.836 34.672 115.644 35.26C115.62 35.32 115.608 35.38 115.596 35.416C115.668 35.404 115.716 35.404 115.8 35.38C116.004 35.344 116.232 35.296 116.424 35.248C116.868 35.164 117.3 35.056 117.612 35.056C117.852 35.056 118.188 35.068 118.452 35.14C118.728 35.188 118.728 35.668 118.644 35.92C118.608 36.028 118.56 36.136 118.452 36.256C118.296 36.412 118.02 36.532 117.756 36.616C115.956 37.276 113.616 37.456 111.72 37.456C111.336 37.384 111.192 37.348 110.988 37C110.904 36.796 110.664 36.58 110.76 36.304ZM125.584 34.276C125.296 34.312 124.9 34.396 124.564 34.396C124.384 34.396 124.216 34.372 124.096 34.312C123.688 34.156 123.532 33.544 123.64 33.196C123.676 33.076 123.784 32.884 124.084 32.776C124.444 32.644 124.744 32.656 125.08 32.572C125.728 32.428 126.364 32.344 127.024 32.2C127.504 32.08 127.708 32.068 128.2 32.068C128.788 32.068 130.54 32.14 130.264 32.968C130.072 33.58 129.508 33.676 129.016 33.736C128.932 33.748 128.608 33.784 128.548 33.784C128.596 34.24 128.584 34.756 128.428 35.224C128.272 35.716 127.744 36.268 127.24 36.544C126.028 37.396 124.372 37.516 123.172 37.516C121.708 37.516 120.7 36.532 120.1 35.488C119.68 34.744 119.62 33.772 119.944 32.776C120.4 31.372 121.3 30.496 122.524 29.476C123.556 28.612 124.852 27.928 126.028 27.928C126.772 27.928 127.576 28.384 128.044 28.828C128.272 29.116 128.452 29.824 128.332 30.22C128.26 30.412 128.068 30.82 127.624 30.952C127.468 31 127.204 31.096 127 31.096C126.7 31.096 126.556 30.94 126.496 30.82C126.436 30.676 126.376 30.52 126.316 30.34C126.196 30.028 126.028 29.788 125.572 29.788C124.276 29.788 122.044 32.224 121.708 33.244C121.54 33.772 121.624 34.252 121.828 34.636C121.924 34.78 122.044 34.9 122.128 35.032C122.428 35.5 122.872 35.596 123.484 35.596C124.024 35.596 125.416 35.5 125.848 35.332C126.208 35.188 126.784 34.492 126.892 34.156C126.916 34.084 126.916 34.012 126.904 33.94C126.724 34.012 125.764 34.24 125.584 34.276ZM130.415 36.352C130.739 35.38 130.931 34.396 131.243 33.424C131.555 32.464 132.983 28.312 134.339 28.312C134.843 28.312 135.071 28.66 134.903 29.152C134.855 29.32 134.759 29.488 134.663 29.68C134.435 30.136 134.243 30.604 134.063 31.072C133.847 31.612 133.559 32.224 133.391 32.764C134.399 32.572 135.479 32.548 136.451 32.536C136.511 32.26 136.607 31.984 136.703 31.696C136.847 31.252 137.015 30.82 137.207 30.34C137.459 29.716 137.651 29.116 137.951 28.504C138.179 28.108 138.707 27.604 139.151 27.604C139.463 27.604 139.511 27.772 139.547 28.012C139.571 28.696 139.319 29.476 139.091 30.184C138.935 30.652 138.743 31.132 138.587 31.6C138.119 33.052 137.819 34.516 137.351 35.956C137.231 36.34 137.027 37.228 136.739 37.552C136.631 37.696 136.391 37.864 136.079 37.864C135.575 37.864 135.347 37.516 135.371 37.072C135.431 36.184 135.635 35.452 135.875 34.552C135.395 34.588 134.891 34.6 134.387 34.636C133.835 34.66 133.271 34.792 132.695 34.912C132.467 35.608 132.215 36.304 131.915 37C131.687 37.456 131.399 37.744 130.919 37.744C130.667 37.744 130.499 37.66 130.415 37.54C130.283 37.24 130.295 36.724 130.415 36.352ZM144.11 36.616C144.038 36.856 143.594 37.504 142.934 37.504C142.586 37.504 142.478 37.264 142.418 37.072C142.37 36.844 142.358 36.544 142.394 36.256C142.502 35.14 142.91 33.832 143.282 32.704C143.462 32.14 143.594 31.564 143.678 31C143.714 30.796 143.858 30.256 143.906 30.052C143.294 30.052 142.742 30.088 142.106 30.244C141.902 30.292 141.65 30.34 141.446 30.34C140.966 30.34 140.75 30.148 140.666 29.908C140.57 29.62 140.63 29.272 140.834 28.924C141.17 28.276 142.994 28.144 143.546 28.144C145.046 28.144 147.062 28.168 148.382 28.576C148.814 28.696 148.97 29.284 148.814 29.776C148.742 29.992 148.478 30.1 148.31 30.136C148.106 30.172 147.83 30.184 147.53 30.184C146.954 30.184 146.282 30.136 145.91 30.124C145.61 30.784 145.202 31.984 144.938 32.776C144.698 33.52 144.422 34.624 144.242 35.368C144.134 35.8 144.254 36.184 144.11 36.616ZM149.626 37.66C149.194 37.66 148.93 37.396 148.822 37C148.558 36.136 148.954 33.976 149.254 32.848C149.458 32.152 149.59 31.456 149.734 30.76C149.83 30.316 149.914 29.824 150.07 29.368C150.19 28.984 150.538 28.36 151.006 28.24C151.102 28.228 151.21 28.204 151.294 28.204C152.074 28.204 152.122 29.008 152.29 29.56C152.386 29.872 152.518 30.556 152.698 30.796C153.106 31.456 153.586 32.116 154.054 32.764C154.294 33.16 154.582 33.52 154.894 33.868C155.038 33.988 155.17 34.084 155.35 34.12C155.698 33.052 156.058 31.984 156.406 30.904C156.538 30.484 156.934 29.392 157.222 28.984C157.498 28.588 158.002 28.192 158.506 28.192C158.854 28.192 158.914 28.432 158.938 28.708C158.818 29.788 157.702 32.728 157.246 33.856C157.222 33.928 157.198 34.012 157.174 34.084C156.91 34.9 156.754 35.728 156.502 36.532C156.31 37.132 155.89 37.336 155.47 37.336C155.098 37.336 154.714 37.18 154.462 37C153.826 36.424 153.31 35.752 152.794 35.068C152.518 34.756 152.23 34.36 151.99 33.964C151.702 33.496 151.462 32.992 151.162 32.536C151.054 33.052 150.982 33.556 150.922 34.06C150.862 34.792 150.79 35.5 150.646 36.232C150.55 36.844 150.406 37.66 149.626 37.66ZM157.998 36.304C158.214 35.632 159.45 35.416 159.954 35.416C160.278 35.416 160.614 35.44 160.914 35.476C160.962 35.344 160.998 35.224 161.046 35.092C161.394 34.012 161.898 32.92 162.258 31.816C162.438 31.288 162.57 30.724 162.702 30.172C162.366 30.124 162.03 30.028 161.73 29.944C161.01 29.752 160.95 29.272 161.13 28.744C161.274 28.276 162.306 28.012 162.654 28.012C162.894 28.012 163.242 28.048 163.47 28.108C163.734 28.156 163.962 28.204 164.166 28.204C165.246 28.204 166.35 28.072 167.418 28.072C167.994 28.072 168.078 28.324 167.958 28.672C167.862 28.984 167.55 29.308 167.238 29.512C166.83 29.86 164.97 30.1 164.406 30.172C164.082 31.288 163.722 32.38 163.362 33.496C163.17 34.084 163.074 34.672 162.882 35.26C162.858 35.32 162.846 35.38 162.834 35.416C162.906 35.404 162.954 35.404 163.038 35.38C163.242 35.344 163.47 35.296 163.662 35.248C164.106 35.164 164.538 35.056 164.85 35.056C165.09 35.056 165.426 35.068 165.69 35.14C165.966 35.188 165.966 35.668 165.882 35.92C165.846 36.028 165.798 36.136 165.69 36.256C165.534 36.412 165.258 36.532 164.994 36.616C163.194 37.276 160.854 37.456 158.958 37.456C158.574 37.384 158.43 37.348 158.226 37C158.142 36.796 157.902 36.58 157.998 36.304ZM168.54 37.66C168.108 37.66 167.844 37.396 167.736 37C167.472 36.136 167.868 33.976 168.168 32.848C168.372 32.152 168.504 31.456 168.648 30.76C168.744 30.316 168.828 29.824 168.984 29.368C169.104 28.984 169.452 28.36 169.92 28.24C170.016 28.228 170.124 28.204 170.208 28.204C170.988 28.204 171.036 29.008 171.204 29.56C171.3 29.872 171.432 30.556 171.612 30.796C172.02 31.456 172.5 32.116 172.968 32.764C173.208 33.16 173.496 33.52 173.808 33.868C173.952 33.988 174.084 34.084 174.264 34.12C174.612 33.052 174.972 31.984 175.32 30.904C175.452 30.484 175.848 29.392 176.136 28.984C176.412 28.588 176.916 28.192 177.42 28.192C177.768 28.192 177.828 28.432 177.852 28.708C177.732 29.788 176.616 32.728 176.16 33.856C176.136 33.928 176.112 34.012 176.088 34.084C175.824 34.9 175.668 35.728 175.416 36.532C175.224 37.132 174.804 37.336 174.384 37.336C174.012 37.336 173.628 37.18 173.376 37C172.74 36.424 172.224 35.752 171.708 35.068C171.432 34.756 171.144 34.36 170.904 33.964C170.616 33.496 170.376 32.992 170.076 32.536C169.968 33.052 169.896 33.556 169.836 34.06C169.776 34.792 169.704 35.5 169.56 36.232C169.464 36.844 169.32 37.66 168.54 37.66ZM183.428 34.276C183.14 34.312 182.744 34.396 182.408 34.396C182.228 34.396 182.06 34.372 181.94 34.312C181.532 34.156 181.376 33.544 181.484 33.196C181.52 33.076 181.628 32.884 181.928 32.776C182.288 32.644 182.588 32.656 182.924 32.572C183.572 32.428 184.208 32.344 184.868 32.2C185.348 32.08 185.552 32.068 186.044 32.068C186.632 32.068 188.384 32.14 188.108 32.968C187.916 33.58 187.352 33.676 186.86 33.736C186.776 33.748 186.452 33.784 186.392 33.784C186.44 34.24 186.428 34.756 186.272 35.224C186.116 35.716 185.588 36.268 185.084 36.544C183.872 37.396 182.216 37.516 181.016 37.516C179.552 37.516 178.544 36.532 177.944 35.488C177.524 34.744 177.464 33.772 177.788 32.776C178.244 31.372 179.144 30.496 180.368 29.476C181.4 28.612 182.696 27.928 183.872 27.928C184.616 27.928 185.42 28.384 185.888 28.828C186.116 29.116 186.296 29.824 186.176 30.22C186.104 30.412 185.912 30.82 185.468 30.952C185.312 31 185.048 31.096 184.844 31.096C184.544 31.096 184.4 30.94 184.34 30.82C184.28 30.676 184.22 30.52 184.16 30.34C184.04 30.028 183.872 29.788 183.416 29.788C182.12 29.788 179.888 32.224 179.552 33.244C179.384 33.772 179.468 34.252 179.672 34.636C179.768 34.78 179.888 34.9 179.972 35.032C180.272 35.5 180.716 35.596 181.328 35.596C181.868 35.596 183.26 35.5 183.692 35.332C184.052 35.188 184.628 34.492 184.736 34.156C184.76 34.084 184.76 34.012 184.748 33.94C184.568 34.012 183.608 34.24 183.428 34.276ZM198.52 36.616C198.448 36.856 198.004 37.504 197.344 37.504C196.996 37.504 196.888 37.264 196.828 37.072C196.78 36.844 196.768 36.544 196.804 36.256C196.912 35.14 197.32 33.832 197.692 32.704C197.872 32.14 198.004 31.564 198.088 31C198.124 30.796 198.268 30.256 198.316 30.052C197.704 30.052 197.152 30.088 196.516 30.244C196.312 30.292 196.06 30.34 195.856 30.34C195.376 30.34 195.16 30.148 195.076 29.908C194.98 29.62 195.04 29.272 195.244 28.924C195.58 28.276 197.404 28.144 197.956 28.144C199.456 28.144 201.472 28.168 202.792 28.576C203.224 28.696 203.38 29.284 203.224 29.776C203.152 29.992 202.888 30.1 202.72 30.136C202.516 30.172 202.24 30.184 201.94 30.184C201.364 30.184 200.692 30.136 200.32 30.124C200.02 30.784 199.612 31.984 199.348 32.776C199.108 33.52 198.832 34.624 198.652 35.368C198.544 35.8 198.664 36.184 198.52 36.616ZM205.109 33.208C205.709 33.124 206.501 33.088 207.053 33.088C207.005 32.38 206.837 31.408 206.741 30.724C206.261 31.336 205.481 32.584 205.109 33.208ZM202.865 36.892C202.649 37.348 202.241 37.504 201.845 37.504C201.305 37.504 201.209 37.12 201.197 36.856C201.197 36.028 201.785 35.068 202.205 34.408C202.565 33.868 202.961 33.328 203.273 32.848C203.513 32.512 203.729 32.188 203.921 31.852C204.341 31.132 204.785 30.472 205.301 29.776C205.577 29.392 205.853 28.984 206.141 28.624C206.393 28.312 206.621 27.916 207.065 27.916C207.245 27.916 207.389 27.976 207.521 28.072C207.929 28.228 208.337 28.744 208.361 29.152C208.409 29.368 208.457 29.596 208.517 29.824C208.829 31.324 208.793 32.86 208.961 34.372C209.045 35.056 209.069 35.872 208.829 36.58C208.685 37.036 208.373 37.576 207.821 37.576C207.053 37.576 207.245 36.856 207.209 36.412C207.161 35.836 207.209 35.404 207.089 34.876C206.657 34.972 203.957 35.176 203.957 35.176C203.645 35.824 203.213 36.256 202.865 36.892ZM210.448 36.1C210.484 35.836 210.556 35.476 210.652 35.128C211.228 33.04 211.804 30.952 212.476 28.864C212.62 28.42 213.004 28.072 213.484 28.072C213.568 28.072 213.664 28.084 213.724 28.12C214.168 28.348 214.264 28.744 214.204 29.128C214.144 29.488 213.976 29.896 213.88 30.208C213.628 30.988 213.316 31.804 213.172 32.584C213.088 32.992 212.968 33.388 212.848 33.772C212.68 34.36 212.5 34.948 212.332 35.536C212.368 35.56 212.44 35.56 212.524 35.56C212.74 35.56 212.968 35.524 213.208 35.476C213.94 35.332 214.636 35.212 215.332 35.212C215.464 35.212 215.656 35.212 215.788 35.248C216.232 35.32 216.676 35.68 216.952 35.956C217.108 36.1 217.108 36.352 217.048 36.532C216.928 36.892 216.688 37.036 216.34 37.144C215.86 37.204 215.392 37.3 214.924 37.348C214.204 37.396 213.448 37.456 213.184 37.468C212.752 37.552 212.224 37.768 211.792 37.768C210.94 37.768 210.424 36.856 210.448 36.1ZM219.156 37.888C218.616 37.888 218.28 37.3 218.376 36.808C218.412 36.616 218.472 36.448 218.532 36.256C218.748 35.596 218.988 34.948 219.204 34.288C219.564 33.148 219.648 31.996 220.032 30.832C220.212 30.292 220.416 29.524 220.68 29.02C220.812 28.636 221.16 28.156 221.616 28.156C221.928 28.156 222.072 28.36 222.144 28.504C222.504 29.02 222.072 30.028 221.844 30.712C221.796 30.88 221.736 31.024 221.676 31.192C221.58 31.492 221.52 31.792 221.46 32.068C222.036 31.66 222.6 31.228 223.116 30.76C223.608 30.292 224.748 29.284 225.384 28.924C225.816 28.66 226.692 27.964 227.124 27.964C227.508 27.964 227.7 28.228 227.7 28.576C227.736 28.852 227.7 29.164 227.652 29.32C227.484 29.836 226.956 30.172 226.524 30.496C226.128 30.796 225.72 31.036 225.324 31.336C224.832 31.684 222.48 33.664 222.372 33.712C222.984 34.24 224.688 34.876 225.48 35.056C225.912 35.128 226.944 35.284 226.92 35.764C226.92 35.848 226.896 35.956 226.86 36.064C226.644 36.724 225.888 36.928 225.252 36.928C223.716 36.928 221.724 35.764 220.812 34.816C220.668 35.368 220.5 35.944 220.308 36.508C220.152 36.988 219.792 37.888 219.156 37.888ZM230.211 34.624C230.307 35.476 231.903 35.824 232.719 35.824C233.379 35.824 234.171 35.692 234.771 35.104C234.471 34.912 234.147 34.792 233.811 34.636C233.235 34.372 232.671 34.12 232.071 33.892C231.495 33.652 230.919 33.424 230.379 33.124C229.683 32.644 229.059 31.924 229.407 30.868C229.971 29.128 232.455 28.084 233.967 28.084C235.287 28.084 236.283 28.744 236.835 29.716C237.051 30.016 237.207 30.4 237.087 30.748C236.955 31.156 236.331 31.42 235.899 31.42C235.395 31.42 235.011 30.784 234.915 30.4C234.842 30.124 234.591 29.836 234.291 29.836C233.667 29.836 232.731 30.064 232.095 30.496C231.843 30.688 231.579 30.904 231.327 31.096C231.327 31.192 231.723 31.504 231.807 31.576C232.143 31.852 232.467 32.08 232.503 32.116C232.911 32.272 233.283 32.452 233.679 32.572C234.555 32.884 235.407 33.304 236.091 33.772C236.631 34.156 236.835 34.792 236.631 35.404C236.271 36.532 235.239 37.276 234.087 37.492C233.535 37.588 232.911 37.66 232.371 37.66C231.507 37.66 230.967 37.336 230.259 37.072C229.323 36.7 227.882 35.764 228.291 34.516C228.435 34.084 228.771 33.808 229.227 33.808C229.755 33.808 230.175 34.132 230.211 34.624ZM237.258 37.012C237.378 36.616 238.17 35.728 238.938 35.728C239.406 35.728 239.934 35.956 239.79 36.424C239.634 36.892 239.022 37.516 238.53 37.732C238.326 37.84 238.05 37.888 237.87 37.888C237.858 37.888 237.834 37.888 237.822 37.888C237.402 37.84 237.102 37.492 237.258 37.012ZM239.286 34.708C238.974 34.708 238.83 34.516 238.77 34.36C238.71 34.216 238.734 34.024 238.782 33.868C238.83 33.7 238.938 33.508 239.034 33.316C239.118 33.148 239.226 32.968 239.322 32.776C239.586 32.296 239.886 31.648 240.21 31C240.606 30.256 241.866 27.928 242.838 27.928C242.97 27.928 243.078 27.964 243.138 28C243.498 28.156 243.702 28.42 243.57 28.828C243.438 29.248 243.042 29.68 242.742 30.052C242.37 30.484 242.07 30.94 241.794 31.408C241.518 31.876 241.254 32.344 240.99 32.8C240.726 33.28 240.426 33.784 240.066 34.24C239.85 34.48 239.598 34.708 239.286 34.708Z" fill="black"/>
<defs>
<filter id="filter0_d_14_34" x="-4.57764e-05" y="0" width="392" height="90" filterUnits="userSpaceOnUse" color-interpolation-filters="sRGB">
<feFlood flood-opacity="0" result="BackgroundImageFix"/>
<feColorMatrix in="SourceAlpha" type="matrix" values="0 0 0 0 0 0 0 0 0 0 0 0 0 0 0 0 0 0 127 0" result="hardAlpha"/>
<feOffset dy="4"/>
<feComposite in2="hardAlpha" operator="out"/>
<feColorMatrix type="matrix" values="0 0 0 0 0 0 0 0 0 0 0 0 0 0 0 0 0 0 1 0"/>
<feBlend mode="normal" in2="BackgroundImageFix" result="effect1_dropShadow_14_34"/>
<feBlend mode="normal" in="SourceGraphic" in2="effect1_dropShadow_14_34" result="shape"/>
</filter>
</defs>
</svg>
