<svg width="185" height="56" viewBox="0 0 185 56" fill="none" xmlns="http://www.w3.org/2000/svg">
<mask id="path-1-inside-1_3_17" fill="white">
<path d="M25.91 19.5H31.44C31.6967 19.5 31.9183 19.5933 32.105 19.78C32.2917 19.9667 32.385 20.1883 32.385 20.445V43.055C32.385 43.3117 32.2917 43.5333 32.105 43.72C31.9183 43.9067 31.6967 44 31.44 44H25.105C24.8483 44 24.6267 43.9067 24.44 43.72C24.2533 43.5333 24.16 43.3117 24.16 43.055V33.465L21.85 37.245C21.4767 37.8283 21.045 38.12 20.555 38.12H18.105C17.615 38.12 17.1833 37.8283 16.81 37.245L14.5 33.465V43.055C14.5 43.3117 14.4067 43.5333 14.22 43.72C14.0333 43.9067 13.8117 44 13.555 44H7.22C6.96333 44 6.74167 43.9067 6.555 43.72C6.36833 43.5333 6.275 43.3117 6.275 43.055V20.445C6.275 20.1883 6.36833 19.9667 6.555 19.78C6.74167 19.5933 6.96333 19.5 7.22 19.5H12.75C13.4033 19.5 13.905 19.815 14.255 20.445L19.33 28.845L24.405 20.445C24.755 19.815 25.2567 19.5 25.91 19.5ZM39.4192 21.74C41.5658 20.0133 44.4008 19.15 47.9242 19.15C51.4475 19.15 54.2708 20.025 56.3942 21.775C58.5408 23.5017 59.6142 25.94 59.6142 29.09V34.55C59.6142 37.7467 58.5525 40.185 56.4292 41.865C54.3292 43.5217 51.4942 44.35 47.9242 44.35C44.3542 44.35 41.5075 43.5217 39.3842 41.865C37.2842 40.185 36.2342 37.7467 36.2342 34.55V29.09C36.2342 25.9167 37.2958 23.4667 39.4192 21.74ZM46.0342 36.825C46.5008 37.2917 47.1308 37.525 47.9242 37.525C48.7175 37.525 49.3475 37.2917 49.8142 36.825C50.2808 36.3583 50.5142 35.6467 50.5142 34.69V28.81C50.5142 27.8767 50.2808 27.1767 49.8142 26.71C49.3475 26.22 48.7175 25.975 47.9242 25.975C47.1308 25.975 46.5008 26.22 46.0342 26.71C45.5675 27.1767 45.3342 27.8767 45.3342 28.81V34.69C45.3342 35.6467 45.5675 36.3583 46.0342 36.825ZM78.2276 19.5H84.5626C84.8193 19.5 85.041 19.5933 85.2276 19.78C85.4143 19.9667 85.5076 20.1883 85.5076 20.445V43.055C85.5076 43.3117 85.4143 43.5333 85.2276 43.72C85.041 43.9067 84.8193 44 84.5626 44H79.0326C78.426 44 77.9476 43.7317 77.5976 43.195L71.6826 34.27V43.055C71.6826 43.3117 71.5893 43.5333 71.4026 43.72C71.216 43.9067 70.9943 44 70.7376 44H64.4026C64.146 44 63.9243 43.9067 63.7376 43.72C63.551 43.5333 63.4576 43.3117 63.4576 43.055V20.445C63.4576 20.1883 63.551 19.9667 63.7376 19.78C63.9243 19.5933 64.146 19.5 64.4026 19.5H69.9326C70.586 19.5 71.0643 19.7683 71.3676 20.305L77.2826 30V20.445C77.2826 20.1883 77.376 19.9667 77.5626 19.78C77.7493 19.5933 77.971 19.5 78.2276 19.5ZM90.9944 19.5H101.074C104.481 19.5 107.281 20.3517 109.474 22.055C111.691 23.735 112.799 26.0917 112.799 29.125V34.34C112.799 37.5133 111.726 39.9167 109.579 41.55C107.433 43.1833 104.609 44 101.109 44H90.9944C90.7377 44 90.5161 43.9067 90.3294 43.72C90.1427 43.5333 90.0494 43.3117 90.0494 43.055V20.445C90.0494 20.1883 90.1427 19.9667 90.3294 19.78C90.5161 19.5933 90.7377 19.5 90.9944 19.5ZM98.7994 26.325V37.175H101.074C101.868 37.175 102.498 36.9417 102.964 36.475C103.454 35.985 103.699 35.2733 103.699 34.34V29.125C103.699 27.2583 102.824 26.325 101.074 26.325H98.7994ZM124.306 19.5H131.901C132.741 19.5 133.266 19.885 133.476 20.655L141.281 42.985C141.305 43.055 141.316 43.1717 141.316 43.335C141.316 43.475 141.235 43.6267 141.071 43.79C140.931 43.93 140.756 44 140.546 44H134.071C133.371 44 132.916 43.7083 132.706 43.125L131.866 40.815H124.341L123.501 43.125C123.291 43.7083 122.836 44 122.136 44H115.661C115.451 44 115.265 43.93 115.101 43.79C114.961 43.6267 114.891 43.475 114.891 43.335C114.891 43.1717 114.903 43.055 114.926 42.985L122.731 20.655C122.941 19.885 123.466 19.5 124.306 19.5ZM126.126 33.99H130.081L128.086 27.48L126.126 33.99ZM157.947 44H151.087C150.83 44 150.608 43.9067 150.422 43.72C150.235 43.5333 150.142 43.3117 150.142 43.055V36.16L142.267 20.585C142.22 20.4917 142.197 20.3633 142.197 20.2C142.197 20.0367 142.267 19.885 142.407 19.745C142.57 19.5817 142.757 19.5 142.967 19.5H149.547C150.247 19.5 150.737 19.7917 151.017 20.375L154.517 27.41L158.017 20.375C158.297 19.7917 158.787 19.5 159.487 19.5H166.067C166.277 19.5 166.452 19.5817 166.592 19.745C166.755 19.885 166.837 20.0367 166.837 20.2C166.837 20.3633 166.813 20.4917 166.767 20.585L158.892 36.16V43.055C158.892 43.3117 158.798 43.5333 158.612 43.72C158.425 43.9067 158.203 44 157.947 44Z"/>
</mask>
<path d="M24.44 43.72L25.1471 43.0129L25.1471 43.0129L24.44 43.72ZM24.16 33.465H25.16V29.9109L23.3067 32.9435L24.16 33.465ZM21.85 37.245L22.6923 37.7841L22.6979 37.7753L22.7033 37.7664L21.85 37.245ZM16.81 37.245L15.9567 37.7664L15.9621 37.7753L15.9677 37.7841L16.81 37.245ZM14.5 33.465L15.3533 32.9435L13.5 29.9109V33.465H14.5ZM14.22 43.72L14.9271 44.4271L14.9271 44.4271L14.22 43.72ZM6.555 43.72L7.26211 43.0129L7.26211 43.0129L6.555 43.72ZM6.555 19.78L7.26211 20.4871L7.26211 20.4871L6.555 19.78ZM14.255 20.445L13.3808 20.9306L13.3897 20.9465L13.3991 20.9621L14.255 20.445ZM19.33 28.845L18.4741 29.3621L19.33 30.7788L20.1859 29.3621L19.33 28.845ZM24.405 20.445L25.2609 20.9621L25.2703 20.9465L25.2792 20.9306L24.405 20.445ZM25.91 20.5H31.44V18.5H25.91V20.5ZM31.44 20.5C31.4433 20.5 31.441 20.5003 31.4344 20.499C31.4277 20.4977 31.4194 20.4953 31.4107 20.4916C31.402 20.488 31.396 20.4843 31.3929 20.4822C31.39 20.4802 31.3918 20.4811 31.3979 20.4871L32.8121 19.0729C32.4439 18.7047 31.9702 18.5 31.44 18.5V20.5ZM31.3979 20.4871C31.4039 20.4932 31.4048 20.495 31.4028 20.4921C31.4007 20.489 31.397 20.483 31.3934 20.4743C31.3897 20.4656 31.3873 20.4573 31.386 20.4506C31.3847 20.444 31.385 20.4417 31.385 20.445H33.385C33.385 19.9148 33.1803 19.4411 32.8121 19.0729L31.3979 20.4871ZM31.385 20.445V43.055H33.385V20.445H31.385ZM31.385 43.055C31.385 43.0583 31.3847 43.056 31.386 43.0494C31.3873 43.0427 31.3897 43.0344 31.3934 43.0257C31.397 43.017 31.4007 43.011 31.4028 43.0079C31.4048 43.005 31.4039 43.0068 31.3979 43.0129L32.8121 44.4271C33.1803 44.0589 33.385 43.5852 33.385 43.055H31.385ZM31.3979 43.0129C31.3918 43.0189 31.39 43.0198 31.3929 43.0178C31.396 43.0157 31.402 43.012 31.4107 43.0084C31.4194 43.0047 31.4277 43.0023 31.4344 43.001C31.441 42.9997 31.4433 43 31.44 43V45C31.9702 45 32.4439 44.7953 32.8121 44.4271L31.3979 43.0129ZM31.44 43H25.105V45H31.44V43ZM25.105 43C25.1017 43 25.104 42.9997 25.1106 43.001C25.1173 43.0023 25.1256 43.0047 25.1343 43.0084C25.143 43.012 25.149 43.0157 25.1521 43.0178C25.155 43.0198 25.1532 43.0189 25.1471 43.0129L23.7329 44.4271C24.1011 44.7953 24.5748 45 25.105 45V43ZM25.1471 43.0129C25.1411 43.0068 25.1402 43.005 25.1422 43.0079C25.1443 43.011 25.148 43.017 25.1516 43.0257C25.1553 43.0344 25.1577 43.0427 25.159 43.0494C25.1603 43.056 25.16 43.0583 25.16 43.055H23.16C23.16 43.5852 23.3647 44.0589 23.7329 44.4271L25.1471 43.0129ZM25.16 43.055V33.465H23.16V43.055H25.16ZM23.3067 32.9435L20.9967 36.7236L22.7033 37.7664L25.0133 33.9864L23.3067 32.9435ZM21.0077 36.7059C20.7352 37.1318 20.5743 37.12 20.555 37.12V39.12C21.5157 39.12 22.2181 38.5249 22.6923 37.7841L21.0077 36.7059ZM20.555 37.12H18.105V39.12H20.555V37.12ZM18.105 37.12C18.0857 37.12 17.9248 37.1318 17.6523 36.7059L15.9677 37.7841C16.4419 38.5249 17.1443 39.12 18.105 39.12V37.12ZM17.6633 36.7235L15.3533 32.9435L13.6467 33.9864L15.9567 37.7664L17.6633 36.7235ZM13.5 33.465V43.055H15.5V33.465H13.5ZM13.5 43.055C13.5 43.0583 13.4997 43.056 13.501 43.0494C13.5023 43.0427 13.5047 43.0344 13.5084 43.0257C13.512 43.017 13.5157 43.011 13.5178 43.0079C13.5198 43.005 13.5189 43.0068 13.5129 43.0129L14.9271 44.4271C15.2953 44.0589 15.5 43.5852 15.5 43.055H13.5ZM13.5129 43.0129C13.5068 43.0189 13.505 43.0198 13.5079 43.0178C13.511 43.0157 13.517 43.012 13.5257 43.0084C13.5344 43.0047 13.5427 43.0023 13.5494 43.001C13.556 42.9997 13.5583 43 13.555 43V45C14.0852 45 14.5589 44.7953 14.9271 44.4271L13.5129 43.0129ZM13.555 43H7.22V45H13.555V43ZM7.22 43C7.21671 43 7.21902 42.9997 7.22557 43.001C7.23229 43.0023 7.24061 43.0047 7.24931 43.0084C7.25797 43.012 7.26403 43.0157 7.26709 43.0178C7.26998 43.0198 7.26815 43.0189 7.26211 43.0129L5.84789 44.4271C6.21611 44.7953 6.68977 45 7.22 45V43ZM7.26211 43.0129C7.25606 43.0068 7.25525 43.005 7.25723 43.0079C7.25933 43.011 7.26299 43.017 7.26664 43.0257C7.2703 43.0344 7.27268 43.0427 7.27399 43.0494C7.27527 43.056 7.275 43.0583 7.275 43.055H5.275C5.275 43.5852 5.47967 44.0589 5.84789 44.4271L7.26211 43.0129ZM7.275 43.055V20.445H5.275V43.055H7.275ZM7.275 20.445C7.275 20.4417 7.27527 20.444 7.27399 20.4506C7.27268 20.4573 7.2703 20.4656 7.26664 20.4743C7.26299 20.483 7.25933 20.489 7.25723 20.4921C7.25525 20.495 7.25606 20.4932 7.26211 20.4871L5.84789 19.0729C5.47968 19.4411 5.275 19.9148 5.275 20.445H7.275ZM7.26211 20.4871C7.26815 20.4811 7.26998 20.4802 7.26709 20.4822C7.26403 20.4843 7.25797 20.488 7.24931 20.4916C7.24061 20.4953 7.23229 20.4977 7.22557 20.499C7.21902 20.5003 7.21671 20.5 7.22 20.5V18.5C6.68977 18.5 6.21611 18.7047 5.84789 19.0729L7.26211 20.4871ZM7.22 20.5H12.75V18.5H7.22V20.5ZM12.75 20.5C12.9967 20.5 13.185 20.5782 13.3808 20.9306L15.1292 19.9594C14.625 19.0518 13.81 18.5 12.75 18.5V20.5ZM13.3991 20.9621L18.4741 29.3621L20.1859 28.3279L15.1109 19.9279L13.3991 20.9621ZM20.1859 29.3621L25.2609 20.9621L23.5491 19.9279L18.4741 28.3279L20.1859 29.3621ZM25.2792 20.9306C25.475 20.5782 25.6633 20.5 25.91 20.5V18.5C24.85 18.5 24.035 19.0518 23.5308 19.9594L25.2792 20.9306ZM39.4192 21.74L38.7924 20.9608L38.7883 20.9641L39.4192 21.74ZM56.3942 21.775L55.7581 22.5467L55.7674 22.5542L56.3942 21.775ZM56.4292 41.865L57.0485 42.6501L57.0497 42.6492L56.4292 41.865ZM39.3842 41.865L38.7594 42.6459L38.769 42.6534L39.3842 41.865ZM46.0342 36.825L46.7413 36.1179L46.7413 36.1179L46.0342 36.825ZM49.8142 36.825L50.5213 37.5321L50.5213 37.5321L49.8142 36.825ZM49.8142 26.71L49.09 27.3997L49.0985 27.4085L49.1071 27.4171L49.8142 26.71ZM46.0342 26.71L46.7413 27.4171L46.7499 27.4085L46.7583 27.3997L46.0342 26.71ZM40.0459 22.5192C41.9704 20.9713 44.5642 20.15 47.9242 20.15V18.15C44.2375 18.15 41.1613 19.0554 38.7924 20.9608L40.0459 22.5192ZM47.9242 20.15C51.2818 20.15 53.8592 20.9816 55.7582 22.5467L57.0302 21.0033C54.6825 19.0684 51.6133 18.15 47.9242 18.15V20.15ZM55.7674 22.5542C57.6424 24.0624 58.6142 26.1939 58.6142 29.09H60.6142C60.6142 25.6861 59.4393 22.941 57.0209 20.9958L55.7674 22.5542ZM58.6142 29.09V34.55H60.6142V29.09H58.6142ZM58.6142 34.55C58.6142 37.5028 57.6477 39.6257 55.8087 41.0808L57.0497 42.6492C59.4573 40.7443 60.6142 37.9905 60.6142 34.55H58.6142ZM55.8098 41.0799C53.9374 42.5571 51.3446 43.35 47.9242 43.35V45.35C51.6438 45.35 54.721 44.4863 57.0485 42.6501L55.8098 41.0799ZM47.9242 43.35C44.5045 43.35 41.8972 42.5573 39.9993 41.0766L38.769 42.6534C41.1178 44.486 44.2038 45.35 47.9242 45.35V43.35ZM40.0089 41.0841C38.1918 39.6305 37.2342 37.5068 37.2342 34.55H35.2342C35.2342 37.9866 36.3765 40.7395 38.7595 42.6459L40.0089 41.0841ZM37.2342 34.55V29.09H35.2342V34.55H37.2342ZM37.2342 29.09C37.2342 26.1639 38.199 24.0211 40.0501 22.5159L38.7883 20.9641C36.3927 22.9122 35.2342 25.6694 35.2342 29.09H37.2342ZM45.3271 37.5321C46.0183 38.2233 46.923 38.525 47.9242 38.525V36.525C47.3387 36.525 46.9834 36.36 46.7413 36.1179L45.3271 37.5321ZM47.9242 38.525C48.9254 38.525 49.8301 38.2233 50.5213 37.5321L49.1071 36.1179C48.8649 36.36 48.5096 36.525 47.9242 36.525V38.525ZM50.5213 37.5321C51.2458 36.8076 51.5142 35.7925 51.5142 34.69H49.5142C49.5142 35.5009 49.3159 35.909 49.1071 36.1179L50.5213 37.5321ZM51.5142 34.69V28.81H49.5142V34.69H51.5142ZM51.5142 28.81C51.5142 27.7225 51.2416 26.7232 50.5213 26.0029L49.1071 27.4171C49.3201 27.6301 49.5142 28.0308 49.5142 28.81H51.5142ZM50.5383 26.0203C49.8502 25.2979 48.9399 24.975 47.9242 24.975V26.975C48.4951 26.975 48.8448 27.1421 49.09 27.3997L50.5383 26.0203ZM47.9242 24.975C46.9084 24.975 45.9981 25.2979 45.31 26.0203L46.7583 27.3997C47.0036 27.1421 47.3533 26.975 47.9242 26.975V24.975ZM45.3271 26.0029C44.6067 26.7232 44.3342 27.7225 44.3342 28.81H46.3342C46.3342 28.0308 46.5283 27.6301 46.7413 27.4171L45.3271 26.0029ZM44.3342 28.81V34.69H46.3342V28.81H44.3342ZM44.3342 34.69C44.3342 35.7925 44.6026 36.8076 45.3271 37.5321L46.7413 36.1179C46.5324 35.909 46.3342 35.5009 46.3342 34.69H44.3342ZM77.5976 43.195L78.4353 42.6487L78.4312 42.6426L77.5976 43.195ZM71.6826 34.27L72.5162 33.7176L70.6826 30.951V34.27H71.6826ZM71.4026 43.72L72.1097 44.4271L72.1097 44.4271L71.4026 43.72ZM63.7376 43.72L64.4447 43.0129L64.4447 43.0129L63.7376 43.72ZM63.7376 19.78L64.4447 20.4871L64.4447 20.4871L63.7376 19.78ZM71.3676 20.305L70.4971 20.7971L70.5053 20.8116L70.514 20.8258L71.3676 20.305ZM77.2826 30L76.429 30.5208L78.2826 33.5591V30H77.2826ZM77.5626 19.78L78.2697 20.4871L78.2697 20.4871L77.5626 19.78ZM78.2276 20.5H84.5626V18.5H78.2276V20.5ZM84.5626 20.5C84.5659 20.5 84.5636 20.5003 84.557 20.499C84.5503 20.4977 84.542 20.4953 84.5333 20.4916C84.5246 20.488 84.5186 20.4843 84.5155 20.4822C84.5126 20.4802 84.5145 20.4811 84.5205 20.4871L85.9347 19.0729C85.5665 18.7047 85.0928 18.5 84.5626 18.5V20.5ZM84.5205 20.4871C84.5266 20.4932 84.5274 20.495 84.5254 20.4921C84.5233 20.489 84.5196 20.483 84.516 20.4743C84.5123 20.4656 84.5099 20.4573 84.5086 20.4506C84.5073 20.444 84.5076 20.4417 84.5076 20.445H86.5076C86.5076 19.9148 86.3029 19.4411 85.9347 19.0729L84.5205 20.4871ZM84.5076 20.445V43.055H86.5076V20.445H84.5076ZM84.5076 43.055C84.5076 43.0583 84.5073 43.056 84.5086 43.0494C84.5099 43.0427 84.5123 43.0344 84.516 43.0257C84.5196 43.017 84.5233 43.011 84.5254 43.0079C84.5274 43.005 84.5266 43.0068 84.5205 43.0129L85.9347 44.4271C86.3029 44.0589 86.5076 43.5852 86.5076 43.055H84.5076ZM84.5205 43.0129C84.5145 43.0189 84.5126 43.0198 84.5155 43.0178C84.5186 43.0157 84.5247 43.012 84.5333 43.0084C84.542 43.0047 84.5503 43.0023 84.557 43.001C84.5636 42.9997 84.5659 43 84.5626 43V45C85.0928 45 85.5665 44.7953 85.9347 44.4271L84.5205 43.0129ZM84.5626 43H79.0326V45H84.5626V43ZM79.0326 43C78.786 43 78.613 42.9214 78.4352 42.6487L76.76 43.7413C77.2822 44.542 78.0659 45 79.0326 45V43ZM78.4312 42.6426L72.5162 33.7176L70.8491 34.8224L76.7641 43.7474L78.4312 42.6426ZM70.6826 34.27V43.055H72.6826V34.27H70.6826ZM70.6826 43.055C70.6826 43.0583 70.6823 43.056 70.6836 43.0494C70.6849 43.0427 70.6873 43.0344 70.691 43.0257C70.6946 43.017 70.6983 43.011 70.7004 43.0079C70.7024 43.005 70.7016 43.0068 70.6955 43.0129L72.1097 44.4271C72.4779 44.0589 72.6826 43.5852 72.6826 43.055H70.6826ZM70.6955 43.0129C70.6895 43.0189 70.6876 43.0198 70.6905 43.0178C70.6936 43.0157 70.6997 43.012 70.7083 43.0084C70.717 43.0047 70.7253 43.0023 70.732 43.001C70.7386 42.9997 70.7409 43 70.7376 43V45C71.2678 45 71.7415 44.7953 72.1097 44.4271L70.6955 43.0129ZM70.7376 43H64.4026V45H70.7376V43ZM64.4026 43C64.3993 43 64.4016 42.9997 64.4082 43.001C64.4149 43.0023 64.4232 43.0047 64.4319 43.0084C64.4406 43.012 64.4467 43.0157 64.4497 43.0178C64.4526 43.0198 64.4508 43.0189 64.4447 43.0129L63.0305 44.4271C63.3987 44.7953 63.8724 45 64.4026 45V43ZM64.4447 43.0129C64.4387 43.0068 64.4379 43.005 64.4398 43.0079C64.4419 43.011 64.4456 43.017 64.4493 43.0257C64.4529 43.0344 64.4553 43.0427 64.4566 43.0494C64.4579 43.056 64.4576 43.0583 64.4576 43.055H62.4576C62.4576 43.5852 62.6623 44.0589 63.0305 44.4271L64.4447 43.0129ZM64.4576 43.055V20.445H62.4576V43.055H64.4576ZM64.4576 20.445C64.4576 20.4417 64.4579 20.444 64.4566 20.4506C64.4553 20.4573 64.4529 20.4656 64.4493 20.4743C64.4456 20.483 64.4419 20.489 64.4398 20.4921C64.4379 20.495 64.4387 20.4932 64.4447 20.4871L63.0305 19.0729C62.6623 19.4411 62.4576 19.9148 62.4576 20.445H64.4576ZM64.4447 20.4871C64.4508 20.4811 64.4526 20.4802 64.4497 20.4822C64.4467 20.4843 64.4406 20.488 64.4319 20.4916C64.4232 20.4953 64.4149 20.4977 64.4082 20.499C64.4016 20.5003 64.3993 20.5 64.4026 20.5V18.5C63.8724 18.5 63.3987 18.7047 63.0305 19.0729L64.4447 20.4871ZM64.4026 20.5H69.9326V18.5H64.4026V20.5ZM69.9326 20.5C70.2519 20.5 70.3838 20.5967 70.4971 20.7971L72.2382 19.8129C71.7448 18.94 70.92 18.5 69.9326 18.5V20.5ZM70.514 20.8258L76.429 30.5208L78.1363 29.4792L72.2213 19.7842L70.514 20.8258ZM78.2826 30V20.445H76.2826V30H78.2826ZM78.2826 20.445C78.2826 20.4417 78.2829 20.444 78.2816 20.4506C78.2803 20.4573 78.2779 20.4656 78.2743 20.4743C78.2706 20.483 78.2669 20.489 78.2648 20.4921C78.2629 20.495 78.2637 20.4932 78.2697 20.4871L76.8555 19.0729C76.4873 19.4411 76.2826 19.9148 76.2826 20.445H78.2826ZM78.2697 20.4871C78.2758 20.4811 78.2776 20.4802 78.2747 20.4822C78.2717 20.4843 78.2656 20.488 78.2569 20.4916C78.2482 20.4953 78.2399 20.4977 78.2332 20.499C78.2266 20.5003 78.2243 20.5 78.2276 20.5V18.5C77.6974 18.5 77.2237 18.7047 76.8555 19.0729L78.2697 20.4871ZM109.474 22.055L108.861 22.8449L108.87 22.852L109.474 22.055ZM90.3294 43.72L91.0365 43.0129L91.0365 43.0129L90.3294 43.72ZM90.3294 19.78L91.0365 20.4871L91.0365 20.4871L90.3294 19.78ZM98.7994 26.325V25.325H97.7994V26.325H98.7994ZM98.7994 37.175H97.7994V38.175H98.7994V37.175ZM102.964 36.475L102.257 35.7679L102.257 35.7679L102.964 36.475ZM90.9944 20.5H101.074V18.5H90.9944V20.5ZM101.074 20.5C104.311 20.5 106.88 21.3063 108.861 22.8448L110.088 21.2652C107.682 19.397 104.652 18.5 101.074 18.5V20.5ZM108.87 22.852C110.813 24.324 111.799 26.3719 111.799 29.125H113.799C113.799 25.8114 112.57 23.146 110.078 21.258L108.87 22.852ZM111.799 29.125V34.34H113.799V29.125H111.799ZM111.799 34.34C111.799 37.2632 110.826 39.3447 108.974 40.7542L110.185 42.3458C112.626 40.4887 113.799 37.7635 113.799 34.34H111.799ZM108.974 40.7542C107.047 42.2203 104.456 43 101.109 43V45C104.763 45 107.819 44.1464 110.185 42.3458L108.974 40.7542ZM101.109 43H90.9944V45H101.109V43ZM90.9944 43C90.9911 43 90.9934 42.9997 91 43.001C91.0067 43.0023 91.015 43.0047 91.0237 43.0084C91.0324 43.012 91.0384 43.0157 91.0415 43.0178C91.0444 43.0198 91.0426 43.0189 91.0365 43.0129L89.6223 44.4271C89.9905 44.7953 90.4642 45 90.9944 45V43ZM91.0365 43.0129C91.0305 43.0068 91.0297 43.005 91.0316 43.0079C91.0337 43.011 91.0374 43.017 91.041 43.0257C91.0447 43.0344 91.0471 43.0427 91.0484 43.0494C91.0497 43.056 91.0494 43.0583 91.0494 43.055H89.0494C89.0494 43.5852 89.2541 44.0589 89.6223 44.4271L91.0365 43.0129ZM91.0494 43.055V20.445H89.0494V43.055H91.0494ZM91.0494 20.445C91.0494 20.4417 91.0497 20.444 91.0484 20.4506C91.0471 20.4573 91.0447 20.4656 91.041 20.4743C91.0374 20.483 91.0337 20.489 91.0316 20.4921C91.0297 20.495 91.0305 20.4932 91.0365 20.4871L89.6223 19.0729C89.2541 19.4411 89.0494 19.9148 89.0494 20.445H91.0494ZM91.0365 20.4871C91.0426 20.4811 91.0444 20.4802 91.0415 20.4822C91.0384 20.4843 91.0324 20.488 91.0237 20.4916C91.015 20.4953 91.0067 20.4977 91 20.499C90.9934 20.5003 90.9911 20.5 90.9944 20.5V18.5C90.4642 18.5 89.9905 18.7047 89.6223 19.0729L91.0365 20.4871ZM97.7994 26.325V37.175H99.7994V26.325H97.7994ZM98.7994 38.175H101.074V36.175H98.7994V38.175ZM101.074 38.175C102.076 38.175 102.98 37.8733 103.672 37.1821L102.257 35.7679C102.015 36.01 101.66 36.175 101.074 36.175V38.175ZM103.672 37.1821C104.407 36.4468 104.699 35.4438 104.699 34.34H102.699C102.699 35.1028 102.502 35.5232 102.257 35.7679L103.672 37.1821ZM104.699 34.34V29.125H102.699V34.34H104.699ZM104.699 29.125C104.699 28.053 104.449 27.0629 103.773 26.3411C103.085 25.6071 102.121 25.325 101.074 25.325V27.325C101.778 27.325 102.127 27.5096 102.314 27.7089C102.512 27.9204 102.699 28.3303 102.699 29.125H104.699ZM101.074 25.325H98.7994V27.325H101.074V25.325ZM133.476 20.655L132.511 20.9181L132.521 20.9519L132.532 20.985L133.476 20.655ZM141.281 42.985L142.23 42.6688L142.228 42.6619L142.225 42.655L141.281 42.985ZM141.071 43.79L140.364 43.0829L140.364 43.0829L141.071 43.79ZM132.706 43.125L133.647 42.7863L133.646 42.7833L132.706 43.125ZM131.866 40.815L132.806 40.4733L132.567 39.815H131.866V40.815ZM124.341 40.815V39.815H123.641L123.401 40.4733L124.341 40.815ZM123.501 43.125L122.561 42.7833L122.56 42.7863L123.501 43.125ZM115.101 43.79L114.342 44.4408L114.392 44.4992L114.45 44.5493L115.101 43.79ZM114.926 42.985L113.982 42.655L113.98 42.6619L113.978 42.6688L114.926 42.985ZM122.731 20.655L123.675 20.985L123.687 20.9519L123.696 20.9181L122.731 20.655ZM126.126 33.99L125.169 33.7017L124.781 34.99H126.126V33.99ZM130.081 33.99V34.99H131.434L131.037 33.697L130.081 33.99ZM128.086 27.48L129.042 27.187L128.078 24.0394L127.129 27.1917L128.086 27.48ZM124.306 20.5H131.901V18.5H124.306V20.5ZM131.901 20.5C132.17 20.5 132.287 20.5606 132.334 20.5952C132.376 20.6259 132.452 20.7005 132.511 20.9181L134.441 20.3919C134.29 19.8395 133.999 19.3366 133.516 18.9823C133.038 18.6319 132.472 18.5 131.901 18.5V20.5ZM132.532 20.985L140.337 43.315L142.225 42.655L134.42 20.325L132.532 20.985ZM140.333 43.3012C140.326 43.2826 140.322 43.2672 140.319 43.256C140.316 43.2446 140.315 43.236 140.314 43.2305C140.312 43.2202 140.312 43.2175 140.312 43.2245C140.313 43.2312 140.314 43.2436 140.315 43.2629C140.316 43.282 140.316 43.3058 140.316 43.335H142.316C142.316 43.1624 142.308 42.9043 142.23 42.6688L140.333 43.3012ZM140.316 43.335C140.316 43.2056 140.355 43.1164 140.374 43.0796C140.392 43.0463 140.399 43.0482 140.364 43.0829L141.778 44.4971C142.013 44.262 142.316 43.8682 142.316 43.335H140.316ZM140.364 43.0829C140.385 43.0621 140.419 43.0368 140.464 43.019C140.507 43.0017 140.538 43 140.546 43V45C141.004 45 141.439 44.8369 141.778 44.4971L140.364 43.0829ZM140.546 43H134.071V45H140.546V43ZM134.071 43C133.857 43 133.77 42.9555 133.745 42.9394C133.729 42.9296 133.689 42.9025 133.647 42.7863L131.765 43.4637C131.933 43.9308 132.226 44.3413 132.665 44.6231C133.095 44.8986 133.586 45 134.071 45V43ZM133.646 42.7833L132.806 40.4733L130.926 41.1567L131.766 43.4667L133.646 42.7833ZM131.866 39.815H124.341V41.815H131.866V39.815ZM123.401 40.4733L122.561 42.7833L124.441 43.4667L125.281 41.1567L123.401 40.4733ZM122.56 42.7863C122.518 42.9025 122.478 42.9296 122.463 42.9394C122.438 42.9555 122.351 43 122.136 43V45C122.622 45 123.112 44.8986 123.542 44.6231C123.982 44.3413 124.274 43.9308 124.442 43.4637L122.56 42.7863ZM122.136 43H115.661V45H122.136V43ZM115.661 43C115.67 43 115.69 43.0019 115.715 43.0112C115.726 43.0154 115.736 43.0202 115.743 43.0244C115.749 43.0285 115.753 43.0312 115.752 43.0307L114.45 44.5493C114.79 44.8405 115.206 45 115.661 45V43ZM115.86 43.1392C115.834 43.1086 115.839 43.1068 115.852 43.1347C115.866 43.1652 115.891 43.2351 115.891 43.335H113.891C113.891 43.8129 114.126 44.1893 114.342 44.4408L115.86 43.1392ZM115.891 43.335C115.891 43.3058 115.892 43.282 115.893 43.2629C115.893 43.2436 115.894 43.2312 115.895 43.2245C115.896 43.2175 115.896 43.2202 115.894 43.2305C115.893 43.236 115.891 43.2446 115.888 43.256C115.885 43.2672 115.881 43.2826 115.875 43.3012L113.978 42.6688C113.899 42.9043 113.891 43.1624 113.891 43.335H115.891ZM115.87 43.315L123.675 20.985L121.787 20.325L113.982 42.655L115.87 43.315ZM123.696 20.9181C123.755 20.7005 123.832 20.6259 123.874 20.5952C123.921 20.5606 124.037 20.5 124.306 20.5V18.5C123.735 18.5 123.169 18.6319 122.691 18.9823C122.208 19.3366 121.917 19.8395 121.766 20.3919L123.696 20.9181ZM126.126 34.99H130.081V32.99H126.126V34.99ZM131.037 33.697L129.042 27.187L127.13 27.773L129.125 34.283L131.037 33.697ZM127.129 27.1917L125.169 33.7017L127.084 34.2783L129.044 27.7683L127.129 27.1917ZM150.422 43.72L149.715 44.4271L149.715 44.4271L150.422 43.72ZM150.142 36.16H151.142V35.9216L151.034 35.7088L150.142 36.16ZM142.267 20.585L141.372 21.0322L141.374 21.0362L142.267 20.585ZM142.407 19.745L143.114 20.4521L143.114 20.4521L142.407 19.745ZM151.017 20.375L150.115 20.8078L150.121 20.8204L151.017 20.375ZM154.517 27.41L153.621 27.8554L154.517 29.655L155.412 27.8554L154.517 27.41ZM158.017 20.375L158.912 20.8205L158.918 20.8077L158.017 20.375ZM166.592 19.745L165.832 20.3958L165.882 20.4542L165.941 20.5043L166.592 19.745ZM166.767 20.585L167.659 21.0362L167.661 21.0322L166.767 20.585ZM158.892 36.16L157.999 35.7088L157.892 35.9216V36.16H158.892ZM158.612 43.72L159.319 44.4271L159.319 44.4271L158.612 43.72ZM157.947 43H151.087V45H157.947V43ZM151.087 43C151.083 43 151.086 42.9997 151.092 43.001C151.099 43.0023 151.107 43.0047 151.116 43.0084C151.125 43.012 151.131 43.0157 151.134 43.0178C151.137 43.0198 151.135 43.0189 151.129 43.0129L149.715 44.4271C150.083 44.7953 150.556 45 151.087 45V43ZM151.129 43.0129C151.123 43.0068 151.122 43.005 151.124 43.0079C151.126 43.011 151.13 43.017 151.133 43.0257C151.137 43.0344 151.139 43.0427 151.141 43.0494C151.142 43.056 151.142 43.0583 151.142 43.055H149.142C149.142 43.5852 149.346 44.0589 149.715 44.4271L151.129 43.0129ZM151.142 43.055V36.16H149.142V43.055H151.142ZM151.034 35.7088L143.159 20.1338L141.374 21.0362L149.249 36.6112L151.034 35.7088ZM143.161 20.1378C143.189 20.1939 143.197 20.233 143.198 20.2399C143.199 20.2473 143.197 20.2359 143.197 20.2H141.197C141.197 20.4396 141.228 20.7434 141.372 21.0322L143.161 20.1378ZM143.197 20.2C143.197 20.2664 143.181 20.3303 143.157 20.3828C143.134 20.4319 143.112 20.4538 143.114 20.4521L141.7 19.0379C141.414 19.323 141.197 19.7169 141.197 20.2H143.197ZM143.114 20.4521C143.119 20.4469 143.105 20.462 143.07 20.4774C143.033 20.4936 142.995 20.5 142.967 20.5V18.5C142.464 18.5 142.03 18.7076 141.7 19.0379L143.114 20.4521ZM142.967 20.5H149.547V18.5H142.967V20.5ZM149.547 20.5C149.757 20.5 149.869 20.5432 149.928 20.578C149.981 20.61 150.049 20.6689 150.115 20.8077L151.918 19.9423C151.705 19.4978 151.387 19.1191 150.951 18.8595C150.519 18.6027 150.036 18.5 149.547 18.5V20.5ZM150.121 20.8204L153.621 27.8554L155.412 26.9646L151.912 19.9296L150.121 20.8204ZM155.412 27.8554L158.912 20.8204L157.121 19.9296L153.621 26.9646L155.412 27.8554ZM158.918 20.8077C158.985 20.6689 159.052 20.61 159.106 20.578C159.164 20.5432 159.276 20.5 159.487 20.5V18.5C158.997 18.5 158.514 18.6027 158.083 18.8595C157.646 19.1191 157.329 19.4978 157.115 19.9423L158.918 20.8077ZM159.487 20.5H166.067V18.5H159.487V20.5ZM166.067 20.5C166.039 20.5 165.989 20.4936 165.933 20.4674C165.877 20.4415 165.844 20.4098 165.832 20.3958L167.351 19.0942C167.026 18.7154 166.577 18.5 166.067 18.5V20.5ZM165.941 20.5043C165.951 20.5133 165.925 20.4936 165.895 20.4379C165.862 20.3762 165.837 20.2929 165.837 20.2H167.837C167.837 19.6589 167.553 19.2516 167.242 18.9857L165.941 20.5043ZM165.837 20.2C165.837 20.2359 165.834 20.2473 165.835 20.2399C165.837 20.233 165.844 20.1939 165.872 20.1378L167.661 21.0322C167.806 20.7434 167.837 20.4396 167.837 20.2H165.837ZM165.874 20.1338L157.999 35.7088L159.784 36.6112L167.659 21.0362L165.874 20.1338ZM157.892 36.16V43.055H159.892V36.16H157.892ZM157.892 43.055C157.892 43.0583 157.891 43.056 157.893 43.0494C157.894 43.0427 157.896 43.0344 157.9 43.0257C157.904 43.017 157.907 43.011 157.909 43.0079C157.911 43.005 157.911 43.0068 157.905 43.0129L159.319 44.4271C159.687 44.0589 159.892 43.5852 159.892 43.055H157.892ZM157.905 43.0129C157.899 43.0189 157.897 43.0198 157.9 43.0178C157.903 43.0157 157.909 43.012 157.917 43.0084C157.926 43.0047 157.934 43.0023 157.941 43.001C157.948 42.9997 157.95 43 157.947 43V45C158.477 45 158.951 44.7953 159.319 44.4271L157.905 43.0129Z" fill="black" mask="url(#path-1-inside-1_3_17)"/>
<path d="M21.91 16.5H27.44C27.6967 16.5 27.9183 16.5933 28.105 16.78C28.2917 16.9667 28.385 17.1883 28.385 17.445V40.055C28.385 40.3117 28.2917 40.5333 28.105 40.72C27.9183 40.9067 27.6967 41 27.44 41H21.105C20.8483 41 20.6267 40.9067 20.44 40.72C20.2533 40.5333 20.16 40.3117 20.16 40.055V30.465L17.85 34.245C17.4767 34.8283 17.045 35.12 16.555 35.12H14.105C13.615 35.12 13.1833 34.8283 12.81 34.245L10.5 30.465V40.055C10.5 40.3117 10.4067 40.5333 10.22 40.72C10.0333 40.9067 9.81167 41 9.555 41H3.22C2.96333 41 2.74167 40.9067 2.555 40.72C2.36833 40.5333 2.275 40.3117 2.275 40.055V17.445C2.275 17.1883 2.36833 16.9667 2.555 16.78C2.74167 16.5933 2.96333 16.5 3.22 16.5H8.75C9.40333 16.5 9.905 16.815 10.255 17.445L15.33 25.845L20.405 17.445C20.755 16.815 21.2567 16.5 21.91 16.5ZM35.4192 18.74C37.5658 17.0133 40.4008 16.15 43.9242 16.15C47.4475 16.15 50.2708 17.025 52.3942 18.775C54.5408 20.5017 55.6142 22.94 55.6142 26.09V31.55C55.6142 34.7467 54.5525 37.185 52.4292 38.865C50.3292 40.5217 47.4942 41.35 43.9242 41.35C40.3542 41.35 37.5075 40.5217 35.3842 38.865C33.2842 37.185 32.2342 34.7467 32.2342 31.55V26.09C32.2342 22.9167 33.2958 20.4667 35.4192 18.74ZM42.0342 33.825C42.5008 34.2917 43.1308 34.525 43.9242 34.525C44.7175 34.525 45.3475 34.2917 45.8142 33.825C46.2808 33.3583 46.5142 32.6467 46.5142 31.69V25.81C46.5142 24.8767 46.2808 24.1767 45.8142 23.71C45.3475 23.22 44.7175 22.975 43.9242 22.975C43.1308 22.975 42.5008 23.22 42.0342 23.71C41.5675 24.1767 41.3342 24.8767 41.3342 25.81V31.69C41.3342 32.6467 41.5675 33.3583 42.0342 33.825ZM74.2276 16.5H80.5626C80.8193 16.5 81.041 16.5933 81.2276 16.78C81.4143 16.9667 81.5076 17.1883 81.5076 17.445V40.055C81.5076 40.3117 81.4143 40.5333 81.2276 40.72C81.041 40.9067 80.8193 41 80.5626 41H75.0326C74.426 41 73.9476 40.7317 73.5976 40.195L67.6826 31.27V40.055C67.6826 40.3117 67.5893 40.5333 67.4026 40.72C67.216 40.9067 66.9943 41 66.7376 41H60.4026C60.146 41 59.9243 40.9067 59.7376 40.72C59.551 40.5333 59.4576 40.3117 59.4576 40.055V17.445C59.4576 17.1883 59.551 16.9667 59.7376 16.78C59.9243 16.5933 60.146 16.5 60.4026 16.5H65.9326C66.586 16.5 67.0643 16.7683 67.3676 17.305L73.2826 27V17.445C73.2826 17.1883 73.376 16.9667 73.5626 16.78C73.7493 16.5933 73.971 16.5 74.2276 16.5ZM86.9944 16.5H97.0744C100.481 16.5 103.281 17.3517 105.474 19.055C107.691 20.735 108.799 23.0917 108.799 26.125V31.34C108.799 34.5133 107.726 36.9167 105.579 38.55C103.433 40.1833 100.609 41 97.1094 41H86.9944C86.7377 41 86.5161 40.9067 86.3294 40.72C86.1427 40.5333 86.0494 40.3117 86.0494 40.055V17.445C86.0494 17.1883 86.1427 16.9667 86.3294 16.78C86.5161 16.5933 86.7377 16.5 86.9944 16.5ZM94.7994 23.325V34.175H97.0744C97.8677 34.175 98.4977 33.9417 98.9644 33.475C99.4544 32.985 99.6994 32.2733 99.6994 31.34V26.125C99.6994 24.2583 98.8244 23.325 97.0744 23.325H94.7994ZM120.306 16.5H127.901C128.741 16.5 129.266 16.885 129.476 17.655L137.281 39.985C137.305 40.055 137.316 40.1717 137.316 40.335C137.316 40.475 137.235 40.6267 137.071 40.79C136.931 40.93 136.756 41 136.546 41H130.071C129.371 41 128.916 40.7083 128.706 40.125L127.866 37.815H120.341L119.501 40.125C119.291 40.7083 118.836 41 118.136 41H111.661C111.451 41 111.265 40.93 111.101 40.79C110.961 40.6267 110.891 40.475 110.891 40.335C110.891 40.1717 110.903 40.055 110.926 39.985L118.731 17.655C118.941 16.885 119.466 16.5 120.306 16.5ZM122.126 30.99H126.081L124.086 24.48L122.126 30.99ZM153.947 41H147.087C146.83 41 146.608 40.9067 146.422 40.72C146.235 40.5333 146.142 40.3117 146.142 40.055V33.16L138.267 17.585C138.22 17.4917 138.197 17.3633 138.197 17.2C138.197 17.0367 138.267 16.885 138.407 16.745C138.57 16.5817 138.757 16.5 138.967 16.5H145.547C146.247 16.5 146.737 16.7917 147.017 17.375L150.517 24.41L154.017 17.375C154.297 16.7917 154.787 16.5 155.487 16.5H162.067C162.277 16.5 162.452 16.5817 162.592 16.745C162.755 16.885 162.837 17.0367 162.837 17.2C162.837 17.3633 162.813 17.4917 162.767 17.585L154.892 33.16V40.055C154.892 40.3117 154.798 40.5333 154.612 40.72C154.425 40.9067 154.203 41 153.947 41Z" fill="#343131"/>
</svg>
