<?xml version="1.0" encoding="UTF-8" standalone="no"?>
<svg
   width="165"
   height="29"
   viewBox="0 0 165 29"
   fill="none"
   version="1.1"
   id="svg3"
   sodipodi:docname="Monday.svg"
   inkscape:version="1.3.2 (091e20ef0f, 2023-11-25)"
   xmlns:inkscape="http://www.inkscape.org/namespaces/inkscape"
   xmlns:sodipodi="http://sodipodi.sourceforge.net/DTD/sodipodi-0.dtd"
   xmlns="http://www.w3.org/2000/svg"
   xmlns:svg="http://www.w3.org/2000/svg">
  <defs
     id="defs3" />
  <sodipodi:namedview
     id="namedview3"
     pagecolor="#ffffff"
     bordercolor="#000000"
     borderopacity="0.25"
     inkscape:showpageshadow="2"
     inkscape:pageopacity="0.0"
     inkscape:pagecheckerboard="0"
     inkscape:deskcolor="#d1d1d1"
     inkscape:zoom="10.881081"
     inkscape:cx="92.5"
     inkscape:cy="28.030303"
     inkscape:window-width="2560"
     inkscape:window-height="1368"
     inkscape:window-x="1920"
     inkscape:window-y="0"
     inkscape:window-maximized="1"
     inkscape:current-layer="svg3" />
  <mask
     id="path-1-inside-1_3_17"
     fill="#ffffff">
    <path
       d="m 25.91,19.5 h 5.53 c 0.2567,0 0.4783,0.0933 0.665,0.28 0.1867,0.1867 0.28,0.4083 0.28,0.665 v 22.61 c 0,0.2567 -0.0933,0.4783 -0.28,0.665 C 31.9183,43.9067 31.6967,44 31.44,44 h -6.335 c -0.2567,0 -0.4783,-0.0933 -0.665,-0.28 -0.1867,-0.1867 -0.28,-0.4083 -0.28,-0.665 v -9.59 l -2.31,3.78 c -0.3733,0.5833 -0.805,0.875 -1.295,0.875 h -2.45 c -0.49,0 -0.9217,-0.2917 -1.295,-0.875 l -2.31,-3.78 v 9.59 c 0,0.2567 -0.0933,0.4783 -0.28,0.665 C 14.0333,43.9067 13.8117,44 13.555,44 H 7.22 C 6.96333,44 6.74167,43.9067 6.555,43.72 6.36833,43.5333 6.275,43.3117 6.275,43.055 v -22.61 c 0,-0.2567 0.09333,-0.4783 0.28,-0.665 C 6.74167,19.5933 6.96333,19.5 7.22,19.5 h 5.53 c 0.6533,0 1.155,0.315 1.505,0.945 l 5.075,8.4 5.075,-8.4 c 0.35,-0.63 0.8517,-0.945 1.505,-0.945 z m 13.5092,2.24 c 2.1466,-1.7267 4.9816,-2.59 8.505,-2.59 3.5233,0 6.3466,0.875 8.47,2.625 2.1466,1.7267 3.22,4.165 3.22,7.315 v 5.46 c 0,3.1967 -1.0617,5.635 -3.185,7.315 -2.1,1.6567 -4.935,2.485 -8.505,2.485 -3.57,0 -6.4167,-0.8283 -8.54,-2.485 -2.1,-1.68 -3.15,-4.1183 -3.15,-7.315 v -5.46 c 0,-3.1733 1.0616,-5.6233 3.185,-7.35 z m 6.615,15.085 c 0.4666,0.4667 1.0966,0.7 1.89,0.7 0.7933,0 1.4233,-0.2333 1.89,-0.7 0.4666,-0.4667 0.7,-1.1783 0.7,-2.135 v -5.88 c 0,-0.9333 -0.2334,-1.6333 -0.7,-2.1 -0.4667,-0.49 -1.0967,-0.735 -1.89,-0.735 -0.7934,0 -1.4234,0.245 -1.89,0.735 -0.4667,0.4667 -0.7,1.1667 -0.7,2.1 v 5.88 c 0,0.9567 0.2333,1.6683 0.7,2.135 z M 78.2276,19.5 h 6.335 c 0.2567,0 0.4784,0.0933 0.665,0.28 0.1867,0.1867 0.28,0.4083 0.28,0.665 v 22.61 c 0,0.2567 -0.0933,0.4783 -0.28,0.665 C 85.041,43.9067 84.8193,44 84.5626,44 h -5.53 c -0.6066,0 -1.085,-0.2683 -1.435,-0.805 l -5.915,-8.925 v 8.785 c 0,0.2567 -0.0933,0.4783 -0.28,0.665 C 71.216,43.9067 70.9943,44 70.7376,44 h -6.335 c -0.2566,0 -0.4783,-0.0933 -0.665,-0.28 -0.1866,-0.1867 -0.28,-0.4083 -0.28,-0.665 v -22.61 c 0,-0.2567 0.0934,-0.4783 0.28,-0.665 0.1867,-0.1867 0.4084,-0.28 0.665,-0.28 h 5.53 c 0.6534,0 1.1317,0.2683 1.435,0.805 L 77.2826,30 v -9.555 c 0,-0.2567 0.0934,-0.4783 0.28,-0.665 0.1867,-0.1867 0.4084,-0.28 0.665,-0.28 z m 12.7668,0 h 10.0796 c 3.407,0 6.207,0.8517 8.4,2.555 2.217,1.68 3.325,4.0367 3.325,7.07 v 5.215 c 0,3.1733 -1.073,5.5767 -3.22,7.21 -2.146,1.6333 -4.97,2.45 -8.47,2.45 H 90.9944 c -0.2567,0 -0.4783,-0.0933 -0.665,-0.28 -0.1867,-0.1867 -0.28,-0.4083 -0.28,-0.665 v -22.61 c 0,-0.2567 0.0933,-0.4783 0.28,-0.665 0.1867,-0.1867 0.4083,-0.28 0.665,-0.28 z m 7.805,6.825 v 10.85 h 2.2746 c 0.794,0 1.424,-0.2333 1.89,-0.7 0.49,-0.49 0.735,-1.2017 0.735,-2.135 v -5.215 c 0,-1.8667 -0.875,-2.8 -2.625,-2.8 z M 124.306,19.5 h 7.595 c 0.84,0 1.365,0.385 1.575,1.155 l 7.805,22.33 c 0.024,0.07 0.035,0.1867 0.035,0.35 0,0.14 -0.081,0.2917 -0.245,0.455 -0.14,0.14 -0.315,0.21 -0.525,0.21 h -6.475 c -0.7,0 -1.155,-0.2917 -1.365,-0.875 l -0.84,-2.31 h -7.525 l -0.84,2.31 C 123.291,43.7083 122.836,44 122.136,44 h -6.475 c -0.21,0 -0.396,-0.07 -0.56,-0.21 -0.14,-0.1633 -0.21,-0.315 -0.21,-0.455 0,-0.1633 0.012,-0.28 0.035,-0.35 l 7.805,-22.33 c 0.21,-0.77 0.735,-1.155 1.575,-1.155 z m 1.82,14.49 h 3.955 l -1.995,-6.51 z M 157.947,44 h -6.86 c -0.257,0 -0.479,-0.0933 -0.665,-0.28 -0.187,-0.1867 -0.28,-0.4083 -0.28,-0.665 V 36.16 l -7.875,-15.575 c -0.047,-0.0933 -0.07,-0.2217 -0.07,-0.385 0,-0.1633 0.07,-0.315 0.21,-0.455 0.163,-0.1633 0.35,-0.245 0.56,-0.245 h 6.58 c 0.7,0 1.19,0.2917 1.47,0.875 l 3.5,7.035 3.5,-7.035 c 0.28,-0.5833 0.77,-0.875 1.47,-0.875 h 6.58 c 0.21,0 0.385,0.0817 0.525,0.245 0.163,0.14 0.245,0.2917 0.245,0.455 0,0.1633 -0.024,0.2917 -0.07,0.385 l -7.875,15.575 v 6.895 c 0,0.2567 -0.094,0.4783 -0.28,0.665 -0.187,0.1867 -0.409,0.28 -0.665,0.28 z"
       id="path1" />
  </mask>
  <path
     d="m 24.44,43.72 0.7071,-0.7071 v 0 z M 24.16,33.465 h 1 v -3.5541 l -1.8533,3.0326 z m -2.31,3.78 0.8423,0.5391 0.0056,-0.0088 0.0054,-0.0089 z m -5.04,0 -0.8533,0.5214 0.0054,0.0089 0.0056,0.0088 z M 14.5,33.465 15.3533,32.9435 13.5,29.9109 v 3.5541 z m -0.28,10.255 0.7071,0.7071 v 0 z m -7.665,0 0.70711,-0.7071 v 0 z m 0,-23.94 0.70711,0.7071 v 0 z m 7.7,0.665 -0.8742,0.4856 0.0089,0.0159 0.0094,0.0156 z m 5.075,8.4 -0.8559,0.5171 0.8559,1.4167 0.8559,-1.4167 z m 5.075,-8.4 0.8559,0.5171 0.0094,-0.0156 0.0089,-0.0159 z M 25.91,20.5 h 5.53 v -2 h -5.53 z m 5.53,0 c 0.0033,0 10e-4,3e-4 -0.0056,-0.001 -0.0067,-0.0013 -0.015,-0.0037 -0.0237,-0.0074 -0.0087,-0.0036 -0.0147,-0.0073 -0.0178,-0.0094 -0.0029,-0.002 -0.0011,-0.0011 0.005,0.0049 l 1.4142,-1.4142 C 32.4439,18.7047 31.9702,18.5 31.44,18.5 Z m -0.0421,-0.0129 c 0.006,0.0061 0.0069,0.0079 0.0049,0.005 C 31.4007,20.489 31.397,20.483 31.3934,20.4743 31.3897,20.4656 31.3873,20.4573 31.386,20.4506 31.3847,20.444 31.385,20.4417 31.385,20.445 h 2 c 0,-0.5302 -0.2047,-1.0039 -0.5729,-1.3721 z M 31.385,20.445 v 22.61 h 2 v -22.61 z m 0,22.61 c 0,0.0033 -3e-4,10e-4 10e-4,-0.0056 0.0013,-0.0067 0.0037,-0.015 0.0074,-0.0237 0.0036,-0.0087 0.0073,-0.0147 0.0094,-0.0178 0.002,-0.0029 0.0011,-0.0011 -0.0049,0.005 l 1.4142,1.4142 c 0.3682,-0.3682 0.5729,-0.8419 0.5729,-1.3721 z m 0.0129,-0.0421 c -0.0061,0.006 -0.0079,0.0069 -0.005,0.0049 0.0031,-0.0021 0.0091,-0.0058 0.0178,-0.0094 0.0087,-0.0037 0.017,-0.0061 0.0237,-0.0074 C 31.441,42.9997 31.4433,43 31.44,43 v 2 c 0.5302,0 1.0039,-0.2047 1.3721,-0.5729 z M 31.44,43 h -6.335 v 2 h 6.335 z m -6.335,0 c -0.0033,0 -0.001,-3e-4 0.0056,10e-4 0.0067,0.0013 0.015,0.0037 0.0237,0.0074 0.0087,0.0036 0.0147,0.0073 0.0178,0.0094 0.0029,0.002 0.0011,0.0011 -0.005,-0.0049 l -1.4142,1.4142 C 24.1011,44.7953 24.5748,45 25.105,45 Z m 0.0421,0.0129 c -0.006,-0.0061 -0.0069,-0.0079 -0.0049,-0.005 0.0021,0.0031 0.0058,0.0091 0.0094,0.0178 0.0037,0.0087 0.0061,0.017 0.0074,0.0237 0.0013,0.0066 0.001,0.0089 0.001,0.0056 h -2 c 0,0.5302 0.2047,1.0039 0.5729,1.3721 z M 25.16,43.055 v -9.59 h -2 v 9.59 z m -1.8533,-10.1115 -2.31,3.7801 1.7066,1.0428 2.31,-3.78 z m -2.299,3.7624 C 20.7352,37.1318 20.5743,37.12 20.555,37.12 v 2 c 0.9607,0 1.6631,-0.5951 2.1373,-1.3359 z M 20.555,37.12 h -2.45 v 2 h 2.45 z m -2.45,0 c -0.0193,0 -0.1802,0.0118 -0.4527,-0.4141 l -1.6846,1.0782 c 0.4742,0.7408 1.1766,1.3359 2.1373,1.3359 z m -0.4417,-0.3965 -2.31,-3.78 -1.7066,1.0429 2.31,3.78 z M 13.5,33.465 v 9.59 h 2 v -9.59 z m 0,9.59 c 0,0.0033 -3e-4,10e-4 10e-4,-0.0056 0.0013,-0.0067 0.0037,-0.015 0.0074,-0.0237 0.0036,-0.0087 0.0073,-0.0147 0.0094,-0.0178 0.002,-0.0029 0.0011,-0.0011 -0.0049,0.005 l 1.4142,1.4142 C 15.2953,44.0589 15.5,43.5852 15.5,43.055 Z m 0.0129,-0.0421 c -0.0061,0.006 -0.0079,0.0069 -0.005,0.0049 0.0031,-0.0021 0.0091,-0.0058 0.0178,-0.0094 0.0087,-0.0037 0.017,-0.0061 0.0237,-0.0074 C 13.556,42.9997 13.5583,43 13.555,43 v 2 c 0.5302,0 1.0039,-0.2047 1.3721,-0.5729 z M 13.555,43 H 7.22 v 2 h 6.335 z M 7.22,43 c -0.00329,0 -9.8e-4,-3e-4 0.00557,10e-4 0.00672,0.0013 0.01504,0.0037 0.02374,0.0074 0.00866,0.0036 0.01472,0.0073 0.01778,0.0094 0.00289,0.002 0.00106,0.0011 -0.00498,-0.0049 L 5.84789,44.4271 C 6.21611,44.7953 6.68977,45 7.22,45 Z m 0.04211,0.0129 C 7.25606,43.0068 7.25525,43.005 7.25723,43.0079 c 0.0021,0.0031 0.00576,0.0091 0.00941,0.0178 0.00366,0.0087 0.00604,0.017 0.00735,0.0237 C 7.27527,43.056 7.275,43.0583 7.275,43.055 h -2 c 0,0.5302 0.20467,1.0039 0.57289,1.3721 z M 7.275,43.055 v -22.61 h -2 v 22.61 z m 0,-22.61 c 0,-0.0033 2.7e-4,-0.001 -0.00101,0.0056 C 7.27268,20.4573 7.2703,20.4656 7.26664,20.4743 7.26299,20.483 7.25933,20.489 7.25723,20.4921 7.25525,20.495 7.25606,20.4932 7.26211,20.4871 L 5.84789,19.0729 C 5.47968,19.4411 5.275,19.9148 5.275,20.445 Z M 7.26211,20.4871 C 7.26815,20.4811 7.26998,20.4802 7.26709,20.4822 7.26403,20.4843 7.25797,20.488 7.24931,20.4916 7.24061,20.4953 7.23229,20.4977 7.22557,20.499 7.21902,20.5003 7.21671,20.5 7.22,20.5 v -2 c -0.53023,0 -1.00389,0.2047 -1.37211,0.5729 z M 7.22,20.5 h 5.53 v -2 H 7.22 Z m 5.53,0 c 0.2467,0 0.435,0.0782 0.6308,0.4306 l 1.7484,-0.9712 C 14.625,19.0518 13.81,18.5 12.75,18.5 Z m 0.6491,0.4621 5.075,8.4 1.7118,-1.0342 -5.075,-8.4 z m 6.7868,8.4 5.075,-8.4 -1.7118,-1.0342 -5.075,8.4 z m 5.0933,-8.4315 C 25.475,20.5782 25.6633,20.5 25.91,20.5 v -2 c -1.06,0 -1.875,0.5518 -2.3792,1.4594 z m 14.14,0.8094 -0.6268,-0.7792 -0.0041,0.0033 z m 16.975,0.035 -0.6361,0.7717 0.0093,0.0075 z m 0.035,20.09 0.6193,0.7851 0.0012,-9e-4 z m -17.045,0 -0.6248,0.7809 0.0096,0.0075 z m 6.65,-5.04 0.7071,-0.7071 v 0 z m 3.78,0 0.7071,0.7071 v 0 z m 0,-10.115 -0.7242,0.6897 0.0085,0.0088 0.0086,0.0086 z m -3.78,0 0.7071,0.7071 0.0086,-0.0086 0.0084,-0.0088 z M 40.0459,22.5192 C 41.9704,20.9713 44.5642,20.15 47.9242,20.15 v -2 c -3.6867,0 -6.7629,0.9054 -9.1318,2.8108 z M 47.9242,20.15 c 3.3576,0 5.935,0.8316 7.834,2.3967 l 1.272,-1.5434 C 54.6825,19.0684 51.6133,18.15 47.9242,18.15 Z m 7.8432,2.4042 c 1.875,1.5082 2.8468,3.6397 2.8468,6.5358 h 2 c 0,-3.4039 -1.1749,-6.149 -3.5933,-8.0942 z m 2.8468,6.5358 v 5.46 h 2 v -5.46 z m 0,5.46 c 0,2.9528 -0.9665,5.0757 -2.8055,6.5308 l 1.241,1.5684 c 2.4076,-1.9049 3.5645,-4.6587 3.5645,-8.0992 z m -2.8044,6.5299 C 53.9374,42.5571 51.3446,43.35 47.9242,43.35 v 2 c 3.7196,0 6.7968,-0.8637 9.1243,-2.6999 z M 47.9242,43.35 c -3.4197,0 -6.027,-0.7927 -7.9249,-2.2734 l -1.2303,1.5768 c 2.3488,1.8326 5.4348,2.6966 9.1552,2.6966 z M 40.0089,41.0841 C 38.1918,39.6305 37.2342,37.5068 37.2342,34.55 h -2 c 0,3.4366 1.1423,6.1895 3.5253,8.0959 z M 37.2342,34.55 v -5.46 h -2 v 5.46 z m 0,-5.46 c 0,-2.9261 0.9648,-5.0689 2.8159,-6.5741 l -1.2618,-1.5518 c -2.3956,1.9481 -3.5541,4.7053 -3.5541,8.1259 z m 8.0929,8.4421 c 0.6912,0.6912 1.5959,0.9929 2.5971,0.9929 v -2 c -0.5855,0 -0.9408,-0.165 -1.1829,-0.4071 z m 2.5971,0.9929 c 1.0012,0 1.9059,-0.3017 2.5971,-0.9929 L 49.1071,36.1179 C 48.8649,36.36 48.5096,36.525 47.9242,36.525 Z m 2.5971,-0.9929 c 0.7245,-0.7245 0.9929,-1.7396 0.9929,-2.8421 h -2 c 0,0.8109 -0.1983,1.219 -0.4071,1.4279 z M 51.5142,34.69 v -5.88 h -2 v 5.88 z m 0,-5.88 c 0,-1.0875 -0.2726,-2.0868 -0.9929,-2.8071 l -1.4142,1.4142 c 0.213,0.213 0.4071,0.6137 0.4071,1.3929 z M 50.5383,26.0203 C 49.8502,25.2979 48.9399,24.975 47.9242,24.975 v 2 c 0.5709,0 0.9206,0.1671 1.1658,0.4247 z M 47.9242,24.975 c -1.0158,0 -1.9261,0.3229 -2.6142,1.0453 l 1.4483,1.3794 c 0.2453,-0.2576 0.595,-0.4247 1.1659,-0.4247 z m -2.5971,1.0279 c -0.7204,0.7203 -0.9929,1.7196 -0.9929,2.8071 h 2 c 0,-0.7792 0.1941,-1.1799 0.4071,-1.3929 z M 44.3342,28.81 v 5.88 h 2 v -5.88 z m 0,5.88 c 0,1.1025 0.2684,2.1176 0.9929,2.8421 l 1.4142,-1.4142 C 46.5324,35.909 46.3342,35.5009 46.3342,34.69 Z m 33.2634,8.505 0.8377,-0.5463 -0.0041,-0.0061 z m -5.915,-8.925 0.8336,-0.5524 -1.8336,-2.7666 v 3.319 z m -0.28,9.45 0.7071,0.7071 v 0 z m -7.665,0 0.7071,-0.7071 v 0 z m 0,-23.94 0.7071,0.7071 v 0 z m 7.63,0.525 -0.8705,0.4921 0.0082,0.0145 0.0087,0.0142 z m 5.915,9.695 -0.8536,0.5208 1.8536,3.0383 V 30 Z m 0.28,-10.22 0.7071,0.7071 v 0 z m 0.665,0.72 h 6.335 v -2 h -6.335 z m 6.335,0 c 0.0033,0 10e-4,3e-4 -0.0056,-0.001 -0.0067,-0.0013 -0.015,-0.0037 -0.0237,-0.0074 -0.0087,-0.0036 -0.0147,-0.0073 -0.0178,-0.0094 -0.0029,-0.002 -0.001,-0.0011 0.005,0.0049 l 1.4142,-1.4142 C 85.5665,18.7047 85.0928,18.5 84.5626,18.5 Z m -0.0421,-0.0129 c 0.0061,0.0061 0.0069,0.0079 0.0049,0.005 -0.0021,-0.0031 -0.0058,-0.0091 -0.0094,-0.0178 -0.0037,-0.0087 -0.0061,-0.017 -0.0074,-0.0237 -0.0013,-0.0066 -0.001,-0.0089 -0.001,-0.0056 h 2 c 0,-0.5302 -0.2047,-1.0039 -0.5729,-1.3721 z M 84.5076,20.445 v 22.61 h 2 v -22.61 z m 0,22.61 c 0,0.0033 -3e-4,10e-4 0.001,-0.0056 0.0013,-0.0067 0.0037,-0.015 0.0074,-0.0237 0.0036,-0.0087 0.0073,-0.0147 0.0094,-0.0178 0.002,-0.0029 0.0012,-0.0011 -0.0049,0.005 l 1.4142,1.4142 c 0.3682,-0.3682 0.5729,-0.8419 0.5729,-1.3721 z m 0.0129,-0.0421 c -0.006,0.006 -0.0079,0.0069 -0.005,0.0049 0.0031,-0.0021 0.0092,-0.0058 0.0178,-0.0094 0.0087,-0.0037 0.017,-0.0061 0.0237,-0.0074 C 84.5636,42.9997 84.5659,43 84.5626,43 v 2 c 0.5302,0 1.0039,-0.2047 1.3721,-0.5729 z M 84.5626,43 h -5.53 v 2 h 5.53 z m -5.53,0 C 78.786,43 78.613,42.9214 78.4352,42.6487 L 76.76,43.7413 C 77.2822,44.542 78.0659,45 79.0326,45 Z m -0.6014,-0.3574 -5.915,-8.925 -1.6671,1.1048 5.915,8.925 z M 70.6826,34.27 v 8.785 h 2 V 34.27 Z m 0,8.785 c 0,0.0033 -3e-4,10e-4 0.001,-0.0056 0.0013,-0.0067 0.0037,-0.015 0.0074,-0.0237 0.0036,-0.0087 0.0073,-0.0147 0.0094,-0.0178 0.002,-0.0029 0.0012,-0.0011 -0.0049,0.005 l 1.4142,1.4142 c 0.3682,-0.3682 0.5729,-0.8419 0.5729,-1.3721 z m 0.0129,-0.0421 c -0.006,0.006 -0.0079,0.0069 -0.005,0.0049 0.0031,-0.0021 0.0092,-0.0058 0.0178,-0.0094 0.0087,-0.0037 0.017,-0.0061 0.0237,-0.0074 C 70.7386,42.9997 70.7409,43 70.7376,43 v 2 c 0.5302,0 1.0039,-0.2047 1.3721,-0.5729 z M 70.7376,43 h -6.335 v 2 h 6.335 z m -6.335,0 c -0.0033,0 -0.001,-3e-4 0.0056,10e-4 0.0067,0.0013 0.015,0.0037 0.0237,0.0074 0.0087,0.0036 0.0148,0.0073 0.0178,0.0094 0.0029,0.002 0.0011,0.0011 -0.005,-0.0049 l -1.4142,1.4142 C 63.3987,44.7953 63.8724,45 64.4026,45 Z m 0.0421,0.0129 c -0.006,-0.0061 -0.0068,-0.0079 -0.0049,-0.005 0.0021,0.0031 0.0058,0.0091 0.0095,0.0178 0.0036,0.0087 0.006,0.017 0.0073,0.0237 0.0013,0.0066 0.001,0.0089 0.001,0.0056 h -2 c 0,0.5302 0.2047,1.0039 0.5729,1.3721 z m 0.0129,0.0421 v -22.61 h -2 v 22.61 z m 0,-22.61 c 0,-0.0033 3e-4,-0.001 -0.001,0.0056 -0.0013,0.0067 -0.0037,0.015 -0.0073,0.0237 -0.0037,0.0087 -0.0074,0.0147 -0.0095,0.0178 -0.0019,0.0029 -0.0011,0.0011 0.0049,-0.005 l -1.4142,-1.4142 c -0.3682,0.3682 -0.5729,0.8419 -0.5729,1.3721 z m -0.0129,0.0421 c 0.0061,-0.006 0.0079,-0.0069 0.005,-0.0049 -0.003,0.0021 -0.0091,0.0058 -0.0178,0.0094 -0.0087,0.0037 -0.017,0.0061 -0.0237,0.0074 -0.0066,0.0013 -0.0089,0.001 -0.0056,0.001 v -2 c -0.5302,0 -1.0039,0.2047 -1.3721,0.5729 z M 64.4026,20.5 h 5.53 v -2 h -5.53 z m 5.53,0 c 0.3193,0 0.4512,0.0967 0.5645,0.2971 l 1.7411,-0.9842 C 71.7448,18.94 70.92,18.5 69.9326,18.5 Z m 0.5814,0.3258 5.915,9.695 1.7073,-1.0416 -5.915,-9.695 z M 78.2826,30 v -9.555 h -2 V 30 Z m 0,-9.555 c 0,-0.0033 3e-4,-0.001 -0.001,0.0056 -0.0013,0.0067 -0.0037,0.015 -0.0073,0.0237 -0.0037,0.0087 -0.0074,0.0147 -0.0095,0.0178 -0.0019,0.0029 -0.0011,0.0011 0.0049,-0.005 l -1.4142,-1.4142 c -0.3682,0.3682 -0.5729,0.8419 -0.5729,1.3721 z m -0.0129,0.0421 c 0.0061,-0.006 0.0079,-0.0069 0.005,-0.0049 -0.003,0.0021 -0.0091,0.0058 -0.0178,0.0094 -0.0087,0.0037 -0.017,0.0061 -0.0237,0.0074 -0.0066,0.0013 -0.0089,0.001 -0.0056,0.001 v -2 c -0.5302,0 -1.0039,0.2047 -1.3721,0.5729 z m 31.2043,1.5679 -0.613,0.7899 0.009,0.0071 z M 90.3294,43.72 91.0365,43.0129 v 0 z m 0,-23.94 0.7071,0.7071 v 0 z m 8.47,6.545 v -1 h -1 v 1 z m 0,10.85 h -1 v 1 h 1 z m 4.1646,-0.7 -0.707,-0.7071 v 0 z M 90.9944,20.5 h 10.0796 v -2 H 90.9944 Z m 10.0796,0 c 3.237,0 5.806,0.8063 7.787,2.3448 l 1.227,-1.5796 C 107.682,19.397 104.652,18.5 101.074,18.5 Z m 7.796,2.352 c 1.943,1.472 2.929,3.5199 2.929,6.273 h 2 c 0,-3.3136 -1.229,-5.979 -3.721,-7.867 z m 2.929,6.273 v 5.215 h 2 v -5.215 z m 0,5.215 c 0,2.9232 -0.973,5.0047 -2.825,6.4142 l 1.211,1.5916 c 2.441,-1.8571 3.614,-4.5823 3.614,-8.0058 z m -2.825,6.4142 C 107.047,42.2203 104.456,43 101.109,43 v 2 c 3.654,0 6.71,-0.8536 9.076,-2.6542 z M 101.109,43 H 90.9944 v 2 h 10.1146 z m -10.1146,0 c -0.0033,0 -0.001,-3e-4 0.0056,10e-4 0.0067,0.0013 0.015,0.0037 0.0237,0.0074 0.0087,0.0036 0.0147,0.0073 0.0178,0.0094 0.0029,0.002 0.0011,0.0011 -0.005,-0.0049 l -1.4142,1.4142 C 89.9905,44.7953 90.4642,45 90.9944,45 Z m 0.0421,0.0129 c -0.006,-0.0061 -0.0068,-0.0079 -0.0049,-0.005 0.0021,0.0031 0.0058,0.0091 0.0094,0.0178 0.0037,0.0087 0.0061,0.017 0.0074,0.0237 0.0013,0.0066 0.001,0.0089 0.001,0.0056 h -2 c 0,0.5302 0.2047,1.0039 0.5729,1.3721 z m 0.0129,0.0421 v -22.61 h -2 v 22.61 z m 0,-22.61 c 0,-0.0033 3e-4,-0.001 -0.001,0.0056 -0.0013,0.0067 -0.0037,0.015 -0.0074,0.0237 -0.0036,0.0087 -0.0073,0.0147 -0.0094,0.0178 -0.0019,0.0029 -0.0011,0.0011 0.0049,-0.005 l -1.4142,-1.4142 c -0.3682,0.3682 -0.5729,0.8419 -0.5729,1.3721 z m -0.0129,0.0421 c 0.0061,-0.006 0.0079,-0.0069 0.005,-0.0049 -0.0031,0.0021 -0.0091,0.0058 -0.0178,0.0094 C 91.015,20.4953 91.0067,20.4977 91,20.499 90.9934,20.5003 90.9911,20.5 90.9944,20.5 v -2 c -0.5302,0 -1.0039,0.2047 -1.3721,0.5729 z m 6.7629,5.8379 v 10.85 h 2 v -10.85 z m 1,11.85 h 2.2746 v -2 h -2.2746 z m 2.2746,0 c 1.002,0 1.906,-0.3017 2.598,-0.9929 l -1.415,-1.4142 c -0.242,0.2421 -0.597,0.4071 -1.183,0.4071 z m 2.598,-0.9929 c 0.735,-0.7353 1.027,-1.7383 1.027,-2.8421 h -2 c 0,0.7628 -0.197,1.1832 -0.442,1.4279 z m 1.027,-2.8421 v -5.215 h -2 v 5.215 z m 0,-5.215 c 0,-1.072 -0.25,-2.0621 -0.926,-2.7839 -0.688,-0.734 -1.652,-1.0161 -2.699,-1.0161 v 2 c 0.704,0 1.053,0.1846 1.24,0.3839 0.198,0.2115 0.385,0.6214 0.385,1.4161 z m -3.625,-3.8 h -2.2746 v 2 h 2.2746 z m 32.402,-4.67 -0.965,0.2631 0.01,0.0338 0.011,0.0331 z m 7.805,22.33 0.949,-0.3162 -0.002,-0.0069 -0.003,-0.0069 z m -0.21,0.805 -0.707,-0.7071 v 0 z m -8.365,-0.665 0.941,-0.3387 -0.001,-0.003 z m -0.84,-2.31 0.94,-0.3417 -0.239,-0.6583 h -0.701 z m -7.525,0 v -1 h -0.7 l -0.24,0.6583 z m -0.84,2.31 -0.94,-0.3417 -0.001,0.003 z m -8.4,0.665 -0.759,0.6508 0.05,0.0584 0.058,0.0501 z m -0.175,-0.805 -0.944,-0.33 -0.002,0.0069 -0.002,0.0069 z m 7.805,-22.33 0.944,0.33 0.012,-0.0331 0.009,-0.0338 z m 3.395,13.335 -0.957,-0.2883 -0.388,1.2883 h 1.345 z m 3.955,0 v 1 h 1.353 l -0.397,-1.293 z m -1.995,-6.51 0.956,-0.293 -0.964,-3.1476 -0.949,3.1523 z m -3.78,-6.98 h 7.595 v -2 h -7.595 z m 7.595,0 c 0.269,0 0.386,0.0606 0.433,0.0952 0.042,0.0307 0.118,0.1053 0.177,0.3229 l 1.93,-0.5262 C 134.29,19.8395 133.999,19.3366 133.516,18.9823 133.038,18.6319 132.472,18.5 131.901,18.5 Z m 0.631,0.485 7.805,22.33 1.888,-0.66 -7.805,-22.33 z m 7.801,22.3162 c -0.007,-0.0186 -0.011,-0.034 -0.014,-0.0452 -0.003,-0.0114 -0.004,-0.02 -0.005,-0.0255 -0.002,-0.0103 -0.002,-0.013 -0.002,-0.006 10e-4,0.0067 0.002,0.0191 0.003,0.0384 0.001,0.0191 0.001,0.0429 0.001,0.0721 h 2 c 0,-0.1726 -0.008,-0.4307 -0.086,-0.6662 z m -0.017,0.0338 c 0,-0.1294 0.039,-0.2186 0.058,-0.2554 0.018,-0.0333 0.025,-0.0314 -0.01,0.0033 l 1.414,1.4142 c 0.235,-0.2351 0.538,-0.6289 0.538,-1.1621 z m 0.048,-0.2521 c 0.021,-0.0208 0.055,-0.0461 0.1,-0.0639 0.043,-0.0173 0.074,-0.019 0.082,-0.019 v 2 c 0.458,0 0.893,-0.1631 1.232,-0.5029 z M 140.546,43 h -6.475 v 2 h 6.475 z m -6.475,0 c -0.214,0 -0.301,-0.0445 -0.326,-0.0606 -0.016,-0.0098 -0.056,-0.0369 -0.098,-0.1531 l -1.882,0.6774 c 0.168,0.4671 0.461,0.8776 0.9,1.1594 0.43,0.2755 0.921,0.3769 1.406,0.3769 z m -0.425,-0.2167 -0.84,-2.31 -1.88,0.6834 0.84,2.31 z m -1.78,-2.9683 h -7.525 v 2 h 7.525 z m -8.465,0.6583 -0.84,2.31 1.88,0.6834 0.84,-2.31 z m -0.841,2.313 c -0.042,0.1162 -0.082,0.1433 -0.097,0.1531 C 122.438,42.9555 122.351,43 122.136,43 v 2 c 0.486,0 0.976,-0.1014 1.406,-0.3769 0.44,-0.2818 0.732,-0.6923 0.9,-1.1594 z M 122.136,43 h -6.475 v 2 h 6.475 z m -6.475,0 c 0.009,0 0.029,0.0019 0.054,0.0112 0.011,0.0042 0.021,0.009 0.028,0.0132 0.006,0.0041 0.01,0.0068 0.009,0.0063 l -1.302,1.5186 C 114.79,44.8405 115.206,45 115.661,45 Z m 0.199,0.1392 c -0.026,-0.0306 -0.021,-0.0324 -0.008,-0.0045 0.014,0.0305 0.039,0.1004 0.039,0.2003 h -2 c 0,0.4779 0.235,0.8543 0.451,1.1058 z m 0.031,0.1958 c 0,-0.0292 10e-4,-0.053 0.002,-0.0721 0,-0.0193 0.001,-0.0317 0.002,-0.0384 0.001,-0.007 0.001,-0.0043 -10e-4,0.006 -0.001,0.0055 -0.003,0.0141 -0.006,0.0255 -0.003,0.0112 -0.007,0.0266 -0.013,0.0452 l -1.897,-0.6324 c -0.079,0.2355 -0.087,0.4936 -0.087,0.6662 z m -0.021,-0.02 7.805,-22.33 -1.888,-0.66 -7.805,22.33 z m 7.826,-22.3969 c 0.059,-0.2176 0.136,-0.2922 0.178,-0.3229 0.047,-0.0346 0.163,-0.0952 0.432,-0.0952 v -2 c -0.571,0 -1.137,0.1319 -1.615,0.4823 -0.483,0.3543 -0.774,0.8572 -0.925,1.4096 z m 2.43,14.0719 h 3.955 v -2 h -3.955 z m 4.911,-1.293 -1.995,-6.51 -1.912,0.586 1.995,6.51 z m -3.908,-6.5053 -1.96,6.51 1.915,0.5766 1.96,-6.51 z m 23.293,16.5283 -0.707,0.7071 v 0 z m -0.28,-7.56 h 1 v -0.2384 l -0.108,-0.2128 z m -7.875,-15.575 -0.895,0.4472 0.002,0.004 z m 0.14,-0.84 0.707,0.7071 v 0 z m 8.61,0.63 -0.902,0.4328 0.006,0.0126 z m 3.5,7.035 -0.896,0.4454 0.896,1.7996 0.895,-1.7996 z m 3.5,-7.035 0.895,0.4455 0.006,-0.0128 z m 8.575,-0.63 -0.76,0.6508 0.05,0.0584 0.059,0.0501 z m 0.175,0.84 0.892,0.4512 0.002,-0.004 z m -7.875,15.575 -0.893,-0.4512 -0.107,0.2128 V 36.16 Z m -0.28,7.56 0.707,0.7071 v 0 z M 157.947,43 h -6.86 v 2 h 6.86 z m -6.86,0 c -0.004,0 -10e-4,-3e-4 0.005,10e-4 0.007,0.0013 0.015,0.0037 0.024,0.0074 0.009,0.0036 0.015,0.0073 0.018,0.0094 0.003,0.002 0.001,0.0011 -0.005,-0.0049 l -1.414,1.4142 C 150.083,44.7953 150.556,45 151.087,45 Z m 0.042,0.0129 c -0.006,-0.0061 -0.007,-0.0079 -0.005,-0.005 0.002,0.0031 0.006,0.0091 0.009,0.0178 0.004,0.0087 0.006,0.017 0.008,0.0237 0.001,0.0066 0.001,0.0089 0.001,0.0056 h -2 c 0,0.5302 0.204,1.0039 0.573,1.3721 z m 0.013,0.0421 V 36.16 h -2 v 6.895 z m -0.108,-7.3462 -7.875,-15.575 -1.785,0.9024 7.875,15.575 z m -7.873,-15.571 c 0.028,0.0561 0.036,0.0952 0.037,0.1021 0.001,0.0074 -0.001,-0.004 -0.001,-0.0399 h -2 c 0,0.2396 0.031,0.5434 0.175,0.8322 z m 0.036,0.0622 c 0,0.0664 -0.016,0.1303 -0.04,0.1828 -0.023,0.0491 -0.045,0.071 -0.043,0.0693 L 141.7,19.0379 c -0.286,0.2851 -0.503,0.679 -0.503,1.1621 z m -0.083,0.2521 c 0.005,-0.0052 -0.009,0.0099 -0.044,0.0253 -0.037,0.0162 -0.075,0.0226 -0.103,0.0226 v -2 c -0.503,0 -0.937,0.2076 -1.267,0.5379 z M 142.967,20.5 h 6.58 v -2 h -6.58 z m 6.58,0 c 0.21,0 0.322,0.0432 0.381,0.078 0.053,0.032 0.121,0.0909 0.187,0.2297 l 1.803,-0.8654 c -0.213,-0.4445 -0.531,-0.8232 -0.967,-1.0828 C 150.519,18.6027 150.036,18.5 149.547,18.5 Z m 0.574,0.3204 3.5,7.035 1.791,-0.8908 -3.5,-7.035 z m 5.291,7.035 3.5,-7.035 -1.791,-0.8908 -3.5,7.035 z m 3.506,-7.0477 c 0.067,-0.1388 0.134,-0.1977 0.188,-0.2297 0.058,-0.0348 0.17,-0.078 0.381,-0.078 v -2 c -0.49,0 -0.973,0.1027 -1.404,0.3595 -0.437,0.2596 -0.754,0.6383 -0.968,1.0828 z M 159.487,20.5 h 6.58 v -2 h -6.58 z m 6.58,0 c -0.028,0 -0.078,-0.0064 -0.134,-0.0326 -0.056,-0.0259 -0.089,-0.0576 -0.101,-0.0716 l 1.519,-1.3016 C 167.026,18.7154 166.577,18.5 166.067,18.5 Z m -0.126,0.0043 c 0.01,0.009 -0.016,-0.0107 -0.046,-0.0664 -0.033,-0.0617 -0.058,-0.145 -0.058,-0.2379 h 2 c 0,-0.5411 -0.284,-0.9484 -0.595,-1.2143 z M 165.837,20.2 c 0,0.0359 -0.003,0.0473 -0.002,0.0399 0.002,-0.0069 0.009,-0.046 0.037,-0.1021 l 1.789,0.8944 c 0.145,-0.2888 0.176,-0.5926 0.176,-0.8322 z m 0.037,-0.0662 -7.875,15.575 1.785,0.9024 7.875,-15.575 z M 157.892,36.16 v 6.895 h 2 V 36.16 Z m 0,6.895 c 0,0.0033 -0.001,10e-4 0.001,-0.0056 0.001,-0.0067 0.003,-0.015 0.007,-0.0237 0.004,-0.0087 0.007,-0.0147 0.009,-0.0178 0.002,-0.0029 0.002,-0.0011 -0.004,0.005 l 1.414,1.4142 c 0.368,-0.3682 0.573,-0.8419 0.573,-1.3721 z m 0.013,-0.0421 c -0.006,0.006 -0.008,0.0069 -0.005,0.0049 0.003,-0.0021 0.009,-0.0058 0.017,-0.0094 0.009,-0.0037 0.017,-0.0061 0.024,-0.0074 C 157.948,42.9997 157.95,43 157.947,43 v 2 c 0.53,0 1.004,-0.2047 1.372,-0.5729 z"
     fill="#000000"
     mask="url(#path-1-inside-1_3_17)"
     id="path2"
     transform="translate(-1.9299553,-15.899155)" />
  <path
     d="m 19.980045,0.60084451 h 5.53 c 0.2567,0 0.4783,0.0933 0.665,0.28 0.1867,0.18669999 0.28,0.40829999 0.28,0.66499999 V 24.155845 c 0,0.2567 -0.0933,0.4783 -0.28,0.665 -0.1867,0.1867 -0.4083,0.28 -0.665,0.28 h -6.335 c -0.2567,0 -0.4783,-0.0933 -0.665,-0.28 -0.1867,-0.1867 -0.28,-0.4083 -0.28,-0.665 v -9.59 l -2.31,3.78 c -0.3733,0.5833 -0.805,0.875 -1.295,0.875 h -2.45 c -0.49,0 -0.9217,-0.2917 -1.295,-0.875 l -2.3100003,-3.78 v 9.59 c 0,0.2567 -0.0933,0.4783 -0.28,0.665 -0.1867,0.1867 -0.40833,0.28 -0.665,0.28 h -6.335 c -0.25667,0 -0.47832999,-0.0933 -0.66499999,-0.28 -0.18667,-0.1867 -0.28,-0.4083 -0.28,-0.665 V 1.5458445 c 0,-0.2567 0.09333,-0.4783 0.28,-0.66499999 0.18667,-0.1867 0.40832999,-0.28 0.66499999,-0.28 h 5.53 c 0.65333,0 1.155,0.315 1.505,0.94499999 l 5.0750003,8.4 5.075,-8.4 c 0.35,-0.62999999 0.8517,-0.94499999 1.505,-0.94499999 z m 13.5092,2.23999999 c 2.1466,-1.7267 4.9816,-2.58999999 8.505,-2.58999999 3.5233,0 6.3466,0.87499999 8.47,2.62499999 2.1466,1.7267 3.22,4.165 3.22,7.3150005 v 5.46 c 0,3.1967 -1.0617,5.635 -3.185,7.315 -2.1,1.6567 -4.935,2.485 -8.505,2.485 -3.57,0 -6.4167,-0.8283 -8.54,-2.485 -2.1,-1.68 -3.15,-4.1183 -3.15,-7.315 v -5.46 c 0,-3.1733005 1.0616,-5.6233005 3.185,-7.3500005 z m 6.615,15.0850005 c 0.4666,0.4667 1.0966,0.7 1.89,0.7 0.7933,0 1.4233,-0.2333 1.89,-0.7 0.4666,-0.4667 0.7,-1.1783 0.7,-2.135 V 9.9108445 c 0,-0.9333 -0.2334,-1.6333 -0.7,-2.1 -0.4667,-0.49 -1.0967,-0.735 -1.89,-0.735 -0.7934,0 -1.4234,0.245 -1.89,0.735 -0.4667,0.4667 -0.7,1.1667 -0.7,2.1 v 5.8800005 c 0,0.9567 0.2333,1.6683 0.7,2.135 z m 32.1934,-17.32500049 h 6.335 c 0.2567,0 0.4784,0.0933 0.665,0.28 0.1867,0.18669999 0.28,0.40829999 0.28,0.66499999 V 24.155845 c 0,0.2567 -0.0933,0.4783 -0.28,0.665 -0.1866,0.1867 -0.4083,0.28 -0.665,0.28 h -5.53 c -0.6066,0 -1.085,-0.2683 -1.435,-0.805 l -5.915,-8.925 v 8.785 c 0,0.2567 -0.0933,0.4783 -0.28,0.665 -0.1866,0.1867 -0.4083,0.28 -0.665,0.28 h -6.335 c -0.2566,0 -0.4783,-0.0933 -0.665,-0.28 -0.1866,-0.1867 -0.28,-0.4083 -0.28,-0.665 V 1.5458445 c 0,-0.2567 0.0934,-0.4783 0.28,-0.66499999 0.1867,-0.1867 0.4084,-0.28 0.665,-0.28 h 5.53 c 0.6534,0 1.1317,0.2683 1.435,0.80499999 l 5.915,9.6950005 V 1.5458445 c 0,-0.2567 0.0934,-0.4783 0.28,-0.66499999 0.1867,-0.1867 0.4084,-0.28 0.665,-0.28 z m 12.7668,0 h 10.08 c 3.4066,0 6.206595,0.85169999 8.399595,2.55499999 2.217,1.68 3.325,4.0367 3.325,7.0700005 v 5.215 c 0,3.1733 -1.073,5.5767 -3.22,7.21 -2.146,1.6333 -4.969995,2.45 -8.469595,2.45 h -10.115 c -0.2567,0 -0.4783,-0.0933 -0.665,-0.28 -0.1867,-0.1867 -0.28,-0.4083 -0.28,-0.665 V 1.5458445 c 0,-0.2567 0.0933,-0.4783 0.28,-0.66499999 0.1867,-0.1867 0.4083,-0.28 0.665,-0.28 z m 7.805,6.82499999 V 18.275845 h 2.275 c 0.7933,0 1.4233,-0.2333 1.89,-0.7 0.49,-0.49 0.735,-1.2017 0.735,-2.135 v -5.215 c 0,-1.8667005 -0.875,-2.8000005 -2.625,-2.8000005 z M 118.37604,0.60084451 h 7.595 c 0.84,0 1.365,0.385 1.575,1.15499999 l 7.805,22.3300005 c 0.024,0.07 0.035,0.1867 0.035,0.35 0,0.14 -0.081,0.2917 -0.245,0.455 -0.14,0.14 -0.315,0.21 -0.525,0.21 h -6.475 c -0.7,0 -1.155,-0.2917 -1.365,-0.875 l -0.84,-2.31 h -7.525 l -0.84,2.31 c -0.21,0.5833 -0.665,0.875 -1.365,0.875 h -6.475 c -0.21,0 -0.396,-0.07 -0.56,-0.21 -0.14,-0.1633 -0.21,-0.315 -0.21,-0.455 0,-0.1633 0.012,-0.28 0.035,-0.35 l 7.805,-22.3300005 c 0.21,-0.76999999 0.735,-1.15499999 1.575,-1.15499999 z m 1.82,14.49000049 h 3.955 l -1.995,-6.5100005 z m 31.821,10.01 h -6.86 c -0.257,0 -0.479,-0.0933 -0.665,-0.28 -0.187,-0.1867 -0.28,-0.4083 -0.28,-0.665 v -6.895 l -7.875,-15.5750005 c -0.047,-0.0933 -0.07,-0.2217 -0.07,-0.385 0,-0.1633 0.07,-0.31499999 0.21,-0.45499999 0.163,-0.1633 0.35,-0.245 0.56,-0.245 h 6.58 c 0.7,0 1.19,0.2917 1.47,0.87499999 l 3.5,7.035 3.5,-7.035 c 0.28,-0.58329999 0.77,-0.87499999 1.47,-0.87499999 h 6.58 c 0.21,0 0.385,0.0817 0.525,0.245 0.163,0.14 0.245,0.29169999 0.245,0.45499999 0,0.1633 -0.024,0.2917 -0.07,0.385 l -7.875,15.5750005 v 6.895 c 0,0.2567 -0.094,0.4783 -0.28,0.665 -0.187,0.1867 -0.409,0.28 -0.665,0.28 z"
     fill="#343131"
     id="path3" />
</svg>
