<svg width="266" height="106" viewBox="0 0 266 106" fill="none" xmlns="http://www.w3.org/2000/svg">
<g filter="url(#filter0_d_13_29)">
<path fill-rule="evenodd" clip-rule="evenodd" d="M246.584 2.19612C255.287 2.37433 262.709 8.76799 263.668 17.4202C265.608 34.926 265.328 48.692 263.484 66.1445C262.553 74.955 255.094 81.5886 246.237 81.7943C166.323 83.6501 115.704 83.7649 35.266 81.7657C31.1757 81.6641 27.3315 80.1882 24.3462 77.7143C17.7624 91.9188 9.08543 96.3122 4.35316 98.7083C3.02255 99.3821 2.0038 99.8979 1.43117 100.43C10.8658 87.8874 17.16 75.6705 19.1651 70.1189C19.0054 69.6245 18.8682 69.1183 18.7548 68.6012C14.6437 49.8463 14.7953 35.3253 18.8762 15.7773C20.5229 7.88965 27.6039 2.39656 35.66 2.23568C115.977 0.631701 166.616 0.558678 246.584 2.19612ZM1 101C1.08543 100.803 1.23106 100.615 1.43117 100.43C1.28816 100.62 1.14444 100.81 1 101Z" fill="white"/>
<path d="M263.668 17.4202L262.674 17.5303L262.674 17.5303L263.668 17.4202ZM246.584 2.19612L246.604 1.19633L246.584 2.19612ZM263.484 66.1445L264.478 66.2495L264.478 66.2495L263.484 66.1445ZM246.237 81.7943L246.214 80.7946L246.214 80.7946L246.237 81.7943ZM35.266 81.7657L35.2411 82.7654L35.2411 82.7654L35.266 81.7657ZM24.3462 77.7143L24.9842 76.9443C24.7454 76.7464 24.4282 76.6705 24.1256 76.7389C23.823 76.8073 23.5693 77.0123 23.4389 77.2937L24.3462 77.7143ZM4.35316 98.7083L4.80489 99.6005L4.80489 99.6005L4.35316 98.7083ZM19.1651 70.1189L20.1056 70.4586C20.1809 70.2501 20.1848 70.0225 20.1167 69.8116L19.1651 70.1189ZM18.7548 68.6012L17.778 68.8154L17.778 68.8154L18.7548 68.6012ZM18.8762 15.7773L19.8551 15.9817L19.8551 15.9817L18.8762 15.7773ZM35.66 2.23568L35.64 1.23588L35.66 2.23568ZM1 101L0.0825182 100.602C-0.118726 101.066 0.0584058 101.608 0.495108 101.863C0.93181 102.119 1.49049 102.008 1.79643 101.605L1 101ZM264.662 17.31C263.644 8.12834 255.778 1.38417 246.604 1.19633L246.563 3.19591C254.796 3.36449 261.774 9.40764 262.674 17.5303L264.662 17.31ZM264.478 66.2495C266.328 48.7395 266.611 34.9001 264.662 17.31L262.674 17.5303C264.605 34.952 264.327 48.6446 262.489 66.0394L264.478 66.2495ZM246.26 82.794C255.601 82.5771 263.493 75.5785 264.478 66.2495L262.489 66.0394C261.613 74.3316 254.587 80.6001 246.214 80.7946L246.26 82.794ZM35.2411 82.7654C115.697 84.765 166.332 84.6501 246.26 82.794L246.214 80.7946C166.315 82.65 115.712 82.7648 35.2908 80.766L35.2411 82.7654ZM23.7081 78.4842C26.8665 81.1016 30.9267 82.6582 35.2411 82.7654L35.2908 80.766C31.4247 80.6699 27.7965 79.2748 24.9842 76.9443L23.7081 78.4842ZM23.4389 77.2937C16.9907 91.2058 8.54228 95.4664 3.90144 97.8162L4.80489 99.6005C9.62858 97.1581 18.5341 92.6319 25.2534 78.1348L23.4389 77.2937ZM3.90144 97.8162C3.24268 98.1497 2.63189 98.4587 2.11426 98.7526C1.60254 99.043 1.12364 99.3505 0.750797 99.6966L2.11153 101.162C2.31133 100.977 2.62812 100.761 3.10159 100.492C3.56914 100.226 4.13303 99.9407 4.80489 99.6005L3.90144 97.8162ZM2.23031 101.031C11.7089 88.4301 18.0587 76.126 20.1056 70.4586L18.2245 69.7792C16.2613 75.2151 10.0227 87.3447 0.632025 99.8284L2.23031 101.031ZM17.778 68.8154C17.8983 69.364 18.0439 69.9012 18.2135 70.4263L20.1167 69.8116C19.9668 69.3477 19.8381 68.8726 19.7316 68.3871L17.778 68.8154ZM17.8973 15.573C13.7902 35.2467 13.6341 49.9108 17.778 68.8154L19.7316 68.3871C15.6533 49.7818 15.8005 35.4039 19.8551 15.9817L17.8973 15.573ZM35.64 1.23588C27.1511 1.40541 19.6458 7.19744 17.8973 15.573L19.8551 15.9817C21.3999 8.58185 28.0567 3.38772 35.68 3.23548L35.64 1.23588ZM246.604 1.19633C166.622 -0.441407 115.97 -0.36835 35.64 1.23588L35.68 3.23548C115.985 1.63175 166.61 1.55876 246.563 3.19591L246.604 1.19633ZM1.91748 101.398C1.93073 101.367 1.97549 101.289 2.11153 101.162L0.750801 99.6966C0.486631 99.9419 0.240127 100.239 0.0825182 100.602L1.91748 101.398ZM0.632025 99.8284C0.489918 100.017 0.347096 100.206 0.203566 100.395L1.79643 101.605C1.94179 101.413 2.08641 101.222 2.23031 101.031L0.632025 99.8284Z" fill="black"/>
</g>
<path d="M37.568 24.052C37.04 25.66 38.144 26.5 39.656 26.5C40.928 26.5 42.32 26.02 43.076 26.02C43.508 26.02 43.904 26.32 43.784 26.692C43.688 26.992 43.22 27.376 42.98 27.544C42.368 27.964 40.208 28.492 39.548 28.492C37.076 28.492 35.948 27.268 35.42 25.78C35.216 25.204 35.288 24.316 35.492 23.668C35.744 22.912 36.392 22.192 36.992 21.532C37.244 21.28 37.484 20.98 37.724 20.716C38.528 19.84 39.992 18.952 41.168 18.952C41.78 18.952 42.416 19.108 42.848 19.312C43.688 19.648 44.6 20.68 44.252 21.76C44.216 21.88 44.144 22.096 44.024 22.3C43.892 22.492 43.628 22.756 43.196 22.756C42.872 22.756 42.464 22.372 42.404 22.108C42.356 22 42.368 21.88 42.332 21.784C42.272 21.436 41.78 20.896 41.432 20.896C40.064 20.896 37.964 22.816 37.568 24.052ZM48.9524 26.536C49.4804 26.536 50.0084 26.476 50.5844 26.344C51.4244 26.14 52.6364 25.084 52.8404 24.436C52.9364 24.148 52.9964 23.452 52.9244 22.804C52.9004 22.444 52.7924 21.664 52.3724 21.604C51.9164 21.544 51.4004 21.496 51.0884 21.22C51.0524 21.244 51.0164 21.256 50.9564 21.292C50.6204 21.4 50.2964 21.604 49.9604 21.76C48.8444 22.288 47.5604 23.488 47.2004 24.616C47.0204 25.168 46.9244 25.672 47.3084 25.984C47.5844 26.248 48.4244 26.452 48.9524 26.536ZM49.0004 28.576C47.1884 28.576 44.9684 27.304 45.1604 25.36C45.2204 25.084 45.2684 24.808 45.3644 24.52C45.9644 22.684 48.3164 19.276 51.6404 19.276C53.8844 19.276 54.4964 21.016 54.7364 22.264C54.8924 23.008 54.8804 23.74 54.6164 24.58C54.5204 24.868 54.3764 25.18 54.2444 25.48C53.2604 27.424 50.8724 28.576 49.0004 28.576ZM55.2374 27.1C55.2734 26.836 55.3454 26.476 55.4414 26.128C56.0174 24.04 56.5934 21.952 57.2654 19.864C57.4094 19.42 57.7934 19.072 58.2734 19.072C58.3574 19.072 58.4534 19.084 58.5134 19.12C58.9574 19.348 59.0534 19.744 58.9934 20.128C58.9334 20.488 58.7654 20.896 58.6694 21.208C58.4174 21.988 58.1054 22.804 57.9614 23.584C57.8774 23.992 57.7574 24.388 57.6374 24.772C57.4694 25.36 57.2894 25.948 57.1214 26.536C57.1574 26.56 57.2294 26.56 57.3134 26.56C57.5294 26.56 57.7574 26.524 57.9974 26.476C58.7294 26.332 59.4254 26.212 60.1214 26.212C60.2534 26.212 60.4454 26.212 60.5774 26.248C61.0214 26.32 61.4654 26.68 61.7414 26.956C61.8974 27.1 61.8974 27.352 61.8374 27.532C61.7174 27.892 61.4774 28.036 61.1294 28.144C60.6494 28.204 60.1814 28.3 59.7134 28.348C58.9934 28.396 58.2374 28.456 57.9734 28.468C57.5414 28.552 57.0134 28.768 56.5814 28.768C55.7294 28.768 55.2134 27.856 55.2374 27.1ZM63.4171 27.1C63.4531 26.836 63.5251 26.476 63.6211 26.128C64.1971 24.04 64.7731 21.952 65.4451 19.864C65.5891 19.42 65.9731 19.072 66.4531 19.072C66.5371 19.072 66.6331 19.084 66.6931 19.12C67.1371 19.348 67.2331 19.744 67.1731 20.128C67.1131 20.488 66.9451 20.896 66.8491 21.208C66.5971 21.988 66.2851 22.804 66.1411 23.584C66.0571 23.992 65.9371 24.388 65.8171 24.772C65.6491 25.36 65.4691 25.948 65.3011 26.536C65.3371 26.56 65.4091 26.56 65.4931 26.56C65.7091 26.56 65.9371 26.524 66.1771 26.476C66.9091 26.332 67.6051 26.212 68.3011 26.212C68.4331 26.212 68.6251 26.212 68.7571 26.248C69.2011 26.32 69.6451 26.68 69.9211 26.956C70.0771 27.1 70.0771 27.352 70.0171 27.532C69.8971 27.892 69.6571 28.036 69.3091 28.144C68.8291 28.204 68.3611 28.3 67.8931 28.348C67.1731 28.396 66.4171 28.456 66.1531 28.468C65.7211 28.552 65.1931 28.768 64.7611 28.768C63.9091 28.768 63.3931 27.856 63.4171 27.1ZM74.7888 24.208C75.3888 24.124 76.1808 24.088 76.7328 24.088C76.6848 23.38 76.5168 22.408 76.4208 21.724C75.9408 22.336 75.1608 23.584 74.7888 24.208ZM72.5448 27.892C72.3288 28.348 71.9208 28.504 71.5248 28.504C70.9848 28.504 70.8888 28.12 70.8768 27.856C70.8768 27.028 71.4648 26.068 71.8848 25.408C72.2448 24.868 72.6408 24.328 72.9528 23.848C73.1928 23.512 73.4088 23.188 73.6008 22.852C74.0208 22.132 74.4648 21.472 74.9808 20.776C75.2568 20.392 75.5328 19.984 75.8208 19.624C76.0728 19.312 76.3008 18.916 76.7448 18.916C76.9248 18.916 77.0688 18.976 77.2008 19.072C77.6088 19.228 78.0168 19.744 78.0408 20.152C78.0888 20.368 78.1368 20.596 78.1968 20.824C78.5088 22.324 78.4728 23.86 78.6408 25.372C78.7248 26.056 78.7488 26.872 78.5088 27.58C78.3648 28.036 78.0528 28.576 77.5008 28.576C76.7328 28.576 76.9248 27.856 76.8888 27.412C76.8408 26.836 76.8888 26.404 76.7688 25.876C76.3368 25.972 73.6368 26.176 73.6368 26.176C73.3248 26.824 72.8928 27.256 72.5448 27.892ZM81.9228 26.728C82.1388 26.716 82.3668 26.704 82.5948 26.692C83.3508 26.656 84.2148 26.476 85.0068 26.26C85.5828 26.14 86.5188 25.792 86.9988 25.36C86.6748 25.18 85.9068 25.012 85.4868 25.012C85.2108 25.012 83.5668 25.06 83.3508 25.132C82.9428 25.24 82.4748 25.312 82.0908 25.312C82.0068 25.708 81.9948 26.092 81.9708 26.476C81.9588 26.56 81.9588 26.644 81.9228 26.728ZM82.6548 23.356C83.5068 23.26 84.7068 23.092 85.5228 22.816C86.1948 22.576 87.3588 21.832 87.5748 21.436C87.1788 20.992 86.0988 20.776 85.4028 20.776C85.0068 20.776 84.6708 20.896 84.2628 20.968C84.0348 20.992 83.5668 21.028 83.3388 21.148C83.2428 21.532 83.1228 21.916 82.9908 22.324C82.9068 22.564 82.6668 23.152 82.6548 23.356ZM87.2868 23.608C88.2708 23.812 89.2188 24.46 88.8228 25.66C88.7028 26.032 88.4148 26.524 87.9348 26.872C85.9788 28.264 83.1708 28.66 81.2028 28.66C80.8308 28.66 80.3388 28.624 80.2068 28.24C80.0748 27.964 80.0508 27.292 80.0748 26.992C80.0988 26.668 80.2068 26.32 80.3028 25.948C80.5788 24.712 80.9148 23.536 81.2748 22.3C81.4908 21.592 81.5508 20.872 81.7788 20.164C81.8388 19.972 81.9708 19.696 82.3308 19.54C83.3028 19.084 85.0908 18.844 86.0268 18.844C86.3508 18.844 86.6628 18.856 86.9268 18.892C88.2828 19.036 89.8308 20.368 89.4468 21.532C89.1588 22.408 88.2348 23.104 87.2868 23.608ZM93.8938 26.536C94.4218 26.536 94.9498 26.476 95.5258 26.344C96.3658 26.14 97.5778 25.084 97.7818 24.436C97.8778 24.148 97.9378 23.452 97.8658 22.804C97.8418 22.444 97.7338 21.664 97.3138 21.604C96.8578 21.544 96.3418 21.496 96.0298 21.22C95.9938 21.244 95.9578 21.256 95.8978 21.292C95.5618 21.4 95.2378 21.604 94.9018 21.76C93.7858 22.288 92.5018 23.488 92.1418 24.616C91.9618 25.168 91.8658 25.672 92.2498 25.984C92.5258 26.248 93.3658 26.452 93.8938 26.536ZM93.9418 28.576C92.1298 28.576 89.9098 27.304 90.1018 25.36C90.1618 25.084 90.2098 24.808 90.3058 24.52C90.9058 22.684 93.2578 19.276 96.5818 19.276C98.8258 19.276 99.4378 21.016 99.6778 22.264C99.8338 23.008 99.8218 23.74 99.5578 24.58C99.4618 24.868 99.3178 25.18 99.1858 25.48C98.2018 27.424 95.8138 28.576 93.9418 28.576ZM103.107 23.668C104.559 23.344 106.251 22.924 107.667 22.216C107.799 22.144 108.099 21.916 108.099 21.916C108.075 21.376 106.455 21.016 105.555 21.016C105.279 21.016 104.967 21.052 104.643 21.1C104.367 21.148 104.115 21.208 103.851 21.244C103.755 21.532 103.671 21.844 103.575 22.132C103.467 22.444 103.347 22.72 103.251 23.008C103.227 23.104 103.179 23.308 103.107 23.668ZM101.859 27.796C101.727 28.204 101.463 28.768 100.911 28.768C100.755 28.768 100.611 28.696 100.551 28.66C99.9988 28.432 100.083 27.856 100.203 27.496C100.335 27.076 100.587 26.668 100.719 26.26C101.139 24.964 101.307 23.656 101.727 22.348C101.835 22.024 101.859 21.688 101.871 21.376C101.907 21.028 101.943 20.68 102.063 20.308C102.123 20.116 102.267 19.828 102.591 19.648C103.263 19.3 105.471 19.072 106.083 19.072C106.455 19.072 106.779 19.108 107.091 19.168C108.435 19.468 109.131 19.672 109.707 20.812C109.863 21.184 109.923 21.556 109.767 22.036C109.251 23.656 105.771 24.892 104.415 25.276C104.499 25.396 105.003 25.624 105.183 25.684C105.723 25.9 106.287 26.068 106.923 26.128C107.103 26.152 107.415 26.164 107.703 26.212C108.099 26.284 108.831 26.488 108.651 27.04C108.435 27.688 107.271 28.036 106.647 28.036C106.035 28.036 104.703 27.736 104.235 27.376C103.683 27.064 102.783 26.488 102.363 26.104C102.183 26.668 102.051 27.232 101.859 27.796ZM113.531 24.208C114.131 24.124 114.923 24.088 115.475 24.088C115.427 23.38 115.259 22.408 115.163 21.724C114.683 22.336 113.903 23.584 113.531 24.208ZM111.287 27.892C111.071 28.348 110.663 28.504 110.267 28.504C109.727 28.504 109.631 28.12 109.619 27.856C109.619 27.028 110.207 26.068 110.627 25.408C110.987 24.868 111.383 24.328 111.695 23.848C111.935 23.512 112.151 23.188 112.343 22.852C112.763 22.132 113.207 21.472 113.723 20.776C113.999 20.392 114.275 19.984 114.563 19.624C114.815 19.312 115.043 18.916 115.487 18.916C115.667 18.916 115.811 18.976 115.943 19.072C116.351 19.228 116.759 19.744 116.783 20.152C116.831 20.368 116.879 20.596 116.939 20.824C117.251 22.324 117.215 23.86 117.383 25.372C117.467 26.056 117.491 26.872 117.251 27.58C117.107 28.036 116.795 28.576 116.243 28.576C115.475 28.576 115.667 27.856 115.631 27.412C115.583 26.836 115.631 26.404 115.511 25.876C115.079 25.972 112.379 26.176 112.379 26.176C112.067 26.824 111.635 27.256 111.287 27.892ZM122.399 27.616C122.327 27.856 121.883 28.504 121.223 28.504C120.875 28.504 120.767 28.264 120.707 28.072C120.659 27.844 120.647 27.544 120.683 27.256C120.791 26.14 121.199 24.832 121.571 23.704C121.751 23.14 121.883 22.564 121.967 22C122.003 21.796 122.147 21.256 122.195 21.052C121.583 21.052 121.031 21.088 120.395 21.244C120.191 21.292 119.939 21.34 119.735 21.34C119.255 21.34 119.039 21.148 118.955 20.908C118.859 20.62 118.919 20.272 119.123 19.924C119.459 19.276 121.283 19.144 121.835 19.144C123.335 19.144 125.351 19.168 126.671 19.576C127.103 19.696 127.259 20.284 127.103 20.776C127.031 20.992 126.767 21.1 126.599 21.136C126.395 21.172 126.119 21.184 125.819 21.184C125.243 21.184 124.571 21.136 124.199 21.124C123.899 21.784 123.491 22.984 123.227 23.776C122.987 24.52 122.711 25.624 122.531 26.368C122.423 26.8 122.543 27.184 122.399 27.616ZM128.107 21.472C128.251 21.016 128.311 20.548 128.455 20.092C128.563 19.78 128.623 19.48 128.899 19.204C129.139 19.036 129.283 18.928 129.535 18.928C129.907 18.928 130.051 19.168 130.123 19.36C130.315 19.744 130.255 20.044 130.147 20.512C129.979 21.22 129.787 21.94 129.583 22.648C129.415 23.224 129.295 23.8 129.103 24.364C128.959 24.808 128.683 25.792 128.611 26.188C128.491 27.004 128.131 28.552 127.123 28.552C126.007 28.552 126.439 27.544 126.607 26.8C127.027 25.048 127.531 23.224 128.107 21.472ZM133.96 26.536C134.488 26.536 135.016 26.476 135.592 26.344C136.432 26.14 137.644 25.084 137.848 24.436C137.944 24.148 138.004 23.452 137.932 22.804C137.908 22.444 137.8 21.664 137.38 21.604C136.924 21.544 136.408 21.496 136.096 21.22C136.06 21.244 136.024 21.256 135.964 21.292C135.628 21.4 135.304 21.604 134.968 21.76C133.852 22.288 132.568 23.488 132.208 24.616C132.028 25.168 131.932 25.672 132.316 25.984C132.592 26.248 133.432 26.452 133.96 26.536ZM134.008 28.576C132.196 28.576 129.976 27.304 130.168 25.36C130.228 25.084 130.276 24.808 130.372 24.52C130.972 22.684 133.324 19.276 136.648 19.276C138.892 19.276 139.504 21.016 139.744 22.264C139.9 23.008 139.888 23.74 139.624 24.58C139.528 24.868 139.384 25.18 139.252 25.48C138.268 27.424 135.88 28.576 134.008 28.576ZM141.673 28.66C141.241 28.66 140.977 28.396 140.869 28C140.605 27.136 141.001 24.976 141.301 23.848C141.505 23.152 141.637 22.456 141.781 21.76C141.877 21.316 141.961 20.824 142.117 20.368C142.237 19.984 142.585 19.36 143.053 19.24C143.149 19.228 143.257 19.204 143.341 19.204C144.121 19.204 144.169 20.008 144.337 20.56C144.433 20.872 144.565 21.556 144.745 21.796C145.153 22.456 145.633 23.116 146.101 23.764C146.341 24.16 146.629 24.52 146.941 24.868C147.085 24.988 147.217 25.084 147.397 25.12C147.745 24.052 148.105 22.984 148.453 21.904C148.585 21.484 148.981 20.392 149.269 19.984C149.545 19.588 150.049 19.192 150.553 19.192C150.901 19.192 150.961 19.432 150.985 19.708C150.865 20.788 149.749 23.728 149.293 24.856C149.269 24.928 149.245 25.012 149.221 25.084C148.957 25.9 148.801 26.728 148.549 27.532C148.357 28.132 147.937 28.336 147.517 28.336C147.145 28.336 146.761 28.18 146.509 28C145.873 27.424 145.357 26.752 144.841 26.068C144.565 25.756 144.277 25.36 144.037 24.964C143.749 24.496 143.509 23.992 143.209 23.536C143.101 24.052 143.029 24.556 142.969 25.06C142.909 25.792 142.837 26.5 142.693 27.232C142.597 27.844 142.453 28.66 141.673 28.66ZM158.543 24.208C159.143 24.124 159.935 24.088 160.487 24.088C160.439 23.38 160.271 22.408 160.175 21.724C159.695 22.336 158.915 23.584 158.543 24.208ZM156.299 27.892C156.083 28.348 155.675 28.504 155.279 28.504C154.739 28.504 154.643 28.12 154.631 27.856C154.631 27.028 155.219 26.068 155.639 25.408C155.999 24.868 156.395 24.328 156.707 23.848C156.947 23.512 157.163 23.188 157.355 22.852C157.775 22.132 158.219 21.472 158.735 20.776C159.011 20.392 159.287 19.984 159.575 19.624C159.827 19.312 160.055 18.916 160.499 18.916C160.679 18.916 160.823 18.976 160.955 19.072C161.363 19.228 161.771 19.744 161.795 20.152C161.843 20.368 161.891 20.596 161.951 20.824C162.263 22.324 162.227 23.86 162.395 25.372C162.479 26.056 162.503 26.872 162.263 27.58C162.119 28.036 161.807 28.576 161.255 28.576C160.487 28.576 160.679 27.856 160.643 27.412C160.595 26.836 160.643 26.404 160.523 25.876C160.091 25.972 157.391 26.176 157.391 26.176C157.079 26.824 156.647 27.256 156.299 27.892ZM164.888 28.66C164.456 28.66 164.192 28.396 164.084 28C163.82 27.136 164.216 24.976 164.516 23.848C164.72 23.152 164.852 22.456 164.996 21.76C165.092 21.316 165.176 20.824 165.332 20.368C165.452 19.984 165.8 19.36 166.268 19.24C166.364 19.228 166.472 19.204 166.556 19.204C167.336 19.204 167.384 20.008 167.552 20.56C167.648 20.872 167.78 21.556 167.96 21.796C168.368 22.456 168.848 23.116 169.316 23.764C169.556 24.16 169.844 24.52 170.156 24.868C170.3 24.988 170.432 25.084 170.612 25.12C170.96 24.052 171.32 22.984 171.668 21.904C171.8 21.484 172.196 20.392 172.484 19.984C172.76 19.588 173.264 19.192 173.768 19.192C174.116 19.192 174.176 19.432 174.2 19.708C174.08 20.788 172.964 23.728 172.508 24.856C172.484 24.928 172.46 25.012 172.436 25.084C172.172 25.9 172.016 26.728 171.764 27.532C171.572 28.132 171.152 28.336 170.732 28.336C170.36 28.336 169.976 28.18 169.724 28C169.088 27.424 168.572 26.752 168.056 26.068C167.78 25.756 167.492 25.36 167.252 24.964C166.964 24.496 166.724 23.992 166.424 23.536C166.316 24.052 166.244 24.556 166.184 25.06C166.124 25.792 166.052 26.5 165.908 27.232C165.812 27.844 165.668 28.66 164.888 28.66ZM175.792 26.668C177.052 26.38 178.696 25.48 179.524 24.712C180.016 24.268 180.976 22.996 180.628 22.48C179.956 21.472 178.804 20.872 177.388 20.716C177.028 21.412 176.86 22.888 176.596 23.704C176.368 24.4 176.2 25.096 176.032 25.792C175.948 26.092 175.876 26.38 175.792 26.668ZM175.732 28.552C175.444 28.648 174.916 28.78 174.688 28.78C174.112 28.78 173.548 28.072 173.74 27.484C173.896 26.992 173.944 26.536 174.088 26.068C174.544 24.664 174.904 23.236 175.276 21.844C175.36 21.52 175.468 21.22 175.564 20.896C175.72 20.44 175.624 20.02 175.768 19.576C176.02 18.808 176.632 18.688 177.268 18.688C177.772 18.688 178.192 18.808 178.576 18.916C180.46 19.42 183.268 20.512 182.404 23.152C182.26 23.62 181.348 25.012 180.376 25.948C178.612 27.616 177.136 28.12 175.732 28.552ZM40.028 43.616C39.956 43.856 39.512 44.504 38.852 44.504C38.504 44.504 38.396 44.264 38.336 44.072C38.288 43.844 38.276 43.544 38.312 43.256C38.42 42.14 38.828 40.832 39.2 39.704C39.38 39.14 39.512 38.564 39.596 38C39.632 37.796 39.776 37.256 39.824 37.052C39.212 37.052 38.66 37.088 38.024 37.244C37.82 37.292 37.568 37.34 37.364 37.34C36.884 37.34 36.668 37.148 36.584 36.908C36.488 36.62 36.548 36.272 36.752 35.924C37.088 35.276 38.912 35.144 39.464 35.144C40.964 35.144 42.98 35.168 44.3 35.576C44.732 35.696 44.888 36.284 44.732 36.776C44.66 36.992 44.396 37.1 44.228 37.136C44.024 37.172 43.748 37.184 43.448 37.184C42.872 37.184 42.2 37.136 41.828 37.124C41.528 37.784 41.12 38.984 40.856 39.776C40.616 40.52 40.34 41.624 40.16 42.368C40.052 42.8 40.172 43.184 40.028 43.616ZM47.1126 42.536C47.6406 42.536 48.1686 42.476 48.7446 42.344C49.5846 42.14 50.7966 41.084 51.0006 40.436C51.0966 40.148 51.1566 39.452 51.0846 38.804C51.0606 38.444 50.9526 37.664 50.5326 37.604C50.0766 37.544 49.5606 37.496 49.2486 37.22C49.2126 37.244 49.1766 37.256 49.1166 37.292C48.7806 37.4 48.4566 37.604 48.1206 37.76C47.0046 38.288 45.7206 39.488 45.3606 40.616C45.1806 41.168 45.0846 41.672 45.4686 41.984C45.7446 42.248 46.5846 42.452 47.1126 42.536ZM47.1606 44.576C45.3486 44.576 43.1286 43.304 43.3206 41.36C43.3806 41.084 43.4286 40.808 43.5246 40.52C44.1246 38.684 46.4766 35.276 49.8006 35.276C52.0446 35.276 52.6566 37.016 52.8966 38.264C53.0526 39.008 53.0406 39.74 52.7766 40.58C52.6806 40.868 52.5366 41.18 52.4046 41.48C51.4206 43.424 49.0326 44.576 47.1606 44.576ZM57.2376 42.536C57.7656 42.536 58.2936 42.476 58.8696 42.344C59.7096 42.14 60.9216 41.084 61.1256 40.436C61.2216 40.148 61.2816 39.452 61.2096 38.804C61.1856 38.444 61.0776 37.664 60.6576 37.604C60.2016 37.544 59.6856 37.496 59.3736 37.22C59.3376 37.244 59.3016 37.256 59.2416 37.292C58.9056 37.4 58.5816 37.604 58.2456 37.76C57.1296 38.288 55.8456 39.488 55.4856 40.616C55.3056 41.168 55.2096 41.672 55.5936 41.984C55.8696 42.248 56.7096 42.452 57.2376 42.536ZM57.2856 44.576C55.4736 44.576 53.2536 43.304 53.4456 41.36C53.5056 41.084 53.5536 40.808 53.6496 40.52C54.2496 38.684 56.6016 35.276 59.9256 35.276C62.1696 35.276 62.7816 37.016 63.0216 38.264C63.1776 39.008 63.1656 39.74 62.9016 40.58C62.8056 40.868 62.6616 41.18 62.5296 41.48C61.5456 43.424 59.1576 44.576 57.2856 44.576ZM63.5226 43.1C63.5586 42.836 63.6306 42.476 63.7266 42.128C64.3026 40.04 64.8786 37.952 65.5506 35.864C65.6946 35.42 66.0786 35.072 66.5586 35.072C66.6426 35.072 66.7386 35.084 66.7986 35.12C67.2426 35.348 67.3386 35.744 67.2786 36.128C67.2186 36.488 67.0506 36.896 66.9546 37.208C66.7026 37.988 66.3906 38.804 66.2466 39.584C66.1626 39.992 66.0426 40.388 65.9226 40.772C65.7546 41.36 65.5746 41.948 65.4066 42.536C65.4426 42.56 65.5146 42.56 65.5986 42.56C65.8146 42.56 66.0426 42.524 66.2826 42.476C67.0146 42.332 67.7106 42.212 68.4066 42.212C68.5386 42.212 68.7306 42.212 68.8626 42.248C69.3066 42.32 69.7506 42.68 70.0266 42.956C70.1826 43.1 70.1826 43.352 70.1226 43.532C70.0026 43.892 69.7626 44.036 69.4146 44.144C68.9346 44.204 68.4666 44.3 67.9986 44.348C67.2786 44.396 66.5226 44.456 66.2586 44.468C65.8266 44.552 65.2986 44.768 64.8666 44.768C64.0146 44.768 63.4986 43.856 63.5226 43.1ZM73.3223 37.472C73.4663 37.016 73.5263 36.548 73.6703 36.092C73.7783 35.78 73.8383 35.48 74.1143 35.204C74.3543 35.036 74.4983 34.928 74.7503 34.928C75.1223 34.928 75.2663 35.168 75.3383 35.36C75.5303 35.744 75.4703 36.044 75.3623 36.512C75.1943 37.22 75.0023 37.94 74.7983 38.648C74.6303 39.224 74.5103 39.8 74.3183 40.364C74.1743 40.808 73.8983 41.792 73.8263 42.188C73.7063 43.004 73.3463 44.552 72.3383 44.552C71.2223 44.552 71.6543 43.544 71.8223 42.8C72.2423 41.048 72.7463 39.224 73.3223 37.472ZM76.7631 44.66C76.3311 44.66 76.0671 44.396 75.9591 44C75.6951 43.136 76.0911 40.976 76.3911 39.848C76.5951 39.152 76.7271 38.456 76.8711 37.76C76.9671 37.316 77.0511 36.824 77.2071 36.368C77.3271 35.984 77.6751 35.36 78.1431 35.24C78.2391 35.228 78.3471 35.204 78.4311 35.204C79.2111 35.204 79.2591 36.008 79.4271 36.56C79.5231 36.872 79.6551 37.556 79.8351 37.796C80.2431 38.456 80.7231 39.116 81.1911 39.764C81.4311 40.16 81.7191 40.52 82.0311 40.868C82.1751 40.988 82.3071 41.084 82.4871 41.12C82.8351 40.052 83.1951 38.984 83.5431 37.904C83.6751 37.484 84.0711 36.392 84.3591 35.984C84.6351 35.588 85.1391 35.192 85.6431 35.192C85.9911 35.192 86.0511 35.432 86.0751 35.708C85.9551 36.788 84.8391 39.728 84.3831 40.856C84.3591 40.928 84.3351 41.012 84.3111 41.084C84.0471 41.9 83.8911 42.728 83.6391 43.532C83.4471 44.132 83.0271 44.336 82.6071 44.336C82.2351 44.336 81.8511 44.18 81.5991 44C80.9631 43.424 80.4471 42.752 79.9311 42.068C79.6551 41.756 79.3671 41.36 79.1271 40.964C78.8391 40.496 78.5991 39.992 78.2991 39.536C78.1911 40.052 78.1191 40.556 78.0591 41.06C77.9991 41.792 77.9271 42.5 77.7831 43.232C77.6871 43.844 77.5431 44.66 76.7631 44.66ZM91.6507 41.276C91.3627 41.312 90.9667 41.396 90.6307 41.396C90.4507 41.396 90.2827 41.372 90.1627 41.312C89.7547 41.156 89.5987 40.544 89.7067 40.196C89.7427 40.076 89.8507 39.884 90.1507 39.776C90.5107 39.644 90.8107 39.656 91.1467 39.572C91.7947 39.428 92.4307 39.344 93.0907 39.2C93.5707 39.08 93.7747 39.068 94.2667 39.068C94.8547 39.068 96.6067 39.14 96.3307 39.968C96.1387 40.58 95.5747 40.676 95.0827 40.736C94.9987 40.748 94.6747 40.784 94.6147 40.784C94.6627 41.24 94.6507 41.756 94.4947 42.224C94.3387 42.716 93.8107 43.268 93.3067 43.544C92.0947 44.396 90.4387 44.516 89.2387 44.516C87.7747 44.516 86.7667 43.532 86.1667 42.488C85.7467 41.744 85.6867 40.772 86.0107 39.776C86.4667 38.372 87.3667 37.496 88.5907 36.476C89.6227 35.612 90.9187 34.928 92.0947 34.928C92.8387 34.928 93.6427 35.384 94.1107 35.828C94.3387 36.116 94.5187 36.824 94.3987 37.22C94.3267 37.412 94.1347 37.82 93.6907 37.952C93.5347 38 93.2707 38.096 93.0667 38.096C92.7667 38.096 92.6227 37.94 92.5627 37.82C92.5027 37.676 92.4427 37.52 92.3827 37.34C92.2627 37.028 92.0947 36.788 91.6387 36.788C90.3427 36.788 88.1107 39.224 87.7747 40.244C87.6067 40.772 87.6907 41.252 87.8947 41.636C87.9907 41.78 88.1107 41.9 88.1947 42.032C88.4947 42.5 88.9387 42.596 89.5507 42.596C90.0907 42.596 91.4827 42.5 91.9147 42.332C92.2747 42.188 92.8507 41.492 92.9587 41.156C92.9827 41.084 92.9827 41.012 92.9707 40.94C92.7907 41.012 91.8307 41.24 91.6507 41.276ZM96.145 44.012C96.265 43.616 97.057 42.728 97.825 42.728C98.293 42.728 98.821 42.956 98.677 43.424C98.521 43.892 97.909 44.516 97.417 44.732C97.213 44.84 96.937 44.888 96.757 44.888C96.745 44.888 96.721 44.888 96.709 44.888C96.289 44.84 95.989 44.492 96.145 44.012ZM98.173 41.708C97.861 41.708 97.717 41.516 97.657 41.36C97.597 41.216 97.621 41.024 97.669 40.868C97.717 40.7 97.825 40.508 97.921 40.316C98.005 40.148 98.113 39.968 98.209 39.776C98.473 39.296 98.773 38.648 99.097 38C99.493 37.256 100.753 34.928 101.725 34.928C101.857 34.928 101.965 34.964 102.025 35C102.385 35.156 102.589 35.42 102.457 35.828C102.325 36.248 101.929 36.68 101.629 37.052C101.257 37.484 100.957 37.94 100.681 38.408C100.405 38.876 100.141 39.344 99.877 39.8C99.613 40.28 99.313 40.784 98.953 41.24C98.737 41.48 98.485 41.708 98.173 41.708ZM116.198 40.304C116.03 40.544 115.586 40.556 115.202 40.592C115.154 40.592 114.962 40.664 114.914 40.664C115.142 41.18 115.55 42.224 115.106 42.728C114.722 43.184 114.542 43.424 114.038 43.652C113.486 43.928 112.058 44.096 111.398 44.096C111.05 44.096 110.702 44.048 110.354 43.916C109.634 43.664 109.094 43.184 108.506 42.692C108.182 42.44 108.014 42.14 107.786 41.828C107.246 41.012 107.054 39.884 107.318 38.924C107.702 37.652 108.026 37.472 108.554 36.824C109.178 36.116 109.598 35.816 110.51 35.552C110.714 35.504 110.918 35.468 111.11 35.468C111.518 35.468 111.914 35.576 112.286 35.804C112.466 35.924 112.91 36.152 113.066 36.272C113.33 36.488 113.69 37.064 113.69 37.436C113.678 37.712 113.594 37.88 113.378 37.976C113.246 38.024 113.102 38.072 112.97 38.072C112.85 38.072 112.754 38.036 112.658 37.94C112.466 37.712 112.37 37.472 112.166 37.256C111.89 36.98 111.578 36.86 111.254 36.86C110.138 36.86 109.142 38.348 108.746 39.236C108.41 39.956 108.374 40.556 108.758 41.252C108.938 41.588 109.214 41.792 109.478 42.056C109.79 42.38 110.114 42.536 110.546 42.608C110.726 42.632 110.894 42.644 111.074 42.668C111.302 42.668 111.506 42.644 111.71 42.644C112.082 42.608 112.946 42.476 113.282 42.368C113.51 42.248 113.69 42.056 113.834 41.756C113.942 41.48 114.074 41.18 113.978 40.892C113.954 40.832 113.918 40.784 113.882 40.712C113.786 40.736 113.69 40.748 113.594 40.772C113.174 40.856 112.91 40.952 112.55 41.048C112.334 41.084 111.962 41.168 111.662 41.168C111.542 41.168 111.434 41.156 111.35 41.12C110.93 40.94 110.498 40.124 110.894 39.992C111.146 39.896 111.458 39.884 111.71 39.812C112.046 39.728 112.37 39.644 112.718 39.608C113.354 39.536 113.414 39.392 114.038 39.356C114.35 39.344 116.822 39.272 116.198 40.304ZM117.758 42.644C117.746 42.44 117.71 42.248 117.686 42.032C117.686 41.564 117.65 41.12 117.638 40.652C117.614 39.668 117.518 38.72 117.53 37.76C117.554 37.292 117.446 36.836 117.446 36.368C117.458 36.092 117.398 35.888 117.566 35.648C117.662 35.516 117.758 35.468 117.854 35.468C118.226 35.468 118.49 35.972 118.574 36.272C118.682 36.596 118.646 36.968 118.694 37.316C118.718 37.4 118.85 40.304 118.85 40.388C118.85 40.664 118.91 40.94 118.91 41.24C118.922 41.528 118.91 41.828 118.934 42.104C119.03 42.716 119.126 43.448 118.814 43.988C118.766 44.084 118.646 44.12 118.526 44.12C118.418 44.12 118.31 44.096 118.214 44.048C117.686 43.832 117.794 43.04 117.758 42.644ZM127.299 37.064C127.203 37.124 127.059 37.136 126.915 37.136C126.195 37.136 125.475 37.124 124.755 37.076C124.899 38.096 124.551 39.284 124.647 40.268C124.707 40.904 124.695 41.564 124.755 42.212C124.779 42.476 124.839 42.716 124.911 42.944C124.983 43.184 125.079 43.316 124.983 43.58C124.899 43.808 124.707 44.024 124.443 44.024C124.215 44.024 124.083 43.82 123.987 43.604C123.735 42.992 123.675 42.332 123.603 41.684C123.507 40.928 123.579 39.992 123.543 39.224C123.519 38.876 123.519 38.096 123.459 37.772C123.411 37.544 123.363 37.28 123.339 37.04C122.631 37.028 122.115 37.04 121.455 37.22C121.311 37.268 121.131 37.292 120.963 37.292C120.759 37.292 120.567 37.244 120.423 37.112C120.123 36.824 120.075 36.14 120.303 35.996C120.471 35.888 120.603 35.852 120.783 35.828C121.071 35.804 121.311 35.636 121.587 35.612C121.959 35.576 122.331 35.576 122.703 35.6C123.567 35.636 124.419 35.696 125.271 35.756C125.619 35.78 126.807 35.876 127.023 36.176C127.131 36.332 127.467 36.968 127.299 37.064ZM128.882 41.9C128.906 41.888 128.93 41.888 128.954 41.888C129.362 41.888 129.458 42.716 129.458 43.076C129.458 43.46 129.11 44.456 128.618 45.2C128.414 45.524 127.778 46.244 127.346 46.244C127.07 46.244 126.866 45.692 126.974 45.368C127.094 45.02 127.37 44.576 127.754 44.096C128.126 43.628 127.994 42.872 128.018 42.644C128.078 42.128 128.498 41.972 128.882 41.9ZM135.319 36.74C135.091 35.732 135.475 35.732 135.703 35.648C135.943 35.576 136.207 35.78 136.459 36.008C136.711 36.236 136.879 37.94 137.143 38.756C137.419 39.572 138.307 41.66 138.307 41.66C138.535 41.324 139.123 39.572 139.315 38.876C139.483 38.192 139.747 36.476 139.795 36.272C139.855 35.912 139.963 35.42 140.419 35.42C140.683 35.42 140.983 35.6 141.151 35.936C141.367 36.356 141.103 37.82 140.983 38.384C140.875 38.96 139.951 41.516 139.675 42.212C139.411 42.92 138.979 44.012 138.535 44C138.055 43.988 137.851 43.532 137.587 43.268C137.371 43.004 136.891 41.372 136.723 40.928C136.567 40.46 135.835 38.384 135.667 37.94C135.487 37.484 135.403 37.172 135.319 36.74ZM146.176 42.848C146.344 42.86 146.5 42.872 146.656 42.872C148.384 42.872 148.612 41.972 148.612 41.972C148.216 41.708 146.044 40.868 145.588 40.712C144.496 40.328 143.14 39.92 142.588 38.876C142.336 38.408 142.312 38.036 142.432 37.556C142.48 37.328 142.564 37.124 142.684 36.944C142.84 36.716 143.104 36.596 143.296 36.428C143.884 35.9 144.712 35.636 145.516 35.636C146.296 35.636 147.004 35.864 147.628 36.332C148.132 36.716 149.104 37.556 148.924 38.06C148.864 38.24 148.54 38.384 148.276 38.384C147.916 38.384 147.436 37.808 147.292 37.532C147.16 37.292 146.704 36.932 146.428 36.932C146.044 36.896 145.192 37.088 144.844 37.244C144.616 37.34 144.424 37.496 144.232 37.676C144.136 37.796 144.028 37.916 143.908 38.024C143.848 38.072 143.692 38.228 143.68 38.3C143.668 38.408 145.12 39.344 145.276 39.392C145.708 39.536 146.056 39.704 146.5 39.824C147.34 40.124 148.252 40.496 149.032 40.928C149.68 41.288 150.148 42.056 149.836 42.8C149.68 43.22 149.512 43.616 149.104 43.844C148.612 44.084 148.132 44.108 147.604 44.168C147.364 44.216 147.124 44.228 146.896 44.228C146.536 44.228 146.188 44.18 145.816 44.036C145.06 43.784 143.848 43.376 143.248 42.836C143.032 42.668 142.864 42.452 142.684 42.224C142.48 41.948 142.324 41.48 142.504 41.168C142.576 41.036 142.708 40.988 142.84 40.988C143.032 40.988 143.236 41.072 143.38 41.156C143.824 41.36 143.752 41.864 144.136 42.128C144.532 42.404 145.708 42.812 146.176 42.848ZM157.235 36.644C157.487 36.872 157.871 37.592 157.859 37.952C157.835 38.216 157.871 38.504 157.619 38.648C157.547 38.684 157.475 38.708 157.427 38.708C157.271 38.708 157.151 38.588 156.959 38.456C156.731 38.3 156.635 38.132 156.551 37.904C156.431 37.652 156.275 37.532 156.047 37.34C155.795 37.16 155.543 36.968 155.219 36.968C155.159 36.968 155.099 36.968 155.039 36.98C153.935 37.208 153.467 37.7 152.891 38.648C152.591 39.116 152.327 39.644 152.363 40.196C152.363 40.58 152.471 41.012 152.699 41.336C152.939 41.684 153.143 41.78 153.479 42.068C153.935 42.488 154.583 42.584 155.231 42.584C156.215 42.584 157.235 42.476 158.171 42.164C158.435 42.068 158.903 42.284 158.915 42.572C158.939 42.788 158.639 43.112 158.483 43.268C158.111 43.628 156.287 44.072 155.723 44.072C153.839 44.072 152.387 43.184 151.355 41.636C151.007 41.132 150.779 40.232 150.815 39.644C150.851 38.996 151.223 38.384 151.547 37.832C151.859 37.316 152.087 36.752 152.555 36.32C153.011 35.924 153.743 35.516 154.403 35.504C154.919 35.504 155.495 35.648 155.975 35.816C156.455 35.984 156.863 36.32 157.235 36.644ZM166.151 41.6C166.451 41.312 166.667 40.868 166.667 40.46C166.667 39.992 166.115 37.724 165.227 37.64C164.963 37.604 164.363 37.532 164.135 37.4C163.991 37.316 163.955 37.244 163.835 37.28C163.679 37.292 163.487 37.448 163.355 37.52C163.175 37.604 163.019 37.712 162.851 37.82C162.227 38.156 161.891 38.6 161.435 39.224C161.255 39.488 161.039 40.316 161.063 40.652C161.075 41.216 161.123 41.708 161.651 42.056C162.047 42.32 163.151 42.62 163.667 42.62C164.099 42.62 164.687 42.512 165.023 42.416C165.539 42.284 165.815 41.948 166.151 41.6ZM167.327 38.492C167.831 39.464 168.011 40.316 167.819 41.408C167.507 43.1 165.791 44.156 164.147 44.156C162.539 44.156 160.235 42.992 159.875 41.312C159.587 40.016 160.139 38.336 160.907 37.292C161.555 36.392 162.659 35.816 163.763 35.816C164.951 35.816 165.875 36.416 166.607 37.316C166.883 37.676 167.123 38.096 167.327 38.492ZM174 40.808C174.276 40.424 174.648 39.536 174.612 39.068C174.588 38.6 174.204 38.372 173.772 38.096C173.352 37.82 172.956 37.496 172.476 37.316C172.14 37.172 171.78 37.064 171.432 36.968C171.12 36.86 170.748 36.74 170.4 36.752C170.4 36.932 170.388 37.088 170.388 37.256C170.388 38.096 170.556 38.924 170.556 39.764C170.556 40.424 170.628 41.06 170.664 41.72C170.676 42.068 170.676 42.416 170.712 42.764C171.84 42.572 173.304 41.708 174 40.808ZM175.284 37.868C175.548 38.372 175.848 38.96 175.716 39.488C175.656 39.896 174.984 41.456 174.744 41.78C173.76 43.064 173.292 43.484 171.744 44.012C171.528 44.084 170.772 44.336 170.568 44.336C170.388 44.336 170.22 44.252 170.076 44.12C169.704 43.808 169.512 43.568 169.536 43.376C169.548 42.98 169.452 42.38 169.452 41.984C169.452 40.664 169.356 39.32 169.272 38C169.26 37.712 169.26 37.412 169.26 37.136C169.26 36.908 169.188 36.776 169.116 36.428C169.08 36.2 168.984 35.924 169.068 35.672C169.14 35.432 169.236 35.312 169.488 35.276C169.632 35.252 169.788 35.252 169.92 35.252C170.328 35.252 170.7 35.312 171.12 35.432C171.66 35.576 172.212 35.732 172.728 35.9C173.784 36.32 174.792 36.776 175.284 37.868ZM178.168 37.952C178.096 38.456 178.12 38.852 178.12 39.356C178.12 39.392 178.12 39.416 178.12 39.452C178.396 39.416 178.6 39.356 178.876 39.344C179.416 39.308 179.944 39.344 180.46 39.38C181.108 39.416 181.9 39.38 182.5 39.608C182.668 39.668 182.776 39.86 182.812 40.052C182.848 40.244 182.872 40.388 182.74 40.508C182.464 40.736 182.188 40.712 181.84 40.736C181.024 40.772 180.172 40.7 179.32 40.736C178.984 40.736 178.792 40.808 178.468 40.856C178.408 40.856 178.348 40.868 178.276 40.892C178.204 41.216 178.06 42.26 178.252 42.572C178.396 42.608 178.528 42.596 178.672 42.596C178.9 42.596 178.984 42.536 179.212 42.5C179.68 42.416 180.112 42.44 180.58 42.344C180.964 42.284 181.312 42.248 181.696 42.224C182.008 42.212 182.272 42.224 182.584 42.212C182.86 42.176 183.364 42.176 183.436 42.44C183.508 42.752 183.436 43.112 183.256 43.196C182.967 43.376 181.816 43.544 181.456 43.616C181 43.724 180.58 43.844 180.136 43.844C179.644 43.844 179.152 44.048 178.672 44.048C178.228 44.048 177.712 43.76 177.46 43.388C177.268 43.148 177.052 42.608 177.028 42.32C176.968 41.744 177.028 41.168 176.992 40.592C176.956 40.16 176.92 39.728 176.92 39.296C176.92 38.648 176.836 37.976 176.932 37.34C177.004 36.932 176.8 36.08 177.124 35.828C177.46 35.588 177.748 35.504 178.156 35.552C178.624 35.612 179.944 35.696 180.916 35.708C181.24 35.708 183.724 36.008 183.256 36.812C183.088 37.1 182.596 37.088 182.344 37.1C181.972 37.124 181.576 37.136 181.204 37.148C180.58 37.184 180.1 37.244 179.476 37.22C179.188 37.22 178.924 37.136 178.648 37.136C178.372 37.136 178.3 37.148 178.252 37.448C178.216 37.604 178.192 37.784 178.168 37.952ZM186.808 41.9C186.832 41.888 186.856 41.888 186.88 41.888C187.288 41.888 187.384 42.716 187.384 43.076C187.384 43.46 187.036 44.456 186.544 45.2C186.34 45.524 185.704 46.244 185.272 46.244C184.996 46.244 184.792 45.692 184.9 45.368C185.02 45.02 185.296 44.576 185.68 44.096C186.052 43.628 185.92 42.872 185.944 42.644C186.004 42.128 186.424 41.972 186.808 41.9ZM197.901 39.14C198.213 38.984 199.041 38 199.041 38C199.041 38 198.873 37.712 198.645 37.592C198.285 37.376 197.013 37.124 196.521 37.124C195.621 37.124 194.505 37.448 194.505 37.448C194.649 38.096 194.481 39.8 194.481 39.8C194.613 39.824 194.745 39.836 194.901 39.836C195.993 39.836 197.625 39.272 197.901 39.14ZM200.169 37.82C200.349 39.08 198.345 40.58 197.469 40.856C196.773 41.072 195.849 41.276 195.153 41.276C194.949 41.276 194.757 41.264 194.601 41.216C194.601 41.216 194.493 42.212 194.577 42.416C194.721 42.8 194.793 43.508 194.697 43.796C194.649 43.952 194.577 44.288 194.265 44.288C193.689 44.288 193.581 43.676 193.521 43.232C193.485 42.992 193.341 41.672 193.341 41.024C193.365 40.388 193.341 38.66 193.329 38.264C193.293 37.868 193.089 36.908 193.221 36.464C193.341 36.008 194.001 35.888 194.373 35.852C194.613 35.816 195.453 35.66 196.293 35.66C196.725 35.66 197.145 35.708 197.493 35.828C198.501 36.2 200.013 36.548 200.169 37.82ZM202.747 40.16C203.407 40.04 204.139 40.004 204.811 40.004H204.931C204.775 39.572 204.607 39.152 204.391 38.732C204.187 38.336 203.971 37.916 203.803 37.52C203.779 37.472 203.767 37.436 203.755 37.376C203.455 37.784 203.215 38.636 203.059 39.104C202.951 39.452 202.855 39.8 202.747 40.16ZM207.163 43.148C207.175 43.424 207.235 44.228 206.707 44.12C206.203 44 206.239 43.544 206.083 43.184C205.903 42.752 205.759 42.296 205.615 41.84C205.567 41.672 205.435 41.516 205.387 41.36C205.315 41.36 205.027 41.396 204.967 41.396C204.583 41.396 204.427 41.42 204.067 41.48C203.683 41.54 203.299 41.54 202.915 41.588C202.723 41.612 202.519 41.72 202.315 41.756C202.243 42.188 202.051 42.572 201.943 42.992C201.883 43.196 201.799 43.412 201.751 43.652C201.703 43.844 201.631 44.048 201.379 44.072C201.151 44.072 200.647 44.156 200.515 43.256C200.335 42.176 201.019 40.976 201.295 39.932C201.559 39.272 201.715 38.504 201.943 37.832C202.039 37.568 202.123 37.328 202.231 37.064C202.447 36.596 202.663 35.744 203.095 35.468C203.251 35.384 203.683 35.648 203.863 35.744C204.031 35.816 204.463 36.284 204.535 36.476C204.619 36.704 204.751 36.908 204.871 37.136C205.855 38.96 206.047 39.992 206.659 41.396C206.899 41.936 207.091 42.56 207.163 43.148ZM214.469 36.644C214.721 36.872 215.105 37.592 215.093 37.952C215.069 38.216 215.105 38.504 214.853 38.648C214.781 38.684 214.709 38.708 214.661 38.708C214.505 38.708 214.385 38.588 214.193 38.456C213.965 38.3 213.869 38.132 213.785 37.904C213.665 37.652 213.509 37.532 213.281 37.34C213.029 37.16 212.777 36.968 212.453 36.968C212.393 36.968 212.333 36.968 212.273 36.98C211.169 37.208 210.701 37.7 210.125 38.648C209.825 39.116 209.561 39.644 209.597 40.196C209.597 40.58 209.705 41.012 209.933 41.336C210.173 41.684 210.377 41.78 210.713 42.068C211.169 42.488 211.817 42.584 212.465 42.584C213.449 42.584 214.469 42.476 215.405 42.164C215.669 42.068 216.137 42.284 216.149 42.572C216.173 42.788 215.873 43.112 215.717 43.268C215.345 43.628 213.521 44.072 212.957 44.072C211.073 44.072 209.621 43.184 208.589 41.636C208.241 41.132 208.013 40.232 208.049 39.644C208.085 38.996 208.457 38.384 208.781 37.832C209.093 37.316 209.321 36.752 209.789 36.32C210.245 35.924 210.977 35.516 211.637 35.504C212.153 35.504 212.729 35.648 213.209 35.816C213.689 35.984 214.097 36.32 214.469 36.644ZM224.418 43.412C224.226 43.52 223.962 43.556 223.71 43.556C223.434 43.556 223.158 43.52 222.966 43.496C222.606 43.46 221.79 43.028 220.866 42.692C220.314 42.5 219.534 41.912 218.958 41.468C218.886 41.528 218.814 41.588 218.754 41.636C218.766 42.416 218.802 43.46 218.766 43.76C218.694 44.096 218.61 44.432 218.406 44.432C218.178 44.432 217.638 44.156 217.566 43.604C217.518 43.064 217.614 41.528 217.59 41.012C217.566 40.496 217.338 38.804 217.302 38.444C217.29 38.072 217.302 36.716 217.362 36.332C217.41 35.972 217.494 35.744 217.71 35.708C217.902 35.66 218.298 36.044 218.37 36.308C218.418 36.56 218.502 37.832 218.454 38.288C218.43 38.528 218.502 39.068 218.574 39.656C219.102 39.152 219.894 38.336 220.098 38.024C220.422 37.556 221.286 36.596 221.598 36.356C221.91 36.128 222.522 35.588 222.522 35.588C222.606 35.54 222.678 35.516 222.75 35.516C223.17 35.516 223.422 36.308 223.422 36.62C223.422 36.992 223.038 37.34 222.762 37.604C222.606 37.784 222.174 38.132 221.91 38.372C221.646 38.612 220.206 40.268 219.978 40.52C219.942 40.58 219.858 40.664 219.762 40.772C220.038 40.928 220.29 41.096 220.422 41.156C220.734 41.312 223.002 42.128 223.302 42.164C223.602 42.188 223.854 42.32 224.046 42.32C224.226 42.32 224.634 42.476 224.67 42.68C224.706 42.908 224.778 43.196 224.418 43.412ZM227.837 40.16C228.497 40.04 229.229 40.004 229.901 40.004H230.021C229.865 39.572 229.697 39.152 229.481 38.732C229.277 38.336 229.061 37.916 228.893 37.52C228.869 37.472 228.857 37.436 228.845 37.376C228.545 37.784 228.305 38.636 228.149 39.104C228.041 39.452 227.945 39.8 227.837 40.16ZM232.253 43.148C232.265 43.424 232.325 44.228 231.797 44.12C231.293 44 231.329 43.544 231.173 43.184C230.993 42.752 230.849 42.296 230.705 41.84C230.657 41.672 230.525 41.516 230.477 41.36C230.405 41.36 230.117 41.396 230.057 41.396C229.673 41.396 229.517 41.42 229.157 41.48C228.773 41.54 228.389 41.54 228.005 41.588C227.813 41.612 227.609 41.72 227.405 41.756C227.333 42.188 227.141 42.572 227.033 42.992C226.973 43.196 226.889 43.412 226.841 43.652C226.793 43.844 226.721 44.048 226.469 44.072C226.241 44.072 225.737 44.156 225.605 43.256C225.425 42.176 226.109 40.976 226.385 39.932C226.649 39.272 226.805 38.504 227.033 37.832C227.129 37.568 227.213 37.328 227.321 37.064C227.537 36.596 227.753 35.744 228.185 35.468C228.341 35.384 228.773 35.648 228.953 35.744C229.121 35.816 229.553 36.284 229.625 36.476C229.709 36.704 229.841 36.908 229.961 37.136C230.945 38.96 231.137 39.992 231.749 41.396C231.989 41.936 232.181 42.56 232.253 43.148ZM242.127 40.304C241.959 40.544 241.515 40.556 241.131 40.592C241.083 40.592 240.891 40.664 240.843 40.664C241.071 41.18 241.479 42.224 241.035 42.728C240.651 43.184 240.471 43.424 239.967 43.652C239.415 43.928 237.987 44.096 237.327 44.096C236.979 44.096 236.631 44.048 236.283 43.916C235.563 43.664 235.023 43.184 234.435 42.692C234.111 42.44 233.943 42.14 233.715 41.828C233.175 41.012 232.983 39.884 233.247 38.924C233.631 37.652 233.955 37.472 234.483 36.824C235.107 36.116 235.527 35.816 236.439 35.552C236.643 35.504 236.847 35.468 237.039 35.468C237.447 35.468 237.843 35.576 238.215 35.804C238.395 35.924 238.839 36.152 238.995 36.272C239.259 36.488 239.619 37.064 239.619 37.436C239.607 37.712 239.523 37.88 239.307 37.976C239.175 38.024 239.031 38.072 238.899 38.072C238.779 38.072 238.683 38.036 238.587 37.94C238.395 37.712 238.299 37.472 238.095 37.256C237.819 36.98 237.507 36.86 237.183 36.86C236.067 36.86 235.071 38.348 234.675 39.236C234.339 39.956 234.303 40.556 234.687 41.252C234.867 41.588 235.143 41.792 235.407 42.056C235.719 42.38 236.043 42.536 236.475 42.608C236.655 42.632 236.823 42.644 237.003 42.668C237.231 42.668 237.435 42.644 237.639 42.644C238.011 42.608 238.875 42.476 239.211 42.368C239.439 42.248 239.619 42.056 239.763 41.756C239.871 41.48 240.003 41.18 239.907 40.892C239.883 40.832 239.847 40.784 239.811 40.712C239.715 40.736 239.619 40.748 239.523 40.772C239.103 40.856 238.839 40.952 238.479 41.048C238.263 41.084 237.891 41.168 237.591 41.168C237.471 41.168 237.363 41.156 237.279 41.12C236.859 40.94 236.427 40.124 236.823 39.992C237.075 39.896 237.387 39.884 237.639 39.812C237.975 39.728 238.299 39.644 238.647 39.608C239.283 39.536 239.343 39.392 239.967 39.356C240.279 39.344 242.751 39.272 242.127 40.304ZM244.648 37.952C244.576 38.456 244.6 38.852 244.6 39.356C244.6 39.392 244.6 39.416 244.6 39.452C244.876 39.416 245.08 39.356 245.356 39.344C245.896 39.308 246.424 39.344 246.94 39.38C247.588 39.416 248.38 39.38 248.98 39.608C249.148 39.668 249.256 39.86 249.292 40.052C249.328 40.244 249.352 40.388 249.22 40.508C248.944 40.736 248.668 40.712 248.32 40.736C247.504 40.772 246.652 40.7 245.8 40.736C245.464 40.736 245.272 40.808 244.948 40.856C244.888 40.856 244.828 40.868 244.756 40.892C244.684 41.216 244.54 42.26 244.732 42.572C244.876 42.608 245.008 42.596 245.152 42.596C245.38 42.596 245.464 42.536 245.692 42.5C246.16 42.416 246.592 42.44 247.06 42.344C247.444 42.284 247.792 42.248 248.176 42.224C248.488 42.212 248.752 42.224 249.064 42.212C249.34 42.176 249.844 42.176 249.916 42.44C249.988 42.752 249.916 43.112 249.736 43.196C249.448 43.376 248.296 43.544 247.936 43.616C247.48 43.724 247.06 43.844 246.616 43.844C246.124 43.844 245.632 44.048 245.152 44.048C244.708 44.048 244.192 43.76 243.94 43.388C243.748 43.148 243.532 42.608 243.508 42.32C243.448 41.744 243.508 41.168 243.472 40.592C243.436 40.16 243.4 39.728 243.4 39.296C243.4 38.648 243.316 37.976 243.412 37.34C243.484 36.932 243.28 36.08 243.604 35.828C243.94 35.588 244.228 35.504 244.636 35.552C245.104 35.612 246.424 35.696 247.396 35.708C247.72 35.708 250.204 36.008 249.736 36.812C249.568 37.1 249.076 37.088 248.824 37.1C248.452 37.124 248.056 37.136 247.684 37.148C247.06 37.184 246.58 37.244 245.956 37.22C245.668 37.22 245.404 37.136 245.128 37.136C244.852 37.136 244.78 37.148 244.732 37.448C244.696 37.604 244.672 37.784 244.648 37.952ZM35.936 56.04C35.888 55.428 35.804 54.816 35.768 54.192C35.744 53.772 35.696 53.364 35.696 52.956C35.696 52.644 35.792 51.408 36.224 51.408C36.476 51.408 36.896 51.876 37.028 52.068C37.136 52.224 37.208 52.404 37.316 52.548C37.448 52.716 37.58 52.848 37.688 52.992C38.276 53.832 39.044 54.696 39.8 55.356C40.04 54.576 40.508 53.844 40.892 53.112C41.12 52.668 41.684 51.864 42.008 51.516C42.056 51.468 42.128 51.444 42.212 51.444C42.452 51.444 42.776 51.636 42.956 51.768C43.736 52.32 43.496 54.468 43.484 54.996C43.46 55.992 43.604 56.988 43.52 57.984C43.496 58.368 43.496 58.764 43.448 59.136C43.412 59.436 43.412 59.832 43.136 60.024C43.076 60.072 43.028 60.084 42.98 60.084C42.824 60.084 42.716 59.892 42.608 59.724C42.44 59.46 42.488 59.016 42.452 58.716C42.368 58.02 42.368 57.288 42.404 56.58C42.404 56.208 42.368 55.836 42.356 55.464C42.32 55.14 42.404 54.372 42.32 53.964C42.092 54.156 41.516 55.284 41.396 55.56C41.24 55.884 41.204 56.064 41.048 56.376C40.868 56.736 40.748 57.024 40.556 57.276C40.472 57.384 40.376 57.432 40.28 57.432C40.148 57.432 40.004 57.336 39.86 57.18C39.428 56.724 38.888 56.352 38.48 55.848C38.252 55.584 37.988 55.332 37.76 55.068C37.604 54.876 37.28 54.432 37.064 54.252C37.136 55.356 37.172 56.472 37.34 57.576C37.4 58.02 37.436 58.584 37.508 59.016C37.556 59.292 37.664 59.7 37.508 59.976C37.376 60.204 37.268 60.3 37.16 60.3C37.064 60.3 36.968 60.24 36.86 60.12C36.404 59.64 36.332 58.92 36.2 58.32C36.044 57.576 35.972 56.808 35.936 56.04ZM46.9578 56.16C47.6178 56.04 48.3498 56.004 49.0218 56.004H49.1418C48.9858 55.572 48.8178 55.152 48.6018 54.732C48.3978 54.336 48.1818 53.916 48.0138 53.52C47.9898 53.472 47.9778 53.436 47.9658 53.376C47.6658 53.784 47.4258 54.636 47.2698 55.104C47.1618 55.452 47.0658 55.8 46.9578 56.16ZM51.3738 59.148C51.3858 59.424 51.4458 60.228 50.9178 60.12C50.4138 60 50.4498 59.544 50.2938 59.184C50.1138 58.752 49.9698 58.296 49.8258 57.84C49.7778 57.672 49.6458 57.516 49.5978 57.36C49.5258 57.36 49.2378 57.396 49.1778 57.396C48.7938 57.396 48.6378 57.42 48.2778 57.48C47.8938 57.54 47.5098 57.54 47.1258 57.588C46.9338 57.612 46.7298 57.72 46.5258 57.756C46.4538 58.188 46.2618 58.572 46.1538 58.992C46.0938 59.196 46.0098 59.412 45.9618 59.652C45.9138 59.844 45.8418 60.048 45.5898 60.072C45.3618 60.072 44.8578 60.156 44.7258 59.256C44.5458 58.176 45.2298 56.976 45.5058 55.932C45.7698 55.272 45.9258 54.504 46.1538 53.832C46.2498 53.568 46.3338 53.328 46.4418 53.064C46.6578 52.596 46.8738 51.744 47.3058 51.468C47.4618 51.384 47.8938 51.648 48.0738 51.744C48.2418 51.816 48.6738 52.284 48.7458 52.476C48.8298 52.704 48.9618 52.908 49.0818 53.136C50.0658 54.96 50.2578 55.992 50.8698 57.396C51.1098 57.936 51.3018 58.56 51.3738 59.148ZM54.1065 60.228C54.1065 60.228 53.9745 60.324 53.7945 60.324C53.6625 60.324 53.4945 60.264 53.3265 60.084C53.1465 59.892 52.4505 57.252 52.4025 55.92C52.3545 54.576 51.9825 52.752 52.1265 52.392C52.2465 52.008 52.2945 51.804 52.4745 51.768C52.6665 51.732 52.8225 51.744 53.0745 51.9C53.3385 52.056 54.1185 53.676 54.5265 54.096C54.8985 54.504 56.9505 56.556 57.5145 56.988C57.8985 57.3 58.3425 57.312 58.3905 57.312C58.4025 57.312 58.4145 54.456 58.4145 54.096C58.4145 53.724 58.4505 52.716 58.5825 52.332C58.7265 51.96 59.0745 51.66 59.4105 51.744C59.5665 51.804 59.6625 52.176 59.6505 52.644C59.6505 53.124 59.6505 56.268 59.5905 56.832C59.5425 57.432 59.7465 59.304 59.6865 59.568C59.5665 60.036 59.2185 59.928 59.0025 59.928C58.3425 59.916 56.8665 58.368 56.2545 57.864C55.6545 57.36 53.7105 55.224 53.4945 54.852C53.4945 54.852 53.6745 56.46 53.8305 57.084C53.9865 57.72 54.1785 58.644 54.2265 59.1C54.2745 59.532 54.3705 60.072 54.1065 60.228ZM63.0945 56.16C63.7545 56.04 64.4865 56.004 65.1585 56.004H65.2785C65.1225 55.572 64.9545 55.152 64.7385 54.732C64.5345 54.336 64.3185 53.916 64.1505 53.52C64.1265 53.472 64.1145 53.436 64.1025 53.376C63.8025 53.784 63.5625 54.636 63.4065 55.104C63.2985 55.452 63.2025 55.8 63.0945 56.16ZM67.5105 59.148C67.5225 59.424 67.5825 60.228 67.0545 60.12C66.5505 60 66.5865 59.544 66.4305 59.184C66.2505 58.752 66.1065 58.296 65.9625 57.84C65.9145 57.672 65.7825 57.516 65.7345 57.36C65.6625 57.36 65.3745 57.396 65.3145 57.396C64.9305 57.396 64.7745 57.42 64.4145 57.48C64.0305 57.54 63.6465 57.54 63.2625 57.588C63.0705 57.612 62.8665 57.72 62.6625 57.756C62.5905 58.188 62.3985 58.572 62.2905 58.992C62.2305 59.196 62.1465 59.412 62.0985 59.652C62.0505 59.844 61.9785 60.048 61.7265 60.072C61.4985 60.072 60.9945 60.156 60.8625 59.256C60.6825 58.176 61.3665 56.976 61.6425 55.932C61.9065 55.272 62.0625 54.504 62.2905 53.832C62.3865 53.568 62.4705 53.328 62.5785 53.064C62.7945 52.596 63.0105 51.744 63.4425 51.468C63.5985 51.384 64.0305 51.648 64.2105 51.744C64.3785 51.816 64.8105 52.284 64.8825 52.476C64.9665 52.704 65.0985 52.908 65.2185 53.136C66.2025 54.96 66.3945 55.992 67.0065 57.396C67.2465 57.936 67.4385 58.56 67.5105 59.148ZM77.3851 56.304C77.2171 56.544 76.7731 56.556 76.3891 56.592C76.3411 56.592 76.1491 56.664 76.1011 56.664C76.3291 57.18 76.7371 58.224 76.2931 58.728C75.9091 59.184 75.7291 59.424 75.2251 59.652C74.6731 59.928 73.2451 60.096 72.5851 60.096C72.2371 60.096 71.8891 60.048 71.5411 59.916C70.8211 59.664 70.2811 59.184 69.6931 58.692C69.3691 58.44 69.2011 58.14 68.9731 57.828C68.4331 57.012 68.2411 55.884 68.5051 54.924C68.8891 53.652 69.2131 53.472 69.7411 52.824C70.3651 52.116 70.7851 51.816 71.6971 51.552C71.9011 51.504 72.1051 51.468 72.2971 51.468C72.7051 51.468 73.1011 51.576 73.4731 51.804C73.6531 51.924 74.0971 52.152 74.2531 52.272C74.5171 52.488 74.8771 53.064 74.8771 53.436C74.8651 53.712 74.7811 53.88 74.5651 53.976C74.4331 54.024 74.2891 54.072 74.1571 54.072C74.0371 54.072 73.9411 54.036 73.8451 53.94C73.6531 53.712 73.5571 53.472 73.3531 53.256C73.0771 52.98 72.7651 52.86 72.4411 52.86C71.3251 52.86 70.3291 54.348 69.9331 55.236C69.5971 55.956 69.5611 56.556 69.9451 57.252C70.1251 57.588 70.4011 57.792 70.6651 58.056C70.9771 58.38 71.3011 58.536 71.7331 58.608C71.9131 58.632 72.0811 58.644 72.2611 58.668C72.4891 58.668 72.6931 58.644 72.8971 58.644C73.2691 58.608 74.1331 58.476 74.4691 58.368C74.6971 58.248 74.8771 58.056 75.0211 57.756C75.1291 57.48 75.2611 57.18 75.1651 56.892C75.1411 56.832 75.1051 56.784 75.0691 56.712C74.9731 56.736 74.8771 56.748 74.7811 56.772C74.3611 56.856 74.0971 56.952 73.7371 57.048C73.5211 57.084 73.1491 57.168 72.8491 57.168C72.7291 57.168 72.6211 57.156 72.5371 57.12C72.1171 56.94 71.6851 56.124 72.0811 55.992C72.3331 55.896 72.6451 55.884 72.8971 55.812C73.2331 55.728 73.5571 55.644 73.9051 55.608C74.5411 55.536 74.6011 55.392 75.2251 55.356C75.5371 55.344 78.0091 55.272 77.3851 56.304ZM79.9058 53.952C79.8338 54.456 79.8578 54.852 79.8578 55.356C79.8578 55.392 79.8578 55.416 79.8578 55.452C80.1338 55.416 80.3378 55.356 80.6138 55.344C81.1538 55.308 81.6818 55.344 82.1978 55.38C82.8458 55.416 83.6378 55.38 84.2378 55.608C84.4058 55.668 84.5138 55.86 84.5498 56.052C84.5858 56.244 84.6098 56.388 84.4778 56.508C84.2018 56.736 83.9258 56.712 83.5778 56.736C82.7618 56.772 81.9098 56.7 81.0578 56.736C80.7218 56.736 80.5298 56.808 80.2058 56.856C80.1458 56.856 80.0858 56.868 80.0138 56.892C79.9418 57.216 79.7978 58.26 79.9898 58.572C80.1338 58.608 80.2658 58.596 80.4098 58.596C80.6378 58.596 80.7218 58.536 80.9498 58.5C81.4178 58.416 81.8498 58.44 82.3178 58.344C82.7018 58.284 83.0498 58.248 83.4338 58.224C83.7458 58.212 84.0098 58.224 84.3218 58.212C84.5978 58.176 85.1018 58.176 85.1738 58.44C85.2458 58.752 85.1738 59.112 84.9938 59.196C84.7058 59.376 83.5538 59.544 83.1938 59.616C82.7378 59.724 82.3178 59.844 81.8738 59.844C81.3818 59.844 80.8898 60.048 80.4098 60.048C79.9658 60.048 79.4498 59.76 79.1978 59.388C79.0058 59.148 78.7898 58.608 78.7658 58.32C78.7058 57.744 78.7658 57.168 78.7298 56.592C78.6938 56.16 78.6578 55.728 78.6578 55.296C78.6578 54.648 78.5738 53.976 78.6698 53.34C78.7418 52.932 78.5378 52.08 78.8618 51.828C79.1978 51.588 79.4858 51.504 79.8938 51.552C80.3618 51.612 81.6818 51.696 82.6538 51.708C82.9778 51.708 85.4618 52.008 84.9938 52.812C84.8258 53.1 84.3338 53.088 84.0818 53.1C83.7098 53.124 83.3138 53.136 82.9418 53.148C82.3178 53.184 81.8378 53.244 81.2138 53.22C80.9258 53.22 80.6618 53.136 80.3858 53.136C80.1098 53.136 80.0378 53.148 79.9898 53.448C79.9538 53.604 79.9298 53.784 79.9058 53.952ZM88.0663 53.316V53.988C88.0903 54.564 88.0063 54.792 88.0423 55.356C88.0423 55.536 88.1263 55.884 88.0903 56.052C88.2823 55.956 88.5703 55.884 88.7023 55.884C89.0143 55.884 91.3303 55.008 91.6783 54.84C91.9303 54.696 92.7583 54.336 92.6503 54.06C92.4223 53.376 90.5383 53.076 89.8183 53.076C89.2303 53.076 88.8463 53.22 88.0663 53.316ZM93.9703 58.524C94.0903 58.632 94.3543 58.8 94.1623 59.136C93.9823 59.448 92.9143 59.64 92.5303 59.64C92.1583 59.64 91.7263 59.496 91.3783 59.388C90.8383 59.244 88.5823 57.972 88.1623 57.636C88.1263 58.212 88.1503 58.728 88.1623 59.292C88.1863 59.496 88.1983 59.964 88.0903 60.156C88.0183 60.288 87.9463 60.336 87.8503 60.336C87.7663 60.336 87.6823 60.3 87.5743 60.264C87.1183 60.072 87.0343 59.652 87.0343 59.328C87.0583 59.004 87.1543 58.488 87.1543 58.176C87.1423 57.408 87.0343 56.652 86.9863 55.86C86.9503 55.416 86.9143 54.984 86.9143 54.504C86.9143 54.072 86.6383 53.292 86.6143 52.86C86.6023 52.584 86.5543 52.308 86.8303 52.116C87.2863 51.816 89.2063 51.624 89.7223 51.624C90.0223 51.624 90.3103 51.648 90.6103 51.708C91.4863 51.9 92.5663 52.128 93.0943 52.824C93.4303 53.244 93.6343 53.448 93.7423 53.94C93.9223 54.612 93.4423 55.224 92.9143 55.608C92.0863 56.196 91.4503 56.628 90.0103 57.06L89.5423 57.204C89.8903 57.396 90.2623 57.624 90.3943 57.66C90.5623 57.72 91.3783 58.092 92.5663 58.212C93.7543 58.332 93.8503 58.44 93.9703 58.524ZM99.0784 58.848C99.2464 58.86 99.4024 58.872 99.5584 58.872C101.286 58.872 101.514 57.972 101.514 57.972C101.118 57.708 98.9464 56.868 98.4904 56.712C97.3984 56.328 96.0424 55.92 95.4904 54.876C95.2384 54.408 95.2144 54.036 95.3344 53.556C95.3824 53.328 95.4664 53.124 95.5864 52.944C95.7424 52.716 96.0064 52.596 96.1984 52.428C96.7864 51.9 97.6144 51.636 98.4184 51.636C99.1984 51.636 99.9064 51.864 100.53 52.332C101.034 52.716 102.006 53.556 101.826 54.06C101.766 54.24 101.442 54.384 101.178 54.384C100.818 54.384 100.338 53.808 100.194 53.532C100.062 53.292 99.6064 52.932 99.3304 52.932C98.9464 52.896 98.0944 53.088 97.7464 53.244C97.5184 53.34 97.3264 53.496 97.1344 53.676C97.0384 53.796 96.9304 53.916 96.8104 54.024C96.7504 54.072 96.5944 54.228 96.5824 54.3C96.5704 54.408 98.0224 55.344 98.1784 55.392C98.6104 55.536 98.9584 55.704 99.4024 55.824C100.242 56.124 101.154 56.496 101.934 56.928C102.582 57.288 103.05 58.056 102.738 58.8C102.582 59.22 102.414 59.616 102.006 59.844C101.514 60.084 101.034 60.108 100.506 60.168C100.266 60.216 100.026 60.228 99.7984 60.228C99.4384 60.228 99.0904 60.18 98.7184 60.036C97.9624 59.784 96.7504 59.376 96.1504 58.836C95.9344 58.668 95.7664 58.452 95.5864 58.224C95.3824 57.948 95.2264 57.48 95.4064 57.168C95.4784 57.036 95.6104 56.988 95.7424 56.988C95.9344 56.988 96.1384 57.072 96.2824 57.156C96.7264 57.36 96.6544 57.864 97.0384 58.128C97.4344 58.404 98.6104 58.812 99.0784 58.848ZM105.913 57.9C105.937 57.888 105.961 57.888 105.985 57.888C106.393 57.888 106.489 58.716 106.489 59.076C106.489 59.46 106.141 60.456 105.649 61.2C105.445 61.524 104.809 62.244 104.377 62.244C104.101 62.244 103.897 61.692 104.005 61.368C104.125 61.02 104.401 60.576 104.785 60.096C105.157 59.628 105.025 58.872 105.049 58.644C105.109 58.128 105.529 57.972 105.913 57.9ZM114.282 56.16C114.942 56.04 115.674 56.004 116.346 56.004H116.466C116.31 55.572 116.142 55.152 115.926 54.732C115.722 54.336 115.506 53.916 115.338 53.52C115.314 53.472 115.302 53.436 115.29 53.376C114.99 53.784 114.75 54.636 114.594 55.104C114.486 55.452 114.39 55.8 114.282 56.16ZM118.698 59.148C118.71 59.424 118.77 60.228 118.242 60.12C117.738 60 117.774 59.544 117.618 59.184C117.438 58.752 117.294 58.296 117.15 57.84C117.102 57.672 116.97 57.516 116.922 57.36C116.85 57.36 116.562 57.396 116.502 57.396C116.118 57.396 115.962 57.42 115.602 57.48C115.218 57.54 114.834 57.54 114.45 57.588C114.258 57.612 114.054 57.72 113.85 57.756C113.778 58.188 113.586 58.572 113.478 58.992C113.418 59.196 113.334 59.412 113.286 59.652C113.238 59.844 113.166 60.048 112.914 60.072C112.686 60.072 112.182 60.156 112.05 59.256C111.87 58.176 112.554 56.976 112.83 55.932C113.094 55.272 113.25 54.504 113.478 53.832C113.574 53.568 113.658 53.328 113.766 53.064C113.982 52.596 114.198 51.744 114.63 51.468C114.786 51.384 115.218 51.648 115.398 51.744C115.566 51.816 115.998 52.284 116.07 52.476C116.154 52.704 116.286 52.908 116.406 53.136C117.39 54.96 117.582 55.992 118.194 57.396C118.434 57.936 118.626 58.56 118.698 59.148ZM121.431 60.228C121.431 60.228 121.299 60.324 121.119 60.324C120.987 60.324 120.819 60.264 120.651 60.084C120.471 59.892 119.775 57.252 119.727 55.92C119.679 54.576 119.307 52.752 119.451 52.392C119.571 52.008 119.619 51.804 119.799 51.768C119.991 51.732 120.147 51.744 120.399 51.9C120.663 52.056 121.443 53.676 121.851 54.096C122.223 54.504 124.275 56.556 124.839 56.988C125.223 57.3 125.667 57.312 125.715 57.312C125.727 57.312 125.739 54.456 125.739 54.096C125.739 53.724 125.775 52.716 125.907 52.332C126.051 51.96 126.399 51.66 126.735 51.744C126.891 51.804 126.987 52.176 126.975 52.644C126.975 53.124 126.975 56.268 126.915 56.832C126.867 57.432 127.071 59.304 127.011 59.568C126.891 60.036 126.543 59.928 126.327 59.928C125.667 59.916 124.191 58.368 123.579 57.864C122.979 57.36 121.035 55.224 120.819 54.852C120.819 54.852 120.999 56.46 121.155 57.084C121.311 57.72 121.503 58.644 121.551 59.1C121.599 59.532 121.695 60.072 121.431 60.228ZM133.383 56.808C133.659 56.424 134.031 55.536 133.995 55.068C133.971 54.6 133.587 54.372 133.155 54.096C132.735 53.82 132.339 53.496 131.859 53.316C131.523 53.172 131.163 53.064 130.815 52.968C130.503 52.86 130.131 52.74 129.783 52.752C129.783 52.932 129.771 53.088 129.771 53.256C129.771 54.096 129.939 54.924 129.939 55.764C129.939 56.424 130.011 57.06 130.047 57.72C130.059 58.068 130.059 58.416 130.095 58.764C131.223 58.572 132.687 57.708 133.383 56.808ZM134.667 53.868C134.931 54.372 135.231 54.96 135.099 55.488C135.039 55.896 134.367 57.456 134.127 57.78C133.143 59.064 132.675 59.484 131.127 60.012C130.911 60.084 130.155 60.336 129.951 60.336C129.771 60.336 129.603 60.252 129.459 60.12C129.087 59.808 128.895 59.568 128.919 59.376C128.931 58.98 128.835 58.38 128.835 57.984C128.835 56.664 128.739 55.32 128.655 54C128.643 53.712 128.643 53.412 128.643 53.136C128.643 52.908 128.571 52.776 128.499 52.428C128.463 52.2 128.367 51.924 128.451 51.672C128.523 51.432 128.619 51.312 128.871 51.276C129.015 51.252 129.171 51.252 129.303 51.252C129.711 51.252 130.083 51.312 130.503 51.432C131.043 51.576 131.595 51.732 132.111 51.9C133.167 52.32 134.175 52.776 134.667 53.868ZM145.629 56.808C145.905 56.424 146.277 55.536 146.241 55.068C146.217 54.6 145.833 54.372 145.401 54.096C144.981 53.82 144.585 53.496 144.105 53.316C143.769 53.172 143.409 53.064 143.061 52.968C142.749 52.86 142.377 52.74 142.029 52.752C142.029 52.932 142.017 53.088 142.017 53.256C142.017 54.096 142.185 54.924 142.185 55.764C142.185 56.424 142.257 57.06 142.293 57.72C142.305 58.068 142.305 58.416 142.341 58.764C143.469 58.572 144.933 57.708 145.629 56.808ZM146.913 53.868C147.177 54.372 147.477 54.96 147.345 55.488C147.285 55.896 146.613 57.456 146.373 57.78C145.389 59.064 144.921 59.484 143.373 60.012C143.157 60.084 142.401 60.336 142.197 60.336C142.017 60.336 141.849 60.252 141.705 60.12C141.333 59.808 141.141 59.568 141.165 59.376C141.177 58.98 141.081 58.38 141.081 57.984C141.081 56.664 140.985 55.32 140.901 54C140.889 53.712 140.889 53.412 140.889 53.136C140.889 52.908 140.817 52.776 140.745 52.428C140.709 52.2 140.613 51.924 140.697 51.672C140.769 51.432 140.865 51.312 141.117 51.276C141.261 51.252 141.417 51.252 141.549 51.252C141.957 51.252 142.329 51.312 142.749 51.432C143.289 51.576 143.841 51.732 144.357 51.9C145.413 52.32 146.421 52.776 146.913 53.868ZM149.796 53.952C149.724 54.456 149.748 54.852 149.748 55.356C149.748 55.392 149.748 55.416 149.748 55.452C150.024 55.416 150.228 55.356 150.504 55.344C151.044 55.308 151.572 55.344 152.088 55.38C152.736 55.416 153.528 55.38 154.128 55.608C154.296 55.668 154.404 55.86 154.44 56.052C154.476 56.244 154.5 56.388 154.368 56.508C154.092 56.736 153.816 56.712 153.468 56.736C152.652 56.772 151.8 56.7 150.948 56.736C150.612 56.736 150.42 56.808 150.096 56.856C150.036 56.856 149.976 56.868 149.904 56.892C149.832 57.216 149.688 58.26 149.88 58.572C150.024 58.608 150.156 58.596 150.3 58.596C150.528 58.596 150.612 58.536 150.84 58.5C151.308 58.416 151.74 58.44 152.208 58.344C152.592 58.284 152.94 58.248 153.324 58.224C153.636 58.212 153.9 58.224 154.212 58.212C154.488 58.176 154.992 58.176 155.064 58.44C155.136 58.752 155.064 59.112 154.884 59.196C154.596 59.376 153.444 59.544 153.084 59.616C152.628 59.724 152.208 59.844 151.764 59.844C151.272 59.844 150.78 60.048 150.3 60.048C149.856 60.048 149.34 59.76 149.088 59.388C148.896 59.148 148.68 58.608 148.656 58.32C148.596 57.744 148.656 57.168 148.62 56.592C148.584 56.16 148.548 55.728 148.548 55.296C148.548 54.648 148.464 53.976 148.56 53.34C148.632 52.932 148.428 52.08 148.752 51.828C149.088 51.588 149.376 51.504 149.784 51.552C150.252 51.612 151.572 51.696 152.544 51.708C152.868 51.708 155.352 52.008 154.884 52.812C154.716 53.1 154.224 53.088 153.972 53.1C153.6 53.124 153.204 53.136 152.832 53.148C152.208 53.184 151.728 53.244 151.104 53.22C150.816 53.22 150.552 53.136 150.276 53.136C150 53.136 149.928 53.148 149.88 53.448C149.844 53.604 149.82 53.784 149.796 53.952ZM161.221 55.14C161.533 54.984 162.361 54 162.361 54C162.361 54 162.193 53.712 161.965 53.592C161.605 53.376 160.333 53.124 159.841 53.124C158.941 53.124 157.825 53.448 157.825 53.448C157.969 54.096 157.801 55.8 157.801 55.8C157.933 55.824 158.065 55.836 158.221 55.836C159.313 55.836 160.945 55.272 161.221 55.14ZM163.489 53.82C163.669 55.08 161.665 56.58 160.789 56.856C160.093 57.072 159.169 57.276 158.473 57.276C158.269 57.276 158.077 57.264 157.921 57.216C157.921 57.216 157.813 58.212 157.897 58.416C158.041 58.8 158.113 59.508 158.017 59.796C157.969 59.952 157.897 60.288 157.585 60.288C157.009 60.288 156.901 59.676 156.841 59.232C156.805 58.992 156.661 57.672 156.661 57.024C156.685 56.388 156.661 54.66 156.649 54.264C156.613 53.868 156.409 52.908 156.541 52.464C156.661 52.008 157.321 51.888 157.693 51.852C157.933 51.816 158.773 51.66 159.613 51.66C160.045 51.66 160.465 51.708 160.813 51.828C161.821 52.2 163.333 52.548 163.489 53.82ZM170.53 59.688C170.302 59.892 167.914 60.048 167.602 60.072C167.218 60.084 166.786 60.336 166.414 60.336C166.39 60.336 166.354 60.336 166.33 60.336C165.958 60.276 165.166 59.808 164.938 58.92C164.866 58.596 164.854 57.84 164.794 57.12C164.746 56.388 164.71 55.644 164.674 54.636C164.638 53.64 164.626 52.176 164.638 51.972C164.662 51.78 164.878 51.624 165.082 51.624C165.13 51.624 165.178 51.636 165.214 51.648C166.09 52.008 165.826 53.136 165.862 53.52C165.874 53.868 165.826 55.104 165.91 55.692C165.958 56.088 165.994 57.684 166.018 58.56C166.138 58.62 166.282 58.632 166.438 58.632C166.894 58.632 167.458 58.476 167.782 58.404C168.01 58.356 168.49 58.32 168.922 58.32C169.57 58.32 169.954 58.524 170.482 58.944C170.614 59.028 170.806 59.448 170.53 59.688ZM177.894 57.6C178.194 57.312 178.41 56.868 178.41 56.46C178.41 55.992 177.858 53.724 176.97 53.64C176.706 53.604 176.106 53.532 175.878 53.4C175.734 53.316 175.698 53.244 175.578 53.28C175.422 53.292 175.23 53.448 175.098 53.52C174.918 53.604 174.762 53.712 174.594 53.82C173.97 54.156 173.634 54.6 173.178 55.224C172.998 55.488 172.782 56.316 172.806 56.652C172.818 57.216 172.866 57.708 173.394 58.056C173.79 58.32 174.894 58.62 175.41 58.62C175.842 58.62 176.43 58.512 176.766 58.416C177.282 58.284 177.558 57.948 177.894 57.6ZM179.07 54.492C179.574 55.464 179.754 56.316 179.562 57.408C179.25 59.1 177.534 60.156 175.89 60.156C174.282 60.156 171.978 58.992 171.618 57.312C171.33 56.016 171.882 54.336 172.65 53.292C173.298 52.392 174.402 51.816 175.506 51.816C176.694 51.816 177.618 52.416 178.35 53.316C178.626 53.676 178.866 54.096 179.07 54.492ZM186.455 52.548C186.275 52.86 185.183 54.66 185.123 54.804C184.943 55.152 184.835 55.344 184.679 55.644C184.307 56.364 183.551 58.8 183.431 59.568C183.407 59.7 183.323 60 183.143 60.12C183.071 60.18 182.987 60.204 182.915 60.204C182.699 60.204 182.471 60.036 182.351 59.808C182.159 59.484 182.231 58.692 182.243 58.56C182.267 58.26 182.423 57.396 182.783 56.496C182.627 56.328 182.471 56.172 182.351 56.052C182.015 55.728 180.011 53.088 179.843 52.512C179.759 52.2 179.807 51.888 179.999 51.852C180.035 51.852 180.071 51.84 180.107 51.84C180.311 51.84 180.587 51.924 180.719 52.092C180.851 52.284 181.631 53.412 181.775 53.592C182.111 54.072 182.735 55.032 183.179 55.296C183.179 55.296 183.443 54.6 183.551 54.408C183.635 54.216 184.463 52.68 184.619 52.428C184.775 52.176 184.991 52.02 185.111 51.924C185.183 51.852 185.579 51.672 185.771 51.66C185.951 51.66 186.203 51.888 186.275 51.936C186.347 51.972 186.611 52.236 186.455 52.548ZM187.881 56.04C187.833 55.428 187.749 54.816 187.713 54.192C187.689 53.772 187.641 53.364 187.641 52.956C187.641 52.644 187.737 51.408 188.169 51.408C188.421 51.408 188.841 51.876 188.973 52.068C189.081 52.224 189.153 52.404 189.261 52.548C189.393 52.716 189.525 52.848 189.633 52.992C190.221 53.832 190.989 54.696 191.745 55.356C191.985 54.576 192.453 53.844 192.837 53.112C193.065 52.668 193.629 51.864 193.953 51.516C194.001 51.468 194.073 51.444 194.157 51.444C194.397 51.444 194.721 51.636 194.901 51.768C195.681 52.32 195.441 54.468 195.429 54.996C195.405 55.992 195.549 56.988 195.465 57.984C195.441 58.368 195.441 58.764 195.393 59.136C195.357 59.436 195.357 59.832 195.081 60.024C195.021 60.072 194.973 60.084 194.925 60.084C194.769 60.084 194.661 59.892 194.553 59.724C194.385 59.46 194.433 59.016 194.397 58.716C194.313 58.02 194.313 57.288 194.349 56.58C194.349 56.208 194.313 55.836 194.301 55.464C194.265 55.14 194.349 54.372 194.265 53.964C194.037 54.156 193.461 55.284 193.341 55.56C193.185 55.884 193.149 56.064 192.993 56.376C192.813 56.736 192.693 57.024 192.501 57.276C192.417 57.384 192.321 57.432 192.225 57.432C192.093 57.432 191.949 57.336 191.805 57.18C191.373 56.724 190.833 56.352 190.425 55.848C190.197 55.584 189.933 55.332 189.705 55.068C189.549 54.876 189.225 54.432 189.009 54.252C189.081 55.356 189.117 56.472 189.285 57.576C189.345 58.02 189.381 58.584 189.453 59.016C189.501 59.292 189.609 59.7 189.453 59.976C189.321 60.204 189.213 60.3 189.105 60.3C189.009 60.3 188.913 60.24 188.805 60.12C188.349 59.64 188.277 58.92 188.145 58.32C187.989 57.576 187.917 56.808 187.881 56.04ZM198.183 53.952C198.111 54.456 198.135 54.852 198.135 55.356C198.135 55.392 198.135 55.416 198.135 55.452C198.411 55.416 198.615 55.356 198.891 55.344C199.431 55.308 199.959 55.344 200.475 55.38C201.123 55.416 201.915 55.38 202.515 55.608C202.683 55.668 202.791 55.86 202.827 56.052C202.863 56.244 202.887 56.388 202.755 56.508C202.479 56.736 202.203 56.712 201.855 56.736C201.039 56.772 200.187 56.7 199.335 56.736C198.999 56.736 198.807 56.808 198.483 56.856C198.423 56.856 198.363 56.868 198.291 56.892C198.219 57.216 198.075 58.26 198.267 58.572C198.411 58.608 198.543 58.596 198.687 58.596C198.915 58.596 198.999 58.536 199.227 58.5C199.695 58.416 200.127 58.44 200.595 58.344C200.979 58.284 201.327 58.248 201.711 58.224C202.023 58.212 202.287 58.224 202.599 58.212C202.875 58.176 203.379 58.176 203.451 58.44C203.523 58.752 203.451 59.112 203.271 59.196C202.983 59.376 201.831 59.544 201.471 59.616C201.015 59.724 200.595 59.844 200.151 59.844C199.659 59.844 199.167 60.048 198.687 60.048C198.243 60.048 197.727 59.76 197.475 59.388C197.283 59.148 197.067 58.608 197.043 58.32C196.983 57.744 197.043 57.168 197.007 56.592C196.971 56.16 196.935 55.728 196.935 55.296C196.935 54.648 196.851 53.976 196.947 53.34C197.019 52.932 196.815 52.08 197.139 51.828C197.475 51.588 197.763 51.504 198.171 51.552C198.639 51.612 199.959 51.696 200.931 51.708C201.255 51.708 203.739 52.008 203.271 52.812C203.103 53.1 202.611 53.088 202.359 53.1C201.987 53.124 201.591 53.136 201.219 53.148C200.595 53.184 200.115 53.244 199.491 53.22C199.203 53.22 198.939 53.136 198.663 53.136C198.387 53.136 198.315 53.148 198.267 53.448C198.231 53.604 198.207 53.784 198.183 53.952ZM206.896 60.228C206.896 60.228 206.764 60.324 206.584 60.324C206.452 60.324 206.284 60.264 206.116 60.084C205.936 59.892 205.24 57.252 205.192 55.92C205.144 54.576 204.772 52.752 204.916 52.392C205.036 52.008 205.084 51.804 205.264 51.768C205.456 51.732 205.612 51.744 205.864 51.9C206.128 52.056 206.908 53.676 207.316 54.096C207.688 54.504 209.74 56.556 210.304 56.988C210.688 57.3 211.132 57.312 211.18 57.312C211.192 57.312 211.204 54.456 211.204 54.096C211.204 53.724 211.24 52.716 211.372 52.332C211.516 51.96 211.864 51.66 212.2 51.744C212.356 51.804 212.452 52.176 212.44 52.644C212.44 53.124 212.44 56.268 212.38 56.832C212.332 57.432 212.536 59.304 212.476 59.568C212.356 60.036 212.008 59.928 211.792 59.928C211.132 59.916 209.656 58.368 209.044 57.864C208.444 57.36 206.5 55.224 206.284 54.852C206.284 54.852 206.464 56.46 206.62 57.084C206.776 57.72 206.968 58.644 207.016 59.1C207.064 59.532 207.16 60.072 206.896 60.228ZM220.756 53.064C220.66 53.124 220.516 53.136 220.372 53.136C219.652 53.136 218.932 53.124 218.212 53.076C218.356 54.096 218.008 55.284 218.104 56.268C218.164 56.904 218.152 57.564 218.212 58.212C218.236 58.476 218.296 58.716 218.368 58.944C218.44 59.184 218.536 59.316 218.44 59.58C218.356 59.808 218.164 60.024 217.9 60.024C217.672 60.024 217.54 59.82 217.444 59.604C217.192 58.992 217.132 58.332 217.06 57.684C216.964 56.928 217.036 55.992 217 55.224C216.976 54.876 216.976 54.096 216.916 53.772C216.868 53.544 216.82 53.28 216.796 53.04C216.088 53.028 215.572 53.04 214.912 53.22C214.768 53.268 214.588 53.292 214.42 53.292C214.216 53.292 214.024 53.244 213.88 53.112C213.58 52.824 213.532 52.14 213.76 51.996C213.928 51.888 214.06 51.852 214.24 51.828C214.528 51.804 214.768 51.636 215.044 51.612C215.416 51.576 215.788 51.576 216.16 51.6C217.024 51.636 217.876 51.696 218.728 51.756C219.076 51.78 220.264 51.876 220.48 52.176C220.588 52.332 220.924 52.968 220.756 53.064ZM222.671 58.752C222.683 58.884 222.635 59.604 222.443 59.832C222.263 60.048 221.819 60.348 221.519 60.36C221.243 60.36 220.979 59.88 221.135 59.46C221.279 59.028 221.519 58.632 221.975 58.5C222.095 58.476 222.647 58.608 222.671 58.752Z" fill="black"/>
<defs>
<filter id="filter0_d_13_29" x="-0.000144958" y="0" width="266" height="106" filterUnits="userSpaceOnUse" color-interpolation-filters="sRGB">
<feFlood flood-opacity="0" result="BackgroundImageFix"/>
<feColorMatrix in="SourceAlpha" type="matrix" values="0 0 0 0 0 0 0 0 0 0 0 0 0 0 0 0 0 0 127 0" result="hardAlpha"/>
<feOffset dy="4"/>
<feComposite in2="hardAlpha" operator="out"/>
<feColorMatrix type="matrix" values="0 0 0 0 0 0 0 0 0 0 0 0 0 0 0 0 0 0 1 0"/>
<feBlend mode="normal" in2="BackgroundImageFix" result="effect1_dropShadow_13_29"/>
<feBlend mode="normal" in="SourceGraphic" in2="effect1_dropShadow_13_29" result="shape"/>
</filter>
</defs>
</svg>
