<svg width="266" height="130" viewBox="0 0 266 130" fill="none" xmlns="http://www.w3.org/2000/svg">
<g filter="url(#filter0_d_5_25)">
<path fill-rule="evenodd" clip-rule="evenodd" d="M246.217 2.46392C255.083 2.68705 262.521 9.35726 263.383 18.1841C265.736 42.3 265.387 60.3749 263.2 84.4416C262.387 93.3927 254.931 100.26 245.946 100.516C166.404 102.788 115.866 102.931 35.8811 100.492C31.4382 100.356 27.3225 98.5988 24.2524 95.7308C17.6803 113.029 9.063 118.403 4.35316 121.34C3.02255 122.169 2.00381 122.805 1.43117 123.459C10.7991 108.122 17.0708 93.1787 19.1219 86.2747C14.4959 61.4242 14.6845 42.8212 19.2885 16.8219C20.7418 8.61479 27.9188 2.71172 36.2511 2.50737C116.103 0.548973 166.657 0.461674 246.217 2.46392ZM1 124.162C1.08543 123.919 1.23106 123.688 1.43117 123.459C1.28817 123.694 1.14444 123.928 1 124.162Z" fill="white"/>
<path d="M263.383 18.1841L262.387 18.2812L262.387 18.2812L263.383 18.1841ZM246.217 2.46392L246.192 3.46361L246.217 2.46392ZM263.2 84.4416L264.196 84.5321L264.196 84.5321L263.2 84.4416ZM245.946 100.516L245.975 101.516L245.975 101.516L245.946 100.516ZM35.8811 100.492L35.9115 99.492L35.9115 99.492L35.8811 100.492ZM24.2524 95.7308L24.9351 95C24.6916 94.7726 24.3508 94.6813 24.0263 94.7567C23.7017 94.832 23.436 95.0641 23.3176 95.3756L24.2524 95.7308ZM4.35316 121.34L3.82401 120.491L3.82401 120.491L4.35316 121.34ZM19.1219 86.2747L20.0805 86.5595C20.1256 86.4077 20.134 86.2473 20.105 86.0917L19.1219 86.2747ZM19.2885 16.8219L20.2732 16.9963L20.2732 16.9963L19.2885 16.8219ZM36.2511 2.50737L36.2757 3.50707L36.2511 2.50737ZM1 124.162L0.0567412 123.83C-0.112923 124.312 0.108026 124.844 0.569108 125.065C1.03019 125.285 1.58308 125.122 1.85123 124.687L1 124.162ZM264.378 18.087C263.465 8.73809 255.593 1.69958 246.242 1.46424L246.192 3.46361C254.572 3.67452 261.577 9.97644 262.387 18.2812L264.378 18.087ZM264.196 84.5321C266.388 60.4165 266.739 42.2775 264.378 18.087L262.387 18.2812C264.734 42.3226 264.387 60.3333 262.204 84.3511L264.196 84.5321ZM245.975 101.516C255.454 101.245 263.336 93.9981 264.196 84.5321L262.204 84.3511C261.438 92.7873 254.407 99.2742 245.918 99.5167L245.975 101.516ZM35.8506 101.491C115.857 103.932 166.415 103.788 245.975 101.516L245.918 99.5167C166.393 101.788 115.874 101.931 35.9115 99.492L35.8506 101.491ZM23.5698 96.4615C26.8157 99.4939 31.1627 101.348 35.8506 101.491L35.9115 99.492C31.7138 99.364 27.8293 97.7038 24.9351 95L23.5698 96.4615ZM23.3176 95.3756C20.0723 103.917 16.3388 109.473 12.8686 113.243C9.39953 117.012 6.16361 119.032 3.82401 120.491L4.88231 122.188C7.25255 120.71 10.6802 118.574 14.3402 114.598C17.9992 110.622 21.8604 104.842 25.1872 96.0859L23.3176 95.3756ZM3.82401 120.491C2.55271 121.284 1.37297 122.007 0.678442 122.801L2.1839 124.118C2.63464 123.602 3.49239 123.055 4.88231 122.188L3.82401 120.491ZM2.28458 123.981C11.6886 108.584 18.0002 93.5617 20.0805 86.5595L18.1633 85.9899C16.1414 92.7957 9.90958 107.659 0.577759 122.938L2.28458 123.981ZM18.3038 16.6475C13.6809 42.7536 13.4888 61.4782 18.1388 86.4577L20.105 86.0917C15.503 61.3702 15.6881 42.8888 20.2732 16.9963L18.3038 16.6475ZM36.2266 1.50767C27.4409 1.72314 19.8439 7.95036 18.3038 16.6475L20.2732 16.9963C21.6397 9.27923 28.3967 3.7003 36.2757 3.50707L36.2266 1.50767ZM246.242 1.46424C166.665 -0.538454 116.094 -0.451105 36.2266 1.50767L36.2757 3.50707C116.113 1.54905 166.65 1.4618 246.192 3.46361L246.242 1.46424ZM1.94326 124.494C1.97604 124.401 2.04389 124.278 2.18391 124.118L0.678434 122.801C0.418239 123.099 0.194822 123.438 0.0567412 123.83L1.94326 124.494ZM0.577761 122.938C0.435474 123.171 0.292474 123.404 0.148773 123.637L1.85123 124.687C1.99641 124.451 2.14086 124.216 2.28458 123.981L0.577761 122.938Z" fill="black"/>
</g>
<defs>
<filter id="filter0_d_5_25" x="-0.000183105" y="0" width="266" height="129.162" filterUnits="userSpaceOnUse" color-interpolation-filters="sRGB">
<feFlood flood-opacity="0" result="BackgroundImageFix"/>
<feColorMatrix in="SourceAlpha" type="matrix" values="0 0 0 0 0 0 0 0 0 0 0 0 0 0 0 0 0 0 127 0" result="hardAlpha"/>
<feOffset dy="4"/>
<feComposite in2="hardAlpha" operator="out"/>
<feColorMatrix type="matrix" values="0 0 0 0 0 0 0 0 0 0 0 0 0 0 0 0 0 0 1 0"/>
<feBlend mode="normal" in2="BackgroundImageFix" result="effect1_dropShadow_5_25"/>
<feBlend mode="normal" in="SourceGraphic" in2="effect1_dropShadow_5_25" result="shape"/>
</filter>
</defs>
</svg>
