<?xml version="1.0" encoding="UTF-8" standalone="no"?>
<svg
   width="213"
   height="29"
   viewBox="0 0 213 29"
   fill="none"
   version="1.1"
   id="svg3"
   sodipodi:docname="Thursday.svg"
   inkscape:version="1.3.2 (091e20ef0f, 2023-11-25)"
   xmlns:inkscape="http://www.inkscape.org/namespaces/inkscape"
   xmlns:sodipodi="http://sodipodi.sourceforge.net/DTD/sodipodi-0.dtd"
   xmlns="http://www.w3.org/2000/svg"
   xmlns:svg="http://www.w3.org/2000/svg">
  <defs
     id="defs3" />
  <sodipodi:namedview
     id="namedview3"
     pagecolor="#ffffff"
     bordercolor="#000000"
     borderopacity="0.25"
     inkscape:showpageshadow="2"
     inkscape:pageopacity="0.0"
     inkscape:pagecheckerboard="0"
     inkscape:deskcolor="#d1d1d1"
     inkscape:zoom="8.6767241"
     inkscape:cx="116"
     inkscape:cy="28.005961"
     inkscape:window-width="2560"
     inkscape:window-height="1368"
     inkscape:window-x="1920"
     inkscape:window-y="0"
     inkscape:window-maximized="1"
     inkscape:current-layer="svg3" />
  <mask
     id="path-1-inside-1_3_20"
     fill="#ffffff">
    <path
       d="m 5.995,19.5 h 20.51 c 0.2567,0 0.4783,0.0933 0.665,0.28 0.1867,0.1867 0.28,0.4083 0.28,0.665 v 5.635 c 0,0.2567 -0.0933,0.4783 -0.28,0.665 -0.1867,0.1867 -0.4083,0.28 -0.665,0.28 h -5.81 v 16.03 c 0,0.2567 -0.0933,0.4783 -0.28,0.665 C 20.2283,43.9067 20.0067,44 19.75,44 h -7 c -0.2567,0 -0.4783,-0.0933 -0.665,-0.28 -0.1867,-0.1867 -0.28,-0.4083 -0.28,-0.665 V 27.025 H 5.995 C 5.73833,27.025 5.51667,26.9317 5.33,26.745 5.14333,26.5583 5.05,26.3367 5.05,26.08 v -5.635 c 0,-0.2567 0.09333,-0.4783 0.28,-0.665 0.18667,-0.1867 0.40833,-0.28 0.665,-0.28 z m 40.1518,0 h 6.86 c 0.2567,0 0.4784,0.0933 0.665,0.28 0.1867,0.1867 0.28,0.4083 0.28,0.665 v 22.61 c 0,0.2567 -0.0933,0.4783 -0.28,0.665 -0.1866,0.1867 -0.4083,0.28 -0.665,0.28 h -6.86 c -0.2566,0 -0.4783,-0.0933 -0.665,-0.28 -0.1866,-0.1867 -0.28,-0.4083 -0.28,-0.665 v -7.56 h -5.67 v 7.56 c 0,0.2567 -0.0933,0.4783 -0.28,0.665 -0.1866,0.1867 -0.4083,0.28 -0.665,0.28 h -6.86 c -0.2566,0 -0.4783,-0.0817 -0.665,-0.245 -0.1866,-0.1867 -0.28,-0.42 -0.28,-0.7 v -22.61 c 0,-0.2567 0.0934,-0.4783 0.28,-0.665 0.1867,-0.1867 0.4084,-0.28 0.665,-0.28 h 6.86 c 0.2567,0 0.4784,0.0933 0.665,0.28 0.1867,0.1867 0.28,0.4083 0.28,0.665 v 7.35 h 5.67 v -7.35 c 0,-0.2567 0.0934,-0.4783 0.28,-0.665 0.1867,-0.1867 0.4084,-0.28 0.665,-0.28 z m 26.8798,0 h 6.86 c 0.2566,0 0.4783,0.0933 0.665,0.28 0.1866,0.1867 0.28,0.4083 0.28,0.665 v 14.07 c 0,3.2667 -1.015,5.7283 -3.045,7.385 -2.03,1.6333 -4.795,2.45 -8.295,2.45 -3.4767,0 -6.2417,-0.8167 -8.295,-2.45 -2.03,-1.6333 -3.045,-4.095 -3.045,-7.385 v -14.07 c 0,-0.2567 0.0933,-0.4783 0.28,-0.665 0.1866,-0.1867 0.4083,-0.28 0.665,-0.28 h 6.86 c 0.2566,0 0.4783,0.0933 0.665,0.28 0.1866,0.1867 0.28,0.4083 0.28,0.665 V 34.62 c 0,1.7967 0.8633,2.695 2.59,2.695 1.7266,0 2.59,-0.8983 2.59,-2.695 V 20.445 c 0,-0.2567 0.0933,-0.4783 0.28,-0.665 0.1866,-0.1867 0.4083,-0.28 0.665,-0.28 z m 34.5384,23.345 c 0.07,0.14 0.105,0.2917 0.105,0.455 0,0.1633 -0.082,0.3267 -0.245,0.49 C 107.285,43.93 107.11,44 106.9,44 H 99.725 C 99.0017,44 98.5,43.685 98.22,43.055 L 95.21,36.37 h -1.435 v 6.685 c 0,0.2567 -0.0933,0.4783 -0.28,0.665 C 93.3083,43.9067 93.0867,44 92.83,44 h -6.86 c -0.2567,0 -0.4783,-0.0933 -0.665,-0.28 -0.1867,-0.1867 -0.28,-0.4083 -0.28,-0.665 v -22.61 c 0,-0.2567 0.0933,-0.4783 0.28,-0.665 0.1867,-0.1867 0.4083,-0.28 0.665,-0.28 h 10.36 c 3.36,0 5.985,0.7583 7.875,2.275 1.89,1.4933 2.835,3.6517 2.835,6.475 0,2.8 -1.26,5.005 -3.78,6.615 z M 93.775,26.01 v 3.71 h 2.555 c 0.5133,0 0.91,-0.1633 1.19,-0.49 0.28,-0.35 0.42,-0.7817 0.42,-1.295 0,-0.5133 -0.14,-0.9567 -0.42,-1.33 -0.2567,-0.3967 -0.6533,-0.595 -1.19,-0.595 z m 16.597,1.19 c 0,-2.38 0.98,-4.3167 2.94,-5.81 1.983,-1.4933 4.573,-2.24 7.77,-2.24 3.22,0 5.845,0.7817 7.875,2.345 2.053,1.5633 3.08,3.1967 3.08,4.9 0,0.21 -0.082,0.3967 -0.245,0.56 -0.14,0.14 -0.304,0.21 -0.49,0.21 h -7 c -0.537,0 -1.027,-0.1983 -1.47,-0.595 -0.444,-0.3967 -1.039,-0.595 -1.785,-0.595 -1.12,0 -1.68,0.3267 -1.68,0.98 0,0.35 0.268,0.6417 0.805,0.875 0.56,0.2333 1.586,0.4433 3.08,0.63 3.476,0.4433 5.95,1.26 7.42,2.45 1.493,1.1667 2.24,2.9517 2.24,5.355 0,2.38 -1.097,4.3283 -3.29,5.845 -2.17,1.4933 -5.017,2.24 -8.54,2.24 -3.524,0 -6.289,-0.7233 -8.295,-2.17 -2.007,-1.4467 -3.01,-3.2083 -3.01,-5.285 0,-0.21 0.07,-0.385 0.21,-0.525 0.163,-0.1633 0.35,-0.245 0.56,-0.245 h 6.65 c 0.49,0 1.026,0.2333 1.61,0.7 0.606,0.4667 1.435,0.7 2.485,0.7 1.75,0 2.625,-0.3267 2.625,-0.98 0,-0.42 -0.315,-0.735 -0.945,-0.945 -0.63,-0.2333 -1.82,-0.4667 -3.57,-0.7 -6.02,-0.7933 -9.03,-3.36 -9.03,-7.7 z m 26.799,-7.7 h 10.08 c 3.407,0 6.207,0.8517 8.4,2.555 2.217,1.68 3.325,4.0367 3.325,7.07 v 5.215 c 0,3.1733 -1.073,5.5767 -3.22,7.21 -2.146,1.6333 -4.97,2.45 -8.47,2.45 h -10.115 c -0.256,0 -0.478,-0.0933 -0.665,-0.28 -0.186,-0.1867 -0.28,-0.4083 -0.28,-0.665 v -22.61 c 0,-0.2567 0.094,-0.4783 0.28,-0.665 0.187,-0.1867 0.409,-0.28 0.665,-0.28 z m 7.805,6.825 v 10.85 h 2.275 c 0.794,0 1.424,-0.2333 1.89,-0.7 0.49,-0.49 0.735,-1.2017 0.735,-2.135 v -5.215 c 0,-1.8667 -0.875,-2.8 -2.625,-2.8 z M 170.483,19.5 h 7.595 c 0.84,0 1.365,0.385 1.575,1.155 l 7.805,22.33 c 0.023,0.07 0.035,0.1867 0.035,0.35 0,0.14 -0.082,0.2917 -0.245,0.455 -0.14,0.14 -0.315,0.21 -0.525,0.21 h -6.475 c -0.7,0 -1.155,-0.2917 -1.365,-0.875 l -0.84,-2.31 h -7.525 l -0.84,2.31 C 169.468,43.7083 169.013,44 168.313,44 h -6.475 c -0.21,0 -0.397,-0.07 -0.56,-0.21 -0.14,-0.1633 -0.21,-0.315 -0.21,-0.455 0,-0.1633 0.012,-0.28 0.035,-0.35 l 7.805,-22.33 c 0.21,-0.77 0.735,-1.155 1.575,-1.155 z m 1.82,14.49 h 3.955 l -1.995,-6.51 z M 204.123,44 h -6.86 c -0.256,0 -0.478,-0.0933 -0.665,-0.28 -0.186,-0.1867 -0.28,-0.4083 -0.28,-0.665 V 36.16 l -7.875,-15.575 c -0.046,-0.0933 -0.07,-0.2217 -0.07,-0.385 0,-0.1633 0.07,-0.315 0.21,-0.455 0.164,-0.1633 0.35,-0.245 0.56,-0.245 h 6.58 c 0.7,0 1.19,0.2917 1.47,0.875 l 3.5,7.035 3.5,-7.035 c 0.28,-0.5833 0.77,-0.875 1.47,-0.875 h 6.58 c 0.21,0 0.385,0.0817 0.525,0.245 0.164,0.14 0.245,0.2917 0.245,0.455 0,0.1633 -0.023,0.2917 -0.07,0.385 l -7.875,15.575 v 6.895 c 0,0.2567 -0.093,0.4783 -0.28,0.665 -0.186,0.1867 -0.408,0.28 -0.665,0.28 z"
       id="path1" />
  </mask>
  <path
     d="m 27.17,19.78 0.7071,-0.7071 v 0 z m 0,6.965 0.7071,0.7071 v 0 z m -6.475,0.28 v -1 h -1 v 1 z m -0.28,16.695 -0.7071,-0.7071 v 0 z m -8.61,-16.695 h 1 v -1 h -1 z M 5.995,20.5 h 20.51 v -2 H 5.995 Z m 20.51,0 c 0.0033,0 0.001,3e-4 -0.0056,-0.001 -0.0067,-0.0013 -0.015,-0.0037 -0.0237,-0.0074 -0.0087,-0.0036 -0.0147,-0.0073 -0.0178,-0.0094 -0.0029,-0.002 -0.0011,-0.0011 0.005,0.0049 l 1.4142,-1.4142 C 27.5089,18.7047 27.0352,18.5 26.505,18.5 Z m -0.0421,-0.0129 c 0.006,0.006 0.0069,0.0079 0.0049,0.005 C 26.4657,20.489 26.462,20.483 26.4584,20.4743 26.4547,20.4656 26.4523,20.4573 26.451,20.4506 26.4497,20.444 26.45,20.4417 26.45,20.445 h 2 c 0,-0.5302 -0.2047,-1.0039 -0.5729,-1.3721 z M 26.45,20.445 v 5.635 h 2 v -5.635 z m 0,5.635 c 0,0.0033 -3e-4,0.001 0.001,-0.0056 0.0013,-0.0067 0.0037,-0.015 0.0074,-0.0237 0.0036,-0.0087 0.0073,-0.0147 0.0094,-0.0178 0.002,-0.0029 0.0011,-0.0011 -0.0049,0.005 l 1.4142,1.4142 C 28.2453,27.0839 28.45,26.6102 28.45,26.08 Z m 0.0129,-0.0421 c -0.0061,0.006 -0.0079,0.0069 -0.005,0.0049 0.0031,-0.0021 0.0091,-0.0058 0.0178,-0.0094 0.0087,-0.0037 0.017,-0.0061 0.0237,-0.0074 0.0066,-0.0013 0.0089,-0.001 0.0056,-0.001 v 2 c 0.5302,0 1.0039,-0.2047 1.3721,-0.5729 z M 26.505,26.025 h -5.81 v 2 h 5.81 z m -6.81,1 v 16.03 h 2 v -16.03 z m 0,16.03 c 0,0.0033 -3e-4,10e-4 0.001,-0.0056 0.0013,-0.0067 0.0037,-0.015 0.0074,-0.0237 0.0036,-0.0087 0.0073,-0.0147 0.0094,-0.0178 0.002,-0.0029 0.0011,-0.0011 -0.0049,0.005 l 1.4142,1.4142 c 0.3682,-0.3682 0.5729,-0.8419 0.5729,-1.3721 z m 0.0129,-0.0421 c -0.0061,0.006 -0.0079,0.0069 -0.005,0.0049 0.0031,-0.0021 0.0091,-0.0058 0.0178,-0.0094 0.0087,-0.0037 0.017,-0.0061 0.0237,-0.0074 C 19.751,42.9997 19.7533,43 19.75,43 v 2 c 0.5302,0 1.0039,-0.2047 1.3721,-0.5729 z M 19.75,43 h -7 v 2 h 7 z m -7,0 c -0.0033,0 -10e-4,-3e-4 0.0056,10e-4 0.0067,0.0013 0.015,0.0037 0.0237,0.0074 0.0087,0.0036 0.0147,0.0073 0.0178,0.0094 0.0029,0.002 0.0011,0.0011 -0.005,-0.0049 l -1.4142,1.4142 C 11.7461,44.7953 12.2198,45 12.75,45 Z m 0.0421,0.0129 c -0.006,-0.0061 -0.0069,-0.0079 -0.0049,-0.005 0.0021,0.0031 0.0058,0.0091 0.0094,0.0178 0.0037,0.0087 0.0061,0.017 0.0074,0.0237 0.0013,0.0066 10e-4,0.0089 10e-4,0.0056 h -2 c 0,0.5302 0.2047,1.0039 0.5729,1.3721 z m 0.0129,0.0421 v -16.03 h -2 v 16.03 z m -1,-17.03 h -5.81 v 2 h 5.81 z m -5.81,0 c -0.00329,0 -9.8e-4,-3e-4 0.00557,0.001 0.00672,0.0013 0.01504,0.0037 0.02374,0.0074 0.00866,0.0036 0.01472,0.0073 0.01778,0.0094 0.00289,0.002 0.00106,0.0011 -0.00498,-0.0049 L 4.62289,27.4521 C 4.99111,27.8203 5.46477,28.025 5.995,28.025 Z m 0.04211,0.0129 C 6.03106,26.0318 6.03025,26.03 6.03223,26.0329 c 0.0021,0.0031 0.00576,0.0091 0.00941,0.0178 0.00366,0.0087 0.00604,0.017 0.00735,0.0237 C 6.05027,26.081 6.05,26.0833 6.05,26.08 h -2 c 0,0.5302 0.20468,1.0039 0.57289,1.3721 z M 6.05,26.08 v -5.635 h -2 v 5.635 z m 0,-5.635 c 0,-0.0033 2.7e-4,-0.001 -0.00101,0.0056 C 6.04768,20.4573 6.0453,20.4656 6.04164,20.4743 6.03799,20.483 6.03433,20.489 6.03223,20.4921 6.03025,20.495 6.03106,20.4932 6.03711,20.4871 L 4.62289,19.0729 C 4.25468,19.4411 4.05,19.9148 4.05,20.445 Z M 6.03711,20.4871 C 6.04315,20.4811 6.04498,20.4802 6.04209,20.4822 6.03903,20.4843 6.03297,20.488 6.02431,20.4916 6.01561,20.4953 6.00729,20.4977 6.00057,20.499 5.99402,20.5003 5.99171,20.5 5.995,20.5 v -2 c -0.53023,0 -1.00389,0.2047 -1.37211,0.5729 z M 45.4818,43.72 44.7747,44.4271 v 0 z m -0.28,-8.225 h 1 v -1 h -1 z m -5.67,0 v -1 h -1 v 1 z m -0.28,8.225 -0.7071,-0.7071 v 0 z m -8.19,0.035 -0.7071,0.7071 0.0236,0.0236 0.025,0.0219 z m 0,-23.975 0.7071,0.7071 v 0 z m 8.19,0 -0.7071,0.7071 v 0 z m 0.28,8.015 h -1 v 1 h 1 z m 5.67,0 v 1 h 1 v -1 z m 0.28,-8.015 -0.7071,-0.7071 v 0 z m 0.665,0.72 h 6.86 v -2 h -6.86 z m 6.86,0 c 0.0033,0 0.001,3e-4 -0.0055,-0.001 -0.0068,-0.0013 -0.0151,-0.0037 -0.0238,-0.0074 -0.0086,-0.0036 -0.0147,-0.0073 -0.0178,-0.0094 -0.0028,-0.002 -10e-4,-0.0011 0.005,0.0049 l 1.4142,-1.4142 C 54.0107,18.7047 53.5371,18.5 53.0068,18.5 Z m -0.0421,-0.0129 c 0.0061,0.0061 0.0069,0.0079 0.0049,0.005 -0.0021,-0.0031 -0.0058,-0.0091 -0.0094,-0.0178 -0.0037,-0.0087 -0.006,-0.017 -0.0074,-0.0237 -0.0012,-0.0066 -0.001,-0.0089 -0.001,-0.0056 h 2 c 0,-0.5302 -0.2046,-1.0039 -0.5729,-1.3721 z M 52.9518,20.445 v 22.61 h 2 v -22.61 z m 0,22.61 c 0,0.0033 -2e-4,10e-4 0.001,-0.0056 0.0014,-0.0067 0.0037,-0.015 0.0074,-0.0237 0.0036,-0.0087 0.0073,-0.0147 0.0094,-0.0178 0.002,-0.0029 0.0012,-0.0011 -0.0049,0.005 l 1.4142,1.4142 c 0.3683,-0.3682 0.5729,-0.8419 0.5729,-1.3721 z m 0.0129,-0.0421 c -0.006,0.006 -0.0078,0.0069 -0.005,0.0049 0.0031,-0.0021 0.0092,-0.0058 0.0178,-0.0094 0.0087,-0.0037 0.017,-0.0061 0.0238,-0.0074 C 53.0078,42.9997 53.0101,43 53.0068,43 v 2 c 0.5303,0 1.0039,-0.2047 1.3721,-0.5729 z M 53.0068,43 h -6.86 v 2 h 6.86 z m -6.86,0 c -0.0033,0 -9e-4,-3e-4 0.0056,10e-4 0.0067,0.0013 0.015,0.0037 0.0237,0.0074 0.0087,0.0036 0.0148,0.0073 0.0178,0.0094 0.0029,0.002 0.0011,0.0011 -0.005,-0.0049 l -1.4142,1.4142 C 45.1429,44.7953 45.6166,45 46.1468,45 Z m 0.0421,0.0129 c -0.006,-0.0061 -0.0068,-0.0079 -0.0048,-0.005 0.0021,0.0031 0.0057,0.0091 0.0094,0.0178 0.0036,0.0087 0.006,0.017 0.0073,0.0237 0.0013,0.0066 10e-4,0.0089 10e-4,0.0056 h -2 c 0,0.5302 0.2047,1.0039 0.5729,1.3721 z m 0.0129,0.0421 v -7.56 h -2 v 7.56 z m -1,-8.56 h -5.67 v 2 h 5.67 z m -6.67,1 v 7.56 h 2 v -7.56 z m 0,7.56 c 0,0.0033 -2e-4,10e-4 0.001,-0.0056 0.0014,-0.0067 0.0037,-0.015 0.0074,-0.0237 0.0036,-0.0087 0.0073,-0.0147 0.0094,-0.0178 0.002,-0.0029 0.0012,-0.0011 -0.0049,0.005 l 1.4142,1.4142 c 0.3683,-0.3682 0.5729,-0.8419 0.5729,-1.3721 z m 0.0129,-0.0421 c -0.006,0.006 -0.0078,0.0069 -0.005,0.0049 0.0031,-0.0021 0.0092,-0.0058 0.0178,-0.0094 0.0087,-0.0037 0.017,-0.0061 0.0238,-0.0074 C 38.5878,42.9997 38.5901,43 38.5868,43 v 2 c 0.5303,0 1.0039,-0.2047 1.3721,-0.5729 z M 38.5868,43 h -6.86 v 2 h 6.86 z m -6.86,0 c -0.011,0 -0.0165,-9e-4 -0.0176,-10e-4 -10e-4,-2e-4 9e-4,10e-5 0.0046,0.0014 0.0037,0.0014 0.0069,0.003 0.0091,0.0043 0.0021,0.0012 0.0012,10e-4 -0.0026,-0.0023 l -1.317,1.5052 C 30.7791,44.8364 31.2372,45 31.7268,45 Z m 0.0421,0.0479 c -0.0022,-0.0022 -7e-4,-0.0011 0.0025,0.0036 0.0032,0.0049 0.0064,0.0109 0.0089,0.0171 0.0025,0.0061 0.0031,0.0096 0.0029,0.0088 -2e-4,-0.0011 -0.0014,-0.008 -0.0014,-0.0224 h -2 c 0,0.5274 0.1865,1.0206 0.5729,1.4071 z m 0.0129,0.0071 v -22.61 h -2 v 22.61 z m 0,-22.61 c 0,-0.0033 3e-4,-0.001 -0.001,0.0056 -0.0013,0.0067 -0.0037,0.015 -0.0073,0.0237 -0.0037,0.0087 -0.0073,0.0147 -0.0094,0.0178 -0.002,0.0029 -0.0012,0.0011 0.0048,-0.005 l -1.4142,-1.4142 c -0.3682,0.3682 -0.5729,0.8419 -0.5729,1.3721 z m -0.0129,0.0421 c 0.0061,-0.006 0.0079,-0.0069 0.005,-0.0049 -0.003,0.0021 -0.0091,0.0058 -0.0178,0.0094 -0.0087,0.0037 -0.017,0.0061 -0.0237,0.0074 -0.0065,0.0013 -0.0089,0.001 -0.0056,0.001 v -2 c -0.5302,0 -1.0039,0.2047 -1.3721,0.5729 z M 31.7268,20.5 h 6.86 v -2 h -6.86 z m 6.86,0 c 0.0033,0 0.001,3e-4 -0.0055,-0.001 -0.0068,-0.0013 -0.0151,-0.0037 -0.0238,-0.0074 -0.0086,-0.0036 -0.0147,-0.0073 -0.0178,-0.0094 -0.0028,-0.002 -0.001,-0.0011 0.005,0.0049 l 1.4142,-1.4142 C 39.5907,18.7047 39.1171,18.5 38.5868,18.5 Z m -0.0421,-0.0129 c 0.0061,0.0061 0.0069,0.0079 0.0049,0.005 -0.0021,-0.0031 -0.0058,-0.0091 -0.0094,-0.0178 -0.0037,-0.0087 -0.006,-0.017 -0.0074,-0.0237 -0.0012,-0.0066 -0.001,-0.0089 -0.001,-0.0056 h 2 c 0,-0.5302 -0.2046,-1.0039 -0.5729,-1.3721 z M 38.5318,20.445 v 7.35 h 2 v -7.35 z m 1,8.35 h 5.67 v -2 h -5.67 z m 6.67,-1 v -7.35 h -2 v 7.35 z m 0,-7.35 c 0,-0.0033 3e-4,-0.001 -10e-4,0.0056 -0.0013,0.0067 -0.0037,0.015 -0.0073,0.0237 -0.0037,0.0087 -0.0073,0.0147 -0.0094,0.0178 -0.002,0.0029 -0.0012,0.0011 0.0048,-0.005 l -1.4142,-1.4142 c -0.3682,0.3682 -0.5729,0.8419 -0.5729,1.3721 z m -0.0129,0.0421 c 0.0061,-0.006 0.0079,-0.0069 0.005,-0.0049 -0.003,0.0021 -0.0091,0.0058 -0.0178,0.0094 -0.0087,0.0037 -0.017,0.0061 -0.0237,0.0074 -0.0065,0.0013 -0.0089,0.001 -0.0056,0.001 v -2 c -0.5302,0 -1.0039,0.2047 -1.3721,0.5729 z M 80.5516,19.78 81.2587,19.0729 v 0 z m -2.765,22.12 0.6269,0.7791 0.0053,-0.0044 z m -16.59,0 -0.6269,0.7791 0.0043,0.0035 z m -2.765,-22.12 -0.7071,-0.7071 v 0 z m 8.19,0 0.7071,-0.7071 v 0 z m 5.74,0 0.7071,0.7071 v 0 z m 0.665,0.72 h 6.86 v -2 h -6.86 z m 6.86,0 c 0.0033,0 9e-4,3e-4 -0.0056,-0.001 -0.0067,-0.0013 -0.015,-0.0037 -0.0237,-0.0074 -0.0087,-0.0036 -0.0148,-0.0073 -0.0178,-0.0094 -0.0029,-0.002 -0.0011,-0.0011 0.005,0.0049 l 1.4142,-1.4142 C 80.8905,18.7047 80.4168,18.5 79.8866,18.5 Z m -0.0421,-0.0129 c 0.006,0.006 0.0068,0.0079 0.0048,0.005 -0.0021,-0.0031 -0.0057,-0.0091 -0.0094,-0.0178 -0.0036,-0.0087 -0.006,-0.017 -0.0073,-0.0237 -0.0013,-0.0066 -0.001,-0.0089 -0.001,-0.0056 h 2 c 0,-0.5302 -0.2047,-1.0039 -0.5729,-1.3721 z M 79.8316,20.445 v 14.07 h 2 v -14.07 z m 0,14.07 c 0,3.0473 -0.9363,5.1894 -2.6773,6.6102 l 1.2645,1.5495 c 2.319,-1.8924 3.4128,-4.6737 3.4128,-8.1597 z m -2.6719,6.6059 C 75.36,42.5689 72.8417,43.35 69.4916,43.35 v 2 c 3.6498,0 6.6616,-0.8523 8.9218,-2.6709 z M 69.4916,43.35 c -3.3243,0 -5.8463,-0.7799 -7.6725,-2.2326 l -1.2451,1.5652 c 2.2805,1.814 5.2885,2.6674 8.9176,2.6674 z M 61.8234,41.1209 C 60.0896,39.7258 59.1516,37.589 59.1516,34.515 h -2 c 0,3.506 1.0919,6.2925 3.4181,8.1641 z M 59.1516,34.515 v -14.07 h -2 v 14.07 z m 0,-14.07 c 0,-0.0033 2e-4,-0.001 -0.001,0.0056 -0.0014,0.0067 -0.0037,0.015 -0.0074,0.0237 -0.0036,0.0087 -0.0073,0.0147 -0.0094,0.0178 -0.002,0.0029 -0.0012,0.0011 0.0049,-0.005 l -1.4142,-1.4142 c -0.3683,0.3682 -0.5729,0.8419 -0.5729,1.3721 z m -0.0129,0.0421 c 0.006,-0.006 0.0078,-0.0069 0.005,-0.0049 -0.0031,0.0021 -0.0092,0.0058 -0.0178,0.0094 -0.0087,0.0037 -0.017,0.0061 -0.0238,0.0074 -0.0065,0.0013 -0.0088,0.001 -0.0055,0.001 v -2 c -0.5303,0 -1.0039,0.2047 -1.3721,0.5729 z M 59.0966,20.5 h 6.86 v -2 h -6.86 z m 6.86,0 c 0.0033,0 9e-4,3e-4 -0.0056,-0.001 -0.0067,-0.0013 -0.015,-0.0037 -0.0237,-0.0074 -0.0087,-0.0036 -0.0148,-0.0073 -0.0178,-0.0094 -0.0029,-0.002 -0.0011,-0.0011 0.005,0.0049 l 1.4142,-1.4142 C 66.9605,18.7047 66.4868,18.5 65.9566,18.5 Z m -0.0421,-0.0129 c 0.006,0.0061 0.0068,0.0079 0.0048,0.005 -0.0021,-0.0031 -0.0057,-0.0091 -0.0094,-0.0178 -0.0036,-0.0087 -0.006,-0.017 -0.0073,-0.0237 -0.0013,-0.0066 -0.001,-0.0089 -0.001,-0.0056 h 2 c 0,-0.5302 -0.2047,-1.0039 -0.5729,-1.3721 z M 65.9016,20.445 V 34.62 h 2 V 20.445 Z m 0,14.175 c 0,1.0428 0.2499,2.0102 0.9264,2.7142 0.6837,0.7113 1.6357,0.9808 2.6636,0.9808 v -2 c -0.6989,0 -1.0418,-0.1797 -1.2215,-0.3667 -0.1868,-0.1944 -0.3685,-0.5744 -0.3685,-1.3283 z m 3.59,3.695 c 1.0278,0 1.9798,-0.2695 2.6635,-0.9808 0.6765,-0.704 0.9265,-1.6714 0.9265,-2.7142 h -2 c 0,0.7539 -0.1817,1.1339 -0.3686,1.3283 -0.1796,0.187 -0.5226,0.3667 -1.2214,0.3667 z m 3.59,-3.695 V 20.445 h -2 V 34.62 Z m 0,-14.175 c 0,-0.0033 2e-4,-0.001 -10e-4,0.0056 -0.0014,0.0067 -0.0037,0.015 -0.0074,0.0237 -0.0036,0.0087 -0.0073,0.0147 -0.0094,0.0178 -0.002,0.0029 -0.0012,0.0011 0.0049,-0.005 l -1.4142,-1.4142 c -0.3683,0.3682 -0.5729,0.8419 -0.5729,1.3721 z m -0.0129,0.0421 c 0.006,-0.006 0.0078,-0.0069 0.005,-0.0049 -0.0031,0.0021 -0.0092,0.0058 -0.0178,0.0094 -0.0087,0.0037 -0.017,0.0061 -0.0238,0.0074 -0.0065,0.0013 -0.0088,0.001 -0.0055,0.001 v -2 c -0.5303,0 -1.0039,0.2047 -1.3721,0.5729 z m 34.4963,22.3579 0.894,-0.4472 -0.007,-0.0139 -0.007,-0.0137 z m -0.14,0.945 0.707,0.7071 v 0 z m -9.205,-0.735 0.9138,-0.4061 -0.002,-0.0045 z M 95.21,36.37 96.1218,35.9594 95.8564,35.37 H 95.21 Z m -1.435,0 v -1 h -1 v 1 z m -0.28,7.35 -0.7071,-0.7071 v 0 z m -8.19,0 0.7071,-0.7071 v 0 z m 0,-23.94 0.7071,0.7071 v 0 z m 18.9,1.995 -0.626,0.7799 0.006,0.0047 z m -0.945,13.09 -0.538,-0.8427 -0.783,0.5001 0.441,0.8174 z M 93.775,26.01 v -1 h -1 v 1 z m 0,3.71 h -1 v 1 h 1 z m 3.745,-0.49 0.7593,0.6508 0.011,-0.0129 0.0106,-0.0132 z m 0,-2.625 -0.8396,0.5433 0.0188,0.029 0.0208,0.0277 z m 9.151,16.6872 c 0,10e-5 -0.001,-3e-4 -0.001,-0.0013 0,-10e-4 -0.001,-0.0018 -0.001,-0.0023 0,-0.0014 0.001,0.0017 0.001,0.0114 h 2 c 0,-0.3116 -0.068,-0.6173 -0.211,-0.9022 z M 106.67,43.3 c 0,-0.0911 0.024,-0.1616 0.044,-0.2022 0.018,-0.0361 0.029,-0.0398 0.004,-0.0149 l 1.414,1.4142 c 0.272,-0.2723 0.538,-0.675 0.538,-1.1971 z m 0.048,-0.2171 c 0.021,-0.0208 0.055,-0.0461 0.099,-0.0639 C 106.861,43.0017 106.892,43 106.9,43 v 2 c 0.457,0 0.892,-0.1631 1.232,-0.5029 z M 106.9,43 h -7.175 v 2 h 7.175 z m -7.175,0 c -0.2153,0 -0.3275,-0.0458 -0.387,-0.0831 -0.0563,-0.0354 -0.1313,-0.1041 -0.2042,-0.268 l -1.8276,0.8122 c 0.2071,0.4661 0.5229,0.8699 0.9683,1.1495 C 98.7166,44.8883 99.2169,45 99.725,45 Z m -0.5932,-0.3556 -3.01,-6.685 -1.8236,0.8212 3.01,6.685 z M 95.21,35.37 h -1.435 v 2 h 1.435 z m -2.435,1 v 6.685 h 2 V 36.37 Z m 0,6.685 c 0,0.0033 -3e-4,10e-4 10e-4,-0.0056 0.0013,-0.0067 0.0037,-0.015 0.0074,-0.0237 0.0036,-0.0087 0.0073,-0.0147 0.0094,-0.0178 0.002,-0.0029 0.0011,-0.0011 -0.0049,0.005 l 1.4142,1.4142 c 0.3682,-0.3682 0.5729,-0.8419 0.5729,-1.3721 z m 0.0129,-0.0421 c -0.0061,0.006 -0.0079,0.0069 -0.005,0.0049 0.0031,-0.0021 0.0091,-0.0058 0.0178,-0.0094 0.0087,-0.0037 0.017,-0.0061 0.0237,-0.0074 C 92.831,42.9997 92.8333,43 92.83,43 v 2 c 0.5302,0 1.0039,-0.2047 1.3721,-0.5729 z M 92.83,43 h -6.86 v 2 h 6.86 z m -6.86,0 c -0.0033,0 -0.001,-3e-4 0.0056,10e-4 0.0067,0.0013 0.015,0.0037 0.0237,0.0074 0.0087,0.0036 0.0147,0.0073 0.0178,0.0094 0.0029,0.002 0.0011,0.0011 -0.005,-0.0049 l -1.4142,1.4142 C 84.9661,44.7953 85.4398,45 85.97,45 Z m 0.0421,0.0129 c -0.006,-0.0061 -0.0069,-0.0079 -0.0049,-0.005 0.0021,0.0031 0.0058,0.0091 0.0094,0.0178 0.0037,0.0087 0.0061,0.017 0.0074,0.0237 0.0013,0.0066 0.001,0.0089 0.001,0.0056 h -2 c 0,0.5302 0.2047,1.0039 0.5729,1.3721 z m 0.0129,0.0421 v -22.61 h -2 v 22.61 z m 0,-22.61 c 0,-0.0033 3e-4,-0.001 -0.001,0.0056 -0.0013,0.0067 -0.0037,0.015 -0.0074,0.0237 -0.0036,0.0087 -0.0073,0.0147 -0.0094,0.0178 -0.002,0.0029 -0.0011,0.0011 0.0049,-0.005 l -1.4142,-1.4142 c -0.3682,0.3682 -0.5729,0.8419 -0.5729,1.3721 z m -0.0129,0.0421 c 0.0061,-0.006 0.0079,-0.0069 0.005,-0.0049 -0.0031,0.0021 -0.0091,0.0058 -0.0178,0.0094 -0.0087,0.0037 -0.017,0.0061 -0.0237,0.0074 C 85.969,20.5003 85.9667,20.5 85.97,20.5 v -2 c -0.5302,0 -1.0039,0.2047 -1.3721,0.5729 z M 85.97,20.5 h 10.36 v -2 H 85.97 Z m 10.36,0 c 3.2193,0 5.594,0.7269 7.249,2.0549 l 1.252,-1.5598 C 102.706,19.2897 99.8307,18.5 96.33,18.5 Z m 7.255,2.0596 c 1.607,1.2699 2.455,3.1139 2.455,5.6904 h 2 c 0,-3.0702 -1.042,-5.5428 -3.215,-7.2596 z m 2.455,5.6904 c 0,2.4318 -1.063,4.3311 -3.318,5.7723 l 1.076,1.6854 c 2.785,-1.7788 4.242,-4.2895 4.242,-7.4577 z m -3.66,7.0898 4.305,7.98 1.76,-0.9496 -4.305,-7.98 z M 92.775,26.01 v 3.71 h 2 v -3.71 z m 1,4.71 h 2.555 v -2 h -2.555 z m 2.555,0 c 0.7433,0 1.4423,-0.2478 1.9493,-0.8392 L 96.7607,28.5792 C 96.7077,28.6411 96.6134,28.72 96.33,28.72 Z m 1.9709,-0.8653 C 98.743,29.3021 98.94,28.6407 98.94,27.935 h -2 c 0,0.321 -0.083,0.5229 -0.2009,0.6703 z M 98.94,27.935 c 0,-0.7069 -0.1971,-1.3662 -0.62,-1.93 l -1.6,1.2 c 0.1371,0.1828 0.22,0.4102 0.22,0.73 z M 98.3596,26.0617 C 97.891,25.3376 97.1517,25.01 96.33,25.01 v 2 c 0.2516,0 0.3057,0.0691 0.3504,0.1383 z M 96.33,25.01 h -2.555 v 2 h 2.555 z m 16.982,-3.62 -0.602,-0.7989 -0.004,0.0035 z m 15.645,0.105 -0.611,0.7923 0.005,0.0033 z m 2.835,5.46 0.707,0.7071 v 0 z m -8.96,-0.385 -0.667,0.7452 v 0 z m -2.66,1.26 -0.399,0.9171 0.007,0.003 0.007,0.003 z m 3.08,0.63 0.126,-0.992 -0.002,-3e-4 z m 7.42,2.45 -0.63,0.7772 0.007,0.0055 0.007,0.0053 z m -1.05,11.2 0.566,0.8238 0.002,-0.0013 z m -16.835,0.07 -0.585,0.8112 v 0 z m -2.8,-5.81 0.707,0.7071 v 0 z m 8.82,0.455 -0.625,0.7809 0.007,0.0059 0.008,0.0058 z m 4.165,-1.225 -0.348,0.9377 0.016,0.0058 0.015,0.0052 z m -3.57,-0.7 0.132,-0.9912 -0.002,-2e-4 z m -8.03,-7.7 c 0,-2.0552 0.824,-3.7026 2.546,-5.0146 l -1.212,-1.5908 c -2.198,1.6746 -3.334,3.9006 -3.334,6.6054 z m 2.541,-5.0111 c 1.766,-1.3295 4.126,-2.0389 7.169,-2.0389 v -2 c -3.351,0 -6.171,0.784 -8.372,2.4411 z m 7.169,-2.0389 c 3.056,0 5.45,0.74 7.264,2.1373 l 1.221,-1.5846 C 127.321,18.9733 124.465,18.15 121.082,18.15 Z m 7.269,2.1406 c 1.936,1.4745 2.686,2.8482 2.686,4.1044 h 2 c 0,-2.1504 -1.305,-4.0435 -3.475,-5.6956 z m 2.686,4.1044 c 0,-0.0286 0.006,-0.0663 0.022,-0.1033 0.016,-0.0352 0.031,-0.049 0.025,-0.0438 l 1.415,1.4142 c 0.33,-0.3303 0.538,-0.7641 0.538,-1.2671 z m 0.047,-0.1471 c 0.01,-0.0097 0.038,-0.034 0.086,-0.0545 0.049,-0.0211 0.096,-0.0284 0.132,-0.0284 v 2 c 0.469,0 0.882,-0.188 1.197,-0.5029 z m 0.218,-0.0829 h -7 v 2 h 7 z m -7,0 c -0.264,0 -0.522,-0.0884 -0.804,-0.3402 l -1.333,1.4904 c 0.605,0.5416 1.327,0.8498 2.137,0.8498 z m -0.804,-0.3402 c -0.67,-0.5995 -1.524,-0.8498 -2.451,-0.8498 v 2 c 0.565,0 0.901,0.1464 1.118,0.3402 z m -2.451,-0.8498 c -0.625,0 -1.257,0.0853 -1.764,0.3812 -0.59,0.3443 -0.916,0.9199 -0.916,1.5988 h 2 c 0,-0.017 0.002,0.0164 -0.027,0.0674 -0.03,0.0513 -0.061,0.0679 -0.05,0.0614 0.018,-0.0103 0.079,-0.0401 0.212,-0.0659 0.132,-0.0256 0.31,-0.0429 0.545,-0.0429 z m -2.68,1.98 c 0,0.9751 0.772,1.5163 1.406,1.7921 l 0.797,-1.8342 c -0.093,-0.0406 -0.159,-0.0771 -0.204,-0.1064 -0.022,-0.0145 -0.038,-0.0262 -0.048,-0.0346 -0.01,-0.0084 -0.014,-0.0128 -0.014,-0.0127 0,8e-4 0.018,0.0207 0.035,0.0616 0.018,0.0428 0.028,0.0901 0.028,0.1342 z m 1.42,1.7981 c 0.7,0.2916 1.851,0.513 3.341,0.6992 l 0.248,-1.9846 c -1.498,-0.1871 -2.4,-0.3857 -2.82,-0.5608 z m 3.338,0.6989 c 3.426,0.4369 5.669,1.2249 6.917,2.2352 l 1.259,-1.5544 c -1.692,-1.3697 -4.396,-2.215 -7.923,-2.6648 z m 6.931,2.246 c 1.187,0.9277 1.856,2.381 1.856,4.567 h 2 c 0,-2.6207 -0.826,-4.7374 -2.625,-6.143 z m 1.856,4.567 c 0,2.0081 -0.898,3.6664 -2.859,5.0225 l 1.137,1.645 c 2.426,-1.6772 3.722,-3.9156 3.722,-6.6675 z m -2.857,5.0212 c -1.956,1.3456 -4.585,2.0638 -7.973,2.0638 v 2 c 3.658,0 6.722,-0.7752 9.106,-2.4162 z m -7.973,2.0638 c -3.4,0 -5.933,-0.6995 -7.711,-1.9812 l -1.169,1.6224 c 2.235,1.6116 5.232,2.3588 8.88,2.3588 z m -7.711,-1.9812 c -1.802,-1.2995 -2.594,-2.7825 -2.594,-4.4738 h -2 c 0,2.462 1.214,4.5023 3.425,6.0962 z m -2.594,-4.4738 c 0,0.0077 -0.002,0.0393 -0.019,0.0826 -0.018,0.0446 -0.043,0.0787 -0.064,0.0995 l -1.415,-1.4142 c -0.339,0.3398 -0.502,0.7747 -0.502,1.2321 z m -0.083,0.1821 c 0.005,-0.0052 -0.009,0.0099 -0.044,0.0253 -0.037,0.0162 -0.075,0.0226 -0.103,0.0226 v -2 c -0.503,0 -0.937,0.2076 -1.268,0.5379 z m -0.147,0.0479 h 6.65 v -2 h -6.65 z m 6.65,0 c 0.17,0 0.49,0.0852 0.985,0.4809 l 1.249,-1.5618 c -0.672,-0.5377 -1.425,-0.9191 -2.234,-0.9191 z m 1,0.4926 c 0.836,0.6433 1.905,0.9074 3.095,0.9074 v -2 c -0.911,0 -1.499,-0.2026 -1.876,-0.4926 z m 3.095,0.9074 c 0.908,0 1.71,-0.081 2.318,-0.3082 0.311,-0.1159 0.635,-0.2932 0.888,-0.577 0.272,-0.3047 0.419,-0.6843 0.419,-1.0948 h -2 c 0,-0.0838 0.036,-0.1776 0.09,-0.2373 0.034,-0.0388 0.03,-0.0119 -0.096,0.0355 -0.267,0.0995 -0.778,0.1818 -1.619,0.1818 z m 3.625,-1.98 c 0,-1.0843 -0.869,-1.6401 -1.629,-1.8937 l -0.633,1.8974 c 0.112,0.0372 0.191,0.0729 0.244,0.1026 0.054,0.0298 0.073,0.0487 0.074,0.0496 0,0 -0.005,-0.0048 -0.012,-0.0149 -0.007,-0.0103 -0.015,-0.0245 -0.023,-0.0424 -0.016,-0.0388 -0.021,-0.0751 -0.021,-0.0986 z m -1.598,-1.8827 c -0.748,-0.2772 -2.043,-0.5212 -3.785,-0.7535 l -0.265,1.9824 c 1.758,0.2344 2.844,0.457 3.355,0.6465 z m -3.787,-0.7537 c -2.913,-0.384 -4.955,-1.1817 -6.254,-2.2895 -1.259,-1.0735 -1.906,-2.5098 -1.906,-4.4191 h -2 c 0,2.4307 0.857,4.4477 2.608,5.9409 1.711,1.4589 4.184,2.3412 7.291,2.7505 z m 36.119,-11.8536 -0.613,0.7899 0.009,0.0071 z m -19.145,21.665 0.707,-0.7071 v 0 z m 0,-23.94 0.707,0.7071 v 0 z m 8.47,6.545 v -1 h -1 v 1 z m 0,10.85 h -1 v 1 h 1 z m 4.165,-0.7 -0.707,-0.7071 v 0 z M 137.171,20.5 h 10.08 v -2 h -10.08 z m 10.08,0 c 3.236,0 5.806,0.8063 7.787,2.3448 l 1.227,-1.5796 C 153.859,19.397 150.828,18.5 147.251,18.5 Z m 7.796,2.352 c 1.942,1.472 2.929,3.5199 2.929,6.273 h 2 c 0,-3.3136 -1.23,-5.979 -3.721,-7.867 z m 2.929,6.273 v 5.215 h 2 v -5.215 z m 0,5.215 c 0,2.9232 -0.973,5.0047 -2.825,6.4142 l 1.211,1.5916 c 2.441,-1.8571 3.614,-4.5823 3.614,-8.0058 z m -2.825,6.4142 C 153.224,42.2203 150.633,43 147.286,43 v 2 c 3.654,0 6.709,-0.8536 9.076,-2.6542 z M 147.286,43 h -10.115 v 2 h 10.115 z m -10.115,0 c -0.003,0 -0.001,-3e-4 0.006,10e-4 0.006,0.0013 0.015,0.0037 0.023,0.0074 0.009,0.0036 0.015,0.0073 0.018,0.0094 0.003,0.002 0.001,0.0011 -0.005,-0.0049 l -1.414,1.4142 C 136.167,44.7953 136.641,45 137.171,45 Z m 0.042,0.0129 c -0.006,-0.0061 -0.007,-0.0079 -0.005,-0.005 0.002,0.0031 0.006,0.0091 0.01,0.0178 0.003,0.0087 0.006,0.017 0.007,0.0237 0.001,0.0066 0.001,0.0089 0.001,0.0056 h -2 c 0,0.5302 0.205,1.0039 0.573,1.3721 z m 0.013,0.0421 v -22.61 h -2 v 22.61 z m 0,-22.61 c 0,-0.0033 0,-0.001 -0.001,0.0056 -0.001,0.0067 -0.004,0.015 -0.007,0.0237 -0.004,0.0087 -0.008,0.0147 -0.01,0.0178 -0.002,0.0029 -0.001,0.0011 0.005,-0.005 l -1.414,-1.4142 c -0.368,0.3682 -0.573,0.8419 -0.573,1.3721 z m -0.013,0.0421 c 0.006,-0.006 0.008,-0.0069 0.005,-0.0049 -0.003,0.0021 -0.009,0.0058 -0.018,0.0094 -0.008,0.0037 -0.017,0.0061 -0.023,0.0074 -0.007,0.0013 -0.009,0.001 -0.006,0.001 v -2 c -0.53,0 -1.004,0.2047 -1.372,0.5729 z m 6.763,5.8379 v 10.85 h 2 v -10.85 z m 1,11.85 h 2.275 v -2 h -2.275 z m 2.275,0 c 1.001,0 1.906,-0.3017 2.597,-0.9929 l -1.414,-1.4142 c -0.242,0.2421 -0.597,0.4071 -1.183,0.4071 z m 2.597,-0.9929 c 0.736,-0.7353 1.028,-1.7383 1.028,-2.8421 h -2 c 0,0.7628 -0.197,1.1832 -0.442,1.4279 z m 1.028,-2.8421 v -5.215 h -2 v 5.215 z m 0,-5.215 c 0,-1.072 -0.25,-2.0621 -0.927,-2.7839 -0.688,-0.734 -1.652,-1.0161 -2.698,-1.0161 v 2 c 0.704,0 1.052,0.1846 1.239,0.3839 0.199,0.2115 0.386,0.6214 0.386,1.4161 z m -3.625,-3.8 h -2.275 v 2 h 2.275 z m 32.402,-4.67 -0.965,0.2631 0.009,0.0338 0.012,0.0331 z m 7.805,22.33 0.949,-0.3162 -0.003,-0.0069 -0.002,-0.0069 z m -0.21,0.805 -0.707,-0.7071 v 0 z m -8.365,-0.665 0.941,-0.3387 -0.001,-0.003 z m -0.84,-2.31 0.94,-0.3417 -0.24,-0.6583 h -0.7 z m -7.525,0 v -1 h -0.7 l -0.24,0.6583 z m -0.84,2.31 -0.94,-0.3417 -0.001,0.003 z m -8.4,0.665 -0.759,0.6508 0.05,0.0584 0.058,0.0501 z m -0.175,-0.805 -0.944,-0.33 -0.002,0.0069 -0.003,0.0069 z m 7.805,-22.33 0.944,0.33 0.012,-0.0331 0.009,-0.0338 z m 3.395,13.335 -0.958,-0.2883 -0.387,1.2883 h 1.345 z m 3.955,0 v 1 h 1.352 l -0.396,-1.293 z m -1.995,-6.51 0.956,-0.293 -0.964,-3.1476 -0.95,3.1523 z m -3.78,-6.98 h 7.595 v -2 h -7.595 z m 7.595,0 c 0.269,0 0.385,0.0606 0.432,0.0952 0.042,0.0307 0.119,0.1053 0.178,0.3229 l 1.93,-0.5262 c -0.151,-0.5524 -0.442,-1.0553 -0.925,-1.4096 C 179.215,18.6319 178.649,18.5 178.078,18.5 Z m 0.631,0.485 7.805,22.33 1.888,-0.66 -7.805,-22.33 z m 7.8,22.3162 c -0.006,-0.0186 -0.01,-0.034 -0.013,-0.0452 -0.003,-0.0114 -0.005,-0.02 -0.006,-0.0255 -0.002,-0.0103 -0.002,-0.013 -0.001,-0.006 0.001,0.0067 0.002,0.0191 0.003,0.0384 0,0.0191 0.001,0.0429 0.001,0.0721 h 2 c 0,-0.1726 -0.008,-0.4307 -0.086,-0.6662 z m -0.016,0.0338 c 0,-0.1294 0.038,-0.2186 0.058,-0.2554 0.018,-0.0333 0.025,-0.0314 -0.01,0.0033 l 1.414,1.4142 c 0.235,-0.2351 0.538,-0.6289 0.538,-1.1621 z m 0.048,-0.2521 c 0.021,-0.0208 0.055,-0.0461 0.099,-0.0639 0.044,-0.0173 0.075,-0.019 0.083,-0.019 v 2 c 0.457,0 0.892,-0.1631 1.232,-0.5029 z M 186.723,43 h -6.475 v 2 h 6.475 z m -6.475,0 c -0.214,0 -0.301,-0.0445 -0.327,-0.0606 -0.015,-0.0098 -0.055,-0.0369 -0.097,-0.1531 l -1.882,0.6774 c 0.168,0.4671 0.46,0.8776 0.9,1.1594 0.43,0.2755 0.92,0.3769 1.406,0.3769 z m -0.425,-0.2167 -0.84,-2.31 -1.88,0.6834 0.84,2.31 z m -1.78,-2.9683 h -7.525 v 2 h 7.525 z m -8.465,0.6583 -0.84,2.31 1.88,0.6834 0.84,-2.31 z m -0.841,2.313 c -0.042,0.1162 -0.082,0.1433 -0.097,0.1531 C 168.614,42.9555 168.527,43 168.313,43 v 2 c 0.486,0 0.976,-0.1014 1.406,-0.3769 0.44,-0.2818 0.732,-0.6923 0.9,-1.1594 z M 168.313,43 h -6.475 v 2 h 6.475 z m -6.475,0 c 0.008,0 0.029,0.0019 0.054,0.0112 0.011,0.0042 0.02,0.009 0.027,0.0132 0.007,0.0041 0.01,0.0068 0.01,0.0063 l -1.302,1.5186 c 0.34,0.2912 0.756,0.4507 1.211,0.4507 z m 0.199,0.1392 c -0.026,-0.0306 -0.021,-0.0324 -0.009,-0.0045 0.015,0.0305 0.04,0.1004 0.04,0.2003 h -2 c 0,0.4779 0.235,0.8543 0.451,1.1058 z m 0.031,0.1958 c 0,-0.0292 0,-0.053 10e-4,-0.0721 0.001,-0.0193 0.002,-0.0317 0.003,-0.0384 0,-0.007 0,-0.0043 -0.001,0.006 -0.001,0.0055 -0.003,0.0141 -0.006,0.0255 -0.003,0.0112 -0.007,0.0266 -0.013,0.0452 l -1.898,-0.6324 c -0.078,0.2355 -0.086,0.4936 -0.086,0.6662 z m -0.021,-0.02 7.805,-22.33 -1.888,-0.66 -7.805,22.33 z m 7.826,-22.3969 c 0.059,-0.2176 0.136,-0.2922 0.178,-0.3229 0.047,-0.0346 0.163,-0.0952 0.432,-0.0952 v -2 c -0.571,0 -1.137,0.1319 -1.615,0.4823 -0.483,0.3543 -0.774,0.8572 -0.925,1.4096 z m 2.43,14.0719 h 3.955 v -2 h -3.955 z m 4.911,-1.293 -1.995,-6.51 -1.912,0.586 1.995,6.51 z m -3.909,-6.5053 -1.96,6.51 1.916,0.5766 1.96,-6.51 z m 23.293,16.5283 -0.707,0.7071 v 0 z m -0.28,-7.56 h 1 v -0.2384 l -0.107,-0.2128 z m -7.875,-15.575 -0.894,0.4472 0.002,0.004 z m 0.14,-0.84 0.708,0.7071 v 0 z m 8.61,0.63 -0.901,0.4328 0.006,0.0126 z m 3.5,7.035 -0.895,0.4454 0.895,1.7996 0.896,-1.7996 z m 3.5,-7.035 0.896,0.4455 0.006,-0.0128 z m 8.575,-0.63 -0.759,0.6508 0.05,0.0584 0.059,0.0501 z m 0.175,0.84 0.893,0.4512 0.002,-0.004 z m -7.875,15.575 -0.892,-0.4512 -0.108,0.2128 V 36.16 Z m -0.28,7.56 0.708,0.7071 v 0 z M 204.123,43 h -6.86 v 2 h 6.86 z m -6.86,0 c -0.003,0 -0.001,-3e-4 0.006,10e-4 0.007,0.0013 0.015,0.0037 0.024,0.0074 0.008,0.0036 0.014,0.0073 0.018,0.0094 0.002,0.002 0.001,0.0011 -0.005,-0.0049 l -1.415,1.4142 C 196.26,44.7953 196.733,45 197.263,45 Z m 0.043,0.0129 c -0.007,-0.0061 -0.007,-0.0079 -0.005,-0.005 0.002,0.0031 0.005,0.0091 0.009,0.0178 0.004,0.0087 0.006,0.017 0.007,0.0237 0.002,0.0066 0.001,0.0089 0.001,0.0056 h -2 c 0,0.5302 0.205,1.0039 0.573,1.3721 z m 0.012,0.0421 V 36.16 h -2 v 6.895 z m -0.107,-7.3462 -7.875,-15.575 -1.785,0.9024 7.875,15.575 z m -7.873,-15.571 c 0.028,0.0561 0.036,0.0952 0.037,0.1021 0.001,0.0074 -0.002,-0.004 -0.002,-0.0399 h -2 c 0,0.2396 0.032,0.5434 0.176,0.8322 z m 0.035,0.0622 c 0,0.0664 -0.015,0.1303 -0.039,0.1828 -0.023,0.0491 -0.045,0.071 -0.043,0.0693 l -1.415,-1.4142 c -0.285,0.2851 -0.503,0.679 -0.503,1.1621 z m -0.082,0.2521 c 0.005,-0.0052 -0.009,0.0099 -0.044,0.0253 -0.037,0.0162 -0.075,0.0226 -0.104,0.0226 v -2 c -0.503,0 -0.936,0.2076 -1.267,0.5379 z M 189.143,20.5 h 6.58 v -2 h -6.58 z m 6.58,0 c 0.211,0 0.323,0.0432 0.381,0.078 0.054,0.032 0.121,0.0909 0.188,0.2297 l 1.803,-0.8654 c -0.213,-0.4445 -0.531,-0.8232 -0.968,-1.0828 C 196.696,18.6027 196.213,18.5 195.723,18.5 Z m 0.575,0.3204 3.5,7.035 1.791,-0.8908 -3.5,-7.035 z m 5.291,7.035 3.5,-7.035 -1.791,-0.8908 -3.5,7.035 z m 3.506,-7.0477 c 0.067,-0.1388 0.134,-0.1977 0.187,-0.2297 0.059,-0.0348 0.171,-0.078 0.381,-0.078 v -2 c -0.489,0 -0.972,0.1027 -1.404,0.3595 -0.436,0.2596 -0.754,0.6383 -0.967,1.0828 z M 205.663,20.5 h 6.58 v -2 h -6.58 z m 6.58,0 c -0.028,0 -0.078,-0.0064 -0.134,-0.0326 -0.055,-0.0259 -0.088,-0.0576 -0.1,-0.0716 l 1.519,-1.3016 C 213.203,18.7154 212.753,18.5 212.243,18.5 Z m -0.125,0.0043 c 0.01,0.009 -0.016,-0.0107 -0.046,-0.0664 -0.033,-0.0617 -0.059,-0.145 -0.059,-0.2379 h 2 c 0,-0.5411 -0.284,-0.9484 -0.594,-1.2143 z M 212.013,20.2 c 0,0.0359 -0.002,0.0473 -0.001,0.0399 0.001,-0.0069 0.009,-0.046 0.037,-0.1021 l 1.789,0.8944 c 0.144,-0.2888 0.175,-0.5926 0.175,-0.8322 z m 0.038,-0.0662 -7.875,15.575 1.785,0.9024 7.875,-15.575 z M 204.068,36.16 v 6.895 h 2 V 36.16 Z m 0,6.895 c 0,0.0033 0,10e-4 10e-4,-0.0056 0.002,-0.0067 0.004,-0.015 0.008,-0.0237 0.003,-0.0087 0.007,-0.0147 0.009,-0.0178 0.002,-0.0029 10e-4,-0.0011 -0.005,0.005 l 1.415,1.4142 c 0.368,-0.3682 0.572,-0.8419 0.572,-1.3721 z m 0.013,-0.0421 c -0.006,0.006 -0.008,0.0069 -0.005,0.0049 0.003,-0.0021 0.009,-0.0058 0.018,-0.0094 0.009,-0.0037 0.017,-0.0061 0.024,-0.0074 0.006,-0.0013 0.009,-10e-4 0.005,-10e-4 v 2 c 0.531,0 1.004,-0.2047 1.373,-0.5729 z"
     fill="#000000"
     mask="url(#path-1-inside-1_3_20)"
     id="path2"
     transform="translate(-0.80675609,-15.90462)" />
  <path
     d="M 1.1882439,0.59538003 H 21.698244 c 0.2567,0 0.4783,0.0933 0.665,0.28 0.1867,0.18669997 0.28,0.40829997 0.28,0.66499997 v 5.635 c 0,0.2567 -0.0933,0.4783 -0.28,0.665 -0.1867,0.1867 -0.4083,0.28 -0.665,0.28 h -5.81 v 16.03 c 0,0.2567 -0.0933,0.4783 -0.28,0.665 -0.1867,0.1867 -0.4083,0.28 -0.665,0.28 H 7.9432439 c -0.25667,0 -0.47833,-0.0933 -0.665,-0.28 -0.18667,-0.1867 -0.28,-0.4083 -0.28,-0.665 v -16.03 h -5.81 c -0.25666999,0 -0.47832999,-0.0933 -0.66499999,-0.28 -0.18667,-0.1867 -0.28,-0.4083 -0.28,-0.665 v -5.635 c 0,-0.2567 0.09333,-0.4783 0.28,-0.66499997 0.18667,-0.1867 0.40833,-0.28 0.66499999,-0.28 z m 40.1518001,0 h 6.86 c 0.2567,0 0.4784,0.0933 0.665,0.28 0.1867,0.18669997 0.28,0.40829997 0.28,0.66499997 v 22.61 c 0,0.2567 -0.0933,0.4783 -0.28,0.665 -0.1866,0.1867 -0.4083,0.28 -0.665,0.28 h -6.86 c -0.2566,0 -0.4783,-0.0933 -0.665,-0.28 -0.1866,-0.1867 -0.28,-0.4083 -0.28,-0.665 v -7.56 h -5.67 v 7.56 c 0,0.2567 -0.0933,0.4783 -0.28,0.665 -0.1866,0.1867 -0.4083,0.28 -0.665,0.28 h -6.86 c -0.2566,0 -0.4783,-0.0817 -0.665,-0.245 -0.1866,-0.1867 -0.28,-0.42 -0.28,-0.7 v -22.61 c 0,-0.2567 0.0934,-0.4783 0.28,-0.66499997 0.1867,-0.1867 0.4084,-0.28 0.665,-0.28 h 6.86 c 0.2567,0 0.4784,0.0933 0.665,0.28 0.1867,0.18669997 0.28,0.40829997 0.28,0.66499997 v 7.35 h 5.67 v -7.35 c 0,-0.2567 0.0934,-0.4783 0.28,-0.66499997 0.1867,-0.1867 0.4084,-0.28 0.665,-0.28 z m 26.8798,0 h 6.86 c 0.2566,0 0.4783,0.0933 0.665,0.28 0.1866,0.18669997 0.28,0.40829997 0.28,0.66499997 v 14.07 c 0,3.2667 -1.015,5.7283 -3.045,7.385 -2.03,1.6333 -4.795,2.45 -8.295,2.45 -3.4767,0 -6.2417,-0.8167 -8.295,-2.45 -2.03,-1.6333 -3.045,-4.095 -3.045,-7.385 v -14.07 c 0,-0.2567 0.0933,-0.4783 0.28,-0.66499997 0.1866,-0.1867 0.4083,-0.28 0.665,-0.28 h 6.86 c 0.2566,0 0.4783,0.0933 0.665,0.28 0.1866,0.18669997 0.28,0.40829997 0.28,0.66499997 v 14.175 c 0,1.7967 0.8633,2.695 2.59,2.695 1.7266,0 2.59,-0.8983 2.59,-2.695 v -14.175 c 0,-0.2567 0.0933,-0.4783 0.28,-0.66499997 0.1866,-0.1867 0.4083,-0.28 0.665,-0.28 z M 102.75824,23.94038 c 0.07,0.14 0.105,0.2917 0.105,0.455 0,0.1633 -0.082,0.3267 -0.245,0.49 -0.14,0.14 -0.315,0.21 -0.525,0.21 h -7.174996 c -0.7233,0 -1.225,-0.315 -1.505,-0.945 l -3.01,-6.685 h -1.435 v 6.685 c 0,0.2567 -0.0933,0.4783 -0.28,0.665 -0.1867,0.1867 -0.4083,0.28 -0.665,0.28 h -6.86 c -0.2567,0 -0.4783,-0.0933 -0.665,-0.28 -0.1867,-0.1867 -0.28,-0.4083 -0.28,-0.665 v -22.61 c 0,-0.2567 0.0933,-0.4783 0.28,-0.66499997 0.1867,-0.1867 0.4083,-0.28 0.665,-0.28 h 10.36 c 3.36,0 5.985,0.75829997 7.875,2.27499997 1.889996,1.4933 2.834996,3.6517 2.834996,6.475 0,2.8 -1.26,5.005 -3.779996,6.615 z M 88.968244,7.10538 v 3.71 h 2.555 c 0.5133,0 0.91,-0.1633 1.19,-0.49 0.28,-0.35 0.42,-0.7817 0.42,-1.295 0,-0.5133 -0.14,-0.9567 -0.42,-1.33 -0.2567,-0.3967 -0.6533,-0.595 -1.19,-0.595 z m 16.596996,1.19 c 0,-2.38 0.98,-4.3167 2.94,-5.81 1.983,-1.49329997 4.573,-2.23999997 7.77,-2.23999997 3.22,0 5.845,0.78169997 7.875,2.34499997 2.053,1.5633 3.08,3.1967 3.08,4.9 0,0.21 -0.082,0.3967 -0.245,0.56 -0.14,0.14 -0.304,0.21 -0.49,0.21 h -7 c -0.537,0 -1.027,-0.1983 -1.47,-0.595 -0.444,-0.3967 -1.039,-0.595 -1.785,-0.595 -1.12,0 -1.68,0.3267 -1.68,0.98 0,0.35 0.268,0.6417 0.805,0.875 0.56,0.2333 1.586,0.4433 3.08,0.63 3.476,0.4433 5.95,1.26 7.42,2.45 1.493,1.1667 2.24,2.9517 2.24,5.355 0,2.38 -1.097,4.3283 -3.29,5.845 -2.17,1.4933 -5.017,2.24 -8.54,2.24 -3.524,0 -6.289,-0.7233 -8.295,-2.17 -2.007,-1.4467 -3.01,-3.2083 -3.01,-5.285 0,-0.21 0.07,-0.385 0.21,-0.525 0.163,-0.1633 0.35,-0.245 0.56,-0.245 h 6.65 c 0.49,0 1.026,0.2333 1.61,0.7 0.606,0.4667 1.435,0.7 2.485,0.7 1.75,0 2.625,-0.3267 2.625,-0.98 0,-0.42 -0.315,-0.735 -0.945,-0.945 -0.63,-0.2333 -1.82,-0.4667 -3.57,-0.7 -6.02,-0.7933 -9.03,-3.36 -9.03,-7.7 z m 26.799,-7.69999997 h 10.08 c 3.407,0 6.207,0.85169997 8.4,2.55499997 2.217,1.68 3.325,4.0367 3.325,7.07 v 5.215 c 0,3.1733 -1.073,5.5767 -3.22,7.21 -2.146,1.6333 -4.97,2.45 -8.47,2.45 h -10.115 c -0.256,0 -0.478,-0.0933 -0.665,-0.28 -0.186,-0.1867 -0.28,-0.4083 -0.28,-0.665 v -22.61 c 0,-0.2567 0.094,-0.4783 0.28,-0.66499997 0.187,-0.1867 0.409,-0.28 0.665,-0.28 z m 7.805,6.82499997 v 10.85 h 2.275 c 0.794,0 1.424,-0.2333 1.89,-0.7 0.49,-0.49 0.735,-1.2017 0.735,-2.135 v -5.215 c 0,-1.8667 -0.875,-2.8 -2.625,-2.8 z m 25.507,-6.82499997 h 7.595 c 0.84,0 1.365,0.385 1.575,1.15499997 l 7.805,22.33 c 0.023,0.07 0.035,0.1867 0.035,0.35 0,0.14 -0.082,0.2917 -0.245,0.455 -0.14,0.14 -0.315,0.21 -0.525,0.21 h -6.475 c -0.7,0 -1.155,-0.2917 -1.365,-0.875 l -0.84,-2.31 h -7.525 l -0.84,2.31 c -0.21,0.5833 -0.665,0.875 -1.365,0.875 h -6.475 c -0.21,0 -0.397,-0.07 -0.56,-0.21 -0.14,-0.1633 -0.21,-0.315 -0.21,-0.455 0,-0.1633 0.012,-0.28 0.035,-0.35 l 7.805,-22.33 c 0.21,-0.76999997 0.735,-1.15499997 1.575,-1.15499997 z m 1.82,14.48999997 h 3.955 l -1.995,-6.51 z m 31.82,10.01 h -6.86 c -0.256,0 -0.478,-0.0933 -0.665,-0.28 -0.186,-0.1867 -0.28,-0.4083 -0.28,-0.665 v -6.895 l -7.875,-15.575 c -0.046,-0.0933 -0.07,-0.2217 -0.07,-0.385 0,-0.1633 0.07,-0.31499997 0.21,-0.45499997 0.164,-0.1633 0.35,-0.245 0.56,-0.245 h 6.58 c 0.7,0 1.19,0.2917 1.47,0.87499997 l 3.5,7.035 3.5,-7.035 c 0.28,-0.58329997 0.77,-0.87499997 1.47,-0.87499997 h 6.58 c 0.21,0 0.385,0.0817 0.525,0.245 0.164,0.14 0.245,0.29169997 0.245,0.45499997 0,0.1633 -0.023,0.2917 -0.07,0.385 l -7.875,15.575 v 6.895 c 0,0.2567 -0.093,0.4783 -0.28,0.665 -0.186,0.1867 -0.408,0.28 -0.665,0.28 z"
     fill="#343131"
     id="path3" />
</svg>
