<svg width="232" height="56" viewBox="0 0 232 56" fill="none" xmlns="http://www.w3.org/2000/svg">
<mask id="path-1-inside-1_3_20" fill="white">
<path d="M5.995 19.5H26.505C26.7617 19.5 26.9833 19.5933 27.17 19.78C27.3567 19.9667 27.45 20.1883 27.45 20.445V26.08C27.45 26.3367 27.3567 26.5583 27.17 26.745C26.9833 26.9317 26.7617 27.025 26.505 27.025H20.695V43.055C20.695 43.3117 20.6017 43.5333 20.415 43.72C20.2283 43.9067 20.0067 44 19.75 44H12.75C12.4933 44 12.2717 43.9067 12.085 43.72C11.8983 43.5333 11.805 43.3117 11.805 43.055V27.025H5.995C5.73833 27.025 5.51667 26.9317 5.33 26.745C5.14333 26.5583 5.05 26.3367 5.05 26.08V20.445C5.05 20.1883 5.14333 19.9667 5.33 19.78C5.51667 19.5933 5.73833 19.5 5.995 19.5ZM46.1468 19.5H53.0068C53.2635 19.5 53.4852 19.5933 53.6718 19.78C53.8585 19.9667 53.9518 20.1883 53.9518 20.445V43.055C53.9518 43.3117 53.8585 43.5333 53.6718 43.72C53.4852 43.9067 53.2635 44 53.0068 44H46.1468C45.8902 44 45.6685 43.9067 45.4818 43.72C45.2952 43.5333 45.2018 43.3117 45.2018 43.055V35.495H39.5318V43.055C39.5318 43.3117 39.4385 43.5333 39.2518 43.72C39.0652 43.9067 38.8435 44 38.5868 44H31.7268C31.4702 44 31.2485 43.9183 31.0618 43.755C30.8752 43.5683 30.7818 43.335 30.7818 43.055V20.445C30.7818 20.1883 30.8752 19.9667 31.0618 19.78C31.2485 19.5933 31.4702 19.5 31.7268 19.5H38.5868C38.8435 19.5 39.0652 19.5933 39.2518 19.78C39.4385 19.9667 39.5318 20.1883 39.5318 20.445V27.795H45.2018V20.445C45.2018 20.1883 45.2952 19.9667 45.4818 19.78C45.6685 19.5933 45.8902 19.5 46.1468 19.5ZM73.0266 19.5H79.8866C80.1432 19.5 80.3649 19.5933 80.5516 19.78C80.7382 19.9667 80.8316 20.1883 80.8316 20.445V34.515C80.8316 37.7817 79.8166 40.2433 77.7866 41.9C75.7566 43.5333 72.9916 44.35 69.4916 44.35C66.0149 44.35 63.2499 43.5333 61.1966 41.9C59.1666 40.2667 58.1516 37.805 58.1516 34.515V20.445C58.1516 20.1883 58.2449 19.9667 58.4316 19.78C58.6182 19.5933 58.8399 19.5 59.0966 19.5H65.9566C66.2132 19.5 66.4349 19.5933 66.6216 19.78C66.8082 19.9667 66.9016 20.1883 66.9016 20.445V34.62C66.9016 36.4167 67.7649 37.315 69.4916 37.315C71.2182 37.315 72.0816 36.4167 72.0816 34.62V20.445C72.0816 20.1883 72.1749 19.9667 72.3616 19.78C72.5482 19.5933 72.7699 19.5 73.0266 19.5ZM107.565 42.845C107.635 42.985 107.67 43.1367 107.67 43.3C107.67 43.4633 107.588 43.6267 107.425 43.79C107.285 43.93 107.11 44 106.9 44H99.725C99.0017 44 98.5 43.685 98.22 43.055L95.21 36.37H93.775V43.055C93.775 43.3117 93.6817 43.5333 93.495 43.72C93.3083 43.9067 93.0867 44 92.83 44H85.97C85.7133 44 85.4917 43.9067 85.305 43.72C85.1183 43.5333 85.025 43.3117 85.025 43.055V20.445C85.025 20.1883 85.1183 19.9667 85.305 19.78C85.4917 19.5933 85.7133 19.5 85.97 19.5H96.33C99.69 19.5 102.315 20.2583 104.205 21.775C106.095 23.2683 107.04 25.4267 107.04 28.25C107.04 31.05 105.78 33.255 103.26 34.865L107.565 42.845ZM93.775 26.01V29.72H96.33C96.8433 29.72 97.24 29.5567 97.52 29.23C97.8 28.88 97.94 28.4483 97.94 27.935C97.94 27.4217 97.8 26.9783 97.52 26.605C97.2633 26.2083 96.8667 26.01 96.33 26.01H93.775ZM110.372 27.2C110.372 24.82 111.352 22.8833 113.312 21.39C115.295 19.8967 117.885 19.15 121.082 19.15C124.302 19.15 126.927 19.9317 128.957 21.495C131.01 23.0583 132.037 24.6917 132.037 26.395C132.037 26.605 131.955 26.7917 131.792 26.955C131.652 27.095 131.488 27.165 131.302 27.165H124.302C123.765 27.165 123.275 26.9667 122.832 26.57C122.388 26.1733 121.793 25.975 121.047 25.975C119.927 25.975 119.367 26.3017 119.367 26.955C119.367 27.305 119.635 27.5967 120.172 27.83C120.732 28.0633 121.758 28.2733 123.252 28.46C126.728 28.9033 129.202 29.72 130.672 30.91C132.165 32.0767 132.912 33.8617 132.912 36.265C132.912 38.645 131.815 40.5933 129.622 42.11C127.452 43.6033 124.605 44.35 121.082 44.35C117.558 44.35 114.793 43.6267 112.787 42.18C110.78 40.7333 109.777 38.9717 109.777 36.895C109.777 36.685 109.847 36.51 109.987 36.37C110.15 36.2067 110.337 36.125 110.547 36.125H117.197C117.687 36.125 118.223 36.3583 118.807 36.825C119.413 37.2917 120.242 37.525 121.292 37.525C123.042 37.525 123.917 37.1983 123.917 36.545C123.917 36.125 123.602 35.81 122.972 35.6C122.342 35.3667 121.152 35.1333 119.402 34.9C113.382 34.1067 110.372 31.54 110.372 27.2ZM137.171 19.5H147.251C150.658 19.5 153.458 20.3517 155.651 22.055C157.868 23.735 158.976 26.0917 158.976 29.125V34.34C158.976 37.5133 157.903 39.9167 155.756 41.55C153.61 43.1833 150.786 44 147.286 44H137.171C136.915 44 136.693 43.9067 136.506 43.72C136.32 43.5333 136.226 43.3117 136.226 43.055V20.445C136.226 20.1883 136.32 19.9667 136.506 19.78C136.693 19.5933 136.915 19.5 137.171 19.5ZM144.976 26.325V37.175H147.251C148.045 37.175 148.675 36.9417 149.141 36.475C149.631 35.985 149.876 35.2733 149.876 34.34V29.125C149.876 27.2583 149.001 26.325 147.251 26.325H144.976ZM170.483 19.5H178.078C178.918 19.5 179.443 19.885 179.653 20.655L187.458 42.985C187.481 43.055 187.493 43.1717 187.493 43.335C187.493 43.475 187.411 43.6267 187.248 43.79C187.108 43.93 186.933 44 186.723 44H180.248C179.548 44 179.093 43.7083 178.883 43.125L178.043 40.815H170.518L169.678 43.125C169.468 43.7083 169.013 44 168.313 44H161.838C161.628 44 161.441 43.93 161.278 43.79C161.138 43.6267 161.068 43.475 161.068 43.335C161.068 43.1717 161.08 43.055 161.103 42.985L168.908 20.655C169.118 19.885 169.643 19.5 170.483 19.5ZM172.303 33.99H176.258L174.263 27.48L172.303 33.99ZM204.123 44H197.263C197.007 44 196.785 43.9067 196.598 43.72C196.412 43.5333 196.318 43.3117 196.318 43.055V36.16L188.443 20.585C188.397 20.4917 188.373 20.3633 188.373 20.2C188.373 20.0367 188.443 19.885 188.583 19.745C188.747 19.5817 188.933 19.5 189.143 19.5H195.723C196.423 19.5 196.913 19.7917 197.193 20.375L200.693 27.41L204.193 20.375C204.473 19.7917 204.963 19.5 205.663 19.5H212.243C212.453 19.5 212.628 19.5817 212.768 19.745C212.932 19.885 213.013 20.0367 213.013 20.2C213.013 20.3633 212.99 20.4917 212.943 20.585L205.068 36.16V43.055C205.068 43.3117 204.975 43.5333 204.788 43.72C204.602 43.9067 204.38 44 204.123 44Z"/>
</mask>
<path d="M27.17 19.78L27.8771 19.0729L27.8771 19.0729L27.17 19.78ZM27.17 26.745L27.8771 27.4521L27.8771 27.4521L27.17 26.745ZM20.695 27.025V26.025H19.695V27.025H20.695ZM20.415 43.72L19.7079 43.0129L19.7079 43.0129L20.415 43.72ZM11.805 27.025H12.805V26.025H11.805V27.025ZM5.995 20.5H26.505V18.5H5.995V20.5ZM26.505 20.5C26.5083 20.5 26.506 20.5003 26.4994 20.499C26.4927 20.4977 26.4844 20.4953 26.4757 20.4916C26.467 20.488 26.461 20.4843 26.4579 20.4822C26.455 20.4802 26.4568 20.4811 26.4629 20.4871L27.8771 19.0729C27.5089 18.7047 27.0352 18.5 26.505 18.5V20.5ZM26.4629 20.4871C26.4689 20.4931 26.4698 20.495 26.4678 20.4921C26.4657 20.489 26.462 20.483 26.4584 20.4743C26.4547 20.4656 26.4523 20.4573 26.451 20.4506C26.4497 20.444 26.45 20.4417 26.45 20.445H28.45C28.45 19.9148 28.2453 19.4411 27.8771 19.0729L26.4629 20.4871ZM26.45 20.445V26.08H28.45V20.445H26.45ZM26.45 26.08C26.45 26.0833 26.4497 26.081 26.451 26.0744C26.4523 26.0677 26.4547 26.0594 26.4584 26.0507C26.462 26.042 26.4657 26.036 26.4678 26.0329C26.4698 26.03 26.4689 26.0318 26.4629 26.0379L27.8771 27.4521C28.2453 27.0839 28.45 26.6102 28.45 26.08H26.45ZM26.4629 26.0379C26.4568 26.0439 26.455 26.0448 26.4579 26.0428C26.461 26.0407 26.467 26.037 26.4757 26.0334C26.4844 26.0297 26.4927 26.0273 26.4994 26.026C26.506 26.0247 26.5083 26.025 26.505 26.025V28.025C27.0352 28.025 27.5089 27.8203 27.8771 27.4521L26.4629 26.0379ZM26.505 26.025H20.695V28.025H26.505V26.025ZM19.695 27.025V43.055H21.695V27.025H19.695ZM19.695 43.055C19.695 43.0583 19.6947 43.056 19.696 43.0494C19.6973 43.0427 19.6997 43.0344 19.7034 43.0257C19.707 43.017 19.7107 43.011 19.7128 43.0079C19.7148 43.005 19.7139 43.0068 19.7079 43.0129L21.1221 44.4271C21.4903 44.0589 21.695 43.5852 21.695 43.055H19.695ZM19.7079 43.0129C19.7018 43.0189 19.7 43.0198 19.7029 43.0178C19.706 43.0157 19.712 43.012 19.7207 43.0084C19.7294 43.0047 19.7377 43.0023 19.7444 43.001C19.751 42.9997 19.7533 43 19.75 43V45C20.2802 45 20.7539 44.7953 21.1221 44.4271L19.7079 43.0129ZM19.75 43H12.75V45H19.75V43ZM12.75 43C12.7467 43 12.749 42.9997 12.7556 43.001C12.7623 43.0023 12.7706 43.0047 12.7793 43.0084C12.788 43.012 12.794 43.0157 12.7971 43.0178C12.8 43.0198 12.7982 43.0189 12.7921 43.0129L11.3779 44.4271C11.7461 44.7953 12.2198 45 12.75 45V43ZM12.7921 43.0129C12.7861 43.0068 12.7852 43.005 12.7872 43.0079C12.7893 43.011 12.793 43.017 12.7966 43.0257C12.8003 43.0344 12.8027 43.0427 12.804 43.0494C12.8053 43.056 12.805 43.0583 12.805 43.055H10.805C10.805 43.5852 11.0097 44.0589 11.3779 44.4271L12.7921 43.0129ZM12.805 43.055V27.025H10.805V43.055H12.805ZM11.805 26.025H5.995V28.025H11.805V26.025ZM5.995 26.025C5.99171 26.025 5.99402 26.0247 6.00057 26.026C6.00729 26.0273 6.01561 26.0297 6.02431 26.0334C6.03297 26.037 6.03903 26.0407 6.04209 26.0428C6.04498 26.0448 6.04315 26.0439 6.03711 26.0379L4.62289 27.4521C4.99111 27.8203 5.46477 28.025 5.995 28.025V26.025ZM6.03711 26.0379C6.03106 26.0318 6.03025 26.03 6.03223 26.0329C6.03433 26.036 6.03799 26.042 6.04164 26.0507C6.0453 26.0594 6.04768 26.0677 6.04899 26.0744C6.05027 26.081 6.05 26.0833 6.05 26.08H4.05C4.05 26.6102 4.25468 27.0839 4.62289 27.4521L6.03711 26.0379ZM6.05 26.08V20.445H4.05V26.08H6.05ZM6.05 20.445C6.05 20.4417 6.05027 20.444 6.04899 20.4506C6.04768 20.4573 6.0453 20.4656 6.04164 20.4743C6.03799 20.483 6.03433 20.489 6.03223 20.4921C6.03025 20.495 6.03106 20.4932 6.03711 20.4871L4.62289 19.0729C4.25468 19.4411 4.05 19.9148 4.05 20.445H6.05ZM6.03711 20.4871C6.04315 20.4811 6.04498 20.4802 6.04209 20.4822C6.03903 20.4843 6.03297 20.488 6.02431 20.4916C6.01561 20.4953 6.00729 20.4977 6.00057 20.499C5.99402 20.5003 5.99171 20.5 5.995 20.5V18.5C5.46477 18.5 4.99111 18.7047 4.62289 19.0729L6.03711 20.4871ZM45.4818 43.72L44.7747 44.4271L44.7747 44.4271L45.4818 43.72ZM45.2018 35.495H46.2018V34.495H45.2018V35.495ZM39.5318 35.495V34.495H38.5318V35.495H39.5318ZM39.2518 43.72L38.5447 43.0129L38.5447 43.0129L39.2518 43.72ZM31.0618 43.755L30.3547 44.4621L30.3783 44.4857L30.4033 44.5076L31.0618 43.755ZM31.0618 19.78L31.7689 20.4871L31.7689 20.4871L31.0618 19.78ZM39.2518 19.78L38.5447 20.4871L38.5447 20.4871L39.2518 19.78ZM39.5318 27.795H38.5318V28.795H39.5318V27.795ZM45.2018 27.795V28.795H46.2018V27.795H45.2018ZM45.4818 19.78L44.7747 19.0729L44.7747 19.0729L45.4818 19.78ZM46.1468 20.5H53.0068V18.5H46.1468V20.5ZM53.0068 20.5C53.0101 20.5 53.0078 20.5003 53.0013 20.499C52.9945 20.4977 52.9862 20.4953 52.9775 20.4916C52.9689 20.488 52.9628 20.4843 52.9597 20.4822C52.9569 20.4802 52.9587 20.4811 52.9647 20.4871L54.3789 19.0729C54.0107 18.7047 53.5371 18.5 53.0068 18.5V20.5ZM52.9647 20.4871C52.9708 20.4932 52.9716 20.495 52.9696 20.4921C52.9675 20.489 52.9638 20.483 52.9602 20.4743C52.9565 20.4656 52.9542 20.4573 52.9528 20.4506C52.9516 20.444 52.9518 20.4417 52.9518 20.445H54.9518C54.9518 19.9148 54.7472 19.4411 54.3789 19.0729L52.9647 20.4871ZM52.9518 20.445V43.055H54.9518V20.445H52.9518ZM52.9518 43.055C52.9518 43.0583 52.9516 43.056 52.9528 43.0494C52.9542 43.0427 52.9565 43.0344 52.9602 43.0257C52.9638 43.017 52.9675 43.011 52.9696 43.0079C52.9716 43.005 52.9708 43.0068 52.9647 43.0129L54.3789 44.4271C54.7472 44.0589 54.9518 43.5852 54.9518 43.055H52.9518ZM52.9647 43.0129C52.9587 43.0189 52.9569 43.0198 52.9597 43.0178C52.9628 43.0157 52.9689 43.012 52.9775 43.0084C52.9862 43.0047 52.9945 43.0023 53.0013 43.001C53.0078 42.9997 53.0101 43 53.0068 43V45C53.5371 45 54.0107 44.7953 54.3789 44.4271L52.9647 43.0129ZM53.0068 43H46.1468V45H53.0068V43ZM46.1468 43C46.1435 43 46.1459 42.9997 46.1524 43.001C46.1591 43.0023 46.1674 43.0047 46.1761 43.0084C46.1848 43.012 46.1909 43.0157 46.1939 43.0178C46.1968 43.0198 46.195 43.0189 46.1889 43.0129L44.7747 44.4271C45.1429 44.7953 45.6166 45 46.1468 45V43ZM46.1889 43.0129C46.1829 43.0068 46.1821 43.005 46.1841 43.0079C46.1862 43.011 46.1898 43.017 46.1935 43.0257C46.1971 43.0344 46.1995 43.0427 46.2008 43.0494C46.2021 43.056 46.2018 43.0583 46.2018 43.055H44.2018C44.2018 43.5852 44.4065 44.0589 44.7747 44.4271L46.1889 43.0129ZM46.2018 43.055V35.495H44.2018V43.055H46.2018ZM45.2018 34.495H39.5318V36.495H45.2018V34.495ZM38.5318 35.495V43.055H40.5318V35.495H38.5318ZM38.5318 43.055C38.5318 43.0583 38.5316 43.056 38.5328 43.0494C38.5342 43.0427 38.5365 43.0344 38.5402 43.0257C38.5438 43.017 38.5475 43.011 38.5496 43.0079C38.5516 43.005 38.5508 43.0068 38.5447 43.0129L39.9589 44.4271C40.3272 44.0589 40.5318 43.5852 40.5318 43.055H38.5318ZM38.5447 43.0129C38.5387 43.0189 38.5369 43.0198 38.5397 43.0178C38.5428 43.0157 38.5489 43.012 38.5575 43.0084C38.5662 43.0047 38.5745 43.0023 38.5813 43.001C38.5878 42.9997 38.5901 43 38.5868 43V45C39.1171 45 39.5907 44.7953 39.9589 44.4271L38.5447 43.0129ZM38.5868 43H31.7268V45H38.5868V43ZM31.7268 43C31.7158 43 31.7103 42.9991 31.7092 42.999C31.7082 42.9988 31.7101 42.9991 31.7138 43.0004C31.7175 43.0018 31.7207 43.0034 31.7229 43.0047C31.725 43.0059 31.7241 43.0057 31.7203 43.0024L30.4033 44.5076C30.7791 44.8364 31.2372 45 31.7268 45V43ZM31.7689 43.0479C31.7667 43.0457 31.7682 43.0468 31.7714 43.0515C31.7746 43.0564 31.7778 43.0624 31.7803 43.0686C31.7828 43.0747 31.7834 43.0782 31.7832 43.0774C31.783 43.0763 31.7818 43.0694 31.7818 43.055H29.7818C29.7818 43.5824 29.9683 44.0756 30.3547 44.4621L31.7689 43.0479ZM31.7818 43.055V20.445H29.7818V43.055H31.7818ZM31.7818 20.445C31.7818 20.4417 31.7821 20.444 31.7808 20.4506C31.7795 20.4573 31.7771 20.4656 31.7735 20.4743C31.7698 20.483 31.7662 20.489 31.7641 20.4921C31.7621 20.495 31.7629 20.4932 31.7689 20.4871L30.3547 19.0729C29.9865 19.4411 29.7818 19.9148 29.7818 20.445H31.7818ZM31.7689 20.4871C31.775 20.4811 31.7768 20.4802 31.7739 20.4822C31.7709 20.4843 31.7648 20.488 31.7561 20.4916C31.7474 20.4953 31.7391 20.4977 31.7324 20.499C31.7259 20.5003 31.7235 20.5 31.7268 20.5V18.5C31.1966 18.5 30.7229 18.7047 30.3547 19.0729L31.7689 20.4871ZM31.7268 20.5H38.5868V18.5H31.7268V20.5ZM38.5868 20.5C38.5901 20.5 38.5878 20.5003 38.5813 20.499C38.5745 20.4977 38.5662 20.4953 38.5575 20.4916C38.5489 20.488 38.5428 20.4843 38.5397 20.4822C38.5369 20.4802 38.5387 20.4811 38.5447 20.4871L39.9589 19.0729C39.5907 18.7047 39.1171 18.5 38.5868 18.5V20.5ZM38.5447 20.4871C38.5508 20.4932 38.5516 20.495 38.5496 20.4921C38.5475 20.489 38.5438 20.483 38.5402 20.4743C38.5365 20.4656 38.5342 20.4573 38.5328 20.4506C38.5316 20.444 38.5318 20.4417 38.5318 20.445H40.5318C40.5318 19.9148 40.3272 19.4411 39.9589 19.0729L38.5447 20.4871ZM38.5318 20.445V27.795H40.5318V20.445H38.5318ZM39.5318 28.795H45.2018V26.795H39.5318V28.795ZM46.2018 27.795V20.445H44.2018V27.795H46.2018ZM46.2018 20.445C46.2018 20.4417 46.2021 20.444 46.2008 20.4506C46.1995 20.4573 46.1971 20.4656 46.1935 20.4743C46.1898 20.483 46.1862 20.489 46.1841 20.4921C46.1821 20.495 46.1829 20.4932 46.1889 20.4871L44.7747 19.0729C44.4065 19.4411 44.2018 19.9148 44.2018 20.445H46.2018ZM46.1889 20.4871C46.195 20.4811 46.1968 20.4802 46.1939 20.4822C46.1909 20.4843 46.1848 20.488 46.1761 20.4916C46.1674 20.4953 46.1591 20.4977 46.1524 20.499C46.1459 20.5003 46.1435 20.5 46.1468 20.5V18.5C45.6166 18.5 45.1429 18.7047 44.7747 19.0729L46.1889 20.4871ZM80.5516 19.78L81.2587 19.0729L81.2587 19.0729L80.5516 19.78ZM77.7866 41.9L78.4135 42.6791L78.4188 42.6747L77.7866 41.9ZM61.1966 41.9L60.5697 42.6791L60.574 42.6826L61.1966 41.9ZM58.4316 19.78L57.7245 19.0729L57.7245 19.0729L58.4316 19.78ZM66.6216 19.78L67.3287 19.0729L67.3287 19.0729L66.6216 19.78ZM72.3616 19.78L73.0687 20.4871L73.0687 20.4871L72.3616 19.78ZM73.0266 20.5H79.8866V18.5H73.0266V20.5ZM79.8866 20.5C79.8899 20.5 79.8875 20.5003 79.881 20.499C79.8743 20.4977 79.866 20.4953 79.8573 20.4916C79.8486 20.488 79.8425 20.4843 79.8395 20.4822C79.8366 20.4802 79.8384 20.4811 79.8445 20.4871L81.2587 19.0729C80.8905 18.7047 80.4168 18.5 79.8866 18.5V20.5ZM79.8445 20.4871C79.8505 20.4931 79.8513 20.495 79.8493 20.4921C79.8472 20.489 79.8436 20.483 79.8399 20.4743C79.8363 20.4656 79.8339 20.4573 79.8326 20.4506C79.8313 20.444 79.8316 20.4417 79.8316 20.445H81.8316C81.8316 19.9148 81.6269 19.4411 81.2587 19.0729L79.8445 20.4871ZM79.8316 20.445V34.515H81.8316V20.445H79.8316ZM79.8316 34.515C79.8316 37.5623 78.8953 39.7044 77.1543 41.1252L78.4188 42.6747C80.7378 40.7823 81.8316 38.001 81.8316 34.515H79.8316ZM77.1597 41.1209C75.36 42.5689 72.8417 43.35 69.4916 43.35V45.35C73.1414 45.35 76.1532 44.4977 78.4134 42.6791L77.1597 41.1209ZM69.4916 43.35C66.1673 43.35 63.6453 42.5701 61.8191 41.1174L60.574 42.6826C62.8545 44.4966 65.8625 45.35 69.4916 45.35V43.35ZM61.8234 41.1209C60.0896 39.7258 59.1516 37.589 59.1516 34.515H57.1516C57.1516 38.021 58.2435 40.8075 60.5697 42.6791L61.8234 41.1209ZM59.1516 34.515V20.445H57.1516V34.515H59.1516ZM59.1516 20.445C59.1516 20.4417 59.1518 20.444 59.1506 20.4506C59.1492 20.4573 59.1469 20.4656 59.1432 20.4743C59.1396 20.483 59.1359 20.489 59.1338 20.4921C59.1318 20.495 59.1326 20.4932 59.1387 20.4871L57.7245 19.0729C57.3562 19.4411 57.1516 19.9148 57.1516 20.445H59.1516ZM59.1387 20.4871C59.1447 20.4811 59.1465 20.4802 59.1437 20.4822C59.1406 20.4843 59.1345 20.488 59.1259 20.4916C59.1172 20.4953 59.1089 20.4977 59.1021 20.499C59.0956 20.5003 59.0933 20.5 59.0966 20.5V18.5C58.5663 18.5 58.0927 18.7047 57.7245 19.0729L59.1387 20.4871ZM59.0966 20.5H65.9566V18.5H59.0966V20.5ZM65.9566 20.5C65.9599 20.5 65.9575 20.5003 65.951 20.499C65.9443 20.4977 65.936 20.4953 65.9273 20.4916C65.9186 20.488 65.9125 20.4843 65.9095 20.4822C65.9066 20.4802 65.9084 20.4811 65.9145 20.4871L67.3287 19.0729C66.9605 18.7047 66.4868 18.5 65.9566 18.5V20.5ZM65.9145 20.4871C65.9205 20.4932 65.9213 20.495 65.9193 20.4921C65.9172 20.489 65.9136 20.483 65.9099 20.4743C65.9063 20.4656 65.9039 20.4573 65.9026 20.4506C65.9013 20.444 65.9016 20.4417 65.9016 20.445H67.9016C67.9016 19.9148 67.6969 19.4411 67.3287 19.0729L65.9145 20.4871ZM65.9016 20.445V34.62H67.9016V20.445H65.9016ZM65.9016 34.62C65.9016 35.6628 66.1515 36.6302 66.828 37.3342C67.5117 38.0455 68.4637 38.315 69.4916 38.315V36.315C68.7927 36.315 68.4498 36.1353 68.2701 35.9483C68.0833 35.7539 67.9016 35.3739 67.9016 34.62H65.9016ZM69.4916 38.315C70.5194 38.315 71.4714 38.0455 72.1551 37.3342C72.8316 36.6302 73.0816 35.6628 73.0816 34.62H71.0816C71.0816 35.3739 70.8999 35.7539 70.713 35.9483C70.5334 36.1353 70.1904 36.315 69.4916 36.315V38.315ZM73.0816 34.62V20.445H71.0816V34.62H73.0816ZM73.0816 20.445C73.0816 20.4417 73.0818 20.444 73.0806 20.4506C73.0792 20.4573 73.0769 20.4656 73.0732 20.4743C73.0696 20.483 73.0659 20.489 73.0638 20.4921C73.0618 20.495 73.0626 20.4932 73.0687 20.4871L71.6545 19.0729C71.2862 19.4411 71.0816 19.9148 71.0816 20.445H73.0816ZM73.0687 20.4871C73.0747 20.4811 73.0765 20.4802 73.0737 20.4822C73.0706 20.4843 73.0645 20.488 73.0559 20.4916C73.0472 20.4953 73.0389 20.4977 73.0321 20.499C73.0256 20.5003 73.0233 20.5 73.0266 20.5V18.5C72.4963 18.5 72.0227 18.7047 71.6545 19.0729L73.0687 20.4871ZM107.565 42.845L108.459 42.3978L108.452 42.3839L108.445 42.3702L107.565 42.845ZM107.425 43.79L108.132 44.4971L108.132 44.4971L107.425 43.79ZM98.22 43.055L99.1338 42.6489L99.1318 42.6444L98.22 43.055ZM95.21 36.37L96.1218 35.9594L95.8564 35.37H95.21V36.37ZM93.775 36.37V35.37H92.775V36.37H93.775ZM93.495 43.72L92.7879 43.0129L92.7879 43.0129L93.495 43.72ZM85.305 43.72L86.0121 43.0129L86.0121 43.0129L85.305 43.72ZM85.305 19.78L86.0121 20.4871L86.0121 20.4871L85.305 19.78ZM104.205 21.775L103.579 22.5549L103.585 22.5596L104.205 21.775ZM103.26 34.865L102.722 34.0223L101.939 34.5224L102.38 35.3398L103.26 34.865ZM93.775 26.01V25.01H92.775V26.01H93.775ZM93.775 29.72H92.775V30.72H93.775V29.72ZM97.52 29.23L98.2793 29.8808L98.2903 29.8679L98.3009 29.8547L97.52 29.23ZM97.52 26.605L96.6804 27.1483L96.6992 27.1773L96.72 27.205L97.52 26.605ZM106.671 43.2922C106.671 43.2923 106.67 43.2919 106.67 43.2909C106.67 43.2899 106.669 43.2891 106.669 43.2886C106.669 43.2872 106.67 43.2903 106.67 43.3H108.67C108.67 42.9884 108.602 42.6827 108.459 42.3978L106.671 43.2922ZM106.67 43.3C106.67 43.2089 106.694 43.1384 106.714 43.0978C106.732 43.0617 106.743 43.058 106.718 43.0829L108.132 44.4971C108.404 44.2248 108.67 43.8221 108.67 43.3H106.67ZM106.718 43.0829C106.739 43.0621 106.773 43.0368 106.817 43.019C106.861 43.0017 106.892 43 106.9 43V45C107.357 45 107.792 44.8369 108.132 44.4971L106.718 43.0829ZM106.9 43H99.725V45H106.9V43ZM99.725 43C99.5097 43 99.3975 42.9542 99.338 42.9169C99.2817 42.8815 99.2067 42.8128 99.1338 42.6489L97.3062 43.4611C97.5133 43.9272 97.8291 44.331 98.2745 44.6106C98.7166 44.8883 99.2169 45 99.725 45V43ZM99.1318 42.6444L96.1218 35.9594L94.2982 36.7806L97.3082 43.4656L99.1318 42.6444ZM95.21 35.37H93.775V37.37H95.21V35.37ZM92.775 36.37V43.055H94.775V36.37H92.775ZM92.775 43.055C92.775 43.0583 92.7747 43.056 92.776 43.0494C92.7773 43.0427 92.7797 43.0344 92.7834 43.0257C92.787 43.017 92.7907 43.011 92.7928 43.0079C92.7948 43.005 92.7939 43.0068 92.7879 43.0129L94.2021 44.4271C94.5703 44.0589 94.775 43.5852 94.775 43.055H92.775ZM92.7879 43.0129C92.7818 43.0189 92.78 43.0198 92.7829 43.0178C92.786 43.0157 92.792 43.012 92.8007 43.0084C92.8094 43.0047 92.8177 43.0023 92.8244 43.001C92.831 42.9997 92.8333 43 92.83 43V45C93.3602 45 93.8339 44.7953 94.2021 44.4271L92.7879 43.0129ZM92.83 43H85.97V45H92.83V43ZM85.97 43C85.9667 43 85.969 42.9997 85.9756 43.001C85.9823 43.0023 85.9906 43.0047 85.9993 43.0084C86.008 43.012 86.014 43.0157 86.0171 43.0178C86.02 43.0198 86.0182 43.0189 86.0121 43.0129L84.5979 44.4271C84.9661 44.7953 85.4398 45 85.97 45V43ZM86.0121 43.0129C86.0061 43.0068 86.0052 43.005 86.0072 43.0079C86.0093 43.011 86.013 43.017 86.0166 43.0257C86.0203 43.0344 86.0227 43.0427 86.024 43.0494C86.0253 43.056 86.025 43.0583 86.025 43.055H84.025C84.025 43.5852 84.2297 44.0589 84.5979 44.4271L86.0121 43.0129ZM86.025 43.055V20.445H84.025V43.055H86.025ZM86.025 20.445C86.025 20.4417 86.0253 20.444 86.024 20.4506C86.0227 20.4573 86.0203 20.4656 86.0166 20.4743C86.013 20.483 86.0093 20.489 86.0072 20.4921C86.0052 20.495 86.0061 20.4932 86.0121 20.4871L84.5979 19.0729C84.2297 19.4411 84.025 19.9148 84.025 20.445H86.025ZM86.0121 20.4871C86.0182 20.4811 86.02 20.4802 86.0171 20.4822C86.014 20.4843 86.008 20.488 85.9993 20.4916C85.9906 20.4953 85.9823 20.4977 85.9756 20.499C85.969 20.5003 85.9667 20.5 85.97 20.5V18.5C85.4398 18.5 84.9661 18.7047 84.5979 19.0729L86.0121 20.4871ZM85.97 20.5H96.33V18.5H85.97V20.5ZM96.33 20.5C99.5493 20.5 101.924 21.2269 103.579 22.5549L104.831 20.9951C102.706 19.2897 99.8307 18.5 96.33 18.5V20.5ZM103.585 22.5596C105.192 23.8295 106.04 25.6735 106.04 28.25H108.04C108.04 25.1798 106.998 22.7072 104.825 20.9904L103.585 22.5596ZM106.04 28.25C106.04 30.6818 104.977 32.5811 102.722 34.0223L103.798 35.7077C106.583 33.9289 108.04 31.4182 108.04 28.25H106.04ZM102.38 35.3398L106.685 43.3198L108.445 42.3702L104.14 34.3902L102.38 35.3398ZM92.775 26.01V29.72H94.775V26.01H92.775ZM93.775 30.72H96.33V28.72H93.775V30.72ZM96.33 30.72C97.0733 30.72 97.7723 30.4722 98.2793 29.8808L96.7607 28.5792C96.7077 28.6411 96.6134 28.72 96.33 28.72V30.72ZM98.3009 29.8547C98.743 29.3021 98.94 28.6407 98.94 27.935H96.94C96.94 28.256 96.857 28.4579 96.7391 28.6053L98.3009 29.8547ZM98.94 27.935C98.94 27.2281 98.7429 26.5688 98.32 26.005L96.72 27.205C96.8571 27.3878 96.94 27.6152 96.94 27.935H98.94ZM98.3596 26.0617C97.891 25.3376 97.1517 25.01 96.33 25.01V27.01C96.5816 27.01 96.6357 27.0791 96.6804 27.1483L98.3596 26.0617ZM96.33 25.01H93.775V27.01H96.33V25.01ZM113.312 21.39L112.71 20.5911L112.706 20.5946L113.312 21.39ZM128.957 21.495L128.346 22.2873L128.351 22.2906L128.957 21.495ZM131.792 26.955L132.499 27.6621L132.499 27.6621L131.792 26.955ZM122.832 26.57L122.165 27.3152L122.165 27.3152L122.832 26.57ZM120.172 27.83L119.773 28.7471L119.78 28.7501L119.787 28.7531L120.172 27.83ZM123.252 28.46L123.378 27.468L123.376 27.4677L123.252 28.46ZM130.672 30.91L130.042 31.6872L130.049 31.6927L130.056 31.698L130.672 30.91ZM129.622 42.11L130.188 42.9338L130.19 42.9325L129.622 42.11ZM112.787 42.18L112.202 42.9912L112.202 42.9912L112.787 42.18ZM109.987 36.37L110.694 37.0771L110.694 37.0771L109.987 36.37ZM118.807 36.825L118.182 37.6059L118.189 37.6118L118.197 37.6176L118.807 36.825ZM122.972 35.6L122.624 36.5377L122.64 36.5435L122.655 36.5487L122.972 35.6ZM119.402 34.9L119.534 33.9088L119.532 33.9086L119.402 34.9ZM111.372 27.2C111.372 25.1448 112.196 23.4974 113.918 22.1854L112.706 20.5946C110.508 22.2692 109.372 24.4952 109.372 27.2H111.372ZM113.913 22.1889C115.679 20.8594 118.039 20.15 121.082 20.15V18.15C117.731 18.15 114.911 18.934 112.71 20.5911L113.913 22.1889ZM121.082 20.15C124.138 20.15 126.532 20.89 128.346 22.2873L129.567 20.7027C127.321 18.9733 124.465 18.15 121.082 18.15V20.15ZM128.351 22.2906C130.287 23.7651 131.037 25.1388 131.037 26.395H133.037C133.037 24.2446 131.732 22.3515 129.562 20.6994L128.351 22.2906ZM131.037 26.395C131.037 26.3664 131.043 26.3287 131.059 26.2917C131.075 26.2565 131.09 26.2427 131.084 26.2479L132.499 27.6621C132.829 27.3318 133.037 26.898 133.037 26.395H131.037ZM131.084 26.2479C131.094 26.2382 131.122 26.2139 131.17 26.1934C131.219 26.1723 131.266 26.165 131.302 26.165V28.165C131.771 28.165 132.184 27.977 132.499 27.6621L131.084 26.2479ZM131.302 26.165H124.302V28.165H131.302V26.165ZM124.302 26.165C124.038 26.165 123.78 26.0766 123.498 25.8248L122.165 27.3152C122.77 27.8568 123.492 28.165 124.302 28.165V26.165ZM123.498 25.8248C122.828 25.2253 121.974 24.975 121.047 24.975V26.975C121.612 26.975 121.948 27.1214 122.165 27.3152L123.498 25.8248ZM121.047 24.975C120.422 24.975 119.79 25.0603 119.283 25.3562C118.693 25.7005 118.367 26.2761 118.367 26.955H120.367C120.367 26.938 120.369 26.9714 120.34 27.0224C120.31 27.0737 120.279 27.0903 120.29 27.0838C120.308 27.0735 120.369 27.0437 120.502 27.0179C120.634 26.9923 120.812 26.975 121.047 26.975V24.975ZM118.367 26.955C118.367 27.9301 119.139 28.4713 119.773 28.7471L120.57 26.9129C120.477 26.8723 120.411 26.8358 120.366 26.8065C120.344 26.792 120.328 26.7803 120.318 26.7719C120.308 26.7635 120.304 26.7591 120.304 26.7592C120.304 26.76 120.322 26.7799 120.339 26.8208C120.357 26.8636 120.367 26.9109 120.367 26.955H118.367ZM119.787 28.7531C120.487 29.0447 121.638 29.2661 123.128 29.4523L123.376 27.4677C121.878 27.2806 120.976 27.082 120.556 26.9069L119.787 28.7531ZM123.125 29.452C126.551 29.8889 128.794 30.6769 130.042 31.6872L131.301 30.1328C129.609 28.7631 126.905 27.9178 123.378 27.468L123.125 29.452ZM130.056 31.698C131.243 32.6257 131.912 34.079 131.912 36.265H133.912C133.912 33.6443 133.086 31.5276 131.287 30.122L130.056 31.698ZM131.912 36.265C131.912 38.2731 131.014 39.9314 129.053 41.2875L130.19 42.9325C132.616 41.2553 133.912 39.0169 133.912 36.265H131.912ZM129.055 41.2862C127.099 42.6318 124.47 43.35 121.082 43.35V45.35C124.74 45.35 127.804 44.5748 130.188 42.9338L129.055 41.2862ZM121.082 43.35C117.682 43.35 115.149 42.6505 113.371 41.3688L112.202 42.9912C114.437 44.6028 117.434 45.35 121.082 45.35V43.35ZM113.371 41.3688C111.569 40.0693 110.777 38.5863 110.777 36.895H108.777C108.777 39.357 109.991 41.3973 112.202 42.9912L113.371 41.3688ZM110.777 36.895C110.777 36.9027 110.775 36.9343 110.758 36.9776C110.74 37.0222 110.715 37.0563 110.694 37.0771L109.279 35.6629C108.94 36.0027 108.777 36.4376 108.777 36.895H110.777ZM110.694 37.0771C110.699 37.0719 110.685 37.087 110.65 37.1024C110.613 37.1186 110.575 37.125 110.547 37.125V35.125C110.044 35.125 109.61 35.3326 109.279 35.6629L110.694 37.0771ZM110.547 37.125H117.197V35.125H110.547V37.125ZM117.197 37.125C117.367 37.125 117.687 37.2102 118.182 37.6059L119.431 36.0441C118.759 35.5064 118.006 35.125 117.197 35.125V37.125ZM118.197 37.6176C119.033 38.2609 120.102 38.525 121.292 38.525V36.525C120.381 36.525 119.793 36.3224 119.416 36.0324L118.197 37.6176ZM121.292 38.525C122.2 38.525 123.002 38.444 123.61 38.2168C123.921 38.1009 124.245 37.9236 124.498 37.6398C124.77 37.3351 124.917 36.9555 124.917 36.545H122.917C122.917 36.4612 122.953 36.3674 123.007 36.3077C123.041 36.2689 123.037 36.2958 122.911 36.3432C122.644 36.4427 122.133 36.525 121.292 36.525V38.525ZM124.917 36.545C124.917 35.4607 124.048 34.9049 123.288 34.6513L122.655 36.5487C122.767 36.5859 122.846 36.6216 122.899 36.6513C122.953 36.6811 122.972 36.7 122.973 36.7009C122.973 36.7009 122.968 36.6961 122.961 36.686C122.954 36.6757 122.946 36.6615 122.938 36.6436C122.922 36.6048 122.917 36.5685 122.917 36.545H124.917ZM123.319 34.6623C122.571 34.3851 121.276 34.1411 119.534 33.9088L119.269 35.8912C121.027 36.1256 122.113 36.3482 122.624 36.5377L123.319 34.6623ZM119.532 33.9086C116.619 33.5246 114.577 32.7269 113.278 31.6191C112.019 30.5456 111.372 29.1093 111.372 27.2H109.372C109.372 29.6307 110.229 31.6477 111.98 33.1409C113.691 34.5998 116.164 35.4821 119.271 35.8914L119.532 33.9086ZM155.651 22.055L155.038 22.8449L155.047 22.852L155.651 22.055ZM136.506 43.72L137.213 43.0129L137.213 43.0129L136.506 43.72ZM136.506 19.78L137.213 20.4871L137.213 20.4871L136.506 19.78ZM144.976 26.325V25.325H143.976V26.325H144.976ZM144.976 37.175H143.976V38.175H144.976V37.175ZM149.141 36.475L148.434 35.7679L148.434 35.7679L149.141 36.475ZM137.171 20.5H147.251V18.5H137.171V20.5ZM147.251 20.5C150.487 20.5 153.057 21.3063 155.038 22.8448L156.265 21.2652C153.859 19.397 150.828 18.5 147.251 18.5V20.5ZM155.047 22.852C156.989 24.324 157.976 26.3719 157.976 29.125H159.976C159.976 25.8114 158.746 23.146 156.255 21.258L155.047 22.852ZM157.976 29.125V34.34H159.976V29.125H157.976ZM157.976 34.34C157.976 37.2632 157.003 39.3447 155.151 40.7542L156.362 42.3458C158.803 40.4887 159.976 37.7635 159.976 34.34H157.976ZM155.151 40.7542C153.224 42.2203 150.633 43 147.286 43V45C150.94 45 153.995 44.1464 156.362 42.3458L155.151 40.7542ZM147.286 43H137.171V45H147.286V43ZM137.171 43C137.168 43 137.17 42.9997 137.177 43.001C137.183 43.0023 137.192 43.0047 137.2 43.0084C137.209 43.012 137.215 43.0157 137.218 43.0178C137.221 43.0198 137.219 43.0189 137.213 43.0129L135.799 44.4271C136.167 44.7953 136.641 45 137.171 45V43ZM137.213 43.0129C137.207 43.0068 137.206 43.005 137.208 43.0079C137.21 43.011 137.214 43.017 137.218 43.0257C137.221 43.0344 137.224 43.0427 137.225 43.0494C137.226 43.056 137.226 43.0583 137.226 43.055H135.226C135.226 43.5852 135.431 44.0589 135.799 44.4271L137.213 43.0129ZM137.226 43.055V20.445H135.226V43.055H137.226ZM137.226 20.445C137.226 20.4417 137.226 20.444 137.225 20.4506C137.224 20.4573 137.221 20.4656 137.218 20.4743C137.214 20.483 137.21 20.489 137.208 20.4921C137.206 20.495 137.207 20.4932 137.213 20.4871L135.799 19.0729C135.431 19.4411 135.226 19.9148 135.226 20.445H137.226ZM137.213 20.4871C137.219 20.4811 137.221 20.4802 137.218 20.4822C137.215 20.4843 137.209 20.488 137.2 20.4916C137.192 20.4953 137.183 20.4977 137.177 20.499C137.17 20.5003 137.168 20.5 137.171 20.5V18.5C136.641 18.5 136.167 18.7047 135.799 19.0729L137.213 20.4871ZM143.976 26.325V37.175H145.976V26.325H143.976ZM144.976 38.175H147.251V36.175H144.976V38.175ZM147.251 38.175C148.252 38.175 149.157 37.8733 149.848 37.1821L148.434 35.7679C148.192 36.01 147.837 36.175 147.251 36.175V38.175ZM149.848 37.1821C150.584 36.4468 150.876 35.4438 150.876 34.34H148.876C148.876 35.1028 148.679 35.5232 148.434 35.7679L149.848 37.1821ZM150.876 34.34V29.125H148.876V34.34H150.876ZM150.876 29.125C150.876 28.053 150.626 27.0629 149.949 26.3411C149.261 25.6071 148.297 25.325 147.251 25.325V27.325C147.955 27.325 148.303 27.5096 148.49 27.7089C148.689 27.9204 148.876 28.3303 148.876 29.125H150.876ZM147.251 25.325H144.976V27.325H147.251V25.325ZM179.653 20.655L178.688 20.9181L178.697 20.9519L178.709 20.985L179.653 20.655ZM187.458 42.985L188.407 42.6688L188.404 42.6619L188.402 42.655L187.458 42.985ZM187.248 43.79L186.541 43.0829L186.541 43.0829L187.248 43.79ZM178.883 43.125L179.824 42.7863L179.823 42.7833L178.883 43.125ZM178.043 40.815L178.983 40.4733L178.743 39.815H178.043V40.815ZM170.518 40.815V39.815H169.818L169.578 40.4733L170.518 40.815ZM169.678 43.125L168.738 42.7833L168.737 42.7863L169.678 43.125ZM161.278 43.79L160.519 44.4408L160.569 44.4992L160.627 44.5493L161.278 43.79ZM161.103 42.985L160.159 42.655L160.157 42.6619L160.154 42.6688L161.103 42.985ZM168.908 20.655L169.852 20.985L169.864 20.9519L169.873 20.9181L168.908 20.655ZM172.303 33.99L171.345 33.7017L170.958 34.99H172.303V33.99ZM176.258 33.99V34.99H177.61L177.214 33.697L176.258 33.99ZM174.263 27.48L175.219 27.187L174.255 24.0394L173.305 27.1917L174.263 27.48ZM170.483 20.5H178.078V18.5H170.483V20.5ZM178.078 20.5C178.347 20.5 178.463 20.5606 178.51 20.5952C178.552 20.6259 178.629 20.7005 178.688 20.9181L180.618 20.3919C180.467 19.8395 180.176 19.3366 179.693 18.9823C179.215 18.6319 178.649 18.5 178.078 18.5V20.5ZM178.709 20.985L186.514 43.315L188.402 42.655L180.597 20.325L178.709 20.985ZM186.509 43.3012C186.503 43.2826 186.499 43.2672 186.496 43.256C186.493 43.2446 186.491 43.236 186.49 43.2305C186.488 43.2202 186.488 43.2175 186.489 43.2245C186.49 43.2312 186.491 43.2436 186.492 43.2629C186.492 43.282 186.493 43.3058 186.493 43.335H188.493C188.493 43.1624 188.485 42.9043 188.407 42.6688L186.509 43.3012ZM186.493 43.335C186.493 43.2056 186.531 43.1164 186.551 43.0796C186.569 43.0463 186.576 43.0482 186.541 43.0829L187.955 44.4971C188.19 44.262 188.493 43.8682 188.493 43.335H186.493ZM186.541 43.0829C186.562 43.0621 186.596 43.0368 186.64 43.019C186.684 43.0017 186.715 43 186.723 43V45C187.18 45 187.615 44.8369 187.955 44.4971L186.541 43.0829ZM186.723 43H180.248V45H186.723V43ZM180.248 43C180.034 43 179.947 42.9555 179.921 42.9394C179.906 42.9296 179.866 42.9025 179.824 42.7863L177.942 43.4637C178.11 43.9308 178.402 44.3413 178.842 44.6231C179.272 44.8986 179.762 45 180.248 45V43ZM179.823 42.7833L178.983 40.4733L177.103 41.1567L177.943 43.4667L179.823 42.7833ZM178.043 39.815H170.518V41.815H178.043V39.815ZM169.578 40.4733L168.738 42.7833L170.618 43.4667L171.458 41.1567L169.578 40.4733ZM168.737 42.7863C168.695 42.9025 168.655 42.9296 168.64 42.9394C168.614 42.9555 168.527 43 168.313 43V45C168.799 45 169.289 44.8986 169.719 44.6231C170.159 44.3413 170.451 43.9308 170.619 43.4637L168.737 42.7863ZM168.313 43H161.838V45H168.313V43ZM161.838 43C161.846 43 161.867 43.0019 161.892 43.0112C161.903 43.0154 161.912 43.0202 161.919 43.0244C161.926 43.0285 161.929 43.0312 161.929 43.0307L160.627 44.5493C160.967 44.8405 161.383 45 161.838 45V43ZM162.037 43.1392C162.011 43.1086 162.016 43.1068 162.028 43.1347C162.043 43.1652 162.068 43.2351 162.068 43.335H160.068C160.068 43.8129 160.303 44.1893 160.519 44.4408L162.037 43.1392ZM162.068 43.335C162.068 43.3058 162.068 43.282 162.069 43.2629C162.07 43.2436 162.071 43.2312 162.072 43.2245C162.072 43.2175 162.072 43.2202 162.071 43.2305C162.07 43.236 162.068 43.2446 162.065 43.256C162.062 43.2672 162.058 43.2826 162.052 43.3012L160.154 42.6688C160.076 42.9043 160.068 43.1624 160.068 43.335H162.068ZM162.047 43.315L169.852 20.985L167.964 20.325L160.159 42.655L162.047 43.315ZM169.873 20.9181C169.932 20.7005 170.009 20.6259 170.051 20.5952C170.098 20.5606 170.214 20.5 170.483 20.5V18.5C169.912 18.5 169.346 18.6319 168.868 18.9823C168.385 19.3366 168.094 19.8395 167.943 20.3919L169.873 20.9181ZM172.303 34.99H176.258V32.99H172.303V34.99ZM177.214 33.697L175.219 27.187L173.307 27.773L175.302 34.283L177.214 33.697ZM173.305 27.1917L171.345 33.7017L173.261 34.2783L175.221 27.7683L173.305 27.1917ZM196.598 43.72L195.891 44.4271L195.891 44.4271L196.598 43.72ZM196.318 36.16H197.318V35.9216L197.211 35.7088L196.318 36.16ZM188.443 20.585L187.549 21.0322L187.551 21.0362L188.443 20.585ZM188.583 19.745L189.291 20.4521L189.291 20.4521L188.583 19.745ZM197.193 20.375L196.292 20.8078L196.298 20.8204L197.193 20.375ZM200.693 27.41L199.798 27.8554L200.693 29.655L201.589 27.8554L200.693 27.41ZM204.193 20.375L205.089 20.8205L205.095 20.8077L204.193 20.375ZM212.768 19.745L212.009 20.3958L212.059 20.4542L212.118 20.5043L212.768 19.745ZM212.943 20.585L213.836 21.0362L213.838 21.0322L212.943 20.585ZM205.068 36.16L204.176 35.7088L204.068 35.9216V36.16H205.068ZM204.788 43.72L205.496 44.4271L205.496 44.4271L204.788 43.72ZM204.123 43H197.263V45H204.123V43ZM197.263 43C197.26 43 197.262 42.9997 197.269 43.001C197.276 43.0023 197.284 43.0047 197.293 43.0084C197.301 43.012 197.307 43.0157 197.311 43.0178C197.313 43.0198 197.312 43.0189 197.306 43.0129L195.891 44.4271C196.26 44.7953 196.733 45 197.263 45V43ZM197.306 43.0129C197.299 43.0068 197.299 43.005 197.301 43.0079C197.303 43.011 197.306 43.017 197.31 43.0257C197.314 43.0344 197.316 43.0427 197.317 43.0494C197.319 43.056 197.318 43.0583 197.318 43.055H195.318C195.318 43.5852 195.523 44.0589 195.891 44.4271L197.306 43.0129ZM197.318 43.055V36.16H195.318V43.055H197.318ZM197.211 35.7088L189.336 20.1338L187.551 21.0362L195.426 36.6112L197.211 35.7088ZM189.338 20.1378C189.366 20.1939 189.374 20.233 189.375 20.2399C189.376 20.2473 189.373 20.2359 189.373 20.2H187.373C187.373 20.4396 187.405 20.7434 187.549 21.0322L189.338 20.1378ZM189.373 20.2C189.373 20.2664 189.358 20.3303 189.334 20.3828C189.311 20.4319 189.289 20.4538 189.291 20.4521L187.876 19.0379C187.591 19.323 187.373 19.7169 187.373 20.2H189.373ZM189.291 20.4521C189.296 20.4469 189.282 20.462 189.247 20.4774C189.21 20.4936 189.172 20.5 189.143 20.5V18.5C188.64 18.5 188.207 18.7076 187.876 19.0379L189.291 20.4521ZM189.143 20.5H195.723V18.5H189.143V20.5ZM195.723 20.5C195.934 20.5 196.046 20.5432 196.104 20.578C196.158 20.61 196.225 20.6689 196.292 20.8077L198.095 19.9423C197.882 19.4978 197.564 19.1191 197.127 18.8595C196.696 18.6027 196.213 18.5 195.723 18.5V20.5ZM196.298 20.8204L199.798 27.8554L201.589 26.9646L198.089 19.9296L196.298 20.8204ZM201.589 27.8554L205.089 20.8204L203.298 19.9296L199.798 26.9646L201.589 27.8554ZM205.095 20.8077C205.162 20.6689 205.229 20.61 205.282 20.578C205.341 20.5432 205.453 20.5 205.663 20.5V18.5C205.174 18.5 204.691 18.6027 204.259 18.8595C203.823 19.1191 203.505 19.4978 203.292 19.9423L205.095 20.8077ZM205.663 20.5H212.243V18.5H205.663V20.5ZM212.243 20.5C212.215 20.5 212.165 20.4936 212.109 20.4674C212.054 20.4415 212.021 20.4098 212.009 20.3958L213.528 19.0942C213.203 18.7154 212.753 18.5 212.243 18.5V20.5ZM212.118 20.5043C212.128 20.5133 212.102 20.4936 212.072 20.4379C212.039 20.3762 212.013 20.2929 212.013 20.2H214.013C214.013 19.6589 213.729 19.2516 213.419 18.9857L212.118 20.5043ZM212.013 20.2C212.013 20.2359 212.011 20.2473 212.012 20.2399C212.013 20.233 212.021 20.1939 212.049 20.1378L213.838 21.0322C213.982 20.7434 214.013 20.4396 214.013 20.2H212.013ZM212.051 20.1338L204.176 35.7088L205.961 36.6112L213.836 21.0362L212.051 20.1338ZM204.068 36.16V43.055H206.068V36.16H204.068ZM204.068 43.055C204.068 43.0583 204.068 43.056 204.069 43.0494C204.071 43.0427 204.073 43.0344 204.077 43.0257C204.08 43.017 204.084 43.011 204.086 43.0079C204.088 43.005 204.087 43.0068 204.081 43.0129L205.496 44.4271C205.864 44.0589 206.068 43.5852 206.068 43.055H204.068ZM204.081 43.0129C204.075 43.0189 204.073 43.0198 204.076 43.0178C204.079 43.0157 204.085 43.012 204.094 43.0084C204.103 43.0047 204.111 43.0023 204.118 43.001C204.124 42.9997 204.127 43 204.123 43V45C204.654 45 205.127 44.7953 205.496 44.4271L204.081 43.0129Z" fill="black" mask="url(#path-1-inside-1_3_20)"/>
<path d="M1.995 16.5H22.505C22.7617 16.5 22.9833 16.5933 23.17 16.78C23.3567 16.9667 23.45 17.1883 23.45 17.445V23.08C23.45 23.3367 23.3567 23.5583 23.17 23.745C22.9833 23.9317 22.7617 24.025 22.505 24.025H16.695V40.055C16.695 40.3117 16.6017 40.5333 16.415 40.72C16.2283 40.9067 16.0067 41 15.75 41H8.75C8.49333 41 8.27167 40.9067 8.085 40.72C7.89833 40.5333 7.805 40.3117 7.805 40.055V24.025H1.995C1.73833 24.025 1.51667 23.9317 1.33 23.745C1.14333 23.5583 1.05 23.3367 1.05 23.08V17.445C1.05 17.1883 1.14333 16.9667 1.33 16.78C1.51667 16.5933 1.73833 16.5 1.995 16.5ZM42.1468 16.5H49.0068C49.2635 16.5 49.4852 16.5933 49.6718 16.78C49.8585 16.9667 49.9518 17.1883 49.9518 17.445V40.055C49.9518 40.3117 49.8585 40.5333 49.6718 40.72C49.4852 40.9067 49.2635 41 49.0068 41H42.1468C41.8902 41 41.6685 40.9067 41.4818 40.72C41.2952 40.5333 41.2018 40.3117 41.2018 40.055V32.495H35.5318V40.055C35.5318 40.3117 35.4385 40.5333 35.2518 40.72C35.0652 40.9067 34.8435 41 34.5868 41H27.7268C27.4702 41 27.2485 40.9183 27.0618 40.755C26.8752 40.5683 26.7818 40.335 26.7818 40.055V17.445C26.7818 17.1883 26.8752 16.9667 27.0618 16.78C27.2485 16.5933 27.4702 16.5 27.7268 16.5H34.5868C34.8435 16.5 35.0652 16.5933 35.2518 16.78C35.4385 16.9667 35.5318 17.1883 35.5318 17.445V24.795H41.2018V17.445C41.2018 17.1883 41.2952 16.9667 41.4818 16.78C41.6685 16.5933 41.8902 16.5 42.1468 16.5ZM69.0266 16.5H75.8866C76.1432 16.5 76.3649 16.5933 76.5516 16.78C76.7382 16.9667 76.8316 17.1883 76.8316 17.445V31.515C76.8316 34.7817 75.8166 37.2433 73.7866 38.9C71.7566 40.5333 68.9916 41.35 65.4916 41.35C62.0149 41.35 59.2499 40.5333 57.1966 38.9C55.1666 37.2667 54.1516 34.805 54.1516 31.515V17.445C54.1516 17.1883 54.2449 16.9667 54.4316 16.78C54.6182 16.5933 54.8399 16.5 55.0966 16.5H61.9566C62.2132 16.5 62.4349 16.5933 62.6216 16.78C62.8082 16.9667 62.9016 17.1883 62.9016 17.445V31.62C62.9016 33.4167 63.7649 34.315 65.4916 34.315C67.2182 34.315 68.0816 33.4167 68.0816 31.62V17.445C68.0816 17.1883 68.1749 16.9667 68.3616 16.78C68.5482 16.5933 68.7699 16.5 69.0266 16.5ZM103.565 39.845C103.635 39.985 103.67 40.1367 103.67 40.3C103.67 40.4633 103.588 40.6267 103.425 40.79C103.285 40.93 103.11 41 102.9 41H95.725C95.0017 41 94.5 40.685 94.22 40.055L91.21 33.37H89.775V40.055C89.775 40.3117 89.6817 40.5333 89.495 40.72C89.3083 40.9067 89.0867 41 88.83 41H81.97C81.7133 41 81.4917 40.9067 81.305 40.72C81.1183 40.5333 81.025 40.3117 81.025 40.055V17.445C81.025 17.1883 81.1183 16.9667 81.305 16.78C81.4917 16.5933 81.7133 16.5 81.97 16.5H92.33C95.69 16.5 98.315 17.2583 100.205 18.775C102.095 20.2683 103.04 22.4267 103.04 25.25C103.04 28.05 101.78 30.255 99.26 31.865L103.565 39.845ZM89.775 23.01V26.72H92.33C92.8433 26.72 93.24 26.5567 93.52 26.23C93.8 25.88 93.94 25.4483 93.94 24.935C93.94 24.4217 93.8 23.9783 93.52 23.605C93.2633 23.2083 92.8667 23.01 92.33 23.01H89.775ZM106.372 24.2C106.372 21.82 107.352 19.8833 109.312 18.39C111.295 16.8967 113.885 16.15 117.082 16.15C120.302 16.15 122.927 16.9317 124.957 18.495C127.01 20.0583 128.037 21.6917 128.037 23.395C128.037 23.605 127.955 23.7917 127.792 23.955C127.652 24.095 127.488 24.165 127.302 24.165H120.302C119.765 24.165 119.275 23.9667 118.832 23.57C118.388 23.1733 117.793 22.975 117.047 22.975C115.927 22.975 115.367 23.3017 115.367 23.955C115.367 24.305 115.635 24.5967 116.172 24.83C116.732 25.0633 117.758 25.2733 119.252 25.46C122.728 25.9033 125.202 26.72 126.672 27.91C128.165 29.0767 128.912 30.8617 128.912 33.265C128.912 35.645 127.815 37.5933 125.622 39.11C123.452 40.6033 120.605 41.35 117.082 41.35C113.558 41.35 110.793 40.6267 108.787 39.18C106.78 37.7333 105.777 35.9717 105.777 33.895C105.777 33.685 105.847 33.51 105.987 33.37C106.15 33.2067 106.337 33.125 106.547 33.125H113.197C113.687 33.125 114.223 33.3583 114.807 33.825C115.413 34.2917 116.242 34.525 117.292 34.525C119.042 34.525 119.917 34.1983 119.917 33.545C119.917 33.125 119.602 32.81 118.972 32.6C118.342 32.3667 117.152 32.1333 115.402 31.9C109.382 31.1067 106.372 28.54 106.372 24.2ZM133.171 16.5H143.251C146.658 16.5 149.458 17.3517 151.651 19.055C153.868 20.735 154.976 23.0917 154.976 26.125V31.34C154.976 34.5133 153.903 36.9167 151.756 38.55C149.61 40.1833 146.786 41 143.286 41H133.171C132.915 41 132.693 40.9067 132.506 40.72C132.32 40.5333 132.226 40.3117 132.226 40.055V17.445C132.226 17.1883 132.32 16.9667 132.506 16.78C132.693 16.5933 132.915 16.5 133.171 16.5ZM140.976 23.325V34.175H143.251C144.045 34.175 144.675 33.9417 145.141 33.475C145.631 32.985 145.876 32.2733 145.876 31.34V26.125C145.876 24.2583 145.001 23.325 143.251 23.325H140.976ZM166.483 16.5H174.078C174.918 16.5 175.443 16.885 175.653 17.655L183.458 39.985C183.481 40.055 183.493 40.1717 183.493 40.335C183.493 40.475 183.411 40.6267 183.248 40.79C183.108 40.93 182.933 41 182.723 41H176.248C175.548 41 175.093 40.7083 174.883 40.125L174.043 37.815H166.518L165.678 40.125C165.468 40.7083 165.013 41 164.313 41H157.838C157.628 41 157.441 40.93 157.278 40.79C157.138 40.6267 157.068 40.475 157.068 40.335C157.068 40.1717 157.08 40.055 157.103 39.985L164.908 17.655C165.118 16.885 165.643 16.5 166.483 16.5ZM168.303 30.99H172.258L170.263 24.48L168.303 30.99ZM200.123 41H193.263C193.007 41 192.785 40.9067 192.598 40.72C192.412 40.5333 192.318 40.3117 192.318 40.055V33.16L184.443 17.585C184.397 17.4917 184.373 17.3633 184.373 17.2C184.373 17.0367 184.443 16.885 184.583 16.745C184.747 16.5817 184.933 16.5 185.143 16.5H191.723C192.423 16.5 192.913 16.7917 193.193 17.375L196.693 24.41L200.193 17.375C200.473 16.7917 200.963 16.5 201.663 16.5H208.243C208.453 16.5 208.628 16.5817 208.768 16.745C208.932 16.885 209.013 17.0367 209.013 17.2C209.013 17.3633 208.99 17.4917 208.943 17.585L201.068 33.16V40.055C201.068 40.3117 200.975 40.5333 200.788 40.72C200.602 40.9067 200.38 41 200.123 41Z" fill="#343131"/>
</svg>
