<svg width="222" height="122" viewBox="0 0 222 122" fill="none" xmlns="http://www.w3.org/2000/svg">
<g filter="url(#filter0_d_14_32)">
<path fill-rule="evenodd" clip-rule="evenodd" d="M19.3903 2.30166C10.4496 2.55111 3.00339 9.35133 2.25593 18.2643C0.42536 40.0923 0.696936 56.7513 2.41628 78.5403C3.12778 87.5571 10.5826 94.53 19.6228 94.8171C83.4825 96.8451 125.095 96.969 189.343 94.7944C194.016 94.6362 198.305 92.682 201.397 89.5409C206.901 106.374 214.227 111.537 218.206 114.342C219.315 115.123 220.163 115.722 220.641 116.338C212.812 101.852 207.579 87.7399 205.884 81.2616C205.948 80.9665 206.004 80.6682 206.053 80.3669C209.689 57.8054 209.55 40.6216 205.941 17.0703C204.658 8.69876 197.446 2.57792 188.98 2.34699C124.866 0.598228 83.2486 0.519969 19.3903 2.30166ZM221 117C220.929 116.771 220.807 116.554 220.641 116.338C220.76 116.559 220.88 116.779 221 117Z" fill="white"/>
<path d="M2.25593 18.2643L1.25942 18.1807L1.25942 18.1807L2.25593 18.2643ZM19.3903 2.30166L19.3624 1.30205L19.3903 2.30166ZM2.41628 78.5403L1.41938 78.619L1.41938 78.619L2.41628 78.5403ZM19.6228 94.8171L19.5911 95.8166L19.5911 95.8166L19.6228 94.8171ZM189.343 94.7944L189.377 95.7938L189.377 95.7938L189.343 94.7944ZM201.397 89.5409L200.685 88.8394C200.929 88.5907 201.286 88.4876 201.626 88.5674C201.966 88.6473 202.239 88.8984 202.348 89.2302L201.397 89.5409ZM218.206 114.342L217.63 115.159L217.63 115.159L218.206 114.342ZM205.884 81.2616L204.917 81.5146C204.877 81.3626 204.874 81.2034 204.907 81.0499L205.884 81.2616ZM206.053 80.3669L207.04 80.526L207.04 80.526L206.053 80.3669ZM205.941 17.0703L206.929 16.9188L206.929 16.9188L205.941 17.0703ZM188.98 2.34699L189.007 1.34737L188.98 2.34699ZM221 117L221.955 116.703C222.108 117.193 221.863 117.72 221.39 117.921C220.917 118.121 220.368 117.93 220.122 117.479L221 117ZM1.25942 18.1807C2.051 8.74175 9.93154 1.56518 19.3624 1.30205L19.4182 3.30127C10.9676 3.53705 3.95578 9.96091 3.25243 18.3478L1.25942 18.1807ZM1.41938 78.619C-0.303334 56.7873 -0.576526 40.073 1.25942 18.1807L3.25243 18.3478C1.42725 40.1117 1.69721 56.7153 3.41318 78.4617L1.41938 78.619ZM19.5911 95.8166C10.0522 95.5137 2.17181 88.1544 1.41938 78.619L3.41318 78.4617C4.08376 86.9598 11.113 93.5464 19.6546 93.8176L19.5911 95.8166ZM189.377 95.7938C125.105 97.9692 83.4705 97.8452 19.5911 95.8166L19.6545 93.8176C83.4944 95.845 125.085 95.9687 189.309 93.795L189.377 95.7938ZM202.11 90.2424C198.84 93.5643 194.309 95.6269 189.377 95.7938L189.309 93.795C193.724 93.6456 197.771 91.7997 200.685 88.8394L202.11 90.2424ZM202.348 89.2302C205.067 97.5487 208.222 102.936 211.152 106.575C214.079 110.208 216.811 112.135 218.782 113.524L217.63 115.159C215.621 113.744 212.701 111.687 209.594 107.829C206.491 103.977 203.231 98.3662 200.447 89.8517L202.348 89.2302ZM218.782 113.524C219.836 114.267 220.84 114.962 221.432 115.726L219.85 116.95C219.487 116.481 218.793 115.979 217.63 115.159L218.782 113.524ZM219.761 116.814C211.901 102.27 206.635 88.0832 204.917 81.5146L206.852 81.0085C208.522 87.3965 213.723 101.434 221.52 115.863L219.761 116.814ZM207.04 80.526C206.989 80.8449 206.929 81.1607 206.862 81.4732L204.907 81.0499C204.967 80.7723 205.02 80.4915 205.066 80.2078L207.04 80.526ZM206.929 16.9188C210.553 40.5635 210.694 57.8526 207.04 80.526L205.066 80.2078C208.683 57.7582 208.547 40.6796 204.952 17.2218L206.929 16.9188ZM189.007 1.34737C197.936 1.59093 205.57 8.04991 206.929 16.9188L204.952 17.2218C203.746 9.34761 196.955 3.56491 188.952 3.34662L189.007 1.34737ZM19.3624 1.30205C83.2403 -0.480188 124.876 -0.401869 189.007 1.34737L188.952 3.34662C124.856 1.59832 83.2569 1.52013 19.4182 3.30127L19.3624 1.30205ZM220.045 117.297C220.017 117.207 219.961 117.094 219.85 116.95L221.432 115.726C221.654 116.013 221.841 116.336 221.955 116.703L220.045 117.297ZM221.52 115.863C221.639 116.082 221.758 116.302 221.878 116.521L220.122 117.479C220.001 117.257 219.881 117.035 219.761 116.814L221.52 115.863Z" fill="black"/>
</g>
<path d="M23.156 27.208C23.756 27.124 24.548 27.088 25.1 27.088C25.052 26.38 24.884 25.408 24.788 24.724C24.308 25.336 23.528 26.584 23.156 27.208ZM20.912 30.892C20.696 31.348 20.288 31.504 19.892 31.504C19.352 31.504 19.256 31.12 19.244 30.856C19.244 30.028 19.832 29.068 20.252 28.408C20.612 27.868 21.008 27.328 21.32 26.848C21.56 26.512 21.776 26.188 21.968 25.852C22.388 25.132 22.832 24.472 23.348 23.776C23.624 23.392 23.9 22.984 24.188 22.624C24.44 22.312 24.668 21.916 25.112 21.916C25.292 21.916 25.436 21.976 25.568 22.072C25.976 22.228 26.384 22.744 26.408 23.152C26.456 23.368 26.504 23.596 26.564 23.824C26.876 25.324 26.84 26.86 27.008 28.372C27.092 29.056 27.116 29.872 26.876 30.58C26.732 31.036 26.42 31.576 25.868 31.576C25.1 31.576 25.292 30.856 25.256 30.412C25.208 29.836 25.256 29.404 25.136 28.876C24.704 28.972 22.004 29.176 22.004 29.176C21.692 29.824 21.26 30.256 20.912 30.892ZM28.1112 30.304C28.3272 29.632 29.5633 29.416 30.0673 29.416C30.3913 29.416 30.7273 29.44 31.0273 29.476C31.0753 29.344 31.1113 29.224 31.1593 29.092C31.5073 28.012 32.0113 26.92 32.3713 25.816C32.5513 25.288 32.6833 24.724 32.8153 24.172C32.4793 24.124 32.1433 24.028 31.8433 23.944C31.1233 23.752 31.0633 23.272 31.2433 22.744C31.3873 22.276 32.4193 22.012 32.7673 22.012C33.0073 22.012 33.3553 22.048 33.5833 22.108C33.8473 22.156 34.0753 22.204 34.2793 22.204C35.3593 22.204 36.4633 22.072 37.5313 22.072C38.1073 22.072 38.1913 22.324 38.0713 22.672C37.9753 22.984 37.6633 23.308 37.3513 23.512C36.9433 23.86 35.0833 24.1 34.5193 24.172C34.1953 25.288 33.8353 26.38 33.4753 27.496C33.2833 28.084 33.1873 28.672 32.9953 29.26C32.9713 29.32 32.9593 29.38 32.9473 29.416C33.0193 29.404 33.0673 29.404 33.1513 29.38C33.3553 29.344 33.5833 29.296 33.7753 29.248C34.2193 29.164 34.6513 29.056 34.9633 29.056C35.2033 29.056 35.5393 29.068 35.8033 29.14C36.0793 29.188 36.0793 29.668 35.9953 29.92C35.9593 30.028 35.9113 30.136 35.8033 30.256C35.6473 30.412 35.3713 30.532 35.1073 30.616C33.3073 31.276 30.9673 31.456 29.0713 31.456C28.6873 31.384 28.5433 31.348 28.3392 31C28.2552 30.796 28.0152 30.58 28.1112 30.304ZM38.5476 31.36C38.3076 31.684 37.8756 32.056 37.4556 32.056C37.1556 32.056 36.9756 31.792 36.9516 31.624C36.9516 31.42 36.9756 31.192 37.0116 31.072C37.2156 30.448 37.6236 29.8 38.1276 29.188C38.6196 28.588 39.1956 27.988 39.6756 27.472C40.0116 27.124 40.3596 26.764 40.6956 26.416C41.0436 26.044 41.4036 25.696 41.7756 25.372C42.6516 24.604 43.5156 23.836 44.3676 23.092C45.0876 22.372 46.0716 21.496 47.1516 21.496C47.3676 21.496 47.4996 21.568 47.5596 21.652C47.6436 21.736 47.6916 21.844 47.7276 21.952C47.7756 22.156 47.7876 22.396 47.7276 22.576C47.6796 22.744 47.5836 22.888 47.4036 23.044C47.0916 23.32 46.7316 23.596 46.4076 23.86L44.2716 25.696C43.3356 26.464 42.2316 27.268 41.4516 28.168C40.4676 29.14 39.3996 30.304 38.5476 31.36ZM47.5632 31.396C47.0352 30.58 47.6712 28.024 47.9472 26.92C48.2232 25.816 48.4272 24.712 48.7872 23.596C48.8352 23.464 48.9792 23.02 49.1832 22.648C49.3032 22.456 49.4112 22.228 49.5552 22.108C49.7712 21.892 49.9272 21.76 50.2032 21.76C50.5032 21.76 50.6352 21.952 50.7792 22.144C50.9712 22.36 51.2832 23.248 51.4392 23.584C51.7392 24.34 52.1232 25.096 52.6632 25.792C53.1192 25.096 54.1272 23.944 54.7152 23.428C55.3152 22.888 55.9752 22.276 56.4672 21.952C56.5752 21.88 56.7072 21.796 56.9112 21.796C57.2472 21.796 57.5592 22.012 57.7752 22.204C58.2672 22.648 57.9552 23.836 57.7272 24.52C57.5712 25 57.3672 25.492 57.2112 25.984C56.9712 26.704 56.8152 27.436 56.5632 28.18C56.3472 28.84 55.9032 30.136 55.5432 30.736C55.3512 31.072 54.9912 31.42 54.6312 31.42C54.2952 31.42 54.2232 31.144 54.1632 30.928C54.0312 30.544 54.2592 30.184 54.3432 29.788C54.4272 29.332 54.5592 28.876 54.7032 28.432C54.7992 28.12 54.9312 27.808 55.0392 27.472C55.1952 27.004 55.2792 26.548 55.4232 26.104C55.4952 25.852 55.6272 25.336 55.7232 25.108C55.0752 25.66 54.1872 26.92 53.8272 27.4C53.4912 27.856 52.9992 28.564 52.3872 28.564C51.9072 28.564 51.5472 27.856 51.3072 27.544C50.8512 26.992 50.4312 26.32 50.1552 25.66C49.9152 26.62 49.6872 27.556 49.5072 28.516C49.3992 29.032 49.2192 29.56 49.1352 30.064C49.1112 30.268 49.0872 30.484 49.0152 30.7C48.8832 31.108 48.4872 31.66 47.9952 31.66C47.7552 31.66 47.6712 31.54 47.5632 31.396ZM57.6515 30.1C57.6875 29.836 57.7595 29.476 57.8555 29.128C58.4315 27.04 59.0075 24.952 59.6795 22.864C59.8235 22.42 60.2075 22.072 60.6875 22.072C60.7715 22.072 60.8675 22.084 60.9275 22.12C61.3715 22.348 61.4675 22.744 61.4075 23.128C61.3475 23.488 61.1795 23.896 61.0835 24.208C60.8315 24.988 60.5195 25.804 60.3755 26.584C60.2915 26.992 60.1715 27.388 60.0515 27.772C59.8835 28.36 59.7035 28.948 59.5355 29.536C59.5715 29.56 59.6435 29.56 59.7275 29.56C59.9435 29.56 60.1715 29.524 60.4115 29.476C61.1435 29.332 61.8395 29.212 62.5355 29.212C62.6675 29.212 62.8595 29.212 62.9915 29.248C63.4355 29.32 63.8795 29.68 64.1555 29.956C64.3115 30.1 64.3115 30.352 64.2515 30.532C64.1315 30.892 63.8915 31.036 63.5435 31.144C63.0635 31.204 62.5955 31.3 62.1275 31.348C61.4075 31.396 60.6515 31.456 60.3875 31.468C59.9555 31.552 59.4275 31.768 58.9955 31.768C58.1435 31.768 57.6275 30.856 57.6515 30.1ZM67.2472 25.192C67.6072 24.628 68.3992 23.992 69.0232 23.992C69.3952 23.992 69.4072 24.328 69.3832 24.628C69.3592 24.832 69.2632 25.348 69.0832 25.564C68.9632 25.732 68.2192 26.356 67.7512 26.356C67.4272 26.356 66.8392 26.032 66.9472 25.684C66.9952 25.528 67.1272 25.348 67.2472 25.192ZM66.3112 28.84C66.5032 28.276 67.4272 27.352 68.0512 27.352C68.2792 27.352 68.5912 27.46 68.7712 27.58C69.0952 27.784 68.4832 28.828 68.1832 29.068C67.9672 29.26 67.2472 29.752 66.7672 29.752C66.4072 29.752 66.2992 29.5 66.2632 29.368C66.2272 29.176 66.2752 28.984 66.3112 28.84ZM77.5203 27.16C78.1803 27.04 78.9123 27.004 79.5843 27.004H79.7043C79.5483 26.572 79.3803 26.152 79.1643 25.732C78.9603 25.336 78.7443 24.916 78.5763 24.52C78.5523 24.472 78.5403 24.436 78.5283 24.376C78.2283 24.784 77.9883 25.636 77.8323 26.104C77.7243 26.452 77.6283 26.8 77.5203 27.16ZM81.9363 30.148C81.9483 30.424 82.0083 31.228 81.4803 31.12C80.9763 31 81.0123 30.544 80.8563 30.184C80.6763 29.752 80.5323 29.296 80.3883 28.84C80.3403 28.672 80.2083 28.516 80.1603 28.36C80.0883 28.36 79.8003 28.396 79.7403 28.396C79.3563 28.396 79.2003 28.42 78.8403 28.48C78.4563 28.54 78.0723 28.54 77.6883 28.588C77.4963 28.612 77.2923 28.72 77.0883 28.756C77.0163 29.188 76.8243 29.572 76.7163 29.992C76.6563 30.196 76.5723 30.412 76.5243 30.652C76.4763 30.844 76.4043 31.048 76.1523 31.072C75.9243 31.072 75.4203 31.156 75.2883 30.256C75.1083 29.176 75.7923 27.976 76.0683 26.932C76.3323 26.272 76.4883 25.504 76.7163 24.832C76.8123 24.568 76.8963 24.328 77.0043 24.064C77.2203 23.596 77.4363 22.744 77.8683 22.468C78.0243 22.384 78.4563 22.648 78.6363 22.744C78.8043 22.816 79.2363 23.284 79.3083 23.476C79.3923 23.704 79.5243 23.908 79.6443 24.136C80.6283 25.96 80.8203 26.992 81.4323 28.396C81.6723 28.936 81.8643 29.56 81.9363 30.148ZM84.3983 24.316V24.988C84.4223 25.564 84.3383 25.792 84.3743 26.356C84.3743 26.536 84.4583 26.884 84.4223 27.052C84.6143 26.956 84.9023 26.884 85.0343 26.884C85.3463 26.884 87.6623 26.008 88.0103 25.84C88.2623 25.696 89.0903 25.336 88.9823 25.06C88.7543 24.376 86.8703 24.076 86.1503 24.076C85.5623 24.076 85.1783 24.22 84.3983 24.316ZM90.3023 29.524C90.4223 29.632 90.6863 29.8 90.4943 30.136C90.3143 30.448 89.2463 30.64 88.8623 30.64C88.4903 30.64 88.0583 30.496 87.7103 30.388C87.1703 30.244 84.9143 28.972 84.4943 28.636C84.4583 29.212 84.4823 29.728 84.4943 30.292C84.5183 30.496 84.5303 30.964 84.4223 31.156C84.3503 31.288 84.2783 31.336 84.1823 31.336C84.0983 31.336 84.0143 31.3 83.9063 31.264C83.4503 31.072 83.3663 30.652 83.3663 30.328C83.3903 30.004 83.4863 29.488 83.4863 29.176C83.4743 28.408 83.3663 27.652 83.3183 26.86C83.2823 26.416 83.2463 25.984 83.2463 25.504C83.2463 25.072 82.9703 24.292 82.9463 23.86C82.9343 23.584 82.8863 23.308 83.1623 23.116C83.6183 22.816 85.5383 22.624 86.0543 22.624C86.3543 22.624 86.6423 22.648 86.9423 22.708C87.8183 22.9 88.8983 23.128 89.4263 23.824C89.7623 24.244 89.9663 24.448 90.0743 24.94C90.2543 25.612 89.7743 26.224 89.2463 26.608C88.4183 27.196 87.7823 27.628 86.3423 28.06L85.8743 28.204C86.2223 28.396 86.5943 28.624 86.7263 28.66C86.8943 28.72 87.7103 29.092 88.8983 29.212C90.0863 29.332 90.1823 29.44 90.3023 29.524ZM93.2417 24.952C93.1697 25.456 93.1937 25.852 93.1937 26.356C93.1937 26.392 93.1937 26.416 93.1937 26.452C93.4697 26.416 93.6737 26.356 93.9497 26.344C94.4897 26.308 95.0177 26.344 95.5337 26.38C96.1817 26.416 96.9737 26.38 97.5737 26.608C97.7417 26.668 97.8497 26.86 97.8857 27.052C97.9217 27.244 97.9457 27.388 97.8137 27.508C97.5377 27.736 97.2617 27.712 96.9137 27.736C96.0977 27.772 95.2457 27.7 94.3937 27.736C94.0577 27.736 93.8657 27.808 93.5417 27.856C93.4817 27.856 93.4217 27.868 93.3497 27.892C93.2777 28.216 93.1337 29.26 93.3257 29.572C93.4697 29.608 93.6017 29.596 93.7457 29.596C93.9737 29.596 94.0577 29.536 94.2857 29.5C94.7537 29.416 95.1857 29.44 95.6537 29.344C96.0377 29.284 96.3857 29.248 96.7697 29.224C97.0817 29.212 97.3457 29.224 97.6577 29.212C97.9337 29.176 98.4377 29.176 98.5097 29.44C98.5817 29.752 98.5097 30.112 98.3297 30.196C98.0417 30.376 96.8897 30.544 96.5297 30.616C96.0737 30.724 95.6537 30.844 95.2097 30.844C94.7177 30.844 94.2257 31.048 93.7457 31.048C93.3017 31.048 92.7857 30.76 92.5337 30.388C92.3417 30.148 92.1257 29.608 92.1017 29.32C92.0417 28.744 92.1017 28.168 92.0657 27.592C92.0297 27.16 91.9937 26.728 91.9937 26.296C91.9937 25.648 91.9097 24.976 92.0057 24.34C92.0777 23.932 91.8737 23.08 92.1977 22.828C92.5337 22.588 92.8217 22.504 93.2297 22.552C93.6977 22.612 95.0177 22.696 95.9897 22.708C96.3137 22.708 98.7977 23.008 98.3297 23.812C98.1617 24.1 97.6697 24.088 97.4177 24.1C97.0457 24.124 96.6497 24.136 96.2777 24.148C95.6537 24.184 95.1737 24.244 94.5497 24.22C94.2617 24.22 93.9977 24.136 93.7217 24.136C93.4457 24.136 93.3737 24.148 93.3257 24.448C93.2897 24.604 93.2657 24.784 93.2417 24.952ZM110.729 23.548C110.549 23.86 109.457 25.66 109.397 25.804C109.217 26.152 109.109 26.344 108.953 26.644C108.581 27.364 107.825 29.8 107.705 30.568C107.681 30.7 107.597 31 107.417 31.12C107.345 31.18 107.261 31.204 107.189 31.204C106.973 31.204 106.745 31.036 106.625 30.808C106.433 30.484 106.505 29.692 106.517 29.56C106.541 29.26 106.697 28.396 107.057 27.496C106.901 27.328 106.745 27.172 106.625 27.052C106.289 26.728 104.285 24.088 104.117 23.512C104.033 23.2 104.081 22.888 104.273 22.852C104.309 22.852 104.345 22.84 104.381 22.84C104.585 22.84 104.861 22.924 104.993 23.092C105.125 23.284 105.905 24.412 106.049 24.592C106.385 25.072 107.009 26.032 107.453 26.296C107.453 26.296 107.717 25.6 107.825 25.408C107.909 25.216 108.737 23.68 108.893 23.428C109.049 23.176 109.265 23.02 109.385 22.924C109.457 22.852 109.853 22.672 110.045 22.66C110.225 22.66 110.477 22.888 110.549 22.936C110.621 22.972 110.885 23.236 110.729 23.548ZM117.296 28.6C117.596 28.312 117.812 27.868 117.812 27.46C117.812 26.992 117.26 24.724 116.372 24.64C116.108 24.604 115.508 24.532 115.28 24.4C115.136 24.316 115.1 24.244 114.98 24.28C114.824 24.292 114.632 24.448 114.5 24.52C114.32 24.604 114.164 24.712 113.996 24.82C113.372 25.156 113.036 25.6 112.58 26.224C112.4 26.488 112.184 27.316 112.208 27.652C112.22 28.216 112.268 28.708 112.796 29.056C113.192 29.32 114.296 29.62 114.812 29.62C115.244 29.62 115.832 29.512 116.168 29.416C116.684 29.284 116.96 28.948 117.296 28.6ZM118.472 25.492C118.976 26.464 119.156 27.316 118.964 28.408C118.652 30.1 116.936 31.156 115.292 31.156C113.684 31.156 111.38 29.992 111.02 28.312C110.732 27.016 111.284 25.336 112.052 24.292C112.7 23.392 113.804 22.816 114.908 22.816C116.096 22.816 117.02 23.416 117.752 24.316C118.028 24.676 118.268 25.096 118.472 25.492ZM127.016 23.992C127.052 24.76 127.016 25.54 126.956 26.308C126.932 26.692 126.944 27.052 126.92 27.436C126.908 27.748 126.848 28.048 126.884 28.372C126.932 28.948 126.956 29.764 126.836 30.34C126.776 30.592 126.56 30.844 126.284 30.844C126.008 30.844 125.816 30.352 125.696 29.848C125.288 30.256 123.992 30.556 123.128 30.556C122.396 30.556 121.964 30.244 121.388 29.824C120.92 29.476 120.596 28.84 120.416 28.276C120.212 27.556 120.164 26.728 120.188 25.984C120.2 25.6 120.248 25.228 120.32 24.868C120.404 24.292 120.344 23.164 121.076 23.008C121.352 22.96 121.568 23.212 121.616 23.464C121.688 23.752 121.568 24.064 121.532 24.34C121.484 24.796 121.46 25.288 121.46 25.732C121.46 26.26 121.484 26.8 121.532 27.328C121.652 28.456 121.76 28.984 123.092 28.984C123.776 28.984 124.796 28.78 125.408 28.528C125.48 28.516 125.528 28.48 125.6 28.444C125.6 27.676 125.72 26.896 125.768 26.14C125.804 25.564 125.852 24.952 125.84 24.376C125.84 23.776 125.66 22.768 126.356 22.612C126.428 22.588 126.5 22.576 126.572 22.576C126.716 22.576 126.824 22.648 126.86 22.864C126.92 23.008 127.016 23.86 127.016 23.992ZM136.649 29.848C136.817 29.86 136.973 29.872 137.129 29.872C138.857 29.872 139.085 28.972 139.085 28.972C138.689 28.708 136.517 27.868 136.061 27.712C134.969 27.328 133.613 26.92 133.061 25.876C132.809 25.408 132.785 25.036 132.905 24.556C132.953 24.328 133.037 24.124 133.157 23.944C133.313 23.716 133.577 23.596 133.769 23.428C134.357 22.9 135.185 22.636 135.989 22.636C136.769 22.636 137.477 22.864 138.101 23.332C138.605 23.716 139.577 24.556 139.397 25.06C139.337 25.24 139.013 25.384 138.749 25.384C138.389 25.384 137.909 24.808 137.765 24.532C137.633 24.292 137.177 23.932 136.901 23.932C136.517 23.896 135.665 24.088 135.317 24.244C135.089 24.34 134.897 24.496 134.705 24.676C134.609 24.796 134.501 24.916 134.381 25.024C134.321 25.072 134.165 25.228 134.153 25.3C134.141 25.408 135.593 26.344 135.749 26.392C136.181 26.536 136.529 26.704 136.973 26.824C137.813 27.124 138.725 27.496 139.505 27.928C140.153 28.288 140.621 29.056 140.309 29.8C140.153 30.22 139.985 30.616 139.577 30.844C139.085 31.084 138.605 31.108 138.077 31.168C137.837 31.216 137.597 31.228 137.369 31.228C137.009 31.228 136.661 31.18 136.289 31.036C135.533 30.784 134.321 30.376 133.721 29.836C133.505 29.668 133.337 29.452 133.157 29.224C132.953 28.948 132.797 28.48 132.977 28.168C133.049 28.036 133.181 27.988 133.313 27.988C133.505 27.988 133.709 28.072 133.853 28.156C134.297 28.36 134.225 28.864 134.609 29.128C135.005 29.404 136.181 29.812 136.649 29.848ZM141.78 27.04C141.732 26.428 141.648 25.816 141.612 25.192C141.588 24.772 141.54 24.364 141.54 23.956C141.54 23.644 141.636 22.408 142.068 22.408C142.32 22.408 142.74 22.876 142.872 23.068C142.98 23.224 143.052 23.404 143.16 23.548C143.292 23.716 143.424 23.848 143.532 23.992C144.12 24.832 144.888 25.696 145.644 26.356C145.884 25.576 146.352 24.844 146.736 24.112C146.964 23.668 147.528 22.864 147.852 22.516C147.9 22.468 147.972 22.444 148.056 22.444C148.296 22.444 148.62 22.636 148.8 22.768C149.58 23.32 149.34 25.468 149.328 25.996C149.304 26.992 149.448 27.988 149.364 28.984C149.34 29.368 149.34 29.764 149.292 30.136C149.256 30.436 149.256 30.832 148.98 31.024C148.92 31.072 148.872 31.084 148.824 31.084C148.668 31.084 148.56 30.892 148.452 30.724C148.284 30.46 148.332 30.016 148.296 29.716C148.212 29.02 148.212 28.288 148.248 27.58C148.248 27.208 148.212 26.836 148.2 26.464C148.164 26.14 148.248 25.372 148.164 24.964C147.936 25.156 147.36 26.284 147.24 26.56C147.084 26.884 147.048 27.064 146.892 27.376C146.712 27.736 146.592 28.024 146.4 28.276C146.316 28.384 146.22 28.432 146.124 28.432C145.992 28.432 145.848 28.336 145.704 28.18C145.272 27.724 144.732 27.352 144.324 26.848C144.096 26.584 143.832 26.332 143.604 26.068C143.448 25.876 143.124 25.432 142.908 25.252C142.98 26.356 143.016 27.472 143.184 28.576C143.244 29.02 143.28 29.584 143.352 30.016C143.4 30.292 143.508 30.7 143.352 30.976C143.22 31.204 143.112 31.3 143.004 31.3C142.908 31.3 142.812 31.24 142.704 31.12C142.248 30.64 142.176 29.92 142.044 29.32C141.888 28.576 141.816 27.808 141.78 27.04ZM152.802 27.16C153.462 27.04 154.194 27.004 154.866 27.004H154.986C154.83 26.572 154.662 26.152 154.446 25.732C154.242 25.336 154.026 24.916 153.858 24.52C153.834 24.472 153.822 24.436 153.81 24.376C153.51 24.784 153.27 25.636 153.114 26.104C153.006 26.452 152.91 26.8 152.802 27.16ZM157.218 30.148C157.23 30.424 157.29 31.228 156.762 31.12C156.258 31 156.294 30.544 156.138 30.184C155.958 29.752 155.814 29.296 155.67 28.84C155.622 28.672 155.49 28.516 155.442 28.36C155.37 28.36 155.082 28.396 155.022 28.396C154.638 28.396 154.482 28.42 154.122 28.48C153.738 28.54 153.354 28.54 152.97 28.588C152.778 28.612 152.574 28.72 152.37 28.756C152.298 29.188 152.106 29.572 151.998 29.992C151.938 30.196 151.854 30.412 151.806 30.652C151.758 30.844 151.686 31.048 151.434 31.072C151.206 31.072 150.702 31.156 150.57 30.256C150.39 29.176 151.074 27.976 151.35 26.932C151.614 26.272 151.77 25.504 151.998 24.832C152.094 24.568 152.178 24.328 152.286 24.064C152.502 23.596 152.718 22.744 153.15 22.468C153.306 22.384 153.738 22.648 153.918 22.744C154.086 22.816 154.518 23.284 154.59 23.476C154.674 23.704 154.806 23.908 154.926 24.136C155.91 25.96 156.102 26.992 156.714 28.396C156.954 28.936 157.146 29.56 157.218 30.148ZM159.68 24.316V24.988C159.704 25.564 159.62 25.792 159.656 26.356C159.656 26.536 159.74 26.884 159.704 27.052C159.896 26.956 160.184 26.884 160.316 26.884C160.628 26.884 162.944 26.008 163.292 25.84C163.544 25.696 164.372 25.336 164.264 25.06C164.036 24.376 162.152 24.076 161.432 24.076C160.844 24.076 160.46 24.22 159.68 24.316ZM165.584 29.524C165.704 29.632 165.968 29.8 165.776 30.136C165.596 30.448 164.528 30.64 164.144 30.64C163.772 30.64 163.34 30.496 162.992 30.388C162.452 30.244 160.196 28.972 159.776 28.636C159.74 29.212 159.764 29.728 159.776 30.292C159.8 30.496 159.812 30.964 159.704 31.156C159.632 31.288 159.56 31.336 159.464 31.336C159.38 31.336 159.296 31.3 159.188 31.264C158.732 31.072 158.648 30.652 158.648 30.328C158.672 30.004 158.768 29.488 158.768 29.176C158.756 28.408 158.648 27.652 158.6 26.86C158.564 26.416 158.528 25.984 158.528 25.504C158.528 25.072 158.252 24.292 158.228 23.86C158.216 23.584 158.168 23.308 158.444 23.116C158.9 22.816 160.82 22.624 161.336 22.624C161.636 22.624 161.924 22.648 162.224 22.708C163.1 22.9 164.18 23.128 164.708 23.824C165.044 24.244 165.248 24.448 165.356 24.94C165.536 25.612 165.056 26.224 164.528 26.608C163.7 27.196 163.064 27.628 161.624 28.06L161.156 28.204C161.504 28.396 161.876 28.624 162.008 28.66C162.176 28.72 162.992 29.092 164.18 29.212C165.368 29.332 165.464 29.44 165.584 29.524ZM173.4 24.064C173.304 24.124 173.16 24.136 173.016 24.136C172.296 24.136 171.576 24.124 170.856 24.076C171 25.096 170.652 26.284 170.748 27.268C170.808 27.904 170.796 28.564 170.856 29.212C170.88 29.476 170.94 29.716 171.012 29.944C171.084 30.184 171.18 30.316 171.084 30.58C171 30.808 170.808 31.024 170.544 31.024C170.316 31.024 170.184 30.82 170.088 30.604C169.836 29.992 169.776 29.332 169.704 28.684C169.608 27.928 169.68 26.992 169.644 26.224C169.62 25.876 169.62 25.096 169.56 24.772C169.512 24.544 169.464 24.28 169.44 24.04C168.732 24.028 168.216 24.04 167.556 24.22C167.412 24.268 167.232 24.292 167.064 24.292C166.86 24.292 166.668 24.244 166.524 24.112C166.224 23.824 166.176 23.14 166.404 22.996C166.572 22.888 166.704 22.852 166.884 22.828C167.172 22.804 167.412 22.636 167.688 22.612C168.06 22.576 168.432 22.576 168.804 22.6C169.668 22.636 170.52 22.696 171.372 22.756C171.72 22.78 172.908 22.876 173.124 23.176C173.232 23.332 173.568 23.968 173.4 24.064ZM175.859 24.952C175.787 25.456 175.811 25.852 175.811 26.356C175.811 26.392 175.811 26.416 175.811 26.452C176.087 26.416 176.291 26.356 176.567 26.344C177.107 26.308 177.635 26.344 178.151 26.38C178.799 26.416 179.591 26.38 180.191 26.608C180.359 26.668 180.467 26.86 180.503 27.052C180.539 27.244 180.563 27.388 180.431 27.508C180.155 27.736 179.879 27.712 179.531 27.736C178.715 27.772 177.863 27.7 177.011 27.736C176.675 27.736 176.483 27.808 176.159 27.856C176.099 27.856 176.039 27.868 175.967 27.892C175.895 28.216 175.751 29.26 175.943 29.572C176.087 29.608 176.219 29.596 176.363 29.596C176.591 29.596 176.675 29.536 176.903 29.5C177.371 29.416 177.803 29.44 178.271 29.344C178.655 29.284 179.003 29.248 179.387 29.224C179.699 29.212 179.963 29.224 180.275 29.212C180.551 29.176 181.055 29.176 181.127 29.44C181.199 29.752 181.127 30.112 180.947 30.196C180.659 30.376 179.507 30.544 179.147 30.616C178.691 30.724 178.271 30.844 177.827 30.844C177.335 30.844 176.843 31.048 176.363 31.048C175.919 31.048 175.403 30.76 175.151 30.388C174.959 30.148 174.743 29.608 174.719 29.32C174.659 28.744 174.719 28.168 174.683 27.592C174.647 27.16 174.611 26.728 174.611 26.296C174.611 25.648 174.527 24.976 174.623 24.34C174.695 23.932 174.491 23.08 174.815 22.828C175.151 22.588 175.439 22.504 175.847 22.552C176.315 22.612 177.635 22.696 178.607 22.708C178.931 22.708 181.415 23.008 180.947 23.812C180.779 24.1 180.287 24.088 180.035 24.1C179.663 24.124 179.267 24.136 178.895 24.148C178.271 24.184 177.791 24.244 177.167 24.22C176.879 24.22 176.615 24.136 176.339 24.136C176.063 24.136 175.991 24.148 175.943 24.448C175.907 24.604 175.883 24.784 175.859 24.952ZM184.019 24.316V24.988C184.043 25.564 183.959 25.792 183.995 26.356C183.995 26.536 184.079 26.884 184.043 27.052C184.235 26.956 184.523 26.884 184.655 26.884C184.967 26.884 187.283 26.008 187.631 25.84C187.883 25.696 188.711 25.336 188.603 25.06C188.375 24.376 186.491 24.076 185.771 24.076C185.183 24.076 184.799 24.22 184.019 24.316ZM189.923 29.524C190.043 29.632 190.307 29.8 190.115 30.136C189.935 30.448 188.867 30.64 188.483 30.64C188.111 30.64 187.679 30.496 187.331 30.388C186.791 30.244 184.535 28.972 184.115 28.636C184.079 29.212 184.103 29.728 184.115 30.292C184.139 30.496 184.151 30.964 184.043 31.156C183.971 31.288 183.899 31.336 183.803 31.336C183.719 31.336 183.635 31.3 183.527 31.264C183.071 31.072 182.987 30.652 182.987 30.328C183.011 30.004 183.107 29.488 183.107 29.176C183.095 28.408 182.987 27.652 182.939 26.86C182.903 26.416 182.867 25.984 182.867 25.504C182.867 25.072 182.591 24.292 182.567 23.86C182.555 23.584 182.507 23.308 182.783 23.116C183.239 22.816 185.159 22.624 185.675 22.624C185.975 22.624 186.263 22.648 186.563 22.708C187.439 22.9 188.519 23.128 189.047 23.824C189.383 24.244 189.587 24.448 189.695 24.94C189.875 25.612 189.395 26.224 188.867 26.608C188.039 27.196 187.403 27.628 185.963 28.06L185.495 28.204C185.843 28.396 186.215 28.624 186.347 28.66C186.515 28.72 187.331 29.092 188.519 29.212C189.707 29.332 189.803 29.44 189.923 29.524ZM27.572 40.064C27.476 40.124 27.332 40.136 27.188 40.136C26.468 40.136 25.748 40.124 25.028 40.076C25.172 41.096 24.824 42.284 24.92 43.268C24.98 43.904 24.968 44.564 25.028 45.212C25.052 45.476 25.112 45.716 25.184 45.944C25.256 46.184 25.352 46.316 25.256 46.58C25.172 46.808 24.98 47.024 24.716 47.024C24.488 47.024 24.356 46.82 24.26 46.604C24.008 45.992 23.948 45.332 23.876 44.684C23.78 43.928 23.852 42.992 23.816 42.224C23.792 41.876 23.792 41.096 23.732 40.772C23.684 40.544 23.636 40.28 23.612 40.04C22.904 40.028 22.388 40.04 21.728 40.22C21.584 40.268 21.404 40.292 21.236 40.292C21.032 40.292 20.84 40.244 20.696 40.112C20.396 39.824 20.348 39.14 20.576 38.996C20.744 38.888 20.876 38.852 21.056 38.828C21.344 38.804 21.584 38.636 21.86 38.612C22.232 38.576 22.604 38.576 22.976 38.6C23.84 38.636 24.692 38.696 25.544 38.756C25.892 38.78 27.08 38.876 27.296 39.176C27.404 39.332 27.74 39.968 27.572 40.064ZM34.4228 47.396C34.3868 47.408 34.3628 47.408 34.3268 47.408C34.1348 47.408 33.9188 47.276 33.8228 47.144C33.6788 46.952 33.6668 46.664 33.5948 46.448C33.3908 45.716 33.4148 45.056 33.3668 44.288C32.8508 44.324 32.3228 44.336 31.7828 44.372C31.1828 44.408 30.6428 44.552 30.0548 44.708C30.0788 45.092 30.0908 45.344 30.0548 45.728C30.0308 46.076 30.0308 46.424 29.9948 46.76C29.9468 47.048 29.8388 47.3 29.5028 47.3C29.0468 47.3 28.8908 46.52 28.8908 46.184C28.8908 45.332 28.8188 44.492 28.7588 43.664C28.7468 43.232 28.7828 42.824 28.8188 42.392C28.8668 42.032 28.8548 41.648 28.9148 41.288C28.9868 40.832 29.0708 40.364 29.1788 39.908C29.2868 39.548 29.2988 39.116 29.6708 38.888C29.7308 38.852 29.8028 38.828 29.8628 38.828C30.0428 38.828 30.2228 38.948 30.3068 39.08C30.4508 39.308 30.3788 39.644 30.3308 39.896C30.2348 40.328 30.2228 40.76 30.1868 41.216C30.1748 41.756 30.1388 42.044 30.0788 42.608C30.0668 42.764 30.0548 42.92 30.0548 43.076C30.1148 43.052 30.1868 43.04 30.2588 43.016C31.2428 42.812 32.3108 42.776 33.3188 42.776C33.2948 42.452 33.2948 42.14 33.2948 41.816C33.2948 41.324 33.3188 41.06 33.3548 40.568C33.3908 40.124 33.3908 39.668 33.4388 39.212C33.4748 38.972 33.4868 38.708 33.6308 38.504C33.7148 38.36 33.9548 38.108 34.1708 38.168C34.3748 38.264 34.3748 38.612 34.4228 38.768C34.5668 39.2 34.5308 39.62 34.5548 40.064C34.5668 40.376 34.5548 40.724 34.5548 41.036C34.5308 41.66 34.5428 42.296 34.5668 42.92C34.6148 43.892 34.6868 44.864 34.6868 45.824C34.6868 46.16 34.6868 46.508 34.7228 46.844C34.7348 47.036 34.6388 47.312 34.4228 47.396ZM38.1336 43.16C38.7936 43.04 39.5256 43.004 40.1976 43.004H40.3176C40.1616 42.572 39.9936 42.152 39.7776 41.732C39.5736 41.336 39.3576 40.916 39.1896 40.52C39.1656 40.472 39.1536 40.436 39.1416 40.376C38.8416 40.784 38.6016 41.636 38.4456 42.104C38.3376 42.452 38.2416 42.8 38.1336 43.16ZM42.5496 46.148C42.5616 46.424 42.6216 47.228 42.0936 47.12C41.5896 47 41.6256 46.544 41.4696 46.184C41.2896 45.752 41.1456 45.296 41.0016 44.84C40.9536 44.672 40.8216 44.516 40.7736 44.36C40.7016 44.36 40.4136 44.396 40.3536 44.396C39.9696 44.396 39.8136 44.42 39.4536 44.48C39.0696 44.54 38.6856 44.54 38.3016 44.588C38.1096 44.612 37.9056 44.72 37.7016 44.756C37.6296 45.188 37.4376 45.572 37.3296 45.992C37.2696 46.196 37.1856 46.412 37.1376 46.652C37.0896 46.844 37.0176 47.048 36.7656 47.072C36.5376 47.072 36.0336 47.156 35.9016 46.256C35.7216 45.176 36.4056 43.976 36.6816 42.932C36.9456 42.272 37.1016 41.504 37.3296 40.832C37.4256 40.568 37.5096 40.328 37.6176 40.064C37.8336 39.596 38.0496 38.744 38.4816 38.468C38.6376 38.384 39.0696 38.648 39.2496 38.744C39.4176 38.816 39.8496 39.284 39.9216 39.476C40.0056 39.704 40.1376 39.908 40.2576 40.136C41.2416 41.96 41.4336 42.992 42.0456 44.396C42.2856 44.936 42.4776 45.56 42.5496 46.148ZM45.2823 47.228C45.2823 47.228 45.1503 47.324 44.9703 47.324C44.8383 47.324 44.6703 47.264 44.5023 47.084C44.3223 46.892 43.6263 44.252 43.5783 42.92C43.5303 41.576 43.1583 39.752 43.3023 39.392C43.4223 39.008 43.4703 38.804 43.6503 38.768C43.8423 38.732 43.9983 38.744 44.2503 38.9C44.5143 39.056 45.2943 40.676 45.7023 41.096C46.0743 41.504 48.1263 43.556 48.6903 43.988C49.0743 44.3 49.5183 44.312 49.5663 44.312C49.5783 44.312 49.5903 41.456 49.5903 41.096C49.5903 40.724 49.6263 39.716 49.7583 39.332C49.9023 38.96 50.2503 38.66 50.5863 38.744C50.7423 38.804 50.8383 39.176 50.8263 39.644C50.8263 40.124 50.8263 43.268 50.7663 43.832C50.7183 44.432 50.9223 46.304 50.8623 46.568C50.7423 47.036 50.3943 46.928 50.1783 46.928C49.5183 46.916 48.0423 45.368 47.4303 44.864C46.8303 44.36 44.8863 42.224 44.6703 41.852C44.6703 41.852 44.8503 43.46 45.0063 44.084C45.1623 44.72 45.3543 45.644 45.4023 46.1C45.4503 46.532 45.5463 47.072 45.2823 47.228ZM58.6648 43.16C59.3248 43.04 60.0568 43.004 60.7288 43.004H60.8488C60.6928 42.572 60.5248 42.152 60.3088 41.732C60.1048 41.336 59.8888 40.916 59.7208 40.52C59.6968 40.472 59.6848 40.436 59.6728 40.376C59.3728 40.784 59.1328 41.636 58.9768 42.104C58.8688 42.452 58.7728 42.8 58.6648 43.16ZM63.0808 46.148C63.0928 46.424 63.1528 47.228 62.6248 47.12C62.1208 47 62.1568 46.544 62.0008 46.184C61.8208 45.752 61.6768 45.296 61.5328 44.84C61.4848 44.672 61.3528 44.516 61.3048 44.36C61.2328 44.36 60.9448 44.396 60.8848 44.396C60.5008 44.396 60.3448 44.42 59.9848 44.48C59.6008 44.54 59.2168 44.54 58.8328 44.588C58.6408 44.612 58.4368 44.72 58.2328 44.756C58.1608 45.188 57.9688 45.572 57.8608 45.992C57.8008 46.196 57.7168 46.412 57.6688 46.652C57.6208 46.844 57.5488 47.048 57.2968 47.072C57.0688 47.072 56.5648 47.156 56.4328 46.256C56.2528 45.176 56.9368 43.976 57.2128 42.932C57.4768 42.272 57.6328 41.504 57.8608 40.832C57.9568 40.568 58.0408 40.328 58.1488 40.064C58.3648 39.596 58.5808 38.744 59.0128 38.468C59.1688 38.384 59.6008 38.648 59.7808 38.744C59.9488 38.816 60.3808 39.284 60.4528 39.476C60.5368 39.704 60.6688 39.908 60.7888 40.136C61.7728 41.96 61.9648 42.992 62.5768 44.396C62.8168 44.936 63.0088 45.56 63.0808 46.148ZM70.078 40.316V40.988C70.102 41.564 70.018 41.792 70.054 42.356C70.054 42.536 70.138 42.884 70.102 43.052C70.294 42.956 70.582 42.884 70.714 42.884C71.026 42.884 73.342 42.008 73.69 41.84C73.942 41.696 74.77 41.336 74.662 41.06C74.434 40.376 72.55 40.076 71.83 40.076C71.242 40.076 70.858 40.22 70.078 40.316ZM75.982 45.524C76.102 45.632 76.366 45.8 76.174 46.136C75.994 46.448 74.926 46.64 74.542 46.64C74.17 46.64 73.738 46.496 73.39 46.388C72.85 46.244 70.594 44.972 70.174 44.636C70.138 45.212 70.162 45.728 70.174 46.292C70.198 46.496 70.21 46.964 70.102 47.156C70.03 47.288 69.958 47.336 69.862 47.336C69.778 47.336 69.694 47.3 69.586 47.264C69.13 47.072 69.046 46.652 69.046 46.328C69.07 46.004 69.166 45.488 69.166 45.176C69.154 44.408 69.046 43.652 68.998 42.86C68.962 42.416 68.926 41.984 68.926 41.504C68.926 41.072 68.65 40.292 68.626 39.86C68.614 39.584 68.566 39.308 68.842 39.116C69.298 38.816 71.218 38.624 71.734 38.624C72.034 38.624 72.322 38.648 72.622 38.708C73.498 38.9 74.578 39.128 75.106 39.824C75.442 40.244 75.646 40.448 75.754 40.94C75.934 41.612 75.454 42.224 74.926 42.608C74.098 43.196 73.462 43.628 72.022 44.06L71.554 44.204C71.902 44.396 72.274 44.624 72.406 44.66C72.574 44.72 73.39 45.092 74.578 45.212C75.766 45.332 75.862 45.44 75.982 45.524ZM78.9214 40.952C78.8494 41.456 78.8734 41.852 78.8734 42.356C78.8734 42.392 78.8734 42.416 78.8734 42.452C79.1494 42.416 79.3534 42.356 79.6294 42.344C80.1694 42.308 80.6974 42.344 81.2134 42.38C81.8614 42.416 82.6534 42.38 83.2534 42.608C83.4214 42.668 83.5294 42.86 83.5654 43.052C83.6014 43.244 83.6254 43.388 83.4934 43.508C83.2174 43.736 82.9414 43.712 82.5934 43.736C81.7774 43.772 80.9254 43.7 80.0734 43.736C79.7374 43.736 79.5454 43.808 79.2214 43.856C79.1614 43.856 79.1014 43.868 79.0294 43.892C78.9574 44.216 78.8134 45.26 79.0054 45.572C79.1494 45.608 79.2814 45.596 79.4254 45.596C79.6534 45.596 79.7374 45.536 79.9654 45.5C80.4334 45.416 80.8654 45.44 81.3334 45.344C81.7174 45.284 82.0654 45.248 82.4494 45.224C82.7614 45.212 83.0254 45.224 83.3374 45.212C83.6134 45.176 84.1174 45.176 84.1894 45.44C84.2614 45.752 84.1894 46.112 84.0094 46.196C83.7214 46.376 82.5694 46.544 82.2094 46.616C81.7534 46.724 81.3334 46.844 80.8894 46.844C80.3974 46.844 79.9054 47.048 79.4254 47.048C78.9814 47.048 78.4654 46.76 78.2134 46.388C78.0214 46.148 77.8054 45.608 77.7814 45.32C77.7214 44.744 77.7814 44.168 77.7454 43.592C77.7094 43.16 77.6734 42.728 77.6734 42.296C77.6734 41.648 77.5894 40.976 77.6854 40.34C77.7574 39.932 77.5534 39.08 77.8774 38.828C78.2134 38.588 78.5014 38.504 78.9094 38.552C79.3774 38.612 80.6974 38.696 81.6694 38.708C81.9934 38.708 84.4774 39.008 84.0094 39.812C83.8414 40.1 83.3494 40.088 83.0974 40.1C82.7254 40.124 82.3294 40.136 81.9574 40.148C81.3334 40.184 80.8534 40.244 80.2294 40.22C79.9414 40.22 79.6774 40.136 79.4014 40.136C79.1254 40.136 79.0534 40.148 79.0054 40.448C78.9694 40.604 78.9454 40.784 78.9214 40.952ZM91.7859 39.644C92.0379 39.872 92.4219 40.592 92.4099 40.952C92.3859 41.216 92.4219 41.504 92.1699 41.648C92.0979 41.684 92.0259 41.708 91.9779 41.708C91.8219 41.708 91.7019 41.588 91.5099 41.456C91.2819 41.3 91.1859 41.132 91.1019 40.904C90.9819 40.652 90.8259 40.532 90.5979 40.34C90.3459 40.16 90.0939 39.968 89.7699 39.968C89.7099 39.968 89.6499 39.968 89.5899 39.98C88.4859 40.208 88.0179 40.7 87.4419 41.648C87.1419 42.116 86.8779 42.644 86.9139 43.196C86.9139 43.58 87.0219 44.012 87.2499 44.336C87.4899 44.684 87.6939 44.78 88.0299 45.068C88.4859 45.488 89.1339 45.584 89.7819 45.584C90.7659 45.584 91.7859 45.476 92.7219 45.164C92.9859 45.068 93.4539 45.284 93.4659 45.572C93.4899 45.788 93.1899 46.112 93.0339 46.268C92.6619 46.628 90.8379 47.072 90.2739 47.072C88.3899 47.072 86.9379 46.184 85.9059 44.636C85.5579 44.132 85.3299 43.232 85.3659 42.644C85.4019 41.996 85.7739 41.384 86.0979 40.832C86.4099 40.316 86.6379 39.752 87.1059 39.32C87.5619 38.924 88.2939 38.516 88.9539 38.504C89.4699 38.504 90.0459 38.648 90.5259 38.816C91.0059 38.984 91.4139 39.32 91.7859 39.644ZM100.702 44.6C101.002 44.312 101.218 43.868 101.218 43.46C101.218 42.992 100.666 40.724 99.7782 40.64C99.5142 40.604 98.9142 40.532 98.6862 40.4C98.5422 40.316 98.5062 40.244 98.3862 40.28C98.2302 40.292 98.0382 40.448 97.9062 40.52C97.7262 40.604 97.5702 40.712 97.4022 40.82C96.7782 41.156 96.4422 41.6 95.9862 42.224C95.8062 42.488 95.5902 43.316 95.6142 43.652C95.6262 44.216 95.6742 44.708 96.2022 45.056C96.5982 45.32 97.7022 45.62 98.2182 45.62C98.6502 45.62 99.2382 45.512 99.5742 45.416C100.09 45.284 100.366 44.948 100.702 44.6ZM101.878 41.492C102.382 42.464 102.562 43.316 102.37 44.408C102.058 46.1 100.342 47.156 98.6982 47.156C97.0902 47.156 94.7862 45.992 94.4262 44.312C94.1382 43.016 94.6902 41.336 95.4582 40.292C96.1062 39.392 97.2102 38.816 98.3142 38.816C99.5022 38.816 100.426 39.416 101.158 40.316C101.434 40.676 101.674 41.096 101.878 41.492ZM103.823 43.04C103.775 42.428 103.691 41.816 103.655 41.192C103.631 40.772 103.583 40.364 103.583 39.956C103.583 39.644 103.679 38.408 104.111 38.408C104.363 38.408 104.783 38.876 104.915 39.068C105.023 39.224 105.095 39.404 105.203 39.548C105.335 39.716 105.467 39.848 105.575 39.992C106.163 40.832 106.931 41.696 107.687 42.356C107.927 41.576 108.395 40.844 108.779 40.112C109.007 39.668 109.571 38.864 109.895 38.516C109.943 38.468 110.015 38.444 110.099 38.444C110.339 38.444 110.663 38.636 110.843 38.768C111.623 39.32 111.383 41.468 111.371 41.996C111.347 42.992 111.491 43.988 111.407 44.984C111.383 45.368 111.383 45.764 111.335 46.136C111.299 46.436 111.299 46.832 111.023 47.024C110.963 47.072 110.915 47.084 110.867 47.084C110.711 47.084 110.603 46.892 110.495 46.724C110.327 46.46 110.375 46.016 110.339 45.716C110.255 45.02 110.255 44.288 110.291 43.58C110.291 43.208 110.255 42.836 110.243 42.464C110.207 42.14 110.291 41.372 110.207 40.964C109.979 41.156 109.403 42.284 109.283 42.56C109.127 42.884 109.091 43.064 108.935 43.376C108.755 43.736 108.635 44.024 108.443 44.276C108.359 44.384 108.263 44.432 108.167 44.432C108.035 44.432 107.891 44.336 107.747 44.18C107.315 43.724 106.775 43.352 106.367 42.848C106.139 42.584 105.875 42.332 105.647 42.068C105.491 41.876 105.167 41.432 104.951 41.252C105.023 42.356 105.059 43.472 105.227 44.576C105.287 45.02 105.323 45.584 105.395 46.016C105.443 46.292 105.551 46.7 105.395 46.976C105.263 47.204 105.155 47.3 105.047 47.3C104.951 47.3 104.855 47.24 104.747 47.12C104.291 46.64 104.219 45.92 104.087 45.32C103.931 44.576 103.859 43.808 103.823 43.04ZM113.081 43.04C113.033 42.428 112.949 41.816 112.913 41.192C112.889 40.772 112.841 40.364 112.841 39.956C112.841 39.644 112.937 38.408 113.369 38.408C113.621 38.408 114.041 38.876 114.173 39.068C114.281 39.224 114.353 39.404 114.461 39.548C114.593 39.716 114.725 39.848 114.833 39.992C115.421 40.832 116.189 41.696 116.945 42.356C117.185 41.576 117.653 40.844 118.037 40.112C118.265 39.668 118.829 38.864 119.153 38.516C119.201 38.468 119.273 38.444 119.357 38.444C119.597 38.444 119.921 38.636 120.101 38.768C120.881 39.32 120.641 41.468 120.629 41.996C120.605 42.992 120.749 43.988 120.665 44.984C120.641 45.368 120.641 45.764 120.593 46.136C120.557 46.436 120.557 46.832 120.281 47.024C120.221 47.072 120.173 47.084 120.125 47.084C119.969 47.084 119.861 46.892 119.753 46.724C119.585 46.46 119.633 46.016 119.597 45.716C119.513 45.02 119.513 44.288 119.549 43.58C119.549 43.208 119.513 42.836 119.501 42.464C119.465 42.14 119.549 41.372 119.465 40.964C119.237 41.156 118.661 42.284 118.541 42.56C118.385 42.884 118.349 43.064 118.193 43.376C118.013 43.736 117.893 44.024 117.701 44.276C117.617 44.384 117.521 44.432 117.425 44.432C117.293 44.432 117.149 44.336 117.005 44.18C116.573 43.724 116.033 43.352 115.625 42.848C115.397 42.584 115.133 42.332 114.905 42.068C114.749 41.876 114.425 41.432 114.209 41.252C114.281 42.356 114.317 43.472 114.485 44.576C114.545 45.02 114.581 45.584 114.653 46.016C114.701 46.292 114.809 46.7 114.653 46.976C114.521 47.204 114.413 47.3 114.305 47.3C114.209 47.3 114.113 47.24 114.005 47.12C113.549 46.64 113.477 45.92 113.345 45.32C113.189 44.576 113.117 43.808 113.081 43.04ZM123.382 40.952C123.31 41.456 123.334 41.852 123.334 42.356C123.334 42.392 123.334 42.416 123.334 42.452C123.61 42.416 123.814 42.356 124.09 42.344C124.63 42.308 125.158 42.344 125.674 42.38C126.322 42.416 127.114 42.38 127.714 42.608C127.882 42.668 127.99 42.86 128.026 43.052C128.062 43.244 128.086 43.388 127.954 43.508C127.678 43.736 127.402 43.712 127.054 43.736C126.238 43.772 125.386 43.7 124.534 43.736C124.198 43.736 124.006 43.808 123.682 43.856C123.622 43.856 123.562 43.868 123.49 43.892C123.418 44.216 123.274 45.26 123.466 45.572C123.61 45.608 123.742 45.596 123.886 45.596C124.114 45.596 124.198 45.536 124.426 45.5C124.894 45.416 125.326 45.44 125.794 45.344C126.178 45.284 126.526 45.248 126.91 45.224C127.222 45.212 127.486 45.224 127.798 45.212C128.074 45.176 128.578 45.176 128.65 45.44C128.722 45.752 128.65 46.112 128.47 46.196C128.182 46.376 127.03 46.544 126.67 46.616C126.214 46.724 125.794 46.844 125.35 46.844C124.858 46.844 124.366 47.048 123.886 47.048C123.442 47.048 122.926 46.76 122.674 46.388C122.482 46.148 122.266 45.608 122.242 45.32C122.182 44.744 122.242 44.168 122.206 43.592C122.17 43.16 122.134 42.728 122.134 42.296C122.134 41.648 122.05 40.976 122.146 40.34C122.218 39.932 122.014 39.08 122.338 38.828C122.674 38.588 122.962 38.504 123.37 38.552C123.838 38.612 125.158 38.696 126.13 38.708C126.454 38.708 128.938 39.008 128.47 39.812C128.302 40.1 127.81 40.088 127.558 40.1C127.186 40.124 126.79 40.136 126.418 40.148C125.794 40.184 125.314 40.244 124.69 40.22C124.402 40.22 124.138 40.136 123.862 40.136C123.586 40.136 123.514 40.148 123.466 40.448C123.43 40.604 123.406 40.784 123.382 40.952ZM132.095 47.228C132.095 47.228 131.963 47.324 131.783 47.324C131.651 47.324 131.483 47.264 131.315 47.084C131.135 46.892 130.439 44.252 130.391 42.92C130.343 41.576 129.971 39.752 130.115 39.392C130.235 39.008 130.283 38.804 130.463 38.768C130.655 38.732 130.811 38.744 131.063 38.9C131.327 39.056 132.107 40.676 132.515 41.096C132.887 41.504 134.939 43.556 135.503 43.988C135.887 44.3 136.331 44.312 136.379 44.312C136.391 44.312 136.403 41.456 136.403 41.096C136.403 40.724 136.439 39.716 136.571 39.332C136.715 38.96 137.063 38.66 137.399 38.744C137.555 38.804 137.651 39.176 137.639 39.644C137.639 40.124 137.639 43.268 137.579 43.832C137.531 44.432 137.735 46.304 137.675 46.568C137.555 47.036 137.207 46.928 136.991 46.928C136.331 46.916 134.855 45.368 134.243 44.864C133.643 44.36 131.699 42.224 131.483 41.852C131.483 41.852 131.663 43.46 131.819 44.084C131.975 44.72 132.167 45.644 132.215 46.1C132.263 46.532 132.359 47.072 132.095 47.228ZM144.047 43.808C144.323 43.424 144.695 42.536 144.659 42.068C144.635 41.6 144.251 41.372 143.819 41.096C143.399 40.82 143.003 40.496 142.523 40.316C142.187 40.172 141.827 40.064 141.479 39.968C141.167 39.86 140.795 39.74 140.447 39.752C140.447 39.932 140.435 40.088 140.435 40.256C140.435 41.096 140.603 41.924 140.603 42.764C140.603 43.424 140.675 44.06 140.711 44.72C140.723 45.068 140.723 45.416 140.759 45.764C141.887 45.572 143.351 44.708 144.047 43.808ZM145.331 40.868C145.595 41.372 145.895 41.96 145.763 42.488C145.703 42.896 145.031 44.456 144.791 44.78C143.807 46.064 143.339 46.484 141.791 47.012C141.575 47.084 140.819 47.336 140.615 47.336C140.435 47.336 140.267 47.252 140.123 47.12C139.751 46.808 139.559 46.568 139.583 46.376C139.595 45.98 139.499 45.38 139.499 44.984C139.499 43.664 139.403 42.32 139.319 41C139.307 40.712 139.307 40.412 139.307 40.136C139.307 39.908 139.235 39.776 139.163 39.428C139.127 39.2 139.031 38.924 139.115 38.672C139.187 38.432 139.283 38.312 139.535 38.276C139.679 38.252 139.835 38.252 139.967 38.252C140.375 38.252 140.747 38.312 141.167 38.432C141.707 38.576 142.259 38.732 142.775 38.9C143.831 39.32 144.839 39.776 145.331 40.868ZM148.513 43.16C149.173 43.04 149.905 43.004 150.577 43.004H150.697C150.541 42.572 150.373 42.152 150.157 41.732C149.953 41.336 149.737 40.916 149.569 40.52C149.545 40.472 149.533 40.436 149.521 40.376C149.221 40.784 148.98 41.636 148.825 42.104C148.717 42.452 148.621 42.8 148.513 43.16ZM152.929 46.148C152.941 46.424 153.001 47.228 152.473 47.12C151.969 47 152.005 46.544 151.849 46.184C151.669 45.752 151.525 45.296 151.381 44.84C151.333 44.672 151.201 44.516 151.153 44.36C151.081 44.36 150.793 44.396 150.733 44.396C150.349 44.396 150.193 44.42 149.833 44.48C149.449 44.54 149.065 44.54 148.681 44.588C148.489 44.612 148.285 44.72 148.081 44.756C148.009 45.188 147.817 45.572 147.709 45.992C147.649 46.196 147.565 46.412 147.517 46.652C147.469 46.844 147.396 47.048 147.145 47.072C146.917 47.072 146.413 47.156 146.281 46.256C146.101 45.176 146.785 43.976 147.061 42.932C147.325 42.272 147.481 41.504 147.709 40.832C147.805 40.568 147.889 40.328 147.997 40.064C148.213 39.596 148.429 38.744 148.861 38.468C149.017 38.384 149.449 38.648 149.629 38.744C149.797 38.816 150.229 39.284 150.301 39.476C150.385 39.704 150.517 39.908 150.637 40.136C151.621 41.96 151.812 42.992 152.424 44.396C152.665 44.936 152.857 45.56 152.929 46.148ZM159.677 40.064C159.581 40.124 159.437 40.136 159.293 40.136C158.573 40.136 157.853 40.124 157.133 40.076C157.277 41.096 156.929 42.284 157.025 43.268C157.085 43.904 157.073 44.564 157.133 45.212C157.157 45.476 157.217 45.716 157.289 45.944C157.361 46.184 157.457 46.316 157.361 46.58C157.277 46.808 157.085 47.024 156.821 47.024C156.593 47.024 156.461 46.82 156.365 46.604C156.113 45.992 156.053 45.332 155.981 44.684C155.885 43.928 155.957 42.992 155.921 42.224C155.897 41.876 155.897 41.096 155.837 40.772C155.789 40.544 155.741 40.28 155.717 40.04C155.009 40.028 154.493 40.04 153.833 40.22C153.689 40.268 153.509 40.292 153.341 40.292C153.137 40.292 152.945 40.244 152.801 40.112C152.501 39.824 152.453 39.14 152.681 38.996C152.849 38.888 152.981 38.852 153.161 38.828C153.449 38.804 153.689 38.636 153.965 38.612C154.337 38.576 154.709 38.576 155.081 38.6C155.945 38.636 156.797 38.696 157.649 38.756C157.997 38.78 159.185 38.876 159.401 39.176C159.509 39.332 159.845 39.968 159.677 40.064ZM161.176 45.644C161.164 45.44 161.128 45.248 161.104 45.032C161.104 44.564 161.068 44.12 161.056 43.652C161.032 42.668 160.936 41.72 160.948 40.76C160.972 40.292 160.864 39.836 160.864 39.368C160.876 39.092 160.816 38.888 160.984 38.648C161.08 38.516 161.176 38.468 161.272 38.468C161.644 38.468 161.908 38.972 161.992 39.272C162.1 39.596 162.064 39.968 162.112 40.316C162.136 40.4 162.268 43.304 162.268 43.388C162.268 43.664 162.328 43.94 162.328 44.24C162.34 44.528 162.328 44.828 162.352 45.104C162.448 45.716 162.544 46.448 162.232 46.988C162.184 47.084 162.064 47.12 161.944 47.12C161.836 47.12 161.728 47.096 161.632 47.048C161.104 46.832 161.212 46.04 161.176 45.644ZM169.937 44.6C170.237 44.312 170.453 43.868 170.453 43.46C170.453 42.992 169.901 40.724 169.013 40.64C168.749 40.604 168.149 40.532 167.921 40.4C167.777 40.316 167.741 40.244 167.621 40.28C167.465 40.292 167.273 40.448 167.141 40.52C166.961 40.604 166.805 40.712 166.637 40.82C166.013 41.156 165.677 41.6 165.221 42.224C165.041 42.488 164.825 43.316 164.849 43.652C164.861 44.216 164.909 44.708 165.437 45.056C165.833 45.32 166.937 45.62 167.453 45.62C167.885 45.62 168.473 45.512 168.809 45.416C169.325 45.284 169.601 44.948 169.937 44.6ZM171.113 41.492C171.617 42.464 171.797 43.316 171.605 44.408C171.293 46.1 169.577 47.156 167.933 47.156C166.325 47.156 164.021 45.992 163.661 44.312C163.373 43.016 163.925 41.336 164.693 40.292C165.341 39.392 166.445 38.816 167.549 38.816C168.737 38.816 169.661 39.416 170.393 40.316C170.669 40.676 170.909 41.096 171.113 41.492ZM174.833 47.228C174.833 47.228 174.701 47.324 174.521 47.324C174.389 47.324 174.221 47.264 174.053 47.084C173.873 46.892 173.177 44.252 173.129 42.92C173.081 41.576 172.709 39.752 172.853 39.392C172.973 39.008 173.021 38.804 173.201 38.768C173.393 38.732 173.549 38.744 173.801 38.9C174.065 39.056 174.845 40.676 175.253 41.096C175.625 41.504 177.677 43.556 178.241 43.988C178.625 44.3 179.069 44.312 179.117 44.312C179.129 44.312 179.141 41.456 179.141 41.096C179.141 40.724 179.177 39.716 179.309 39.332C179.453 38.96 179.801 38.66 180.137 38.744C180.293 38.804 180.389 39.176 180.377 39.644C180.377 40.124 180.377 43.268 180.317 43.832C180.269 44.432 180.473 46.304 180.413 46.568C180.293 47.036 179.945 46.928 179.729 46.928C179.069 46.916 177.593 45.368 176.981 44.864C176.381 44.36 174.437 42.224 174.221 41.852C174.221 41.852 174.401 43.46 174.557 44.084C174.713 44.72 174.905 45.644 174.953 46.1C175.001 46.532 175.097 47.072 174.833 47.228ZM24.512 61.848C24.68 61.86 24.836 61.872 24.992 61.872C26.72 61.872 26.948 60.972 26.948 60.972C26.552 60.708 24.38 59.868 23.924 59.712C22.832 59.328 21.476 58.92 20.924 57.876C20.672 57.408 20.648 57.036 20.768 56.556C20.816 56.328 20.9 56.124 21.02 55.944C21.176 55.716 21.44 55.596 21.632 55.428C22.22 54.9 23.048 54.636 23.852 54.636C24.632 54.636 25.34 54.864 25.964 55.332C26.468 55.716 27.44 56.556 27.26 57.06C27.2 57.24 26.876 57.384 26.612 57.384C26.252 57.384 25.772 56.808 25.628 56.532C25.496 56.292 25.04 55.932 24.764 55.932C24.38 55.896 23.528 56.088 23.18 56.244C22.952 56.34 22.76 56.496 22.568 56.676C22.472 56.796 22.364 56.916 22.244 57.024C22.184 57.072 22.028 57.228 22.016 57.3C22.004 57.408 23.456 58.344 23.612 58.392C24.044 58.536 24.392 58.704 24.836 58.824C25.676 59.124 26.588 59.496 27.368 59.928C28.016 60.288 28.484 61.056 28.172 61.8C28.016 62.22 27.848 62.616 27.44 62.844C26.948 63.084 26.468 63.108 25.94 63.168C25.7 63.216 25.46 63.228 25.232 63.228C24.872 63.228 24.524 63.18 24.152 63.036C23.396 62.784 22.184 62.376 21.584 61.836C21.368 61.668 21.2 61.452 21.02 61.224C20.816 60.948 20.66 60.48 20.84 60.168C20.912 60.036 21.044 59.988 21.176 59.988C21.368 59.988 21.572 60.072 21.716 60.156C22.16 60.36 22.088 60.864 22.472 61.128C22.868 61.404 24.044 61.812 24.512 61.848ZM34.9553 55.548C34.7753 55.86 33.6833 57.66 33.6233 57.804C33.4433 58.152 33.3353 58.344 33.1793 58.644C32.8073 59.364 32.0513 61.8 31.9313 62.568C31.9073 62.7 31.8233 63 31.6433 63.12C31.5713 63.18 31.4873 63.204 31.4153 63.204C31.1993 63.204 30.9713 63.036 30.8513 62.808C30.6593 62.484 30.7313 61.692 30.7433 61.56C30.7673 61.26 30.9233 60.396 31.2833 59.496C31.1273 59.328 30.9713 59.172 30.8513 59.052C30.5153 58.728 28.5113 56.088 28.3433 55.512C28.2593 55.2 28.3073 54.888 28.4993 54.852C28.5353 54.852 28.5713 54.84 28.6073 54.84C28.8113 54.84 29.0873 54.924 29.2193 55.092C29.3513 55.284 30.1313 56.412 30.2753 56.592C30.6113 57.072 31.2353 58.032 31.6793 58.296C31.6793 58.296 31.9433 57.6 32.0513 57.408C32.1353 57.216 32.9633 55.68 33.1193 55.428C33.2753 55.176 33.4913 55.02 33.6113 54.924C33.6833 54.852 34.0793 54.672 34.2713 54.66C34.4513 54.66 34.7033 54.888 34.7753 54.936C34.8473 54.972 35.1113 55.236 34.9553 55.548ZM39.8167 61.848C39.9847 61.86 40.1407 61.872 40.2967 61.872C42.0247 61.872 42.2527 60.972 42.2527 60.972C41.8567 60.708 39.6847 59.868 39.2287 59.712C38.1367 59.328 36.7807 58.92 36.2287 57.876C35.9767 57.408 35.9527 57.036 36.0727 56.556C36.1207 56.328 36.2047 56.124 36.3247 55.944C36.4807 55.716 36.7447 55.596 36.9367 55.428C37.5247 54.9 38.3527 54.636 39.1567 54.636C39.9367 54.636 40.6447 54.864 41.2687 55.332C41.7727 55.716 42.7447 56.556 42.5647 57.06C42.5047 57.24 42.1807 57.384 41.9167 57.384C41.5567 57.384 41.0767 56.808 40.9327 56.532C40.8007 56.292 40.3447 55.932 40.0687 55.932C39.6847 55.896 38.8327 56.088 38.4847 56.244C38.2567 56.34 38.0647 56.496 37.8727 56.676C37.7767 56.796 37.6687 56.916 37.5487 57.024C37.4887 57.072 37.3327 57.228 37.3207 57.3C37.3087 57.408 38.7607 58.344 38.9167 58.392C39.3487 58.536 39.6967 58.704 40.1407 58.824C40.9807 59.124 41.8927 59.496 42.6727 59.928C43.3207 60.288 43.7887 61.056 43.4767 61.8C43.3207 62.22 43.1527 62.616 42.7447 62.844C42.2527 63.084 41.7727 63.108 41.2447 63.168C41.0047 63.216 40.7647 63.228 40.5367 63.228C40.1767 63.228 39.8287 63.18 39.4567 63.036C38.7007 62.784 37.4887 62.376 36.8887 61.836C36.6727 61.668 36.5047 61.452 36.3247 61.224C36.1207 60.948 35.9647 60.48 36.1447 60.168C36.2167 60.036 36.3487 59.988 36.4807 59.988C36.6727 59.988 36.8767 60.072 37.0207 60.156C37.4647 60.36 37.3927 60.864 37.7767 61.128C38.1727 61.404 39.3487 61.812 39.8167 61.848ZM50.6111 56.064C50.5151 56.124 50.3711 56.136 50.2271 56.136C49.5071 56.136 48.7871 56.124 48.0671 56.076C48.2111 57.096 47.8631 58.284 47.9591 59.268C48.0191 59.904 48.0071 60.564 48.0671 61.212C48.0911 61.476 48.1511 61.716 48.2231 61.944C48.2951 62.184 48.3911 62.316 48.2951 62.58C48.2111 62.808 48.0191 63.024 47.7551 63.024C47.5271 63.024 47.3951 62.82 47.2991 62.604C47.0471 61.992 46.9871 61.332 46.9151 60.684C46.8191 59.928 46.8911 58.992 46.8551 58.224C46.8311 57.876 46.8311 57.096 46.7711 56.772C46.7231 56.544 46.6751 56.28 46.6511 56.04C45.9431 56.028 45.4271 56.04 44.7671 56.22C44.6231 56.268 44.4431 56.292 44.2751 56.292C44.0711 56.292 43.8791 56.244 43.7351 56.112C43.4351 55.824 43.3871 55.14 43.6151 54.996C43.7831 54.888 43.9151 54.852 44.0951 54.828C44.3831 54.804 44.6231 54.636 44.8991 54.612C45.2711 54.576 45.6431 54.576 46.0151 54.6C46.8791 54.636 47.7311 54.696 48.5831 54.756C48.9311 54.78 50.1191 54.876 50.3351 55.176C50.4431 55.332 50.7791 55.968 50.6111 56.064ZM53.0698 56.952C52.9978 57.456 53.0218 57.852 53.0218 58.356C53.0218 58.392 53.0218 58.416 53.0218 58.452C53.2978 58.416 53.5018 58.356 53.7778 58.344C54.3178 58.308 54.8458 58.344 55.3618 58.38C56.0098 58.416 56.8018 58.38 57.4018 58.608C57.5698 58.668 57.6778 58.86 57.7138 59.052C57.7498 59.244 57.7738 59.388 57.6418 59.508C57.3658 59.736 57.0898 59.712 56.7418 59.736C55.9258 59.772 55.0738 59.7 54.2218 59.736C53.8858 59.736 53.6938 59.808 53.3698 59.856C53.3098 59.856 53.2498 59.868 53.1778 59.892C53.1058 60.216 52.9618 61.26 53.1538 61.572C53.2978 61.608 53.4298 61.596 53.5738 61.596C53.8018 61.596 53.8858 61.536 54.1138 61.5C54.5818 61.416 55.0138 61.44 55.4818 61.344C55.8658 61.284 56.2138 61.248 56.5978 61.224C56.9098 61.212 57.1738 61.224 57.4858 61.212C57.7618 61.176 58.2658 61.176 58.3378 61.44C58.4098 61.752 58.3378 62.112 58.1578 62.196C57.8698 62.376 56.7178 62.544 56.3578 62.616C55.9018 62.724 55.4818 62.844 55.0378 62.844C54.5458 62.844 54.0538 63.048 53.5738 63.048C53.1298 63.048 52.6138 62.76 52.3618 62.388C52.1698 62.148 51.9538 61.608 51.9298 61.32C51.8698 60.744 51.9298 60.168 51.8938 59.592C51.8578 59.16 51.8218 58.728 51.8218 58.296C51.8218 57.648 51.7378 56.976 51.8338 56.34C51.9058 55.932 51.7018 55.08 52.0258 54.828C52.3618 54.588 52.6498 54.504 53.0578 54.552C53.5258 54.612 54.8458 54.696 55.8178 54.708C56.1418 54.708 58.6258 55.008 58.1578 55.812C57.9898 56.1 57.4978 56.088 57.2458 56.1C56.8738 56.124 56.4778 56.136 56.1058 56.148C55.4818 56.184 55.0018 56.244 54.3778 56.22C54.0898 56.22 53.8258 56.136 53.5498 56.136C53.2738 56.136 53.2018 56.148 53.1538 56.448C53.1178 56.604 53.0938 56.784 53.0698 56.952ZM60.0063 59.04C59.9583 58.428 59.8743 57.816 59.8383 57.192C59.8143 56.772 59.7663 56.364 59.7663 55.956C59.7663 55.644 59.8623 54.408 60.2943 54.408C60.5463 54.408 60.9663 54.876 61.0983 55.068C61.2063 55.224 61.2783 55.404 61.3863 55.548C61.5183 55.716 61.6503 55.848 61.7583 55.992C62.3463 56.832 63.1143 57.696 63.8703 58.356C64.1103 57.576 64.5783 56.844 64.9623 56.112C65.1903 55.668 65.7543 54.864 66.0783 54.516C66.1263 54.468 66.1983 54.444 66.2823 54.444C66.5223 54.444 66.8463 54.636 67.0263 54.768C67.8063 55.32 67.5663 57.468 67.5543 57.996C67.5303 58.992 67.6743 59.988 67.5903 60.984C67.5663 61.368 67.5663 61.764 67.5183 62.136C67.4823 62.436 67.4823 62.832 67.2063 63.024C67.1463 63.072 67.0983 63.084 67.0503 63.084C66.8943 63.084 66.7863 62.892 66.6783 62.724C66.5103 62.46 66.5583 62.016 66.5223 61.716C66.4383 61.02 66.4383 60.288 66.4743 59.58C66.4743 59.208 66.4383 58.836 66.4263 58.464C66.3903 58.14 66.4743 57.372 66.3903 56.964C66.1623 57.156 65.5863 58.284 65.4663 58.56C65.3103 58.884 65.2743 59.064 65.1183 59.376C64.9383 59.736 64.8183 60.024 64.6263 60.276C64.5423 60.384 64.4463 60.432 64.3503 60.432C64.2183 60.432 64.0743 60.336 63.9303 60.18C63.4983 59.724 62.9583 59.352 62.5503 58.848C62.3223 58.584 62.0583 58.332 61.8303 58.068C61.6743 57.876 61.3503 57.432 61.1343 57.252C61.2063 58.356 61.2423 59.472 61.4103 60.576C61.4703 61.02 61.5063 61.584 61.5783 62.016C61.6263 62.292 61.7343 62.7 61.5783 62.976C61.4463 63.204 61.3383 63.3 61.2303 63.3C61.1343 63.3 61.0383 63.24 60.9303 63.12C60.4743 62.64 60.4023 61.92 60.2703 61.32C60.1143 60.576 60.0423 59.808 60.0063 59.04ZM72.5281 58.656C71.3401 58.8 71.4361 59.46 71.3881 59.94C71.3641 60.324 71.2561 60.72 70.9921 60.72C70.9081 60.72 70.8121 60.684 70.6921 60.588C70.2241 60.168 70.2721 59.388 70.2961 59.016C70.3081 58.656 70.6561 58.044 71.3881 57.66C72.1201 57.288 73.0921 57.132 73.2961 56.868C73.5121 56.628 73.4881 56.184 73.4881 56.184C73.4881 56.184 72.7321 55.884 71.8801 55.884C71.1961 55.884 70.7281 56.088 70.1521 56.472C69.8761 56.652 69.7081 56.808 69.5281 56.808C69.4201 56.808 69.3121 56.736 69.1681 56.568C68.8201 56.124 69.1681 55.152 70.0801 54.768C70.8001 54.48 71.4961 54.372 72.0001 54.372C72.3001 54.372 72.5401 54.408 72.6601 54.468C73.8241 54.972 74.7001 55.524 74.9881 56.688C75.2641 57.876 73.2121 58.572 72.5281 58.656ZM70.9201 62.232C71.2201 62.088 71.5081 61.98 71.8441 61.98C72.6481 61.98 72.5281 62.28 72.5161 62.544C72.5041 62.856 72.0601 63.264 72.0001 63.312C71.9041 63.36 71.4961 63.504 71.2321 63.504C70.9921 63.492 70.5001 63.276 70.4881 63.048C70.4521 62.652 70.7041 62.34 70.9201 62.232ZM81.0415 59.04C80.9935 58.428 80.9095 57.816 80.8735 57.192C80.8495 56.772 80.8015 56.364 80.8015 55.956C80.8015 55.644 80.8975 54.408 81.3295 54.408C81.5815 54.408 82.0015 54.876 82.1335 55.068C82.2415 55.224 82.3135 55.404 82.4215 55.548C82.5535 55.716 82.6855 55.848 82.7935 55.992C83.3815 56.832 84.1495 57.696 84.9055 58.356C85.1455 57.576 85.6135 56.844 85.9975 56.112C86.2255 55.668 86.7895 54.864 87.1135 54.516C87.1615 54.468 87.2335 54.444 87.3175 54.444C87.5575 54.444 87.8815 54.636 88.0615 54.768C88.8415 55.32 88.6015 57.468 88.5895 57.996C88.5655 58.992 88.7095 59.988 88.6255 60.984C88.6015 61.368 88.6015 61.764 88.5535 62.136C88.5175 62.436 88.5175 62.832 88.2415 63.024C88.1815 63.072 88.1335 63.084 88.0855 63.084C87.9295 63.084 87.8215 62.892 87.7135 62.724C87.5455 62.46 87.5935 62.016 87.5575 61.716C87.4735 61.02 87.4735 60.288 87.5095 59.58C87.5095 59.208 87.4735 58.836 87.4615 58.464C87.4255 58.14 87.5095 57.372 87.4255 56.964C87.1975 57.156 86.6215 58.284 86.5015 58.56C86.3455 58.884 86.3095 59.064 86.1535 59.376C85.9735 59.736 85.8535 60.024 85.6615 60.276C85.5775 60.384 85.4815 60.432 85.3855 60.432C85.2535 60.432 85.1095 60.336 84.9655 60.18C84.5335 59.724 83.9935 59.352 83.5855 58.848C83.3575 58.584 83.0935 58.332 82.8655 58.068C82.7095 57.876 82.3855 57.432 82.1695 57.252C82.2415 58.356 82.2775 59.472 82.4455 60.576C82.5055 61.02 82.5415 61.584 82.6135 62.016C82.6615 62.292 82.7695 62.7 82.6135 62.976C82.4815 63.204 82.3735 63.3 82.2655 63.3C82.1695 63.3 82.0735 63.24 81.9655 63.12C81.5095 62.64 81.4375 61.92 81.3055 61.32C81.1495 60.576 81.0775 59.808 81.0415 59.04ZM92.0398 59.16C92.6998 59.04 93.4318 59.004 94.1038 59.004H94.2238C94.0678 58.572 93.8998 58.152 93.6838 57.732C93.4798 57.336 93.2638 56.916 93.0958 56.52C93.0718 56.472 93.0598 56.436 93.0478 56.376C92.7478 56.784 92.5078 57.636 92.3518 58.104C92.2438 58.452 92.1478 58.8 92.0398 59.16ZM96.4558 62.148C96.4678 62.424 96.5278 63.228 95.9998 63.12C95.4958 63 95.5318 62.544 95.3758 62.184C95.1958 61.752 95.0518 61.296 94.9078 60.84C94.8598 60.672 94.7278 60.516 94.6798 60.36C94.6078 60.36 94.3198 60.396 94.2598 60.396C93.8758 60.396 93.7198 60.42 93.3598 60.48C92.9758 60.54 92.5918 60.54 92.2078 60.588C92.0158 60.612 91.8118 60.72 91.6078 60.756C91.5358 61.188 91.3438 61.572 91.2358 61.992C91.1758 62.196 91.0918 62.412 91.0438 62.652C90.9958 62.844 90.9238 63.048 90.6718 63.072C90.4438 63.072 89.9398 63.156 89.8078 62.256C89.6278 61.176 90.3118 59.976 90.5878 58.932C90.8518 58.272 91.0078 57.504 91.2358 56.832C91.3318 56.568 91.4158 56.328 91.5238 56.064C91.7398 55.596 91.9558 54.744 92.3878 54.468C92.5438 54.384 92.9758 54.648 93.1558 54.744C93.3238 54.816 93.7558 55.284 93.8278 55.476C93.9118 55.704 94.0438 55.908 94.1638 56.136C95.1478 57.96 95.3398 58.992 95.9518 60.396C96.1918 60.936 96.3838 61.56 96.4558 62.148ZM104.722 62.412C104.53 62.52 104.266 62.556 104.014 62.556C103.738 62.556 103.462 62.52 103.27 62.496C102.91 62.46 102.094 62.028 101.17 61.692C100.618 61.5 99.8384 60.912 99.2624 60.468C99.1904 60.528 99.1184 60.588 99.0584 60.636C99.0704 61.416 99.1064 62.46 99.0704 62.76C98.9984 63.096 98.9144 63.432 98.7104 63.432C98.4824 63.432 97.9424 63.156 97.8704 62.604C97.8224 62.064 97.9184 60.528 97.8944 60.012C97.8704 59.496 97.6424 57.804 97.6064 57.444C97.5944 57.072 97.6064 55.716 97.6664 55.332C97.7144 54.972 97.7984 54.744 98.0144 54.708C98.2064 54.66 98.6024 55.044 98.6744 55.308C98.7224 55.56 98.8064 56.832 98.7584 57.288C98.7344 57.528 98.8064 58.068 98.8784 58.656C99.4064 58.152 100.198 57.336 100.402 57.024C100.726 56.556 101.59 55.596 101.902 55.356C102.214 55.128 102.826 54.588 102.826 54.588C102.91 54.54 102.982 54.516 103.054 54.516C103.474 54.516 103.726 55.308 103.726 55.62C103.726 55.992 103.342 56.34 103.066 56.604C102.91 56.784 102.478 57.132 102.214 57.372C101.95 57.612 100.51 59.268 100.282 59.52C100.246 59.58 100.162 59.664 100.066 59.772C100.342 59.928 100.594 60.096 100.726 60.156C101.038 60.312 103.306 61.128 103.606 61.164C103.906 61.188 104.158 61.32 104.35 61.32C104.53 61.32 104.938 61.476 104.974 61.68C105.01 61.908 105.082 62.196 104.722 62.412ZM106.461 61.644C106.449 61.44 106.413 61.248 106.389 61.032C106.389 60.564 106.353 60.12 106.341 59.652C106.317 58.668 106.221 57.72 106.233 56.76C106.257 56.292 106.149 55.836 106.149 55.368C106.161 55.092 106.101 54.888 106.269 54.648C106.365 54.516 106.461 54.468 106.557 54.468C106.929 54.468 107.193 54.972 107.277 55.272C107.385 55.596 107.349 55.968 107.397 56.316C107.421 56.4 107.553 59.304 107.553 59.388C107.553 59.664 107.613 59.94 107.613 60.24C107.625 60.528 107.613 60.828 107.637 61.104C107.733 61.716 107.829 62.448 107.517 62.988C107.469 63.084 107.349 63.12 107.229 63.12C107.121 63.12 107.013 63.096 106.917 63.048C106.389 62.832 106.497 62.04 106.461 61.644ZM111.142 63.228C111.142 63.228 111.01 63.324 110.83 63.324C110.698 63.324 110.53 63.264 110.362 63.084C110.182 62.892 109.486 60.252 109.438 58.92C109.39 57.576 109.018 55.752 109.162 55.392C109.282 55.008 109.33 54.804 109.51 54.768C109.702 54.732 109.858 54.744 110.11 54.9C110.374 55.056 111.154 56.676 111.562 57.096C111.934 57.504 113.986 59.556 114.55 59.988C114.934 60.3 115.378 60.312 115.426 60.312C115.438 60.312 115.45 57.456 115.45 57.096C115.45 56.724 115.486 55.716 115.618 55.332C115.762 54.96 116.11 54.66 116.446 54.744C116.602 54.804 116.698 55.176 116.686 55.644C116.686 56.124 116.686 59.268 116.626 59.832C116.578 60.432 116.782 62.304 116.722 62.568C116.602 63.036 116.254 62.928 116.038 62.928C115.378 62.916 113.902 61.368 113.29 60.864C112.69 60.36 110.746 58.224 110.53 57.852C110.53 57.852 110.71 59.46 110.866 60.084C111.022 60.72 111.214 61.644 111.262 62.1C111.31 62.532 111.406 63.072 111.142 63.228ZM126.862 59.304C126.694 59.544 126.25 59.556 125.866 59.592C125.818 59.592 125.626 59.664 125.578 59.664C125.806 60.18 126.214 61.224 125.77 61.728C125.386 62.184 125.206 62.424 124.702 62.652C124.15 62.928 122.722 63.096 122.062 63.096C121.714 63.096 121.366 63.048 121.018 62.916C120.298 62.664 119.758 62.184 119.17 61.692C118.846 61.44 118.678 61.14 118.45 60.828C117.91 60.012 117.718 58.884 117.982 57.924C118.366 56.652 118.69 56.472 119.218 55.824C119.842 55.116 120.262 54.816 121.174 54.552C121.378 54.504 121.582 54.468 121.774 54.468C122.182 54.468 122.578 54.576 122.95 54.804C123.13 54.924 123.574 55.152 123.73 55.272C123.994 55.488 124.354 56.064 124.354 56.436C124.342 56.712 124.258 56.88 124.042 56.976C123.91 57.024 123.766 57.072 123.634 57.072C123.514 57.072 123.418 57.036 123.322 56.94C123.13 56.712 123.034 56.472 122.83 56.256C122.554 55.98 122.242 55.86 121.918 55.86C120.802 55.86 119.806 57.348 119.41 58.236C119.074 58.956 119.038 59.556 119.422 60.252C119.602 60.588 119.878 60.792 120.142 61.056C120.454 61.38 120.778 61.536 121.21 61.608C121.39 61.632 121.558 61.644 121.738 61.668C121.966 61.668 122.17 61.644 122.374 61.644C122.746 61.608 123.61 61.476 123.946 61.368C124.174 61.248 124.354 61.056 124.498 60.756C124.606 60.48 124.738 60.18 124.642 59.892C124.618 59.832 124.582 59.784 124.546 59.712C124.45 59.736 124.354 59.748 124.258 59.772C123.838 59.856 123.574 59.952 123.214 60.048C122.998 60.084 122.626 60.168 122.326 60.168C122.206 60.168 122.098 60.156 122.014 60.12C121.594 59.94 121.162 59.124 121.558 58.992C121.81 58.896 122.122 58.884 122.374 58.812C122.71 58.728 123.034 58.644 123.382 58.608C124.018 58.536 124.078 58.392 124.702 58.356C125.014 58.344 127.486 58.272 126.862 59.304ZM132.733 59.04C132.685 58.428 132.601 57.816 132.565 57.192C132.541 56.772 132.493 56.364 132.493 55.956C132.493 55.644 132.589 54.408 133.021 54.408C133.273 54.408 133.693 54.876 133.825 55.068C133.933 55.224 134.005 55.404 134.113 55.548C134.245 55.716 134.377 55.848 134.485 55.992C135.073 56.832 135.841 57.696 136.597 58.356C136.837 57.576 137.305 56.844 137.689 56.112C137.917 55.668 138.481 54.864 138.805 54.516C138.853 54.468 138.925 54.444 139.009 54.444C139.249 54.444 139.573 54.636 139.753 54.768C140.533 55.32 140.293 57.468 140.281 57.996C140.257 58.992 140.401 59.988 140.317 60.984C140.293 61.368 140.293 61.764 140.245 62.136C140.209 62.436 140.209 62.832 139.933 63.024C139.873 63.072 139.825 63.084 139.777 63.084C139.621 63.084 139.513 62.892 139.405 62.724C139.237 62.46 139.285 62.016 139.249 61.716C139.165 61.02 139.165 60.288 139.201 59.58C139.201 59.208 139.165 58.836 139.153 58.464C139.117 58.14 139.201 57.372 139.117 56.964C138.889 57.156 138.313 58.284 138.193 58.56C138.037 58.884 138.001 59.064 137.845 59.376C137.665 59.736 137.545 60.024 137.353 60.276C137.269 60.384 137.173 60.432 137.077 60.432C136.945 60.432 136.801 60.336 136.657 60.18C136.225 59.724 135.685 59.352 135.277 58.848C135.049 58.584 134.785 58.332 134.557 58.068C134.401 57.876 134.077 57.432 133.861 57.252C133.933 58.356 133.969 59.472 134.137 60.576C134.197 61.02 134.233 61.584 134.305 62.016C134.353 62.292 134.461 62.7 134.305 62.976C134.173 63.204 134.065 63.3 133.957 63.3C133.861 63.3 133.765 63.24 133.657 63.12C133.201 62.64 133.129 61.92 132.997 61.32C132.841 60.576 132.769 59.808 132.733 59.04ZM143.755 59.16C144.415 59.04 145.147 59.004 145.819 59.004H145.939C145.783 58.572 145.615 58.152 145.399 57.732C145.195 57.336 144.979 56.916 144.811 56.52C144.787 56.472 144.775 56.436 144.763 56.376C144.463 56.784 144.223 57.636 144.067 58.104C143.959 58.452 143.863 58.8 143.755 59.16ZM148.171 62.148C148.183 62.424 148.243 63.228 147.715 63.12C147.211 63 147.247 62.544 147.091 62.184C146.911 61.752 146.767 61.296 146.623 60.84C146.575 60.672 146.443 60.516 146.395 60.36C146.323 60.36 146.035 60.396 145.975 60.396C145.591 60.396 145.435 60.42 145.075 60.48C144.691 60.54 144.307 60.54 143.923 60.588C143.731 60.612 143.527 60.72 143.323 60.756C143.251 61.188 143.059 61.572 142.951 61.992C142.891 62.196 142.807 62.412 142.759 62.652C142.711 62.844 142.639 63.048 142.387 63.072C142.159 63.072 141.655 63.156 141.523 62.256C141.343 61.176 142.027 59.976 142.303 58.932C142.567 58.272 142.723 57.504 142.951 56.832C143.047 56.568 143.131 56.328 143.239 56.064C143.455 55.596 143.671 54.744 144.103 54.468C144.259 54.384 144.691 54.648 144.871 54.744C145.039 54.816 145.471 55.284 145.543 55.476C145.627 55.704 145.759 55.908 145.879 56.136C146.863 57.96 147.055 58.992 147.667 60.396C147.907 60.936 148.099 61.56 148.171 62.148ZM155.477 55.644C155.729 55.872 156.113 56.592 156.101 56.952C156.077 57.216 156.113 57.504 155.861 57.648C155.789 57.684 155.717 57.708 155.669 57.708C155.513 57.708 155.393 57.588 155.201 57.456C154.973 57.3 154.877 57.132 154.793 56.904C154.673 56.652 154.517 56.532 154.289 56.34C154.037 56.16 153.785 55.968 153.461 55.968C153.401 55.968 153.341 55.968 153.281 55.98C152.177 56.208 151.709 56.7 151.133 57.648C150.833 58.116 150.569 58.644 150.605 59.196C150.605 59.58 150.713 60.012 150.941 60.336C151.181 60.684 151.385 60.78 151.721 61.068C152.177 61.488 152.825 61.584 153.473 61.584C154.457 61.584 155.477 61.476 156.413 61.164C156.677 61.068 157.145 61.284 157.157 61.572C157.181 61.788 156.881 62.112 156.725 62.268C156.353 62.628 154.529 63.072 153.965 63.072C152.081 63.072 150.629 62.184 149.597 60.636C149.249 60.132 149.021 59.232 149.057 58.644C149.093 57.996 149.465 57.384 149.789 56.832C150.101 56.316 150.329 55.752 150.797 55.32C151.253 54.924 151.985 54.516 152.645 54.504C153.161 54.504 153.737 54.648 154.217 54.816C154.697 54.984 155.105 55.32 155.477 55.644ZM163.974 63.396C163.938 63.408 163.914 63.408 163.878 63.408C163.686 63.408 163.47 63.276 163.374 63.144C163.23 62.952 163.218 62.664 163.146 62.448C162.942 61.716 162.966 61.056 162.918 60.288C162.402 60.324 161.874 60.336 161.334 60.372C160.734 60.408 160.194 60.552 159.606 60.708C159.63 61.092 159.642 61.344 159.606 61.728C159.582 62.076 159.582 62.424 159.546 62.76C159.498 63.048 159.39 63.3 159.054 63.3C158.598 63.3 158.442 62.52 158.442 62.184C158.442 61.332 158.37 60.492 158.31 59.664C158.298 59.232 158.334 58.824 158.37 58.392C158.418 58.032 158.406 57.648 158.466 57.288C158.538 56.832 158.622 56.364 158.73 55.908C158.838 55.548 158.85 55.116 159.222 54.888C159.282 54.852 159.354 54.828 159.414 54.828C159.594 54.828 159.774 54.948 159.858 55.08C160.002 55.308 159.93 55.644 159.882 55.896C159.786 56.328 159.774 56.76 159.738 57.216C159.726 57.756 159.69 58.044 159.63 58.608C159.618 58.764 159.606 58.92 159.606 59.076C159.666 59.052 159.738 59.04 159.81 59.016C160.794 58.812 161.862 58.776 162.87 58.776C162.846 58.452 162.846 58.14 162.846 57.816C162.846 57.324 162.87 57.06 162.906 56.568C162.942 56.124 162.942 55.668 162.99 55.212C163.026 54.972 163.038 54.708 163.182 54.504C163.266 54.36 163.506 54.108 163.722 54.168C163.926 54.264 163.926 54.612 163.974 54.768C164.118 55.2 164.082 55.62 164.106 56.064C164.118 56.376 164.106 56.724 164.106 57.036C164.082 57.66 164.094 58.296 164.118 58.92C164.166 59.892 164.238 60.864 164.238 61.824C164.238 62.16 164.238 62.508 164.274 62.844C164.286 63.036 164.19 63.312 163.974 63.396ZM166.004 61.644C165.992 61.44 165.956 61.248 165.932 61.032C165.932 60.564 165.896 60.12 165.884 59.652C165.86 58.668 165.764 57.72 165.776 56.76C165.8 56.292 165.692 55.836 165.692 55.368C165.704 55.092 165.644 54.888 165.812 54.648C165.908 54.516 166.004 54.468 166.1 54.468C166.472 54.468 166.736 54.972 166.82 55.272C166.928 55.596 166.892 55.968 166.94 56.316C166.964 56.4 167.096 59.304 167.096 59.388C167.096 59.664 167.156 59.94 167.156 60.24C167.168 60.528 167.156 60.828 167.18 61.104C167.276 61.716 167.372 62.448 167.06 62.988C167.012 63.084 166.892 63.12 166.772 63.12C166.664 63.12 166.556 63.096 166.46 63.048C165.932 62.832 166.04 62.04 166.004 61.644ZM170.685 63.228C170.685 63.228 170.553 63.324 170.373 63.324C170.241 63.324 170.073 63.264 169.905 63.084C169.725 62.892 169.029 60.252 168.981 58.92C168.933 57.576 168.561 55.752 168.705 55.392C168.825 55.008 168.873 54.804 169.053 54.768C169.245 54.732 169.401 54.744 169.653 54.9C169.917 55.056 170.697 56.676 171.105 57.096C171.477 57.504 173.529 59.556 174.093 59.988C174.477 60.3 174.921 60.312 174.969 60.312C174.981 60.312 174.993 57.456 174.993 57.096C174.993 56.724 175.029 55.716 175.161 55.332C175.305 54.96 175.653 54.66 175.989 54.744C176.145 54.804 176.241 55.176 176.229 55.644C176.229 56.124 176.229 59.268 176.169 59.832C176.121 60.432 176.325 62.304 176.265 62.568C176.145 63.036 175.797 62.928 175.581 62.928C174.921 62.916 173.445 61.368 172.833 60.864C172.233 60.36 170.289 58.224 170.073 57.852C170.073 57.852 170.253 59.46 170.409 60.084C170.565 60.72 170.757 61.644 170.805 62.1C170.853 62.532 170.949 63.072 170.685 63.228ZM178.953 56.952C178.881 57.456 178.905 57.852 178.905 58.356C178.905 58.392 178.905 58.416 178.905 58.452C179.181 58.416 179.385 58.356 179.661 58.344C180.201 58.308 180.729 58.344 181.245 58.38C181.893 58.416 182.685 58.38 183.285 58.608C183.453 58.668 183.561 58.86 183.597 59.052C183.633 59.244 183.657 59.388 183.525 59.508C183.249 59.736 182.973 59.712 182.625 59.736C181.809 59.772 180.957 59.7 180.105 59.736C179.769 59.736 179.577 59.808 179.253 59.856C179.193 59.856 179.133 59.868 179.061 59.892C178.989 60.216 178.845 61.26 179.037 61.572C179.181 61.608 179.313 61.596 179.457 61.596C179.685 61.596 179.769 61.536 179.997 61.5C180.465 61.416 180.897 61.44 181.365 61.344C181.749 61.284 182.097 61.248 182.481 61.224C182.793 61.212 183.057 61.224 183.369 61.212C183.645 61.176 184.149 61.176 184.221 61.44C184.293 61.752 184.221 62.112 184.041 62.196C183.753 62.376 182.601 62.544 182.241 62.616C181.785 62.724 181.365 62.844 180.921 62.844C180.429 62.844 179.937 63.048 179.457 63.048C179.013 63.048 178.497 62.76 178.245 62.388C178.053 62.148 177.837 61.608 177.813 61.32C177.753 60.744 177.813 60.168 177.777 59.592C177.741 59.16 177.705 58.728 177.705 58.296C177.705 57.648 177.621 56.976 177.717 56.34C177.789 55.932 177.585 55.08 177.909 54.828C178.245 54.588 178.533 54.504 178.941 54.552C179.409 54.612 180.729 54.696 181.701 54.708C182.025 54.708 184.509 55.008 184.041 55.812C183.873 56.1 183.381 56.088 183.129 56.1C182.757 56.124 182.361 56.136 181.989 56.148C181.365 56.184 180.885 56.244 180.261 56.22C179.973 56.22 179.709 56.136 179.433 56.136C179.157 56.136 179.085 56.148 179.037 56.448C179.001 56.604 178.977 56.784 178.953 56.952ZM189.465 61.848C189.633 61.86 189.789 61.872 189.945 61.872C191.673 61.872 191.901 60.972 191.901 60.972C191.505 60.708 189.333 59.868 188.877 59.712C187.785 59.328 186.429 58.92 185.877 57.876C185.625 57.408 185.601 57.036 185.721 56.556C185.769 56.328 185.853 56.124 185.973 55.944C186.129 55.716 186.393 55.596 186.585 55.428C187.173 54.9 188.001 54.636 188.805 54.636C189.585 54.636 190.293 54.864 190.917 55.332C191.421 55.716 192.393 56.556 192.213 57.06C192.153 57.24 191.829 57.384 191.565 57.384C191.205 57.384 190.725 56.808 190.581 56.532C190.449 56.292 189.993 55.932 189.717 55.932C189.333 55.896 188.481 56.088 188.133 56.244C187.905 56.34 187.713 56.496 187.521 56.676C187.425 56.796 187.317 56.916 187.197 57.024C187.137 57.072 186.981 57.228 186.969 57.3C186.957 57.408 188.409 58.344 188.565 58.392C188.997 58.536 189.345 58.704 189.789 58.824C190.629 59.124 191.541 59.496 192.321 59.928C192.969 60.288 193.437 61.056 193.125 61.8C192.969 62.22 192.801 62.616 192.393 62.844C191.901 63.084 191.421 63.108 190.893 63.168C190.653 63.216 190.413 63.228 190.185 63.228C189.825 63.228 189.477 63.18 189.105 63.036C188.349 62.784 187.137 62.376 186.537 61.836C186.321 61.668 186.153 61.452 185.973 61.224C185.769 60.948 185.613 60.48 185.793 60.168C185.865 60.036 185.997 59.988 186.129 59.988C186.321 59.988 186.525 60.072 186.669 60.156C187.113 60.36 187.041 60.864 187.425 61.128C187.821 61.404 188.997 61.812 189.465 61.848ZM25.664 75.808C25.94 75.424 26.312 74.536 26.276 74.068C26.252 73.6 25.868 73.372 25.436 73.096C25.016 72.82 24.62 72.496 24.14 72.316C23.804 72.172 23.444 72.064 23.096 71.968C22.784 71.86 22.412 71.74 22.064 71.752C22.064 71.932 22.052 72.088 22.052 72.256C22.052 73.096 22.22 73.924 22.22 74.764C22.22 75.424 22.292 76.06 22.328 76.72C22.34 77.068 22.34 77.416 22.376 77.764C23.504 77.572 24.968 76.708 25.664 75.808ZM26.948 72.868C27.212 73.372 27.512 73.96 27.38 74.488C27.32 74.896 26.648 76.456 26.408 76.78C25.424 78.064 24.956 78.484 23.408 79.012C23.192 79.084 22.436 79.336 22.232 79.336C22.052 79.336 21.884 79.252 21.74 79.12C21.368 78.808 21.176 78.568 21.2 78.376C21.212 77.98 21.116 77.38 21.116 76.984C21.116 75.664 21.02 74.32 20.936 73C20.924 72.712 20.924 72.412 20.924 72.136C20.924 71.908 20.852 71.776 20.78 71.428C20.744 71.2 20.648 70.924 20.732 70.672C20.804 70.432 20.9 70.312 21.152 70.276C21.296 70.252 21.452 70.252 21.584 70.252C21.992 70.252 22.364 70.312 22.784 70.432C23.324 70.576 23.876 70.732 24.392 70.9C25.448 71.32 26.456 71.776 26.948 72.868ZM34.6436 76.6C34.9436 76.312 35.1596 75.868 35.1596 75.46C35.1596 74.992 34.6076 72.724 33.7196 72.64C33.4556 72.604 32.8556 72.532 32.6276 72.4C32.4836 72.316 32.4476 72.244 32.3276 72.28C32.1716 72.292 31.9796 72.448 31.8476 72.52C31.6676 72.604 31.5116 72.712 31.3436 72.82C30.7196 73.156 30.3836 73.6 29.9276 74.224C29.7476 74.488 29.5316 75.316 29.5556 75.652C29.5676 76.216 29.6156 76.708 30.1436 77.056C30.5396 77.32 31.6436 77.62 32.1596 77.62C32.5916 77.62 33.1796 77.512 33.5156 77.416C34.0316 77.284 34.3076 76.948 34.6436 76.6ZM35.8196 73.492C36.3236 74.464 36.5036 75.316 36.3116 76.408C35.9996 78.1 34.2836 79.156 32.6396 79.156C31.0316 79.156 28.7276 77.992 28.3676 76.312C28.0796 75.016 28.6316 73.336 29.3996 72.292C30.0476 71.392 31.1516 70.816 32.2556 70.816C33.4436 70.816 34.3676 71.416 35.0996 72.316C35.3756 72.676 35.6156 73.096 35.8196 73.492ZM45.7347 77.848C45.9027 77.86 46.0587 77.872 46.2147 77.872C47.9427 77.872 48.1707 76.972 48.1707 76.972C47.7747 76.708 45.6027 75.868 45.1467 75.712C44.0547 75.328 42.6987 74.92 42.1467 73.876C41.8947 73.408 41.8707 73.036 41.9907 72.556C42.0387 72.328 42.1227 72.124 42.2427 71.944C42.3987 71.716 42.6627 71.596 42.8547 71.428C43.4427 70.9 44.2707 70.636 45.0747 70.636C45.8547 70.636 46.5627 70.864 47.1867 71.332C47.6907 71.716 48.6627 72.556 48.4827 73.06C48.4227 73.24 48.0987 73.384 47.8347 73.384C47.4747 73.384 46.9947 72.808 46.8507 72.532C46.7187 72.292 46.2627 71.932 45.9867 71.932C45.6027 71.896 44.7507 72.088 44.4027 72.244C44.1747 72.34 43.9827 72.496 43.7907 72.676C43.6947 72.796 43.5867 72.916 43.4667 73.024C43.4067 73.072 43.2507 73.228 43.2387 73.3C43.2267 73.408 44.6787 74.344 44.8347 74.392C45.2667 74.536 45.6147 74.704 46.0587 74.824C46.8987 75.124 47.8107 75.496 48.5907 75.928C49.2387 76.288 49.7067 77.056 49.3947 77.8C49.2387 78.22 49.0707 78.616 48.6627 78.844C48.1707 79.084 47.6907 79.108 47.1627 79.168C46.9227 79.216 46.6827 79.228 46.4547 79.228C46.0947 79.228 45.7467 79.18 45.3747 79.036C44.6187 78.784 43.4067 78.376 42.8067 77.836C42.5907 77.668 42.4227 77.452 42.2427 77.224C42.0387 76.948 41.8827 76.48 42.0627 76.168C42.1347 76.036 42.2667 75.988 42.3987 75.988C42.5907 75.988 42.7947 76.072 42.9387 76.156C43.3827 76.36 43.3107 76.864 43.6947 77.128C44.0907 77.404 45.2667 77.812 45.7347 77.848ZM50.8657 75.04C50.8177 74.428 50.7337 73.816 50.6977 73.192C50.6737 72.772 50.6257 72.364 50.6257 71.956C50.6257 71.644 50.7217 70.408 51.1537 70.408C51.4057 70.408 51.8257 70.876 51.9577 71.068C52.0657 71.224 52.1377 71.404 52.2457 71.548C52.3777 71.716 52.5097 71.848 52.6177 71.992C53.2057 72.832 53.9737 73.696 54.7297 74.356C54.9697 73.576 55.4377 72.844 55.8217 72.112C56.0497 71.668 56.6137 70.864 56.9377 70.516C56.9857 70.468 57.0577 70.444 57.1417 70.444C57.3817 70.444 57.7057 70.636 57.8857 70.768C58.6657 71.32 58.4257 73.468 58.4137 73.996C58.3897 74.992 58.5337 75.988 58.4497 76.984C58.4257 77.368 58.4257 77.764 58.3777 78.136C58.3417 78.436 58.3417 78.832 58.0657 79.024C58.0057 79.072 57.9577 79.084 57.9097 79.084C57.7537 79.084 57.6457 78.892 57.5377 78.724C57.3697 78.46 57.4177 78.016 57.3817 77.716C57.2977 77.02 57.2977 76.288 57.3337 75.58C57.3337 75.208 57.2977 74.836 57.2857 74.464C57.2497 74.14 57.3337 73.372 57.2497 72.964C57.0217 73.156 56.4457 74.284 56.3257 74.56C56.1697 74.884 56.1337 75.064 55.9777 75.376C55.7977 75.736 55.6777 76.024 55.4857 76.276C55.4017 76.384 55.3057 76.432 55.2097 76.432C55.0777 76.432 54.9337 76.336 54.7897 76.18C54.3577 75.724 53.8177 75.352 53.4097 74.848C53.1817 74.584 52.9177 74.332 52.6897 74.068C52.5337 73.876 52.2097 73.432 51.9937 73.252C52.0657 74.356 52.1017 75.472 52.2697 76.576C52.3297 77.02 52.3657 77.584 52.4377 78.016C52.4857 78.292 52.5937 78.7 52.4377 78.976C52.3057 79.204 52.1977 79.3 52.0897 79.3C51.9937 79.3 51.8977 79.24 51.7897 79.12C51.3337 78.64 51.2617 77.92 51.1297 77.32C50.9737 76.576 50.9017 75.808 50.8657 75.04ZM61.8875 75.16C62.5475 75.04 63.2795 75.004 63.9515 75.004H64.0715C63.9155 74.572 63.7475 74.152 63.5315 73.732C63.3275 73.336 63.1115 72.916 62.9435 72.52C62.9195 72.472 62.9075 72.436 62.8955 72.376C62.5955 72.784 62.3555 73.636 62.1995 74.104C62.0915 74.452 61.9955 74.8 61.8875 75.16ZM66.3035 78.148C66.3155 78.424 66.3755 79.228 65.8475 79.12C65.3435 79 65.3795 78.544 65.2235 78.184C65.0435 77.752 64.8995 77.296 64.7555 76.84C64.7075 76.672 64.5755 76.516 64.5275 76.36C64.4555 76.36 64.1675 76.396 64.1075 76.396C63.7235 76.396 63.5675 76.42 63.2075 76.48C62.8235 76.54 62.4395 76.54 62.0555 76.588C61.8635 76.612 61.6595 76.72 61.4555 76.756C61.3835 77.188 61.1915 77.572 61.0835 77.992C61.0235 78.196 60.9395 78.412 60.8915 78.652C60.8435 78.844 60.7715 79.048 60.5195 79.072C60.2915 79.072 59.7875 79.156 59.6555 78.256C59.4755 77.176 60.1595 75.976 60.4355 74.932C60.6995 74.272 60.8555 73.504 61.0835 72.832C61.1795 72.568 61.2635 72.328 61.3715 72.064C61.5875 71.596 61.8035 70.744 62.2355 70.468C62.3915 70.384 62.8235 70.648 63.0035 70.744C63.1715 70.816 63.6035 71.284 63.6755 71.476C63.7595 71.704 63.8915 71.908 64.0115 72.136C64.9955 73.96 65.1875 74.992 65.7995 76.396C66.0395 76.936 66.2315 77.56 66.3035 78.148ZM68.7655 72.316V72.988C68.7895 73.564 68.7055 73.792 68.7415 74.356C68.7415 74.536 68.8255 74.884 68.7895 75.052C68.9815 74.956 69.2695 74.884 69.4015 74.884C69.7135 74.884 72.0295 74.008 72.3775 73.84C72.6295 73.696 73.4575 73.336 73.3495 73.06C73.1215 72.376 71.2375 72.076 70.5175 72.076C69.9295 72.076 69.5455 72.22 68.7655 72.316ZM74.6695 77.524C74.7895 77.632 75.0535 77.8 74.8615 78.136C74.6815 78.448 73.6135 78.64 73.2295 78.64C72.8575 78.64 72.4255 78.496 72.0775 78.388C71.5375 78.244 69.2815 76.972 68.8615 76.636C68.8255 77.212 68.8495 77.728 68.8615 78.292C68.8855 78.496 68.8975 78.964 68.7895 79.156C68.7175 79.288 68.6455 79.336 68.5495 79.336C68.4655 79.336 68.3815 79.3 68.2735 79.264C67.8175 79.072 67.7335 78.652 67.7335 78.328C67.7575 78.004 67.8535 77.488 67.8535 77.176C67.8415 76.408 67.7335 75.652 67.6855 74.86C67.6495 74.416 67.6135 73.984 67.6135 73.504C67.6135 73.072 67.3375 72.292 67.3135 71.86C67.3015 71.584 67.2535 71.308 67.5295 71.116C67.9855 70.816 69.9055 70.624 70.4215 70.624C70.7215 70.624 71.0095 70.648 71.3095 70.708C72.1855 70.9 73.2655 71.128 73.7935 71.824C74.1295 72.244 74.3335 72.448 74.4415 72.94C74.6215 73.612 74.1415 74.224 73.6135 74.608C72.7855 75.196 72.1495 75.628 70.7095 76.06L70.2415 76.204C70.5895 76.396 70.9615 76.624 71.0935 76.66C71.2615 76.72 72.0775 77.092 73.2655 77.212C74.4535 77.332 74.5495 77.44 74.6695 77.524ZM82.4861 72.064C82.3901 72.124 82.2461 72.136 82.1021 72.136C81.3821 72.136 80.6621 72.124 79.9421 72.076C80.0861 73.096 79.7381 74.284 79.8341 75.268C79.8941 75.904 79.8821 76.564 79.9421 77.212C79.9661 77.476 80.0261 77.716 80.0981 77.944C80.1701 78.184 80.2661 78.316 80.1701 78.58C80.0861 78.808 79.8941 79.024 79.6301 79.024C79.4021 79.024 79.2701 78.82 79.1741 78.604C78.9221 77.992 78.8621 77.332 78.7901 76.684C78.6941 75.928 78.7661 74.992 78.7301 74.224C78.7061 73.876 78.7061 73.096 78.6461 72.772C78.5981 72.544 78.5501 72.28 78.5261 72.04C77.8181 72.028 77.3021 72.04 76.6421 72.22C76.4981 72.268 76.3181 72.292 76.1501 72.292C75.9461 72.292 75.7541 72.244 75.6101 72.112C75.3101 71.824 75.2621 71.14 75.4901 70.996C75.6581 70.888 75.7901 70.852 75.9701 70.828C76.2581 70.804 76.4981 70.636 76.7741 70.612C77.1461 70.576 77.5181 70.576 77.8901 70.6C78.7541 70.636 79.6061 70.696 80.4581 70.756C80.8061 70.78 81.9941 70.876 82.2101 71.176C82.3181 71.332 82.6541 71.968 82.4861 72.064ZM94.9314 72.064C94.8354 72.124 94.6914 72.136 94.5474 72.136C93.8274 72.136 93.1074 72.124 92.3874 72.076C92.5314 73.096 92.1834 74.284 92.2794 75.268C92.3394 75.904 92.3274 76.564 92.3874 77.212C92.4114 77.476 92.4714 77.716 92.5434 77.944C92.6154 78.184 92.7114 78.316 92.6154 78.58C92.5314 78.808 92.3394 79.024 92.0754 79.024C91.8474 79.024 91.7154 78.82 91.6194 78.604C91.3674 77.992 91.3074 77.332 91.2354 76.684C91.1394 75.928 91.2114 74.992 91.1754 74.224C91.1514 73.876 91.1514 73.096 91.0914 72.772C91.0434 72.544 90.9954 72.28 90.9714 72.04C90.2634 72.028 89.7474 72.04 89.0874 72.22C88.9434 72.268 88.7634 72.292 88.5954 72.292C88.3914 72.292 88.1994 72.244 88.0554 72.112C87.7554 71.824 87.7074 71.14 87.9354 70.996C88.1034 70.888 88.2354 70.852 88.4154 70.828C88.7034 70.804 88.9434 70.636 89.2194 70.612C89.5914 70.576 89.9634 70.576 90.3354 70.6C91.1994 70.636 92.0514 70.696 92.9034 70.756C93.2514 70.78 94.4394 70.876 94.6554 71.176C94.7634 71.332 95.0994 71.968 94.9314 72.064ZM101.782 79.396C101.746 79.408 101.722 79.408 101.686 79.408C101.494 79.408 101.278 79.276 101.182 79.144C101.038 78.952 101.026 78.664 100.954 78.448C100.75 77.716 100.774 77.056 100.726 76.288C100.21 76.324 99.6822 76.336 99.1422 76.372C98.5422 76.408 98.0022 76.552 97.4142 76.708C97.4382 77.092 97.4502 77.344 97.4142 77.728C97.3902 78.076 97.3902 78.424 97.3542 78.76C97.3062 79.048 97.1982 79.3 96.8622 79.3C96.4062 79.3 96.2502 78.52 96.2502 78.184C96.2502 77.332 96.1782 76.492 96.1182 75.664C96.1062 75.232 96.1422 74.824 96.1782 74.392C96.2262 74.032 96.2142 73.648 96.2742 73.288C96.3462 72.832 96.4302 72.364 96.5382 71.908C96.6462 71.548 96.6582 71.116 97.0302 70.888C97.0902 70.852 97.1622 70.828 97.2222 70.828C97.4022 70.828 97.5822 70.948 97.6662 71.08C97.8102 71.308 97.7382 71.644 97.6902 71.896C97.5942 72.328 97.5822 72.76 97.5462 73.216C97.5342 73.756 97.4982 74.044 97.4382 74.608C97.4262 74.764 97.4142 74.92 97.4142 75.076C97.4742 75.052 97.5462 75.04 97.6182 75.016C98.6022 74.812 99.6702 74.776 100.678 74.776C100.654 74.452 100.654 74.14 100.654 73.816C100.654 73.324 100.678 73.06 100.714 72.568C100.75 72.124 100.75 71.668 100.798 71.212C100.834 70.972 100.846 70.708 100.99 70.504C101.074 70.36 101.314 70.108 101.53 70.168C101.734 70.264 101.734 70.612 101.782 70.768C101.926 71.2 101.89 71.62 101.914 72.064C101.926 72.376 101.914 72.724 101.914 73.036C101.89 73.66 101.902 74.296 101.926 74.92C101.974 75.892 102.046 76.864 102.046 77.824C102.046 78.16 102.046 78.508 102.082 78.844C102.094 79.036 101.998 79.312 101.782 79.396ZM103.813 77.644C103.801 77.44 103.765 77.248 103.741 77.032C103.741 76.564 103.705 76.12 103.693 75.652C103.669 74.668 103.573 73.72 103.585 72.76C103.609 72.292 103.501 71.836 103.501 71.368C103.513 71.092 103.453 70.888 103.621 70.648C103.717 70.516 103.813 70.468 103.909 70.468C104.281 70.468 104.545 70.972 104.629 71.272C104.737 71.596 104.701 71.968 104.749 72.316C104.773 72.4 104.905 75.304 104.905 75.388C104.905 75.664 104.965 75.94 104.965 76.24C104.977 76.528 104.965 76.828 104.989 77.104C105.085 77.716 105.181 78.448 104.869 78.988C104.821 79.084 104.701 79.12 104.581 79.12C104.473 79.12 104.365 79.096 104.269 79.048C103.741 78.832 103.849 78.04 103.813 77.644ZM108.493 79.228C108.493 79.228 108.361 79.324 108.181 79.324C108.049 79.324 107.881 79.264 107.713 79.084C107.533 78.892 106.837 76.252 106.789 74.92C106.741 73.576 106.369 71.752 106.513 71.392C106.633 71.008 106.681 70.804 106.861 70.768C107.053 70.732 107.209 70.744 107.461 70.9C107.725 71.056 108.505 72.676 108.913 73.096C109.285 73.504 111.337 75.556 111.901 75.988C112.285 76.3 112.729 76.312 112.777 76.312C112.789 76.312 112.801 73.456 112.801 73.096C112.801 72.724 112.837 71.716 112.969 71.332C113.113 70.96 113.461 70.66 113.797 70.744C113.953 70.804 114.049 71.176 114.037 71.644C114.037 72.124 114.037 75.268 113.977 75.832C113.929 76.432 114.133 78.304 114.073 78.568C113.953 79.036 113.605 78.928 113.389 78.928C112.729 78.916 111.253 77.368 110.641 76.864C110.041 76.36 108.097 74.224 107.881 73.852C107.881 73.852 108.061 75.46 108.217 76.084C108.373 76.72 108.565 77.644 108.613 78.1C108.661 78.532 108.757 79.072 108.493 79.228ZM124.213 75.304C124.045 75.544 123.601 75.556 123.217 75.592C123.169 75.592 122.977 75.664 122.929 75.664C123.157 76.18 123.565 77.224 123.121 77.728C122.737 78.184 122.557 78.424 122.053 78.652C121.501 78.928 120.073 79.096 119.413 79.096C119.065 79.096 118.717 79.048 118.369 78.916C117.649 78.664 117.109 78.184 116.521 77.692C116.197 77.44 116.029 77.14 115.801 76.828C115.261 76.012 115.069 74.884 115.333 73.924C115.717 72.652 116.041 72.472 116.569 71.824C117.193 71.116 117.613 70.816 118.525 70.552C118.729 70.504 118.933 70.468 119.125 70.468C119.533 70.468 119.929 70.576 120.301 70.804C120.481 70.924 120.925 71.152 121.081 71.272C121.345 71.488 121.705 72.064 121.705 72.436C121.693 72.712 121.609 72.88 121.393 72.976C121.261 73.024 121.117 73.072 120.985 73.072C120.865 73.072 120.769 73.036 120.673 72.94C120.481 72.712 120.385 72.472 120.181 72.256C119.905 71.98 119.593 71.86 119.269 71.86C118.153 71.86 117.157 73.348 116.761 74.236C116.425 74.956 116.389 75.556 116.773 76.252C116.953 76.588 117.229 76.792 117.493 77.056C117.805 77.38 118.129 77.536 118.561 77.608C118.741 77.632 118.909 77.644 119.089 77.668C119.317 77.668 119.521 77.644 119.725 77.644C120.097 77.608 120.961 77.476 121.297 77.368C121.525 77.248 121.705 77.056 121.849 76.756C121.957 76.48 122.089 76.18 121.993 75.892C121.969 75.832 121.933 75.784 121.897 75.712C121.801 75.736 121.705 75.748 121.609 75.772C121.189 75.856 120.925 75.952 120.565 76.048C120.349 76.084 119.977 76.168 119.677 76.168C119.557 76.168 119.449 76.156 119.365 76.12C118.945 75.94 118.513 75.124 118.909 74.992C119.161 74.896 119.473 74.884 119.725 74.812C120.061 74.728 120.385 74.644 120.733 74.608C121.369 74.536 121.429 74.392 122.053 74.356C122.365 74.344 124.837 74.272 124.213 75.304ZM129.266 77.848C129.434 77.86 129.59 77.872 129.746 77.872C131.474 77.872 131.702 76.972 131.702 76.972C131.306 76.708 129.134 75.868 128.678 75.712C127.586 75.328 126.23 74.92 125.678 73.876C125.426 73.408 125.402 73.036 125.522 72.556C125.57 72.328 125.654 72.124 125.774 71.944C125.93 71.716 126.194 71.596 126.386 71.428C126.974 70.9 127.802 70.636 128.606 70.636C129.386 70.636 130.094 70.864 130.718 71.332C131.222 71.716 132.194 72.556 132.014 73.06C131.954 73.24 131.63 73.384 131.366 73.384C131.006 73.384 130.526 72.808 130.382 72.532C130.25 72.292 129.794 71.932 129.518 71.932C129.134 71.896 128.282 72.088 127.934 72.244C127.706 72.34 127.514 72.496 127.322 72.676C127.226 72.796 127.118 72.916 126.998 73.024C126.938 73.072 126.782 73.228 126.77 73.3C126.758 73.408 128.21 74.344 128.366 74.392C128.798 74.536 129.146 74.704 129.59 74.824C130.43 75.124 131.342 75.496 132.122 75.928C132.77 76.288 133.238 77.056 132.926 77.8C132.77 78.22 132.602 78.616 132.194 78.844C131.702 79.084 131.222 79.108 130.694 79.168C130.454 79.216 130.214 79.228 129.986 79.228C129.626 79.228 129.278 79.18 128.906 79.036C128.15 78.784 126.938 78.376 126.338 77.836C126.122 77.668 125.954 77.452 125.774 77.224C125.57 76.948 125.414 76.48 125.594 76.168C125.666 76.036 125.798 75.988 125.93 75.988C126.122 75.988 126.326 76.072 126.47 76.156C126.914 76.36 126.842 76.864 127.226 77.128C127.622 77.404 128.798 77.812 129.266 77.848ZM135.741 77.752C135.753 77.884 135.705 78.604 135.513 78.832C135.333 79.048 134.889 79.348 134.589 79.36C134.313 79.36 134.049 78.88 134.205 78.46C134.349 78.028 134.589 77.632 135.045 77.5C135.165 77.476 135.717 77.608 135.741 77.752Z" fill="black"/>
<defs>
<filter id="filter0_d_14_32" x="-1.52588e-05" y="0" width="222" height="122" filterUnits="userSpaceOnUse" color-interpolation-filters="sRGB">
<feFlood flood-opacity="0" result="BackgroundImageFix"/>
<feColorMatrix in="SourceAlpha" type="matrix" values="0 0 0 0 0 0 0 0 0 0 0 0 0 0 0 0 0 0 127 0" result="hardAlpha"/>
<feOffset dy="4"/>
<feComposite in2="hardAlpha" operator="out"/>
<feColorMatrix type="matrix" values="0 0 0 0 0 0 0 0 0 0 0 0 0 0 0 0 0 0 1 0"/>
<feBlend mode="normal" in2="BackgroundImageFix" result="effect1_dropShadow_14_32"/>
<feBlend mode="normal" in="SourceGraphic" in2="effect1_dropShadow_14_32" result="shape"/>
</filter>
</defs>
</svg>
