<svg width="200" height="56" viewBox="0 0 200 56" fill="none" xmlns="http://www.w3.org/2000/svg">
<mask id="path-1-inside-1_3_18" fill="white">
<path d="M5.995 19.5H26.505C26.7617 19.5 26.9833 19.5933 27.17 19.78C27.3567 19.9667 27.45 20.1883 27.45 20.445V26.08C27.45 26.3367 27.3567 26.5583 27.17 26.745C26.9833 26.9317 26.7617 27.025 26.505 27.025H20.695V43.055C20.695 43.3117 20.6017 43.5333 20.415 43.72C20.2283 43.9067 20.0067 44 19.75 44H12.75C12.4933 44 12.2717 43.9067 12.085 43.72C11.8983 43.5333 11.805 43.3117 11.805 43.055V27.025H5.995C5.73833 27.025 5.51667 26.9317 5.33 26.745C5.14333 26.5583 5.05 26.3367 5.05 26.08V20.445C5.05 20.1883 5.14333 19.9667 5.33 19.78C5.51667 19.5933 5.73833 19.5 5.995 19.5ZM45.3068 19.5H52.1668C52.4235 19.5 52.6452 19.5933 52.8318 19.78C53.0185 19.9667 53.1118 20.1883 53.1118 20.445V34.515C53.1118 37.7817 52.0968 40.2433 50.0668 41.9C48.0368 43.5333 45.2718 44.35 41.7718 44.35C38.2952 44.35 35.5302 43.5333 33.4768 41.9C31.4468 40.2667 30.4318 37.805 30.4318 34.515V20.445C30.4318 20.1883 30.5252 19.9667 30.7118 19.78C30.8985 19.5933 31.1202 19.5 31.3768 19.5H38.2368C38.4935 19.5 38.7152 19.5933 38.9018 19.78C39.0885 19.9667 39.1818 20.1883 39.1818 20.445V34.62C39.1818 36.4167 40.0452 37.315 41.7718 37.315C43.4985 37.315 44.3618 36.4167 44.3618 34.62V20.445C44.3618 20.1883 44.4552 19.9667 44.6418 19.78C44.8285 19.5933 45.0502 19.5 45.3068 19.5ZM65.7053 37.175H76.4853C76.7419 37.175 76.9636 37.2683 77.1503 37.455C77.3369 37.6417 77.4303 37.8633 77.4303 38.12V43.055C77.4303 43.3117 77.3369 43.5333 77.1503 43.72C76.9636 43.9067 76.7419 44 76.4853 44H58.2503C57.9936 44 57.7719 43.9067 57.5853 43.72C57.3986 43.5333 57.3053 43.3117 57.3053 43.055V20.445C57.3053 20.1883 57.3986 19.9667 57.5853 19.78C57.7719 19.5933 57.9936 19.5 58.2503 19.5H76.2053C76.4619 19.5 76.6836 19.5933 76.8703 19.78C77.0569 19.9667 77.1503 20.1883 77.1503 20.445V25.38C77.1503 25.6367 77.0569 25.8583 76.8703 26.045C76.6836 26.2317 76.4619 26.325 76.2053 26.325H65.7053V28.53H75.4353C75.6919 28.53 75.9136 28.6233 76.1003 28.81C76.2869 28.9967 76.3803 29.2183 76.3803 29.475V34.025C76.3803 34.2817 76.2869 34.5033 76.1003 34.69C75.9136 34.8767 75.6919 34.97 75.4353 34.97H65.7053V37.175ZM81.0112 27.2C81.0112 24.82 81.9912 22.8833 83.9512 21.39C85.9345 19.8967 88.5245 19.15 91.7212 19.15C94.9412 19.15 97.5662 19.9317 99.5962 21.495C101.65 23.0583 102.676 24.6917 102.676 26.395C102.676 26.605 102.595 26.7917 102.431 26.955C102.291 27.095 102.128 27.165 101.941 27.165H94.9412C94.4045 27.165 93.9145 26.9667 93.4712 26.57C93.0279 26.1733 92.4329 25.975 91.6862 25.975C90.5662 25.975 90.0062 26.3017 90.0062 26.955C90.0062 27.305 90.2745 27.5967 90.8112 27.83C91.3712 28.0633 92.3979 28.2733 93.8912 28.46C97.3679 28.9033 99.8412 29.72 101.311 30.91C102.805 32.0767 103.551 33.8617 103.551 36.265C103.551 38.645 102.455 40.5933 100.261 42.11C98.0912 43.6033 95.2445 44.35 91.7212 44.35C88.1979 44.35 85.4329 43.6267 83.4262 42.18C81.4195 40.7333 80.4162 38.9717 80.4162 36.895C80.4162 36.685 80.4862 36.51 80.6262 36.37C80.7895 36.2067 80.9762 36.125 81.1862 36.125H87.8362C88.3262 36.125 88.8629 36.3583 89.4462 36.825C90.0529 37.2917 90.8812 37.525 91.9312 37.525C93.6812 37.525 94.5562 37.1983 94.5562 36.545C94.5562 36.125 94.2412 35.81 93.6112 35.6C92.9812 35.3667 91.7912 35.1333 90.0412 34.9C84.0212 34.1067 81.0112 31.54 81.0112 27.2ZM107.811 19.5H117.891C121.297 19.5 124.097 20.3517 126.291 22.055C128.507 23.735 129.616 26.0917 129.616 29.125V34.34C129.616 37.5133 128.542 39.9167 126.396 41.55C124.249 43.1833 121.426 44 117.926 44H107.811C107.554 44 107.332 43.9067 107.146 43.72C106.959 43.5333 106.866 43.3117 106.866 43.055V20.445C106.866 20.1883 106.959 19.9667 107.146 19.78C107.332 19.5933 107.554 19.5 107.811 19.5ZM115.616 26.325V37.175H117.891C118.684 37.175 119.314 36.9417 119.781 36.475C120.271 35.985 120.516 35.2733 120.516 34.34V29.125C120.516 27.2583 119.641 26.325 117.891 26.325H115.616ZM141.123 19.5H148.718C149.558 19.5 150.083 19.885 150.293 20.655L158.098 42.985C158.121 43.055 158.133 43.1717 158.133 43.335C158.133 43.475 158.051 43.6267 157.888 43.79C157.748 43.93 157.573 44 157.363 44H150.888C150.188 44 149.733 43.7083 149.523 43.125L148.683 40.815H141.158L140.318 43.125C140.108 43.7083 139.653 44 138.953 44H132.478C132.268 44 132.081 43.93 131.918 43.79C131.778 43.6267 131.708 43.475 131.708 43.335C131.708 43.1717 131.719 43.055 131.743 42.985L139.548 20.655C139.758 19.885 140.283 19.5 141.123 19.5ZM142.943 33.99H146.898L144.903 27.48L142.943 33.99ZM174.763 44H167.903C167.646 44 167.425 43.9067 167.238 43.72C167.051 43.5333 166.958 43.3117 166.958 43.055V36.16L159.083 20.585C159.036 20.4917 159.013 20.3633 159.013 20.2C159.013 20.0367 159.083 19.885 159.223 19.745C159.386 19.5817 159.573 19.5 159.783 19.5H166.363C167.063 19.5 167.553 19.7917 167.833 20.375L171.333 27.41L174.833 20.375C175.113 19.7917 175.603 19.5 176.303 19.5H182.883C183.093 19.5 183.268 19.5817 183.408 19.745C183.571 19.885 183.653 20.0367 183.653 20.2C183.653 20.3633 183.63 20.4917 183.583 20.585L175.708 36.16V43.055C175.708 43.3117 175.615 43.5333 175.428 43.72C175.241 43.9067 175.02 44 174.763 44Z"/>
</mask>
<path d="M27.17 19.78L27.8771 19.0729L27.8771 19.0729L27.17 19.78ZM27.17 26.745L27.8771 27.4521L27.8771 27.4521L27.17 26.745ZM20.695 27.025V26.025H19.695V27.025H20.695ZM20.415 43.72L19.7079 43.0129L19.7079 43.0129L20.415 43.72ZM11.805 27.025H12.805V26.025H11.805V27.025ZM5.995 20.5H26.505V18.5H5.995V20.5ZM26.505 20.5C26.5083 20.5 26.506 20.5003 26.4994 20.499C26.4927 20.4977 26.4844 20.4953 26.4757 20.4916C26.467 20.488 26.461 20.4843 26.4579 20.4822C26.455 20.4802 26.4568 20.4811 26.4629 20.4871L27.8771 19.0729C27.5089 18.7047 27.0352 18.5 26.505 18.5V20.5ZM26.4629 20.4871C26.4689 20.4931 26.4698 20.495 26.4678 20.4921C26.4657 20.489 26.462 20.483 26.4584 20.4743C26.4547 20.4656 26.4523 20.4573 26.451 20.4506C26.4497 20.444 26.45 20.4417 26.45 20.445H28.45C28.45 19.9148 28.2453 19.4411 27.8771 19.0729L26.4629 20.4871ZM26.45 20.445V26.08H28.45V20.445H26.45ZM26.45 26.08C26.45 26.0833 26.4497 26.081 26.451 26.0744C26.4523 26.0677 26.4547 26.0594 26.4584 26.0507C26.462 26.042 26.4657 26.036 26.4678 26.0329C26.4698 26.03 26.4689 26.0318 26.4629 26.0379L27.8771 27.4521C28.2453 27.0839 28.45 26.6102 28.45 26.08H26.45ZM26.4629 26.0379C26.4568 26.0439 26.455 26.0448 26.4579 26.0428C26.461 26.0407 26.467 26.037 26.4757 26.0334C26.4844 26.0297 26.4927 26.0273 26.4994 26.026C26.506 26.0247 26.5083 26.025 26.505 26.025V28.025C27.0352 28.025 27.5089 27.8203 27.8771 27.4521L26.4629 26.0379ZM26.505 26.025H20.695V28.025H26.505V26.025ZM19.695 27.025V43.055H21.695V27.025H19.695ZM19.695 43.055C19.695 43.0583 19.6947 43.056 19.696 43.0494C19.6973 43.0427 19.6997 43.0344 19.7034 43.0257C19.707 43.017 19.7107 43.011 19.7128 43.0079C19.7148 43.005 19.7139 43.0068 19.7079 43.0129L21.1221 44.4271C21.4903 44.0589 21.695 43.5852 21.695 43.055H19.695ZM19.7079 43.0129C19.7018 43.0189 19.7 43.0198 19.7029 43.0178C19.706 43.0157 19.712 43.012 19.7207 43.0084C19.7294 43.0047 19.7377 43.0023 19.7444 43.001C19.751 42.9997 19.7533 43 19.75 43V45C20.2802 45 20.7539 44.7953 21.1221 44.4271L19.7079 43.0129ZM19.75 43H12.75V45H19.75V43ZM12.75 43C12.7467 43 12.749 42.9997 12.7556 43.001C12.7623 43.0023 12.7706 43.0047 12.7793 43.0084C12.788 43.012 12.794 43.0157 12.7971 43.0178C12.8 43.0198 12.7982 43.0189 12.7921 43.0129L11.3779 44.4271C11.7461 44.7953 12.2198 45 12.75 45V43ZM12.7921 43.0129C12.7861 43.0068 12.7852 43.005 12.7872 43.0079C12.7893 43.011 12.793 43.017 12.7966 43.0257C12.8003 43.0344 12.8027 43.0427 12.804 43.0494C12.8053 43.056 12.805 43.0583 12.805 43.055H10.805C10.805 43.5852 11.0097 44.0589 11.3779 44.4271L12.7921 43.0129ZM12.805 43.055V27.025H10.805V43.055H12.805ZM11.805 26.025H5.995V28.025H11.805V26.025ZM5.995 26.025C5.99171 26.025 5.99402 26.0247 6.00057 26.026C6.00729 26.0273 6.01561 26.0297 6.02431 26.0334C6.03297 26.037 6.03903 26.0407 6.04209 26.0428C6.04498 26.0448 6.04315 26.0439 6.03711 26.0379L4.62289 27.4521C4.99111 27.8203 5.46477 28.025 5.995 28.025V26.025ZM6.03711 26.0379C6.03106 26.0318 6.03025 26.03 6.03223 26.0329C6.03433 26.036 6.03799 26.042 6.04164 26.0507C6.0453 26.0594 6.04768 26.0677 6.04899 26.0744C6.05027 26.081 6.05 26.0833 6.05 26.08H4.05C4.05 26.6102 4.25468 27.0839 4.62289 27.4521L6.03711 26.0379ZM6.05 26.08V20.445H4.05V26.08H6.05ZM6.05 20.445C6.05 20.4417 6.05027 20.444 6.04899 20.4506C6.04768 20.4573 6.0453 20.4656 6.04164 20.4743C6.03799 20.483 6.03433 20.489 6.03223 20.4921C6.03025 20.495 6.03106 20.4932 6.03711 20.4871L4.62289 19.0729C4.25468 19.4411 4.05 19.9148 4.05 20.445H6.05ZM6.03711 20.4871C6.04315 20.4811 6.04498 20.4802 6.04209 20.4822C6.03903 20.4843 6.03297 20.488 6.02431 20.4916C6.01561 20.4953 6.00729 20.4977 6.00057 20.499C5.99402 20.5003 5.99171 20.5 5.995 20.5V18.5C5.46477 18.5 4.99111 18.7047 4.62289 19.0729L6.03711 20.4871ZM52.8318 19.78L53.5389 19.0729L53.5389 19.0729L52.8318 19.78ZM50.0668 41.9L50.6937 42.6791L50.6991 42.6747L50.0668 41.9ZM33.4768 41.9L32.8499 42.6791L32.8543 42.6826L33.4768 41.9ZM30.7118 19.78L30.0047 19.0729L30.0047 19.0729L30.7118 19.78ZM38.9018 19.78L39.6089 19.0729L39.6089 19.0729L38.9018 19.78ZM44.6418 19.78L45.3489 20.4871L45.3489 20.4871L44.6418 19.78ZM45.3068 20.5H52.1668V18.5H45.3068V20.5ZM52.1668 20.5C52.1701 20.5 52.1678 20.5003 52.1613 20.499C52.1545 20.4977 52.1462 20.4953 52.1375 20.4916C52.1289 20.488 52.1228 20.4843 52.1197 20.4822C52.1169 20.4802 52.1187 20.4811 52.1247 20.4871L53.5389 19.0729C53.1707 18.7047 52.6971 18.5 52.1668 18.5V20.5ZM52.1247 20.4871C52.1308 20.4931 52.1316 20.495 52.1296 20.4921C52.1275 20.489 52.1238 20.483 52.1202 20.4743C52.1165 20.4656 52.1142 20.4573 52.1128 20.4506C52.1116 20.444 52.1118 20.4417 52.1118 20.445H54.1118C54.1118 19.9148 53.9072 19.4411 53.5389 19.0729L52.1247 20.4871ZM52.1118 20.445V34.515H54.1118V20.445H52.1118ZM52.1118 34.515C52.1118 37.5623 51.1756 39.7044 49.4346 41.1252L50.6991 42.6747C53.0181 40.7823 54.1118 38.001 54.1118 34.515H52.1118ZM49.44 41.1209C47.6402 42.5689 45.122 43.35 41.7718 43.35V45.35C45.4217 45.35 48.4334 44.4977 50.6937 42.6791L49.44 41.1209ZM41.7718 43.35C38.4476 43.35 35.9256 42.5701 34.0994 41.1174L32.8543 42.6826C35.1347 44.4966 38.1427 45.35 41.7718 45.35V43.35ZM34.1037 41.1209C32.3699 39.7258 31.4318 37.589 31.4318 34.515H29.4318C29.4318 38.021 30.5238 40.8075 32.85 42.6791L34.1037 41.1209ZM31.4318 34.515V20.445H29.4318V34.515H31.4318ZM31.4318 20.445C31.4318 20.4417 31.4321 20.444 31.4308 20.4506C31.4295 20.4573 31.4271 20.4656 31.4235 20.4743C31.4198 20.483 31.4162 20.489 31.4141 20.4921C31.4121 20.495 31.4129 20.4932 31.4189 20.4871L30.0047 19.0729C29.6365 19.4411 29.4318 19.9148 29.4318 20.445H31.4318ZM31.4189 20.4871C31.425 20.4811 31.4268 20.4802 31.4239 20.4822C31.4209 20.4843 31.4148 20.488 31.4061 20.4916C31.3974 20.4953 31.3891 20.4977 31.3824 20.499C31.3759 20.5003 31.3735 20.5 31.3768 20.5V18.5C30.8466 18.5 30.3729 18.7047 30.0047 19.0729L31.4189 20.4871ZM31.3768 20.5H38.2368V18.5H31.3768V20.5ZM38.2368 20.5C38.2401 20.5 38.2378 20.5003 38.2313 20.499C38.2245 20.4977 38.2162 20.4953 38.2075 20.4916C38.1989 20.488 38.1928 20.4843 38.1897 20.4822C38.1869 20.4802 38.1887 20.4811 38.1947 20.4871L39.6089 19.0729C39.2407 18.7047 38.7671 18.5 38.2368 18.5V20.5ZM38.1947 20.4871C38.2008 20.4932 38.2016 20.495 38.1996 20.4921C38.1975 20.489 38.1938 20.483 38.1902 20.4743C38.1865 20.4656 38.1842 20.4573 38.1828 20.4506C38.1816 20.444 38.1818 20.4417 38.1818 20.445H40.1818C40.1818 19.9148 39.9772 19.4411 39.6089 19.0729L38.1947 20.4871ZM38.1818 20.445V34.62H40.1818V20.445H38.1818ZM38.1818 34.62C38.1818 35.6628 38.4318 36.6302 39.1083 37.3342C39.792 38.0455 40.744 38.315 41.7718 38.315V36.315C41.073 36.315 40.73 36.1353 40.5503 35.9483C40.3635 35.7539 40.1818 35.3739 40.1818 34.62H38.1818ZM41.7718 38.315C42.7997 38.315 43.7517 38.0455 44.4353 37.3342C45.1119 36.6302 45.3618 35.6628 45.3618 34.62H43.3618C43.3618 35.3739 43.1801 35.7539 42.9933 35.9483C42.8136 36.1353 42.4707 36.315 41.7718 36.315V38.315ZM45.3618 34.62V20.445H43.3618V34.62H45.3618ZM45.3618 20.445C45.3618 20.4417 45.3621 20.444 45.3608 20.4506C45.3595 20.4573 45.3571 20.4656 45.3535 20.4743C45.3498 20.483 45.3462 20.489 45.3441 20.4921C45.3421 20.495 45.3429 20.4932 45.3489 20.4871L43.9347 19.0729C43.5665 19.4411 43.3618 19.9148 43.3618 20.445H45.3618ZM45.3489 20.4871C45.355 20.4811 45.3568 20.4802 45.3539 20.4822C45.3509 20.4843 45.3448 20.488 45.3361 20.4916C45.3274 20.4953 45.3191 20.4977 45.3124 20.499C45.3059 20.5003 45.3035 20.5 45.3068 20.5V18.5C44.7766 18.5 44.3029 18.7047 43.9347 19.0729L45.3489 20.4871ZM65.7053 37.175H64.7053V38.175H65.7053V37.175ZM57.5853 43.72L58.2924 43.0129L58.2924 43.0129L57.5853 43.72ZM57.5853 19.78L58.2924 20.4871L58.2924 20.4871L57.5853 19.78ZM76.8703 19.78L76.1632 20.4871L76.1632 20.4871L76.8703 19.78ZM76.8703 26.045L76.1632 25.3379L76.1632 25.3379L76.8703 26.045ZM65.7053 26.325V25.325H64.7053V26.325H65.7053ZM65.7053 28.53H64.7053V29.53H65.7053V28.53ZM76.1003 28.81L76.8074 28.1029L76.8074 28.1029L76.1003 28.81ZM76.1003 34.69L76.8074 35.3971L76.8074 35.3971L76.1003 34.69ZM65.7053 34.97V33.97H64.7053V34.97H65.7053ZM65.7053 38.175H76.4853V36.175H65.7053V38.175ZM76.4853 38.175C76.4886 38.175 76.4863 38.1753 76.4797 38.174C76.473 38.1727 76.4647 38.1703 76.456 38.1666C76.4473 38.163 76.4412 38.1593 76.4382 38.1572C76.4353 38.1552 76.4371 38.1561 76.4432 38.1621L77.8574 36.7479C77.4892 36.3797 77.0155 36.175 76.4853 36.175V38.175ZM76.4432 38.1621C76.4492 38.1682 76.45 38.17 76.448 38.1671C76.446 38.164 76.4423 38.158 76.4386 38.1493C76.435 38.1406 76.4326 38.1323 76.4313 38.1256C76.43 38.119 76.4303 38.1167 76.4303 38.12H78.4303C78.4303 37.5898 78.2256 37.1161 77.8574 36.7479L76.4432 38.1621ZM76.4303 38.12V43.055H78.4303V38.12H76.4303ZM76.4303 43.055C76.4303 43.0583 76.43 43.056 76.4313 43.0494C76.4326 43.0427 76.435 43.0344 76.4386 43.0257C76.4423 43.017 76.446 43.011 76.448 43.0079C76.45 43.005 76.4492 43.0068 76.4432 43.0129L77.8574 44.4271C78.2256 44.0589 78.4303 43.5852 78.4303 43.055H76.4303ZM76.4432 43.0129C76.4371 43.0189 76.4353 43.0198 76.4382 43.0178C76.4412 43.0157 76.4473 43.012 76.456 43.0084C76.4647 43.0047 76.473 43.0023 76.4797 43.001C76.4863 42.9997 76.4886 43 76.4853 43V45C77.0155 45 77.4892 44.7953 77.8574 44.4271L76.4432 43.0129ZM76.4853 43H58.2503V45H76.4853V43ZM58.2503 43C58.247 43 58.2493 42.9997 58.2558 43.001C58.2626 43.0023 58.2709 43.0047 58.2796 43.0084C58.2882 43.012 58.2943 43.0157 58.2974 43.0178C58.3003 43.0198 58.2984 43.0189 58.2924 43.0129L56.8782 44.4271C57.2464 44.7953 57.72 45 58.2503 45V43ZM58.2924 43.0129C58.2863 43.0068 58.2855 43.005 58.2875 43.0079C58.2896 43.011 58.2933 43.017 58.2969 43.0257C58.3006 43.0344 58.303 43.0427 58.3043 43.0494C58.3055 43.056 58.3053 43.0583 58.3053 43.055H56.3053C56.3053 43.5852 56.5099 44.0589 56.8782 44.4271L58.2924 43.0129ZM58.3053 43.055V20.445H56.3053V43.055H58.3053ZM58.3053 20.445C58.3053 20.4417 58.3055 20.444 58.3043 20.4506C58.303 20.4573 58.3006 20.4656 58.2969 20.4743C58.2933 20.483 58.2896 20.489 58.2875 20.4921C58.2855 20.495 58.2863 20.4932 58.2924 20.4871L56.8782 19.0729C56.5099 19.4411 56.3053 19.9148 56.3053 20.445H58.3053ZM58.2924 20.4871C58.2984 20.4811 58.3003 20.4802 58.2974 20.4822C58.2943 20.4843 58.2882 20.488 58.2796 20.4916C58.2709 20.4953 58.2626 20.4977 58.2558 20.499C58.2493 20.5003 58.247 20.5 58.2503 20.5V18.5C57.72 18.5 57.2464 18.7047 56.8782 19.0729L58.2924 20.4871ZM58.2503 20.5H76.2053V18.5H58.2503V20.5ZM76.2053 20.5C76.2086 20.5 76.2063 20.5003 76.1997 20.499C76.193 20.4977 76.1847 20.4953 76.176 20.4916C76.1673 20.488 76.1612 20.4843 76.1582 20.4822C76.1553 20.4802 76.1571 20.4811 76.1632 20.4871L77.5774 19.0729C77.2092 18.7047 76.7355 18.5 76.2053 18.5V20.5ZM76.1632 20.4871C76.1692 20.4932 76.17 20.495 76.168 20.4921C76.1659 20.489 76.1623 20.483 76.1586 20.4743C76.155 20.4656 76.1526 20.4573 76.1513 20.4506C76.15 20.444 76.1503 20.4417 76.1503 20.445H78.1503C78.1503 19.9148 77.9456 19.4411 77.5774 19.0729L76.1632 20.4871ZM76.1503 20.445V25.38H78.1503V20.445H76.1503ZM76.1503 25.38C76.1503 25.3833 76.15 25.381 76.1513 25.3744C76.1526 25.3677 76.155 25.3594 76.1586 25.3507C76.1623 25.342 76.1659 25.336 76.168 25.3329C76.17 25.33 76.1692 25.3318 76.1632 25.3379L77.5774 26.7521C77.9456 26.3839 78.1503 25.9102 78.1503 25.38H76.1503ZM76.1632 25.3379C76.1571 25.3439 76.1553 25.3448 76.1582 25.3428C76.1612 25.3407 76.1673 25.337 76.176 25.3334C76.1847 25.3297 76.193 25.3273 76.1997 25.326C76.2063 25.3247 76.2086 25.325 76.2053 25.325V27.325C76.7355 27.325 77.2092 27.1203 77.5774 26.7521L76.1632 25.3379ZM76.2053 25.325H65.7053V27.325H76.2053V25.325ZM64.7053 26.325V28.53H66.7053V26.325H64.7053ZM65.7053 29.53H75.4353V27.53H65.7053V29.53ZM75.4353 29.53C75.4386 29.53 75.4363 29.5303 75.4297 29.529C75.423 29.5277 75.4147 29.5253 75.406 29.5216C75.3973 29.518 75.3912 29.5143 75.3882 29.5122C75.3853 29.5102 75.3871 29.5111 75.3932 29.5171L76.8074 28.1029C76.4392 27.7347 75.9655 27.53 75.4353 27.53V29.53ZM75.3932 29.5171C75.3992 29.5232 75.4 29.525 75.398 29.5221C75.3959 29.519 75.3923 29.513 75.3886 29.5043C75.385 29.4956 75.3826 29.4873 75.3813 29.4806C75.38 29.474 75.3803 29.4717 75.3803 29.475H77.3803C77.3803 28.9448 77.1756 28.4711 76.8074 28.1029L75.3932 29.5171ZM75.3803 29.475V34.025H77.3803V29.475H75.3803ZM75.3803 34.025C75.3803 34.0283 75.38 34.026 75.3813 34.0194C75.3826 34.0127 75.385 34.0044 75.3886 33.9957C75.3923 33.987 75.3959 33.981 75.398 33.9779C75.4 33.975 75.3992 33.9768 75.3932 33.9829L76.8074 35.3971C77.1756 35.0289 77.3803 34.5552 77.3803 34.025H75.3803ZM75.3932 33.9829C75.3871 33.9889 75.3853 33.9898 75.3882 33.9878C75.3912 33.9857 75.3973 33.982 75.406 33.9784C75.4147 33.9747 75.423 33.9723 75.4297 33.971C75.4363 33.9697 75.4386 33.97 75.4353 33.97V35.97C75.9655 35.97 76.4392 35.7653 76.8074 35.3971L75.3932 33.9829ZM75.4353 33.97H65.7053V35.97H75.4353V33.97ZM64.7053 34.97V37.175H66.7053V34.97H64.7053ZM83.9512 21.39L83.3497 20.5911L83.3452 20.5946L83.9512 21.39ZM99.5962 21.495L98.9861 22.2873L98.9904 22.2906L99.5962 21.495ZM102.431 26.955L103.138 27.6621L103.138 27.6621L102.431 26.955ZM93.4712 26.57L92.8044 27.3152L92.8044 27.3152L93.4712 26.57ZM90.8112 27.83L90.4125 28.7471L90.4195 28.7501L90.4266 28.7531L90.8112 27.83ZM93.8912 28.46L94.0177 27.468L94.0152 27.4677L93.8912 28.46ZM101.311 30.91L100.682 31.6872L100.689 31.6927L100.696 31.698L101.311 30.91ZM100.261 42.11L100.828 42.9338L100.83 42.9325L100.261 42.11ZM83.4262 42.18L82.8414 42.9912L82.8414 42.9912L83.4262 42.18ZM80.6262 36.37L81.3333 37.0771L81.3333 37.0771L80.6262 36.37ZM89.4462 36.825L88.8215 37.6059L88.829 37.6118L88.8365 37.6176L89.4462 36.825ZM93.6112 35.6L93.2639 36.5377L93.2793 36.5435L93.295 36.5487L93.6112 35.6ZM90.0412 34.9L90.1734 33.9088L90.1719 33.9086L90.0412 34.9ZM82.0112 27.2C82.0112 25.1448 82.8352 23.4974 84.5573 22.1854L83.3452 20.5946C81.1472 22.2692 80.0112 24.4952 80.0112 27.2H82.0112ZM84.5527 22.1889C86.3185 20.8594 88.6788 20.15 91.7212 20.15V18.15C88.3703 18.15 85.5506 18.934 83.3497 20.5911L84.5527 22.1889ZM91.7212 20.15C94.7781 20.15 97.1717 20.89 98.9861 22.2873L100.206 20.7027C97.9607 18.9733 95.1043 18.15 91.7212 18.15V20.15ZM98.9904 22.2906C100.927 23.7651 101.676 25.1388 101.676 26.395H103.676C103.676 24.2446 102.372 22.3515 100.202 20.6994L98.9904 22.2906ZM101.676 26.395C101.676 26.3664 101.683 26.3287 101.699 26.2917C101.714 26.2565 101.729 26.2427 101.724 26.2479L103.138 27.6621C103.469 27.3318 103.676 26.898 103.676 26.395H101.676ZM101.724 26.2479C101.734 26.2382 101.762 26.2139 101.81 26.1934C101.859 26.1723 101.906 26.165 101.941 26.165V28.165C102.41 28.165 102.823 27.977 103.138 27.6621L101.724 26.2479ZM101.941 26.165H94.9412V28.165H101.941V26.165ZM94.9412 26.165C94.6779 26.165 94.4194 26.0766 94.138 25.8248L92.8044 27.3152C93.4097 27.8568 94.1312 28.165 94.9412 28.165V26.165ZM94.138 25.8248C93.468 25.2253 92.6138 24.975 91.6862 24.975V26.975C92.252 26.975 92.5878 27.1214 92.8044 27.3152L94.138 25.8248ZM91.6862 24.975C91.0617 24.975 90.4297 25.0603 89.9223 25.3562C89.3322 25.7005 89.0062 26.2761 89.0062 26.955H91.0062C91.0062 26.938 91.0086 26.9714 90.9795 27.0224C90.9501 27.0737 90.9188 27.0903 90.9301 27.0838C90.9477 27.0735 91.0091 27.0437 91.1421 27.0179C91.2734 26.9923 91.4519 26.975 91.6862 26.975V24.975ZM89.0062 26.955C89.0062 27.9301 89.7783 28.4713 90.4125 28.7471L91.2099 26.9129C91.1165 26.8723 91.0502 26.8358 91.0053 26.8065C90.9832 26.792 90.9677 26.7803 90.9575 26.7719C90.9474 26.7635 90.9433 26.7591 90.9434 26.7592C90.9441 26.76 90.962 26.7799 90.9791 26.8208C90.997 26.8636 91.0062 26.9109 91.0062 26.955H89.0062ZM90.4266 28.7531C91.1264 29.0447 92.2778 29.2661 93.7672 29.4523L94.0152 27.4677C92.518 27.2806 91.616 27.082 91.1958 26.9069L90.4266 28.7531ZM93.7647 29.452C97.1909 29.8889 99.434 30.6769 100.682 31.6872L101.94 30.1328C100.248 28.7631 97.5449 27.9178 94.0177 27.468L93.7647 29.452ZM100.696 31.698C101.883 32.6257 102.551 34.079 102.551 36.265H104.551C104.551 33.6443 103.726 31.5276 101.927 30.122L100.696 31.698ZM102.551 36.265C102.551 38.2731 101.654 39.9314 99.6925 41.2875L100.83 42.9325C103.255 41.2553 104.551 39.0169 104.551 36.265H102.551ZM99.6943 41.2862C97.7389 42.6318 95.1092 43.35 91.7212 43.35V45.35C95.3799 45.35 98.4435 44.5748 100.828 42.9338L99.6943 41.2862ZM91.7212 43.35C88.3218 43.35 85.7889 42.6505 84.011 41.3688L82.8414 42.9912C85.0769 44.6028 88.0739 45.35 91.7212 45.35V43.35ZM84.011 41.3688C82.2085 40.0693 81.4162 38.5863 81.4162 36.895H79.4162C79.4162 39.357 80.6306 41.3973 82.8414 42.9912L84.011 41.3688ZM81.4162 36.895C81.4162 36.9027 81.4145 36.9343 81.3972 36.9776C81.3794 37.0222 81.3542 37.0563 81.3333 37.0771L79.9191 35.6629C79.5793 36.0027 79.4162 36.4376 79.4162 36.895H81.4162ZM81.3333 37.0771C81.3385 37.0719 81.3247 37.087 81.2895 37.1024C81.2526 37.1186 81.2148 37.125 81.1862 37.125V35.125C80.6832 35.125 80.2494 35.3326 79.9191 35.6629L81.3333 37.0771ZM81.1862 37.125H87.8362V35.125H81.1862V37.125ZM87.8362 37.125C88.0071 37.125 88.327 37.2102 88.8215 37.6059L90.0709 36.0441C89.3988 35.5064 88.6453 35.125 87.8362 35.125V37.125ZM88.8365 37.6176C89.6728 38.2609 90.7415 38.525 91.9312 38.525V36.525C91.0209 36.525 90.433 36.3224 90.0559 36.0324L88.8365 37.6176ZM91.9312 38.525C92.8401 38.525 93.6413 38.444 94.2497 38.2168C94.5604 38.1009 94.8847 37.9236 95.1381 37.6398C95.4101 37.3351 95.5562 36.9555 95.5562 36.545H93.5562C93.5562 36.4612 93.5929 36.3674 93.6462 36.3077C93.6809 36.2689 93.677 36.2958 93.5502 36.3432C93.2836 36.4427 92.7723 36.525 91.9312 36.525V38.525ZM95.5562 36.545C95.5562 35.4607 94.6881 34.9049 93.9274 34.6513L93.295 36.5487C93.4066 36.5859 93.4855 36.6216 93.539 36.6513C93.5926 36.6811 93.612 36.7 93.6129 36.7009C93.6129 36.7009 93.6081 36.6961 93.6011 36.686C93.594 36.6757 93.5857 36.6615 93.578 36.6436C93.5614 36.6048 93.5562 36.5685 93.5562 36.545H95.5562ZM93.9585 34.6623C93.2102 34.3851 91.9155 34.1411 90.1734 33.9088L89.909 35.8912C91.6669 36.1256 92.7522 36.3482 93.2639 36.5377L93.9585 34.6623ZM90.1719 33.9086C87.2583 33.5246 85.2167 32.7269 83.9176 31.6191C82.6587 30.5456 82.0112 29.1093 82.0112 27.2H80.0112C80.0112 29.6307 80.8687 31.6477 82.6199 33.1409C84.3307 34.5998 86.8041 35.4821 89.9106 35.8914L90.1719 33.9086ZM126.291 22.055L125.677 22.8449L125.687 22.852L126.291 22.055ZM107.146 43.72L107.853 43.0129L107.853 43.0129L107.146 43.72ZM107.146 19.78L107.853 20.4871L107.853 20.4871L107.146 19.78ZM115.616 26.325V25.325H114.616V26.325H115.616ZM115.616 37.175H114.616V38.175H115.616V37.175ZM119.781 36.475L119.074 35.7679L119.074 35.7679L119.781 36.475ZM107.811 20.5H117.891V18.5H107.811V20.5ZM117.891 20.5C121.127 20.5 123.696 21.3063 125.677 22.8448L126.904 21.2652C124.499 19.397 121.468 18.5 117.891 18.5V20.5ZM125.687 22.852C127.629 24.324 128.616 26.3719 128.616 29.125H130.616C130.616 25.8114 129.386 23.146 126.895 21.258L125.687 22.852ZM128.616 29.125V34.34H130.616V29.125H128.616ZM128.616 34.34C128.616 37.2632 127.643 39.3447 125.79 40.7542L127.001 42.3458C129.442 40.4887 130.616 37.7635 130.616 34.34H128.616ZM125.79 40.7542C123.863 42.2203 121.272 43 117.926 43V45C121.579 45 124.635 44.1464 127.001 42.3458L125.79 40.7542ZM117.926 43H107.811V45H117.926V43ZM107.811 43C107.808 43 107.81 42.9997 107.816 43.001C107.823 43.0023 107.831 43.0047 107.84 43.0084C107.849 43.012 107.855 43.0157 107.858 43.0178C107.861 43.0198 107.859 43.0189 107.853 43.0129L106.439 44.4271C106.807 44.7953 107.281 45 107.811 45V43ZM107.853 43.0129C107.847 43.0068 107.846 43.005 107.848 43.0079C107.85 43.011 107.854 43.017 107.857 43.0257C107.861 43.0344 107.864 43.0427 107.865 43.0494C107.866 43.056 107.866 43.0583 107.866 43.055H105.866C105.866 43.5852 106.07 44.0589 106.439 44.4271L107.853 43.0129ZM107.866 43.055V20.445H105.866V43.055H107.866ZM107.866 20.445C107.866 20.4417 107.866 20.444 107.865 20.4506C107.864 20.4573 107.861 20.4656 107.857 20.4743C107.854 20.483 107.85 20.489 107.848 20.4921C107.846 20.495 107.847 20.4932 107.853 20.4871L106.439 19.0729C106.07 19.4411 105.866 19.9148 105.866 20.445H107.866ZM107.853 20.4871C107.859 20.4811 107.861 20.4802 107.858 20.4822C107.855 20.4843 107.849 20.488 107.84 20.4916C107.831 20.4953 107.823 20.4977 107.816 20.499C107.81 20.5003 107.808 20.5 107.811 20.5V18.5C107.281 18.5 106.807 18.7047 106.439 19.0729L107.853 20.4871ZM114.616 26.325V37.175H116.616V26.325H114.616ZM115.616 38.175H117.891V36.175H115.616V38.175ZM117.891 38.175C118.892 38.175 119.797 37.8733 120.488 37.1821L119.074 35.7679C118.832 36.01 118.476 36.175 117.891 36.175V38.175ZM120.488 37.1821C121.223 36.4468 121.516 35.4438 121.516 34.34H119.516C119.516 35.1028 119.318 35.5232 119.074 35.7679L120.488 37.1821ZM121.516 34.34V29.125H119.516V34.34H121.516ZM121.516 29.125C121.516 28.053 121.266 27.0629 120.589 26.3411C119.901 25.6071 118.937 25.325 117.891 25.325V27.325C118.595 27.325 118.943 27.5096 119.13 27.7089C119.328 27.9204 119.516 28.3303 119.516 29.125H121.516ZM117.891 25.325H115.616V27.325H117.891V25.325ZM150.293 20.655L149.328 20.9181L149.337 20.9519L149.349 20.985L150.293 20.655ZM158.098 42.985L159.046 42.6688L159.044 42.6619L159.042 42.655L158.098 42.985ZM157.888 43.79L157.181 43.0829L157.181 43.0829L157.888 43.79ZM149.523 43.125L150.464 42.7863L150.462 42.7833L149.523 43.125ZM148.683 40.815L149.622 40.4733L149.383 39.815H148.683V40.815ZM141.158 40.815V39.815H140.457L140.218 40.4733L141.158 40.815ZM140.318 43.125L139.378 42.7833L139.377 42.7863L140.318 43.125ZM131.918 43.79L131.158 44.4408L131.208 44.4992L131.267 44.5493L131.918 43.79ZM131.743 42.985L130.799 42.655L130.796 42.6619L130.794 42.6688L131.743 42.985ZM139.548 20.655L140.492 20.985L140.503 20.9519L140.512 20.9181L139.548 20.655ZM142.943 33.99L141.985 33.7017L141.597 34.99H142.943V33.99ZM146.898 33.99V34.99H148.25L147.854 33.697L146.898 33.99ZM144.903 27.48L145.859 27.187L144.894 24.0394L143.945 27.1917L144.903 27.48ZM141.123 20.5H148.718V18.5H141.123V20.5ZM148.718 20.5C148.987 20.5 149.103 20.5606 149.15 20.5952C149.192 20.6259 149.269 20.7005 149.328 20.9181L151.257 20.3919C151.107 19.8395 150.816 19.3366 150.333 18.9823C149.855 18.6319 149.288 18.5 148.718 18.5V20.5ZM149.349 20.985L157.154 43.315L159.042 42.655L151.237 20.325L149.349 20.985ZM157.149 43.3012C157.143 43.2826 157.138 43.2672 157.136 43.256C157.133 43.2446 157.131 43.236 157.13 43.2305C157.128 43.2202 157.128 43.2175 157.129 43.2245C157.129 43.2312 157.13 43.2436 157.131 43.2629C157.132 43.282 157.133 43.3058 157.133 43.335H159.133C159.133 43.1624 159.125 42.9043 159.046 42.6688L157.149 43.3012ZM157.133 43.335C157.133 43.2056 157.171 43.1164 157.191 43.0796C157.209 43.0463 157.215 43.0482 157.181 43.0829L158.595 44.4971C158.83 44.262 159.133 43.8682 159.133 43.335H157.133ZM157.181 43.0829C157.201 43.0621 157.235 43.0368 157.28 43.019C157.323 43.0017 157.355 43 157.363 43V45C157.82 45 158.255 44.8369 158.595 44.4971L157.181 43.0829ZM157.363 43H150.888V45H157.363V43ZM150.888 43C150.673 43 150.586 42.9555 150.561 42.9394C150.546 42.9296 150.505 42.9025 150.464 42.7863L148.582 43.4637C148.75 43.9308 149.042 44.3413 149.482 44.6231C149.911 44.8986 150.402 45 150.888 45V43ZM150.462 42.7833L149.622 40.4733L147.743 41.1567L148.583 43.4667L150.462 42.7833ZM148.683 39.815H141.158V41.815H148.683V39.815ZM140.218 40.4733L139.378 42.7833L141.257 43.4667L142.097 41.1567L140.218 40.4733ZM139.377 42.7863C139.335 42.9025 139.295 42.9296 139.279 42.9394C139.254 42.9555 139.167 43 138.953 43V45C139.438 45 139.929 44.8986 140.359 44.6231C140.798 44.3413 141.09 43.9308 141.259 43.4637L139.377 42.7863ZM138.953 43H132.478V45H138.953V43ZM132.478 43C132.486 43 132.506 43.0019 132.531 43.0112C132.543 43.0154 132.552 43.0202 132.559 43.0244C132.566 43.0285 132.569 43.0312 132.568 43.0307L131.267 44.5493C131.607 44.8405 132.023 45 132.478 45V43ZM132.677 43.1392C132.651 43.1086 132.655 43.1068 132.668 43.1347C132.682 43.1652 132.708 43.2351 132.708 43.335H130.708C130.708 43.8129 130.943 44.1893 131.158 44.4408L132.677 43.1392ZM132.708 43.335C132.708 43.3058 132.708 43.282 132.709 43.2629C132.71 43.2436 132.711 43.2312 132.711 43.2245C132.712 43.2175 132.712 43.2202 132.71 43.2305C132.709 43.236 132.707 43.2446 132.705 43.256C132.702 43.2672 132.698 43.2826 132.691 43.3012L130.794 42.6688C130.715 42.9043 130.708 43.1624 130.708 43.335H132.708ZM132.687 43.315L140.492 20.985L138.604 20.325L130.799 42.655L132.687 43.315ZM140.512 20.9181C140.572 20.7005 140.648 20.6259 140.69 20.5952C140.737 20.5606 140.853 20.5 141.123 20.5V18.5C140.552 18.5 139.985 18.6319 139.508 18.9823C139.024 19.3366 138.734 19.8395 138.583 20.3919L140.512 20.9181ZM142.943 34.99H146.898V32.99H142.943V34.99ZM147.854 33.697L145.859 27.187L143.947 27.773L145.942 34.283L147.854 33.697ZM143.945 27.1917L141.985 33.7017L143.9 34.2783L145.86 27.7683L143.945 27.1917ZM167.238 43.72L166.531 44.4271L166.531 44.4271L167.238 43.72ZM166.958 36.16H167.958V35.9216L167.85 35.7088L166.958 36.16ZM159.083 20.585L158.189 21.0322L158.191 21.0362L159.083 20.585ZM159.223 19.745L159.93 20.4521L159.93 20.4521L159.223 19.745ZM167.833 20.375L166.931 20.8078L166.938 20.8204L167.833 20.375ZM171.333 27.41L170.438 27.8554L171.333 29.655L172.228 27.8554L171.333 27.41ZM174.833 20.375L175.728 20.8205L175.735 20.8077L174.833 20.375ZM183.408 19.745L182.649 20.3958L182.699 20.4542L182.757 20.5043L183.408 19.745ZM183.583 20.585L184.476 21.0362L184.478 21.0322L183.583 20.585ZM175.708 36.16L174.816 35.7088L174.708 35.9216V36.16H175.708ZM175.428 43.72L176.135 44.4271L176.135 44.4271L175.428 43.72ZM174.763 43H167.903V45H174.763V43ZM167.903 43C167.9 43 167.902 42.9997 167.909 43.001C167.915 43.0023 167.924 43.0047 167.932 43.0084C167.941 43.012 167.947 43.0157 167.95 43.0178C167.953 43.0198 167.951 43.0189 167.945 43.0129L166.531 44.4271C166.899 44.7953 167.373 45 167.903 45V43ZM167.945 43.0129C167.939 43.0068 167.938 43.005 167.94 43.0079C167.942 43.011 167.946 43.017 167.95 43.0257C167.953 43.0344 167.956 43.0427 167.957 43.0494C167.958 43.056 167.958 43.0583 167.958 43.055H165.958C165.958 43.5852 166.163 44.0589 166.531 44.4271L167.945 43.0129ZM167.958 43.055V36.16H165.958V43.055H167.958ZM167.85 35.7088L159.975 20.1338L158.191 21.0362L166.066 36.6112L167.85 35.7088ZM159.978 20.1378C160.006 20.1939 160.013 20.233 160.014 20.2399C160.016 20.2473 160.013 20.2359 160.013 20.2H158.013C158.013 20.4396 158.044 20.7434 158.189 21.0322L159.978 20.1378ZM160.013 20.2C160.013 20.2664 159.998 20.3303 159.974 20.3828C159.951 20.4319 159.929 20.4538 159.93 20.4521L158.516 19.0379C158.231 19.323 158.013 19.7169 158.013 20.2H160.013ZM159.93 20.4521C159.935 20.4469 159.922 20.462 159.886 20.4774C159.849 20.4936 159.812 20.5 159.783 20.5V18.5C159.28 18.5 158.846 18.7076 158.516 19.0379L159.93 20.4521ZM159.783 20.5H166.363V18.5H159.783V20.5ZM166.363 20.5C166.574 20.5 166.685 20.5432 166.744 20.578C166.798 20.61 166.865 20.6689 166.932 20.8077L168.735 19.9423C168.521 19.4978 168.203 19.1191 167.767 18.8595C167.336 18.6027 166.852 18.5 166.363 18.5V20.5ZM166.938 20.8204L170.438 27.8554L172.228 26.9646L168.728 19.9296L166.938 20.8204ZM172.228 27.8554L175.728 20.8204L173.938 19.9296L170.438 26.9646L172.228 27.8554ZM175.735 20.8077C175.801 20.6689 175.868 20.61 175.922 20.578C175.981 20.5432 176.092 20.5 176.303 20.5V18.5C175.814 18.5 175.33 18.6027 174.899 18.8595C174.463 19.1191 174.145 19.4978 173.932 19.9423L175.735 20.8077ZM176.303 20.5H182.883V18.5H176.303V20.5ZM182.883 20.5C182.855 20.5 182.805 20.4936 182.749 20.4674C182.693 20.4415 182.661 20.4098 182.649 20.3958L184.167 19.0942C183.843 18.7154 183.393 18.5 182.883 18.5V20.5ZM182.757 20.5043C182.768 20.5133 182.741 20.4936 182.711 20.4379C182.678 20.3762 182.653 20.2929 182.653 20.2H184.653C184.653 19.6589 184.369 19.2516 184.059 18.9857L182.757 20.5043ZM182.653 20.2C182.653 20.2359 182.65 20.2473 182.652 20.2399C182.653 20.233 182.661 20.1939 182.689 20.1378L184.478 21.0322C184.622 20.7434 184.653 20.4396 184.653 20.2H182.653ZM182.691 20.1338L174.816 35.7088L176.6 36.6112L184.475 21.0362L182.691 20.1338ZM174.708 36.16V43.055H176.708V36.16H174.708ZM174.708 43.055C174.708 43.0583 174.708 43.056 174.709 43.0494C174.71 43.0427 174.713 43.0344 174.716 43.0257C174.72 43.017 174.724 43.011 174.726 43.0079C174.728 43.005 174.727 43.0068 174.721 43.0129L176.135 44.4271C176.503 44.0589 176.708 43.5852 176.708 43.055H174.708ZM174.721 43.0129C174.715 43.0189 174.713 43.0198 174.716 43.0178C174.719 43.0157 174.725 43.012 174.734 43.0084C174.742 43.0047 174.751 43.0023 174.758 43.001C174.764 42.9997 174.766 43 174.763 43V45C175.293 45 175.767 44.7953 176.135 44.4271L174.721 43.0129Z" fill="black" mask="url(#path-1-inside-1_3_18)"/>
<path d="M1.995 16.5H22.505C22.7617 16.5 22.9833 16.5933 23.17 16.78C23.3567 16.9667 23.45 17.1883 23.45 17.445V23.08C23.45 23.3367 23.3567 23.5583 23.17 23.745C22.9833 23.9317 22.7617 24.025 22.505 24.025H16.695V40.055C16.695 40.3117 16.6017 40.5333 16.415 40.72C16.2283 40.9067 16.0067 41 15.75 41H8.75C8.49333 41 8.27167 40.9067 8.085 40.72C7.89833 40.5333 7.805 40.3117 7.805 40.055V24.025H1.995C1.73833 24.025 1.51667 23.9317 1.33 23.745C1.14333 23.5583 1.05 23.3367 1.05 23.08V17.445C1.05 17.1883 1.14333 16.9667 1.33 16.78C1.51667 16.5933 1.73833 16.5 1.995 16.5ZM41.3068 16.5H48.1668C48.4235 16.5 48.6452 16.5933 48.8318 16.78C49.0185 16.9667 49.1118 17.1883 49.1118 17.445V31.515C49.1118 34.7817 48.0968 37.2433 46.0668 38.9C44.0368 40.5333 41.2718 41.35 37.7718 41.35C34.2952 41.35 31.5302 40.5333 29.4768 38.9C27.4468 37.2667 26.4318 34.805 26.4318 31.515V17.445C26.4318 17.1883 26.5252 16.9667 26.7118 16.78C26.8985 16.5933 27.1202 16.5 27.3768 16.5H34.2368C34.4935 16.5 34.7152 16.5933 34.9018 16.78C35.0885 16.9667 35.1818 17.1883 35.1818 17.445V31.62C35.1818 33.4167 36.0452 34.315 37.7718 34.315C39.4985 34.315 40.3618 33.4167 40.3618 31.62V17.445C40.3618 17.1883 40.4552 16.9667 40.6418 16.78C40.8285 16.5933 41.0502 16.5 41.3068 16.5ZM61.7053 34.175H72.4853C72.7419 34.175 72.9636 34.2683 73.1503 34.455C73.3369 34.6417 73.4303 34.8633 73.4303 35.12V40.055C73.4303 40.3117 73.3369 40.5333 73.1503 40.72C72.9636 40.9067 72.7419 41 72.4853 41H54.2503C53.9936 41 53.7719 40.9067 53.5853 40.72C53.3986 40.5333 53.3053 40.3117 53.3053 40.055V17.445C53.3053 17.1883 53.3986 16.9667 53.5853 16.78C53.7719 16.5933 53.9936 16.5 54.2503 16.5H72.2053C72.4619 16.5 72.6836 16.5933 72.8703 16.78C73.0569 16.9667 73.1503 17.1883 73.1503 17.445V22.38C73.1503 22.6367 73.0569 22.8583 72.8703 23.045C72.6836 23.2317 72.4619 23.325 72.2053 23.325H61.7053V25.53H71.4353C71.6919 25.53 71.9136 25.6233 72.1003 25.81C72.2869 25.9967 72.3803 26.2183 72.3803 26.475V31.025C72.3803 31.2817 72.2869 31.5033 72.1003 31.69C71.9136 31.8767 71.6919 31.97 71.4353 31.97H61.7053V34.175ZM77.0112 24.2C77.0112 21.82 77.9912 19.8833 79.9512 18.39C81.9345 16.8967 84.5245 16.15 87.7212 16.15C90.9412 16.15 93.5662 16.9317 95.5962 18.495C97.6495 20.0583 98.6762 21.6917 98.6762 23.395C98.6762 23.605 98.5945 23.7917 98.4312 23.955C98.2912 24.095 98.1279 24.165 97.9412 24.165H90.9412C90.4045 24.165 89.9145 23.9667 89.4712 23.57C89.0279 23.1733 88.4329 22.975 87.6862 22.975C86.5662 22.975 86.0062 23.3017 86.0062 23.955C86.0062 24.305 86.2745 24.5967 86.8112 24.83C87.3712 25.0633 88.3979 25.2733 89.8912 25.46C93.3679 25.9033 95.8412 26.72 97.3112 27.91C98.8045 29.0767 99.5512 30.8617 99.5512 33.265C99.5512 35.645 98.4545 37.5933 96.2612 39.11C94.0912 40.6033 91.2445 41.35 87.7212 41.35C84.1979 41.35 81.4329 40.6267 79.4262 39.18C77.4195 37.7333 76.4162 35.9717 76.4162 33.895C76.4162 33.685 76.4862 33.51 76.6262 33.37C76.7895 33.2067 76.9762 33.125 77.1862 33.125H83.8362C84.3262 33.125 84.8629 33.3583 85.4462 33.825C86.0529 34.2917 86.8812 34.525 87.9312 34.525C89.6812 34.525 90.5562 34.1983 90.5562 33.545C90.5562 33.125 90.2412 32.81 89.6112 32.6C88.9812 32.3667 87.7912 32.1333 86.0412 31.9C80.0212 31.1067 77.0112 28.54 77.0112 24.2ZM103.811 16.5H113.891C117.297 16.5 120.097 17.3517 122.291 19.055C124.507 20.735 125.616 23.0917 125.616 26.125V31.34C125.616 34.5133 124.542 36.9167 122.396 38.55C120.249 40.1833 117.426 41 113.926 41H103.811C103.554 41 103.332 40.9067 103.146 40.72C102.959 40.5333 102.866 40.3117 102.866 40.055V17.445C102.866 17.1883 102.959 16.9667 103.146 16.78C103.332 16.5933 103.554 16.5 103.811 16.5ZM111.616 23.325V34.175H113.891C114.684 34.175 115.314 33.9417 115.781 33.475C116.271 32.985 116.516 32.2733 116.516 31.34V26.125C116.516 24.2583 115.641 23.325 113.891 23.325H111.616ZM137.123 16.5H144.718C145.558 16.5 146.083 16.885 146.293 17.655L154.098 39.985C154.121 40.055 154.133 40.1717 154.133 40.335C154.133 40.475 154.051 40.6267 153.888 40.79C153.748 40.93 153.573 41 153.363 41H146.888C146.188 41 145.733 40.7083 145.523 40.125L144.683 37.815H137.158L136.318 40.125C136.108 40.7083 135.653 41 134.953 41H128.478C128.268 41 128.081 40.93 127.918 40.79C127.778 40.6267 127.708 40.475 127.708 40.335C127.708 40.1717 127.719 40.055 127.743 39.985L135.548 17.655C135.758 16.885 136.283 16.5 137.123 16.5ZM138.943 30.99H142.898L140.903 24.48L138.943 30.99ZM170.763 41H163.903C163.646 41 163.425 40.9067 163.238 40.72C163.051 40.5333 162.958 40.3117 162.958 40.055V33.16L155.083 17.585C155.036 17.4917 155.013 17.3633 155.013 17.2C155.013 17.0367 155.083 16.885 155.223 16.745C155.386 16.5817 155.573 16.5 155.783 16.5H162.363C163.063 16.5 163.553 16.7917 163.833 17.375L167.333 24.41L170.833 17.375C171.113 16.7917 171.603 16.5 172.303 16.5H178.883C179.093 16.5 179.268 16.5817 179.408 16.745C179.571 16.885 179.653 17.0367 179.653 17.2C179.653 17.3633 179.63 17.4917 179.583 17.585L171.708 33.16V40.055C171.708 40.3117 171.615 40.5333 171.428 40.72C171.241 40.9067 171.02 41 170.763 41Z" fill="#343131"/>
</svg>
