<svg width="222" height="100" viewBox="0 0 222 100" fill="none" xmlns="http://www.w3.org/2000/svg">
<g filter="url(#filter0_d_14_30)">
<path fill-rule="evenodd" clip-rule="evenodd" d="M19.0724 2.06199C10.2693 2.26148 2.8236 8.8135 2.0001 17.5803C0.540091 33.1231 0.751776 45.6156 2.16018 61.1155C2.96908 70.0178 10.4431 76.7876 19.379 77.0179C83.5559 78.6719 125.246 78.7708 189.884 76.9909C194.214 76.8717 198.251 75.2114 201.285 72.47C206.801 86.3324 214.2 90.5578 218.206 92.8458C219.315 93.4791 220.163 93.964 220.641 94.4637C212.66 82.4971 207.376 70.8453 205.79 65.7409C206.064 64.9617 206.282 64.1526 206.438 63.317C209.549 46.6669 209.432 33.4557 206.327 16.1195C204.877 8.0228 197.731 2.28559 189.508 2.10323C124.988 0.672423 83.286 0.606827 19.0724 2.06199ZM221 95C220.929 94.8148 220.807 94.6384 220.641 94.4637C220.76 94.6424 220.88 94.8212 221 95Z" fill="white"/>
<path d="M2.0001 17.5803L2.99572 17.6738L2.99572 17.6738L2.0001 17.5803ZM19.0724 2.06199L19.095 3.06173L19.095 3.06173L19.0724 2.06199ZM2.16018 61.1155L3.15608 61.025L3.15608 61.025L2.16018 61.1155ZM19.379 77.0179L19.4048 76.0183L19.4048 76.0183L19.379 77.0179ZM189.884 76.9909L189.857 75.9913L189.857 75.9913L189.884 76.9909ZM201.285 72.47L200.615 71.7279C200.858 71.5084 201.193 71.4218 201.512 71.496C201.831 71.5703 202.094 71.796 202.215 72.1003L201.285 72.47ZM218.206 92.8458L217.71 93.7142L217.71 93.7142L218.206 92.8458ZM205.79 65.7409L204.835 66.0377C204.771 65.8322 204.775 65.6115 204.846 65.4085L205.79 65.7409ZM206.438 63.317L207.421 63.5007L207.421 63.5007L206.438 63.317ZM206.327 16.1195L205.343 16.2958L205.343 16.2958L206.327 16.1195ZM189.508 2.10323L189.53 1.10347L189.508 2.10323ZM221 95L221.933 94.6412C222.116 95.1161 221.913 95.6523 221.462 95.8871C221.01 96.1219 220.455 95.9805 220.17 95.5584L221 95ZM1.00448 17.4867C1.87824 8.18491 9.76997 1.27254 19.0497 1.06225L19.095 3.06173C10.7686 3.25042 3.76896 9.44209 2.99572 17.6738L1.00448 17.4867ZM1.16428 61.206C-0.248651 45.6563 -0.462251 33.1011 1.00448 17.4867L2.99572 17.6738C1.54243 33.145 1.7522 45.575 3.15608 61.025L1.16428 61.206ZM19.3532 78.0176C9.92844 77.7747 2.02073 70.6316 1.16428 61.206L3.15608 61.025C3.91742 69.4039 10.9577 75.8006 19.4048 76.0183L19.3532 78.0176ZM189.912 77.9906C125.254 79.7709 83.5462 79.672 19.3532 78.0176L19.4048 76.0183C83.5655 77.6718 125.238 77.7706 189.857 75.9913L189.912 77.9906ZM201.956 73.212C198.744 76.1134 194.48 77.8648 189.912 77.9906L189.857 75.9913C193.949 75.8786 197.757 74.3095 200.615 71.7279L201.956 73.212ZM202.215 72.1003C204.927 78.9166 208.085 83.3227 211.023 86.2953C213.962 89.2685 216.713 90.8417 218.702 91.9775L217.71 93.7142C215.692 92.562 212.741 90.8785 209.601 87.7013C206.46 84.5237 203.16 79.8858 200.356 72.8397L202.215 72.1003ZM218.702 91.9775C219.749 92.5756 220.761 93.1415 221.364 93.7731L219.917 95.1544C219.566 94.7866 218.88 94.3827 217.71 93.7142L218.702 91.9775ZM219.809 95.0186C211.789 82.9935 206.457 71.2552 204.835 66.0377L206.744 65.444C208.296 70.4355 213.531 82.0007 221.473 93.9089L219.809 95.0186ZM207.421 63.5007C207.256 64.387 207.024 65.2458 206.733 66.0733L204.846 65.4085C205.104 64.6775 205.309 63.9181 205.455 63.1333L207.421 63.5007ZM207.311 15.9432C210.436 33.3882 210.557 46.7218 207.421 63.5007L205.455 63.1333C208.542 46.612 208.428 33.5232 205.343 16.2958L207.311 15.9432ZM189.53 1.10347C198.197 1.29568 205.772 7.34702 207.311 15.9432L205.343 16.2958C203.982 8.69858 197.266 3.27551 189.486 3.10298L189.53 1.10347ZM19.0497 1.06225C83.2793 -0.393278 124.996 -0.32764 189.53 1.10347L189.486 3.10298C124.98 1.67249 83.2928 1.60693 19.095 3.06173L19.0497 1.06225ZM220.067 95.3588C220.056 95.3308 220.022 95.2636 219.917 95.1544L221.364 93.7731C221.593 94.0131 221.802 94.2988 221.933 94.6412L220.067 95.3588ZM221.473 93.9089C221.591 94.0864 221.71 94.264 221.83 94.4416L220.17 95.5584C220.049 95.3784 219.929 95.1984 219.809 95.0186L221.473 93.9089Z" fill="black"/>
</g>
<path d="M18.04 29.728C18.256 29.716 18.484 29.704 18.712 29.692C19.468 29.656 20.332 29.476 21.124 29.26C21.7 29.14 22.636 28.792 23.116 28.36C22.792 28.18 22.024 28.012 21.604 28.012C21.328 28.012 19.684 28.06 19.468 28.132C19.06 28.24 18.592 28.312 18.208 28.312C18.124 28.708 18.112 29.092 18.088 29.476C18.076 29.56 18.076 29.644 18.04 29.728ZM18.772 26.356C19.624 26.26 20.824 26.092 21.64 25.816C22.312 25.576 23.476 24.832 23.692 24.436C23.296 23.992 22.216 23.776 21.52 23.776C21.124 23.776 20.788 23.896 20.38 23.968C20.152 23.992 19.684 24.028 19.456 24.148C19.36 24.532 19.24 24.916 19.108 25.324C19.024 25.564 18.784 26.152 18.772 26.356ZM23.404 26.608C24.388 26.812 25.336 27.46 24.94 28.66C24.82 29.032 24.532 29.524 24.052 29.872C22.096 31.264 19.288 31.66 17.32 31.66C16.948 31.66 16.456 31.624 16.324 31.24C16.192 30.964 16.168 30.292 16.192 29.992C16.216 29.668 16.324 29.32 16.42 28.948C16.696 27.712 17.032 26.536 17.392 25.3C17.608 24.592 17.668 23.872 17.896 23.164C17.956 22.972 18.088 22.696 18.448 22.54C19.42 22.084 21.208 21.844 22.144 21.844C22.468 21.844 22.78 21.856 23.044 21.892C24.4 22.036 25.948 23.368 25.564 24.532C25.276 25.408 24.352 26.104 23.404 26.608ZM29.363 27.208C29.963 27.124 30.755 27.088 31.307 27.088C31.259 26.38 31.091 25.408 30.995 24.724C30.515 25.336 29.735 26.584 29.363 27.208ZM27.119 30.892C26.903 31.348 26.495 31.504 26.099 31.504C25.559 31.504 25.463 31.12 25.451 30.856C25.451 30.028 26.039 29.068 26.459 28.408C26.819 27.868 27.215 27.328 27.527 26.848C27.767 26.512 27.983 26.188 28.175 25.852C28.595 25.132 29.039 24.472 29.555 23.776C29.831 23.392 30.107 22.984 30.395 22.624C30.647 22.312 30.875 21.916 31.319 21.916C31.499 21.916 31.643 21.976 31.775 22.072C32.183 22.228 32.591 22.744 32.615 23.152C32.663 23.368 32.711 23.596 32.771 23.824C33.083 25.324 33.047 26.86 33.215 28.372C33.299 29.056 33.323 29.872 33.083 30.58C32.939 31.036 32.627 31.576 32.075 31.576C31.307 31.576 31.499 30.856 31.463 30.412C31.415 29.836 31.463 29.404 31.343 28.876C30.911 28.972 28.211 29.176 28.211 29.176C27.899 29.824 27.467 30.256 27.119 30.892ZM37.3063 27.052C36.7783 28.66 37.8823 29.5 39.3943 29.5C40.6663 29.5 42.0583 29.02 42.8143 29.02C43.2463 29.02 43.6423 29.32 43.5223 29.692C43.4263 29.992 42.9583 30.376 42.7183 30.544C42.1063 30.964 39.9463 31.492 39.2863 31.492C36.8143 31.492 35.6863 30.268 35.1583 28.78C34.9543 28.204 35.0263 27.316 35.2303 26.668C35.4823 25.912 36.1303 25.192 36.7303 24.532C36.9823 24.28 37.2223 23.98 37.4623 23.716C38.2663 22.84 39.7303 21.952 40.9063 21.952C41.5183 21.952 42.1543 22.108 42.5863 22.312C43.4263 22.648 44.3383 23.68 43.9903 24.76C43.9543 24.88 43.8823 25.096 43.7623 25.3C43.6303 25.492 43.3663 25.756 42.9343 25.756C42.6103 25.756 42.2023 25.372 42.1423 25.108C42.0943 25 42.1063 24.88 42.0703 24.784C42.0103 24.436 41.5183 23.896 41.1703 23.896C39.8023 23.896 37.7023 25.816 37.3063 27.052ZM45.3787 31.888C44.8387 31.888 44.5027 31.3 44.5987 30.808C44.6347 30.616 44.6947 30.448 44.7547 30.256C44.9707 29.596 45.2107 28.948 45.4267 28.288C45.7867 27.148 45.8707 25.996 46.2547 24.832C46.4347 24.292 46.6387 23.524 46.9027 23.02C47.0347 22.636 47.3827 22.156 47.8387 22.156C48.1507 22.156 48.2947 22.36 48.3667 22.504C48.7267 23.02 48.2947 24.028 48.0667 24.712C48.0187 24.88 47.9587 25.024 47.8987 25.192C47.8027 25.492 47.7427 25.792 47.6827 26.068C48.2587 25.66 48.8227 25.228 49.3387 24.76C49.8307 24.292 50.9707 23.284 51.6067 22.924C52.0387 22.66 52.9147 21.964 53.3467 21.964C53.7307 21.964 53.9227 22.228 53.9227 22.576C53.9587 22.852 53.9227 23.164 53.8747 23.32C53.7067 23.836 53.1787 24.172 52.7467 24.496C52.3507 24.796 51.9427 25.036 51.5467 25.336C51.0547 25.684 48.7027 27.664 48.5947 27.712C49.2067 28.24 50.9107 28.876 51.7027 29.056C52.1347 29.128 53.1667 29.284 53.1427 29.764C53.1427 29.848 53.1187 29.956 53.0827 30.064C52.8667 30.724 52.1107 30.928 51.4747 30.928C49.9387 30.928 47.9467 29.764 47.0347 28.816C46.8907 29.368 46.7227 29.944 46.5307 30.508C46.3747 30.988 46.0147 31.888 45.3787 31.888ZM57.3384 26.116C57.7344 26.068 58.0944 26.032 58.4784 26.032C59.2584 26.032 60.0264 26.068 60.7824 26.116C61.5504 26.176 62.4024 26.26 62.0904 27.244C61.8504 27.988 60.4584 27.928 59.9664 27.928C59.4504 27.928 58.9224 27.904 58.4064 27.904C58.0704 27.904 57.7104 27.904 57.3744 27.976C57.2304 27.988 57.0624 28.024 56.8704 28.048C56.7144 28.396 56.5464 28.744 56.4384 29.068C56.3904 29.224 56.3784 29.368 56.3304 29.524C56.5824 29.524 56.8584 29.476 57.1224 29.416C57.6504 29.332 58.1544 29.344 58.6824 29.26C59.5344 29.128 60.4704 29.092 61.2864 29.092C61.9824 29.092 62.0904 29.368 61.9464 29.8C61.8744 30.04 61.6824 30.388 61.3944 30.508C60.8064 30.772 59.8104 30.88 59.1864 31C58.9224 31.048 58.6824 31.108 58.4424 31.144C57.6864 31.276 56.6784 31.456 55.9584 31.456C54.8304 31.456 54.3744 30.46 54.5784 29.404C54.6864 28.972 54.8304 28.552 54.9744 28.132C55.1904 27.472 55.3104 26.824 55.5144 26.188C55.6584 25.756 55.7664 25.324 55.9104 24.88C56.0184 24.52 56.2104 24.172 56.3304 23.812C56.4384 23.476 56.5104 23.128 56.6544 22.804C56.9664 22.24 57.7344 22 58.2504 22C59.3184 22 60.3384 22.12 61.4064 22.156C61.9824 22.168 64.1784 22.48 63.9024 23.332C63.7704 23.716 63.3504 23.908 62.9904 23.98C61.9224 24.148 60.5184 24.184 59.4744 24.184C59.4504 24.184 58.4904 24.064 58.1664 24.136C57.8784 24.592 57.6384 25.192 57.4584 25.756L57.3384 26.116ZM64.9936 31.66C64.5616 31.66 64.2976 31.396 64.1896 31C63.9256 30.136 64.3216 27.976 64.6216 26.848C64.8256 26.152 64.9576 25.456 65.1016 24.76C65.1976 24.316 65.2816 23.824 65.4376 23.368C65.5576 22.984 65.9056 22.36 66.3736 22.24C66.4696 22.228 66.5776 22.204 66.6616 22.204C67.4416 22.204 67.4896 23.008 67.6576 23.56C67.7536 23.872 67.8856 24.556 68.0656 24.796C68.4736 25.456 68.9536 26.116 69.4216 26.764C69.6616 27.16 69.9496 27.52 70.2616 27.868C70.4056 27.988 70.5376 28.084 70.7176 28.12C71.0656 27.052 71.4256 25.984 71.7736 24.904C71.9056 24.484 72.3016 23.392 72.5896 22.984C72.8656 22.588 73.3696 22.192 73.8736 22.192C74.2216 22.192 74.2816 22.432 74.3056 22.708C74.1856 23.788 73.0696 26.728 72.6136 27.856C72.5896 27.928 72.5656 28.012 72.5416 28.084C72.2776 28.9 72.1216 29.728 71.8696 30.532C71.6776 31.132 71.2576 31.336 70.8376 31.336C70.4656 31.336 70.0816 31.18 69.8296 31C69.1936 30.424 68.6776 29.752 68.1616 29.068C67.8856 28.756 67.5976 28.36 67.3576 27.964C67.0696 27.496 66.8296 26.992 66.5296 26.536C66.4216 27.052 66.3496 27.556 66.2896 28.06C66.2296 28.792 66.1576 29.5 66.0136 30.232C65.9176 30.844 65.7736 31.66 64.9936 31.66ZM75.8972 29.668C77.1572 29.38 78.8012 28.48 79.6292 27.712C80.1212 27.268 81.0812 25.996 80.7332 25.48C80.0612 24.472 78.9092 23.872 77.4932 23.716C77.1332 24.412 76.9652 25.888 76.7012 26.704C76.4732 27.4 76.3052 28.096 76.1372 28.792C76.0532 29.092 75.9812 29.38 75.8972 29.668ZM75.8372 31.552C75.5492 31.648 75.0212 31.78 74.7932 31.78C74.2172 31.78 73.6532 31.072 73.8452 30.484C74.0012 29.992 74.0492 29.536 74.1932 29.068C74.6492 27.664 75.0092 26.236 75.3812 24.844C75.4652 24.52 75.5732 24.22 75.6692 23.896C75.8252 23.44 75.7292 23.02 75.8732 22.576C76.1252 21.808 76.7372 21.688 77.3732 21.688C77.8772 21.688 78.2972 21.808 78.6812 21.916C80.5652 22.42 83.3732 23.512 82.5092 26.152C82.3652 26.62 81.4532 28.012 80.4812 28.948C78.7172 30.616 77.2412 31.12 75.8372 31.552ZM82.0668 31.012C82.1868 30.616 82.9788 29.728 83.7468 29.728C84.2148 29.728 84.7428 29.956 84.5988 30.424C84.4428 30.892 83.8308 31.516 83.3388 31.732C83.1348 31.84 82.8588 31.888 82.6788 31.888C82.6668 31.888 82.6428 31.888 82.6308 31.888C82.2108 31.84 81.9108 31.492 82.0668 31.012ZM84.0948 28.708C83.7828 28.708 83.6388 28.516 83.5788 28.36C83.5188 28.216 83.5428 28.024 83.5908 27.868C83.6388 27.7 83.7468 27.508 83.8428 27.316C83.9268 27.148 84.0348 26.968 84.1308 26.776C84.3948 26.296 84.6948 25.648 85.0188 25C85.4148 24.256 86.6748 21.928 87.6468 21.928C87.7788 21.928 87.8868 21.964 87.9468 22C88.3068 22.156 88.5108 22.42 88.3788 22.828C88.2468 23.248 87.8508 23.68 87.5508 24.052C87.1788 24.484 86.8788 24.94 86.6028 25.408C86.3268 25.876 86.0628 26.344 85.7988 26.8C85.5348 27.28 85.2348 27.784 84.8748 28.24C84.6588 28.48 84.4068 28.708 84.0948 28.708ZM99.5515 23.644C99.8035 23.872 100.188 24.592 100.176 24.952C100.152 25.216 100.188 25.504 99.9355 25.648C99.8635 25.684 99.7915 25.708 99.7435 25.708C99.5875 25.708 99.4675 25.588 99.2755 25.456C99.0475 25.3 98.9515 25.132 98.8675 24.904C98.7475 24.652 98.5915 24.532 98.3635 24.34C98.1115 24.16 97.8595 23.968 97.5355 23.968C97.4755 23.968 97.4155 23.968 97.3555 23.98C96.2515 24.208 95.7835 24.7 95.2075 25.648C94.9075 26.116 94.6435 26.644 94.6795 27.196C94.6795 27.58 94.7875 28.012 95.0155 28.336C95.2555 28.684 95.4595 28.78 95.7955 29.068C96.2515 29.488 96.8995 29.584 97.5475 29.584C98.5315 29.584 99.5515 29.476 100.488 29.164C100.752 29.068 101.22 29.284 101.232 29.572C101.256 29.788 100.956 30.112 100.8 30.268C100.428 30.628 98.6035 31.072 98.0395 31.072C96.1555 31.072 94.7035 30.184 93.6715 28.636C93.3235 28.132 93.0955 27.232 93.1315 26.644C93.1675 25.996 93.5395 25.384 93.8635 24.832C94.1755 24.316 94.4035 23.752 94.8715 23.32C95.3275 22.924 96.0595 22.516 96.7195 22.504C97.2355 22.504 97.8115 22.648 98.2915 22.816C98.7715 22.984 99.1795 23.32 99.5515 23.644ZM103.836 24.316V24.988C103.86 25.564 103.776 25.792 103.812 26.356C103.812 26.536 103.896 26.884 103.86 27.052C104.052 26.956 104.34 26.884 104.472 26.884C104.784 26.884 107.1 26.008 107.448 25.84C107.7 25.696 108.528 25.336 108.42 25.06C108.192 24.376 106.308 24.076 105.588 24.076C105 24.076 104.616 24.22 103.836 24.316ZM109.74 29.524C109.86 29.632 110.124 29.8 109.932 30.136C109.752 30.448 108.684 30.64 108.3 30.64C107.928 30.64 107.496 30.496 107.148 30.388C106.608 30.244 104.352 28.972 103.932 28.636C103.896 29.212 103.92 29.728 103.932 30.292C103.956 30.496 103.968 30.964 103.86 31.156C103.788 31.288 103.716 31.336 103.62 31.336C103.536 31.336 103.452 31.3 103.344 31.264C102.888 31.072 102.804 30.652 102.804 30.328C102.828 30.004 102.924 29.488 102.924 29.176C102.912 28.408 102.804 27.652 102.756 26.86C102.72 26.416 102.684 25.984 102.684 25.504C102.684 25.072 102.408 24.292 102.384 23.86C102.372 23.584 102.324 23.308 102.6 23.116C103.056 22.816 104.976 22.624 105.492 22.624C105.792 22.624 106.08 22.648 106.38 22.708C107.256 22.9 108.336 23.128 108.864 23.824C109.2 24.244 109.404 24.448 109.512 24.94C109.692 25.612 109.212 26.224 108.684 26.608C107.856 27.196 107.22 27.628 105.78 28.06L105.312 28.204C105.66 28.396 106.032 28.624 106.164 28.66C106.332 28.72 107.148 29.092 108.336 29.212C109.524 29.332 109.62 29.44 109.74 29.524ZM112.679 24.952C112.607 25.456 112.631 25.852 112.631 26.356C112.631 26.392 112.631 26.416 112.631 26.452C112.907 26.416 113.111 26.356 113.387 26.344C113.927 26.308 114.455 26.344 114.971 26.38C115.619 26.416 116.411 26.38 117.011 26.608C117.179 26.668 117.287 26.86 117.323 27.052C117.359 27.244 117.383 27.388 117.251 27.508C116.975 27.736 116.699 27.712 116.351 27.736C115.535 27.772 114.683 27.7 113.831 27.736C113.495 27.736 113.303 27.808 112.979 27.856C112.919 27.856 112.859 27.868 112.787 27.892C112.715 28.216 112.571 29.26 112.763 29.572C112.907 29.608 113.039 29.596 113.183 29.596C113.411 29.596 113.495 29.536 113.723 29.5C114.191 29.416 114.623 29.44 115.091 29.344C115.475 29.284 115.823 29.248 116.207 29.224C116.519 29.212 116.783 29.224 117.095 29.212C117.371 29.176 117.875 29.176 117.947 29.44C118.019 29.752 117.947 30.112 117.767 30.196C117.479 30.376 116.327 30.544 115.967 30.616C115.511 30.724 115.091 30.844 114.647 30.844C114.155 30.844 113.663 31.048 113.183 31.048C112.739 31.048 112.223 30.76 111.971 30.388C111.779 30.148 111.563 29.608 111.539 29.32C111.479 28.744 111.539 28.168 111.503 27.592C111.467 27.16 111.431 26.728 111.431 26.296C111.431 25.648 111.347 24.976 111.443 24.34C111.515 23.932 111.311 23.08 111.635 22.828C111.971 22.588 112.259 22.504 112.667 22.552C113.135 22.612 114.455 22.696 115.427 22.708C115.751 22.708 118.235 23.008 117.767 23.812C117.599 24.1 117.107 24.088 116.855 24.1C116.483 24.124 116.087 24.136 115.715 24.148C115.091 24.184 114.611 24.244 113.987 24.22C113.699 24.22 113.435 24.136 113.159 24.136C112.883 24.136 112.811 24.148 112.763 24.448C112.727 24.604 112.703 24.784 112.679 24.952ZM121.38 27.16C122.04 27.04 122.772 27.004 123.444 27.004H123.564C123.408 26.572 123.24 26.152 123.024 25.732C122.82 25.336 122.604 24.916 122.436 24.52C122.412 24.472 122.4 24.436 122.388 24.376C122.088 24.784 121.848 25.636 121.692 26.104C121.584 26.452 121.488 26.8 121.38 27.16ZM125.796 30.148C125.808 30.424 125.868 31.228 125.34 31.12C124.836 31 124.872 30.544 124.716 30.184C124.536 29.752 124.392 29.296 124.248 28.84C124.2 28.672 124.068 28.516 124.02 28.36C123.948 28.36 123.66 28.396 123.6 28.396C123.216 28.396 123.06 28.42 122.7 28.48C122.316 28.54 121.932 28.54 121.548 28.588C121.356 28.612 121.152 28.72 120.948 28.756C120.876 29.188 120.684 29.572 120.576 29.992C120.516 30.196 120.432 30.412 120.384 30.652C120.336 30.844 120.264 31.048 120.012 31.072C119.784 31.072 119.28 31.156 119.148 30.256C118.968 29.176 119.652 27.976 119.928 26.932C120.192 26.272 120.348 25.504 120.576 24.832C120.672 24.568 120.756 24.328 120.864 24.064C121.08 23.596 121.296 22.744 121.728 22.468C121.884 22.384 122.316 22.648 122.496 22.744C122.664 22.816 123.096 23.284 123.168 23.476C123.252 23.704 123.384 23.908 123.504 24.136C124.488 25.96 124.68 26.992 125.292 28.396C125.532 28.936 125.724 29.56 125.796 30.148ZM132.545 24.064C132.449 24.124 132.305 24.136 132.161 24.136C131.441 24.136 130.721 24.124 130.001 24.076C130.145 25.096 129.797 26.284 129.893 27.268C129.953 27.904 129.941 28.564 130.001 29.212C130.025 29.476 130.085 29.716 130.157 29.944C130.229 30.184 130.325 30.316 130.229 30.58C130.145 30.808 129.953 31.024 129.689 31.024C129.461 31.024 129.329 30.82 129.233 30.604C128.981 29.992 128.921 29.332 128.849 28.684C128.753 27.928 128.825 26.992 128.789 26.224C128.765 25.876 128.765 25.096 128.705 24.772C128.657 24.544 128.609 24.28 128.585 24.04C127.877 24.028 127.361 24.04 126.701 24.22C126.557 24.268 126.377 24.292 126.209 24.292C126.005 24.292 125.813 24.244 125.669 24.112C125.369 23.824 125.321 23.14 125.549 22.996C125.717 22.888 125.849 22.852 126.029 22.828C126.317 22.804 126.557 22.636 126.833 22.612C127.205 22.576 127.577 22.576 127.949 22.6C128.813 22.636 129.665 22.696 130.517 22.756C130.865 22.78 132.053 22.876 132.269 23.176C132.377 23.332 132.713 23.968 132.545 24.064ZM134.043 29.644C134.031 29.44 133.995 29.248 133.971 29.032C133.971 28.564 133.935 28.12 133.923 27.652C133.899 26.668 133.803 25.72 133.815 24.76C133.839 24.292 133.731 23.836 133.731 23.368C133.743 23.092 133.683 22.888 133.851 22.648C133.947 22.516 134.043 22.468 134.139 22.468C134.511 22.468 134.775 22.972 134.859 23.272C134.967 23.596 134.931 23.968 134.979 24.316C135.003 24.4 135.135 27.304 135.135 27.388C135.135 27.664 135.195 27.94 135.195 28.24C135.207 28.528 135.195 28.828 135.219 29.104C135.315 29.716 135.411 30.448 135.099 30.988C135.051 31.084 134.931 31.12 134.811 31.12C134.703 31.12 134.595 31.096 134.499 31.048C133.971 30.832 134.079 30.04 134.043 29.644ZM138.724 31.228C138.724 31.228 138.592 31.324 138.412 31.324C138.28 31.324 138.112 31.264 137.944 31.084C137.764 30.892 137.068 28.252 137.02 26.92C136.972 25.576 136.6 23.752 136.744 23.392C136.864 23.008 136.912 22.804 137.092 22.768C137.284 22.732 137.44 22.744 137.692 22.9C137.956 23.056 138.736 24.676 139.144 25.096C139.516 25.504 141.568 27.556 142.132 27.988C142.516 28.3 142.96 28.312 143.008 28.312C143.02 28.312 143.032 25.456 143.032 25.096C143.032 24.724 143.068 23.716 143.2 23.332C143.344 22.96 143.692 22.66 144.028 22.744C144.184 22.804 144.28 23.176 144.268 23.644C144.268 24.124 144.268 27.268 144.208 27.832C144.16 28.432 144.364 30.304 144.304 30.568C144.184 31.036 143.836 30.928 143.62 30.928C142.96 30.916 141.484 29.368 140.872 28.864C140.272 28.36 138.328 26.224 138.112 25.852C138.112 25.852 138.292 27.46 138.448 28.084C138.604 28.72 138.796 29.644 138.844 30.1C138.892 30.532 138.988 31.072 138.724 31.228ZM154.444 27.304C154.276 27.544 153.832 27.556 153.448 27.592C153.4 27.592 153.208 27.664 153.16 27.664C153.388 28.18 153.796 29.224 153.352 29.728C152.968 30.184 152.788 30.424 152.284 30.652C151.732 30.928 150.304 31.096 149.644 31.096C149.296 31.096 148.948 31.048 148.6 30.916C147.88 30.664 147.34 30.184 146.752 29.692C146.428 29.44 146.26 29.14 146.032 28.828C145.492 28.012 145.3 26.884 145.564 25.924C145.948 24.652 146.272 24.472 146.8 23.824C147.424 23.116 147.844 22.816 148.756 22.552C148.96 22.504 149.164 22.468 149.356 22.468C149.764 22.468 150.16 22.576 150.532 22.804C150.712 22.924 151.156 23.152 151.312 23.272C151.576 23.488 151.936 24.064 151.936 24.436C151.924 24.712 151.84 24.88 151.624 24.976C151.492 25.024 151.348 25.072 151.216 25.072C151.096 25.072 151 25.036 150.904 24.94C150.712 24.712 150.616 24.472 150.412 24.256C150.136 23.98 149.824 23.86 149.5 23.86C148.384 23.86 147.388 25.348 146.992 26.236C146.656 26.956 146.62 27.556 147.004 28.252C147.184 28.588 147.46 28.792 147.724 29.056C148.036 29.38 148.36 29.536 148.792 29.608C148.972 29.632 149.14 29.644 149.32 29.668C149.548 29.668 149.752 29.644 149.956 29.644C150.328 29.608 151.192 29.476 151.528 29.368C151.756 29.248 151.936 29.056 152.08 28.756C152.188 28.48 152.32 28.18 152.224 27.892C152.2 27.832 152.164 27.784 152.128 27.712C152.032 27.736 151.936 27.748 151.84 27.772C151.42 27.856 151.156 27.952 150.796 28.048C150.58 28.084 150.208 28.168 149.908 28.168C149.788 28.168 149.68 28.156 149.596 28.12C149.176 27.94 148.744 27.124 149.14 26.992C149.392 26.896 149.704 26.884 149.956 26.812C150.292 26.728 150.616 26.644 150.964 26.608C151.6 26.536 151.66 26.392 152.284 26.356C152.596 26.344 155.068 26.272 154.444 27.304ZM166.951 24.064C166.855 24.124 166.711 24.136 166.567 24.136C165.847 24.136 165.127 24.124 164.407 24.076C164.551 25.096 164.203 26.284 164.299 27.268C164.359 27.904 164.347 28.564 164.407 29.212C164.431 29.476 164.491 29.716 164.563 29.944C164.635 30.184 164.731 30.316 164.635 30.58C164.551 30.808 164.359 31.024 164.095 31.024C163.867 31.024 163.735 30.82 163.639 30.604C163.387 29.992 163.327 29.332 163.255 28.684C163.159 27.928 163.231 26.992 163.195 26.224C163.171 25.876 163.171 25.096 163.111 24.772C163.063 24.544 163.015 24.28 162.991 24.04C162.283 24.028 161.767 24.04 161.107 24.22C160.963 24.268 160.783 24.292 160.615 24.292C160.411 24.292 160.219 24.244 160.075 24.112C159.775 23.824 159.727 23.14 159.955 22.996C160.123 22.888 160.255 22.852 160.435 22.828C160.723 22.804 160.963 22.636 161.239 22.612C161.611 22.576 161.983 22.576 162.355 22.6C163.219 22.636 164.071 22.696 164.923 22.756C165.271 22.78 166.459 22.876 166.675 23.176C166.783 23.332 167.119 23.968 166.951 24.064ZM173.802 31.396C173.766 31.408 173.742 31.408 173.706 31.408C173.514 31.408 173.298 31.276 173.202 31.144C173.058 30.952 173.046 30.664 172.974 30.448C172.77 29.716 172.794 29.056 172.746 28.288C172.23 28.324 171.702 28.336 171.162 28.372C170.562 28.408 170.022 28.552 169.434 28.708C169.458 29.092 169.47 29.344 169.434 29.728C169.41 30.076 169.41 30.424 169.374 30.76C169.326 31.048 169.218 31.3 168.882 31.3C168.426 31.3 168.27 30.52 168.27 30.184C168.27 29.332 168.198 28.492 168.138 27.664C168.126 27.232 168.162 26.824 168.198 26.392C168.246 26.032 168.234 25.648 168.294 25.288C168.366 24.832 168.45 24.364 168.558 23.908C168.666 23.548 168.678 23.116 169.05 22.888C169.11 22.852 169.182 22.828 169.242 22.828C169.422 22.828 169.602 22.948 169.686 23.08C169.83 23.308 169.758 23.644 169.71 23.896C169.614 24.328 169.602 24.76 169.566 25.216C169.554 25.756 169.518 26.044 169.458 26.608C169.446 26.764 169.434 26.92 169.434 27.076C169.494 27.052 169.566 27.04 169.638 27.016C170.622 26.812 171.69 26.776 172.698 26.776C172.674 26.452 172.674 26.14 172.674 25.816C172.674 25.324 172.698 25.06 172.734 24.568C172.77 24.124 172.77 23.668 172.818 23.212C172.854 22.972 172.866 22.708 173.01 22.504C173.094 22.36 173.334 22.108 173.55 22.168C173.754 22.264 173.754 22.612 173.802 22.768C173.946 23.2 173.91 23.62 173.934 24.064C173.946 24.376 173.934 24.724 173.934 25.036C173.91 25.66 173.922 26.296 173.946 26.92C173.994 27.892 174.066 28.864 174.066 29.824C174.066 30.16 174.066 30.508 174.102 30.844C174.114 31.036 174.018 31.312 173.802 31.396ZM176.793 24.952C176.721 25.456 176.745 25.852 176.745 26.356C176.745 26.392 176.745 26.416 176.745 26.452C177.021 26.416 177.225 26.356 177.501 26.344C178.041 26.308 178.569 26.344 179.085 26.38C179.733 26.416 180.525 26.38 181.125 26.608C181.293 26.668 181.401 26.86 181.437 27.052C181.473 27.244 181.497 27.388 181.365 27.508C181.089 27.736 180.812 27.712 180.465 27.736C179.649 27.772 178.797 27.7 177.945 27.736C177.609 27.736 177.417 27.808 177.093 27.856C177.033 27.856 176.973 27.868 176.901 27.892C176.829 28.216 176.685 29.26 176.877 29.572C177.021 29.608 177.153 29.596 177.297 29.596C177.525 29.596 177.609 29.536 177.837 29.5C178.305 29.416 178.737 29.44 179.205 29.344C179.589 29.284 179.937 29.248 180.321 29.224C180.633 29.212 180.897 29.224 181.209 29.212C181.485 29.176 181.989 29.176 182.061 29.44C182.133 29.752 182.061 30.112 181.881 30.196C181.592 30.376 180.441 30.544 180.081 30.616C179.625 30.724 179.205 30.844 178.761 30.844C178.269 30.844 177.777 31.048 177.297 31.048C176.853 31.048 176.337 30.76 176.085 30.388C175.893 30.148 175.677 29.608 175.653 29.32C175.593 28.744 175.653 28.168 175.617 27.592C175.581 27.16 175.545 26.728 175.545 26.296C175.545 25.648 175.461 24.976 175.557 24.34C175.629 23.932 175.425 23.08 175.749 22.828C176.085 22.588 176.373 22.504 176.781 22.552C177.249 22.612 178.569 22.696 179.541 22.708C179.865 22.708 182.349 23.008 181.881 23.812C181.713 24.1 181.221 24.088 180.969 24.1C180.597 24.124 180.201 24.136 179.829 24.148C179.205 24.184 178.725 24.244 178.101 24.22C177.812 24.22 177.549 24.136 177.273 24.136C176.997 24.136 176.925 24.148 176.877 24.448C176.841 24.604 176.817 24.784 176.793 24.952ZM16.936 43.04C16.888 42.428 16.804 41.816 16.768 41.192C16.744 40.772 16.696 40.364 16.696 39.956C16.696 39.644 16.792 38.408 17.224 38.408C17.476 38.408 17.896 38.876 18.028 39.068C18.136 39.224 18.208 39.404 18.316 39.548C18.448 39.716 18.58 39.848 18.688 39.992C19.276 40.832 20.044 41.696 20.8 42.356C21.04 41.576 21.508 40.844 21.892 40.112C22.12 39.668 22.684 38.864 23.008 38.516C23.056 38.468 23.128 38.444 23.212 38.444C23.452 38.444 23.776 38.636 23.956 38.768C24.736 39.32 24.496 41.468 24.484 41.996C24.46 42.992 24.604 43.988 24.52 44.984C24.496 45.368 24.496 45.764 24.448 46.136C24.412 46.436 24.412 46.832 24.136 47.024C24.076 47.072 24.028 47.084 23.98 47.084C23.824 47.084 23.716 46.892 23.608 46.724C23.44 46.46 23.488 46.016 23.452 45.716C23.368 45.02 23.368 44.288 23.404 43.58C23.404 43.208 23.368 42.836 23.356 42.464C23.32 42.14 23.404 41.372 23.32 40.964C23.092 41.156 22.516 42.284 22.396 42.56C22.24 42.884 22.204 43.064 22.048 43.376C21.868 43.736 21.748 44.024 21.556 44.276C21.472 44.384 21.376 44.432 21.28 44.432C21.148 44.432 21.004 44.336 20.86 44.18C20.428 43.724 19.888 43.352 19.48 42.848C19.252 42.584 18.988 42.332 18.76 42.068C18.604 41.876 18.28 41.432 18.064 41.252C18.136 42.356 18.172 43.472 18.34 44.576C18.4 45.02 18.436 45.584 18.508 46.016C18.556 46.292 18.664 46.7 18.508 46.976C18.376 47.204 18.268 47.3 18.16 47.3C18.064 47.3 17.968 47.24 17.86 47.12C17.404 46.64 17.332 45.92 17.2 45.32C17.044 44.576 16.972 43.808 16.936 43.04ZM26.2778 45.644C26.2658 45.44 26.2298 45.248 26.2058 45.032C26.2058 44.564 26.1698 44.12 26.1578 43.652C26.1338 42.668 26.0378 41.72 26.0498 40.76C26.0738 40.292 25.9658 39.836 25.9658 39.368C25.9778 39.092 25.9178 38.888 26.0858 38.648C26.1818 38.516 26.2778 38.468 26.3738 38.468C26.7458 38.468 27.0098 38.972 27.0938 39.272C27.2018 39.596 27.1658 39.968 27.2138 40.316C27.2378 40.4 27.3698 43.304 27.3698 43.388C27.3698 43.664 27.4298 43.94 27.4298 44.24C27.4418 44.528 27.4298 44.828 27.4538 45.104C27.5498 45.716 27.6458 46.448 27.3338 46.988C27.2858 47.084 27.1658 47.12 27.0458 47.12C26.9378 47.12 26.8298 47.096 26.7338 47.048C26.2058 46.832 26.3138 46.04 26.2778 45.644ZM35.8181 40.064C35.7221 40.124 35.5781 40.136 35.4341 40.136C34.7141 40.136 33.9941 40.124 33.2741 40.076C33.4181 41.096 33.0701 42.284 33.1661 43.268C33.2261 43.904 33.2141 44.564 33.2741 45.212C33.2981 45.476 33.3581 45.716 33.4301 45.944C33.5021 46.184 33.5981 46.316 33.5021 46.58C33.4181 46.808 33.2261 47.024 32.9621 47.024C32.7341 47.024 32.6021 46.82 32.5061 46.604C32.2541 45.992 32.1941 45.332 32.1221 44.684C32.0261 43.928 32.0981 42.992 32.0621 42.224C32.0381 41.876 32.0381 41.096 31.9781 40.772C31.9301 40.544 31.8821 40.28 31.8581 40.04C31.1501 40.028 30.6341 40.04 29.9741 40.22C29.8301 40.268 29.6501 40.292 29.4821 40.292C29.2781 40.292 29.0861 40.244 28.9421 40.112C28.6421 39.824 28.5941 39.14 28.8221 38.996C28.9901 38.888 29.1221 38.852 29.3021 38.828C29.5901 38.804 29.8301 38.636 30.1061 38.612C30.4781 38.576 30.8501 38.576 31.2221 38.6C32.0861 38.636 32.9381 38.696 33.7901 38.756C34.1381 38.78 35.3261 38.876 35.5421 39.176C35.6501 39.332 35.9861 39.968 35.8181 40.064ZM42.2451 44.6C42.5451 44.312 42.7611 43.868 42.7611 43.46C42.7611 42.992 42.2091 40.724 41.3211 40.64C41.0571 40.604 40.4571 40.532 40.2291 40.4C40.0851 40.316 40.0491 40.244 39.9291 40.28C39.7731 40.292 39.5811 40.448 39.4491 40.52C39.2691 40.604 39.1131 40.712 38.9451 40.82C38.3211 41.156 37.9851 41.6 37.5291 42.224C37.3491 42.488 37.1331 43.316 37.1571 43.652C37.1691 44.216 37.2171 44.708 37.7451 45.056C38.1411 45.32 39.2451 45.62 39.7611 45.62C40.1931 45.62 40.7811 45.512 41.1171 45.416C41.6331 45.284 41.9091 44.948 42.2451 44.6ZM43.4211 41.492C43.9251 42.464 44.1051 43.316 43.9131 44.408C43.6011 46.1 41.8851 47.156 40.2411 47.156C38.6331 47.156 36.3291 45.992 35.9691 44.312C35.6811 43.016 36.2331 41.336 37.0011 40.292C37.6491 39.392 38.7531 38.816 39.8571 38.816C41.0451 38.816 41.9691 39.416 42.7011 40.316C42.9771 40.676 43.2171 41.096 43.4211 41.492ZM51.2937 39.644C51.5457 39.872 51.9297 40.592 51.9177 40.952C51.8937 41.216 51.9297 41.504 51.6777 41.648C51.6057 41.684 51.5337 41.708 51.4857 41.708C51.3297 41.708 51.2097 41.588 51.0177 41.456C50.7897 41.3 50.6937 41.132 50.6097 40.904C50.4897 40.652 50.3337 40.532 50.1057 40.34C49.8537 40.16 49.6017 39.968 49.2777 39.968C49.2177 39.968 49.1577 39.968 49.0977 39.98C47.9937 40.208 47.5257 40.7 46.9497 41.648C46.6497 42.116 46.3857 42.644 46.4217 43.196C46.4217 43.58 46.5297 44.012 46.7577 44.336C46.9977 44.684 47.2017 44.78 47.5377 45.068C47.9937 45.488 48.6417 45.584 49.2897 45.584C50.2737 45.584 51.2937 45.476 52.2297 45.164C52.4937 45.068 52.9617 45.284 52.9737 45.572C52.9977 45.788 52.6977 46.112 52.5417 46.268C52.1697 46.628 50.3457 47.072 49.7817 47.072C47.8977 47.072 46.4457 46.184 45.4137 44.636C45.0657 44.132 44.8377 43.232 44.8737 42.644C44.9097 41.996 45.2817 41.384 45.6057 40.832C45.9177 40.316 46.1457 39.752 46.6137 39.32C47.0697 38.924 47.8017 38.516 48.4617 38.504C48.9777 38.504 49.5537 38.648 50.0337 38.816C50.5137 38.984 50.9217 39.32 51.2937 39.644ZM59.79 47.396C59.754 47.408 59.73 47.408 59.694 47.408C59.502 47.408 59.286 47.276 59.19 47.144C59.046 46.952 59.034 46.664 58.962 46.448C58.758 45.716 58.782 45.056 58.734 44.288C58.218 44.324 57.69 44.336 57.15 44.372C56.55 44.408 56.01 44.552 55.422 44.708C55.446 45.092 55.458 45.344 55.422 45.728C55.398 46.076 55.398 46.424 55.362 46.76C55.314 47.048 55.206 47.3 54.87 47.3C54.414 47.3 54.258 46.52 54.258 46.184C54.258 45.332 54.186 44.492 54.126 43.664C54.114 43.232 54.15 42.824 54.186 42.392C54.234 42.032 54.222 41.648 54.282 41.288C54.354 40.832 54.438 40.364 54.546 39.908C54.654 39.548 54.666 39.116 55.038 38.888C55.098 38.852 55.17 38.828 55.23 38.828C55.41 38.828 55.59 38.948 55.674 39.08C55.818 39.308 55.746 39.644 55.698 39.896C55.602 40.328 55.59 40.76 55.554 41.216C55.542 41.756 55.506 42.044 55.446 42.608C55.434 42.764 55.422 42.92 55.422 43.076C55.482 43.052 55.554 43.04 55.626 43.016C56.61 42.812 57.678 42.776 58.686 42.776C58.662 42.452 58.662 42.14 58.662 41.816C58.662 41.324 58.686 41.06 58.722 40.568C58.758 40.124 58.758 39.668 58.806 39.212C58.842 38.972 58.854 38.708 58.998 38.504C59.082 38.36 59.322 38.108 59.538 38.168C59.742 38.264 59.742 38.612 59.79 38.768C59.934 39.2 59.898 39.62 59.922 40.064C59.934 40.376 59.922 40.724 59.922 41.036C59.898 41.66 59.91 42.296 59.934 42.92C59.982 43.892 60.054 44.864 60.054 45.824C60.054 46.16 60.054 46.508 60.09 46.844C60.102 47.036 60.006 47.312 59.79 47.396ZM67.5928 44.6C67.8928 44.312 68.1088 43.868 68.1088 43.46C68.1088 42.992 67.5568 40.724 66.6688 40.64C66.4048 40.604 65.8048 40.532 65.5768 40.4C65.4328 40.316 65.3968 40.244 65.2768 40.28C65.1208 40.292 64.9288 40.448 64.7968 40.52C64.6168 40.604 64.4608 40.712 64.2928 40.82C63.6688 41.156 63.3328 41.6 62.8768 42.224C62.6968 42.488 62.4808 43.316 62.5048 43.652C62.5168 44.216 62.5648 44.708 63.0928 45.056C63.4888 45.32 64.5928 45.62 65.1088 45.62C65.5408 45.62 66.1288 45.512 66.4648 45.416C66.9808 45.284 67.2568 44.948 67.5928 44.6ZM68.7688 41.492C69.2728 42.464 69.4528 43.316 69.2608 44.408C68.9488 46.1 67.2328 47.156 65.5888 47.156C63.9808 47.156 61.6768 45.992 61.3168 44.312C61.0288 43.016 61.5808 41.336 62.3488 40.292C62.9968 39.392 64.1008 38.816 65.2048 38.816C66.3928 38.816 67.3168 39.416 68.0488 40.316C68.3248 40.676 68.5648 41.096 68.7688 41.492ZM72.4893 47.228C72.4893 47.228 72.3573 47.324 72.1773 47.324C72.0453 47.324 71.8773 47.264 71.7093 47.084C71.5293 46.892 70.8333 44.252 70.7853 42.92C70.7373 41.576 70.3653 39.752 70.5093 39.392C70.6293 39.008 70.6773 38.804 70.8573 38.768C71.0493 38.732 71.2053 38.744 71.4573 38.9C71.7213 39.056 72.5013 40.676 72.9093 41.096C73.2813 41.504 75.3333 43.556 75.8973 43.988C76.2813 44.3 76.7253 44.312 76.7733 44.312C76.7853 44.312 76.7973 41.456 76.7973 41.096C76.7973 40.724 76.8333 39.716 76.9653 39.332C77.1093 38.96 77.4573 38.66 77.7933 38.744C77.9493 38.804 78.0453 39.176 78.0333 39.644C78.0333 40.124 78.0333 43.268 77.9733 43.832C77.9253 44.432 78.1293 46.304 78.0693 46.568C77.9493 47.036 77.6013 46.928 77.3853 46.928C76.7253 46.916 75.2493 45.368 74.6373 44.864C74.0373 44.36 72.0933 42.224 71.8773 41.852C71.8773 41.852 72.0573 43.46 72.2133 44.084C72.3693 44.72 72.5613 45.644 72.6093 46.1C72.6573 46.532 72.7533 47.072 72.4893 47.228ZM84.4413 43.808C84.7173 43.424 85.0893 42.536 85.0533 42.068C85.0293 41.6 84.6453 41.372 84.2133 41.096C83.7933 40.82 83.3973 40.496 82.9173 40.316C82.5813 40.172 82.2213 40.064 81.8733 39.968C81.5613 39.86 81.1893 39.74 80.8413 39.752C80.8413 39.932 80.8293 40.088 80.8293 40.256C80.8293 41.096 80.9973 41.924 80.9973 42.764C80.9973 43.424 81.0693 44.06 81.1053 44.72C81.1173 45.068 81.1173 45.416 81.1533 45.764C82.2813 45.572 83.7453 44.708 84.4413 43.808ZM85.7253 40.868C85.9893 41.372 86.2893 41.96 86.1573 42.488C86.0973 42.896 85.4253 44.456 85.1853 44.78C84.2013 46.064 83.7333 46.484 82.1853 47.012C81.9693 47.084 81.2133 47.336 81.0093 47.336C80.8293 47.336 80.6613 47.252 80.5173 47.12C80.1453 46.808 79.9533 46.568 79.9773 46.376C79.9893 45.98 79.8933 45.38 79.8933 44.984C79.8933 43.664 79.7973 42.32 79.7133 41C79.7013 40.712 79.7013 40.412 79.7013 40.136C79.7013 39.908 79.6293 39.776 79.5573 39.428C79.5213 39.2 79.4253 38.924 79.5093 38.672C79.5813 38.432 79.6773 38.312 79.9293 38.276C80.0733 38.252 80.2293 38.252 80.3613 38.252C80.7693 38.252 81.1413 38.312 81.5613 38.432C82.1013 38.576 82.6533 38.732 83.1693 38.9C84.2253 39.32 85.2333 39.776 85.7253 40.868ZM88.7889 40.316V40.988C88.8129 41.564 88.7289 41.792 88.7649 42.356C88.7649 42.536 88.8489 42.884 88.8129 43.052C89.0049 42.956 89.2929 42.884 89.4249 42.884C89.7369 42.884 92.0529 42.008 92.4009 41.84C92.6529 41.696 93.4809 41.336 93.3729 41.06C93.1449 40.376 91.2609 40.076 90.5409 40.076C89.9529 40.076 89.5689 40.22 88.7889 40.316ZM94.6929 45.524C94.8129 45.632 95.0769 45.8 94.8849 46.136C94.7049 46.448 93.6369 46.64 93.2529 46.64C92.8809 46.64 92.4489 46.496 92.1009 46.388C91.5609 46.244 89.3049 44.972 88.8849 44.636C88.8489 45.212 88.8729 45.728 88.8849 46.292C88.9089 46.496 88.9209 46.964 88.8129 47.156C88.7409 47.288 88.6689 47.336 88.5729 47.336C88.4889 47.336 88.4049 47.3 88.2969 47.264C87.8409 47.072 87.7569 46.652 87.7569 46.328C87.7809 46.004 87.8769 45.488 87.8769 45.176C87.8649 44.408 87.7569 43.652 87.7089 42.86C87.6729 42.416 87.6369 41.984 87.6369 41.504C87.6369 41.072 87.3609 40.292 87.3369 39.86C87.3249 39.584 87.2769 39.308 87.5529 39.116C88.0089 38.816 89.9289 38.624 90.4449 38.624C90.7449 38.624 91.0329 38.648 91.3329 38.708C92.2089 38.9 93.2889 39.128 93.8169 39.824C94.1529 40.244 94.3569 40.448 94.4649 40.94C94.6449 41.612 94.1649 42.224 93.6369 42.608C92.8089 43.196 92.1729 43.628 90.7329 44.06L90.2649 44.204C90.6129 44.396 90.9849 44.624 91.1169 44.66C91.2849 44.72 92.1009 45.092 93.2889 45.212C94.4769 45.332 94.5729 45.44 94.6929 45.524ZM96.6723 45.644C96.6603 45.44 96.6243 45.248 96.6003 45.032C96.6003 44.564 96.5643 44.12 96.5523 43.652C96.5283 42.668 96.4323 41.72 96.4443 40.76C96.4683 40.292 96.3603 39.836 96.3603 39.368C96.3723 39.092 96.3123 38.888 96.4803 38.648C96.5763 38.516 96.6723 38.468 96.7683 38.468C97.1403 38.468 97.4043 38.972 97.4883 39.272C97.5963 39.596 97.5603 39.968 97.6083 40.316C97.6323 40.4 97.7643 43.304 97.7643 43.388C97.7643 43.664 97.8243 43.94 97.8243 44.24C97.8363 44.528 97.8243 44.828 97.8483 45.104C97.9443 45.716 98.0403 46.448 97.7283 46.988C97.6803 47.084 97.5603 47.12 97.4403 47.12C97.3323 47.12 97.2243 47.096 97.1283 47.048C96.6003 46.832 96.7083 46.04 96.6723 45.644ZM101.341 43.16C102.001 43.04 102.733 43.004 103.405 43.004H103.525C103.369 42.572 103.201 42.152 102.985 41.732C102.781 41.336 102.565 40.916 102.397 40.52C102.373 40.472 102.361 40.436 102.349 40.376C102.049 40.784 101.809 41.636 101.653 42.104C101.545 42.452 101.449 42.8 101.341 43.16ZM105.757 46.148C105.769 46.424 105.829 47.228 105.301 47.12C104.797 47 104.833 46.544 104.677 46.184C104.497 45.752 104.353 45.296 104.209 44.84C104.161 44.672 104.029 44.516 103.981 44.36C103.909 44.36 103.621 44.396 103.561 44.396C103.177 44.396 103.021 44.42 102.661 44.48C102.277 44.54 101.893 44.54 101.509 44.588C101.317 44.612 101.113 44.72 100.909 44.756C100.837 45.188 100.645 45.572 100.537 45.992C100.477 46.196 100.393 46.412 100.345 46.652C100.297 46.844 100.225 47.048 99.9726 47.072C99.7446 47.072 99.2406 47.156 99.1086 46.256C98.9286 45.176 99.6126 43.976 99.8886 42.932C100.153 42.272 100.309 41.504 100.537 40.832C100.633 40.568 100.717 40.328 100.825 40.064C101.041 39.596 101.257 38.744 101.689 38.468C101.845 38.384 102.277 38.648 102.457 38.744C102.625 38.816 103.057 39.284 103.129 39.476C103.213 39.704 103.345 39.908 103.465 40.136C104.449 41.96 104.641 42.992 105.253 44.396C105.493 44.936 105.685 45.56 105.757 46.148ZM117.386 44.6C117.686 44.312 117.902 43.868 117.902 43.46C117.902 42.992 117.35 40.724 116.462 40.64C116.198 40.604 115.598 40.532 115.37 40.4C115.226 40.316 115.19 40.244 115.07 40.28C114.914 40.292 114.722 40.448 114.59 40.52C114.41 40.604 114.254 40.712 114.086 40.82C113.462 41.156 113.126 41.6 112.67 42.224C112.49 42.488 112.274 43.316 112.298 43.652C112.31 44.216 112.358 44.708 112.886 45.056C113.282 45.32 114.386 45.62 114.902 45.62C115.334 45.62 115.922 45.512 116.258 45.416C116.774 45.284 117.05 44.948 117.386 44.6ZM118.562 41.492C119.066 42.464 119.246 43.316 119.054 44.408C118.742 46.1 117.026 47.156 115.382 47.156C113.774 47.156 111.47 45.992 111.11 44.312C110.822 43.016 111.374 41.336 112.142 40.292C112.79 39.392 113.894 38.816 114.998 38.816C116.186 38.816 117.11 39.416 117.842 40.316C118.118 40.676 118.358 41.096 118.562 41.492ZM120.662 45.056C120.662 44.828 120.554 44.084 120.578 43.748C120.602 43.436 120.578 43.148 120.59 42.584C120.602 42.008 120.434 41.156 120.446 40.784C120.482 40.4 120.206 39.212 120.29 38.936C120.386 38.66 120.95 38.432 121.718 38.504C122.762 38.6 123.782 38.684 124.814 38.684C125.126 38.684 125.438 38.684 125.762 38.66C126.074 38.66 126.458 38.864 126.59 39.044C126.71 39.236 126.614 39.668 126.518 39.74C126.05 40.052 124.73 40.1 124.19 40.1C123.518 40.1 122.846 39.956 122.21 40.016C122.018 40.04 121.802 40.124 121.802 40.124C121.802 40.124 121.718 41.504 121.718 41.816C121.718 42.032 121.718 42.32 121.766 42.536C121.766 42.536 122.462 42.452 123.122 42.392C123.77 42.344 125.018 42.32 125.294 42.356C125.582 42.392 125.798 42.512 125.906 42.608C126.014 42.668 126.086 43.28 125.942 43.352C125.822 43.436 125.426 43.628 125.246 43.664C125.078 43.712 124.274 43.82 123.89 43.832C123.506 43.832 122.138 43.988 121.994 44.024C121.862 44.084 121.838 45.56 121.874 46.004C121.898 46.16 121.982 46.88 121.742 47.036C121.682 47.072 121.61 47.084 121.526 47.084C121.262 47.084 120.938 46.916 120.89 46.568C120.83 46.1 120.674 45.56 120.662 45.056ZM138.569 39.548C138.389 39.86 137.297 41.66 137.237 41.804C137.057 42.152 136.949 42.344 136.793 42.644C136.421 43.364 135.665 45.8 135.545 46.568C135.521 46.7 135.437 47 135.257 47.12C135.185 47.18 135.101 47.204 135.029 47.204C134.813 47.204 134.585 47.036 134.465 46.808C134.273 46.484 134.345 45.692 134.357 45.56C134.381 45.26 134.537 44.396 134.897 43.496C134.741 43.328 134.585 43.172 134.465 43.052C134.129 42.728 132.125 40.088 131.957 39.512C131.873 39.2 131.921 38.888 132.113 38.852C132.149 38.852 132.185 38.84 132.221 38.84C132.425 38.84 132.701 38.924 132.833 39.092C132.965 39.284 133.745 40.412 133.889 40.592C134.225 41.072 134.849 42.032 135.293 42.296C135.293 42.296 135.557 41.6 135.665 41.408C135.749 41.216 136.577 39.68 136.733 39.428C136.889 39.176 137.105 39.02 137.225 38.924C137.297 38.852 137.693 38.672 137.885 38.66C138.065 38.66 138.317 38.888 138.389 38.936C138.461 38.972 138.725 39.236 138.569 39.548ZM145.136 44.6C145.436 44.312 145.652 43.868 145.652 43.46C145.652 42.992 145.1 40.724 144.212 40.64C143.948 40.604 143.348 40.532 143.12 40.4C142.976 40.316 142.94 40.244 142.82 40.28C142.664 40.292 142.472 40.448 142.34 40.52C142.16 40.604 142.004 40.712 141.836 40.82C141.212 41.156 140.876 41.6 140.42 42.224C140.24 42.488 140.024 43.316 140.048 43.652C140.06 44.216 140.108 44.708 140.636 45.056C141.032 45.32 142.136 45.62 142.652 45.62C143.084 45.62 143.672 45.512 144.008 45.416C144.524 45.284 144.8 44.948 145.136 44.6ZM146.312 41.492C146.816 42.464 146.996 43.316 146.804 44.408C146.492 46.1 144.776 47.156 143.132 47.156C141.524 47.156 139.22 45.992 138.86 44.312C138.572 43.016 139.124 41.336 139.892 40.292C140.54 39.392 141.644 38.816 142.748 38.816C143.936 38.816 144.86 39.416 145.592 40.316C145.868 40.676 146.108 41.096 146.312 41.492ZM154.856 39.992C154.892 40.76 154.856 41.54 154.796 42.308C154.772 42.692 154.784 43.052 154.76 43.436C154.748 43.748 154.688 44.048 154.724 44.372C154.772 44.948 154.796 45.764 154.676 46.34C154.616 46.592 154.4 46.844 154.124 46.844C153.848 46.844 153.656 46.352 153.536 45.848C153.128 46.256 151.832 46.556 150.968 46.556C150.236 46.556 149.804 46.244 149.228 45.824C148.76 45.476 148.436 44.84 148.256 44.276C148.052 43.556 148.004 42.728 148.028 41.984C148.04 41.6 148.088 41.228 148.16 40.868C148.244 40.292 148.184 39.164 148.916 39.008C149.192 38.96 149.408 39.212 149.456 39.464C149.528 39.752 149.408 40.064 149.372 40.34C149.324 40.796 149.3 41.288 149.3 41.732C149.3 42.26 149.324 42.8 149.372 43.328C149.492 44.456 149.6 44.984 150.932 44.984C151.616 44.984 152.636 44.78 153.248 44.528C153.32 44.516 153.368 44.48 153.44 44.444C153.44 43.676 153.56 42.896 153.608 42.14C153.644 41.564 153.692 40.952 153.68 40.376C153.68 39.776 153.5 38.768 154.196 38.612C154.268 38.588 154.34 38.576 154.412 38.576C154.556 38.576 154.664 38.648 154.7 38.864C154.76 39.008 154.856 39.86 154.856 39.992ZM157.742 40.316V40.988C157.766 41.564 157.682 41.792 157.718 42.356C157.718 42.536 157.802 42.884 157.766 43.052C157.958 42.956 158.246 42.884 158.378 42.884C158.69 42.884 161.006 42.008 161.354 41.84C161.606 41.696 162.434 41.336 162.326 41.06C162.098 40.376 160.214 40.076 159.494 40.076C158.906 40.076 158.522 40.22 157.742 40.316ZM163.646 45.524C163.766 45.632 164.03 45.8 163.838 46.136C163.658 46.448 162.59 46.64 162.206 46.64C161.834 46.64 161.402 46.496 161.054 46.388C160.514 46.244 158.258 44.972 157.838 44.636C157.802 45.212 157.826 45.728 157.838 46.292C157.862 46.496 157.874 46.964 157.766 47.156C157.694 47.288 157.622 47.336 157.526 47.336C157.442 47.336 157.358 47.3 157.25 47.264C156.794 47.072 156.71 46.652 156.71 46.328C156.734 46.004 156.83 45.488 156.83 45.176C156.818 44.408 156.71 43.652 156.662 42.86C156.626 42.416 156.59 41.984 156.59 41.504C156.59 41.072 156.314 40.292 156.29 39.86C156.278 39.584 156.23 39.308 156.506 39.116C156.962 38.816 158.882 38.624 159.398 38.624C159.698 38.624 159.986 38.648 160.286 38.708C161.162 38.9 162.242 39.128 162.77 39.824C163.106 40.244 163.31 40.448 163.418 40.94C163.598 41.612 163.118 42.224 162.59 42.608C161.762 43.196 161.126 43.628 159.686 44.06L159.218 44.204C159.566 44.396 159.938 44.624 160.07 44.66C160.238 44.72 161.054 45.092 162.242 45.212C163.43 45.332 163.526 45.44 163.646 45.524ZM170.344 43.58C170.188 42.86 170.032 42.14 169.84 41.444C169.72 40.952 169.216 40.052 169.54 39.56C169.66 39.38 169.78 39.32 169.912 39.32C170.212 39.32 170.5 39.704 170.584 40.064C170.728 40.652 170.86 41.264 170.98 41.852C171.28 43.124 171.568 43.988 171.988 45.188C172.264 44.564 172.648 44.012 172.924 43.388C173.068 43.04 173.452 41.696 173.884 41.132C173.932 41.072 173.992 41.048 174.064 41.048C174.34 41.048 174.724 41.42 174.928 41.732C175.204 42.188 175.288 42.644 175.516 43.148C175.756 43.748 176.104 44.588 176.404 45.164C176.56 44.36 176.872 43.436 177.052 42.644C177.256 41.732 177.412 40.784 177.568 39.872C177.664 39.392 177.796 38.624 178.216 38.624C178.516 38.624 179.08 39.152 179.116 39.404C179.152 39.74 179.068 40.136 179.032 40.412C178.912 41.852 178.504 43.244 178.144 44.636C177.952 45.344 177.556 47.12 176.752 47.072C176.608 47.048 176.056 46.76 175.888 46.604C175.504 46.268 175.276 45.608 175.072 45.128C174.856 44.66 174.46 44.048 174.388 43.52C174.064 44.396 173.572 45.296 173.212 46.16C173.032 46.616 172.732 47.3 172.216 47.24C171.76 47.204 171.388 46.46 171.16 46.076C170.728 45.332 170.536 44.48 170.344 43.58ZM181.539 40.952C181.467 41.456 181.491 41.852 181.491 42.356C181.491 42.392 181.491 42.416 181.491 42.452C181.767 42.416 181.971 42.356 182.247 42.344C182.787 42.308 183.315 42.344 183.831 42.38C184.479 42.416 185.271 42.38 185.871 42.608C186.039 42.668 186.147 42.86 186.183 43.052C186.219 43.244 186.243 43.388 186.111 43.508C185.835 43.736 185.559 43.712 185.211 43.736C184.395 43.772 183.543 43.7 182.691 43.736C182.355 43.736 182.163 43.808 181.839 43.856C181.779 43.856 181.719 43.868 181.647 43.892C181.575 44.216 181.431 45.26 181.623 45.572C181.767 45.608 181.899 45.596 182.043 45.596C182.271 45.596 182.355 45.536 182.583 45.5C183.051 45.416 183.483 45.44 183.951 45.344C184.335 45.284 184.683 45.248 185.067 45.224C185.379 45.212 185.643 45.224 185.955 45.212C186.231 45.176 186.735 45.176 186.807 45.44C186.879 45.752 186.807 46.112 186.627 46.196C186.339 46.376 185.187 46.544 184.827 46.616C184.371 46.724 183.951 46.844 183.507 46.844C183.015 46.844 182.523 47.048 182.043 47.048C181.599 47.048 181.083 46.76 180.831 46.388C180.639 46.148 180.423 45.608 180.399 45.32C180.339 44.744 180.399 44.168 180.363 43.592C180.327 43.16 180.291 42.728 180.291 42.296C180.291 41.648 180.207 40.976 180.303 40.34C180.375 39.932 180.171 39.08 180.495 38.828C180.831 38.588 181.119 38.504 181.527 38.552C181.995 38.612 183.315 38.696 184.287 38.708C184.611 38.708 187.095 39.008 186.627 39.812C186.459 40.1 185.967 40.088 185.715 40.1C185.343 40.124 184.947 40.136 184.575 40.148C183.951 40.184 183.471 40.244 182.847 40.22C182.559 40.22 182.295 40.136 182.019 40.136C181.743 40.136 181.671 40.148 181.623 40.448C181.587 40.604 181.563 40.784 181.539 40.952ZM193.719 45.02C194.067 44.828 194.511 44.636 194.667 44.252C194.415 44.06 194.055 43.988 193.755 43.928C193.395 43.832 193.047 43.784 192.687 43.808C192.123 43.808 191.679 43.868 191.115 43.868H191.079C190.995 43.868 190.923 43.892 190.839 43.928C190.599 43.988 190.359 44.048 190.095 44.06C190.035 44.072 189.915 44.096 189.807 44.096C189.711 44.096 189.615 44.072 189.567 44.024C189.567 44.444 189.699 44.984 189.831 45.38C189.867 45.524 189.867 45.668 189.903 45.8C190.167 45.764 190.455 45.764 190.731 45.752C191.139 45.728 191.607 45.644 192.003 45.536C192.555 45.368 193.203 45.32 193.719 45.02ZM189.483 40.28C189.543 40.712 189.543 41.804 189.519 42.236C189.519 42.416 189.543 42.5 189.567 42.668C189.759 42.608 189.915 42.608 190.131 42.572C190.383 42.536 190.635 42.488 190.875 42.452C191.379 42.38 191.883 42.272 192.351 42.08C192.771 41.924 194.043 41.144 193.971 40.592C193.947 40.496 193.431 40.1 193.047 39.992C192.531 39.86 192.075 39.824 191.535 39.824C191.211 39.824 190.803 39.944 190.479 40.016C190.179 40.064 189.747 40.1 189.483 40.28ZM195.411 43.46C196.059 43.94 196.071 45.104 195.519 45.608C195.171 45.908 194.859 46.148 194.439 46.34C193.983 46.532 193.539 46.724 193.059 46.844C192.039 47.096 191.019 47.204 189.975 47.204C189.687 47.204 189.339 47.192 189.171 46.916C189.015 46.664 188.787 46.1 188.715 45.824C188.655 45.5 188.655 45.176 188.619 44.84C188.583 44.516 188.523 44.18 188.511 43.856C188.463 43.052 188.451 42.26 188.427 41.444C188.415 41.036 188.283 40.316 188.271 39.908C188.271 39.584 188.127 39.164 188.475 38.984C189.339 38.576 190.611 38.372 191.547 38.372C191.811 38.372 192.075 38.396 192.339 38.42C193.203 38.504 194.511 39.236 194.991 40.016C195.171 40.316 195.339 40.604 195.231 40.976C195.075 41.804 194.211 42.428 193.515 42.8C194.175 42.8 194.859 43.04 195.411 43.46ZM18.7 59.16C19.36 59.04 20.092 59.004 20.764 59.004H20.884C20.728 58.572 20.56 58.152 20.344 57.732C20.14 57.336 19.924 56.916 19.756 56.52C19.732 56.472 19.72 56.436 19.708 56.376C19.408 56.784 19.168 57.636 19.012 58.104C18.904 58.452 18.808 58.8 18.7 59.16ZM23.116 62.148C23.128 62.424 23.188 63.228 22.66 63.12C22.156 63 22.192 62.544 22.036 62.184C21.856 61.752 21.712 61.296 21.568 60.84C21.52 60.672 21.388 60.516 21.34 60.36C21.268 60.36 20.98 60.396 20.92 60.396C20.536 60.396 20.38 60.42 20.02 60.48C19.636 60.54 19.252 60.54 18.868 60.588C18.676 60.612 18.472 60.72 18.268 60.756C18.196 61.188 18.004 61.572 17.896 61.992C17.836 62.196 17.752 62.412 17.704 62.652C17.656 62.844 17.584 63.048 17.332 63.072C17.104 63.072 16.6 63.156 16.468 62.256C16.288 61.176 16.972 59.976 17.248 58.932C17.512 58.272 17.668 57.504 17.896 56.832C17.992 56.568 18.076 56.328 18.184 56.064C18.4 55.596 18.616 54.744 19.048 54.468C19.204 54.384 19.636 54.648 19.816 54.744C19.984 54.816 20.416 55.284 20.488 55.476C20.572 55.704 20.704 55.908 20.824 56.136C21.808 57.96 22 58.992 22.612 60.396C22.852 60.936 23.044 61.56 23.116 62.148ZM28.9826 58.14C29.2946 57.984 30.1226 57 30.1226 57C30.1226 57 29.9546 56.712 29.7266 56.592C29.3666 56.376 28.0946 56.124 27.6026 56.124C26.7026 56.124 25.5866 56.448 25.5866 56.448C25.7306 57.096 25.5626 58.8 25.5626 58.8C25.6946 58.824 25.8266 58.836 25.9826 58.836C27.0746 58.836 28.7066 58.272 28.9826 58.14ZM31.2506 56.82C31.4306 58.08 29.4266 59.58 28.5506 59.856C27.8546 60.072 26.9306 60.276 26.2346 60.276C26.0306 60.276 25.8386 60.264 25.6826 60.216C25.6826 60.216 25.5746 61.212 25.6586 61.416C25.8026 61.8 25.8746 62.508 25.7786 62.796C25.7306 62.952 25.6586 63.288 25.3466 63.288C24.7706 63.288 24.6626 62.676 24.6026 62.232C24.5666 61.992 24.4226 60.672 24.4226 60.024C24.4466 59.388 24.4226 57.66 24.4106 57.264C24.3746 56.868 24.1706 55.908 24.3026 55.464C24.4226 55.008 25.0826 54.888 25.4546 54.852C25.6946 54.816 26.5346 54.66 27.3746 54.66C27.8066 54.66 28.2266 54.708 28.5746 54.828C29.5826 55.2 31.0946 55.548 31.2506 56.82ZM37.1154 58.14C37.4274 57.984 38.2554 57 38.2554 57C38.2554 57 38.0874 56.712 37.8594 56.592C37.4994 56.376 36.2274 56.124 35.7354 56.124C34.8354 56.124 33.7194 56.448 33.7194 56.448C33.8634 57.096 33.6954 58.8 33.6954 58.8C33.8274 58.824 33.9594 58.836 34.1154 58.836C35.2074 58.836 36.8394 58.272 37.1154 58.14ZM39.3834 56.82C39.5634 58.08 37.5594 59.58 36.6834 59.856C35.9874 60.072 35.0634 60.276 34.3674 60.276C34.1634 60.276 33.9714 60.264 33.8154 60.216C33.8154 60.216 33.7074 61.212 33.7914 61.416C33.9354 61.8 34.0074 62.508 33.9114 62.796C33.8634 62.952 33.7914 63.288 33.4794 63.288C32.9034 63.288 32.7954 62.676 32.7354 62.232C32.6994 61.992 32.5554 60.672 32.5554 60.024C32.5794 59.388 32.5554 57.66 32.5434 57.264C32.5074 56.868 32.3034 55.908 32.4354 55.464C32.5554 55.008 33.2154 54.888 33.5874 54.852C33.8274 54.816 34.6674 54.66 35.5074 54.66C35.9394 54.66 36.3594 54.708 36.7074 54.828C37.7154 55.2 39.2274 55.548 39.3834 56.82ZM39.3034 61.752C39.3154 61.884 39.2674 62.604 39.0754 62.832C38.8954 63.048 38.4514 63.348 38.1514 63.36C37.8754 63.36 37.6114 62.88 37.7674 62.46C37.9114 62.028 38.1514 61.632 38.6074 61.5C38.7274 61.476 39.2794 61.608 39.3034 61.752Z" fill="black"/>
<defs>
<filter id="filter0_d_14_30" x="-1.52588e-05" y="0" width="222" height="100" filterUnits="userSpaceOnUse" color-interpolation-filters="sRGB">
<feFlood flood-opacity="0" result="BackgroundImageFix"/>
<feColorMatrix in="SourceAlpha" type="matrix" values="0 0 0 0 0 0 0 0 0 0 0 0 0 0 0 0 0 0 127 0" result="hardAlpha"/>
<feOffset dy="4"/>
<feComposite in2="hardAlpha" operator="out"/>
<feColorMatrix type="matrix" values="0 0 0 0 0 0 0 0 0 0 0 0 0 0 0 0 0 0 1 0"/>
<feBlend mode="normal" in2="BackgroundImageFix" result="effect1_dropShadow_14_30"/>
<feBlend mode="normal" in="SourceGraphic" in2="effect1_dropShadow_14_30" result="shape"/>
</filter>
</defs>
</svg>
