<?xml version="1.0" encoding="UTF-8" standalone="no"?>
<svg
   width="183"
   height="29"
   viewBox="0 0 183 29"
   fill="none"
   version="1.1"
   id="svg3"
   sodipodi:docname="Tuesday.svg"
   inkscape:version="1.3.2 (091e20ef0f, 2023-11-25)"
   xmlns:inkscape="http://www.inkscape.org/namespaces/inkscape"
   xmlns:sodipodi="http://sodipodi.sourceforge.net/DTD/sodipodi-0.dtd"
   xmlns="http://www.w3.org/2000/svg"
   xmlns:svg="http://www.w3.org/2000/svg">
  <defs
     id="defs3" />
  <sodipodi:namedview
     id="namedview3"
     pagecolor="#ffffff"
     bordercolor="#000000"
     borderopacity="0.25"
     inkscape:showpageshadow="2"
     inkscape:pageopacity="0.0"
     inkscape:pagecheckerboard="0"
     inkscape:deskcolor="#d1d1d1"
     inkscape:zoom="10.065"
     inkscape:cx="100"
     inkscape:cy="28.017884"
     inkscape:window-width="2560"
     inkscape:window-height="1368"
     inkscape:window-x="1920"
     inkscape:window-y="0"
     inkscape:window-maximized="1"
     inkscape:current-layer="svg3" />
  <mask
     id="path-1-inside-1_3_18"
     fill="#ffffff">
    <path
       d="m 5.995,19.5 h 20.51 c 0.2567,0 0.4783,0.0933 0.665,0.28 0.1867,0.1867 0.28,0.4083 0.28,0.665 v 5.635 c 0,0.2567 -0.0933,0.4783 -0.28,0.665 -0.1867,0.1867 -0.4083,0.28 -0.665,0.28 h -5.81 v 16.03 c 0,0.2567 -0.0933,0.4783 -0.28,0.665 C 20.2283,43.9067 20.0067,44 19.75,44 h -7 c -0.2567,0 -0.4783,-0.0933 -0.665,-0.28 -0.1867,-0.1867 -0.28,-0.4083 -0.28,-0.665 V 27.025 H 5.995 C 5.73833,27.025 5.51667,26.9317 5.33,26.745 5.14333,26.5583 5.05,26.3367 5.05,26.08 v -5.635 c 0,-0.2567 0.09333,-0.4783 0.28,-0.665 0.18667,-0.1867 0.40833,-0.28 0.665,-0.28 z m 39.3118,0 h 6.86 c 0.2567,0 0.4784,0.0933 0.665,0.28 0.1867,0.1867 0.28,0.4083 0.28,0.665 v 14.07 c 0,3.2667 -1.015,5.7283 -3.045,7.385 -2.03,1.6333 -4.795,2.45 -8.295,2.45 -3.4766,0 -6.2416,-0.8167 -8.295,-2.45 -2.03,-1.6333 -3.045,-4.095 -3.045,-7.385 v -14.07 c 0,-0.2567 0.0934,-0.4783 0.28,-0.665 0.1867,-0.1867 0.4084,-0.28 0.665,-0.28 h 6.86 c 0.2567,0 0.4784,0.0933 0.665,0.28 0.1867,0.1867 0.28,0.4083 0.28,0.665 V 34.62 c 0,1.7967 0.8634,2.695 2.59,2.695 1.7267,0 2.59,-0.8983 2.59,-2.695 V 20.445 c 0,-0.2567 0.0934,-0.4783 0.28,-0.665 0.1867,-0.1867 0.4084,-0.28 0.665,-0.28 z m 20.3985,17.675 h 10.78 c 0.2566,0 0.4783,0.0933 0.665,0.28 0.1866,0.1867 0.28,0.4083 0.28,0.665 v 4.935 c 0,0.2567 -0.0934,0.4783 -0.28,0.665 -0.1867,0.1867 -0.4084,0.28 -0.665,0.28 h -18.235 c -0.2567,0 -0.4784,-0.0933 -0.665,-0.28 -0.1867,-0.1867 -0.28,-0.4083 -0.28,-0.665 v -22.61 c 0,-0.2567 0.0933,-0.4783 0.28,-0.665 0.1866,-0.1867 0.4083,-0.28 0.665,-0.28 h 17.955 c 0.2566,0 0.4783,0.0933 0.665,0.28 0.1866,0.1867 0.28,0.4083 0.28,0.665 v 4.935 c 0,0.2567 -0.0934,0.4783 -0.28,0.665 -0.1867,0.1867 -0.4084,0.28 -0.665,0.28 h -10.5 v 2.205 h 9.73 c 0.2566,0 0.4783,0.0933 0.665,0.28 0.1866,0.1867 0.28,0.4083 0.28,0.665 v 4.55 c 0,0.2567 -0.0934,0.4783 -0.28,0.665 -0.1867,0.1867 -0.4084,0.28 -0.665,0.28 h -9.73 z M 81.0112,27.2 c 0,-2.38 0.98,-4.3167 2.94,-5.81 1.9833,-1.4933 4.5733,-2.24 7.77,-2.24 3.22,0 5.845,0.7817 7.875,2.345 2.0538,1.5633 3.0798,3.1967 3.0798,4.9 0,0.21 -0.081,0.3967 -0.245,0.56 -0.14,0.14 -0.303,0.21 -0.49,0.21 h -6.9998 c -0.5367,0 -1.0267,-0.1983 -1.47,-0.595 -0.4433,-0.3967 -1.0383,-0.595 -1.785,-0.595 -1.12,0 -1.68,0.3267 -1.68,0.98 0,0.35 0.2683,0.6417 0.805,0.875 0.56,0.2333 1.5867,0.4433 3.08,0.63 3.4767,0.4433 5.95,1.26 7.4198,2.45 1.494,1.1667 2.24,2.9517 2.24,5.355 0,2.38 -1.096,4.3283 -3.29,5.845 -2.1698,1.4933 -5.0165,2.24 -8.5398,2.24 -3.5233,0 -6.2883,-0.7233 -8.295,-2.17 -2.0067,-1.4467 -3.01,-3.2083 -3.01,-5.285 0,-0.21 0.07,-0.385 0.21,-0.525 0.1633,-0.1633 0.35,-0.245 0.56,-0.245 h 6.65 c 0.49,0 1.0267,0.2333 1.61,0.7 0.6067,0.4667 1.435,0.7 2.485,0.7 1.75,0 2.625,-0.3267 2.625,-0.98 0,-0.42 -0.315,-0.735 -0.945,-0.945 -0.63,-0.2333 -1.82,-0.4667 -3.57,-0.7 -6.02,-0.7933 -9.03,-3.36 -9.03,-7.7 z m 26.7998,-7.7 h 10.08 c 3.406,0 6.206,0.8517 8.4,2.555 2.216,1.68 3.325,4.0367 3.325,7.07 v 5.215 c 0,3.1733 -1.074,5.5767 -3.22,7.21 -2.147,1.6333 -4.97,2.45 -8.47,2.45 h -10.115 c -0.257,0 -0.479,-0.0933 -0.665,-0.28 -0.187,-0.1867 -0.28,-0.4083 -0.28,-0.665 v -22.61 c 0,-0.2567 0.093,-0.4783 0.28,-0.665 0.186,-0.1867 0.408,-0.28 0.665,-0.28 z m 7.805,6.825 v 10.85 h 2.275 c 0.793,0 1.423,-0.2333 1.89,-0.7 0.49,-0.49 0.735,-1.2017 0.735,-2.135 v -5.215 c 0,-1.8667 -0.875,-2.8 -2.625,-2.8 z M 141.123,19.5 h 7.595 c 0.84,0 1.365,0.385 1.575,1.155 l 7.805,22.33 c 0.023,0.07 0.035,0.1867 0.035,0.35 0,0.14 -0.082,0.2917 -0.245,0.455 -0.14,0.14 -0.315,0.21 -0.525,0.21 h -6.475 c -0.7,0 -1.155,-0.2917 -1.365,-0.875 l -0.84,-2.31 h -7.525 l -0.84,2.31 C 140.108,43.7083 139.653,44 138.953,44 h -6.475 c -0.21,0 -0.397,-0.07 -0.56,-0.21 -0.14,-0.1633 -0.21,-0.315 -0.21,-0.455 0,-0.1633 0.011,-0.28 0.035,-0.35 l 7.805,-22.33 c 0.21,-0.77 0.735,-1.155 1.575,-1.155 z m 1.82,14.49 h 3.955 l -1.995,-6.51 z M 174.763,44 h -6.86 c -0.257,0 -0.478,-0.0933 -0.665,-0.28 -0.187,-0.1867 -0.28,-0.4083 -0.28,-0.665 V 36.16 l -7.875,-15.575 c -0.047,-0.0933 -0.07,-0.2217 -0.07,-0.385 0,-0.1633 0.07,-0.315 0.21,-0.455 0.163,-0.1633 0.35,-0.245 0.56,-0.245 h 6.58 c 0.7,0 1.19,0.2917 1.47,0.875 l 3.5,7.035 3.5,-7.035 c 0.28,-0.5833 0.77,-0.875 1.47,-0.875 h 6.58 c 0.21,0 0.385,0.0817 0.525,0.245 0.163,0.14 0.245,0.2917 0.245,0.455 0,0.1633 -0.023,0.2917 -0.07,0.385 l -7.875,15.575 v 6.895 c 0,0.2567 -0.093,0.4783 -0.28,0.665 -0.187,0.1867 -0.408,0.28 -0.665,0.28 z"
       id="path1" />
  </mask>
  <path
     d="m 27.17,19.78 0.7071,-0.7071 v 0 z m 0,6.965 0.7071,0.7071 v 0 z m -6.475,0.28 v -1 h -1 v 1 z m -0.28,16.695 -0.7071,-0.7071 v 0 z m -8.61,-16.695 h 1 v -1 h -1 z M 5.995,20.5 h 20.51 v -2 H 5.995 Z m 20.51,0 c 0.0033,0 0.001,3e-4 -0.0056,-0.001 -0.0067,-0.0013 -0.015,-0.0037 -0.0237,-0.0074 -0.0087,-0.0036 -0.0147,-0.0073 -0.0178,-0.0094 -0.0029,-0.002 -0.0011,-0.0011 0.005,0.0049 l 1.4142,-1.4142 C 27.5089,18.7047 27.0352,18.5 26.505,18.5 Z m -0.0421,-0.0129 c 0.006,0.006 0.0069,0.0079 0.0049,0.005 C 26.4657,20.489 26.462,20.483 26.4584,20.4743 26.4547,20.4656 26.4523,20.4573 26.451,20.4506 26.4497,20.444 26.45,20.4417 26.45,20.445 h 2 c 0,-0.5302 -0.2047,-1.0039 -0.5729,-1.3721 z M 26.45,20.445 v 5.635 h 2 v -5.635 z m 0,5.635 c 0,0.0033 -3e-4,0.001 0.001,-0.0056 0.0013,-0.0067 0.0037,-0.015 0.0074,-0.0237 0.0036,-0.0087 0.0073,-0.0147 0.0094,-0.0178 0.002,-0.0029 0.0011,-0.0011 -0.0049,0.005 l 1.4142,1.4142 C 28.2453,27.0839 28.45,26.6102 28.45,26.08 Z m 0.0129,-0.0421 c -0.0061,0.006 -0.0079,0.0069 -0.005,0.0049 0.0031,-0.0021 0.0091,-0.0058 0.0178,-0.0094 0.0087,-0.0037 0.017,-0.0061 0.0237,-0.0074 0.0066,-0.0013 0.0089,-0.001 0.0056,-0.001 v 2 c 0.5302,0 1.0039,-0.2047 1.3721,-0.5729 z M 26.505,26.025 h -5.81 v 2 h 5.81 z m -6.81,1 v 16.03 h 2 v -16.03 z m 0,16.03 c 0,0.0033 -3e-4,10e-4 0.001,-0.0056 0.0013,-0.0067 0.0037,-0.015 0.0074,-0.0237 0.0036,-0.0087 0.0073,-0.0147 0.0094,-0.0178 0.002,-0.0029 0.0011,-0.0011 -0.0049,0.005 l 1.4142,1.4142 c 0.3682,-0.3682 0.5729,-0.8419 0.5729,-1.3721 z m 0.0129,-0.0421 c -0.0061,0.006 -0.0079,0.0069 -0.005,0.0049 0.0031,-0.0021 0.0091,-0.0058 0.0178,-0.0094 0.0087,-0.0037 0.017,-0.0061 0.0237,-0.0074 C 19.751,42.9997 19.7533,43 19.75,43 v 2 c 0.5302,0 1.0039,-0.2047 1.3721,-0.5729 z M 19.75,43 h -7 v 2 h 7 z m -7,0 c -0.0033,0 -10e-4,-3e-4 0.0056,10e-4 0.0067,0.0013 0.015,0.0037 0.0237,0.0074 0.0087,0.0036 0.0147,0.0073 0.0178,0.0094 0.0029,0.002 0.0011,0.0011 -0.005,-0.0049 l -1.4142,1.4142 C 11.7461,44.7953 12.2198,45 12.75,45 Z m 0.0421,0.0129 c -0.006,-0.0061 -0.0069,-0.0079 -0.0049,-0.005 0.0021,0.0031 0.0058,0.0091 0.0094,0.0178 0.0037,0.0087 0.0061,0.017 0.0074,0.0237 0.0013,0.0066 10e-4,0.0089 10e-4,0.0056 h -2 c 0,0.5302 0.2047,1.0039 0.5729,1.3721 z m 0.0129,0.0421 v -16.03 h -2 v 16.03 z m -1,-17.03 h -5.81 v 2 h 5.81 z m -5.81,0 c -0.00329,0 -9.8e-4,-3e-4 0.00557,0.001 0.00672,0.0013 0.01504,0.0037 0.02374,0.0074 0.00866,0.0036 0.01472,0.0073 0.01778,0.0094 0.00289,0.002 0.00106,0.0011 -0.00498,-0.0049 L 4.62289,27.4521 C 4.99111,27.8203 5.46477,28.025 5.995,28.025 Z m 0.04211,0.0129 C 6.03106,26.0318 6.03025,26.03 6.03223,26.0329 c 0.0021,0.0031 0.00576,0.0091 0.00941,0.0178 0.00366,0.0087 0.00604,0.017 0.00735,0.0237 C 6.05027,26.081 6.05,26.0833 6.05,26.08 h -2 c 0,0.5302 0.20468,1.0039 0.57289,1.3721 z M 6.05,26.08 v -5.635 h -2 v 5.635 z m 0,-5.635 c 0,-0.0033 2.7e-4,-0.001 -0.00101,0.0056 C 6.04768,20.4573 6.0453,20.4656 6.04164,20.4743 6.03799,20.483 6.03433,20.489 6.03223,20.4921 6.03025,20.495 6.03106,20.4932 6.03711,20.4871 L 4.62289,19.0729 C 4.25468,19.4411 4.05,19.9148 4.05,20.445 Z M 6.03711,20.4871 C 6.04315,20.4811 6.04498,20.4802 6.04209,20.4822 6.03903,20.4843 6.03297,20.488 6.02431,20.4916 6.01561,20.4953 6.00729,20.4977 6.00057,20.499 5.99402,20.5003 5.99171,20.5 5.995,20.5 v -2 c -0.53023,0 -1.00389,0.2047 -1.37211,0.5729 z M 52.8318,19.78 53.5389,19.0729 v 0 z m -2.765,22.12 0.6269,0.7791 0.0054,-0.0044 z m -16.59,0 -0.6269,0.7791 0.0044,0.0035 z m -2.765,-22.12 -0.7071,-0.7071 v 0 z m 8.19,0 0.7071,-0.7071 v 0 z m 5.74,0 0.7071,0.7071 v 0 z m 0.665,0.72 h 6.86 v -2 h -6.86 z m 6.86,0 c 0.0033,0 10e-4,3e-4 -0.0055,-0.001 -0.0068,-0.0013 -0.0151,-0.0037 -0.0238,-0.0074 -0.0086,-0.0036 -0.0147,-0.0073 -0.0178,-0.0094 -0.0028,-0.002 -0.001,-0.0011 0.005,0.0049 l 1.4142,-1.4142 C 53.1707,18.7047 52.6971,18.5 52.1668,18.5 Z m -0.0421,-0.0129 c 0.0061,0.006 0.0069,0.0079 0.0049,0.005 -0.0021,-0.0031 -0.0058,-0.0091 -0.0094,-0.0178 -0.0037,-0.0087 -0.006,-0.017 -0.0074,-0.0237 -0.0012,-0.0066 -10e-4,-0.0089 -10e-4,-0.0056 h 2 c 0,-0.5302 -0.2046,-1.0039 -0.5729,-1.3721 z M 52.1118,20.445 v 14.07 h 2 v -14.07 z m 0,14.07 c 0,3.0473 -0.9362,5.1894 -2.6772,6.6102 l 1.2645,1.5495 c 2.319,-1.8924 3.4127,-4.6737 3.4127,-8.1597 z M 49.44,41.1209 c -1.7998,1.448 -4.318,2.2291 -7.6682,2.2291 v 2 c 3.6499,0 6.6616,-0.8523 8.9219,-2.6709 z M 41.7718,43.35 c -3.3242,0 -5.8462,-0.7799 -7.6724,-2.2326 l -1.2451,1.5652 c 2.2804,1.814 5.2884,2.6674 8.9175,2.6674 z M 34.1037,41.1209 C 32.3699,39.7258 31.4318,37.589 31.4318,34.515 h -2 c 0,3.506 1.092,6.2925 3.4182,8.1641 z M 31.4318,34.515 v -14.07 h -2 v 14.07 z m 0,-14.07 c 0,-0.0033 3e-4,-0.001 -10e-4,0.0056 -0.0013,0.0067 -0.0037,0.015 -0.0073,0.0237 -0.0037,0.0087 -0.0073,0.0147 -0.0094,0.0178 -0.002,0.0029 -0.0012,0.0011 0.0048,-0.005 l -1.4142,-1.4142 c -0.3682,0.3682 -0.5729,0.8419 -0.5729,1.3721 z m -0.0129,0.0421 c 0.0061,-0.006 0.0079,-0.0069 0.005,-0.0049 -0.003,0.0021 -0.0091,0.0058 -0.0178,0.0094 -0.0087,0.0037 -0.017,0.0061 -0.0237,0.0074 -0.0065,0.0013 -0.0089,0.001 -0.0056,0.001 v -2 c -0.5302,0 -1.0039,0.2047 -1.3721,0.5729 z M 31.3768,20.5 h 6.86 v -2 h -6.86 z m 6.86,0 c 0.0033,0 10e-4,3e-4 -0.0055,-0.001 -0.0068,-0.0013 -0.0151,-0.0037 -0.0238,-0.0074 -0.0086,-0.0036 -0.0147,-0.0073 -0.0178,-0.0094 -0.0028,-0.002 -0.001,-0.0011 0.005,0.0049 l 1.4142,-1.4142 C 39.2407,18.7047 38.7671,18.5 38.2368,18.5 Z m -0.0421,-0.0129 c 0.0061,0.0061 0.0069,0.0079 0.0049,0.005 -0.0021,-0.0031 -0.0058,-0.0091 -0.0094,-0.0178 -0.0037,-0.0087 -0.006,-0.017 -0.0074,-0.0237 -0.0012,-0.0066 -10e-4,-0.0089 -10e-4,-0.0056 h 2 c 0,-0.5302 -0.2046,-1.0039 -0.5729,-1.3721 z M 38.1818,20.445 V 34.62 h 2 V 20.445 Z m 0,14.175 c 0,1.0428 0.25,2.0102 0.9265,2.7142 0.6837,0.7113 1.6357,0.9808 2.6635,0.9808 v -2 c -0.6988,0 -1.0418,-0.1797 -1.2215,-0.3667 -0.1868,-0.1944 -0.3685,-0.5744 -0.3685,-1.3283 z m 3.59,3.695 c 1.0279,0 1.9799,-0.2695 2.6635,-0.9808 0.6766,-0.704 0.9265,-1.6714 0.9265,-2.7142 h -2 c 0,0.7539 -0.1817,1.1339 -0.3685,1.3283 -0.1797,0.187 -0.5226,0.3667 -1.2215,0.3667 z m 3.59,-3.695 V 20.445 h -2 V 34.62 Z m 0,-14.175 c 0,-0.0033 3e-4,-0.001 -0.001,0.0056 -0.0013,0.0067 -0.0037,0.015 -0.0073,0.0237 -0.0037,0.0087 -0.0073,0.0147 -0.0094,0.0178 -0.002,0.0029 -0.0012,0.0011 0.0048,-0.005 l -1.4142,-1.4142 c -0.3682,0.3682 -0.5729,0.8419 -0.5729,1.3721 z m -0.0129,0.0421 c 0.0061,-0.006 0.0079,-0.0069 0.005,-0.0049 -0.003,0.0021 -0.0091,0.0058 -0.0178,0.0094 -0.0087,0.0037 -0.017,0.0061 -0.0237,0.0074 -0.0065,0.0013 -0.0089,0.001 -0.0056,0.001 v -2 c -0.5302,0 -1.0039,0.2047 -1.3721,0.5729 z M 65.7053,37.175 h -1 v 1 h 1 z m -8.12,6.545 0.7071,-0.7071 v 0 z m 0,-23.94 0.7071,0.7071 v 0 z m 19.285,0 -0.7071,0.7071 v 0 z m 0,6.265 -0.7071,-0.7071 v 0 z m -11.165,0.28 v -1 h -1 v 1 z m 0,2.205 h -1 v 1 h 1 z m 10.395,0.28 0.7071,-0.7071 v 0 z m 0,5.88 0.7071,0.7071 v 0 z m -10.395,0.28 v -1 h -1 v 1 z m 0,3.205 h 10.78 v -2 h -10.78 z m 10.78,0 c 0.0033,0 0.001,3e-4 -0.0056,-10e-4 -0.0067,-0.0013 -0.015,-0.0037 -0.0237,-0.0074 -0.0087,-0.0036 -0.0148,-0.0073 -0.0178,-0.0094 -0.0029,-0.002 -0.0011,-0.0011 0.005,0.0049 l 1.4142,-1.4142 C 77.4892,36.3797 77.0155,36.175 76.4853,36.175 Z m -0.0421,-0.0129 c 0.006,0.0061 0.0068,0.0079 0.0048,0.005 C 76.446,38.164 76.4423,38.158 76.4386,38.1493 76.435,38.1406 76.4326,38.1323 76.4313,38.1256 76.43,38.119 76.4303,38.1167 76.4303,38.12 h 2 c 0,-0.5302 -0.2047,-1.0039 -0.5729,-1.3721 z M 76.4303,38.12 v 4.935 h 2 V 38.12 Z m 0,4.935 c 0,0.0033 -3e-4,10e-4 10e-4,-0.0056 0.0013,-0.0067 0.0037,-0.015 0.0073,-0.0237 0.0037,-0.0087 0.0074,-0.0147 0.0094,-0.0178 0.002,-0.0029 0.0012,-0.0011 -0.0048,0.005 l 1.4142,1.4142 c 0.3682,-0.3682 0.5729,-0.8419 0.5729,-1.3721 z m 0.0129,-0.0421 c -0.0061,0.006 -0.0079,0.0069 -0.005,0.0049 0.003,-0.0021 0.0091,-0.0058 0.0178,-0.0094 0.0087,-0.0037 0.017,-0.0061 0.0237,-0.0074 C 76.4863,42.9997 76.4886,43 76.4853,43 v 2 c 0.5302,0 1.0039,-0.2047 1.3721,-0.5729 z M 76.4853,43 h -18.235 v 2 h 18.235 z m -18.235,0 c -0.0033,0 -0.001,-3e-4 0.0055,10e-4 0.0068,0.0013 0.0151,0.0037 0.0238,0.0074 0.0086,0.0036 0.0147,0.0073 0.0178,0.0094 0.0029,0.002 10e-4,0.0011 -0.005,-0.0049 l -1.4142,1.4142 C 57.2464,44.7953 57.72,45 58.2503,45 Z m 0.0421,0.0129 c -0.0061,-0.0061 -0.0069,-0.0079 -0.0049,-0.005 0.0021,0.0031 0.0058,0.0091 0.0094,0.0178 0.0037,0.0087 0.0061,0.017 0.0074,0.0237 0.0012,0.0066 0.001,0.0089 0.001,0.0056 h -2 c 0,0.5302 0.2046,1.0039 0.5729,1.3721 z m 0.0129,0.0421 v -22.61 h -2 v 22.61 z m 0,-22.61 c 0,-0.0033 2e-4,-0.001 -0.001,0.0056 -0.0013,0.0067 -0.0037,0.015 -0.0074,0.0237 -0.0036,0.0087 -0.0073,0.0147 -0.0094,0.0178 -0.002,0.0029 -0.0012,0.0011 0.0049,-0.005 l -1.4142,-1.4142 c -0.3683,0.3682 -0.5729,0.8419 -0.5729,1.3721 z m -0.0129,0.0421 c 0.006,-0.006 0.0079,-0.0069 0.005,-0.0049 -0.0031,0.0021 -0.0092,0.0058 -0.0178,0.0094 -0.0087,0.0037 -0.017,0.0061 -0.0238,0.0074 -0.0065,0.0013 -0.0088,0.001 -0.0055,0.001 v -2 c -0.5303,0 -1.0039,0.2047 -1.3721,0.5729 z M 58.2503,20.5 h 17.955 v -2 h -17.955 z m 17.955,0 c 0.0033,0 0.001,3e-4 -0.0056,-0.001 -0.0067,-0.0013 -0.015,-0.0037 -0.0237,-0.0074 -0.0087,-0.0036 -0.0148,-0.0073 -0.0178,-0.0094 -0.0029,-0.002 -0.0011,-0.0011 0.005,0.0049 l 1.4142,-1.4142 C 77.2092,18.7047 76.7355,18.5 76.2053,18.5 Z m -0.0421,-0.0129 c 0.006,0.0061 0.0068,0.0079 0.0048,0.005 C 76.1659,20.489 76.1623,20.483 76.1586,20.4743 76.155,20.4656 76.1526,20.4573 76.1513,20.4506 76.15,20.444 76.1503,20.4417 76.1503,20.445 h 2 c 0,-0.5302 -0.2047,-1.0039 -0.5729,-1.3721 z M 76.1503,20.445 v 4.935 h 2 v -4.935 z m 0,4.935 c 0,0.0033 -3e-4,0.001 0.001,-0.0056 0.0013,-0.0067 0.0037,-0.015 0.0073,-0.0237 0.0037,-0.0087 0.0073,-0.0147 0.0094,-0.0178 0.002,-0.0029 0.0012,-0.0011 -0.0048,0.005 l 1.4142,1.4142 c 0.3682,-0.3682 0.5729,-0.8419 0.5729,-1.3721 z m 0.0129,-0.0421 c -0.0061,0.006 -0.0079,0.0069 -0.005,0.0049 0.003,-0.0021 0.0091,-0.0058 0.0178,-0.0094 0.0087,-0.0037 0.017,-0.0061 0.0237,-0.0074 0.0066,-0.0013 0.0089,-0.001 0.0056,-0.001 v 2 c 0.5302,0 1.0039,-0.2047 1.3721,-0.5729 z m 0.0421,-0.0129 h -10.5 v 2 h 10.5 z m -11.5,1 v 2.205 h 2 v -2.205 z m 1,3.205 h 9.73 v -2 h -9.73 z m 9.73,0 c 0.0033,0 0.001,3e-4 -0.0056,-0.001 -0.0067,-0.0013 -0.015,-0.0037 -0.0237,-0.0074 -0.0087,-0.0036 -0.0148,-0.0073 -0.0178,-0.0094 -0.0029,-0.002 -0.0011,-0.0011 0.005,0.0049 l 1.4142,-1.4142 C 76.4392,27.7347 75.9655,27.53 75.4353,27.53 Z m -0.0421,-0.0129 c 0.006,0.0061 0.0068,0.0079 0.0048,0.005 C 75.3959,29.519 75.3923,29.513 75.3886,29.5043 75.385,29.4956 75.3826,29.4873 75.3813,29.4806 75.38,29.474 75.3803,29.4717 75.3803,29.475 h 2 c 0,-0.5302 -0.2047,-1.0039 -0.5729,-1.3721 z M 75.3803,29.475 v 4.55 h 2 v -4.55 z m 0,4.55 c 0,0.0033 -3e-4,0.001 10e-4,-0.0056 0.0013,-0.0067 0.0037,-0.015 0.0073,-0.0237 0.0037,-0.0087 0.0073,-0.0147 0.0094,-0.0178 0.002,-0.0029 0.0012,-0.0011 -0.0048,0.005 l 1.4142,1.4142 c 0.3682,-0.3682 0.5729,-0.8419 0.5729,-1.3721 z m 0.0129,-0.0421 c -0.0061,0.006 -0.0079,0.0069 -0.005,0.0049 0.003,-0.0021 0.0091,-0.0058 0.0178,-0.0094 0.0087,-0.0037 0.017,-0.0061 0.0237,-0.0074 0.0066,-0.0013 0.0089,-10e-4 0.0056,-10e-4 v 2 c 0.5302,0 1.0039,-0.2047 1.3721,-0.5729 z M 75.4353,33.97 h -9.73 v 2 h 9.73 z m -10.73,1 v 2.205 h 2 V 34.97 Z m 19.2459,-13.58 -0.6015,-0.7989 -0.0045,0.0035 z m 15.645,0.105 -0.6101,0.7923 0.0043,0.0033 z m 2.8348,5.46 0.707,0.7071 v 0 z m -8.9598,-0.385 -0.6668,0.7452 v 0 z m -2.66,1.26 -0.3987,0.9171 0.007,0.003 0.0071,0.003 z m 3.08,0.63 0.1265,-0.992 -0.0025,-3e-4 z m 7.4198,2.45 -0.629,0.7772 0.007,0.0055 0.007,0.0053 z m -1.05,11.2 0.567,0.8238 0.002,-0.0013 z m -16.8348,0.07 -0.5848,0.8112 v 0 z m -2.8,-5.81 0.7071,0.7071 v 0 z m 8.82,0.455 -0.6247,0.7809 0.0075,0.0059 0.0075,0.0058 z m 4.165,-1.225 -0.3473,0.9377 0.0154,0.0058 0.0157,0.0052 z m -3.57,-0.7 0.1322,-0.9912 -0.0015,-2e-4 z m -8.03,-7.7 c 0,-2.0552 0.824,-3.7026 2.5461,-5.0146 l -1.2121,-1.5908 c -2.198,1.6746 -3.334,3.9006 -3.334,6.6054 z m 2.5415,-5.0111 C 86.3185,20.8594 88.6788,20.15 91.7212,20.15 v -2 c -3.3509,0 -6.1706,0.784 -8.3715,2.4411 z M 91.7212,20.15 c 3.0569,0 5.4505,0.74 7.2649,2.1373 l 1.2199,-1.5846 C 97.9607,18.9733 95.1043,18.15 91.7212,18.15 Z m 7.2692,2.1406 c 1.9366,1.4745 2.6856,2.8482 2.6856,4.1044 h 2 c 0,-2.1504 -1.304,-4.0435 -3.474,-5.6956 z m 2.6856,4.1044 c 0,-0.0286 0.007,-0.0663 0.023,-0.1033 0.015,-0.0352 0.03,-0.049 0.025,-0.0438 l 1.414,1.4142 c 0.331,-0.3303 0.538,-0.7641 0.538,-1.2671 z m 0.048,-0.1471 c 0.01,-0.0097 0.038,-0.034 0.086,-0.0545 0.049,-0.0211 0.096,-0.0284 0.131,-0.0284 v 2 c 0.469,0 0.882,-0.188 1.197,-0.5029 z m 0.217,-0.0829 h -6.9998 v 2 h 6.9998 z m -6.9998,0 c -0.2633,0 -0.5218,-0.0884 -0.8032,-0.3402 l -1.3336,1.4904 c 0.6053,0.5416 1.3268,0.8498 2.1368,0.8498 z M 94.138,25.8248 C 93.468,25.2253 92.6138,24.975 91.6862,24.975 v 2 c 0.5658,0 0.9016,0.1464 1.1182,0.3402 z M 91.6862,24.975 c -0.6245,0 -1.2565,0.0853 -1.7639,0.3812 -0.5901,0.3443 -0.9161,0.9199 -0.9161,1.5988 h 2 c 0,-0.017 0.0024,0.0164 -0.0267,0.0674 -0.0294,0.0513 -0.0607,0.0679 -0.0494,0.0614 0.0176,-0.0103 0.079,-0.0401 0.212,-0.0659 0.1313,-0.0256 0.3098,-0.0429 0.5441,-0.0429 z m -2.68,1.98 c 0,0.9751 0.7721,1.5163 1.4063,1.7921 l 0.7974,-1.8342 c -0.0934,-0.0406 -0.1597,-0.0771 -0.2046,-0.1064 -0.0221,-0.0145 -0.0376,-0.0262 -0.0478,-0.0346 -0.0101,-0.0084 -0.0142,-0.0128 -0.0141,-0.0127 7e-4,8e-4 0.0186,0.0207 0.0357,0.0616 0.0179,0.0428 0.0271,0.0901 0.0271,0.1342 z m 1.4204,1.7981 c 0.6998,0.2916 1.8512,0.513 3.3406,0.6992 l 0.248,-1.9846 C 92.518,27.2806 91.616,27.082 91.1958,26.9069 Z m 3.3381,0.6989 c 3.4262,0.4369 5.6693,1.2249 6.9173,2.2352 l 1.258,-1.5544 c -1.692,-1.3697 -4.3951,-2.215 -7.9223,-2.6648 z m 6.9313,2.246 c 1.187,0.9277 1.855,2.381 1.855,4.567 h 2 c 0,-2.6207 -0.825,-4.7374 -2.624,-6.143 z m 1.855,4.567 c 0,2.0081 -0.897,3.6664 -2.8585,5.0225 l 1.1375,1.645 c 2.425,-1.6772 3.721,-3.9156 3.721,-6.6675 z m -2.8567,5.0212 C 97.7389,42.6318 95.1092,43.35 91.7212,43.35 v 2 c 3.6587,0 6.7223,-0.7752 9.1068,-2.4162 z M 91.7212,43.35 c -3.3994,0 -5.9323,-0.6995 -7.7102,-1.9812 l -1.1696,1.6224 c 2.2355,1.6116 5.2325,2.3588 8.8798,2.3588 z M 84.011,41.3688 C 82.2085,40.0693 81.4162,38.5863 81.4162,36.895 h -2 c 0,2.462 1.2144,4.5023 3.4252,6.0962 z M 81.4162,36.895 c 0,0.0077 -0.0017,0.0393 -0.019,0.0826 -0.0178,0.0446 -0.043,0.0787 -0.0639,0.0995 l -1.4142,-1.4142 c -0.3398,0.3398 -0.5029,0.7747 -0.5029,1.2321 z m -0.0829,0.1821 c 0.0052,-0.0052 -0.0086,0.0099 -0.0438,0.0253 -0.0369,0.0162 -0.0747,0.0226 -0.1033,0.0226 v -2 c -0.503,0 -0.9368,0.2076 -1.2671,0.5379 z m -0.1471,0.0479 h 6.65 v -2 h -6.65 z m 6.65,0 c 0.1709,0 0.4908,0.0852 0.9853,0.4809 l 1.2494,-1.5618 C 89.3988,35.5064 88.6453,35.125 87.8362,35.125 Z m 1.0003,0.4926 c 0.8363,0.6433 1.905,0.9074 3.0947,0.9074 v -2 c -0.9103,0 -1.4982,-0.2026 -1.8753,-0.4926 z m 3.0947,0.9074 c 0.9089,0 1.7101,-0.081 2.3185,-0.3082 0.3107,-0.1159 0.635,-0.2932 0.8884,-0.577 0.272,-0.3047 0.4181,-0.6843 0.4181,-1.0948 h -2 c 0,-0.0838 0.0367,-0.1776 0.09,-0.2373 0.0347,-0.0388 0.0308,-0.0119 -0.096,0.0355 -0.2666,0.0995 -0.7779,0.1818 -1.619,0.1818 z m 3.625,-1.98 c 0,-1.0843 -0.8681,-1.6401 -1.6288,-1.8937 l -0.6324,1.8974 c 0.1116,0.0372 0.1905,0.0729 0.244,0.1026 0.0536,0.0298 0.073,0.0487 0.0739,0.0496 0,0 -0.0048,-0.0048 -0.0118,-0.0149 C 93.594,36.6757 93.5857,36.6615 93.578,36.6436 93.5614,36.6048 93.5562,36.5685 93.5562,36.545 Z m -1.5977,-1.8827 c -0.7483,-0.2772 -2.043,-0.5212 -3.7851,-0.7535 l -0.2644,1.9824 c 1.7579,0.2344 2.8432,0.457 3.3549,0.6465 z M 90.1719,33.9086 C 87.2583,33.5246 85.2167,32.7269 83.9176,31.6191 82.6587,30.5456 82.0112,29.1093 82.0112,27.2 h -2 c 0,2.4307 0.8575,4.4477 2.6087,5.9409 1.7108,1.4589 4.1842,2.3412 7.2907,2.7505 z m 36.1191,-11.8536 -0.614,0.7899 0.01,0.0071 z m -19.145,21.665 0.707,-0.7071 v 0 z m 0,-23.94 0.707,0.7071 v 0 z m 8.47,6.545 v -1 h -1 v 1 z m 0,10.85 h -1 v 1 h 1 z m 4.165,-0.7 -0.707,-0.7071 v 0 z M 107.811,20.5 h 10.08 v -2 h -10.08 z m 10.08,0 c 3.236,0 5.805,0.8063 7.786,2.3448 l 1.227,-1.5796 C 124.499,19.397 121.468,18.5 117.891,18.5 Z m 7.796,2.352 c 1.942,1.472 2.929,3.5199 2.929,6.273 h 2 c 0,-3.3136 -1.23,-5.979 -3.721,-7.867 z m 2.929,6.273 v 5.215 h 2 v -5.215 z m 0,5.215 c 0,2.9232 -0.973,5.0047 -2.826,6.4142 l 1.211,1.5916 c 2.441,-1.8571 3.615,-4.5823 3.615,-8.0058 z m -2.826,6.4142 C 123.863,42.2203 121.272,43 117.926,43 v 2 c 3.653,0 6.709,-0.8536 9.075,-2.6542 z M 117.926,43 h -10.115 v 2 h 10.115 z m -10.115,0 c -0.003,0 -0.001,-3e-4 0.005,10e-4 0.007,0.0013 0.015,0.0037 0.024,0.0074 0.009,0.0036 0.015,0.0073 0.018,0.0094 0.003,0.002 10e-4,0.0011 -0.005,-0.0049 l -1.414,1.4142 C 106.807,44.7953 107.281,45 107.811,45 Z m 0.042,0.0129 c -0.006,-0.0061 -0.007,-0.0079 -0.005,-0.005 0.002,0.0031 0.006,0.0091 0.009,0.0178 0.004,0.0087 0.007,0.017 0.008,0.0237 0.001,0.0066 0.001,0.0089 0.001,0.0056 h -2 c 0,0.5302 0.204,1.0039 0.573,1.3721 z m 0.013,0.0421 v -22.61 h -2 v 22.61 z m 0,-22.61 c 0,-0.0033 0,-0.001 -0.001,0.0056 -10e-4,0.0067 -0.004,0.015 -0.008,0.0237 -0.003,0.0087 -0.007,0.0147 -0.009,0.0178 -0.002,0.0029 -0.001,0.0011 0.005,-0.005 l -1.414,-1.4142 c -0.369,0.3682 -0.573,0.8419 -0.573,1.3721 z m -0.013,0.0421 c 0.006,-0.006 0.008,-0.0069 0.005,-0.0049 -0.003,0.0021 -0.009,0.0058 -0.018,0.0094 -0.009,0.0037 -0.017,0.0061 -0.024,0.0074 -0.006,0.0013 -0.008,0.001 -0.005,0.001 v -2 c -0.53,0 -1.004,0.2047 -1.372,0.5729 z m 6.763,5.8379 v 10.85 h 2 v -10.85 z m 1,11.85 h 2.275 v -2 h -2.275 z m 2.275,0 c 1.001,0 1.906,-0.3017 2.597,-0.9929 l -1.414,-1.4142 c -0.242,0.2421 -0.598,0.4071 -1.183,0.4071 z m 2.597,-0.9929 c 0.735,-0.7353 1.028,-1.7383 1.028,-2.8421 h -2 c 0,0.7628 -0.198,1.1832 -0.442,1.4279 z m 1.028,-2.8421 v -5.215 h -2 v 5.215 z m 0,-5.215 c 0,-1.072 -0.25,-2.0621 -0.927,-2.7839 -0.688,-0.734 -1.652,-1.0161 -2.698,-1.0161 v 2 c 0.704,0 1.052,0.1846 1.239,0.3839 0.198,0.2115 0.386,0.6214 0.386,1.4161 z m -3.625,-3.8 h -2.275 v 2 h 2.275 z m 32.402,-4.67 -0.965,0.2631 0.009,0.0338 0.012,0.0331 z m 7.805,22.33 0.948,-0.3162 -0.002,-0.0069 -0.002,-0.0069 z m -0.21,0.805 -0.707,-0.7071 v 0 z m -8.365,-0.665 0.941,-0.3387 -0.002,-0.003 z m -0.84,-2.31 0.939,-0.3417 -0.239,-0.6583 h -0.7 z m -7.525,0 v -1 h -0.701 l -0.239,0.6583 z m -0.84,2.31 -0.94,-0.3417 -10e-4,0.003 z m -8.4,0.665 -0.76,0.6508 0.05,0.0584 0.059,0.0501 z m -0.175,-0.805 -0.944,-0.33 -0.003,0.0069 -0.002,0.0069 z m 7.805,-22.33 0.944,0.33 0.011,-0.0331 0.009,-0.0338 z m 3.395,13.335 -0.958,-0.2883 -0.388,1.2883 h 1.346 z m 3.955,0 v 1 h 1.352 l -0.396,-1.293 z m -1.995,-6.51 0.956,-0.293 -0.965,-3.1476 -0.949,3.1523 z m -3.78,-6.98 h 7.595 v -2 h -7.595 z m 7.595,0 c 0.269,0 0.385,0.0606 0.432,0.0952 0.042,0.0307 0.119,0.1053 0.178,0.3229 l 1.929,-0.5262 c -0.15,-0.5524 -0.441,-1.0553 -0.924,-1.4096 C 149.855,18.6319 149.288,18.5 148.718,18.5 Z m 0.631,0.485 7.805,22.33 1.888,-0.66 -7.805,-22.33 z m 7.8,22.3162 c -0.006,-0.0186 -0.011,-0.034 -0.013,-0.0452 -0.003,-0.0114 -0.005,-0.02 -0.006,-0.0255 -0.002,-0.0103 -0.002,-0.013 -0.001,-0.006 0,0.0067 0.001,0.0191 0.002,0.0384 0.001,0.0191 0.002,0.0429 0.002,0.0721 h 2 c 0,-0.1726 -0.008,-0.4307 -0.087,-0.6662 z m -0.016,0.0338 c 0,-0.1294 0.038,-0.2186 0.058,-0.2554 0.018,-0.0333 0.024,-0.0314 -0.01,0.0033 l 1.414,1.4142 c 0.235,-0.2351 0.538,-0.6289 0.538,-1.1621 z m 0.048,-0.2521 c 0.02,-0.0208 0.054,-0.0461 0.099,-0.0639 0.043,-0.0173 0.075,-0.019 0.083,-0.019 v 2 c 0.457,0 0.892,-0.1631 1.232,-0.5029 z M 157.363,43 h -6.475 v 2 h 6.475 z m -6.475,0 c -0.215,0 -0.302,-0.0445 -0.327,-0.0606 -0.015,-0.0098 -0.056,-0.0369 -0.097,-0.1531 l -1.882,0.6774 c 0.168,0.4671 0.46,0.8776 0.9,1.1594 0.429,0.2755 0.92,0.3769 1.406,0.3769 z m -0.426,-0.2167 -0.84,-2.31 -1.879,0.6834 0.84,2.31 z m -1.779,-2.9683 h -7.525 v 2 h 7.525 z m -8.465,0.6583 -0.84,2.31 1.879,0.6834 0.84,-2.31 z m -0.841,2.313 c -0.042,0.1162 -0.082,0.1433 -0.098,0.1531 C 139.254,42.9555 139.167,43 138.953,43 v 2 c 0.485,0 0.976,-0.1014 1.406,-0.3769 0.439,-0.2818 0.731,-0.6923 0.9,-1.1594 z M 138.953,43 h -6.475 v 2 h 6.475 z m -6.475,0 c 0.008,0 0.028,0.0019 0.053,0.0112 0.012,0.0042 0.021,0.009 0.028,0.0132 0.007,0.0041 0.01,0.0068 0.009,0.0063 l -1.301,1.5186 c 0.34,0.2912 0.756,0.4507 1.211,0.4507 z m 0.199,0.1392 c -0.026,-0.0306 -0.022,-0.0324 -0.009,-0.0045 0.014,0.0305 0.04,0.1004 0.04,0.2003 h -2 c 0,0.4779 0.235,0.8543 0.45,1.1058 z m 0.031,0.1958 c 0,-0.0292 0,-0.053 0.001,-0.0721 0.001,-0.0193 0.002,-0.0317 0.002,-0.0384 10e-4,-0.007 10e-4,-0.0043 -0.001,0.006 -0.001,0.0055 -0.003,0.0141 -0.005,0.0255 -0.003,0.0112 -0.007,0.0266 -0.014,0.0452 l -1.897,-0.6324 c -0.079,0.2355 -0.086,0.4936 -0.086,0.6662 z m -0.021,-0.02 7.805,-22.33 -1.888,-0.66 -7.805,22.33 z m 7.825,-22.3969 c 0.06,-0.2176 0.136,-0.2922 0.178,-0.3229 0.047,-0.0346 0.163,-0.0952 0.433,-0.0952 v -2 c -0.571,0 -1.138,0.1319 -1.615,0.4823 -0.484,0.3543 -0.774,0.8572 -0.925,1.4096 z m 2.431,14.0719 h 3.955 v -2 h -3.955 z m 4.911,-1.293 -1.995,-6.51 -1.912,0.586 1.995,6.51 z m -3.909,-6.5053 -1.96,6.51 1.915,0.5766 1.96,-6.51 z m 23.293,16.5283 -0.707,0.7071 v 0 z m -0.28,-7.56 h 1 v -0.2384 l -0.108,-0.2128 z m -7.875,-15.575 -0.894,0.4472 0.002,0.004 z m 0.14,-0.84 0.707,0.7071 v 0 z m 8.61,0.63 -0.902,0.4328 0.007,0.0126 z m 3.5,7.035 -0.895,0.4454 0.895,1.7996 0.895,-1.7996 z m 3.5,-7.035 0.895,0.4455 0.007,-0.0128 z m 8.575,-0.63 -0.759,0.6508 0.05,0.0584 0.058,0.0501 z m 0.175,0.84 0.893,0.4512 0.002,-0.004 z m -7.875,15.575 -0.892,-0.4512 -0.108,0.2128 V 36.16 Z m -0.28,7.56 0.707,0.7071 v 0 z M 174.763,43 h -6.86 v 2 h 6.86 z m -6.86,0 c -0.003,0 -0.001,-3e-4 0.006,10e-4 0.006,0.0013 0.015,0.0037 0.023,0.0074 0.009,0.0036 0.015,0.0073 0.018,0.0094 0.003,0.002 0.001,0.0011 -0.005,-0.0049 l -1.414,1.4142 C 166.899,44.7953 167.373,45 167.903,45 Z m 0.042,0.0129 c -0.006,-0.0061 -0.007,-0.0079 -0.005,-0.005 0.002,0.0031 0.006,0.0091 0.01,0.0178 0.003,0.0087 0.006,0.017 0.007,0.0237 0.001,0.0066 0.001,0.0089 0.001,0.0056 h -2 c 0,0.5302 0.205,1.0039 0.573,1.3721 z m 0.013,0.0421 V 36.16 h -2 v 6.895 z m -0.108,-7.3462 -7.875,-15.575 -1.784,0.9024 7.875,15.575 z m -7.872,-15.571 c 0.028,0.0561 0.035,0.0952 0.036,0.1021 0.002,0.0074 -0.001,-0.004 -0.001,-0.0399 h -2 c 0,0.2396 0.031,0.5434 0.176,0.8322 z m 0.035,0.0622 c 0,0.0664 -0.015,0.1303 -0.039,0.1828 -0.023,0.0491 -0.045,0.071 -0.044,0.0693 l -1.414,-1.4142 c -0.285,0.2851 -0.503,0.679 -0.503,1.1621 z m -0.083,0.2521 c 0.005,-0.0052 -0.008,0.0099 -0.044,0.0253 -0.037,0.0162 -0.074,0.0226 -0.103,0.0226 v -2 c -0.503,0 -0.937,0.2076 -1.267,0.5379 z M 159.783,20.5 h 6.58 v -2 h -6.58 z m 6.58,0 c 0.211,0 0.322,0.0432 0.381,0.078 0.054,0.032 0.121,0.0909 0.188,0.2297 l 1.803,-0.8654 c -0.214,-0.4445 -0.532,-0.8232 -0.968,-1.0828 C 167.336,18.6027 166.852,18.5 166.363,18.5 Z m 0.575,0.3204 3.5,7.035 1.79,-0.8908 -3.5,-7.035 z m 5.29,7.035 3.5,-7.035 -1.79,-0.8908 -3.5,7.035 z m 3.507,-7.0477 c 0.066,-0.1388 0.133,-0.1977 0.187,-0.2297 0.059,-0.0348 0.17,-0.078 0.381,-0.078 v -2 c -0.489,0 -0.973,0.1027 -1.404,0.3595 -0.436,0.2596 -0.754,0.6383 -0.967,1.0828 z M 176.303,20.5 h 6.58 v -2 h -6.58 z m 6.58,0 c -0.028,0 -0.078,-0.0064 -0.134,-0.0326 -0.056,-0.0259 -0.088,-0.0576 -0.1,-0.0716 l 1.518,-1.3016 C 183.843,18.7154 183.393,18.5 182.883,18.5 Z m -0.126,0.0043 c 0.011,0.009 -0.016,-0.0107 -0.046,-0.0664 -0.033,-0.0617 -0.058,-0.145 -0.058,-0.2379 h 2 c 0,-0.5411 -0.284,-0.9484 -0.594,-1.2143 z M 182.653,20.2 c 0,0.0359 -0.003,0.0473 -0.001,0.0399 0.001,-0.0069 0.009,-0.046 0.037,-0.1021 l 1.789,0.8944 c 0.144,-0.2888 0.175,-0.5926 0.175,-0.8322 z m 0.038,-0.0662 -7.875,15.575 1.784,0.9024 7.875,-15.575 z M 174.708,36.16 v 6.895 h 2 V 36.16 Z m 0,6.895 c 0,0.0033 0,10e-4 0.001,-0.0056 0.001,-0.0067 0.004,-0.015 0.007,-0.0237 0.004,-0.0087 0.008,-0.0147 0.01,-0.0178 0.002,-0.0029 0.001,-0.0011 -0.005,0.005 l 1.414,1.4142 c 0.368,-0.3682 0.573,-0.8419 0.573,-1.3721 z m 0.013,-0.0421 c -0.006,0.006 -0.008,0.0069 -0.005,0.0049 0.003,-0.0021 0.009,-0.0058 0.018,-0.0094 0.008,-0.0037 0.017,-0.0061 0.024,-0.0074 0.006,-0.0013 0.008,-10e-4 0.005,-10e-4 v 2 c 0.53,0 1.004,-0.2047 1.372,-0.5729 z"
     fill="#000000"
     mask="url(#path-1-inside-1_3_18)"
     id="path2"
     transform="translate(-0.79483358,-15.896672)" />
  <path
     d="M 1.2001664,0.60332837 H 21.710166 c 0.2567,0 0.4783,0.0933 0.665,0.28 0.1867,0.18670003 0.28,0.40830003 0.28,0.66500003 v 5.635 c 0,0.2567 -0.0933,0.4783 -0.28,0.665 -0.1867,0.1867 -0.4083,0.28 -0.665,0.28 h -5.81 V 24.158328 c 0,0.2567 -0.0933,0.4783 -0.28,0.665 -0.1867,0.1867 -0.4083,0.28 -0.665,0.28 H 7.9551664 c -0.25667,0 -0.47833,-0.0933 -0.665,-0.28 -0.18667,-0.1867 -0.28,-0.4083 -0.28,-0.665 V 8.1283284 h -5.81 c -0.25666998,0 -0.47832998,-0.0933 -0.66499998,-0.28 -0.18667,-0.1867 -0.28,-0.4083 -0.28,-0.665 v -5.635 c 0,-0.2567 0.09333,-0.4783 0.28,-0.66500003 0.18667,-0.1867 0.40833,-0.28 0.66499998,-0.28 z m 39.3117996,0 h 6.86 c 0.2567,0 0.4784,0.0933 0.665,0.28 0.1867,0.18670003 0.28,0.40830003 0.28,0.66500003 V 15.618328 c 0,3.2667 -1.015,5.7283 -3.045,7.385 -2.03,1.6333 -4.795,2.45 -8.295,2.45 -3.4766,0 -6.2416,-0.8167 -8.295,-2.45 -2.03,-1.6333 -3.045,-4.095 -3.045,-7.385 V 1.5483284 c 0,-0.2567 0.0934,-0.4783 0.28,-0.66500003 0.1867,-0.1867 0.4084,-0.28 0.665,-0.28 h 6.86 c 0.2567,0 0.4784,0.0933 0.665,0.28 0.1867,0.18670003 0.28,0.40830003 0.28,0.66500003 V 15.723328 c 0,1.7967 0.8634,2.695 2.59,2.695 1.7267,0 2.59,-0.8983 2.59,-2.695 V 1.5483284 c 0,-0.2567 0.0934,-0.4783 0.28,-0.66500003 0.1867,-0.1867 0.4084,-0.28 0.665,-0.28 z m 20.3985,17.67499963 h 10.78 c 0.2566,0 0.4783,0.0933 0.665,0.28 0.1866,0.1867 0.28,0.4083 0.28,0.665 v 4.935 c 0,0.2567 -0.0934,0.4783 -0.28,0.665 -0.1867,0.1867 -0.4084,0.28 -0.665,0.28 h -18.235 c -0.2567,0 -0.4784,-0.0933 -0.665,-0.28 -0.1867,-0.1867 -0.28,-0.4083 -0.28,-0.665 V 1.5483284 c 0,-0.2567 0.0933,-0.4783 0.28,-0.66500003 0.1866,-0.1867 0.4083,-0.28 0.665,-0.28 h 17.955 c 0.2566,0 0.4783,0.0933 0.665,0.28 0.1866,0.18670003 0.28,0.40830003 0.28,0.66500003 v 4.935 c 0,0.2567 -0.0934,0.4783 -0.28,0.665 -0.1867,0.1867 -0.4084,0.28 -0.665,0.28 h -10.5 v 2.205 h 9.73 c 0.2566,0 0.4783,0.0933 0.665,0.28 0.1866,0.1866996 0.28,0.4082996 0.28,0.6649996 v 4.55 c 0,0.2567 -0.0934,0.4783 -0.28,0.665 -0.1867,0.1867 -0.4084,0.28 -0.665,0.28 h -9.73 z m 15.3059,-9.9749996 c 0,-2.38 0.98,-4.3167 2.94,-5.81 1.9833,-1.4933 4.5733,-2.24000003 7.77,-2.24000003 3.22,0 5.845,0.78170003 7.875,2.34500003 2.0533,1.5633 3.08,3.1967 3.08,4.9 0,0.21 -0.0817,0.3967 -0.245,0.56 -0.14,0.14 -0.3033,0.21 -0.49,0.21 h -7 c -0.5367,0 -1.0267,-0.1983 -1.47,-0.595 -0.4433,-0.3967 -1.0383,-0.595 -1.785,-0.595 -1.12,0 -1.68,0.3267 -1.68,0.98 0,0.35 0.2683,0.6417 0.805,0.875 0.56,0.2333 1.5867,0.4433 3.08,0.63 3.4767,0.4432996 5.95,1.2599996 7.42,2.4499996 1.4933,1.1667 2.24,2.9517 2.24,5.355 0,2.38 -1.0967,4.3283 -3.29,5.845 -2.17,1.4933 -5.0167,2.24 -8.54,2.24 -3.5233,0 -6.2883,-0.7233 -8.295,-2.17 -2.0067,-1.4467 -3.01,-3.2083 -3.01,-5.285 0,-0.21 0.07,-0.385 0.21,-0.525 0.1633,-0.1633 0.35,-0.245 0.56,-0.245 h 6.65 c 0.49,0 1.0267,0.2333 1.61,0.7 0.6067,0.4667 1.435,0.7 2.485,0.7 1.75,0 2.625,-0.3267 2.625,-0.98 0,-0.42 -0.315,-0.735 -0.945,-0.945 -0.63,-0.2333 -1.82,-0.4667 -3.57,-0.7 -6.02,-0.7933 -9.03,-3.36 -9.03,-7.6999996 z M 103.01617,0.60332837 h 10.08 c 3.406,0 6.206,0.85170003 8.4,2.55500003 2.216,1.68 3.325,4.0367 3.325,7.0699996 v 5.215 c 0,3.1733 -1.074,5.5767 -3.22,7.21 -2.147,1.6333 -4.97,2.45 -8.47,2.45 h -10.115 c -0.257,0 -0.479,-0.0933 -0.665,-0.28 -0.187,-0.1867 -0.28,-0.4083 -0.28,-0.665 V 1.5483284 c 0,-0.2567 0.093,-0.4783 0.28,-0.66500003 0.186,-0.1867 0.408,-0.28 0.665,-0.28 z m 7.805,6.82500003 V 18.278328 h 2.275 c 0.793,0 1.423,-0.2333 1.89,-0.7 0.49,-0.49 0.735,-1.2017 0.735,-2.135 v -5.215 c 0,-1.8666996 -0.875,-2.7999996 -2.625,-2.7999996 z m 25.507,-6.82500003 h 7.595 c 0.84,0 1.365,0.385 1.575,1.15500003 l 7.805,22.3299996 c 0.023,0.07 0.035,0.1867 0.035,0.35 0,0.14 -0.082,0.2917 -0.245,0.455 -0.14,0.14 -0.315,0.21 -0.525,0.21 h -6.475 c -0.7,0 -1.155,-0.2917 -1.365,-0.875 l -0.84,-2.31 h -7.525 l -0.84,2.31 c -0.21,0.5833 -0.665,0.875 -1.365,0.875 h -6.475 c -0.21,0 -0.397,-0.07 -0.56,-0.21 -0.14,-0.1633 -0.21,-0.315 -0.21,-0.455 0,-0.1633 0.011,-0.28 0.035,-0.35 l 7.805,-22.3299996 c 0.21,-0.77000003 0.735,-1.15500003 1.575,-1.15500003 z m 1.82,14.48999963 h 3.955 l -1.995,-6.5099996 z m 31.82,10.01 h -6.86 c -0.257,0 -0.478,-0.0933 -0.665,-0.28 -0.187,-0.1867 -0.28,-0.4083 -0.28,-0.665 v -6.895 l -7.875,-15.5749996 c -0.047,-0.0933 -0.07,-0.2217 -0.07,-0.385 0,-0.1633 0.07,-0.31500003 0.21,-0.45500003 0.163,-0.1633 0.35,-0.245 0.56,-0.245 h 6.58 c 0.7,0 1.19,0.2917 1.47,0.87500003 l 3.5,7.035 3.5,-7.035 c 0.28,-0.58330003 0.77,-0.87500003 1.47,-0.87500003 h 6.58 c 0.21,0 0.385,0.0817 0.525,0.245 0.163,0.14 0.245,0.29170003 0.245,0.45500003 0,0.1633 -0.023,0.2917 -0.07,0.385 l -7.875,15.5749996 v 6.895 c 0,0.2567 -0.093,0.4783 -0.28,0.665 -0.187,0.1867 -0.408,0.28 -0.665,0.28 z"
     fill="#343131"
     id="path3" />
</svg>
