<svg width="265" height="56" viewBox="0 0 265 56" fill="none" xmlns="http://www.w3.org/2000/svg">
<mask id="path-1-inside-1_3_19" fill="white">
<path d="M13.9171 44H8.91215C8.46881 44 8.09548 43.8717 7.79215 43.615C7.51215 43.335 7.34881 43.02 7.30215 42.67L4.08215 20.375V20.27C4.08215 20.06 4.15215 19.885 4.29215 19.745C4.45548 19.5817 4.64215 19.5 4.85215 19.5H11.3621C12.1321 19.5 12.5521 19.815 12.6221 20.445L13.8121 30.315L15.2471 25.94C15.4805 25.2633 15.8771 24.925 16.4371 24.925H20.0071C20.5671 24.925 20.9638 25.2633 21.1971 25.94L22.6321 30.28L23.8221 20.445C23.8921 19.815 24.3121 19.5 25.0821 19.5H31.5921C31.8021 19.5 31.9771 19.5817 32.1171 19.745C32.2805 19.885 32.3621 20.06 32.3621 20.27V20.375L29.1421 42.67C29.0955 43.02 28.9205 43.335 28.6171 43.615C28.3371 43.8717 27.9755 44 27.5321 44H22.5271C21.8038 44 21.3255 43.685 21.0921 43.055L18.2221 35.88L15.3521 43.055C15.1188 43.685 14.6405 44 13.9171 44ZM44.2597 37.175H55.0397C55.2964 37.175 55.518 37.2683 55.7047 37.455C55.8914 37.6417 55.9847 37.8633 55.9847 38.12V43.055C55.9847 43.3117 55.8914 43.5333 55.7047 43.72C55.518 43.9067 55.2964 44 55.0397 44H36.8047C36.548 44 36.3264 43.9067 36.1397 43.72C35.953 43.5333 35.8597 43.3117 35.8597 43.055V20.445C35.8597 20.1883 35.953 19.9667 36.1397 19.78C36.3264 19.5933 36.548 19.5 36.8047 19.5H54.7597C55.0164 19.5 55.238 19.5933 55.4247 19.78C55.6114 19.9667 55.7047 20.1883 55.7047 20.445V25.38C55.7047 25.6367 55.6114 25.8583 55.4247 26.045C55.238 26.2317 55.0164 26.325 54.7597 26.325H44.2597V28.53H53.9897C54.2464 28.53 54.468 28.6233 54.6547 28.81C54.8414 28.9967 54.9347 29.2183 54.9347 29.475V34.025C54.9347 34.2817 54.8414 34.5033 54.6547 34.69C54.468 34.8767 54.2464 34.97 53.9897 34.97H44.2597V37.175ZM61.1406 19.5H71.2206C74.6273 19.5 77.4273 20.3517 79.6206 22.055C81.8373 23.735 82.9456 26.0917 82.9456 29.125V34.34C82.9456 37.5133 81.8723 39.9167 79.7256 41.55C77.579 43.1833 74.7556 44 71.2556 44H61.1406C60.884 44 60.6623 43.9067 60.4756 43.72C60.289 43.5333 60.1956 43.3117 60.1956 43.055V20.445C60.1956 20.1883 60.289 19.9667 60.4756 19.78C60.6623 19.5933 60.884 19.5 61.1406 19.5ZM68.9456 26.325V37.175H71.2206C72.014 37.175 72.644 36.9417 73.1106 36.475C73.6006 35.985 73.8456 35.2733 73.8456 34.34V29.125C73.8456 27.2583 72.9706 26.325 71.2206 26.325H68.9456ZM101.557 19.5H107.892C108.149 19.5 108.371 19.5933 108.557 19.78C108.744 19.9667 108.837 20.1883 108.837 20.445V43.055C108.837 43.3117 108.744 43.5333 108.557 43.72C108.371 43.9067 108.149 44 107.892 44H102.362C101.756 44 101.277 43.7317 100.927 43.195L95.0124 34.27V43.055C95.0124 43.3117 94.9191 43.5333 94.7324 43.72C94.5458 43.9067 94.3241 44 94.0674 44H87.7324C87.4758 44 87.2541 43.9067 87.0674 43.72C86.8808 43.5333 86.7874 43.3117 86.7874 43.055V20.445C86.7874 20.1883 86.8808 19.9667 87.0674 19.78C87.2541 19.5933 87.4758 19.5 87.7324 19.5H93.2624C93.9158 19.5 94.3941 19.7683 94.6974 20.305L100.612 30V20.445C100.612 20.1883 100.706 19.9667 100.892 19.78C101.079 19.5933 101.301 19.5 101.557 19.5ZM121.779 37.175H132.559C132.816 37.175 133.038 37.2683 133.224 37.455C133.411 37.6417 133.504 37.8633 133.504 38.12V43.055C133.504 43.3117 133.411 43.5333 133.224 43.72C133.038 43.9067 132.816 44 132.559 44H114.324C114.068 44 113.846 43.9067 113.659 43.72C113.473 43.5333 113.379 43.3117 113.379 43.055V20.445C113.379 20.1883 113.473 19.9667 113.659 19.78C113.846 19.5933 114.068 19.5 114.324 19.5H132.279C132.536 19.5 132.758 19.5933 132.944 19.78C133.131 19.9667 133.224 20.1883 133.224 20.445V25.38C133.224 25.6367 133.131 25.8583 132.944 26.045C132.758 26.2317 132.536 26.325 132.279 26.325H121.779V28.53H131.509C131.766 28.53 131.988 28.6233 132.174 28.81C132.361 28.9967 132.454 29.2183 132.454 29.475V34.025C132.454 34.2817 132.361 34.5033 132.174 34.69C131.988 34.8767 131.766 34.97 131.509 34.97H121.779V37.175ZM137.085 27.2C137.085 24.82 138.065 22.8833 140.025 21.39C142.008 19.8967 144.598 19.15 147.795 19.15C151.015 19.15 153.64 19.9317 155.67 21.495C157.723 23.0583 158.75 24.6917 158.75 26.395C158.75 26.605 158.668 26.7917 158.505 26.955C158.365 27.095 158.202 27.165 158.015 27.165H151.015C150.478 27.165 149.988 26.9667 149.545 26.57C149.102 26.1733 148.507 25.975 147.76 25.975C146.64 25.975 146.08 26.3017 146.08 26.955C146.08 27.305 146.348 27.5967 146.885 27.83C147.445 28.0633 148.472 28.2733 149.965 28.46C153.442 28.9033 155.915 29.72 157.385 30.91C158.878 32.0767 159.625 33.8617 159.625 36.265C159.625 38.645 158.528 40.5933 156.335 42.11C154.165 43.6033 151.318 44.35 147.795 44.35C144.272 44.35 141.507 43.6267 139.5 42.18C137.493 40.7333 136.49 38.9717 136.49 36.895C136.49 36.685 136.56 36.51 136.7 36.37C136.863 36.2067 137.05 36.125 137.26 36.125H143.91C144.4 36.125 144.937 36.3583 145.52 36.825C146.127 37.2917 146.955 37.525 148.005 37.525C149.755 37.525 150.63 37.1983 150.63 36.545C150.63 36.125 150.315 35.81 149.685 35.6C149.055 35.3667 147.865 35.1333 146.115 34.9C140.095 34.1067 137.085 31.54 137.085 27.2ZM163.885 19.5H173.965C177.371 19.5 180.171 20.3517 182.365 22.055C184.581 23.735 185.69 26.0917 185.69 29.125V34.34C185.69 37.5133 184.616 39.9167 182.47 41.55C180.323 43.1833 177.5 44 174 44H163.885C163.628 44 163.406 43.9067 163.22 43.72C163.033 43.5333 162.94 43.3117 162.94 43.055V20.445C162.94 20.1883 163.033 19.9667 163.22 19.78C163.406 19.5933 163.628 19.5 163.885 19.5ZM171.69 26.325V37.175H173.965C174.758 37.175 175.388 36.9417 175.855 36.475C176.345 35.985 176.59 35.2733 176.59 34.34V29.125C176.59 27.2583 175.715 26.325 173.965 26.325H171.69ZM197.197 19.5H204.792C205.632 19.5 206.157 19.885 206.367 20.655L214.172 42.985C214.195 43.055 214.207 43.1717 214.207 43.335C214.207 43.475 214.125 43.6267 213.962 43.79C213.822 43.93 213.647 44 213.437 44H206.962C206.262 44 205.807 43.7083 205.597 43.125L204.757 40.815H197.232L196.392 43.125C196.182 43.7083 195.727 44 195.027 44H188.552C188.342 44 188.155 43.93 187.992 43.79C187.852 43.6267 187.782 43.475 187.782 43.335C187.782 43.1717 187.793 43.055 187.817 42.985L195.622 20.655C195.832 19.885 196.357 19.5 197.197 19.5ZM199.017 33.99H202.972L200.977 27.48L199.017 33.99ZM230.837 44H223.977C223.72 44 223.499 43.9067 223.312 43.72C223.125 43.5333 223.032 43.3117 223.032 43.055V36.16L215.157 20.585C215.11 20.4917 215.087 20.3633 215.087 20.2C215.087 20.0367 215.157 19.885 215.297 19.745C215.46 19.5817 215.647 19.5 215.857 19.5H222.437C223.137 19.5 223.627 19.7917 223.907 20.375L227.407 27.41L230.907 20.375C231.187 19.7917 231.677 19.5 232.377 19.5H238.957C239.167 19.5 239.342 19.5817 239.482 19.745C239.645 19.885 239.727 20.0367 239.727 20.2C239.727 20.3633 239.704 20.4917 239.657 20.585L231.782 36.16V43.055C231.782 43.3117 231.689 43.5333 231.502 43.72C231.315 43.9067 231.094 44 230.837 44Z"/>
</mask>
<path d="M7.79215 43.615L7.08504 44.3221L7.11445 44.3515L7.14621 44.3784L7.79215 43.615ZM7.30215 42.67L8.29343 42.5378L8.29188 42.5271L7.30215 42.67ZM4.08215 20.375H3.08215V20.4468L3.09242 20.5179L4.08215 20.375ZM4.29215 19.745L4.99925 20.4521L4.99926 20.4521L4.29215 19.745ZM12.6221 20.445L11.6282 20.5554L11.6293 20.5647L12.6221 20.445ZM13.8121 30.315L12.8193 30.4347L14.7623 30.6267L13.8121 30.315ZM15.2471 25.94L14.3018 25.614L14.2993 25.6212L14.297 25.6283L15.2471 25.94ZM21.1971 25.94L22.1467 25.626L22.1425 25.614L21.1971 25.94ZM22.6321 30.28L21.6827 30.5939L23.6249 30.4001L22.6321 30.28ZM23.8221 20.445L24.815 20.5651L24.816 20.5554L23.8221 20.445ZM32.1171 19.745L31.3579 20.3958L31.408 20.4542L31.4664 20.5043L32.1171 19.745ZM32.3621 20.375L33.3519 20.5179L33.3621 20.4468V20.375H32.3621ZM29.1421 42.67L28.1524 42.527L28.1509 42.5378L29.1421 42.67ZM28.6171 43.615L29.2929 44.3522L29.2954 44.3498L28.6171 43.615ZM21.0921 43.055L22.0299 42.7077L22.0254 42.6956L22.0206 42.6836L21.0921 43.055ZM18.2221 35.88L19.1506 35.5086L18.2221 33.1874L17.2937 35.5086L18.2221 35.88ZM15.3521 43.055L14.4237 42.6836L14.4189 42.6956L14.4144 42.7077L15.3521 43.055ZM13.9171 43H8.91215V45H13.9171V43ZM8.91215 43C8.67611 43 8.53975 42.9376 8.43809 42.8516L7.14621 44.3784C7.65122 44.8057 8.26151 45 8.91215 45V43ZM8.49925 42.9079C8.35467 42.7633 8.30752 42.6439 8.29338 42.5378L6.31092 42.8022C6.39011 43.3961 6.66962 43.9067 7.08504 44.3221L8.49925 42.9079ZM8.29188 42.5271L5.07188 20.2321L3.09242 20.5179L6.31242 42.8129L8.29188 42.5271ZM5.08215 20.375V20.27H3.08215V20.375H5.08215ZM5.08215 20.27C5.08215 20.2777 5.08047 20.3093 5.06312 20.3526C5.04531 20.3972 5.02009 20.4313 4.99925 20.4521L3.58504 19.0379C3.24525 19.3777 3.08215 19.8126 3.08215 20.27H5.08215ZM4.99926 20.4521C5.00445 20.4469 4.99061 20.462 4.95547 20.4774C4.91849 20.4936 4.88077 20.5 4.85215 20.5V18.5C4.34916 18.5 3.91532 18.7076 3.58504 19.0379L4.99926 20.4521ZM4.85215 20.5H11.3621V18.5H4.85215V20.5ZM11.3621 20.5C11.6276 20.5 11.6818 20.5566 11.6546 20.5362C11.6377 20.5236 11.6232 20.5053 11.6163 20.4919C11.6113 20.4822 11.6218 20.4973 11.6283 20.5554L13.616 20.3346C13.5574 19.8066 13.3305 19.2931 12.8546 18.9362C12.4075 18.6009 11.8667 18.5 11.3621 18.5V20.5ZM11.6293 20.5647L12.8193 30.4347L14.805 30.1953L13.615 20.3253L11.6293 20.5647ZM14.7623 30.6267L16.1973 26.2517L14.297 25.6283L12.862 30.0033L14.7623 30.6267ZM16.1925 26.266C16.2718 26.0361 16.3476 25.9575 16.3686 25.9396C16.3772 25.9322 16.3802 25.9316 16.3812 25.9312C16.3832 25.9305 16.399 25.925 16.4371 25.925V23.925C15.9383 23.925 15.464 24.0825 15.0707 24.4179C14.695 24.7384 14.4558 25.1672 14.3018 25.614L16.1925 26.266ZM16.4371 25.925H20.0071V23.925H16.4371V25.925ZM20.0071 25.925C20.0453 25.925 20.0611 25.9305 20.0631 25.9312C20.0641 25.9316 20.0671 25.9322 20.0757 25.9396C20.0967 25.9575 20.1725 26.0361 20.2518 26.266L22.1425 25.614C21.9884 25.1672 21.7493 24.7384 21.3736 24.4179C20.9803 24.0825 20.506 23.925 20.0071 23.925V25.925ZM20.2477 26.2539L21.6827 30.5939L23.5816 29.9661L22.1466 25.6261L20.2477 26.2539ZM23.6249 30.4001L24.8149 20.5651L22.8294 20.3249L21.6394 30.1599L23.6249 30.4001ZM24.816 20.5554C24.8225 20.4973 24.833 20.4822 24.828 20.4919C24.8211 20.5053 24.8066 20.5236 24.7896 20.5362C24.7625 20.5566 24.8167 20.5 25.0821 20.5V18.5C24.5776 18.5 24.0368 18.6009 23.5896 18.9362C23.1138 19.2931 22.8869 19.8066 22.8283 20.3346L24.816 20.5554ZM25.0821 20.5H31.5921V18.5H25.0821V20.5ZM31.5921 20.5C31.564 20.5 31.5142 20.4936 31.458 20.4674C31.4025 20.4415 31.3699 20.4098 31.3579 20.3958L32.8764 19.0942C32.5518 18.7154 32.1022 18.5 31.5921 18.5V20.5ZM31.4664 20.5043C31.4523 20.4922 31.4206 20.4597 31.3947 20.4041C31.3685 20.348 31.3621 20.2982 31.3621 20.27H33.3621C33.3621 19.76 33.1467 19.3104 32.7679 18.9857L31.4664 20.5043ZM31.3621 20.27V20.375H33.3621V20.27H31.3621ZM31.3724 20.2321L28.1524 42.5271L30.1319 42.8129L33.3519 20.5179L31.3724 20.2321ZM28.1509 42.5378C28.1401 42.6186 28.1012 42.7303 27.9389 42.8802L29.2954 44.3498C29.7397 43.9397 30.0508 43.4214 30.1334 42.8022L28.1509 42.5378ZM27.9414 42.8778C27.8763 42.9376 27.7698 43 27.5321 43V45C28.1811 45 28.798 44.8058 29.2929 44.3522L27.9414 42.8778ZM27.5321 43H22.5271V45H27.5321V43ZM22.5271 43C22.3097 43 22.2137 42.9535 22.1759 42.9286C22.144 42.9076 22.0858 42.8586 22.0299 42.7077L20.1544 43.4023C20.3318 43.8814 20.6295 44.3049 21.0759 44.5989C21.5165 44.889 22.0212 45 22.5271 45V43ZM22.0206 42.6836L19.1506 35.5086L17.2937 36.2514L20.1637 43.4264L22.0206 42.6836ZM17.2937 35.5086L14.4237 42.6836L16.2806 43.4264L19.1506 36.2514L17.2937 35.5086ZM14.4144 42.7077C14.3585 42.8586 14.3003 42.9076 14.2684 42.9286C14.2306 42.9535 14.1346 43 13.9171 43V45C14.4231 45 14.9278 44.889 15.3684 44.5989C15.8148 44.3049 16.1125 43.8814 16.2899 43.4023L14.4144 42.7077ZM44.2597 37.175H43.2597V38.175H44.2597V37.175ZM36.1397 43.72L36.8468 43.0129L36.8468 43.0129L36.1397 43.72ZM36.1397 19.78L36.8468 20.4871L36.8468 20.4871L36.1397 19.78ZM55.4247 19.78L54.7176 20.4871L54.7176 20.4871L55.4247 19.78ZM55.4247 26.045L54.7176 25.3379L54.7176 25.3379L55.4247 26.045ZM44.2597 26.325V25.325H43.2597V26.325H44.2597ZM44.2597 28.53H43.2597V29.53H44.2597V28.53ZM54.6547 28.81L55.3618 28.1029L55.3618 28.1029L54.6547 28.81ZM54.6547 34.69L55.3618 35.3971L55.3618 35.3971L54.6547 34.69ZM44.2597 34.97V33.97H43.2597V34.97H44.2597ZM44.2597 38.175H55.0397V36.175H44.2597V38.175ZM55.0397 38.175C55.043 38.175 55.0407 38.1753 55.0341 38.174C55.0274 38.1727 55.0191 38.1703 55.0104 38.1666C55.0017 38.163 54.9957 38.1593 54.9926 38.1572C54.9897 38.1552 54.9915 38.1561 54.9976 38.1621L56.4118 36.7479C56.0436 36.3797 55.5699 36.175 55.0397 36.175V38.175ZM54.9976 38.1621C55.0036 38.1682 55.0044 38.17 55.0025 38.1671C55.0004 38.164 54.9967 38.158 54.9931 38.1493C54.9894 38.1406 54.987 38.1323 54.9857 38.1256C54.9844 38.119 54.9847 38.1167 54.9847 38.12H56.9847C56.9847 37.5898 56.78 37.1161 56.4118 36.7479L54.9976 38.1621ZM54.9847 38.12V43.055H56.9847V38.12H54.9847ZM54.9847 43.055C54.9847 43.0583 54.9844 43.056 54.9857 43.0494C54.987 43.0427 54.9894 43.0344 54.9931 43.0257C54.9967 43.017 55.0004 43.011 55.0025 43.0079C55.0044 43.005 55.0036 43.0068 54.9976 43.0129L56.4118 44.4271C56.78 44.0589 56.9847 43.5852 56.9847 43.055H54.9847ZM54.9976 43.0129C54.9915 43.0189 54.9897 43.0198 54.9926 43.0178C54.9957 43.0157 55.0017 43.012 55.0104 43.0084C55.0191 43.0047 55.0274 43.0023 55.0341 43.001C55.0407 42.9997 55.043 43 55.0397 43V45C55.5699 45 56.0436 44.7953 56.4118 44.4271L54.9976 43.0129ZM55.0397 43H36.8047V45H55.0397V43ZM36.8047 43C36.8014 43 36.8037 42.9997 36.8103 43.001C36.817 43.0023 36.8253 43.0047 36.834 43.0084C36.8427 43.012 36.8487 43.0157 36.8518 43.0178C36.8547 43.0198 36.8528 43.0189 36.8468 43.0129L35.4326 44.4271C35.8008 44.7953 36.2745 45 36.8047 45V43ZM36.8468 43.0129C36.8407 43.0068 36.8399 43.005 36.8419 43.0079C36.844 43.011 36.8477 43.017 36.8513 43.0257C36.855 43.0344 36.8574 43.0427 36.8587 43.0494C36.86 43.056 36.8597 43.0583 36.8597 43.055H34.8597C34.8597 43.5852 35.0644 44.0589 35.4326 44.4271L36.8468 43.0129ZM36.8597 43.055V20.445H34.8597V43.055H36.8597ZM36.8597 20.445C36.8597 20.4417 36.86 20.444 36.8587 20.4506C36.8574 20.4573 36.855 20.4656 36.8513 20.4743C36.8477 20.483 36.844 20.489 36.8419 20.4921C36.8399 20.495 36.8407 20.4932 36.8468 20.4871L35.4326 19.0729C35.0644 19.4411 34.8597 19.9148 34.8597 20.445H36.8597ZM36.8468 20.4871C36.8528 20.4811 36.8547 20.4802 36.8518 20.4822C36.8487 20.4843 36.8427 20.488 36.834 20.4916C36.8253 20.4953 36.817 20.4977 36.8103 20.499C36.8037 20.5003 36.8014 20.5 36.8047 20.5V18.5C36.2745 18.5 35.8008 18.7047 35.4326 19.0729L36.8468 20.4871ZM36.8047 20.5H54.7597V18.5H36.8047V20.5ZM54.7597 20.5C54.763 20.5 54.7607 20.5003 54.7541 20.499C54.7474 20.4977 54.7391 20.4953 54.7304 20.4916C54.7217 20.488 54.7157 20.4843 54.7126 20.4822C54.7097 20.4802 54.7115 20.4811 54.7176 20.4871L56.1318 19.0729C55.7636 18.7047 55.2899 18.5 54.7597 18.5V20.5ZM54.7176 20.4871C54.7236 20.4932 54.7244 20.495 54.7225 20.4921C54.7204 20.489 54.7167 20.483 54.7131 20.4743C54.7094 20.4656 54.707 20.4573 54.7057 20.4506C54.7044 20.444 54.7047 20.4417 54.7047 20.445H56.7047C56.7047 19.9148 56.5 19.4411 56.1318 19.0729L54.7176 20.4871ZM54.7047 20.445V25.38H56.7047V20.445H54.7047ZM54.7047 25.38C54.7047 25.3833 54.7044 25.381 54.7057 25.3744C54.707 25.3677 54.7094 25.3594 54.7131 25.3507C54.7167 25.342 54.7204 25.336 54.7225 25.3329C54.7244 25.33 54.7236 25.3318 54.7176 25.3379L56.1318 26.7521C56.5 26.3839 56.7047 25.9102 56.7047 25.38H54.7047ZM54.7176 25.3379C54.7115 25.3439 54.7097 25.3448 54.7126 25.3428C54.7157 25.3407 54.7217 25.337 54.7304 25.3334C54.7391 25.3297 54.7474 25.3273 54.7541 25.326C54.7607 25.3247 54.763 25.325 54.7597 25.325V27.325C55.2899 27.325 55.7636 27.1203 56.1318 26.7521L54.7176 25.3379ZM54.7597 25.325H44.2597V27.325H54.7597V25.325ZM43.2597 26.325V28.53H45.2597V26.325H43.2597ZM44.2597 29.53H53.9897V27.53H44.2597V29.53ZM53.9897 29.53C53.993 29.53 53.9907 29.5303 53.9841 29.529C53.9774 29.5277 53.9691 29.5253 53.9604 29.5216C53.9517 29.518 53.9457 29.5143 53.9426 29.5122C53.9397 29.5102 53.9415 29.5111 53.9476 29.5171L55.3618 28.1029C54.9936 27.7347 54.5199 27.53 53.9897 27.53V29.53ZM53.9476 29.5171C53.9536 29.5232 53.9544 29.525 53.9525 29.5221C53.9504 29.519 53.9467 29.513 53.9431 29.5043C53.9394 29.4956 53.937 29.4873 53.9357 29.4806C53.9344 29.474 53.9347 29.4717 53.9347 29.475H55.9347C55.9347 28.9448 55.73 28.4711 55.3618 28.1029L53.9476 29.5171ZM53.9347 29.475V34.025H55.9347V29.475H53.9347ZM53.9347 34.025C53.9347 34.0283 53.9344 34.026 53.9357 34.0194C53.937 34.0127 53.9394 34.0044 53.9431 33.9957C53.9467 33.987 53.9504 33.981 53.9525 33.9779C53.9544 33.975 53.9536 33.9768 53.9476 33.9829L55.3618 35.3971C55.73 35.0289 55.9347 34.5552 55.9347 34.025H53.9347ZM53.9476 33.9829C53.9415 33.9889 53.9397 33.9898 53.9426 33.9878C53.9457 33.9857 53.9517 33.982 53.9604 33.9784C53.9691 33.9747 53.9774 33.9723 53.9841 33.971C53.9907 33.9697 53.993 33.97 53.9897 33.97V35.97C54.5199 35.97 54.9936 35.7653 55.3618 35.3971L53.9476 33.9829ZM53.9897 33.97H44.2597V35.97H53.9897V33.97ZM43.2597 34.97V37.175H45.2597V34.97H43.2597ZM79.6206 22.055L79.0072 22.8449L79.0166 22.852L79.6206 22.055ZM60.4756 43.72L61.1827 43.0129L61.1827 43.0129L60.4756 43.72ZM60.4756 19.78L61.1827 20.4871L61.1827 20.4871L60.4756 19.78ZM68.9456 26.325V25.325H67.9456V26.325H68.9456ZM68.9456 37.175H67.9456V38.175H68.9456V37.175ZM73.1106 36.475L72.4035 35.7679L72.4035 35.7679L73.1106 36.475ZM61.1406 20.5H71.2206V18.5H61.1406V20.5ZM71.2206 20.5C74.4568 20.5 77.0262 21.3063 79.0073 22.8448L80.234 21.2652C77.8284 19.397 74.7978 18.5 71.2206 18.5V20.5ZM79.0166 22.852C80.9588 24.324 81.9456 26.3719 81.9456 29.125H83.9456C83.9456 25.8114 82.7157 23.146 80.2246 21.258L79.0166 22.852ZM81.9456 29.125V34.34H83.9456V29.125H81.9456ZM81.9456 34.34C81.9456 37.2632 80.9726 39.3447 79.1201 40.7542L80.3311 42.3458C82.772 40.4887 83.9456 37.7635 83.9456 34.34H81.9456ZM79.1201 40.7542C77.1932 42.2203 74.6022 43 71.2556 43V45C74.909 45 77.9647 44.1464 80.3311 42.3458L79.1201 40.7542ZM71.2556 43H61.1406V45H71.2556V43ZM61.1406 43C61.1373 43 61.1396 42.9997 61.1462 43.001C61.1529 43.0023 61.1612 43.0047 61.1699 43.0084C61.1786 43.012 61.1847 43.0157 61.1877 43.0178C61.1906 43.0198 61.1888 43.0189 61.1827 43.0129L59.7685 44.4271C60.1367 44.7953 60.6104 45 61.1406 45V43ZM61.1827 43.0129C61.1767 43.0068 61.1759 43.005 61.1779 43.0079C61.1799 43.011 61.1836 43.017 61.1873 43.0257C61.1909 43.0344 61.1933 43.0427 61.1946 43.0494C61.1959 43.056 61.1956 43.0583 61.1956 43.055H59.1956C59.1956 43.5852 59.4003 44.0589 59.7685 44.4271L61.1827 43.0129ZM61.1956 43.055V20.445H59.1956V43.055H61.1956ZM61.1956 20.445C61.1956 20.4417 61.1959 20.444 61.1946 20.4506C61.1933 20.4573 61.1909 20.4656 61.1873 20.4743C61.1836 20.483 61.1799 20.489 61.1779 20.4921C61.1759 20.495 61.1767 20.4932 61.1827 20.4871L59.7685 19.0729C59.4003 19.4411 59.1956 19.9148 59.1956 20.445H61.1956ZM61.1827 20.4871C61.1888 20.4811 61.1906 20.4802 61.1877 20.4822C61.1847 20.4843 61.1786 20.488 61.1699 20.4916C61.1612 20.4953 61.1529 20.4977 61.1462 20.499C61.1396 20.5003 61.1373 20.5 61.1406 20.5V18.5C60.6104 18.5 60.1367 18.7047 59.7685 19.0729L61.1827 20.4871ZM67.9456 26.325V37.175H69.9456V26.325H67.9456ZM68.9456 38.175H71.2206V36.175H68.9456V38.175ZM71.2206 38.175C72.2218 38.175 73.1265 37.8733 73.8177 37.1821L72.4035 35.7679C72.1614 36.01 71.8061 36.175 71.2206 36.175V38.175ZM73.8177 37.1821C74.553 36.4468 74.8456 35.4438 74.8456 34.34H72.8456C72.8456 35.1028 72.6482 35.5232 72.4035 35.7679L73.8177 37.1821ZM74.8456 34.34V29.125H72.8456V34.34H74.8456ZM74.8456 29.125C74.8456 28.053 74.5956 27.0629 73.9189 26.3411C73.2308 25.6071 72.2669 25.325 71.2206 25.325V27.325C71.9244 27.325 72.2729 27.5096 72.4598 27.7089C72.6581 27.9204 72.8456 28.3303 72.8456 29.125H74.8456ZM71.2206 25.325H68.9456V27.325H71.2206V25.325ZM100.927 43.195L101.765 42.6487L101.761 42.6426L100.927 43.195ZM95.0124 34.27L95.846 33.7176L94.0124 30.951V34.27H95.0124ZM94.7324 43.72L95.4395 44.4271L95.4395 44.4271L94.7324 43.72ZM87.0674 43.72L87.7745 43.0129L87.7745 43.0129L87.0674 43.72ZM87.0674 19.78L87.7745 20.4871L87.7745 20.4871L87.0674 19.78ZM94.6974 20.305L93.8269 20.7971L93.8351 20.8116L93.8438 20.8258L94.6974 20.305ZM100.612 30L99.7588 30.5208L101.612 33.5591V30H100.612ZM100.892 19.78L101.6 20.4871L101.6 20.4871L100.892 19.78ZM101.557 20.5H107.892V18.5H101.557V20.5ZM107.892 20.5C107.896 20.5 107.893 20.5003 107.887 20.499C107.88 20.4977 107.872 20.4953 107.863 20.4916C107.854 20.488 107.848 20.4843 107.845 20.4822C107.842 20.4802 107.844 20.4811 107.85 20.4871L109.265 19.0729C108.896 18.7047 108.423 18.5 107.892 18.5V20.5ZM107.85 20.4871C107.856 20.4932 107.857 20.495 107.855 20.4921C107.853 20.489 107.849 20.483 107.846 20.4743C107.842 20.4656 107.84 20.4573 107.838 20.4506C107.837 20.444 107.837 20.4417 107.837 20.445H109.837C109.837 19.9148 109.633 19.4411 109.265 19.0729L107.85 20.4871ZM107.837 20.445V43.055H109.837V20.445H107.837ZM107.837 43.055C107.837 43.0583 107.837 43.056 107.838 43.0494C107.84 43.0427 107.842 43.0344 107.846 43.0257C107.849 43.017 107.853 43.011 107.855 43.0079C107.857 43.005 107.856 43.0068 107.85 43.0129L109.265 44.4271C109.633 44.0589 109.837 43.5852 109.837 43.055H107.837ZM107.85 43.0129C107.844 43.0189 107.842 43.0198 107.845 43.0178C107.848 43.0157 107.854 43.012 107.863 43.0084C107.872 43.0047 107.88 43.0023 107.887 43.001C107.893 42.9997 107.896 43 107.892 43V45C108.423 45 108.896 44.7953 109.265 44.4271L107.85 43.0129ZM107.892 43H102.362V45H107.892V43ZM102.362 43C102.116 43 101.943 42.9214 101.765 42.6487L100.09 43.7413C100.612 44.542 101.396 45 102.362 45V43ZM101.761 42.6426L95.846 33.7176L94.1789 34.8224L100.094 43.7474L101.761 42.6426ZM94.0124 34.27V43.055H96.0124V34.27H94.0124ZM94.0124 43.055C94.0124 43.0583 94.0122 43.056 94.0134 43.0494C94.0147 43.0427 94.0171 43.0344 94.0208 43.0257C94.0244 43.017 94.0281 43.011 94.0302 43.0079C94.0322 43.005 94.0314 43.0068 94.0253 43.0129L95.4395 44.4271C95.8077 44.0589 96.0124 43.5852 96.0124 43.055H94.0124ZM94.0253 43.0129C94.0193 43.0189 94.0174 43.0198 94.0203 43.0178C94.0234 43.0157 94.0295 43.012 94.0381 43.0084C94.0468 43.0047 94.0551 43.0023 94.0618 43.001C94.0684 42.9997 94.0707 43 94.0674 43V45C94.5976 45 95.0713 44.7953 95.4395 44.4271L94.0253 43.0129ZM94.0674 43H87.7324V45H94.0674V43ZM87.7324 43C87.7291 43 87.7314 42.9997 87.738 43.001C87.7447 43.0023 87.753 43.0047 87.7617 43.0084C87.7704 43.012 87.7765 43.0157 87.7795 43.0178C87.7824 43.0198 87.7806 43.0189 87.7745 43.0129L86.3603 44.4271C86.7285 44.7953 87.2022 45 87.7324 45V43ZM87.7745 43.0129C87.7685 43.0068 87.7677 43.005 87.7696 43.0079C87.7717 43.011 87.7754 43.017 87.7791 43.0257C87.7827 43.0344 87.7851 43.0427 87.7864 43.0494C87.7877 43.056 87.7874 43.0583 87.7874 43.055H85.7874C85.7874 43.5852 85.9921 44.0589 86.3603 44.4271L87.7745 43.0129ZM87.7874 43.055V20.445H85.7874V43.055H87.7874ZM87.7874 20.445C87.7874 20.4417 87.7877 20.444 87.7864 20.4506C87.7851 20.4573 87.7827 20.4656 87.7791 20.4743C87.7754 20.483 87.7717 20.489 87.7696 20.4921C87.7677 20.495 87.7685 20.4932 87.7745 20.4871L86.3603 19.0729C85.9921 19.4411 85.7874 19.9148 85.7874 20.445H87.7874ZM87.7745 20.4871C87.7806 20.4811 87.7824 20.4802 87.7795 20.4822C87.7765 20.4843 87.7704 20.488 87.7617 20.4916C87.753 20.4953 87.7447 20.4977 87.738 20.499C87.7314 20.5003 87.7291 20.5 87.7324 20.5V18.5C87.2022 18.5 86.7285 18.7047 86.3603 19.0729L87.7745 20.4871ZM87.7324 20.5H93.2624V18.5H87.7324V20.5ZM93.2624 20.5C93.5818 20.5 93.7136 20.5967 93.8269 20.7971L95.568 19.8129C95.0746 18.94 94.2498 18.5 93.2624 18.5V20.5ZM93.8438 20.8258L99.7588 30.5208L101.466 29.4792L95.5511 19.7842L93.8438 20.8258ZM101.612 30V20.445H99.6124V30H101.612ZM101.612 20.445C101.612 20.4417 101.613 20.444 101.611 20.4506C101.61 20.4573 101.608 20.4656 101.604 20.4743C101.6 20.483 101.597 20.489 101.595 20.4921C101.593 20.495 101.593 20.4932 101.6 20.4871L100.185 19.0729C99.8171 19.4411 99.6124 19.9148 99.6124 20.445H101.612ZM101.6 20.4871C101.606 20.4811 101.607 20.4802 101.605 20.4822C101.601 20.4843 101.595 20.488 101.587 20.4916C101.578 20.4953 101.57 20.4977 101.563 20.499C101.556 20.5003 101.554 20.5 101.557 20.5V18.5C101.027 18.5 100.554 18.7047 100.185 19.0729L101.6 20.4871ZM121.779 37.175H120.779V38.175H121.779V37.175ZM113.659 43.72L114.366 43.0129L114.366 43.0129L113.659 43.72ZM113.659 19.78L114.366 20.4871L114.366 20.4871L113.659 19.78ZM132.944 19.78L132.237 20.4871L132.237 20.4871L132.944 19.78ZM132.944 26.045L132.237 25.3379L132.237 25.3379L132.944 26.045ZM121.779 26.325V25.325H120.779V26.325H121.779ZM121.779 28.53H120.779V29.53H121.779V28.53ZM132.174 28.81L132.881 28.1029L132.881 28.1029L132.174 28.81ZM132.174 34.69L132.881 35.3971L132.881 35.3971L132.174 34.69ZM121.779 34.97V33.97H120.779V34.97H121.779ZM121.779 38.175H132.559V36.175H121.779V38.175ZM132.559 38.175C132.563 38.175 132.56 38.1753 132.554 38.174C132.547 38.1727 132.539 38.1703 132.53 38.1666C132.521 38.163 132.515 38.1593 132.512 38.1572C132.509 38.1552 132.511 38.1561 132.517 38.1621L133.931 36.7479C133.563 36.3797 133.089 36.175 132.559 36.175V38.175ZM132.517 38.1621C132.523 38.1682 132.524 38.17 132.522 38.1671C132.52 38.164 132.516 38.158 132.513 38.1493C132.509 38.1406 132.507 38.1323 132.505 38.1256C132.504 38.119 132.504 38.1167 132.504 38.12H134.504C134.504 37.5898 134.3 37.1161 133.931 36.7479L132.517 38.1621ZM132.504 38.12V43.055H134.504V38.12H132.504ZM132.504 43.055C132.504 43.0583 132.504 43.056 132.505 43.0494C132.507 43.0427 132.509 43.0344 132.513 43.0257C132.516 43.017 132.52 43.011 132.522 43.0079C132.524 43.005 132.523 43.0068 132.517 43.0129L133.931 44.4271C134.3 44.0589 134.504 43.5852 134.504 43.055H132.504ZM132.517 43.0129C132.511 43.0189 132.509 43.0198 132.512 43.0178C132.515 43.0157 132.521 43.012 132.53 43.0084C132.539 43.0047 132.547 43.0023 132.554 43.001C132.56 42.9997 132.563 43 132.559 43V45C133.089 45 133.563 44.7953 133.931 44.4271L132.517 43.0129ZM132.559 43H114.324V45H132.559V43ZM114.324 43C114.321 43 114.323 42.9997 114.33 43.001C114.337 43.0023 114.345 43.0047 114.354 43.0084C114.362 43.012 114.368 43.0157 114.371 43.0178C114.374 43.0198 114.372 43.0189 114.366 43.0129L112.952 44.4271C113.32 44.7953 113.794 45 114.324 45V43ZM114.366 43.0129C114.36 43.0068 114.359 43.005 114.361 43.0079C114.364 43.011 114.367 43.017 114.371 43.0257C114.375 43.0344 114.377 43.0427 114.378 43.0494C114.379 43.056 114.379 43.0583 114.379 43.055H112.379C112.379 43.5852 112.584 44.0589 112.952 44.4271L114.366 43.0129ZM114.379 43.055V20.445H112.379V43.055H114.379ZM114.379 20.445C114.379 20.4417 114.379 20.444 114.378 20.4506C114.377 20.4573 114.375 20.4656 114.371 20.4743C114.367 20.483 114.364 20.489 114.361 20.4921C114.359 20.495 114.36 20.4932 114.366 20.4871L112.952 19.0729C112.584 19.4411 112.379 19.9148 112.379 20.445H114.379ZM114.366 20.4871C114.372 20.4811 114.374 20.4802 114.371 20.4822C114.368 20.4843 114.362 20.488 114.354 20.4916C114.345 20.4953 114.337 20.4977 114.33 20.499C114.323 20.5003 114.321 20.5 114.324 20.5V18.5C113.794 18.5 113.32 18.7047 112.952 19.0729L114.366 20.4871ZM114.324 20.5H132.279V18.5H114.324V20.5ZM132.279 20.5C132.283 20.5 132.28 20.5003 132.274 20.499C132.267 20.4977 132.259 20.4953 132.25 20.4916C132.241 20.488 132.235 20.4843 132.232 20.4822C132.229 20.4802 132.231 20.4811 132.237 20.4871L133.651 19.0729C133.283 18.7047 132.809 18.5 132.279 18.5V20.5ZM132.237 20.4871C132.243 20.4932 132.244 20.495 132.242 20.4921C132.24 20.489 132.236 20.483 132.233 20.4743C132.229 20.4656 132.227 20.4573 132.225 20.4506C132.224 20.444 132.224 20.4417 132.224 20.445H134.224C134.224 19.9148 134.02 19.4411 133.651 19.0729L132.237 20.4871ZM132.224 20.445V25.38H134.224V20.445H132.224ZM132.224 25.38C132.224 25.3833 132.224 25.381 132.225 25.3744C132.227 25.3677 132.229 25.3594 132.233 25.3507C132.236 25.342 132.24 25.336 132.242 25.3329C132.244 25.33 132.243 25.3318 132.237 25.3379L133.651 26.7521C134.02 26.3839 134.224 25.9102 134.224 25.38H132.224ZM132.237 25.3379C132.231 25.3439 132.229 25.3448 132.232 25.3428C132.235 25.3407 132.241 25.337 132.25 25.3334C132.259 25.3297 132.267 25.3273 132.274 25.326C132.28 25.3247 132.283 25.325 132.279 25.325V27.325C132.809 27.325 133.283 27.1203 133.651 26.7521L132.237 25.3379ZM132.279 25.325H121.779V27.325H132.279V25.325ZM120.779 26.325V28.53H122.779V26.325H120.779ZM121.779 29.53H131.509V27.53H121.779V29.53ZM131.509 29.53C131.513 29.53 131.51 29.5303 131.504 29.529C131.497 29.5277 131.489 29.5253 131.48 29.5216C131.471 29.518 131.465 29.5143 131.462 29.5122C131.459 29.5102 131.461 29.5111 131.467 29.5171L132.881 28.1029C132.513 27.7347 132.039 27.53 131.509 27.53V29.53ZM131.467 29.5171C131.473 29.5232 131.474 29.525 131.472 29.5221C131.47 29.519 131.466 29.513 131.463 29.5043C131.459 29.4956 131.457 29.4873 131.455 29.4806C131.454 29.474 131.454 29.4717 131.454 29.475H133.454C133.454 28.9448 133.25 28.4711 132.881 28.1029L131.467 29.5171ZM131.454 29.475V34.025H133.454V29.475H131.454ZM131.454 34.025C131.454 34.0283 131.454 34.026 131.455 34.0194C131.457 34.0127 131.459 34.0044 131.463 33.9957C131.466 33.987 131.47 33.981 131.472 33.9779C131.474 33.975 131.473 33.9768 131.467 33.9829L132.881 35.3971C133.25 35.0289 133.454 34.5552 133.454 34.025H131.454ZM131.467 33.9829C131.461 33.9889 131.459 33.9898 131.462 33.9878C131.465 33.9857 131.471 33.982 131.48 33.9784C131.489 33.9747 131.497 33.9723 131.504 33.971C131.51 33.9697 131.513 33.97 131.509 33.97V35.97C132.039 35.97 132.513 35.7653 132.881 35.3971L131.467 33.9829ZM131.509 33.97H121.779V35.97H131.509V33.97ZM120.779 34.97V37.175H122.779V34.97H120.779ZM140.025 21.39L139.424 20.5911L139.419 20.5946L140.025 21.39ZM155.67 21.495L155.06 22.2873L155.064 22.2906L155.67 21.495ZM158.505 26.955L159.212 27.6621L159.212 27.6621L158.505 26.955ZM149.545 26.57L148.878 27.3152L148.878 27.3152L149.545 26.57ZM146.885 27.83L146.486 28.7471L146.493 28.7501L146.501 28.7531L146.885 27.83ZM149.965 28.46L150.092 27.468L150.089 27.4677L149.965 28.46ZM157.385 30.91L156.756 31.6872L156.763 31.6927L156.77 31.698L157.385 30.91ZM156.335 42.11L156.902 42.9338L156.904 42.9325L156.335 42.11ZM139.5 42.18L138.915 42.9912L138.915 42.9912L139.5 42.18ZM136.7 36.37L137.407 37.0771L137.407 37.0771L136.7 36.37ZM145.52 36.825L144.895 37.6059L144.903 37.6118L144.91 37.6176L145.52 36.825ZM149.685 35.6L149.338 36.5377L149.353 36.5435L149.369 36.5487L149.685 35.6ZM146.115 34.9L146.247 33.9088L146.246 33.9086L146.115 34.9ZM138.085 27.2C138.085 25.1448 138.909 23.4974 140.631 22.1854L139.419 20.5946C137.221 22.2692 136.085 24.4952 136.085 27.2H138.085ZM140.627 22.1889C142.392 20.8594 144.753 20.15 147.795 20.15V18.15C144.444 18.15 141.625 18.934 139.424 20.5911L140.627 22.1889ZM147.795 20.15C150.852 20.15 153.246 20.89 155.06 22.2873L156.28 20.7027C154.035 18.9733 151.178 18.15 147.795 18.15V20.15ZM155.064 22.2906C157.001 23.7651 157.75 25.1388 157.75 26.395H159.75C159.75 24.2446 158.446 22.3515 156.276 20.6994L155.064 22.2906ZM157.75 26.395C157.75 26.3664 157.757 26.3287 157.773 26.2917C157.788 26.2565 157.803 26.2427 157.798 26.2479L159.212 27.6621C159.543 27.3318 159.75 26.898 159.75 26.395H157.75ZM157.798 26.2479C157.808 26.2382 157.836 26.2139 157.884 26.1934C157.933 26.1723 157.98 26.165 158.015 26.165V28.165C158.484 28.165 158.897 27.977 159.212 27.6621L157.798 26.2479ZM158.015 26.165H151.015V28.165H158.015V26.165ZM151.015 26.165C150.752 26.165 150.493 26.0766 150.212 25.8248L148.878 27.3152C149.484 27.8568 150.205 28.165 151.015 28.165V26.165ZM150.212 25.8248C149.542 25.2253 148.688 24.975 147.76 24.975V26.975C148.326 26.975 148.662 27.1214 148.878 27.3152L150.212 25.8248ZM147.76 24.975C147.136 24.975 146.504 25.0603 145.996 25.3562C145.406 25.7005 145.08 26.2761 145.08 26.955H147.08C147.08 26.938 147.083 26.9714 147.053 27.0224C147.024 27.0737 146.993 27.0903 147.004 27.0838C147.022 27.0735 147.083 27.0437 147.216 27.0179C147.347 26.9923 147.526 26.975 147.76 26.975V24.975ZM145.08 26.955C145.08 27.9301 145.852 28.4713 146.486 28.7471L147.284 26.9129C147.19 26.8723 147.124 26.8358 147.079 26.8065C147.057 26.792 147.042 26.7803 147.031 26.7719C147.021 26.7635 147.017 26.7591 147.017 26.7592C147.018 26.76 147.036 26.7799 147.053 26.8208C147.071 26.8636 147.08 26.9109 147.08 26.955H145.08ZM146.501 28.7531C147.2 29.0447 148.352 29.2661 149.841 29.4523L150.089 27.4677C148.592 27.2806 147.69 27.082 147.27 26.9069L146.501 28.7531ZM149.839 29.452C153.265 29.8889 155.508 30.6769 156.756 31.6872L158.014 30.1328C156.322 28.7631 153.619 27.9178 150.092 27.468L149.839 29.452ZM156.77 31.698C157.957 32.6257 158.625 34.079 158.625 36.265H160.625C160.625 33.6443 159.8 31.5276 158.001 30.122L156.77 31.698ZM158.625 36.265C158.625 38.2731 157.728 39.9314 155.766 41.2875L156.904 42.9325C159.329 41.2553 160.625 39.0169 160.625 36.265H158.625ZM155.768 41.2862C153.813 42.6318 151.183 43.35 147.795 43.35V45.35C151.454 45.35 154.517 44.5748 156.902 42.9338L155.768 41.2862ZM147.795 43.35C144.396 43.35 141.863 42.6505 140.085 41.3688L138.915 42.9912C141.151 44.6028 144.148 45.35 147.795 45.35V43.35ZM140.085 41.3688C138.282 40.0693 137.49 38.5863 137.49 36.895H135.49C135.49 39.357 136.705 41.3973 138.915 42.9912L140.085 41.3688ZM137.49 36.895C137.49 36.9027 137.488 36.9343 137.471 36.9776C137.453 37.0222 137.428 37.0563 137.407 37.0771L135.993 35.6629C135.653 36.0027 135.49 36.4376 135.49 36.895H137.49ZM137.407 37.0771C137.412 37.0719 137.399 37.087 137.363 37.1024C137.327 37.1186 137.289 37.125 137.26 37.125V35.125C136.757 35.125 136.323 35.3326 135.993 35.6629L137.407 37.0771ZM137.26 37.125H143.91V35.125H137.26V37.125ZM143.91 37.125C144.081 37.125 144.401 37.2102 144.895 37.6059L146.145 36.0441C145.473 35.5064 144.719 35.125 143.91 35.125V37.125ZM144.91 37.6176C145.747 38.2609 146.815 38.525 148.005 38.525V36.525C147.095 36.525 146.507 36.3224 146.13 36.0324L144.91 37.6176ZM148.005 38.525C148.914 38.525 149.715 38.444 150.324 38.2168C150.634 38.1009 150.959 37.9236 151.212 37.6398C151.484 37.3351 151.63 36.9555 151.63 36.545H149.63C149.63 36.4612 149.667 36.3674 149.72 36.3077C149.755 36.2689 149.751 36.2958 149.624 36.3432C149.358 36.4427 148.846 36.525 148.005 36.525V38.525ZM151.63 36.545C151.63 35.4607 150.762 34.9049 150.001 34.6513L149.369 36.5487C149.481 36.5859 149.559 36.6216 149.613 36.6513C149.667 36.6811 149.686 36.7 149.687 36.7009C149.687 36.7009 149.682 36.6961 149.675 36.686C149.668 36.6757 149.66 36.6615 149.652 36.6436C149.635 36.6048 149.63 36.5685 149.63 36.545H151.63ZM150.032 34.6623C149.284 34.3851 147.989 34.1411 146.247 33.9088L145.983 35.8912C147.741 36.1256 148.826 36.3482 149.338 36.5377L150.032 34.6623ZM146.246 33.9086C143.332 33.5246 141.291 32.7269 139.992 31.6191C138.733 30.5456 138.085 29.1093 138.085 27.2H136.085C136.085 29.6307 136.943 31.6477 138.694 33.1409C140.405 34.5998 142.878 35.4821 145.985 35.8914L146.246 33.9086ZM182.365 22.055L181.751 22.8449L181.761 22.852L182.365 22.055ZM163.22 43.72L163.927 43.0129L163.927 43.0129L163.22 43.72ZM163.22 19.78L163.927 20.4871L163.927 20.4871L163.22 19.78ZM171.69 26.325V25.325H170.69V26.325H171.69ZM171.69 37.175H170.69V38.175H171.69V37.175ZM175.855 36.475L175.148 35.7679L175.148 35.7679L175.855 36.475ZM163.885 20.5H173.965V18.5H163.885V20.5ZM173.965 20.5C177.201 20.5 179.77 21.3063 181.751 22.8448L182.978 21.2652C180.573 19.397 177.542 18.5 173.965 18.5V20.5ZM181.761 22.852C183.703 24.324 184.69 26.3719 184.69 29.125H186.69C186.69 25.8114 185.46 23.146 182.969 21.258L181.761 22.852ZM184.69 29.125V34.34H186.69V29.125H184.69ZM184.69 34.34C184.69 37.2632 183.717 39.3447 181.864 40.7542L183.075 42.3458C185.516 40.4887 186.69 37.7635 186.69 34.34H184.69ZM181.864 40.7542C179.937 42.2203 177.346 43 174 43V45C177.653 45 180.709 44.1464 183.075 42.3458L181.864 40.7542ZM174 43H163.885V45H174V43ZM163.885 43C163.881 43 163.884 42.9997 163.89 43.001C163.897 43.0023 163.905 43.0047 163.914 43.0084C163.923 43.012 163.929 43.0157 163.932 43.0178C163.935 43.0198 163.933 43.0189 163.927 43.0129L162.513 44.4271C162.881 44.7953 163.355 45 163.885 45V43ZM163.927 43.0129C163.921 43.0068 163.92 43.005 163.922 43.0079C163.924 43.011 163.928 43.017 163.931 43.0257C163.935 43.0344 163.937 43.0427 163.939 43.0494C163.94 43.056 163.94 43.0583 163.94 43.055H161.94C161.94 43.5852 162.144 44.0589 162.513 44.4271L163.927 43.0129ZM163.94 43.055V20.445H161.94V43.055H163.94ZM163.94 20.445C163.94 20.4417 163.94 20.444 163.939 20.4506C163.937 20.4573 163.935 20.4656 163.931 20.4743C163.928 20.483 163.924 20.489 163.922 20.4921C163.92 20.495 163.921 20.4932 163.927 20.4871L162.513 19.0729C162.144 19.4411 161.94 19.9148 161.94 20.445H163.94ZM163.927 20.4871C163.933 20.4811 163.935 20.4802 163.932 20.4822C163.929 20.4843 163.923 20.488 163.914 20.4916C163.905 20.4953 163.897 20.4977 163.89 20.499C163.884 20.5003 163.881 20.5 163.885 20.5V18.5C163.355 18.5 162.881 18.7047 162.513 19.0729L163.927 20.4871ZM170.69 26.325V37.175H172.69V26.325H170.69ZM171.69 38.175H173.965V36.175H171.69V38.175ZM173.965 38.175C174.966 38.175 175.871 37.8733 176.562 37.1821L175.148 35.7679C174.906 36.01 174.55 36.175 173.965 36.175V38.175ZM176.562 37.1821C177.297 36.4468 177.59 35.4438 177.59 34.34H175.59C175.59 35.1028 175.392 35.5232 175.148 35.7679L176.562 37.1821ZM177.59 34.34V29.125H175.59V34.34H177.59ZM177.59 29.125C177.59 28.053 177.34 27.0629 176.663 26.3411C175.975 25.6071 175.011 25.325 173.965 25.325V27.325C174.669 27.325 175.017 27.5096 175.204 27.7089C175.402 27.9204 175.59 28.3303 175.59 29.125H177.59ZM173.965 25.325H171.69V27.325H173.965V25.325ZM206.367 20.655L205.402 20.9181L205.411 20.9519L205.423 20.985L206.367 20.655ZM214.172 42.985L215.12 42.6688L215.118 42.6619L215.116 42.655L214.172 42.985ZM213.962 43.79L213.254 43.0829L213.254 43.0829L213.962 43.79ZM205.597 43.125L206.537 42.7863L206.536 42.7833L205.597 43.125ZM204.757 40.815L205.696 40.4733L205.457 39.815H204.757V40.815ZM197.232 40.815V39.815H196.531L196.292 40.4733L197.232 40.815ZM196.392 43.125L195.452 42.7833L195.451 42.7863L196.392 43.125ZM187.992 43.79L187.232 44.4408L187.282 44.4992L187.341 44.5493L187.992 43.79ZM187.817 42.985L186.873 42.655L186.87 42.6619L186.868 42.6688L187.817 42.985ZM195.622 20.655L196.566 20.985L196.577 20.9519L196.586 20.9181L195.622 20.655ZM199.017 33.99L198.059 33.7017L197.671 34.99H199.017V33.99ZM202.972 33.99V34.99H204.324L203.928 33.697L202.972 33.99ZM200.977 27.48L201.933 27.187L200.968 24.0394L200.019 27.1917L200.977 27.48ZM197.197 20.5H204.792V18.5H197.197V20.5ZM204.792 20.5C205.061 20.5 205.177 20.5606 205.224 20.5952C205.266 20.6259 205.342 20.7005 205.402 20.9181L207.331 20.3919C207.181 19.8395 206.89 19.3366 206.407 18.9823C205.929 18.6319 205.362 18.5 204.792 18.5V20.5ZM205.423 20.985L213.228 43.315L215.116 42.655L207.311 20.325L205.423 20.985ZM213.223 43.3012C213.217 43.2826 213.212 43.2672 213.21 43.256C213.207 43.2446 213.205 43.236 213.204 43.2305C213.202 43.2202 213.202 43.2175 213.203 43.2245C213.203 43.2312 213.204 43.2436 213.205 43.2629C213.206 43.282 213.207 43.3058 213.207 43.335H215.207C215.207 43.1624 215.199 42.9043 215.12 42.6688L213.223 43.3012ZM213.207 43.335C213.207 43.2056 213.245 43.1164 213.265 43.0796C213.283 43.0463 213.289 43.0482 213.254 43.0829L214.669 44.4971C214.904 44.262 215.207 43.8682 215.207 43.335H213.207ZM213.254 43.0829C213.275 43.0621 213.309 43.0368 213.354 43.019C213.397 43.0017 213.429 43 213.437 43V45C213.894 45 214.329 44.8369 214.669 44.4971L213.254 43.0829ZM213.437 43H206.962V45H213.437V43ZM206.962 43C206.747 43 206.66 42.9555 206.635 42.9394C206.62 42.9296 206.579 42.9025 206.537 42.7863L204.656 43.4637C204.824 43.9308 205.116 44.3413 205.556 44.6231C205.985 44.8986 206.476 45 206.962 45V43ZM206.536 42.7833L205.696 40.4733L203.817 41.1567L204.657 43.4667L206.536 42.7833ZM204.757 39.815H197.232V41.815H204.757V39.815ZM196.292 40.4733L195.452 42.7833L197.331 43.4667L198.171 41.1567L196.292 40.4733ZM195.451 42.7863C195.409 42.9025 195.368 42.9296 195.353 42.9394C195.328 42.9555 195.241 43 195.027 43V45C195.512 45 196.003 44.8986 196.432 44.6231C196.872 44.3413 197.164 43.9308 197.332 43.4637L195.451 42.7863ZM195.027 43H188.552V45H195.027V43ZM188.552 43C188.56 43 188.58 43.0019 188.605 43.0112C188.617 43.0154 188.626 43.0202 188.633 43.0244C188.64 43.0285 188.643 43.0312 188.642 43.0307L187.341 44.5493C187.681 44.8405 188.097 45 188.552 45V43ZM188.751 43.1392C188.725 43.1086 188.729 43.1068 188.742 43.1347C188.756 43.1652 188.782 43.2351 188.782 43.335H186.782C186.782 43.8129 187.017 44.1893 187.232 44.4408L188.751 43.1392ZM188.782 43.335C188.782 43.3058 188.782 43.282 188.783 43.2629C188.784 43.2436 188.785 43.2312 188.785 43.2245C188.786 43.2175 188.786 43.2202 188.784 43.2305C188.783 43.236 188.781 43.2446 188.779 43.256C188.776 43.2672 188.771 43.2826 188.765 43.3012L186.868 42.6688C186.789 42.9043 186.782 43.1624 186.782 43.335H188.782ZM188.761 43.315L196.566 20.985L194.678 20.325L186.873 42.655L188.761 43.315ZM196.586 20.9181C196.646 20.7005 196.722 20.6259 196.764 20.5952C196.811 20.5606 196.927 20.5 197.197 20.5V18.5C196.626 18.5 196.059 18.6319 195.581 18.9823C195.098 19.3366 194.807 19.8395 194.657 20.3919L196.586 20.9181ZM199.017 34.99H202.972V32.99H199.017V34.99ZM203.928 33.697L201.933 27.187L200.02 27.773L202.015 34.283L203.928 33.697ZM200.019 27.1917L198.059 33.7017L199.974 34.2783L201.934 27.7683L200.019 27.1917ZM223.312 43.72L222.605 44.4271L222.605 44.4271L223.312 43.72ZM223.032 36.16H224.032V35.9216L223.924 35.7088L223.032 36.16ZM215.157 20.585L214.263 21.0322L214.265 21.0362L215.157 20.585ZM215.297 19.745L216.004 20.4521L216.004 20.4521L215.297 19.745ZM223.907 20.375L223.005 20.8078L223.012 20.8204L223.907 20.375ZM227.407 27.41L226.512 27.8554L227.407 29.655L228.302 27.8554L227.407 27.41ZM230.907 20.375L231.802 20.8205L231.809 20.8077L230.907 20.375ZM239.482 19.745L238.723 20.3958L238.773 20.4542L238.831 20.5043L239.482 19.745ZM239.657 20.585L240.549 21.0362L240.551 21.0322L239.657 20.585ZM231.782 36.16L230.89 35.7088L230.782 35.9216V36.16H231.782ZM231.502 43.72L232.209 44.4271L232.209 44.4271L231.502 43.72ZM230.837 43H223.977V45H230.837V43ZM223.977 43C223.974 43 223.976 42.9997 223.983 43.001C223.989 43.0023 223.998 43.0047 224.006 43.0084C224.015 43.012 224.021 43.0157 224.024 43.0178C224.027 43.0198 224.025 43.0189 224.019 43.0129L222.605 44.4271C222.973 44.7953 223.447 45 223.977 45V43ZM224.019 43.0129C224.013 43.0068 224.012 43.005 224.014 43.0079C224.016 43.011 224.02 43.017 224.024 43.0257C224.027 43.0344 224.03 43.0427 224.031 43.0494C224.032 43.056 224.032 43.0583 224.032 43.055H222.032C222.032 43.5852 222.237 44.0589 222.605 44.4271L224.019 43.0129ZM224.032 43.055V36.16H222.032V43.055H224.032ZM223.924 35.7088L216.049 20.1338L214.265 21.0362L222.14 36.6112L223.924 35.7088ZM216.051 20.1378C216.08 20.1939 216.087 20.233 216.088 20.2399C216.09 20.2473 216.087 20.2359 216.087 20.2H214.087C214.087 20.4396 214.118 20.7434 214.263 21.0322L216.051 20.1378ZM216.087 20.2C216.087 20.2664 216.072 20.3303 216.047 20.3828C216.025 20.4319 216.002 20.4538 216.004 20.4521L214.59 19.0379C214.305 19.323 214.087 19.7169 214.087 20.2H216.087ZM216.004 20.4521C216.009 20.4469 215.995 20.462 215.96 20.4774C215.923 20.4936 215.886 20.5 215.857 20.5V18.5C215.354 18.5 214.92 18.7076 214.59 19.0379L216.004 20.4521ZM215.857 20.5H222.437V18.5H215.857V20.5ZM222.437 20.5C222.648 20.5 222.759 20.5432 222.818 20.578C222.872 20.61 222.939 20.6689 223.006 20.8077L224.809 19.9423C224.595 19.4978 224.277 19.1191 223.841 18.8595C223.41 18.6027 222.926 18.5 222.437 18.5V20.5ZM223.012 20.8204L226.512 27.8554L228.302 26.9646L224.802 19.9296L223.012 20.8204ZM228.302 27.8554L231.802 20.8204L230.012 19.9296L226.512 26.9646L228.302 27.8554ZM231.809 20.8077C231.875 20.6689 231.942 20.61 231.996 20.578C232.055 20.5432 232.166 20.5 232.377 20.5V18.5C231.888 18.5 231.404 18.6027 230.973 18.8595C230.537 19.1191 230.219 19.4978 230.006 19.9423L231.809 20.8077ZM232.377 20.5H238.957V18.5H232.377V20.5ZM238.957 20.5C238.929 20.5 238.879 20.4936 238.823 20.4674C238.767 20.4415 238.735 20.4098 238.723 20.3958L240.241 19.0942C239.917 18.7154 239.467 18.5 238.957 18.5V20.5ZM238.831 20.5043C238.842 20.5133 238.815 20.4936 238.785 20.4379C238.752 20.3762 238.727 20.2929 238.727 20.2H240.727C240.727 19.6589 240.443 19.2516 240.133 18.9857L238.831 20.5043ZM238.727 20.2C238.727 20.2359 238.724 20.2473 238.726 20.2399C238.727 20.233 238.735 20.1939 238.763 20.1378L240.551 21.0322C240.696 20.7434 240.727 20.4396 240.727 20.2H238.727ZM238.765 20.1338L230.89 35.7088L232.674 36.6112L240.549 21.0362L238.765 20.1338ZM230.782 36.16V43.055H232.782V36.16H230.782ZM230.782 43.055C230.782 43.0583 230.782 43.056 230.783 43.0494C230.784 43.0427 230.787 43.0344 230.79 43.0257C230.794 43.017 230.798 43.011 230.8 43.0079C230.802 43.005 230.801 43.0068 230.795 43.0129L232.209 44.4271C232.577 44.0589 232.782 43.5852 232.782 43.055H230.782ZM230.795 43.0129C230.789 43.0189 230.787 43.0198 230.79 43.0178C230.793 43.0157 230.799 43.012 230.808 43.0084C230.816 43.0047 230.825 43.0023 230.831 43.001C230.838 42.9997 230.84 43 230.837 43V45C231.367 45 231.841 44.7953 232.209 44.4271L230.795 43.0129Z" fill="black" mask="url(#path-1-inside-1_3_19)"/>
<path d="M11.06 41H6.055C5.61167 41 5.23833 40.8717 4.935 40.615C4.655 40.335 4.49167 40.02 4.445 39.67L1.225 17.375V17.27C1.225 17.06 1.295 16.885 1.435 16.745C1.59833 16.5817 1.785 16.5 1.995 16.5H8.505C9.275 16.5 9.695 16.815 9.765 17.445L10.955 27.315L12.39 22.94C12.6233 22.2633 13.02 21.925 13.58 21.925H17.15C17.71 21.925 18.1067 22.2633 18.34 22.94L19.775 27.28L20.965 17.445C21.035 16.815 21.455 16.5 22.225 16.5H28.735C28.945 16.5 29.12 16.5817 29.26 16.745C29.4233 16.885 29.505 17.06 29.505 17.27V17.375L26.285 39.67C26.2383 40.02 26.0633 40.335 25.76 40.615C25.48 40.8717 25.1183 41 24.675 41H19.67C18.9467 41 18.4683 40.685 18.235 40.055L15.365 32.88L12.495 40.055C12.2617 40.685 11.7833 41 11.06 41ZM41.4025 34.175H52.1825C52.4392 34.175 52.6609 34.2683 52.8475 34.455C53.0342 34.6417 53.1275 34.8633 53.1275 35.12V40.055C53.1275 40.3117 53.0342 40.5333 52.8475 40.72C52.6609 40.9067 52.4392 41 52.1825 41H33.9475C33.6909 41 33.4692 40.9067 33.2825 40.72C33.0959 40.5333 33.0025 40.3117 33.0025 40.055V17.445C33.0025 17.1883 33.0959 16.9667 33.2825 16.78C33.4692 16.5933 33.6909 16.5 33.9475 16.5H51.9025C52.1592 16.5 52.3809 16.5933 52.5675 16.78C52.7542 16.9667 52.8475 17.1883 52.8475 17.445V22.38C52.8475 22.6367 52.7542 22.8583 52.5675 23.045C52.3809 23.2317 52.1592 23.325 51.9025 23.325H41.4025V25.53H51.1325C51.3892 25.53 51.6109 25.6233 51.7975 25.81C51.9842 25.9967 52.0775 26.2183 52.0775 26.475V31.025C52.0775 31.2817 51.9842 31.5033 51.7975 31.69C51.6109 31.8767 51.3892 31.97 51.1325 31.97H41.4025V34.175ZM58.2835 16.5H68.3635C71.7701 16.5 74.5701 17.3517 76.7635 19.055C78.9801 20.735 80.0885 23.0917 80.0885 26.125V31.34C80.0885 34.5133 79.0151 36.9167 76.8685 38.55C74.7218 40.1833 71.8985 41 68.3985 41H58.2835C58.0268 41 57.8051 40.9067 57.6185 40.72C57.4318 40.5333 57.3385 40.3117 57.3385 40.055V17.445C57.3385 17.1883 57.4318 16.9667 57.6185 16.78C57.8051 16.5933 58.0268 16.5 58.2835 16.5ZM66.0885 23.325V34.175H68.3635C69.1568 34.175 69.7868 33.9417 70.2535 33.475C70.7435 32.985 70.9885 32.2733 70.9885 31.34V26.125C70.9885 24.2583 70.1135 23.325 68.3635 23.325H66.0885ZM98.7003 16.5H105.035C105.292 16.5 105.514 16.5933 105.7 16.78C105.887 16.9667 105.98 17.1883 105.98 17.445V40.055C105.98 40.3117 105.887 40.5333 105.7 40.72C105.514 40.9067 105.292 41 105.035 41H99.5053C98.8986 41 98.4203 40.7317 98.0703 40.195L92.1553 31.27V40.055C92.1553 40.3117 92.0619 40.5333 91.8753 40.72C91.6886 40.9067 91.4669 41 91.2103 41H84.8753C84.6186 41 84.3969 40.9067 84.2103 40.72C84.0236 40.5333 83.9303 40.3117 83.9303 40.055V17.445C83.9303 17.1883 84.0236 16.9667 84.2103 16.78C84.3969 16.5933 84.6186 16.5 84.8753 16.5H90.4053C91.0586 16.5 91.5369 16.7683 91.8403 17.305L97.7553 27V17.445C97.7553 17.1883 97.8486 16.9667 98.0353 16.78C98.2219 16.5933 98.4436 16.5 98.7003 16.5ZM118.922 34.175H129.702C129.959 34.175 130.18 34.2683 130.367 34.455C130.554 34.6417 130.647 34.8633 130.647 35.12V40.055C130.647 40.3117 130.554 40.5333 130.367 40.72C130.18 40.9067 129.959 41 129.702 41H111.467C111.21 41 110.989 40.9067 110.802 40.72C110.615 40.5333 110.522 40.3117 110.522 40.055V17.445C110.522 17.1883 110.615 16.9667 110.802 16.78C110.989 16.5933 111.21 16.5 111.467 16.5H129.422C129.679 16.5 129.9 16.5933 130.087 16.78C130.274 16.9667 130.367 17.1883 130.367 17.445V22.38C130.367 22.6367 130.274 22.8583 130.087 23.045C129.9 23.2317 129.679 23.325 129.422 23.325H118.922V25.53H128.652C128.909 25.53 129.13 25.6233 129.317 25.81C129.504 25.9967 129.597 26.2183 129.597 26.475V31.025C129.597 31.2817 129.504 31.5033 129.317 31.69C129.13 31.8767 128.909 31.97 128.652 31.97H118.922V34.175ZM134.228 24.2C134.228 21.82 135.208 19.8833 137.168 18.39C139.151 16.8967 141.741 16.15 144.938 16.15C148.158 16.15 150.783 16.9317 152.813 18.495C154.866 20.0583 155.893 21.6917 155.893 23.395C155.893 23.605 155.811 23.7917 155.648 23.955C155.508 24.095 155.345 24.165 155.158 24.165H148.158C147.621 24.165 147.131 23.9667 146.688 23.57C146.245 23.1733 145.65 22.975 144.903 22.975C143.783 22.975 143.223 23.3017 143.223 23.955C143.223 24.305 143.491 24.5967 144.028 24.83C144.588 25.0633 145.615 25.2733 147.108 25.46C150.585 25.9033 153.058 26.72 154.528 27.91C156.021 29.0767 156.768 30.8617 156.768 33.265C156.768 35.645 155.671 37.5933 153.478 39.11C151.308 40.6033 148.461 41.35 144.938 41.35C141.415 41.35 138.65 40.6267 136.643 39.18C134.636 37.7333 133.633 35.9717 133.633 33.895C133.633 33.685 133.703 33.51 133.843 33.37C134.006 33.2067 134.193 33.125 134.403 33.125H141.053C141.543 33.125 142.08 33.3583 142.663 33.825C143.27 34.2917 144.098 34.525 145.148 34.525C146.898 34.525 147.773 34.1983 147.773 33.545C147.773 33.125 147.458 32.81 146.828 32.6C146.198 32.3667 145.008 32.1333 143.258 31.9C137.238 31.1067 134.228 28.54 134.228 24.2ZM161.028 16.5H171.108C174.514 16.5 177.314 17.3517 179.508 19.055C181.724 20.735 182.833 23.0917 182.833 26.125V31.34C182.833 34.5133 181.759 36.9167 179.613 38.55C177.466 40.1833 174.643 41 171.143 41H161.028C160.771 41 160.549 40.9067 160.363 40.72C160.176 40.5333 160.083 40.3117 160.083 40.055V17.445C160.083 17.1883 160.176 16.9667 160.363 16.78C160.549 16.5933 160.771 16.5 161.028 16.5ZM168.833 23.325V34.175H171.108C171.901 34.175 172.531 33.9417 172.998 33.475C173.488 32.985 173.733 32.2733 173.733 31.34V26.125C173.733 24.2583 172.858 23.325 171.108 23.325H168.833ZM194.339 16.5H201.934C202.774 16.5 203.299 16.885 203.509 17.655L211.314 39.985C211.338 40.055 211.349 40.1717 211.349 40.335C211.349 40.475 211.268 40.6267 211.104 40.79C210.964 40.93 210.789 41 210.579 41H204.104C203.404 41 202.949 40.7083 202.739 40.125L201.899 37.815H194.374L193.534 40.125C193.324 40.7083 192.869 41 192.169 41H185.694C185.484 41 185.298 40.93 185.134 40.79C184.994 40.6267 184.924 40.475 184.924 40.335C184.924 40.1717 184.936 40.055 184.959 39.985L192.764 17.655C192.974 16.885 193.499 16.5 194.339 16.5ZM196.159 30.99H200.114L198.119 24.48L196.159 30.99ZM227.98 41H221.12C220.863 41 220.642 40.9067 220.455 40.72C220.268 40.5333 220.175 40.3117 220.175 40.055V33.16L212.3 17.585C212.253 17.4917 212.23 17.3633 212.23 17.2C212.23 17.0367 212.3 16.885 212.44 16.745C212.603 16.5817 212.79 16.5 213 16.5H219.58C220.28 16.5 220.77 16.7917 221.05 17.375L224.55 24.41L228.05 17.375C228.33 16.7917 228.82 16.5 229.52 16.5H236.1C236.31 16.5 236.485 16.5817 236.625 16.745C236.788 16.885 236.87 17.0367 236.87 17.2C236.87 17.3633 236.847 17.4917 236.8 17.585L228.925 33.16V40.055C228.925 40.3117 228.832 40.5333 228.645 40.72C228.458 40.9067 228.237 41 227.98 41Z" fill="#343131"/>
</svg>
