<?xml version="1.0" encoding="UTF-8" standalone="no"?>
<svg
   width="240"
   height="29"
   viewBox="0 0 240 29"
   fill="none"
   version="1.1"
   id="svg3"
   sodipodi:docname="Wednesday.svg"
   inkscape:version="1.3.2 (091e20ef0f, 2023-11-25)"
   xmlns:inkscape="http://www.inkscape.org/namespaces/inkscape"
   xmlns:sodipodi="http://sodipodi.sourceforge.net/DTD/sodipodi-0.dtd"
   xmlns="http://www.w3.org/2000/svg"
   xmlns:svg="http://www.w3.org/2000/svg">
  <defs
     id="defs3" />
  <sodipodi:namedview
     id="namedview3"
     pagecolor="#ffffff"
     bordercolor="#000000"
     borderopacity="0.25"
     inkscape:showpageshadow="2"
     inkscape:pageopacity="0.0"
     inkscape:pagecheckerboard="0"
     inkscape:deskcolor="#d1d1d1"
     inkscape:zoom="7.5962264"
     inkscape:cx="132.5"
     inkscape:cy="28.040238"
     inkscape:window-width="2560"
     inkscape:window-height="1368"
     inkscape:window-x="1920"
     inkscape:window-y="0"
     inkscape:window-maximized="1"
     inkscape:current-layer="svg3" />
  <mask
     id="path-1-inside-1_3_19"
     fill="#ffffff">
    <path
       d="M 13.9171,44 H 8.91215 c -0.44334,0 -0.81667,-0.1283 -1.12,-0.385 -0.28,-0.28 -0.44334,-0.595 -0.49,-0.945 l -3.22,-22.295 V 20.27 c 0,-0.21 0.07,-0.385 0.21,-0.525 0.16333,-0.1633 0.35,-0.245 0.56,-0.245 h 6.50995 c 0.77,0 1.19,0.315 1.26,0.945 l 1.19,9.87 1.435,-4.375 c 0.2334,-0.6767 0.63,-1.015 1.19,-1.015 h 3.57 c 0.56,0 0.9567,0.3383 1.19,1.015 l 1.435,4.34 1.19,-9.835 c 0.07,-0.63 0.49,-0.945 1.26,-0.945 h 6.51 c 0.21,0 0.385,0.0817 0.525,0.245 0.1634,0.14 0.245,0.315 0.245,0.525 v 0.105 l -3.22,22.295 c -0.0466,0.35 -0.2216,0.665 -0.525,0.945 -0.28,0.2567 -0.6416,0.385 -1.085,0.385 h -5.005 c -0.7233,0 -1.2016,-0.315 -1.435,-0.945 l -2.87,-7.175 -2.87,7.175 C 15.1188,43.685 14.6405,44 13.9171,44 Z m 30.3426,-6.825 h 10.78 c 0.2567,0 0.4783,0.0933 0.665,0.28 0.1867,0.1867 0.28,0.4083 0.28,0.665 v 4.935 c 0,0.2567 -0.0933,0.4783 -0.28,0.665 C 55.518,43.9067 55.2964,44 55.0397,44 h -18.235 c -0.2567,0 -0.4783,-0.0933 -0.665,-0.28 -0.1867,-0.1867 -0.28,-0.4083 -0.28,-0.665 v -22.61 c 0,-0.2567 0.0933,-0.4783 0.28,-0.665 0.1867,-0.1867 0.4083,-0.28 0.665,-0.28 h 17.955 c 0.2567,0 0.4783,0.0933 0.665,0.28 0.1867,0.1867 0.28,0.4083 0.28,0.665 v 4.935 c 0,0.2567 -0.0933,0.4783 -0.28,0.665 -0.1867,0.1867 -0.4083,0.28 -0.665,0.28 h -10.5 v 2.205 h 9.73 c 0.2567,0 0.4783,0.0933 0.665,0.28 0.1867,0.1867 0.28,0.4083 0.28,0.665 v 4.55 c 0,0.2567 -0.0933,0.4783 -0.28,0.665 -0.1867,0.1867 -0.4083,0.28 -0.665,0.28 h -9.73 z M 61.1406,19.5 h 10.08 c 3.4067,0 6.2067,0.8517 8.4,2.555 2.2167,1.68 3.325,4.0367 3.325,7.07 v 5.215 c 0,3.1733 -1.0733,5.5767 -3.22,7.21 -2.1466,1.6333 -4.97,2.45 -8.47,2.45 h -10.115 c -0.2566,0 -0.4783,-0.0933 -0.665,-0.28 -0.1866,-0.1867 -0.28,-0.4083 -0.28,-0.665 v -22.61 c 0,-0.2567 0.0934,-0.4783 0.28,-0.665 0.1867,-0.1867 0.4084,-0.28 0.665,-0.28 z m 7.805,6.825 v 10.85 h 2.275 c 0.7934,0 1.4234,-0.2333 1.89,-0.7 0.49,-0.49 0.735,-1.2017 0.735,-2.135 v -5.215 c 0,-1.8667 -0.875,-2.8 -2.625,-2.8 z M 101.557,19.5 h 6.335 c 0.257,0 0.479,0.0933 0.665,0.28 0.187,0.1867 0.28,0.4083 0.28,0.665 v 22.61 c 0,0.2567 -0.093,0.4783 -0.28,0.665 -0.186,0.1867 -0.408,0.28 -0.665,0.28 h -5.53 c -0.606,0 -1.085,-0.2683 -1.435,-0.805 L 95.0124,34.27 v 8.785 c 0,0.2567 -0.0933,0.4783 -0.28,0.665 -0.1866,0.1867 -0.4083,0.28 -0.665,0.28 h -6.335 c -0.2566,0 -0.4783,-0.0933 -0.665,-0.28 -0.1866,-0.1867 -0.28,-0.4083 -0.28,-0.665 v -22.61 c 0,-0.2567 0.0934,-0.4783 0.28,-0.665 0.1867,-0.1867 0.4084,-0.28 0.665,-0.28 h 5.53 c 0.6534,0 1.1317,0.2683 1.435,0.805 L 100.612,30 v -9.555 c 0,-0.2567 0.094,-0.4783 0.28,-0.665 0.187,-0.1867 0.409,-0.28 0.665,-0.28 z m 20.222,17.675 h 10.78 c 0.257,0 0.479,0.0933 0.665,0.28 0.187,0.1867 0.28,0.4083 0.28,0.665 v 4.935 c 0,0.2567 -0.093,0.4783 -0.28,0.665 -0.186,0.1867 -0.408,0.28 -0.665,0.28 h -18.235 c -0.256,0 -0.478,-0.0933 -0.665,-0.28 -0.186,-0.1867 -0.28,-0.4083 -0.28,-0.665 v -22.61 c 0,-0.2567 0.094,-0.4783 0.28,-0.665 0.187,-0.1867 0.409,-0.28 0.665,-0.28 h 17.955 c 0.257,0 0.479,0.0933 0.665,0.28 0.187,0.1867 0.28,0.4083 0.28,0.665 v 4.935 c 0,0.2567 -0.093,0.4783 -0.28,0.665 -0.186,0.1867 -0.408,0.28 -0.665,0.28 h -10.5 v 2.205 h 9.73 c 0.257,0 0.479,0.0933 0.665,0.28 0.187,0.1867 0.28,0.4083 0.28,0.665 v 4.55 c 0,0.2567 -0.093,0.4783 -0.28,0.665 -0.186,0.1867 -0.408,0.28 -0.665,0.28 h -9.73 z M 137.085,27.2 c 0,-2.38 0.98,-4.3167 2.94,-5.81 1.983,-1.4933 4.573,-2.24 7.77,-2.24 3.22,0 5.845,0.7817 7.875,2.345 2.053,1.5633 3.08,3.1967 3.08,4.9 0,0.21 -0.082,0.3967 -0.245,0.56 -0.14,0.14 -0.303,0.21 -0.49,0.21 h -7 c -0.537,0 -1.027,-0.1983 -1.47,-0.595 -0.443,-0.3967 -1.038,-0.595 -1.785,-0.595 -1.12,0 -1.68,0.3267 -1.68,0.98 0,0.35 0.268,0.6417 0.805,0.875 0.56,0.2333 1.587,0.4433 3.08,0.63 3.477,0.4433 5.95,1.26 7.42,2.45 1.493,1.1667 2.24,2.9517 2.24,5.355 0,2.38 -1.097,4.3283 -3.29,5.845 -2.17,1.4933 -5.017,2.24 -8.54,2.24 -3.523,0 -6.288,-0.7233 -8.295,-2.17 -2.007,-1.4467 -3.01,-3.2083 -3.01,-5.285 0,-0.21 0.07,-0.385 0.21,-0.525 0.163,-0.1633 0.35,-0.245 0.56,-0.245 h 6.65 c 0.49,0 1.027,0.2333 1.61,0.7 0.607,0.4667 1.435,0.7 2.485,0.7 1.75,0 2.625,-0.3267 2.625,-0.98 0,-0.42 -0.315,-0.735 -0.945,-0.945 -0.63,-0.2333 -1.82,-0.4667 -3.57,-0.7 -6.02,-0.7933 -9.03,-3.36 -9.03,-7.7 z m 26.8,-7.7 h 10.08 c 3.406,0 6.206,0.8517 8.4,2.555 2.216,1.68 3.325,4.0367 3.325,7.07 v 5.215 c 0,3.1733 -1.074,5.5767 -3.22,7.21 C 180.323,43.1833 177.5,44 174,44 h -10.115 c -0.257,0 -0.479,-0.0933 -0.665,-0.28 -0.187,-0.1867 -0.28,-0.4083 -0.28,-0.665 v -22.61 c 0,-0.2567 0.093,-0.4783 0.28,-0.665 0.186,-0.1867 0.408,-0.28 0.665,-0.28 z m 7.805,6.825 v 10.85 h 2.275 c 0.793,0 1.423,-0.2333 1.89,-0.7 0.49,-0.49 0.735,-1.2017 0.735,-2.135 v -5.215 c 0,-1.8667 -0.875,-2.8 -2.625,-2.8 z M 197.197,19.5 h 7.595 c 0.84,0 1.365,0.385 1.575,1.155 l 7.805,22.33 c 0.023,0.07 0.035,0.1867 0.035,0.35 0,0.14 -0.082,0.2917 -0.245,0.455 -0.14,0.14 -0.315,0.21 -0.525,0.21 h -6.475 c -0.7,0 -1.155,-0.2917 -1.365,-0.875 l -0.84,-2.31 h -7.525 l -0.84,2.31 C 196.182,43.7083 195.727,44 195.027,44 h -6.475 c -0.21,0 -0.397,-0.07 -0.56,-0.21 -0.14,-0.1633 -0.21,-0.315 -0.21,-0.455 0,-0.1633 0.011,-0.28 0.035,-0.35 l 7.805,-22.33 c 0.21,-0.77 0.735,-1.155 1.575,-1.155 z m 1.82,14.49 h 3.955 l -1.995,-6.51 z M 230.837,44 h -6.86 c -0.257,0 -0.478,-0.0933 -0.665,-0.28 -0.187,-0.1867 -0.28,-0.4083 -0.28,-0.665 V 36.16 l -7.875,-15.575 c -0.047,-0.0933 -0.07,-0.2217 -0.07,-0.385 0,-0.1633 0.07,-0.315 0.21,-0.455 0.163,-0.1633 0.35,-0.245 0.56,-0.245 h 6.58 c 0.7,0 1.19,0.2917 1.47,0.875 l 3.5,7.035 3.5,-7.035 c 0.28,-0.5833 0.77,-0.875 1.47,-0.875 h 6.58 c 0.21,0 0.385,0.0817 0.525,0.245 0.163,0.14 0.245,0.2917 0.245,0.455 0,0.1633 -0.023,0.2917 -0.07,0.385 l -7.875,15.575 v 6.895 c 0,0.2567 -0.093,0.4783 -0.28,0.665 -0.187,0.1867 -0.408,0.28 -0.665,0.28 z"
       id="path1" />
  </mask>
  <path
     d="m 7.79215,43.615 -0.70711,0.7071 0.02941,0.0294 0.03176,0.0269 z m -0.49,-0.945 0.99128,-0.1322 -0.00155,-0.0107 z m -3.22,-22.295 h -1 v 0.0718 l 0.01027,0.0711 z m 0.21,-0.63 0.7071,0.7071 h 10e-6 z m 8.32995,0.7 -0.9939,0.1104 0.0011,0.0093 z m 1.19,9.87 -0.9928,0.1197 1.943,0.192 z m 1.435,-4.375 -0.9453,-0.326 -0.0025,0.0072 -0.0023,0.0071 z m 5.95,0 0.9496,-0.314 -0.0042,-0.012 z m 1.435,4.34 -0.9494,0.3139 1.9422,-0.1938 z m 1.19,-9.835 0.9929,0.1201 10e-4,-0.0097 z m 8.295,-0.7 -0.7592,0.6508 0.0501,0.0584 0.0584,0.0501 z m 0.245,0.63 0.9898,0.1429 0.0102,-0.0711 V 20.375 Z m -3.22,22.295 -0.9897,-0.143 -0.0015,0.0108 z m -0.525,0.945 0.6758,0.7372 0.0025,-0.0024 z m -7.525,-0.56 0.9378,-0.3473 -0.0045,-0.0121 -0.0048,-0.012 z m -2.87,-7.175 0.9285,-0.3714 -0.9285,-2.3212 -0.9284,2.3212 z m -2.87,7.175 -0.9284,-0.3714 -0.0048,0.012 -0.0045,0.0121 z M 13.9171,43 H 8.91215 v 2 H 13.9171 Z M 8.91215,43 C 8.67611,43 8.53975,42.9376 8.43809,42.8516 L 7.14621,44.3784 C 7.65122,44.8057 8.26151,45 8.91215,45 Z M 8.49925,42.9079 C 8.35467,42.7633 8.30752,42.6439 8.29338,42.5378 l -1.98246,0.2644 c 0.07919,0.5939 0.3587,1.1045 0.77412,1.5199 z m -0.20737,-0.3808 -3.22,-22.295 -1.97946,0.2858 3.22,22.295 z M 5.08215,20.375 V 20.27 h -2 v 0.105 z m 0,-0.105 c 0,0.0077 -0.00168,0.0393 -0.01903,0.0826 -0.01781,0.0446 -0.04303,0.0787 -0.06387,0.0995 L 3.58504,19.0379 C 3.24525,19.3777 3.08215,19.8126 3.08215,20.27 Z M 4.99926,20.4521 C 5.00445,20.4469 4.99061,20.462 4.95547,20.4774 4.91849,20.4936 4.88077,20.5 4.85215,20.5 v -2 c -0.50299,0 -0.93683,0.2076 -1.26711,0.5379 z M 4.85215,20.5 h 6.50995 v -2 H 4.85215 Z m 6.50995,0 c 0.2655,0 0.3197,0.0566 0.2925,0.0362 -0.0169,-0.0126 -0.0314,-0.0309 -0.0383,-0.0443 -0.005,-0.0097 0.0055,0.0054 0.012,0.0635 L 13.616,20.3346 C 13.5574,19.8066 13.3305,19.2931 12.8546,18.9362 12.4075,18.6009 11.8667,18.5 11.3621,18.5 Z m 0.2672,0.0647 1.19,9.87 1.9857,-0.2394 -1.19,-9.87 z m 3.133,10.062 1.435,-4.375 -1.9003,-0.6234 -1.435,4.375 z m 1.4302,-4.3607 c 0.0793,-0.2299 0.1551,-0.3085 0.1761,-0.3264 0.0086,-0.0074 0.0116,-0.008 0.0126,-0.0084 0.002,-7e-4 0.0178,-0.0062 0.0559,-0.0062 v -2 c -0.4988,0 -0.9731,0.1575 -1.3664,0.4929 -0.3757,0.3205 -0.6149,0.7493 -0.7689,1.1961 z m 0.2446,-0.341 h 3.57 v -2 h -3.57 z m 3.57,0 c 0.0382,0 0.054,0.0055 0.056,0.0062 0.001,4e-4 0.004,0.001 0.0126,0.0084 0.021,0.0179 0.0968,0.0965 0.1761,0.3264 l 1.8907,-0.652 C 21.9884,25.1672 21.7493,24.7384 21.3736,24.4179 20.9803,24.0825 20.506,23.925 20.0071,23.925 Z m 0.2406,0.3289 1.435,4.34 1.8989,-0.6278 -1.435,-4.34 z m 3.3772,4.1462 1.19,-9.835 -1.9855,-0.2402 -1.19,9.835 z m 1.1911,-9.8447 c 0.0065,-0.0581 0.017,-0.0732 0.012,-0.0635 -0.0069,0.0134 -0.0214,0.0317 -0.0384,0.0443 C 24.7625,20.5566 24.8167,20.5 25.0821,20.5 v -2 c -0.5045,0 -1.0453,0.1009 -1.4925,0.4362 -0.4758,0.3569 -0.7027,0.8704 -0.7613,1.3984 z M 25.0821,20.5 h 6.51 v -2 h -6.51 z m 6.51,0 c -0.0281,0 -0.0779,-0.0064 -0.1341,-0.0326 -0.0555,-0.0259 -0.0881,-0.0576 -0.1001,-0.0716 l 1.5185,-1.3016 C 32.5518,18.7154 32.1022,18.5 31.5921,18.5 Z m -0.1257,0.0043 C 31.4523,20.4922 31.4206,20.4597 31.3947,20.4041 31.3685,20.348 31.3621,20.2982 31.3621,20.27 h 2 c 0,-0.51 -0.2154,-0.9596 -0.5942,-1.2843 z M 31.3621,20.27 v 0.105 h 2 V 20.27 Z m 0.0103,-0.0379 -3.22,22.295 1.9795,0.2858 3.22,-22.295 z m -3.2215,22.3057 c -0.0108,0.0808 -0.0497,0.1925 -0.212,0.3424 l 1.3565,1.4696 c 0.4443,-0.4101 0.7554,-0.9284 0.838,-1.5476 z m -0.2095,0.34 C 27.8763,42.9376 27.7698,43 27.5321,43 v 2 c 0.649,0 1.2659,-0.1942 1.7608,-0.6478 z M 27.5321,43 h -5.005 v 2 h 5.005 z m -5.005,0 c -0.2174,0 -0.3134,-0.0465 -0.3512,-0.0714 -0.0319,-0.021 -0.0901,-0.07 -0.146,-0.2209 l -1.8755,0.6946 c 0.1774,0.4791 0.4751,0.9026 0.9215,1.1966 C 21.5165,44.889 22.0212,45 22.5271,45 Z m -0.5065,-0.3164 -2.87,-7.175 -1.8569,0.7428 2.87,7.175 z m -4.7269,-7.175 -2.87,7.175 1.8569,0.7428 2.87,-7.175 z m -2.8793,7.1991 c -0.0559,0.1509 -0.1141,0.1999 -0.146,0.2209 C 14.2306,42.9535 14.1346,43 13.9171,43 v 2 c 0.506,0 1.0107,-0.111 1.4513,-0.4011 0.4464,-0.294 0.7441,-0.7175 0.9215,-1.1966 z M 44.2597,37.175 h -1 v 1 h 1 z m -8.12,6.545 0.7071,-0.7071 v 0 z m 0,-23.94 0.7071,0.7071 v 0 z m 19.285,0 -0.7071,0.7071 v 0 z m 0,6.265 -0.7071,-0.7071 v 0 z m -11.165,0.28 v -1 h -1 v 1 z m 0,2.205 h -1 v 1 h 1 z m 10.395,0.28 0.7071,-0.7071 v 0 z m 0,5.88 0.7071,0.7071 v 0 z m -10.395,0.28 v -1 h -1 v 1 z m 0,3.205 h 10.78 v -2 h -10.78 z m 10.78,0 c 0.0033,0 10e-4,3e-4 -0.0056,-10e-4 -0.0067,-0.0013 -0.015,-0.0037 -0.0237,-0.0074 -0.0087,-0.0036 -0.0147,-0.0073 -0.0178,-0.0094 -0.0029,-0.002 -0.0011,-0.0011 0.005,0.0049 l 1.4142,-1.4142 C 56.0436,36.3797 55.5699,36.175 55.0397,36.175 Z m -0.0421,-0.0129 c 0.006,0.0061 0.0068,0.0079 0.0049,0.005 C 55.0004,38.164 54.9967,38.158 54.9931,38.1493 54.9894,38.1406 54.987,38.1323 54.9857,38.1256 54.9844,38.119 54.9847,38.1167 54.9847,38.12 h 2 c 0,-0.5302 -0.2047,-1.0039 -0.5729,-1.3721 z M 54.9847,38.12 v 4.935 h 2 V 38.12 Z m 0,4.935 c 0,0.0033 -3e-4,10e-4 0.001,-0.0056 0.0013,-0.0067 0.0037,-0.015 0.0074,-0.0237 0.0036,-0.0087 0.0073,-0.0147 0.0094,-0.0178 0.0019,-0.0029 0.0011,-0.0011 -0.0049,0.005 l 1.4142,1.4142 c 0.3682,-0.3682 0.5729,-0.8419 0.5729,-1.3721 z m 0.0129,-0.0421 c -0.0061,0.006 -0.0079,0.0069 -0.005,0.0049 0.0031,-0.0021 0.0091,-0.0058 0.0178,-0.0094 0.0087,-0.0037 0.017,-0.0061 0.0237,-0.0074 C 55.0407,42.9997 55.043,43 55.0397,43 v 2 c 0.5302,0 1.0039,-0.2047 1.3721,-0.5729 z M 55.0397,43 h -18.235 v 2 h 18.235 z m -18.235,0 c -0.0033,0 -10e-4,-3e-4 0.0056,10e-4 0.0067,0.0013 0.015,0.0037 0.0237,0.0074 0.0087,0.0036 0.0147,0.0073 0.0178,0.0094 0.0029,0.002 0.001,0.0011 -0.005,-0.0049 l -1.4142,1.4142 C 35.8008,44.7953 36.2745,45 36.8047,45 Z m 0.0421,0.0129 c -0.0061,-0.0061 -0.0069,-0.0079 -0.0049,-0.005 0.0021,0.0031 0.0058,0.0091 0.0094,0.0178 0.0037,0.0087 0.0061,0.017 0.0074,0.0237 0.0013,0.0066 10e-4,0.0089 10e-4,0.0056 h -2 c 0,0.5302 0.2047,1.0039 0.5729,1.3721 z m 0.0129,0.0421 v -22.61 h -2 v 22.61 z m 0,-22.61 c 0,-0.0033 3e-4,-0.001 -10e-4,0.0056 -0.0013,0.0067 -0.0037,0.015 -0.0074,0.0237 -0.0036,0.0087 -0.0073,0.0147 -0.0094,0.0178 -0.002,0.0029 -0.0012,0.0011 0.0049,-0.005 l -1.4142,-1.4142 c -0.3682,0.3682 -0.5729,0.8419 -0.5729,1.3721 z m -0.0129,0.0421 c 0.006,-0.006 0.0079,-0.0069 0.005,-0.0049 -0.0031,0.0021 -0.0091,0.0058 -0.0178,0.0094 -0.0087,0.0037 -0.017,0.0061 -0.0237,0.0074 -0.0066,0.0013 -0.0089,0.001 -0.0056,0.001 v -2 c -0.5302,0 -1.0039,0.2047 -1.3721,0.5729 z M 36.8047,20.5 h 17.955 v -2 h -17.955 z m 17.955,0 c 0.0033,0 10e-4,3e-4 -0.0056,-0.001 -0.0067,-0.0013 -0.015,-0.0037 -0.0237,-0.0074 -0.0087,-0.0036 -0.0147,-0.0073 -0.0178,-0.0094 -0.0029,-0.002 -0.0011,-0.0011 0.005,0.0049 l 1.4142,-1.4142 C 55.7636,18.7047 55.2899,18.5 54.7597,18.5 Z m -0.0421,-0.0129 c 0.006,0.0061 0.0068,0.0079 0.0049,0.005 -0.0021,-0.0031 -0.0058,-0.0091 -0.0094,-0.0178 -0.0037,-0.0087 -0.0061,-0.017 -0.0074,-0.0237 -0.0013,-0.0066 -10e-4,-0.0089 -10e-4,-0.0056 h 2 c 0,-0.5302 -0.2047,-1.0039 -0.5729,-1.3721 z M 54.7047,20.445 v 4.935 h 2 v -4.935 z m 0,4.935 c 0,0.0033 -3e-4,0.001 10e-4,-0.0056 0.0013,-0.0067 0.0037,-0.015 0.0074,-0.0237 0.0036,-0.0087 0.0073,-0.0147 0.0094,-0.0178 0.0019,-0.0029 0.0011,-0.0011 -0.0049,0.005 l 1.4142,1.4142 C 56.5,26.3839 56.7047,25.9102 56.7047,25.38 Z m 0.0129,-0.0421 c -0.0061,0.006 -0.0079,0.0069 -0.005,0.0049 0.0031,-0.0021 0.0091,-0.0058 0.0178,-0.0094 0.0087,-0.0037 0.017,-0.0061 0.0237,-0.0074 0.0066,-0.0013 0.0089,-0.001 0.0056,-0.001 v 2 c 0.5302,0 1.0039,-0.2047 1.3721,-0.5729 z m 0.0421,-0.0129 h -10.5 v 2 h 10.5 z m -11.5,1 v 2.205 h 2 v -2.205 z m 1,3.205 h 9.73 v -2 h -9.73 z m 9.73,0 c 0.0033,0 10e-4,3e-4 -0.0056,-0.001 -0.0067,-0.0013 -0.015,-0.0037 -0.0237,-0.0074 -0.0087,-0.0036 -0.0147,-0.0073 -0.0178,-0.0094 -0.0029,-0.002 -0.0011,-0.0011 0.005,0.0049 l 1.4142,-1.4142 C 54.9936,27.7347 54.5199,27.53 53.9897,27.53 Z m -0.0421,-0.0129 c 0.006,0.0061 0.0068,0.0079 0.0049,0.005 -0.0021,-0.0031 -0.0058,-0.0091 -0.0094,-0.0178 -0.0037,-0.0087 -0.0061,-0.017 -0.0074,-0.0237 -0.0013,-0.0066 -10e-4,-0.0089 -10e-4,-0.0056 h 2 c 0,-0.5302 -0.2047,-1.0039 -0.5729,-1.3721 z M 53.9347,29.475 v 4.55 h 2 v -4.55 z m 0,4.55 c 0,0.0033 -3e-4,0.001 10e-4,-0.0056 0.0013,-0.0067 0.0037,-0.015 0.0074,-0.0237 0.0036,-0.0087 0.0073,-0.0147 0.0094,-0.0178 0.0019,-0.0029 0.0011,-0.0011 -0.0049,0.005 l 1.4142,1.4142 c 0.3682,-0.3682 0.5729,-0.8419 0.5729,-1.3721 z m 0.0129,-0.0421 c -0.0061,0.006 -0.0079,0.0069 -0.005,0.0049 0.0031,-0.0021 0.0091,-0.0058 0.0178,-0.0094 0.0087,-0.0037 0.017,-0.0061 0.0237,-0.0074 0.0066,-0.0013 0.0089,-10e-4 0.0056,-10e-4 v 2 c 0.5302,0 1.0039,-0.2047 1.3721,-0.5729 z M 53.9897,33.97 h -9.73 v 2 h 9.73 z m -10.73,1 v 2.205 h 2 V 34.97 Z m 36.3609,-12.915 -0.6134,0.7899 0.0094,0.0071 z m -19.145,21.665 0.7071,-0.7071 v 0 z m 0,-23.94 0.7071,0.7071 v 0 z m 8.47,6.545 v -1 h -1 v 1 z m 0,10.85 h -1 v 1 h 1 z m 4.165,-0.7 -0.7071,-0.7071 v 0 z M 61.1406,20.5 h 10.08 v -2 h -10.08 z m 10.08,0 c 3.2362,0 5.8056,0.8063 7.7867,2.3448 L 80.234,21.2652 C 77.8284,19.397 74.7978,18.5 71.2206,18.5 Z m 7.796,2.352 c 1.9422,1.472 2.929,3.5199 2.929,6.273 h 2 c 0,-3.3136 -1.2299,-5.979 -3.721,-7.867 z m 2.929,6.273 v 5.215 h 2 v -5.215 z m 0,5.215 c 0,2.9232 -0.973,5.0047 -2.8255,6.4142 l 1.211,1.5916 c 2.4409,-1.8571 3.6145,-4.5823 3.6145,-8.0058 z m -2.8255,6.4142 C 77.1932,42.2203 74.6022,43 71.2556,43 v 2 c 3.6534,0 6.7091,-0.8536 9.0755,-2.6542 z M 71.2556,43 h -10.115 v 2 h 10.115 z m -10.115,0 c -0.0033,0 -10e-4,-3e-4 0.0056,10e-4 0.0067,0.0013 0.015,0.0037 0.0237,0.0074 0.0087,0.0036 0.0148,0.0073 0.0178,0.0094 0.0029,0.002 0.0011,0.0011 -0.005,-0.0049 l -1.4142,1.4142 C 60.1367,44.7953 60.6104,45 61.1406,45 Z m 0.0421,0.0129 c -0.006,-0.0061 -0.0068,-0.0079 -0.0048,-0.005 0.002,0.0031 0.0057,0.0091 0.0094,0.0178 0.0036,0.0087 0.006,0.017 0.0073,0.0237 0.0013,0.0066 10e-4,0.0089 10e-4,0.0056 h -2 c 0,0.5302 0.2047,1.0039 0.5729,1.3721 z m 0.0129,0.0421 v -22.61 h -2 v 22.61 z m 0,-22.61 c 0,-0.0033 3e-4,-0.001 -10e-4,0.0056 -0.0013,0.0067 -0.0037,0.015 -0.0073,0.0237 -0.0037,0.0087 -0.0074,0.0147 -0.0094,0.0178 -0.002,0.0029 -0.0012,0.0011 0.0048,-0.005 l -1.4142,-1.4142 c -0.3682,0.3682 -0.5729,0.8419 -0.5729,1.3721 z m -0.0129,0.0421 c 0.0061,-0.006 0.0079,-0.0069 0.005,-0.0049 -0.003,0.0021 -0.0091,0.0058 -0.0178,0.0094 -0.0087,0.0037 -0.017,0.0061 -0.0237,0.0074 -0.0066,0.0013 -0.0089,0.001 -0.0056,0.001 v -2 c -0.5302,0 -1.0039,0.2047 -1.3721,0.5729 z m 6.7629,5.8379 v 10.85 h 2 v -10.85 z m 1,11.85 h 2.275 v -2 h -2.275 z m 2.275,0 c 1.0012,0 1.9059,-0.3017 2.5971,-0.9929 L 72.4035,35.7679 C 72.1614,36.01 71.8061,36.175 71.2206,36.175 Z m 2.5971,-0.9929 c 0.7353,-0.7353 1.0279,-1.7383 1.0279,-2.8421 h -2 c 0,0.7628 -0.1974,1.1832 -0.4421,1.4279 z M 74.8456,34.34 v -5.215 h -2 v 5.215 z m 0,-5.215 c 0,-1.072 -0.25,-2.0621 -0.9267,-2.7839 -0.6881,-0.734 -1.652,-1.0161 -2.6983,-1.0161 v 2 c 0.7038,0 1.0523,0.1846 1.2392,0.3839 0.1983,0.2115 0.3858,0.6214 0.3858,1.4161 z m -3.625,-3.8 h -2.275 v 2 h 2.275 z m 29.7064,17.87 0.838,-0.5463 -0.004,-0.0061 z M 95.0124,34.27 95.846,33.7176 94.0124,30.951 v 3.319 z m -0.28,9.45 0.7071,0.7071 v 0 z m -7.665,0 0.7071,-0.7071 v 0 z m 0,-23.94 0.7071,0.7071 v 0 z m 7.63,0.525 -0.8705,0.4921 0.0082,0.0145 0.0087,0.0142 z m 5.9146,9.695 -0.8532,0.5208 1.8532,3.0383 V 30 Z m 0.28,-10.22 0.708,0.7071 v 0 z m 0.665,0.72 h 6.335 v -2 h -6.335 z m 6.335,0 c 0.004,0 0.001,3e-4 -0.005,-0.001 -0.007,-0.0013 -0.015,-0.0037 -0.024,-0.0074 -0.009,-0.0036 -0.015,-0.0073 -0.018,-0.0094 -0.003,-0.002 -0.001,-0.0011 0.005,0.0049 l 1.415,-1.4142 C 108.896,18.7047 108.423,18.5 107.892,18.5 Z m -0.042,-0.0129 c 0.006,0.0061 0.007,0.0079 0.005,0.005 -0.002,-0.0031 -0.006,-0.0091 -0.009,-0.0178 -0.004,-0.0087 -0.006,-0.017 -0.008,-0.0237 -10e-4,-0.0066 -10e-4,-0.0089 -10e-4,-0.0056 h 2 c 0,-0.5302 -0.204,-1.0039 -0.572,-1.3721 z m -0.013,-0.0421 v 22.61 h 2 v -22.61 z m 0,22.61 c 0,0.0033 0,10e-4 10e-4,-0.0056 0.002,-0.0067 0.004,-0.015 0.008,-0.0237 0.003,-0.0087 0.007,-0.0147 0.009,-0.0178 0.002,-0.0029 10e-4,-0.0011 -0.005,0.005 l 1.415,1.4142 c 0.368,-0.3682 0.572,-0.8419 0.572,-1.3721 z m 0.013,-0.0421 c -0.006,0.006 -0.008,0.0069 -0.005,0.0049 0.003,-0.0021 0.009,-0.0058 0.018,-0.0094 0.009,-0.0037 0.017,-0.0061 0.024,-0.0074 0.006,-0.0013 0.009,-10e-4 0.005,-10e-4 v 2 c 0.531,0 1.004,-0.2047 1.373,-0.5729 z M 107.892,43 h -5.53 v 2 h 5.53 z m -5.53,0 c -0.246,0 -0.419,-0.0786 -0.597,-0.3513 l -1.675,1.0926 C 100.612,44.542 101.396,45 102.362,45 Z m -0.601,-0.3574 -5.915,-8.925 -1.6671,1.1048 5.9151,8.925 z M 94.0124,34.27 v 8.785 h 2 V 34.27 Z m 0,8.785 c 0,0.0033 -2e-4,10e-4 0.001,-0.0056 0.0013,-0.0067 0.0037,-0.015 0.0074,-0.0237 0.0036,-0.0087 0.0073,-0.0147 0.0094,-0.0178 0.002,-0.0029 0.0012,-0.0011 -0.0049,0.005 l 1.4142,1.4142 c 0.3682,-0.3682 0.5729,-0.8419 0.5729,-1.3721 z m 0.0129,-0.0421 c -0.006,0.006 -0.0079,0.0069 -0.005,0.0049 0.0031,-0.0021 0.0092,-0.0058 0.0178,-0.0094 0.0087,-0.0037 0.017,-0.0061 0.0237,-0.0074 C 94.0684,42.9997 94.0707,43 94.0674,43 v 2 c 0.5302,0 1.0039,-0.2047 1.3721,-0.5729 z M 94.0674,43 h -6.335 v 2 h 6.335 z m -6.335,0 c -0.0033,0 -0.001,-3e-4 0.0056,10e-4 0.0067,0.0013 0.015,0.0037 0.0237,0.0074 0.0087,0.0036 0.0148,0.0073 0.0178,0.0094 0.0029,0.002 0.0011,0.0011 -0.005,-0.0049 l -1.4142,1.4142 C 86.7285,44.7953 87.2022,45 87.7324,45 Z m 0.0421,0.0129 c -0.006,-0.0061 -0.0068,-0.0079 -0.0049,-0.005 0.0021,0.0031 0.0058,0.0091 0.0095,0.0178 0.0036,0.0087 0.006,0.017 0.0073,0.0237 0.0013,0.0066 0.001,0.0089 0.001,0.0056 h -2 c 0,0.5302 0.2047,1.0039 0.5729,1.3721 z m 0.0129,0.0421 v -22.61 h -2 v 22.61 z m 0,-22.61 c 0,-0.0033 3e-4,-0.001 -0.001,0.0056 -0.0013,0.0067 -0.0037,0.015 -0.0073,0.0237 -0.0037,0.0087 -0.0074,0.0147 -0.0095,0.0178 -0.0019,0.0029 -0.0011,0.0011 0.0049,-0.005 l -1.4142,-1.4142 c -0.3682,0.3682 -0.5729,0.8419 -0.5729,1.3721 z m -0.0129,0.0421 c 0.0061,-0.006 0.0079,-0.0069 0.005,-0.0049 -0.003,0.0021 -0.0091,0.0058 -0.0178,0.0094 -0.0087,0.0037 -0.017,0.0061 -0.0237,0.0074 -0.0066,0.0013 -0.0089,0.001 -0.0056,0.001 v -2 c -0.5302,0 -1.0039,0.2047 -1.3721,0.5729 z M 87.7324,20.5 h 5.53 v -2 h -5.53 z m 5.53,0 c 0.3194,0 0.4512,0.0967 0.5645,0.2971 L 95.568,19.8129 C 95.0746,18.94 94.2498,18.5 93.2624,18.5 Z m 0.5814,0.3258 5.915,9.695 1.7072,-1.0416 -5.9149,-9.695 z M 101.612,30 V 20.445 H 99.6124 V 30 Z m 0,-9.555 c 0,-0.0033 0.001,-0.001 -10e-4,0.0056 -0.001,0.0067 -0.003,0.015 -0.007,0.0237 -0.004,0.0087 -0.007,0.0147 -0.009,0.0178 -0.002,0.0029 -0.002,0.0011 0.005,-0.005 l -1.415,-1.4142 c -0.3679,0.3682 -0.5726,0.8419 -0.5726,1.3721 z m -0.012,0.0421 c 0.006,-0.006 0.007,-0.0069 0.005,-0.0049 -0.004,0.0021 -0.01,0.0058 -0.018,0.0094 -0.009,0.0037 -0.017,0.0061 -0.024,0.0074 -0.007,0.0013 -0.009,0.001 -0.006,0.001 v -2 c -0.53,0 -1.003,0.2047 -1.372,0.5729 z m 20.179,16.6879 h -1 v 1 h 1 z m -8.12,6.545 0.707,-0.7071 v 0 z m 0,-23.94 0.707,0.7071 v 0 z m 19.285,0 -0.707,0.7071 v 0 z m 0,6.265 -0.707,-0.7071 v 0 z m -11.165,0.28 v -1 h -1 v 1 z m 0,2.205 h -1 v 1 h 1 z m 10.395,0.28 0.707,-0.7071 v 0 z m 0,5.88 0.707,0.7071 v 0 z m -10.395,0.28 v -1 h -1 v 1 z m 0,3.205 h 10.78 v -2 h -10.78 z m 10.78,0 c 0.004,0 0.001,3e-4 -0.005,-10e-4 -0.007,-0.0013 -0.015,-0.0037 -0.024,-0.0074 -0.009,-0.0036 -0.015,-0.0073 -0.018,-0.0094 -0.003,-0.002 -0.001,-0.0011 0.005,0.0049 l 1.414,-1.4142 c -0.368,-0.3682 -0.842,-0.5729 -1.372,-0.5729 z m -0.042,-0.0129 c 0.006,0.0061 0.007,0.0079 0.005,0.005 -0.002,-0.0031 -0.006,-0.0091 -0.009,-0.0178 -0.004,-0.0087 -0.006,-0.017 -0.008,-0.0237 -0.001,-0.0066 -0.001,-0.0089 -0.001,-0.0056 h 2 c 0,-0.5302 -0.204,-1.0039 -0.573,-1.3721 z M 132.504,38.12 v 4.935 h 2 V 38.12 Z m 0,4.935 c 0,0.0033 0,10e-4 0.001,-0.0056 0.002,-0.0067 0.004,-0.015 0.008,-0.0237 0.003,-0.0087 0.007,-0.0147 0.009,-0.0178 0.002,-0.0029 0.001,-0.0011 -0.005,0.005 l 1.414,1.4142 c 0.369,-0.3682 0.573,-0.8419 0.573,-1.3721 z m 0.013,-0.0421 c -0.006,0.006 -0.008,0.0069 -0.005,0.0049 0.003,-0.0021 0.009,-0.0058 0.018,-0.0094 0.009,-0.0037 0.017,-0.0061 0.024,-0.0074 C 132.56,42.9997 132.563,43 132.559,43 v 2 c 0.53,0 1.004,-0.2047 1.372,-0.5729 z M 132.559,43 h -18.235 v 2 h 18.235 z m -18.235,0 c -0.003,0 -0.001,-3e-4 0.006,10e-4 0.007,0.0013 0.015,0.0037 0.024,0.0074 0.008,0.0036 0.014,0.0073 0.017,0.0094 0.003,0.002 0.001,0.0011 -0.005,-0.0049 l -1.414,1.4142 C 113.32,44.7953 113.794,45 114.324,45 Z m 0.042,0.0129 c -0.006,-0.0061 -0.007,-0.0079 -0.005,-0.005 0.003,0.0031 0.006,0.0091 0.01,0.0178 0.004,0.0087 0.006,0.017 0.007,0.0237 0.001,0.0066 0.001,0.0089 0.001,0.0056 h -2 c 0,0.5302 0.205,1.0039 0.573,1.3721 z m 0.013,0.0421 v -22.61 h -2 v 22.61 z m 0,-22.61 c 0,-0.0033 0,-0.001 -0.001,0.0056 -0.001,0.0067 -0.003,0.015 -0.007,0.0237 -0.004,0.0087 -0.007,0.0147 -0.01,0.0178 -0.002,0.0029 -0.001,0.0011 0.005,-0.005 l -1.414,-1.4142 c -0.368,0.3682 -0.573,0.8419 -0.573,1.3721 z m -0.013,0.0421 c 0.006,-0.006 0.008,-0.0069 0.005,-0.0049 -0.003,0.0021 -0.009,0.0058 -0.017,0.0094 -0.009,0.0037 -0.017,0.0061 -0.024,0.0074 -0.007,0.0013 -0.009,0.001 -0.006,0.001 v -2 c -0.53,0 -1.004,0.2047 -1.372,0.5729 z M 114.324,20.5 h 17.955 v -2 h -17.955 z m 17.955,0 c 0.004,0 0.001,3e-4 -0.005,-0.001 -0.007,-0.0013 -0.015,-0.0037 -0.024,-0.0074 -0.009,-0.0036 -0.015,-0.0073 -0.018,-0.0094 -0.003,-0.002 -0.001,-0.0011 0.005,0.0049 l 1.414,-1.4142 C 133.283,18.7047 132.809,18.5 132.279,18.5 Z m -0.042,-0.0129 c 0.006,0.0061 0.007,0.0079 0.005,0.005 -0.002,-0.0031 -0.006,-0.0091 -0.009,-0.0178 -0.004,-0.0087 -0.006,-0.017 -0.008,-0.0237 -0.001,-0.0066 -0.001,-0.0089 -0.001,-0.0056 h 2 c 0,-0.5302 -0.204,-1.0039 -0.573,-1.3721 z m -0.013,-0.0421 v 4.935 h 2 v -4.935 z m 0,4.935 c 0,0.0033 0,0.001 0.001,-0.0056 0.002,-0.0067 0.004,-0.015 0.008,-0.0237 0.003,-0.0087 0.007,-0.0147 0.009,-0.0178 0.002,-0.0029 0.001,-0.0011 -0.005,0.005 l 1.414,1.4142 c 0.369,-0.3682 0.573,-0.8419 0.573,-1.3721 z m 0.013,-0.0421 c -0.006,0.006 -0.008,0.0069 -0.005,0.0049 0.003,-0.0021 0.009,-0.0058 0.018,-0.0094 0.009,-0.0037 0.017,-0.0061 0.024,-0.0074 0.006,-0.0013 0.009,-0.001 0.005,-0.001 v 2 c 0.53,0 1.004,-0.2047 1.372,-0.5729 z m 0.042,-0.0129 h -10.5 v 2 h 10.5 z m -11.5,1 v 2.205 h 2 v -2.205 z m 1,3.205 h 9.73 v -2 h -9.73 z m 9.73,0 c 0.004,0 0.001,3e-4 -0.005,-0.001 -0.007,-0.0013 -0.015,-0.0037 -0.024,-0.0074 -0.009,-0.0036 -0.015,-0.0073 -0.018,-0.0094 -0.003,-0.002 -10e-4,-0.0011 0.005,0.0049 l 1.414,-1.4142 C 132.513,27.7347 132.039,27.53 131.509,27.53 Z m -0.042,-0.0129 c 0.006,0.0061 0.007,0.0079 0.005,0.005 -0.002,-0.0031 -0.006,-0.0091 -0.009,-0.0178 -0.004,-0.0087 -0.006,-0.017 -0.008,-0.0237 -0.001,-0.0066 -0.001,-0.0089 -0.001,-0.0056 h 2 c 0,-0.5302 -0.204,-1.0039 -0.573,-1.3721 z m -0.013,-0.0421 v 4.55 h 2 v -4.55 z m 0,4.55 c 0,0.0033 0,0.001 0.001,-0.0056 0.002,-0.0067 0.004,-0.015 0.008,-0.0237 0.003,-0.0087 0.007,-0.0147 0.009,-0.0178 0.002,-0.0029 0.001,-0.0011 -0.005,0.005 l 1.414,1.4142 c 0.369,-0.3682 0.573,-0.8419 0.573,-1.3721 z m 0.013,-0.0421 c -0.006,0.006 -0.008,0.0069 -0.005,0.0049 0.003,-0.0021 0.009,-0.0058 0.018,-0.0094 0.009,-0.0037 0.017,-0.0061 0.024,-0.0074 0.006,-0.0013 0.009,-10e-4 0.005,-10e-4 v 2 c 0.53,0 1.004,-0.2047 1.372,-0.5729 z m 0.042,-0.0129 h -9.73 v 2 h 9.73 z m -10.73,1 v 2.205 h 2 V 34.97 Z m 19.246,-13.58 -0.601,-0.7989 -0.005,0.0035 z m 15.645,0.105 -0.61,0.7923 0.004,0.0033 z m 2.835,5.46 0.707,0.7071 v 0 z m -8.96,-0.385 -0.667,0.7452 v 0 z m -2.66,1.26 -0.399,0.9171 0.007,0.003 0.008,0.003 z m 3.08,0.63 0.127,-0.992 -0.003,-3e-4 z m 7.42,2.45 -0.629,0.7772 0.007,0.0055 0.007,0.0053 z m -1.05,11.2 0.567,0.8238 0.002,-0.0013 z m -16.835,0.07 -0.585,0.8112 v 0 z m -2.8,-5.81 0.707,0.7071 v 0 z m 8.82,0.455 -0.625,0.7809 0.008,0.0059 0.007,0.0058 z m 4.165,-1.225 -0.347,0.9377 0.015,0.0058 0.016,0.0052 z m -3.57,-0.7 0.132,-0.9912 -0.001,-2e-4 z m -8.03,-7.7 c 0,-2.0552 0.824,-3.7026 2.546,-5.0146 l -1.212,-1.5908 c -2.198,1.6746 -3.334,3.9006 -3.334,6.6054 z m 2.542,-5.0111 c 1.765,-1.3295 4.126,-2.0389 7.168,-2.0389 v -2 c -3.351,0 -6.17,0.784 -8.371,2.4411 z m 7.168,-2.0389 c 3.057,0 5.451,0.74 7.265,2.1373 l 1.22,-1.5846 C 154.035,18.9733 151.178,18.15 147.795,18.15 Z m 7.269,2.1406 c 1.937,1.4745 2.686,2.8482 2.686,4.1044 h 2 c 0,-2.1504 -1.304,-4.0435 -3.474,-5.6956 z m 2.686,4.1044 c 0,-0.0286 0.007,-0.0663 0.023,-0.1033 0.015,-0.0352 0.03,-0.049 0.025,-0.0438 l 1.414,1.4142 c 0.331,-0.3303 0.538,-0.7641 0.538,-1.2671 z m 0.048,-0.1471 c 0.01,-0.0097 0.038,-0.034 0.086,-0.0545 0.049,-0.0211 0.096,-0.0284 0.131,-0.0284 v 2 c 0.469,0 0.882,-0.188 1.197,-0.5029 z m 0.217,-0.0829 h -7 v 2 h 7 z m -7,0 c -0.263,0 -0.522,-0.0884 -0.803,-0.3402 l -1.334,1.4904 c 0.606,0.5416 1.327,0.8498 2.137,0.8498 z m -0.803,-0.3402 c -0.67,-0.5995 -1.524,-0.8498 -2.452,-0.8498 v 2 c 0.566,0 0.902,0.1464 1.118,0.3402 z M 147.76,24.975 c -0.624,0 -1.256,0.0853 -1.764,0.3812 -0.59,0.3443 -0.916,0.9199 -0.916,1.5988 h 2 c 0,-0.017 0.003,0.0164 -0.027,0.0674 -0.029,0.0513 -0.06,0.0679 -0.049,0.0614 0.018,-0.0103 0.079,-0.0401 0.212,-0.0659 0.131,-0.0256 0.31,-0.0429 0.544,-0.0429 z m -2.68,1.98 c 0,0.9751 0.772,1.5163 1.406,1.7921 l 0.798,-1.8342 c -0.094,-0.0406 -0.16,-0.0771 -0.205,-0.1064 -0.022,-0.0145 -0.037,-0.0262 -0.048,-0.0346 -0.01,-0.0084 -0.014,-0.0128 -0.014,-0.0127 0.001,8e-4 0.019,0.0207 0.036,0.0616 0.018,0.0428 0.027,0.0901 0.027,0.1342 z m 1.421,1.7981 c 0.699,0.2916 1.851,0.513 3.34,0.6992 l 0.248,-1.9846 c -1.497,-0.1871 -2.399,-0.3857 -2.819,-0.5608 z m 3.338,0.6989 c 3.426,0.4369 5.669,1.2249 6.917,2.2352 l 1.258,-1.5544 c -1.692,-1.3697 -4.395,-2.215 -7.922,-2.6648 z m 6.931,2.246 c 1.187,0.9277 1.855,2.381 1.855,4.567 h 2 c 0,-2.6207 -0.825,-4.7374 -2.624,-6.143 z m 1.855,4.567 c 0,2.0081 -0.897,3.6664 -2.859,5.0225 l 1.138,1.645 c 2.425,-1.6772 3.721,-3.9156 3.721,-6.6675 z m -2.857,5.0212 c -1.955,1.3456 -4.585,2.0638 -7.973,2.0638 v 2 c 3.659,0 6.722,-0.7752 9.107,-2.4162 z m -7.973,2.0638 c -3.399,0 -5.932,-0.6995 -7.71,-1.9812 l -1.17,1.6224 c 2.236,1.6116 5.233,2.3588 8.88,2.3588 z m -7.71,-1.9812 c -1.803,-1.2995 -2.595,-2.7825 -2.595,-4.4738 h -2 c 0,2.462 1.215,4.5023 3.425,6.0962 z M 137.49,36.895 c 0,0.0077 -0.002,0.0393 -0.019,0.0826 -0.018,0.0446 -0.043,0.0787 -0.064,0.0995 l -1.414,-1.4142 c -0.34,0.3398 -0.503,0.7747 -0.503,1.2321 z m -0.083,0.1821 c 0.005,-0.0052 -0.008,0.0099 -0.044,0.0253 -0.036,0.0162 -0.074,0.0226 -0.103,0.0226 v -2 c -0.503,0 -0.937,0.2076 -1.267,0.5379 z m -0.147,0.0479 h 6.65 v -2 h -6.65 z m 6.65,0 c 0.171,0 0.491,0.0852 0.985,0.4809 l 1.25,-1.5618 c -0.672,-0.5377 -1.426,-0.9191 -2.235,-0.9191 z m 1,0.4926 c 0.837,0.6433 1.905,0.9074 3.095,0.9074 v -2 c -0.91,0 -1.498,-0.2026 -1.875,-0.4926 z m 3.095,0.9074 c 0.909,0 1.71,-0.081 2.319,-0.3082 0.31,-0.1159 0.635,-0.2932 0.888,-0.577 0.272,-0.3047 0.418,-0.6843 0.418,-1.0948 h -2 c 0,-0.0838 0.037,-0.1776 0.09,-0.2373 0.035,-0.0388 0.031,-0.0119 -0.096,0.0355 -0.266,0.0995 -0.778,0.1818 -1.619,0.1818 z m 3.625,-1.98 c 0,-1.0843 -0.868,-1.6401 -1.629,-1.8937 l -0.632,1.8974 c 0.112,0.0372 0.19,0.0729 0.244,0.1026 0.054,0.0298 0.073,0.0487 0.074,0.0496 0,0 -0.005,-0.0048 -0.012,-0.0149 -0.007,-0.0103 -0.015,-0.0245 -0.023,-0.0424 -0.017,-0.0388 -0.022,-0.0751 -0.022,-0.0986 z m -1.598,-1.8827 c -0.748,-0.2772 -2.043,-0.5212 -3.785,-0.7535 l -0.264,1.9824 c 1.758,0.2344 2.843,0.457 3.355,0.6465 z m -3.786,-0.7537 c -2.914,-0.384 -4.955,-1.1817 -6.254,-2.2895 -1.259,-1.0735 -1.907,-2.5098 -1.907,-4.4191 h -2 c 0,2.4307 0.858,4.4477 2.609,5.9409 1.711,1.4589 4.184,2.3412 7.291,2.7505 z m 36.119,-11.8536 -0.614,0.7899 0.01,0.0071 z m -19.145,21.665 0.707,-0.7071 v 0 z m 0,-23.94 0.707,0.7071 v 0 z m 8.47,6.545 v -1 h -1 v 1 z m 0,10.85 h -1 v 1 h 1 z m 4.165,-0.7 -0.707,-0.7071 v 0 z M 163.885,20.5 h 10.08 v -2 h -10.08 z m 10.08,0 c 3.236,0 5.805,0.8063 7.786,2.3448 l 1.227,-1.5796 C 180.573,19.397 177.542,18.5 173.965,18.5 Z m 7.796,2.352 c 1.942,1.472 2.929,3.5199 2.929,6.273 h 2 c 0,-3.3136 -1.23,-5.979 -3.721,-7.867 z m 2.929,6.273 v 5.215 h 2 v -5.215 z m 0,5.215 c 0,2.9232 -0.973,5.0047 -2.826,6.4142 l 1.211,1.5916 c 2.441,-1.8571 3.615,-4.5823 3.615,-8.0058 z m -2.826,6.4142 C 179.937,42.2203 177.346,43 174,43 v 2 c 3.653,0 6.709,-0.8536 9.075,-2.6542 z M 174,43 h -10.115 v 2 H 174 Z m -10.115,0 c -0.004,0 -0.001,-3e-4 0.005,10e-4 0.007,0.0013 0.015,0.0037 0.024,0.0074 0.009,0.0036 0.015,0.0073 0.018,0.0094 0.003,0.002 0.001,0.0011 -0.005,-0.0049 l -1.414,1.4142 C 162.881,44.7953 163.355,45 163.885,45 Z m 0.042,0.0129 c -0.006,-0.0061 -0.007,-0.0079 -0.005,-0.005 0.002,0.0031 0.006,0.0091 0.009,0.0178 0.004,0.0087 0.006,0.017 0.008,0.0237 0.001,0.0066 0.001,0.0089 0.001,0.0056 h -2 c 0,0.5302 0.204,1.0039 0.573,1.3721 z m 0.013,0.0421 v -22.61 h -2 v 22.61 z m 0,-22.61 c 0,-0.0033 0,-0.001 -0.001,0.0056 -0.002,0.0067 -0.004,0.015 -0.008,0.0237 -0.003,0.0087 -0.007,0.0147 -0.009,0.0178 -0.002,0.0029 -0.001,0.0011 0.005,-0.005 l -1.414,-1.4142 c -0.369,0.3682 -0.573,0.8419 -0.573,1.3721 z m -0.013,0.0421 c 0.006,-0.006 0.008,-0.0069 0.005,-0.0049 -0.003,0.0021 -0.009,0.0058 -0.018,0.0094 -0.009,0.0037 -0.017,0.0061 -0.024,0.0074 -0.006,0.0013 -0.009,0.001 -0.005,0.001 v -2 c -0.53,0 -1.004,0.2047 -1.372,0.5729 z m 6.763,5.8379 v 10.85 h 2 v -10.85 z m 1,11.85 h 2.275 v -2 h -2.275 z m 2.275,0 c 1.001,0 1.906,-0.3017 2.597,-0.9929 l -1.414,-1.4142 c -0.242,0.2421 -0.598,0.4071 -1.183,0.4071 z m 2.597,-0.9929 c 0.735,-0.7353 1.028,-1.7383 1.028,-2.8421 h -2 c 0,0.7628 -0.198,1.1832 -0.442,1.4279 z M 177.59,34.34 v -5.215 h -2 v 5.215 z m 0,-5.215 c 0,-1.072 -0.25,-2.0621 -0.927,-2.7839 -0.688,-0.734 -1.652,-1.0161 -2.698,-1.0161 v 2 c 0.704,0 1.052,0.1846 1.239,0.3839 0.198,0.2115 0.386,0.6214 0.386,1.4161 z m -3.625,-3.8 h -2.275 v 2 h 2.275 z m 32.402,-4.67 -0.965,0.2631 0.009,0.0338 0.012,0.0331 z m 7.805,22.33 0.948,-0.3162 -0.002,-0.0069 -0.002,-0.0069 z m -0.21,0.805 -0.708,-0.7071 v 0 z m -8.365,-0.665 0.94,-0.3387 -0.001,-0.003 z m -0.84,-2.31 0.939,-0.3417 -0.239,-0.6583 h -0.7 z m -7.525,0 v -1 h -0.701 l -0.239,0.6583 z m -0.84,2.31 -0.94,-0.3417 -0.001,0.003 z m -8.4,0.665 -0.76,0.6508 0.05,0.0584 0.059,0.0501 z m -0.175,-0.805 -0.944,-0.33 -0.003,0.0069 -0.002,0.0069 z m 7.805,-22.33 0.944,0.33 0.011,-0.0331 0.009,-0.0338 z m 3.395,13.335 -0.958,-0.2883 -0.388,1.2883 h 1.346 z m 3.955,0 v 1 h 1.352 l -0.396,-1.293 z m -1.995,-6.51 0.956,-0.293 -0.965,-3.1476 -0.949,3.1523 z m -3.78,-6.98 h 7.595 v -2 h -7.595 z m 7.595,0 c 0.269,0 0.385,0.0606 0.432,0.0952 0.042,0.0307 0.118,0.1053 0.178,0.3229 l 1.929,-0.5262 c -0.15,-0.5524 -0.441,-1.0553 -0.924,-1.4096 C 205.929,18.6319 205.362,18.5 204.792,18.5 Z m 0.631,0.485 7.805,22.33 1.888,-0.66 -7.805,-22.33 z m 7.8,22.3162 c -0.006,-0.0186 -0.011,-0.034 -0.013,-0.0452 -0.003,-0.0114 -0.005,-0.02 -0.006,-0.0255 -0.002,-0.0103 -0.002,-0.013 -0.001,-0.006 0,0.0067 0.001,0.0191 0.002,0.0384 10e-4,0.0191 0.002,0.0429 0.002,0.0721 h 2 c 0,-0.1726 -0.008,-0.4307 -0.087,-0.6662 z m -0.016,0.0338 c 0,-0.1294 0.038,-0.2186 0.058,-0.2554 0.018,-0.0333 0.024,-0.0314 -0.011,0.0033 l 1.415,1.4142 c 0.235,-0.2351 0.538,-0.6289 0.538,-1.1621 z m 0.047,-0.2521 c 0.021,-0.0208 0.055,-0.0461 0.1,-0.0639 0.043,-0.0173 0.075,-0.019 0.083,-0.019 v 2 c 0.457,0 0.892,-0.1631 1.232,-0.5029 z M 213.437,43 h -6.475 v 2 h 6.475 z m -6.475,0 c -0.215,0 -0.302,-0.0445 -0.327,-0.0606 -0.015,-0.0098 -0.056,-0.0369 -0.098,-0.1531 l -1.881,0.6774 c 0.168,0.4671 0.46,0.8776 0.9,1.1594 0.429,0.2755 0.92,0.3769 1.406,0.3769 z m -0.426,-0.2167 -0.84,-2.31 -1.879,0.6834 0.84,2.31 z m -1.779,-2.9683 h -7.525 v 2 h 7.525 z m -8.465,0.6583 -0.84,2.31 1.879,0.6834 0.84,-2.31 z m -0.841,2.313 c -0.042,0.1162 -0.083,0.1433 -0.098,0.1531 C 195.328,42.9555 195.241,43 195.027,43 v 2 c 0.485,0 0.976,-0.1014 1.405,-0.3769 0.44,-0.2818 0.732,-0.6923 0.9,-1.1594 z M 195.027,43 h -6.475 v 2 h 6.475 z m -6.475,0 c 0.008,0 0.028,0.0019 0.053,0.0112 0.012,0.0042 0.021,0.009 0.028,0.0132 0.007,0.0041 0.01,0.0068 0.009,0.0063 l -1.301,1.5186 c 0.34,0.2912 0.756,0.4507 1.211,0.4507 z m 0.199,0.1392 c -0.026,-0.0306 -0.022,-0.0324 -0.009,-0.0045 0.014,0.0305 0.04,0.1004 0.04,0.2003 h -2 c 0,0.4779 0.235,0.8543 0.45,1.1058 z m 0.031,0.1958 c 0,-0.0292 0,-0.053 10e-4,-0.0721 0.001,-0.0193 0.002,-0.0317 0.002,-0.0384 0.001,-0.007 0.001,-0.0043 -0.001,0.006 -0.001,0.0055 -0.003,0.0141 -0.005,0.0255 -0.003,0.0112 -0.008,0.0266 -0.014,0.0452 l -1.897,-0.6324 c -0.079,0.2355 -0.086,0.4936 -0.086,0.6662 z m -0.021,-0.02 7.805,-22.33 -1.888,-0.66 -7.805,22.33 z m 7.825,-22.3969 c 0.06,-0.2176 0.136,-0.2922 0.178,-0.3229 0.047,-0.0346 0.163,-0.0952 0.433,-0.0952 v -2 c -0.571,0 -1.138,0.1319 -1.616,0.4823 -0.483,0.3543 -0.774,0.8572 -0.924,1.4096 z m 2.431,14.0719 h 3.955 v -2 h -3.955 z m 4.911,-1.293 -1.995,-6.51 -1.913,0.586 1.995,6.51 z m -3.909,-6.5053 -1.96,6.51 1.915,0.5766 1.96,-6.51 z m 23.293,16.5283 -0.707,0.7071 v 0 z m -0.28,-7.56 h 1 v -0.2384 l -0.108,-0.2128 z m -7.875,-15.575 -0.894,0.4472 0.002,0.004 z m 0.14,-0.84 0.707,0.7071 v 0 z m 8.61,0.63 -0.902,0.4328 0.007,0.0126 z m 3.5,7.035 -0.895,0.4454 0.895,1.7996 0.895,-1.7996 z m 3.5,-7.035 0.895,0.4455 0.007,-0.0128 z m 8.575,-0.63 -0.759,0.6508 0.05,0.0584 0.058,0.0501 z m 0.175,0.84 0.892,0.4512 0.002,-0.004 z m -7.875,15.575 -0.892,-0.4512 -0.108,0.2128 V 36.16 Z m -0.28,7.56 0.707,0.7071 v 0 z M 230.837,43 h -6.86 v 2 h 6.86 z m -6.86,0 c -0.003,0 -0.001,-3e-4 0.006,10e-4 0.006,0.0013 0.015,0.0037 0.023,0.0074 0.009,0.0036 0.015,0.0073 0.018,0.0094 0.003,0.002 0.001,0.0011 -0.005,-0.0049 l -1.414,1.4142 C 222.973,44.7953 223.447,45 223.977,45 Z m 0.042,0.0129 c -0.006,-0.0061 -0.007,-0.0079 -0.005,-0.005 0.002,0.0031 0.006,0.0091 0.01,0.0178 0.003,0.0087 0.006,0.017 0.007,0.0237 0.001,0.0066 0.001,0.0089 0.001,0.0056 h -2 c 0,0.5302 0.205,1.0039 0.573,1.3721 z m 0.013,0.0421 V 36.16 h -2 v 6.895 z m -0.108,-7.3462 -7.875,-15.575 -1.784,0.9024 7.875,15.575 z m -7.873,-15.571 c 0.029,0.0561 0.036,0.0952 0.037,0.1021 0.002,0.0074 -0.001,-0.004 -0.001,-0.0399 h -2 c 0,0.2396 0.031,0.5434 0.176,0.8322 z m 0.036,0.0622 c 0,0.0664 -0.015,0.1303 -0.04,0.1828 -0.022,0.0491 -0.045,0.071 -0.043,0.0693 l -1.414,-1.4142 c -0.285,0.2851 -0.503,0.679 -0.503,1.1621 z m -0.083,0.2521 c 0.005,-0.0052 -0.009,0.0099 -0.044,0.0253 -0.037,0.0162 -0.074,0.0226 -0.103,0.0226 v -2 c -0.503,0 -0.937,0.2076 -1.267,0.5379 z M 215.857,20.5 h 6.58 v -2 h -6.58 z m 6.58,0 c 0.211,0 0.322,0.0432 0.381,0.078 0.054,0.032 0.121,0.0909 0.188,0.2297 l 1.803,-0.8654 c -0.214,-0.4445 -0.532,-0.8232 -0.968,-1.0828 C 223.41,18.6027 222.926,18.5 222.437,18.5 Z m 0.575,0.3204 3.5,7.035 1.79,-0.8908 -3.5,-7.035 z m 5.29,7.035 3.5,-7.035 -1.79,-0.8908 -3.5,7.035 z m 3.507,-7.0477 c 0.066,-0.1388 0.133,-0.1977 0.187,-0.2297 0.059,-0.0348 0.17,-0.078 0.381,-0.078 v -2 c -0.489,0 -0.973,0.1027 -1.404,0.3595 -0.436,0.2596 -0.754,0.6383 -0.967,1.0828 z M 232.377,20.5 h 6.58 v -2 h -6.58 z m 6.58,0 c -0.028,0 -0.078,-0.0064 -0.134,-0.0326 -0.056,-0.0259 -0.088,-0.0576 -0.1,-0.0716 l 1.518,-1.3016 C 239.917,18.7154 239.467,18.5 238.957,18.5 Z m -0.126,0.0043 c 0.011,0.009 -0.016,-0.0107 -0.046,-0.0664 -0.033,-0.0617 -0.058,-0.145 -0.058,-0.2379 h 2 c 0,-0.5411 -0.284,-0.9484 -0.594,-1.2143 z M 238.727,20.2 c 0,0.0359 -0.003,0.0473 -0.001,0.0399 0.001,-0.0069 0.009,-0.046 0.037,-0.1021 l 1.788,0.8944 c 0.145,-0.2888 0.176,-0.5926 0.176,-0.8322 z m 0.038,-0.0662 -7.875,15.575 1.784,0.9024 7.875,-15.575 z M 230.782,36.16 v 6.895 h 2 V 36.16 Z m 0,6.895 c 0,0.0033 0,10e-4 10e-4,-0.0056 0.001,-0.0067 0.004,-0.015 0.007,-0.0237 0.004,-0.0087 0.008,-0.0147 0.01,-0.0178 0.002,-0.0029 10e-4,-0.0011 -0.005,0.005 l 1.414,1.4142 c 0.368,-0.3682 0.573,-0.8419 0.573,-1.3721 z m 0.013,-0.0421 c -0.006,0.006 -0.008,0.0069 -0.005,0.0049 0.003,-0.0021 0.009,-0.0058 0.018,-0.0094 0.008,-0.0037 0.017,-0.0061 0.023,-0.0074 C 230.838,42.9997 230.84,43 230.837,43 v 2 c 0.53,0 1.004,-0.2047 1.372,-0.5729 z"
     fill="#000000"
     mask="url(#path-1-inside-1_3_19)"
     id="path2"
     transform="translate(-0.52657725,-15.665673)" />
  <path
     d="M 10.533423,25.334327 H 5.5284228 c -0.44333,0 -0.81667,-0.1283 -1.12,-0.385 -0.28,-0.28 -0.44333,-0.595 -0.49,-0.945 L 0.69842275,1.7093269 v -0.105 c 0,-0.21 0.07,-0.385 0.21,-0.525 C 1.0717528,0.91602688 1.2584228,0.83432688 1.4684228,0.83432688 h 6.51 c 0.77,0 1.19,0.31500002 1.26,0.94500002 l 1.1900002,9.8700001 1.435,-4.3750001 c 0.2333,-0.6767 0.63,-1.015 1.19,-1.015 h 3.57 c 0.56,0 0.9567,0.3383 1.19,1.015 l 1.435,4.3400001 1.19,-9.8350001 c 0.07,-0.63 0.49,-0.94500002 1.26,-0.94500002 h 6.51 c 0.21,0 0.385,0.0817 0.525,0.24500002 0.1633,0.14 0.245,0.315 0.245,0.525 v 0.105 l -3.22,22.2950001 c -0.0467,0.35 -0.2217,0.665 -0.525,0.945 -0.28,0.2567 -0.6417,0.385 -1.085,0.385 h -5.005 c -0.7233,0 -1.2017,-0.315 -1.435,-0.945 l -2.87,-7.175 -2.87,7.175 c -0.2333,0.63 -0.7117,0.945 -1.435,0.945 z m 30.3425,-6.825 h 10.78 c 0.2567,0 0.4784,0.0933 0.665,0.28 0.1867,0.1867 0.28,0.4083 0.28,0.665 v 4.935 c 0,0.2567 -0.0933,0.4783 -0.28,0.665 -0.1866,0.1867 -0.4083,0.28 -0.665,0.28 h -18.235 c -0.2566,0 -0.4783,-0.0933 -0.665,-0.28 -0.1866,-0.1867 -0.28,-0.4083 -0.28,-0.665 V 1.7793269 c 0,-0.2567 0.0934,-0.4783 0.28,-0.665 0.1867,-0.18670002 0.4084,-0.28000002 0.665,-0.28000002 h 17.955 c 0.2567,0 0.4784,0.0933 0.665,0.28000002 0.1867,0.1867 0.28,0.4083 0.28,0.665 v 4.935 c 0,0.2567 -0.0933,0.4783 -0.28,0.665 -0.1866,0.1867 -0.4083,0.28 -0.665,0.28 h -10.5 v 2.205 h 9.73 c 0.2567,0 0.4784,0.0933 0.665,0.2800001 0.1867,0.1867 0.28,0.4083 0.28,0.665 v 4.55 c 0,0.2567 -0.0933,0.4783 -0.28,0.665 -0.1866,0.1867 -0.4083,0.28 -0.665,0.28 h -9.73 z m 16.881,-17.67500012 h 10.08 c 3.4066,0 6.2066,0.85170002 8.4,2.55500002 2.2166,1.68 3.325,4.0367 3.325,7.0700001 v 5.215 c 0,3.1733 -1.0734,5.5767 -3.22,7.21 -2.1467,1.6333 -4.97,2.45 -8.47,2.45 h -10.115 c -0.2567,0 -0.4784,-0.0933 -0.665,-0.28 -0.1867,-0.1867 -0.28,-0.4083 -0.28,-0.665 V 1.7793269 c 0,-0.2567 0.0933,-0.4783 0.28,-0.665 0.1866,-0.18670002 0.4083,-0.28000002 0.665,-0.28000002 z m 7.805,6.82500002 V 18.509327 h 2.275 c 0.7933,0 1.4233,-0.2333 1.89,-0.7 0.49,-0.49 0.735,-1.2017 0.735,-2.135 v -5.215 c 0,-1.8667001 -0.875,-2.8000001 -2.625,-2.8000001 z m 32.6118,-6.82500002 h 6.334697 c 0.257,0 0.479,0.0933 0.665,0.28000002 0.187,0.1867 0.28,0.4083 0.28,0.665 V 24.389327 c 0,0.2567 -0.093,0.4783 -0.28,0.665 -0.186,0.1867 -0.408,0.28 -0.665,0.28 h -5.529697 c -0.6067,0 -1.085,-0.2683 -1.435,-0.805 l -5.915,-8.925 v 8.785 c 0,0.2567 -0.0934,0.4783 -0.28,0.665 -0.1867,0.1867 -0.4084,0.28 -0.665,0.28 h -6.335 c -0.2567,0 -0.4784,-0.0933 -0.665,-0.28 -0.1867,-0.1867 -0.28,-0.4083 -0.28,-0.665 V 1.7793269 c 0,-0.2567 0.0933,-0.4783 0.28,-0.665 0.1866,-0.18670002 0.4083,-0.28000002 0.665,-0.28000002 h 5.53 c 0.6533,0 1.1316,0.26830002 1.435,0.80500002 l 5.915,9.6950001 V 1.7793269 c 0,-0.2567 0.0933,-0.4783 0.28,-0.665 0.1866,-0.18670002 0.4083,-0.28000002 0.665,-0.28000002 z M 118.39542,18.509327 h 10.78 c 0.257,0 0.478,0.0933 0.665,0.28 0.187,0.1867 0.28,0.4083 0.28,0.665 v 4.935 c 0,0.2567 -0.093,0.4783 -0.28,0.665 -0.187,0.1867 -0.408,0.28 -0.665,0.28 h -18.235 c -0.257,0 -0.478,-0.0933 -0.665,-0.28 -0.187,-0.1867 -0.28,-0.4083 -0.28,-0.665 V 1.7793269 c 0,-0.2567 0.093,-0.4783 0.28,-0.665 0.187,-0.18670002 0.408,-0.28000002 0.665,-0.28000002 h 17.955 c 0.257,0 0.478,0.0933 0.665,0.28000002 0.187,0.1867 0.28,0.4083 0.28,0.665 v 4.935 c 0,0.2567 -0.093,0.4783 -0.28,0.665 -0.187,0.1867 -0.408,0.28 -0.665,0.28 h -10.5 v 2.205 h 9.73 c 0.257,0 0.478,0.0933 0.665,0.2800001 0.187,0.1867 0.28,0.4083 0.28,0.665 v 4.55 c 0,0.2567 -0.093,0.4783 -0.28,0.665 -0.187,0.1867 -0.408,0.28 -0.665,0.28 h -9.73 z m 15.306,-9.9750001 c 0,-2.38 0.98,-4.3167 2.94,-5.81 1.983,-1.4933 4.573,-2.24000002 7.77,-2.24000002 3.22,0 5.845,0.78170002 7.875,2.34500002 2.053,1.5633 3.08,3.1967 3.08,4.9 0,0.21 -0.082,0.3967 -0.245,0.56 -0.14,0.14 -0.303,0.21 -0.49,0.21 h -7 c -0.537,0 -1.027,-0.1983 -1.47,-0.595 -0.443,-0.3967 -1.038,-0.595 -1.785,-0.595 -1.12,0 -1.68,0.3267 -1.68,0.98 0,0.35 0.268,0.6417 0.805,0.875 0.56,0.2333 1.587,0.4433 3.08,0.63 3.477,0.4433001 5.95,1.2600001 7.42,2.4500001 1.493,1.1667 2.24,2.9517 2.24,5.355 0,2.38 -1.097,4.3283 -3.29,5.845 -2.17,1.4933 -5.017,2.24 -8.54,2.24 -3.523,0 -6.288,-0.7233 -8.295,-2.17 -2.007,-1.4467 -3.01,-3.2083 -3.01,-5.285 0,-0.21 0.07,-0.385 0.21,-0.525 0.163,-0.1633 0.35,-0.245 0.56,-0.245 h 6.65 c 0.49,0 1.027,0.2333 1.61,0.7 0.607,0.4667 1.435,0.7 2.485,0.7 1.75,0 2.625,-0.3267 2.625,-0.98 0,-0.42 -0.315,-0.735 -0.945,-0.945 -0.63,-0.2333 -1.82,-0.4667 -3.57,-0.7 -6.02,-0.7933 -9.03,-3.36 -9.03,-7.7000001 z m 26.8,-7.70000002 h 10.08 c 3.406,0 6.206,0.85170002 8.4,2.55500002 2.216,1.68 3.325,4.0367 3.325,7.0700001 v 5.215 c 0,3.1733 -1.074,5.5767 -3.22,7.21 -2.147,1.6333 -4.97,2.45 -8.47,2.45 h -10.115 c -0.257,0 -0.479,-0.0933 -0.665,-0.28 -0.187,-0.1867 -0.28,-0.4083 -0.28,-0.665 V 1.7793269 c 0,-0.2567 0.093,-0.4783 0.28,-0.665 0.186,-0.18670002 0.408,-0.28000002 0.665,-0.28000002 z m 7.805,6.82500002 V 18.509327 h 2.275 c 0.793,0 1.423,-0.2333 1.89,-0.7 0.49,-0.49 0.735,-1.2017 0.735,-2.135 v -5.215 c 0,-1.8667001 -0.875,-2.8000001 -2.625,-2.8000001 z m 25.506,-6.82500002 h 7.595 c 0.84,0 1.365,0.38500002 1.575,1.15500002 l 7.805,22.3300001 c 0.024,0.07 0.035,0.1867 0.035,0.35 0,0.14 -0.081,0.2917 -0.245,0.455 -0.14,0.14 -0.315,0.21 -0.525,0.21 h -6.475 c -0.7,0 -1.155,-0.2917 -1.365,-0.875 l -0.84,-2.31 h -7.525 l -0.84,2.31 c -0.21,0.5833 -0.665,0.875 -1.365,0.875 h -6.475 c -0.21,0 -0.396,-0.07 -0.56,-0.21 -0.14,-0.1633 -0.21,-0.315 -0.21,-0.455 0,-0.1633 0.012,-0.28 0.035,-0.35 l 7.805,-22.3300001 c 0.21,-0.77 0.735,-1.15500002 1.575,-1.15500002 z m 1.82,14.49000012 h 3.955 l -1.995,-6.5100001 z m 31.821,10.01 h -6.86 c -0.257,0 -0.478,-0.0933 -0.665,-0.28 -0.187,-0.1867 -0.28,-0.4083 -0.28,-0.665 v -6.895 l -7.875,-15.5750001 c -0.047,-0.0933 -0.07,-0.2217 -0.07,-0.385 0,-0.1633 0.07,-0.315 0.21,-0.455 0.163,-0.16330002 0.35,-0.24500002 0.56,-0.24500002 h 6.58 c 0.7,0 1.19,0.29170002 1.47,0.87500002 l 3.5,7.035 3.5,-7.035 c 0.28,-0.5833 0.77,-0.87500002 1.47,-0.87500002 h 6.58 c 0.21,0 0.385,0.0817 0.525,0.24500002 0.163,0.14 0.245,0.2917 0.245,0.455 0,0.1633 -0.023,0.2917 -0.07,0.385 l -7.875,15.5750001 v 6.895 c 0,0.2567 -0.093,0.4783 -0.28,0.665 -0.187,0.1867 -0.408,0.28 -0.665,0.28 z"
     fill="#343131"
     id="path3" />
</svg>
