<svg width="276" height="126" viewBox="0 0 276 126" fill="none" xmlns="http://www.w3.org/2000/svg">
<g filter="url(#filter0_d_14_31)">
<path fill-rule="evenodd" clip-rule="evenodd" d="M256.186 2.44244C265.007 2.65163 272.444 9.2437 273.35 18.0211C275.751 41.2756 275.396 58.7876 273.162 81.9897C272.304 90.9019 264.842 97.7026 255.892 97.9433C172.721 100.18 120.148 100.321 36.5059 97.9172C32.1753 97.7927 28.1462 96.127 25.0973 93.3872C18.2807 110.171 9.35985 115.393 4.48017 118.25C3.09916 119.058 2.04183 119.677 1.4475 120.315C11.1702 105.371 17.6795 90.8121 19.8083 84.0853C15.0173 59.9245 15.202 41.8248 19.9507 16.5776C21.477 8.46255 28.6279 2.67558 36.8831 2.48489C120.395 0.555787 172.986 0.469498 256.186 2.44244ZM1 121C1.08867 120.764 1.23981 120.538 1.4475 120.315C1.29908 120.544 1.14991 120.772 1 121Z" fill="white"/>
<path d="M273.35 18.0211L272.355 18.1237L272.355 18.1237L273.35 18.0211ZM256.186 2.44244L256.162 3.44216L256.186 2.44244ZM273.162 81.9897L274.157 82.0856L274.157 82.0856L273.162 81.9897ZM255.892 97.9433L255.919 98.943L255.919 98.943L255.892 97.9433ZM36.5059 97.9172L36.4772 98.9168L36.4772 98.9168L36.5059 97.9172ZM25.0973 93.3872L25.7657 92.6434C25.5234 92.4256 25.1902 92.3395 24.8728 92.4127C24.5553 92.4858 24.2934 92.709 24.1708 93.0109L25.0973 93.3872ZM4.48017 118.25L4.98538 119.113L4.98539 119.113L4.48017 118.25ZM19.8083 84.0853L20.7617 84.3871C20.8125 84.2266 20.8219 84.0559 20.7892 83.8908L19.8083 84.0853ZM19.9507 16.5776L18.9679 16.3927L18.9679 16.3927L19.9507 16.5776ZM36.8831 2.48489L36.86 1.48516L36.8831 2.48489ZM1 121L0.0636664 120.649C-0.115175 121.126 0.0930424 121.661 0.54719 121.892C1.00134 122.122 1.55628 121.975 1.83588 121.549L1 121ZM274.345 17.9184C273.385 8.61853 265.512 1.66332 256.209 1.44272L256.162 3.44216C264.502 3.63994 271.503 9.86887 272.355 18.1237L274.345 17.9184ZM274.157 82.0856C276.397 58.8315 276.753 41.2516 274.345 17.9184L272.355 18.1237C274.748 41.2995 274.396 58.7436 272.166 81.8938L274.157 82.0856ZM255.919 98.943C265.361 98.689 273.249 91.5127 274.157 82.0856L272.166 81.8938C271.358 90.2911 264.323 96.7162 255.865 96.9437L255.919 98.943ZM36.4772 98.9168C120.139 101.322 172.731 101.18 255.919 98.943L255.865 96.9437C172.711 99.1801 120.156 99.3213 36.5347 96.9176L36.4772 98.9168ZM24.4289 94.131C27.6527 97.028 31.908 98.7854 36.4772 98.9168L36.5347 96.9176C32.4426 96.8 28.6398 95.2261 25.7657 92.6434L24.4289 94.131ZM24.1708 93.0109C20.8079 101.291 16.943 106.68 13.3488 110.341C9.75436 114.002 6.40098 115.967 3.97496 117.387L4.98539 119.113C7.43904 117.677 10.9859 115.602 14.776 111.742C18.5663 107.881 22.5701 102.267 26.0238 93.7635L24.1708 93.0109ZM3.97496 117.387C2.65496 118.16 1.43512 118.862 0.71583 119.634L2.17917 120.997C2.64854 120.493 3.54335 119.957 4.98538 119.113L3.97496 117.387ZM2.28571 120.861C12.0471 105.857 18.6004 91.2166 20.7617 84.3871L18.8549 83.7836C16.7586 90.4077 10.2934 104.885 0.60929 119.77L2.28571 120.861ZM18.9679 16.3927C14.1979 41.7534 14.0093 59.9824 18.8274 84.2798L20.7892 83.8908C16.0253 59.8665 16.2061 41.8962 20.9335 16.7624L18.9679 16.3927ZM36.86 1.48516C28.1567 1.6862 20.586 7.79025 18.9679 16.3927L20.9335 16.7624C22.3681 9.13484 29.0991 3.66496 36.9062 3.48462L36.86 1.48516ZM256.209 1.44272C172.993 -0.530615 120.386 -0.444282 36.86 1.48516L36.9062 3.48462C120.404 1.55586 172.979 1.46961 256.162 3.44216L256.209 1.44272ZM1.93633 121.351C1.96682 121.27 2.03337 121.154 2.17917 120.997L0.71583 119.634C0.446258 119.923 0.210507 120.257 0.0636664 120.649L1.93633 121.351ZM0.609292 119.77C0.461646 119.997 0.313252 120.224 0.164124 120.451L1.83588 121.549C1.98657 121.319 2.13652 121.09 2.28571 120.861L0.609292 119.77Z" fill="black"/>
</g>
<path d="M33.768 29.504C33.168 29.504 33.036 29.072 33.084 28.76C33.18 28.232 33.192 27.68 33.348 27.14C33.468 26.708 33.552 26.276 33.696 25.82C33.84 25.364 34.008 24.896 34.164 24.428C34.368 23.792 34.428 23.144 34.632 22.496C34.824 21.908 34.848 21.332 35.028 20.768C35.256 20.072 36.3 19.952 36.816 19.952C38.04 19.952 39.192 20.144 40.404 20.144C40.776 20.144 41.136 20.108 41.496 20.108C42 20.108 42.528 20.468 42.348 21.02C42.324 21.08 42.3 21.176 42.228 21.272C42.18 21.356 42.108 21.488 41.928 21.596C41.328 21.944 39.768 22.052 39.144 22.052C38.532 22.052 37.992 21.932 37.392 21.932C37.164 21.932 36.984 21.944 36.78 21.992C36.564 22.556 36.324 23.132 36.144 23.684C36.084 23.876 36.06 24.032 35.988 24.224C36.78 24.14 37.908 24.008 38.832 24.008C39.18 24.008 39.504 24.02 39.768 24.068C40.056 24.116 40.38 24.26 40.452 24.572C40.452 24.812 40.38 25.28 40.068 25.46C39.3 25.892 38.22 26.012 37.5 26.048C37.176 26.048 35.856 26.132 35.568 26.216C35.436 26.552 35.184 27.128 35.04 27.572C34.836 28.196 34.776 29.504 33.768 29.504ZM44.4233 24.668C45.8753 24.344 47.5673 23.924 48.9833 23.216C49.1153 23.144 49.4153 22.916 49.4153 22.916C49.3913 22.376 47.7713 22.016 46.8713 22.016C46.5953 22.016 46.2833 22.052 45.9593 22.1C45.6833 22.148 45.4313 22.208 45.1673 22.244C45.0713 22.532 44.9873 22.844 44.8913 23.132C44.7833 23.444 44.6633 23.72 44.5673 24.008C44.5433 24.104 44.4953 24.308 44.4233 24.668ZM43.1753 28.796C43.0433 29.204 42.7793 29.768 42.2273 29.768C42.0713 29.768 41.9272 29.696 41.8673 29.66C41.3152 29.432 41.3992 28.856 41.5192 28.496C41.6513 28.076 41.9033 27.668 42.0353 27.26C42.4553 25.964 42.6233 24.656 43.0433 23.348C43.1513 23.024 43.1753 22.688 43.1873 22.376C43.2233 22.028 43.2593 21.68 43.3793 21.308C43.4393 21.116 43.5833 20.828 43.9073 20.648C44.5793 20.3 46.7873 20.072 47.3993 20.072C47.7713 20.072 48.0953 20.108 48.4073 20.168C49.7513 20.468 50.4473 20.672 51.0233 21.812C51.1793 22.184 51.2393 22.556 51.0833 23.036C50.5673 24.656 47.0873 25.892 45.7313 26.276C45.8153 26.396 46.3193 26.624 46.4993 26.684C47.0393 26.9 47.6033 27.068 48.2393 27.128C48.4193 27.152 48.7313 27.164 49.0193 27.212C49.4153 27.284 50.1473 27.488 49.9673 28.04C49.7513 28.688 48.5872 29.036 47.9633 29.036C47.3513 29.036 46.0193 28.736 45.5513 28.376C44.9993 28.064 44.0993 27.488 43.6793 27.104C43.4993 27.668 43.3673 28.232 43.1753 28.796ZM55.1321 27.536C55.6601 27.536 56.1881 27.476 56.7641 27.344C57.6041 27.14 58.8161 26.084 59.0201 25.436C59.1161 25.148 59.1761 24.452 59.1041 23.804C59.0801 23.444 58.9721 22.664 58.5521 22.604C58.0961 22.544 57.5801 22.496 57.2681 22.22C57.2321 22.244 57.1961 22.256 57.1361 22.292C56.8001 22.4 56.4761 22.604 56.1401 22.76C55.0241 23.288 53.7401 24.488 53.3801 25.616C53.2001 26.168 53.1041 26.672 53.4881 26.984C53.7641 27.248 54.6041 27.452 55.1321 27.536ZM55.1801 29.576C53.3681 29.576 51.1481 28.304 51.3401 26.36C51.4001 26.084 51.4481 25.808 51.5441 25.52C52.1441 23.684 54.4961 20.276 57.8201 20.276C60.0641 20.276 60.6761 22.016 60.9161 23.264C61.0721 24.008 61.0601 24.74 60.7961 25.58C60.7001 25.868 60.5561 26.18 60.4241 26.48C59.4401 28.424 57.0521 29.576 55.1801 29.576ZM62.8451 29.66C62.4131 29.66 62.1491 29.396 62.0411 29C61.7771 28.136 62.1731 25.976 62.4731 24.848C62.6771 24.152 62.8091 23.456 62.9531 22.76C63.0491 22.316 63.1331 21.824 63.2891 21.368C63.4091 20.984 63.7571 20.36 64.2251 20.24C64.3211 20.228 64.4291 20.204 64.5131 20.204C65.2931 20.204 65.3411 21.008 65.5091 21.56C65.6051 21.872 65.7371 22.556 65.9171 22.796C66.3251 23.456 66.8051 24.116 67.2731 24.764C67.5131 25.16 67.8011 25.52 68.1131 25.868C68.2571 25.988 68.3891 26.084 68.5691 26.12C68.9171 25.052 69.2771 23.984 69.6251 22.904C69.7571 22.484 70.1531 21.392 70.4411 20.984C70.7171 20.588 71.2211 20.192 71.7251 20.192C72.0731 20.192 72.1331 20.432 72.1571 20.708C72.0371 21.788 70.9211 24.728 70.4651 25.856C70.4411 25.928 70.4171 26.012 70.3931 26.084C70.1291 26.9 69.9731 27.728 69.7211 28.532C69.5291 29.132 69.1091 29.336 68.6891 29.336C68.3171 29.336 67.9331 29.18 67.6811 29C67.0451 28.424 66.5291 27.752 66.0131 27.068C65.7371 26.756 65.4491 26.36 65.2091 25.964C64.9211 25.496 64.6811 24.992 64.3811 24.536C64.2731 25.052 64.2011 25.556 64.1411 26.06C64.0811 26.792 64.0091 27.5 63.8651 28.232C63.7691 28.844 63.6251 29.66 62.8451 29.66ZM76.6647 28.616C76.5927 28.856 76.1487 29.504 75.4887 29.504C75.1407 29.504 75.0327 29.264 74.9727 29.072C74.9247 28.844 74.9127 28.544 74.9487 28.256C75.0567 27.14 75.4647 25.832 75.8367 24.704C76.0167 24.14 76.1487 23.564 76.2327 23C76.2687 22.796 76.4127 22.256 76.4607 22.052C75.8487 22.052 75.2967 22.088 74.6607 22.244C74.4567 22.292 74.2047 22.34 74.0007 22.34C73.5207 22.34 73.3047 22.148 73.2207 21.908C73.1247 21.62 73.1847 21.272 73.3887 20.924C73.7247 20.276 75.5487 20.144 76.1007 20.144C77.6007 20.144 79.6167 20.168 80.9367 20.576C81.3687 20.696 81.5247 21.284 81.3687 21.776C81.2967 21.992 81.0327 22.1 80.8647 22.136C80.6607 22.172 80.3847 22.184 80.0847 22.184C79.5087 22.184 78.8367 22.136 78.4647 22.124C78.1647 22.784 77.7567 23.984 77.4927 24.776C77.2527 25.52 76.9767 26.624 76.7967 27.368C76.6887 27.8 76.8087 28.184 76.6647 28.616ZM83.5611 24.116C83.9571 24.068 84.3171 24.032 84.7011 24.032C85.4811 24.032 86.2491 24.068 87.0051 24.116C87.7731 24.176 88.6251 24.26 88.3131 25.244C88.0731 25.988 86.6811 25.928 86.1891 25.928C85.6731 25.928 85.1451 25.904 84.6291 25.904C84.2931 25.904 83.9331 25.904 83.5971 25.976C83.4531 25.988 83.2851 26.024 83.0931 26.048C82.9371 26.396 82.7691 26.744 82.6611 27.068C82.6131 27.224 82.6011 27.368 82.5531 27.524C82.8051 27.524 83.0811 27.476 83.3451 27.416C83.8731 27.332 84.3771 27.344 84.9051 27.26C85.7571 27.128 86.6931 27.092 87.5091 27.092C88.2051 27.092 88.3131 27.368 88.1691 27.8C88.0971 28.04 87.9051 28.388 87.6171 28.508C87.0291 28.772 86.0331 28.88 85.4091 29C85.1451 29.048 84.9051 29.108 84.6651 29.144C83.9091 29.276 82.9011 29.456 82.1811 29.456C81.0531 29.456 80.5971 28.46 80.8011 27.404C80.9091 26.972 81.0531 26.552 81.1971 26.132C81.4131 25.472 81.5331 24.824 81.7371 24.188C81.8811 23.756 81.9891 23.324 82.1331 22.88C82.2411 22.52 82.4331 22.172 82.5531 21.812C82.6611 21.476 82.7331 21.128 82.8771 20.804C83.1891 20.24 83.9571 20 84.4731 20C85.5411 20 86.5611 20.12 87.6291 20.156C88.2051 20.168 90.4011 20.48 90.1251 21.332C89.9931 21.716 89.5731 21.908 89.2131 21.98C88.1451 22.148 86.7411 22.184 85.6971 22.184C85.6731 22.184 84.7131 22.064 84.3891 22.136C84.1011 22.592 83.8611 23.192 83.6811 23.756L83.5611 24.116ZM91.2162 29.66C90.7842 29.66 90.5202 29.396 90.4122 29C90.1482 28.136 90.5442 25.976 90.8442 24.848C91.0482 24.152 91.1802 23.456 91.3242 22.76C91.4202 22.316 91.5042 21.824 91.6602 21.368C91.7802 20.984 92.1282 20.36 92.5962 20.24C92.6922 20.228 92.8002 20.204 92.8842 20.204C93.6642 20.204 93.7122 21.008 93.8802 21.56C93.9762 21.872 94.1082 22.556 94.2882 22.796C94.6962 23.456 95.1762 24.116 95.6442 24.764C95.8842 25.16 96.1722 25.52 96.4842 25.868C96.6282 25.988 96.7602 26.084 96.9402 26.12C97.2882 25.052 97.6482 23.984 97.9962 22.904C98.1282 22.484 98.5242 21.392 98.8122 20.984C99.0882 20.588 99.5922 20.192 100.096 20.192C100.444 20.192 100.504 20.432 100.528 20.708C100.408 21.788 99.2922 24.728 98.8362 25.856C98.8122 25.928 98.7882 26.012 98.7642 26.084C98.5002 26.9 98.3442 27.728 98.0922 28.532C97.9002 29.132 97.4802 29.336 97.0602 29.336C96.6882 29.336 96.3042 29.18 96.0522 29C95.4162 28.424 94.9002 27.752 94.3842 27.068C94.1082 26.756 93.8202 26.36 93.5802 25.964C93.2922 25.496 93.0522 24.992 92.7522 24.536C92.6442 25.052 92.5722 25.556 92.5122 26.06C92.4522 26.792 92.3802 27.5 92.2362 28.232C92.1402 28.844 91.9962 29.66 91.2162 29.66ZM102.12 27.668C103.38 27.38 105.024 26.48 105.852 25.712C106.344 25.268 107.304 23.996 106.956 23.48C106.284 22.472 105.132 21.872 103.716 21.716C103.356 22.412 103.188 23.888 102.924 24.704C102.696 25.4 102.528 26.096 102.36 26.792C102.276 27.092 102.204 27.38 102.12 27.668ZM102.06 29.552C101.772 29.648 101.244 29.78 101.016 29.78C100.44 29.78 99.8758 29.072 100.068 28.484C100.224 27.992 100.272 27.536 100.416 27.068C100.872 25.664 101.232 24.236 101.604 22.844C101.688 22.52 101.796 22.22 101.892 21.896C102.048 21.44 101.952 21.02 102.096 20.576C102.348 19.808 102.96 19.688 103.596 19.688C104.1 19.688 104.52 19.808 104.904 19.916C106.788 20.42 109.596 21.512 108.732 24.152C108.588 24.62 107.676 26.012 106.704 26.948C104.94 28.616 103.464 29.12 102.06 29.552ZM107.59 28.568C107.77 27.992 108.694 27.068 109.318 27.068C109.546 27.068 109.858 27.176 110.026 27.296C110.374 27.5 109.738 28.544 109.462 28.796C109.234 28.988 108.502 29.468 108.034 29.468C107.674 29.468 107.578 29.228 107.542 29.084C107.518 28.892 107.542 28.7 107.59 28.568ZM116.228 28.304C116.444 27.632 117.68 27.416 118.184 27.416C118.508 27.416 118.844 27.44 119.144 27.476C119.192 27.344 119.228 27.224 119.276 27.092C119.624 26.012 120.128 24.92 120.488 23.816C120.668 23.288 120.8 22.724 120.932 22.172C120.596 22.124 120.26 22.028 119.96 21.944C119.24 21.752 119.18 21.272 119.36 20.744C119.504 20.276 120.536 20.012 120.884 20.012C121.124 20.012 121.472 20.048 121.7 20.108C121.964 20.156 122.192 20.204 122.396 20.204C123.476 20.204 124.58 20.072 125.648 20.072C126.224 20.072 126.308 20.324 126.188 20.672C126.092 20.984 125.78 21.308 125.468 21.512C125.06 21.86 123.2 22.1 122.636 22.172C122.312 23.288 121.952 24.38 121.592 25.496C121.4 26.084 121.304 26.672 121.112 27.26C121.088 27.32 121.076 27.38 121.064 27.416C121.136 27.404 121.184 27.404 121.268 27.38C121.472 27.344 121.7 27.296 121.892 27.248C122.336 27.164 122.768 27.056 123.08 27.056C123.32 27.056 123.656 27.068 123.92 27.14C124.196 27.188 124.196 27.668 124.112 27.92C124.076 28.028 124.028 28.136 123.92 28.256C123.764 28.412 123.488 28.532 123.224 28.616C121.424 29.276 119.084 29.456 117.188 29.456C116.804 29.384 116.66 29.348 116.456 29C116.372 28.796 116.132 28.58 116.228 28.304ZM133.291 25.052C132.763 26.66 133.867 27.5 135.379 27.5C136.651 27.5 138.043 27.02 138.799 27.02C139.231 27.02 139.627 27.32 139.507 27.692C139.411 27.992 138.943 28.376 138.703 28.544C138.091 28.964 135.931 29.492 135.271 29.492C132.799 29.492 131.671 28.268 131.143 26.78C130.939 26.204 131.011 25.316 131.215 24.668C131.467 23.912 132.115 23.192 132.715 22.532C132.967 22.28 133.207 21.98 133.447 21.716C134.251 20.84 135.715 19.952 136.891 19.952C137.503 19.952 138.139 20.108 138.571 20.312C139.411 20.648 140.323 21.68 139.975 22.76C139.939 22.88 139.867 23.096 139.747 23.3C139.615 23.492 139.351 23.756 138.919 23.756C138.595 23.756 138.187 23.372 138.127 23.108C138.079 23 138.091 22.88 138.055 22.784C137.995 22.436 137.503 21.896 137.155 21.896C135.787 21.896 133.687 23.816 133.291 25.052ZM144.027 25.208C144.627 25.124 145.419 25.088 145.971 25.088C145.923 24.38 145.755 23.408 145.659 22.724C145.179 23.336 144.399 24.584 144.027 25.208ZM141.783 28.892C141.567 29.348 141.159 29.504 140.763 29.504C140.223 29.504 140.127 29.12 140.115 28.856C140.115 28.028 140.703 27.068 141.123 26.408C141.483 25.868 141.879 25.328 142.191 24.848C142.431 24.512 142.647 24.188 142.839 23.852C143.259 23.132 143.703 22.472 144.219 21.776C144.495 21.392 144.771 20.984 145.059 20.624C145.311 20.312 145.539 19.916 145.983 19.916C146.163 19.916 146.307 19.976 146.439 20.072C146.847 20.228 147.255 20.744 147.279 21.152C147.327 21.368 147.375 21.596 147.435 21.824C147.747 23.324 147.711 24.86 147.879 26.372C147.963 27.056 147.987 27.872 147.747 28.58C147.603 29.036 147.291 29.576 146.739 29.576C145.971 29.576 146.163 28.856 146.127 28.412C146.079 27.836 146.127 27.404 146.007 26.876C145.575 26.972 142.875 27.176 142.875 27.176C142.563 27.824 142.131 28.256 141.783 28.892ZM149.93 29.396C149.402 28.58 150.026 26.036 150.314 24.92C150.59 23.816 150.794 22.712 151.154 21.596C151.202 21.452 151.346 21.032 151.55 20.636C151.67 20.444 151.79 20.228 151.922 20.096C152.126 19.892 152.294 19.76 152.57 19.76C152.87 19.76 153.002 19.952 153.146 20.132C153.338 20.36 153.662 21.248 153.806 21.584C154.106 22.34 154.49 23.096 155.03 23.78C155.51 23.072 156.47 21.968 157.082 21.416C157.682 20.888 158.342 20.276 158.834 19.952C158.942 19.88 159.074 19.796 159.278 19.796C159.614 19.796 159.926 20.012 160.142 20.204C160.634 20.648 160.322 21.836 160.094 22.52C159.938 23.012 159.734 23.492 159.578 23.972C159.338 24.704 159.182 25.436 158.93 26.18C158.714 26.84 158.282 28.124 157.91 28.748C157.718 29.072 157.358 29.42 156.998 29.42C156.662 29.42 156.602 29.144 156.53 28.928C156.41 28.556 156.626 28.184 156.71 27.776C156.806 27.332 156.926 26.888 157.07 26.432C157.178 26.108 157.298 25.808 157.406 25.472C157.562 25.004 157.634 24.56 157.79 24.092C157.862 23.852 157.994 23.336 158.09 23.108C157.43 23.672 156.566 24.908 156.194 25.4C155.858 25.856 155.366 26.564 154.754 26.564C154.274 26.564 153.914 25.856 153.674 25.544C153.218 24.992 152.798 24.32 152.522 23.66C152.282 24.62 152.066 25.568 151.874 26.516C151.778 27.044 151.586 27.56 151.502 28.064C151.478 28.268 151.454 28.484 151.382 28.712C151.25 29.108 150.854 29.66 150.362 29.66C150.122 29.66 150.038 29.54 149.93 29.396ZM162.827 24.116C163.223 24.068 163.583 24.032 163.967 24.032C164.747 24.032 165.515 24.068 166.271 24.116C167.039 24.176 167.891 24.26 167.579 25.244C167.339 25.988 165.947 25.928 165.455 25.928C164.939 25.928 164.411 25.904 163.895 25.904C163.559 25.904 163.199 25.904 162.863 25.976C162.719 25.988 162.551 26.024 162.359 26.048C162.203 26.396 162.035 26.744 161.927 27.068C161.879 27.224 161.867 27.368 161.819 27.524C162.071 27.524 162.347 27.476 162.611 27.416C163.139 27.332 163.643 27.344 164.171 27.26C165.023 27.128 165.959 27.092 166.775 27.092C167.471 27.092 167.579 27.368 167.435 27.8C167.363 28.04 167.171 28.388 166.883 28.508C166.295 28.772 165.299 28.88 164.675 29C164.411 29.048 164.171 29.108 163.931 29.144C163.175 29.276 162.167 29.456 161.447 29.456C160.319 29.456 159.863 28.46 160.067 27.404C160.175 26.972 160.319 26.552 160.463 26.132C160.679 25.472 160.799 24.824 161.003 24.188C161.147 23.756 161.255 23.324 161.399 22.88C161.507 22.52 161.699 22.172 161.819 21.812C161.927 21.476 161.999 21.128 162.143 20.804C162.455 20.24 163.223 20 163.739 20C164.807 20 165.827 20.12 166.895 20.156C167.471 20.168 169.667 20.48 169.391 21.332C169.259 21.716 168.839 21.908 168.479 21.98C167.411 22.148 166.007 22.184 164.963 22.184C164.939 22.184 163.979 22.064 163.655 22.136C163.367 22.592 163.127 23.192 162.947 23.756L162.827 24.116ZM167.878 31.064C167.866 30.896 167.89 30.704 167.926 30.584C168.022 30.284 168.322 29.972 168.61 29.708C168.91 29.456 169.234 29.192 169.45 29C169.678 28.796 169.81 28.508 169.906 28.22C170.158 27.44 170.782 26.468 171.706 26.468C172.114 26.468 172.222 26.792 172.186 27.164C172.174 27.452 172.09 27.8 172.042 27.944C171.754 28.856 170.434 30.308 169.462 30.932C169.294 31.052 169.102 31.172 168.934 31.28C168.814 31.34 168.622 31.448 168.466 31.484C168.406 31.508 168.358 31.508 168.322 31.508C168.13 31.508 168.022 31.412 167.962 31.34C167.902 31.28 167.878 31.172 167.878 31.064ZM178.232 28.304C178.448 27.632 179.684 27.416 180.188 27.416C180.512 27.416 180.848 27.44 181.148 27.476C181.196 27.344 181.232 27.224 181.28 27.092C181.628 26.012 182.132 24.92 182.492 23.816C182.672 23.288 182.804 22.724 182.936 22.172C182.6 22.124 182.264 22.028 181.964 21.944C181.244 21.752 181.184 21.272 181.364 20.744C181.508 20.276 182.54 20.012 182.888 20.012C183.128 20.012 183.476 20.048 183.704 20.108C183.968 20.156 184.196 20.204 184.4 20.204C185.48 20.204 186.584 20.072 187.652 20.072C188.228 20.072 188.312 20.324 188.192 20.672C188.096 20.984 187.784 21.308 187.472 21.512C187.064 21.86 185.204 22.1 184.64 22.172C184.316 23.288 183.956 24.38 183.596 25.496C183.404 26.084 183.308 26.672 183.116 27.26C183.092 27.32 183.08 27.38 183.068 27.416C183.14 27.404 183.188 27.404 183.272 27.38C183.476 27.344 183.704 27.296 183.896 27.248C184.34 27.164 184.772 27.056 185.084 27.056C185.324 27.056 185.66 27.068 185.924 27.14C186.2 27.188 186.2 27.668 186.116 27.92C186.08 28.028 186.032 28.136 185.924 28.256C185.768 28.412 185.492 28.532 185.228 28.616C183.428 29.276 181.088 29.456 179.192 29.456C178.808 29.384 178.664 29.348 178.46 29C178.376 28.796 178.136 28.58 178.232 28.304ZM194.875 26.624C194.971 27.476 196.567 27.824 197.383 27.824C198.043 27.824 198.835 27.692 199.435 27.104C199.135 26.912 198.811 26.792 198.475 26.636C197.899 26.372 197.335 26.12 196.735 25.892C196.159 25.652 195.583 25.424 195.043 25.124C194.347 24.644 193.723 23.924 194.071 22.868C194.635 21.128 197.119 20.084 198.631 20.084C199.951 20.084 200.947 20.744 201.499 21.716C201.715 22.016 201.871 22.4 201.751 22.748C201.619 23.156 200.995 23.42 200.563 23.42C200.059 23.42 199.675 22.784 199.579 22.4C199.507 22.124 199.255 21.836 198.955 21.836C198.331 21.836 197.395 22.064 196.759 22.496C196.507 22.688 196.243 22.904 195.991 23.096C195.991 23.192 196.387 23.504 196.471 23.576C196.807 23.852 197.131 24.08 197.167 24.116C197.575 24.272 197.947 24.452 198.343 24.572C199.219 24.884 200.071 25.304 200.755 25.772C201.295 26.156 201.499 26.792 201.295 27.404C200.935 28.532 199.903 29.276 198.751 29.492C198.199 29.588 197.575 29.66 197.035 29.66C196.171 29.66 195.631 29.336 194.923 29.072C193.987 28.7 192.547 27.764 192.955 26.516C193.099 26.084 193.435 25.808 193.891 25.808C194.419 25.808 194.839 26.132 194.875 26.624ZM205.726 25.208C206.326 25.124 207.118 25.088 207.67 25.088C207.622 24.38 207.454 23.408 207.358 22.724C206.878 23.336 206.098 24.584 205.726 25.208ZM203.482 28.892C203.266 29.348 202.858 29.504 202.462 29.504C201.922 29.504 201.826 29.12 201.814 28.856C201.814 28.028 202.402 27.068 202.822 26.408C203.182 25.868 203.578 25.328 203.89 24.848C204.13 24.512 204.346 24.188 204.538 23.852C204.958 23.132 205.402 22.472 205.918 21.776C206.194 21.392 206.47 20.984 206.758 20.624C207.01 20.312 207.238 19.916 207.682 19.916C207.862 19.916 208.006 19.976 208.138 20.072C208.546 20.228 208.954 20.744 208.978 21.152C209.026 21.368 209.074 21.596 209.134 21.824C209.446 23.324 209.41 24.86 209.578 26.372C209.662 27.056 209.686 27.872 209.446 28.58C209.302 29.036 208.99 29.576 208.438 29.576C207.67 29.576 207.862 28.856 207.826 28.412C207.778 27.836 207.826 27.404 207.706 26.876C207.274 26.972 204.574 27.176 204.574 27.176C204.262 27.824 203.83 28.256 203.482 28.892ZM213.314 26.66C214.238 25.628 214.586 25.148 215.354 24.044C215.654 23.6 216.014 23.132 216.374 22.832C216.458 22.748 216.638 22.652 216.83 22.652C217.538 22.652 217.814 23.72 217.838 24.296C217.862 25.052 217.934 25.772 218.03 26.492C218.426 25.832 218.834 25.172 219.194 24.536C219.866 23.324 220.382 21.944 221.198 20.78C221.426 20.42 221.738 20.072 222.17 20.072C222.71 20.072 223.202 20.708 223.01 21.272C222.902 21.596 222.734 21.896 222.602 22.208C221.93 23.756 221.066 25.232 220.178 26.72C219.722 27.56 218.57 29.492 217.514 29.492C217.01 29.492 216.71 29.108 216.566 28.928C216.386 28.7 216.314 28.412 216.254 28.1C216.206 27.824 216.218 27.5 216.17 27.284C216.134 26.948 216.098 26.552 215.99 26.24C215.354 27.056 214.706 27.908 214.046 28.7C213.686 29.168 213.194 29.66 212.618 29.66C212.39 29.66 212.21 29.576 212.09 29.468C211.982 29.36 211.898 29.204 211.838 29.084C211.394 28.04 211.466 26.864 211.574 25.592C211.682 24.548 211.754 23.564 211.742 22.556C211.754 22.292 211.778 21.992 211.862 21.716C212.006 21.272 212.426 20.816 212.93 20.816C213.29 20.816 213.434 21.056 213.506 21.212C213.746 21.908 213.494 22.88 213.422 23.684C213.302 24.668 213.29 25.676 213.314 26.66ZM220.097 31.064C220.085 30.896 220.109 30.704 220.145 30.584C220.241 30.284 220.541 29.972 220.829 29.708C221.129 29.456 221.453 29.192 221.669 29C221.897 28.796 222.029 28.508 222.125 28.22C222.377 27.44 223.001 26.468 223.925 26.468C224.333 26.468 224.441 26.792 224.405 27.164C224.393 27.452 224.309 27.8 224.261 27.944C223.973 28.856 222.653 30.308 221.681 30.932C221.513 31.052 221.321 31.172 221.153 31.28C221.033 31.34 220.841 31.448 220.685 31.484C220.625 31.508 220.577 31.508 220.541 31.508C220.349 31.508 220.241 31.412 220.181 31.34C220.121 31.28 220.097 31.172 220.097 31.064ZM230.451 28.304C230.667 27.632 231.903 27.416 232.407 27.416C232.731 27.416 233.067 27.44 233.367 27.476C233.415 27.344 233.451 27.224 233.499 27.092C233.847 26.012 234.351 24.92 234.711 23.816C234.891 23.288 235.023 22.724 235.155 22.172C234.819 22.124 234.483 22.028 234.183 21.944C233.463 21.752 233.403 21.272 233.583 20.744C233.727 20.276 234.759 20.012 235.107 20.012C235.347 20.012 235.695 20.048 235.923 20.108C236.187 20.156 236.415 20.204 236.619 20.204C237.699 20.204 238.803 20.072 239.871 20.072C240.447 20.072 240.531 20.324 240.411 20.672C240.315 20.984 240.003 21.308 239.691 21.512C239.283 21.86 237.423 22.1 236.859 22.172C236.535 23.288 236.175 24.38 235.815 25.496C235.623 26.084 235.527 26.672 235.335 27.26C235.311 27.32 235.299 27.38 235.287 27.416C235.359 27.404 235.407 27.404 235.491 27.38C235.695 27.344 235.923 27.296 236.115 27.248C236.559 27.164 236.991 27.056 237.303 27.056C237.543 27.056 237.879 27.068 238.143 27.14C238.419 27.188 238.419 27.668 238.335 27.92C238.299 28.028 238.251 28.136 238.143 28.256C237.987 28.412 237.711 28.532 237.447 28.616C235.647 29.276 233.307 29.456 231.411 29.456C231.027 29.384 230.883 29.348 230.679 29C230.595 28.796 230.355 28.58 230.451 28.304ZM35.112 43.668C36.372 43.38 38.016 42.48 38.844 41.712C39.336 41.268 40.296 39.996 39.948 39.48C39.276 38.472 38.124 37.872 36.708 37.716C36.348 38.412 36.18 39.888 35.916 40.704C35.688 41.4 35.52 42.096 35.352 42.792C35.268 43.092 35.196 43.38 35.112 43.668ZM35.052 45.552C34.764 45.648 34.236 45.78 34.008 45.78C33.432 45.78 32.868 45.072 33.06 44.484C33.216 43.992 33.264 43.536 33.408 43.068C33.864 41.664 34.224 40.236 34.596 38.844C34.68 38.52 34.788 38.22 34.884 37.896C35.04 37.44 34.944 37.02 35.088 36.576C35.34 35.808 35.952 35.688 36.588 35.688C37.092 35.688 37.512 35.808 37.896 35.916C39.78 36.42 42.588 37.512 41.724 40.152C41.58 40.62 40.668 42.012 39.696 42.948C37.932 44.616 36.456 45.12 35.052 45.552ZM44.7017 40.116C45.0977 40.068 45.4577 40.032 45.8417 40.032C46.6217 40.032 47.3897 40.068 48.1457 40.116C48.9137 40.176 49.7657 40.26 49.4537 41.244C49.2137 41.988 47.8217 41.928 47.3297 41.928C46.8137 41.928 46.2857 41.904 45.7697 41.904C45.4337 41.904 45.0737 41.904 44.7377 41.976C44.5937 41.988 44.4257 42.024 44.2337 42.048C44.0777 42.396 43.9097 42.744 43.8017 43.068C43.7537 43.224 43.7417 43.368 43.6937 43.524C43.9457 43.524 44.2217 43.476 44.4857 43.416C45.0137 43.332 45.5177 43.344 46.0457 43.26C46.8977 43.128 47.8337 43.092 48.6497 43.092C49.3457 43.092 49.4537 43.368 49.3097 43.8C49.2377 44.04 49.0457 44.388 48.7577 44.508C48.1697 44.772 47.1737 44.88 46.5497 45C46.2857 45.048 46.0457 45.108 45.8057 45.144C45.0497 45.276 44.0417 45.456 43.3217 45.456C42.1937 45.456 41.7377 44.46 41.9417 43.404C42.0497 42.972 42.1937 42.552 42.3377 42.132C42.5537 41.472 42.6737 40.824 42.8777 40.188C43.0217 39.756 43.1297 39.324 43.2737 38.88C43.3817 38.52 43.5737 38.172 43.6937 37.812C43.8017 37.476 43.8737 37.128 44.0177 36.804C44.3297 36.24 45.0977 36 45.6137 36C46.6817 36 47.7017 36.12 48.7697 36.156C49.3457 36.168 51.5417 36.48 51.2657 37.332C51.1337 37.716 50.7137 37.908 50.3537 37.98C49.2857 38.148 47.8817 38.184 46.8377 38.184C46.8137 38.184 45.8537 38.064 45.5297 38.136C45.2417 38.592 45.0017 39.192 44.8217 39.756L44.7017 40.116ZM53.1128 42.624C53.2088 43.476 54.8048 43.824 55.6208 43.824C56.2808 43.824 57.0728 43.692 57.6728 43.104C57.3728 42.912 57.0488 42.792 56.7128 42.636C56.1368 42.372 55.5728 42.12 54.9728 41.892C54.3968 41.652 53.8208 41.424 53.2808 41.124C52.5848 40.644 51.9608 39.924 52.3088 38.868C52.8728 37.128 55.3568 36.084 56.8688 36.084C58.1888 36.084 59.1848 36.744 59.7368 37.716C59.9528 38.016 60.1088 38.4 59.9888 38.748C59.8568 39.156 59.2328 39.42 58.8008 39.42C58.2968 39.42 57.9128 38.784 57.8168 38.4C57.7448 38.124 57.4928 37.836 57.1928 37.836C56.5688 37.836 55.6328 38.064 54.9968 38.496C54.7448 38.688 54.4808 38.904 54.2288 39.096C54.2288 39.192 54.6248 39.504 54.7088 39.576C55.0448 39.852 55.3688 40.08 55.4048 40.116C55.8128 40.272 56.1848 40.452 56.5808 40.572C57.4568 40.884 58.3088 41.304 58.9928 41.772C59.5328 42.156 59.7368 42.792 59.5328 43.404C59.1728 44.532 58.1408 45.276 56.9888 45.492C56.4368 45.588 55.8128 45.66 55.2728 45.66C54.4088 45.66 53.8688 45.336 53.1608 45.072C52.2248 44.7 50.7848 43.764 51.1928 42.516C51.3368 42.084 51.6728 41.808 52.1288 41.808C52.6568 41.808 53.0768 42.132 53.1128 42.624ZM62.3926 38.472C62.5366 38.016 62.5966 37.548 62.7406 37.092C62.8486 36.78 62.9086 36.48 63.1846 36.204C63.4246 36.036 63.5686 35.928 63.8206 35.928C64.1926 35.928 64.3366 36.168 64.4086 36.36C64.6006 36.744 64.5406 37.044 64.4326 37.512C64.2646 38.22 64.0726 38.94 63.8686 39.648C63.7006 40.224 63.5806 40.8 63.3886 41.364C63.2446 41.808 62.9686 42.792 62.8966 43.188C62.7766 44.004 62.4166 45.552 61.4086 45.552C60.2926 45.552 60.7246 44.544 60.8926 43.8C61.3126 42.048 61.8166 40.224 62.3926 38.472ZM70.5374 42.276C70.2494 42.312 69.8534 42.396 69.5174 42.396C69.3374 42.396 69.1694 42.372 69.0494 42.312C68.6414 42.156 68.4854 41.544 68.5934 41.196C68.6294 41.076 68.7374 40.884 69.0374 40.776C69.3974 40.644 69.6974 40.656 70.0334 40.572C70.6814 40.428 71.3174 40.344 71.9774 40.2C72.4574 40.08 72.6614 40.068 73.1534 40.068C73.7414 40.068 75.4934 40.14 75.2174 40.968C75.0254 41.58 74.4614 41.676 73.9694 41.736C73.8854 41.748 73.5614 41.784 73.5014 41.784C73.5494 42.24 73.5374 42.756 73.3814 43.224C73.2254 43.716 72.6974 44.268 72.1934 44.544C70.9814 45.396 69.3254 45.516 68.1254 45.516C66.6614 45.516 65.6534 44.532 65.0534 43.488C64.6334 42.744 64.5734 41.772 64.8974 40.776C65.3534 39.372 66.2534 38.496 67.4774 37.476C68.5094 36.612 69.8054 35.928 70.9814 35.928C71.7254 35.928 72.5294 36.384 72.9974 36.828C73.2254 37.116 73.4054 37.824 73.2854 38.22C73.2134 38.412 73.0214 38.82 72.5774 38.952C72.4214 39 72.1574 39.096 71.9534 39.096C71.6534 39.096 71.5094 38.94 71.4494 38.82C71.3894 38.676 71.3294 38.52 71.2694 38.34C71.1494 38.028 70.9814 37.788 70.5254 37.788C69.2294 37.788 66.9974 40.224 66.6614 41.244C66.4934 41.772 66.5774 42.252 66.7814 42.636C66.8774 42.78 66.9974 42.9 67.0814 43.032C67.3814 43.5 67.8254 43.596 68.4374 43.596C68.9774 43.596 70.3694 43.5 70.8014 43.332C71.1614 43.188 71.7374 42.492 71.8454 42.156C71.8694 42.084 71.8694 42.012 71.8574 41.94C71.6774 42.012 70.7174 42.24 70.5374 42.276ZM76.7904 45.66C76.3584 45.66 76.0944 45.396 75.9864 45C75.7224 44.136 76.1184 41.976 76.4184 40.848C76.6224 40.152 76.7544 39.456 76.8984 38.76C76.9944 38.316 77.0784 37.824 77.2344 37.368C77.3544 36.984 77.7024 36.36 78.1704 36.24C78.2664 36.228 78.3744 36.204 78.4584 36.204C79.2384 36.204 79.2864 37.008 79.4544 37.56C79.5504 37.872 79.6824 38.556 79.8624 38.796C80.2704 39.456 80.7504 40.116 81.2184 40.764C81.4584 41.16 81.7464 41.52 82.0584 41.868C82.2024 41.988 82.3344 42.084 82.5144 42.12C82.8624 41.052 83.2224 39.984 83.5704 38.904C83.7024 38.484 84.0984 37.392 84.3864 36.984C84.6624 36.588 85.1664 36.192 85.6704 36.192C86.0184 36.192 86.0784 36.432 86.1024 36.708C85.9824 37.788 84.8664 40.728 84.4104 41.856C84.3864 41.928 84.3624 42.012 84.3384 42.084C84.0744 42.9 83.9184 43.728 83.6664 44.532C83.4744 45.132 83.0544 45.336 82.6344 45.336C82.2624 45.336 81.8784 45.18 81.6264 45C80.9904 44.424 80.4744 43.752 79.9584 43.068C79.6824 42.756 79.3944 42.36 79.1544 41.964C78.8664 41.496 78.6264 40.992 78.3264 40.536C78.2184 41.052 78.1464 41.556 78.0864 42.06C78.0264 42.792 77.9544 43.5 77.8104 44.232C77.7144 44.844 77.5704 45.66 76.7904 45.66ZM88.354 40.116C88.75 40.068 89.11 40.032 89.494 40.032C90.274 40.032 91.042 40.068 91.798 40.116C92.566 40.176 93.418 40.26 93.106 41.244C92.866 41.988 91.474 41.928 90.982 41.928C90.466 41.928 89.938 41.904 89.422 41.904C89.086 41.904 88.726 41.904 88.39 41.976C88.246 41.988 88.078 42.024 87.886 42.048C87.73 42.396 87.562 42.744 87.454 43.068C87.406 43.224 87.394 43.368 87.346 43.524C87.598 43.524 87.874 43.476 88.138 43.416C88.666 43.332 89.17 43.344 89.698 43.26C90.55 43.128 91.486 43.092 92.302 43.092C92.998 43.092 93.106 43.368 92.962 43.8C92.89 44.04 92.698 44.388 92.41 44.508C91.822 44.772 90.826 44.88 90.202 45C89.938 45.048 89.698 45.108 89.458 45.144C88.702 45.276 87.694 45.456 86.974 45.456C85.846 45.456 85.39 44.46 85.594 43.404C85.702 42.972 85.846 42.552 85.99 42.132C86.206 41.472 86.326 40.824 86.53 40.188C86.674 39.756 86.782 39.324 86.926 38.88C87.034 38.52 87.226 38.172 87.346 37.812C87.454 37.476 87.526 37.128 87.67 36.804C87.982 36.24 88.75 36 89.266 36C90.334 36 91.354 36.12 92.422 36.156C92.998 36.168 95.194 36.48 94.918 37.332C94.786 37.716 94.366 37.908 94.006 37.98C92.938 38.148 91.534 38.184 90.49 38.184C90.466 38.184 89.506 38.064 89.182 38.136C88.894 38.592 88.654 39.192 88.474 39.756L88.354 40.116ZM96.7292 43.668C97.9892 43.38 99.6332 42.48 100.461 41.712C100.953 41.268 101.913 39.996 101.565 39.48C100.893 38.472 99.7412 37.872 98.3252 37.716C97.9652 38.412 97.7972 39.888 97.5332 40.704C97.3052 41.4 97.1372 42.096 96.9692 42.792C96.8852 43.092 96.8132 43.38 96.7292 43.668ZM96.6692 45.552C96.3812 45.648 95.8532 45.78 95.6252 45.78C95.0492 45.78 94.4852 45.072 94.6772 44.484C94.8332 43.992 94.8812 43.536 95.0252 43.068C95.4812 41.664 95.8412 40.236 96.2132 38.844C96.2972 38.52 96.4052 38.22 96.5012 37.896C96.6572 37.44 96.5612 37.02 96.7052 36.576C96.9572 35.808 97.5692 35.688 98.2052 35.688C98.7092 35.688 99.1292 35.808 99.5132 35.916C101.397 36.42 104.205 37.512 103.341 40.152C103.197 40.62 102.285 42.012 101.313 42.948C99.5492 44.616 98.0732 45.12 96.6692 45.552ZM102.199 44.568C102.379 43.992 103.303 43.068 103.927 43.068C104.155 43.068 104.467 43.176 104.635 43.296C104.983 43.5 104.347 44.544 104.071 44.796C103.843 44.988 103.111 45.468 102.643 45.468C102.283 45.468 102.187 45.228 102.151 45.084C102.127 44.892 102.151 44.7 102.199 44.568ZM118.59 44.028C118.422 44.292 117.57 44.532 116.178 44.796C115.098 44.988 113.73 45.06 113.13 45.036C112.566 45.024 112.59 44.988 112.35 44.7C112.158 44.46 111.954 44.304 111.954 44.148C111.954 44.004 112.11 43.764 112.53 43.608C112.71 43.536 112.962 43.512 113.25 43.512C113.61 43.512 114.03 43.548 114.438 43.572C114.426 43.404 114.426 43.212 114.426 43.068C114.402 42.708 114.582 40.536 114.558 39.852C114.546 39.492 114.51 38.82 114.45 38.244C113.946 38.184 113.634 38.088 113.346 38.016C112.59 37.824 112.614 37.392 112.578 37.116C112.53 36.816 113.07 36.66 113.394 36.576C113.442 36.564 113.502 36.552 113.574 36.552C113.97 36.552 114.63 36.768 115.098 36.744C115.65 36.732 116.49 36.744 116.718 36.708C116.898 36.684 117.606 36.612 117.942 36.612C118.182 36.612 118.35 36.636 118.386 36.924C118.434 37.164 118.278 37.464 118.05 37.668C117.846 37.86 116.466 38.184 115.53 38.244C115.59 39.156 115.59 40.668 115.59 41.508C115.59 42.204 115.746 42.936 115.674 43.536C116.334 43.488 116.658 43.332 117.474 43.176C117.762 43.128 118.29 43.212 118.398 43.224C118.518 43.248 118.77 43.764 118.59 44.028ZM121.646 45.228C121.646 45.228 121.514 45.324 121.334 45.324C121.202 45.324 121.034 45.264 120.866 45.084C120.686 44.892 119.99 42.252 119.942 40.92C119.894 39.576 119.522 37.752 119.666 37.392C119.786 37.008 119.834 36.804 120.014 36.768C120.206 36.732 120.362 36.744 120.614 36.9C120.878 37.056 121.658 38.676 122.066 39.096C122.438 39.504 124.49 41.556 125.054 41.988C125.438 42.3 125.882 42.312 125.93 42.312C125.942 42.312 125.954 39.456 125.954 39.096C125.954 38.724 125.99 37.716 126.122 37.332C126.266 36.96 126.614 36.66 126.95 36.744C127.106 36.804 127.202 37.176 127.19 37.644C127.19 38.124 127.19 41.268 127.13 41.832C127.082 42.432 127.286 44.304 127.226 44.568C127.106 45.036 126.758 44.928 126.542 44.928C125.882 44.916 124.406 43.368 123.794 42.864C123.194 42.36 121.25 40.224 121.034 39.852C121.034 39.852 121.214 41.46 121.37 42.084C121.526 42.72 121.718 43.644 121.766 44.1C121.814 44.532 121.91 45.072 121.646 45.228ZM135.506 38.064C135.41 38.124 135.266 38.136 135.122 38.136C134.402 38.136 133.682 38.124 132.962 38.076C133.106 39.096 132.758 40.284 132.854 41.268C132.914 41.904 132.902 42.564 132.962 43.212C132.986 43.476 133.046 43.716 133.118 43.944C133.19 44.184 133.286 44.316 133.19 44.58C133.106 44.808 132.914 45.024 132.65 45.024C132.422 45.024 132.29 44.82 132.194 44.604C131.942 43.992 131.882 43.332 131.81 42.684C131.714 41.928 131.786 40.992 131.75 40.224C131.726 39.876 131.726 39.096 131.666 38.772C131.618 38.544 131.57 38.28 131.546 38.04C130.838 38.028 130.322 38.04 129.662 38.22C129.518 38.268 129.338 38.292 129.17 38.292C128.966 38.292 128.774 38.244 128.63 38.112C128.33 37.824 128.282 37.14 128.51 36.996C128.678 36.888 128.81 36.852 128.99 36.828C129.278 36.804 129.518 36.636 129.794 36.612C130.166 36.576 130.538 36.576 130.91 36.6C131.774 36.636 132.626 36.696 133.478 36.756C133.826 36.78 135.014 36.876 135.23 37.176C135.338 37.332 135.674 37.968 135.506 38.064ZM138.144 38.316V38.988C138.168 39.564 138.084 39.792 138.12 40.356C138.12 40.536 138.204 40.884 138.168 41.052C138.36 40.956 138.648 40.884 138.78 40.884C139.092 40.884 141.408 40.008 141.756 39.84C142.008 39.696 142.836 39.336 142.728 39.06C142.5 38.376 140.616 38.076 139.896 38.076C139.308 38.076 138.924 38.22 138.144 38.316ZM144.048 43.524C144.168 43.632 144.432 43.8 144.24 44.136C144.06 44.448 142.992 44.64 142.608 44.64C142.236 44.64 141.804 44.496 141.456 44.388C140.916 44.244 138.66 42.972 138.24 42.636C138.204 43.212 138.228 43.728 138.24 44.292C138.264 44.496 138.276 44.964 138.168 45.156C138.096 45.288 138.024 45.336 137.928 45.336C137.844 45.336 137.76 45.3 137.652 45.264C137.196 45.072 137.112 44.652 137.112 44.328C137.136 44.004 137.232 43.488 137.232 43.176C137.22 42.408 137.112 41.652 137.064 40.86C137.028 40.416 136.992 39.984 136.992 39.504C136.992 39.072 136.716 38.292 136.692 37.86C136.68 37.584 136.632 37.308 136.908 37.116C137.364 36.816 139.284 36.624 139.8 36.624C140.1 36.624 140.388 36.648 140.688 36.708C141.564 36.9 142.644 37.128 143.172 37.824C143.508 38.244 143.712 38.448 143.82 38.94C144 39.612 143.52 40.224 142.992 40.608C142.164 41.196 141.528 41.628 140.088 42.06L139.62 42.204C139.968 42.396 140.34 42.624 140.472 42.66C140.64 42.72 141.456 43.092 142.644 43.212C143.832 43.332 143.928 43.44 144.048 43.524ZM151.437 42.6C151.737 42.312 151.953 41.868 151.953 41.46C151.953 40.992 151.401 38.724 150.513 38.64C150.249 38.604 149.649 38.532 149.421 38.4C149.277 38.316 149.241 38.244 149.121 38.28C148.965 38.292 148.773 38.448 148.641 38.52C148.461 38.604 148.305 38.712 148.137 38.82C147.513 39.156 147.177 39.6 146.721 40.224C146.541 40.488 146.325 41.316 146.349 41.652C146.361 42.216 146.409 42.708 146.937 43.056C147.333 43.32 148.437 43.62 148.953 43.62C149.385 43.62 149.973 43.512 150.309 43.416C150.825 43.284 151.101 42.948 151.437 42.6ZM152.613 39.492C153.117 40.464 153.297 41.316 153.105 42.408C152.793 44.1 151.077 45.156 149.433 45.156C147.825 45.156 145.521 43.992 145.161 42.312C144.873 41.016 145.425 39.336 146.193 38.292C146.841 37.392 147.945 36.816 149.049 36.816C150.237 36.816 151.161 37.416 151.893 38.316C152.169 38.676 152.409 39.096 152.613 39.492ZM165.588 38.064C165.492 38.124 165.348 38.136 165.204 38.136C164.484 38.136 163.764 38.124 163.044 38.076C163.188 39.096 162.84 40.284 162.936 41.268C162.996 41.904 162.984 42.564 163.044 43.212C163.068 43.476 163.128 43.716 163.2 43.944C163.272 44.184 163.368 44.316 163.272 44.58C163.188 44.808 162.996 45.024 162.732 45.024C162.504 45.024 162.372 44.82 162.276 44.604C162.024 43.992 161.964 43.332 161.892 42.684C161.796 41.928 161.868 40.992 161.832 40.224C161.808 39.876 161.808 39.096 161.748 38.772C161.7 38.544 161.652 38.28 161.628 38.04C160.92 38.028 160.404 38.04 159.744 38.22C159.6 38.268 159.42 38.292 159.252 38.292C159.048 38.292 158.856 38.244 158.712 38.112C158.412 37.824 158.364 37.14 158.592 36.996C158.76 36.888 158.892 36.852 159.072 36.828C159.36 36.804 159.6 36.636 159.876 36.612C160.248 36.576 160.62 36.576 160.992 36.6C161.856 36.636 162.708 36.696 163.56 36.756C163.908 36.78 165.096 36.876 165.312 37.176C165.42 37.332 165.756 37.968 165.588 38.064ZM172.015 42.6C172.315 42.312 172.531 41.868 172.531 41.46C172.531 40.992 171.979 38.724 171.091 38.64C170.827 38.604 170.227 38.532 169.999 38.4C169.855 38.316 169.819 38.244 169.699 38.28C169.543 38.292 169.351 38.448 169.219 38.52C169.039 38.604 168.883 38.712 168.715 38.82C168.091 39.156 167.755 39.6 167.299 40.224C167.119 40.488 166.903 41.316 166.927 41.652C166.939 42.216 166.987 42.708 167.515 43.056C167.911 43.32 169.015 43.62 169.531 43.62C169.963 43.62 170.551 43.512 170.887 43.416C171.403 43.284 171.679 42.948 172.015 42.6ZM173.191 39.492C173.695 40.464 173.875 41.316 173.683 42.408C173.371 44.1 171.655 45.156 170.011 45.156C168.403 45.156 166.099 43.992 165.739 42.312C165.451 41.016 166.003 39.336 166.771 38.292C167.419 37.392 168.523 36.816 169.627 36.816C170.815 36.816 171.739 37.416 172.471 38.316C172.747 38.676 172.987 39.096 173.191 39.492ZM180.754 38.316V38.988C180.778 39.564 180.694 39.792 180.73 40.356C180.73 40.536 180.814 40.884 180.778 41.052C180.97 40.956 181.258 40.884 181.39 40.884C181.702 40.884 184.018 40.008 184.366 39.84C184.618 39.696 185.446 39.336 185.338 39.06C185.11 38.376 183.226 38.076 182.506 38.076C181.918 38.076 181.534 38.22 180.754 38.316ZM186.658 43.524C186.778 43.632 187.042 43.8 186.85 44.136C186.658 44.46 185.638 44.64 185.278 44.64C184.378 44.64 183.334 44.112 182.59 43.668C182.23 43.452 181.282 42.984 180.85 42.636C180.814 43.212 180.838 43.728 180.85 44.292C180.874 44.496 180.886 44.964 180.778 45.156C180.706 45.288 180.634 45.336 180.538 45.336C180.454 45.336 180.37 45.3 180.262 45.264C179.806 45.072 179.722 44.652 179.722 44.328C179.746 44.004 179.842 43.488 179.842 43.176C179.83 42.408 179.722 41.652 179.674 40.86C179.638 40.416 179.602 39.984 179.602 39.504C179.602 39.072 179.326 38.292 179.302 37.86C179.29 37.584 179.242 37.308 179.518 37.116C179.974 36.816 181.894 36.624 182.41 36.624C182.71 36.624 182.998 36.648 183.298 36.708C184.174 36.9 185.254 37.128 185.782 37.824C186.118 38.244 186.322 38.448 186.43 38.94C186.61 39.612 186.13 40.224 185.602 40.608C184.774 41.196 184.138 41.628 182.698 42.06L182.23 42.204C182.578 42.396 182.95 42.624 183.082 42.66C183.25 42.72 184.066 43.092 185.254 43.212C186.442 43.332 186.538 43.44 186.658 43.524ZM189.597 38.952C189.525 39.456 189.549 39.852 189.549 40.356C189.549 40.392 189.549 40.416 189.549 40.452C189.825 40.416 190.029 40.356 190.305 40.344C190.845 40.308 191.373 40.344 191.889 40.38C192.537 40.416 193.329 40.38 193.929 40.608C194.097 40.668 194.205 40.86 194.241 41.052C194.277 41.244 194.301 41.388 194.169 41.508C193.893 41.736 193.617 41.712 193.269 41.736C192.453 41.772 191.601 41.7 190.749 41.736C190.413 41.736 190.221 41.808 189.897 41.856C189.837 41.856 189.777 41.868 189.705 41.892C189.633 42.216 189.489 43.26 189.681 43.572C189.825 43.608 189.957 43.596 190.101 43.596C190.329 43.596 190.413 43.536 190.641 43.5C191.109 43.416 191.541 43.44 192.009 43.344C192.393 43.284 192.741 43.248 193.125 43.224C193.437 43.212 193.701 43.224 194.013 43.212C194.289 43.176 194.793 43.176 194.865 43.44C194.937 43.752 194.865 44.112 194.685 44.196C194.397 44.376 193.245 44.544 192.885 44.616C192.429 44.724 192.009 44.844 191.565 44.844C191.073 44.844 190.581 45.048 190.101 45.048C189.657 45.048 189.141 44.76 188.889 44.388C188.697 44.148 188.481 43.608 188.457 43.32C188.397 42.744 188.457 42.168 188.421 41.592C188.385 41.16 188.349 40.728 188.349 40.296C188.349 39.648 188.265 38.976 188.361 38.34C188.433 37.932 188.229 37.08 188.553 36.828C188.889 36.588 189.177 36.504 189.585 36.552C190.053 36.612 191.373 36.696 192.345 36.708C192.669 36.708 195.153 37.008 194.685 37.812C194.517 38.1 194.025 38.088 193.773 38.1C193.401 38.124 193.005 38.136 192.633 38.148C192.009 38.184 191.529 38.244 190.905 38.22C190.617 38.22 190.353 38.136 190.077 38.136C189.801 38.136 189.729 38.148 189.681 38.448C189.645 38.604 189.621 38.784 189.597 38.952ZM198.298 41.16C198.958 41.04 199.69 41.004 200.362 41.004H200.482C200.326 40.572 200.158 40.152 199.942 39.732C199.738 39.336 199.522 38.916 199.354 38.52C199.33 38.472 199.318 38.436 199.306 38.376C199.006 38.784 198.766 39.636 198.61 40.104C198.502 40.452 198.406 40.8 198.298 41.16ZM202.714 44.148C202.726 44.424 202.786 45.228 202.258 45.12C201.754 45 201.79 44.544 201.634 44.184C201.454 43.752 201.31 43.296 201.166 42.84C201.118 42.672 200.986 42.516 200.938 42.36C200.866 42.36 200.578 42.396 200.518 42.396C200.134 42.396 199.978 42.42 199.618 42.48C199.234 42.54 198.85 42.54 198.466 42.588C198.274 42.612 198.07 42.72 197.866 42.756C197.794 43.188 197.602 43.572 197.494 43.992C197.434 44.196 197.35 44.412 197.302 44.652C197.254 44.844 197.182 45.048 196.93 45.072C196.702 45.072 196.198 45.156 196.066 44.256C195.886 43.176 196.57 41.976 196.846 40.932C197.11 40.272 197.266 39.504 197.494 38.832C197.59 38.568 197.674 38.328 197.782 38.064C197.998 37.596 198.214 36.744 198.646 36.468C198.802 36.384 199.234 36.648 199.414 36.744C199.582 36.816 200.014 37.284 200.086 37.476C200.17 37.704 200.302 37.908 200.422 38.136C201.406 39.96 201.598 40.992 202.21 42.396C202.45 42.936 202.642 43.56 202.714 44.148ZM210.02 37.644C210.272 37.872 210.656 38.592 210.644 38.952C210.62 39.216 210.656 39.504 210.404 39.648C210.332 39.684 210.26 39.708 210.212 39.708C210.056 39.708 209.936 39.588 209.744 39.456C209.516 39.3 209.42 39.132 209.336 38.904C209.216 38.652 209.06 38.532 208.832 38.34C208.58 38.16 208.328 37.968 208.004 37.968C207.944 37.968 207.884 37.968 207.824 37.98C206.72 38.208 206.252 38.7 205.676 39.648C205.376 40.116 205.112 40.644 205.148 41.196C205.148 41.58 205.256 42.012 205.484 42.336C205.724 42.684 205.928 42.78 206.264 43.068C206.72 43.488 207.368 43.584 208.016 43.584C209 43.584 210.02 43.476 210.956 43.164C211.22 43.068 211.688 43.284 211.7 43.572C211.724 43.788 211.424 44.112 211.268 44.268C210.896 44.628 209.072 45.072 208.508 45.072C206.624 45.072 205.172 44.184 204.14 42.636C203.792 42.132 203.564 41.232 203.6 40.644C203.636 39.996 204.008 39.384 204.332 38.832C204.644 38.316 204.872 37.752 205.34 37.32C205.796 36.924 206.528 36.516 207.188 36.504C207.704 36.504 208.28 36.648 208.76 36.816C209.24 36.984 209.648 37.32 210.02 37.644ZM218.873 38.064C218.777 38.124 218.633 38.136 218.489 38.136C217.769 38.136 217.049 38.124 216.329 38.076C216.473 39.096 216.125 40.284 216.221 41.268C216.281 41.904 216.269 42.564 216.329 43.212C216.353 43.476 216.413 43.716 216.485 43.944C216.557 44.184 216.653 44.316 216.557 44.58C216.473 44.808 216.281 45.024 216.017 45.024C215.789 45.024 215.657 44.82 215.561 44.604C215.309 43.992 215.249 43.332 215.177 42.684C215.081 41.928 215.153 40.992 215.117 40.224C215.093 39.876 215.093 39.096 215.033 38.772C214.985 38.544 214.937 38.28 214.913 38.04C214.205 38.028 213.689 38.04 213.029 38.22C212.885 38.268 212.705 38.292 212.537 38.292C212.333 38.292 212.141 38.244 211.997 38.112C211.697 37.824 211.649 37.14 211.877 36.996C212.045 36.888 212.177 36.852 212.357 36.828C212.645 36.804 212.885 36.636 213.161 36.612C213.533 36.576 213.905 36.576 214.277 36.6C215.141 36.636 215.993 36.696 216.845 36.756C217.193 36.78 218.381 36.876 218.597 37.176C218.705 37.332 219.041 37.968 218.873 38.064ZM220.456 42.9C220.48 42.888 220.504 42.888 220.528 42.888C220.936 42.888 221.032 43.716 221.032 44.076C221.032 44.46 220.684 45.456 220.192 46.2C219.988 46.524 219.352 47.244 218.92 47.244C218.644 47.244 218.44 46.692 218.548 46.368C218.668 46.02 218.944 45.576 219.328 45.096C219.7 44.628 219.568 43.872 219.592 43.644C219.652 43.128 220.072 42.972 220.456 42.9ZM228.837 45.228C228.837 45.228 228.717 45.348 228.525 45.348C228.393 45.348 228.237 45.288 228.057 45.084C227.877 44.892 227.181 42.252 227.133 40.92C227.085 39.576 226.713 37.752 226.857 37.392C226.977 37.008 227.025 36.804 227.205 36.768C227.397 36.732 227.553 36.744 227.805 36.9C228.069 37.056 228.849 38.676 229.257 39.096C229.629 39.504 231.681 41.556 232.245 41.988C232.629 42.3 233.073 42.312 233.121 42.312C233.133 42.312 233.145 39.456 233.145 39.096C233.145 38.724 233.181 37.716 233.313 37.332C233.457 36.96 233.805 36.66 234.141 36.744C234.297 36.804 234.393 37.176 234.381 37.644C234.381 38.124 234.381 41.268 234.321 41.832C234.273 42.432 234.477 44.304 234.417 44.568C234.297 45.036 233.949 44.928 233.733 44.928C233.073 44.916 231.597 43.368 230.985 42.864C230.385 42.36 228.441 40.224 228.225 39.852C228.225 39.852 228.405 41.46 228.561 42.084C228.717 42.72 228.909 43.644 228.957 44.1C229.005 44.532 229.101 45.072 228.837 45.228ZM237.105 38.952C237.033 39.456 237.057 39.852 237.057 40.356C237.057 40.392 237.057 40.416 237.057 40.452C237.333 40.416 237.537 40.356 237.813 40.344C238.353 40.308 238.881 40.344 239.397 40.38C240.045 40.416 240.837 40.38 241.437 40.608C241.605 40.668 241.713 40.86 241.749 41.052C241.785 41.244 241.809 41.388 241.677 41.508C241.401 41.736 241.125 41.712 240.777 41.736C239.961 41.772 239.109 41.7 238.257 41.736C237.921 41.736 237.729 41.808 237.405 41.856C237.345 41.856 237.285 41.868 237.213 41.892C237.141 42.216 236.997 43.26 237.189 43.572C237.333 43.608 237.465 43.596 237.609 43.596C237.837 43.596 237.921 43.536 238.149 43.5C238.617 43.416 239.049 43.44 239.517 43.344C239.901 43.284 240.249 43.248 240.633 43.224C240.945 43.212 241.209 43.224 241.521 43.212C241.797 43.176 242.301 43.176 242.373 43.44C242.445 43.752 242.373 44.112 242.193 44.196C241.905 44.376 240.753 44.544 240.393 44.616C239.937 44.724 239.517 44.844 239.073 44.844C238.581 44.844 238.089 45.048 237.609 45.048C237.165 45.048 236.649 44.76 236.397 44.388C236.205 44.148 235.989 43.608 235.965 43.32C235.905 42.744 235.965 42.168 235.929 41.592C235.893 41.16 235.857 40.728 235.857 40.296C235.857 39.648 235.773 38.976 235.869 38.34C235.941 37.932 235.737 37.08 236.061 36.828C236.397 36.588 236.685 36.504 237.093 36.552C237.561 36.612 238.881 36.696 239.853 36.708C240.177 36.708 242.661 37.008 242.193 37.812C242.025 38.1 241.533 38.088 241.281 38.1C240.909 38.124 240.513 38.136 240.141 38.148C239.517 38.184 239.037 38.244 238.413 38.22C238.125 38.22 237.861 38.136 237.585 38.136C237.309 38.136 237.237 38.148 237.189 38.448C237.153 38.604 237.129 38.784 237.105 38.952ZM250.353 45.012C250.329 45.024 250.305 45.036 250.269 45.036C249.705 45.036 247.785 42.912 247.509 42.528C246.969 43.248 246.285 44.028 245.973 44.34C245.517 44.76 245.661 44.856 244.809 45.108C244.689 45.144 244.581 45.156 244.473 45.156C243.945 45.156 243.573 44.772 243.573 44.424C243.573 44.256 243.981 43.872 244.029 43.788C244.077 43.716 244.725 43.212 245.241 42.66C245.469 42.408 245.901 41.892 246.357 41.268C246.165 41.04 245.901 40.74 245.769 40.584C245.313 40.08 243.945 38.412 243.945 38.412C243.633 37.908 243.369 37.428 243.681 37.116C243.705 37.08 243.789 37.068 243.897 37.068C244.089 37.068 244.377 37.128 244.509 37.284C244.725 37.512 245.313 38.4 245.841 39.024C246.045 39.264 246.585 39.84 247.017 40.344C247.413 39.732 247.785 39.144 247.953 38.676C248.061 38.412 248.145 38.184 248.229 37.98C248.493 37.272 248.229 37.272 248.577 36.828C248.637 36.768 248.793 36.72 248.949 36.72C249.093 36.72 249.225 36.744 249.333 36.828C249.333 36.828 249.993 37.428 249.921 37.836C249.849 38.256 248.793 40.728 248.193 41.592C248.265 41.676 248.337 41.772 248.385 41.832C248.853 42.408 249.813 43.284 249.969 43.488C250.125 43.68 250.461 44.268 250.509 44.46C250.557 44.652 250.545 44.916 250.353 45.012ZM258.119 38.064C258.023 38.124 257.879 38.136 257.735 38.136C257.015 38.136 256.295 38.124 255.575 38.076C255.719 39.096 255.371 40.284 255.467 41.268C255.527 41.904 255.515 42.564 255.575 43.212C255.599 43.476 255.659 43.716 255.731 43.944C255.803 44.184 255.899 44.316 255.803 44.58C255.719 44.808 255.527 45.024 255.263 45.024C255.035 45.024 254.903 44.82 254.807 44.604C254.555 43.992 254.495 43.332 254.423 42.684C254.327 41.928 254.399 40.992 254.363 40.224C254.339 39.876 254.339 39.096 254.279 38.772C254.231 38.544 254.183 38.28 254.159 38.04C253.451 38.028 252.935 38.04 252.275 38.22C252.131 38.268 251.951 38.292 251.783 38.292C251.579 38.292 251.387 38.244 251.243 38.112C250.943 37.824 250.895 37.14 251.123 36.996C251.291 36.888 251.423 36.852 251.603 36.828C251.891 36.804 252.131 36.636 252.407 36.612C252.779 36.576 253.151 36.576 253.523 36.6C254.387 36.636 255.239 36.696 256.091 36.756C256.439 36.78 257.627 36.876 257.843 37.176C257.951 37.332 258.287 37.968 258.119 38.064ZM260.034 43.752C260.046 43.884 259.998 44.604 259.806 44.832C259.626 45.048 259.182 45.348 258.882 45.36C258.606 45.36 258.342 44.88 258.498 44.46C258.642 44.028 258.882 43.632 259.338 43.5C259.458 43.476 260.01 43.608 260.034 43.752ZM41.112 53.716C41.1 53.908 40.644 54.256 40.284 54.28C40.164 54.292 39.864 54.292 39.516 54.316C39.552 54.604 39.6 54.952 39.636 55.192C39.744 55.804 39.972 57.352 39.816 57.772C39.672 58.18 39.516 59.476 39.072 59.98C37.992 61.192 36.492 61.3 36.18 61.3C35.94 61.3 34.464 61 33.996 60.328C33.54 59.632 33.348 58.432 33.468 58.24C33.588 58.048 33.732 57.736 34.008 57.736C34.308 57.736 34.392 58.12 34.428 58.324C34.476 58.552 34.548 59.536 35.292 59.716C35.4 59.728 37.308 59.668 38.064 58.516C38.472 57.868 38.664 56.548 38.652 56.152C38.628 55.876 38.472 54.976 38.34 54.316C38.064 54.316 37.812 54.328 37.656 54.328C37.116 54.34 36.408 54.1 36.264 53.992C36.144 53.896 35.988 53.332 36.048 53.116C36.072 52.9 36.492 52.624 36.9 52.66C37.176 52.672 37.596 52.696 37.98 52.696C38.16 52.696 38.328 52.696 38.472 52.672C38.904 52.624 40.404 52.96 40.404 52.96C40.716 52.972 41.136 53.548 41.112 53.716ZM45.9261 59.848C46.0941 59.86 46.2501 59.872 46.4061 59.872C48.1341 59.872 48.3621 58.972 48.3621 58.972C47.9661 58.708 45.7941 57.868 45.3381 57.712C44.2461 57.328 42.8901 56.92 42.3381 55.876C42.0861 55.408 42.0621 55.036 42.1821 54.556C42.2301 54.328 42.3141 54.124 42.4341 53.944C42.5901 53.716 42.8541 53.596 43.0461 53.428C43.6341 52.9 44.4621 52.636 45.2661 52.636C46.0461 52.636 46.7541 52.864 47.3781 53.332C47.8821 53.716 48.8541 54.556 48.6741 55.06C48.6141 55.24 48.2901 55.384 48.0261 55.384C47.6661 55.384 47.1861 54.808 47.0421 54.532C46.9101 54.292 46.4541 53.932 46.1781 53.932C45.7941 53.896 44.9421 54.088 44.5941 54.244C44.3661 54.34 44.1741 54.496 43.9821 54.676C43.8861 54.796 43.7781 54.916 43.6581 55.024C43.5981 55.072 43.4421 55.228 43.4301 55.3C43.4181 55.408 44.8701 56.344 45.0261 56.392C45.4581 56.536 45.8061 56.704 46.2501 56.824C47.0901 57.124 48.0021 57.496 48.7821 57.928C49.4301 58.288 49.8981 59.056 49.5861 59.8C49.4301 60.22 49.2621 60.616 48.8541 60.844C48.3621 61.084 47.8821 61.108 47.3541 61.168C47.1141 61.216 46.8741 61.228 46.6461 61.228C46.2861 61.228 45.9381 61.18 45.5661 61.036C44.8101 60.784 43.5981 60.376 42.9981 59.836C42.7821 59.668 42.6141 59.452 42.4341 59.224C42.2301 58.948 42.0741 58.48 42.2541 58.168C42.3261 58.036 42.4581 57.988 42.5901 57.988C42.7821 57.988 42.9861 58.072 43.1301 58.156C43.5741 58.36 43.5021 58.864 43.8861 59.128C44.2821 59.404 45.4581 59.812 45.9261 59.848ZM52.7611 58.9C52.7851 58.888 52.8091 58.888 52.8331 58.888C53.2411 58.888 53.3371 59.716 53.3371 60.076C53.3371 60.46 52.9891 61.456 52.4971 62.2C52.2931 62.524 51.6571 63.244 51.2251 63.244C50.9491 63.244 50.7451 62.692 50.8531 62.368C50.9731 62.02 51.2491 61.576 51.6331 61.096C52.0051 60.628 51.8731 59.872 51.8971 59.644C51.9571 59.128 52.3771 58.972 52.7611 58.9ZM64.8017 61.396C64.7657 61.408 64.7417 61.408 64.7057 61.408C64.5137 61.408 64.2977 61.276 64.2017 61.144C64.0577 60.952 64.0457 60.664 63.9737 60.448C63.7697 59.716 63.7937 59.056 63.7457 58.288C63.2297 58.324 62.7017 58.336 62.1617 58.372C61.5617 58.408 61.0217 58.552 60.4337 58.708C60.4577 59.092 60.4697 59.344 60.4337 59.728C60.4097 60.076 60.4097 60.424 60.3737 60.76C60.3257 61.048 60.2177 61.3 59.8817 61.3C59.4257 61.3 59.2697 60.52 59.2697 60.184C59.2697 59.332 59.1977 58.492 59.1377 57.664C59.1257 57.232 59.1617 56.824 59.1977 56.392C59.2457 56.032 59.2337 55.648 59.2937 55.288C59.3657 54.832 59.4497 54.364 59.5577 53.908C59.6657 53.548 59.6777 53.116 60.0497 52.888C60.1097 52.852 60.1817 52.828 60.2417 52.828C60.4217 52.828 60.6017 52.948 60.6857 53.08C60.8297 53.308 60.7577 53.644 60.7097 53.896C60.6137 54.328 60.6017 54.76 60.5657 55.216C60.5537 55.756 60.5177 56.044 60.4577 56.608C60.4457 56.764 60.4337 56.92 60.4337 57.076C60.4937 57.052 60.5657 57.04 60.6377 57.016C61.6217 56.812 62.6897 56.776 63.6977 56.776C63.6737 56.452 63.6737 56.14 63.6737 55.816C63.6737 55.324 63.6977 55.06 63.7337 54.568C63.7697 54.124 63.7697 53.668 63.8177 53.212C63.8537 52.972 63.8657 52.708 64.0097 52.504C64.0937 52.36 64.3337 52.108 64.5497 52.168C64.7537 52.264 64.7537 52.612 64.8017 52.768C64.9457 53.2 64.9097 53.62 64.9337 54.064C64.9457 54.376 64.9337 54.724 64.9337 55.036C64.9097 55.66 64.9217 56.296 64.9457 56.92C64.9937 57.892 65.0657 58.864 65.0657 59.824C65.0657 60.16 65.0657 60.508 65.1017 60.844C65.1137 61.036 65.0177 61.312 64.8017 61.396ZM73.3845 54.064C73.2885 54.124 73.1445 54.136 73.0005 54.136C72.2805 54.136 71.5605 54.124 70.8405 54.076C70.9845 55.096 70.6365 56.284 70.7325 57.268C70.7925 57.904 70.7805 58.564 70.8405 59.212C70.8645 59.476 70.9245 59.716 70.9965 59.944C71.0685 60.184 71.1645 60.316 71.0685 60.58C70.9845 60.808 70.7925 61.024 70.5285 61.024C70.3005 61.024 70.1685 60.82 70.0725 60.604C69.8205 59.992 69.7605 59.332 69.6885 58.684C69.5925 57.928 69.6645 56.992 69.6285 56.224C69.6045 55.876 69.6045 55.096 69.5445 54.772C69.4965 54.544 69.4485 54.28 69.4245 54.04C68.7165 54.028 68.2005 54.04 67.5405 54.22C67.3965 54.268 67.2165 54.292 67.0485 54.292C66.8445 54.292 66.6525 54.244 66.5085 54.112C66.2085 53.824 66.1605 53.14 66.3885 52.996C66.5565 52.888 66.6885 52.852 66.8685 52.828C67.1565 52.804 67.3965 52.636 67.6725 52.612C68.0445 52.576 68.4165 52.576 68.7885 52.6C69.6525 52.636 70.5045 52.696 71.3565 52.756C71.7045 52.78 72.8925 52.876 73.1085 53.176C73.2165 53.332 73.5525 53.968 73.3845 54.064ZM74.7993 57.04C74.7513 56.428 74.6673 55.816 74.6313 55.192C74.6073 54.772 74.5593 54.364 74.5593 53.956C74.5593 53.644 74.6553 52.408 75.0873 52.408C75.3393 52.408 75.7593 52.876 75.8913 53.068C75.9993 53.224 76.0713 53.404 76.1793 53.548C76.3113 53.716 76.4433 53.848 76.5513 53.992C77.1393 54.832 77.9073 55.696 78.6633 56.356C78.9033 55.576 79.3713 54.844 79.7553 54.112C79.9833 53.668 80.5473 52.864 80.8713 52.516C80.9193 52.468 80.9913 52.444 81.0753 52.444C81.3153 52.444 81.6393 52.636 81.8193 52.768C82.5993 53.32 82.3593 55.468 82.3473 55.996C82.3233 56.992 82.4673 57.988 82.3833 58.984C82.3593 59.368 82.3593 59.764 82.3113 60.136C82.2753 60.436 82.2753 60.832 81.9993 61.024C81.9393 61.072 81.8913 61.084 81.8433 61.084C81.6873 61.084 81.5793 60.892 81.4713 60.724C81.3033 60.46 81.3513 60.016 81.3153 59.716C81.2313 59.02 81.2313 58.288 81.2673 57.58C81.2673 57.208 81.2313 56.836 81.2193 56.464C81.1833 56.14 81.2673 55.372 81.1833 54.964C80.9553 55.156 80.3793 56.284 80.2593 56.56C80.1033 56.884 80.0673 57.064 79.9113 57.376C79.7313 57.736 79.6113 58.024 79.4193 58.276C79.3353 58.384 79.2393 58.432 79.1433 58.432C79.0113 58.432 78.8673 58.336 78.7233 58.18C78.2913 57.724 77.7513 57.352 77.3433 56.848C77.1153 56.584 76.8513 56.332 76.6233 56.068C76.4673 55.876 76.1433 55.432 75.9273 55.252C75.9993 56.356 76.0353 57.472 76.2033 58.576C76.2633 59.02 76.2993 59.584 76.3713 60.016C76.4193 60.292 76.5273 60.7 76.3713 60.976C76.2393 61.204 76.1313 61.3 76.0233 61.3C75.9273 61.3 75.8313 61.24 75.7233 61.12C75.2673 60.64 75.1953 59.92 75.0633 59.32C74.9073 58.576 74.8353 57.808 74.7993 57.04ZM89.6977 60.688C89.4697 60.892 87.0817 61.048 86.7697 61.072C86.3857 61.084 85.9537 61.336 85.5817 61.336C85.5577 61.336 85.5217 61.336 85.4977 61.336C85.1257 61.276 84.3337 60.808 84.1057 59.92C84.0337 59.596 84.0217 58.84 83.9617 58.12C83.9137 57.388 83.8777 56.644 83.8417 55.636C83.8057 54.64 83.7937 53.176 83.8057 52.972C83.8297 52.78 84.0457 52.624 84.2497 52.624C84.2977 52.624 84.3457 52.636 84.3817 52.648C85.2577 53.008 84.9937 54.136 85.0297 54.52C85.0417 54.868 84.9937 56.104 85.0777 56.692C85.1257 57.088 85.1617 58.684 85.1857 59.56C85.3057 59.62 85.4497 59.632 85.6057 59.632C86.0617 59.632 86.6257 59.476 86.9497 59.404C87.1777 59.356 87.6577 59.32 88.0897 59.32C88.7377 59.32 89.1217 59.524 89.6497 59.944C89.7817 60.028 89.9737 60.448 89.6977 60.688ZM92.9095 58.9C92.9335 58.888 92.9575 58.888 92.9815 58.888C93.3895 58.888 93.4855 59.716 93.4855 60.076C93.4855 60.46 93.1375 61.456 92.6455 62.2C92.4415 62.524 91.8055 63.244 91.3735 63.244C91.0975 63.244 90.8935 62.692 91.0015 62.368C91.1215 62.02 91.3975 61.576 91.7815 61.096C92.1535 60.628 92.0215 59.872 92.0455 59.644C92.1055 59.128 92.5255 58.972 92.9095 58.9ZM106.69 53.716C106.678 53.908 106.222 54.256 105.862 54.28C105.742 54.292 105.442 54.292 105.094 54.316C105.13 54.604 105.178 54.952 105.214 55.192C105.322 55.804 105.55 57.352 105.394 57.772C105.25 58.18 105.094 59.476 104.65 59.98C103.57 61.192 102.07 61.3 101.758 61.3C101.518 61.3 100.042 61 99.5741 60.328C99.1181 59.632 98.9261 58.432 99.0461 58.24C99.1661 58.048 99.3101 57.736 99.5861 57.736C99.8861 57.736 99.9701 58.12 100.006 58.324C100.054 58.552 100.126 59.536 100.87 59.716C100.978 59.728 102.886 59.668 103.642 58.516C104.05 57.868 104.242 56.548 104.23 56.152C104.206 55.876 104.05 54.976 103.918 54.316C103.642 54.316 103.39 54.328 103.234 54.328C102.694 54.34 101.986 54.1 101.842 53.992C101.722 53.896 101.566 53.332 101.626 53.116C101.65 52.9 102.07 52.624 102.478 52.66C102.754 52.672 103.174 52.696 103.558 52.696C103.738 52.696 103.906 52.696 104.05 52.672C104.482 52.624 105.982 52.96 105.982 52.96C106.294 52.972 106.714 53.548 106.69 53.716ZM109.141 57.16C109.801 57.04 110.533 57.004 111.205 57.004H111.325C111.169 56.572 111.001 56.152 110.785 55.732C110.581 55.336 110.365 54.916 110.197 54.52C110.173 54.472 110.161 54.436 110.149 54.376C109.849 54.784 109.609 55.636 109.453 56.104C109.345 56.452 109.249 56.8 109.141 57.16ZM113.557 60.148C113.569 60.424 113.629 61.228 113.101 61.12C112.597 61 112.633 60.544 112.477 60.184C112.297 59.752 112.153 59.296 112.009 58.84C111.961 58.672 111.829 58.516 111.781 58.36C111.709 58.36 111.421 58.396 111.361 58.396C110.977 58.396 110.821 58.42 110.461 58.48C110.077 58.54 109.693 58.54 109.309 58.588C109.117 58.612 108.913 58.72 108.709 58.756C108.637 59.188 108.445 59.572 108.337 59.992C108.277 60.196 108.193 60.412 108.145 60.652C108.097 60.844 108.025 61.048 107.773 61.072C107.545 61.072 107.041 61.156 106.909 60.256C106.729 59.176 107.413 57.976 107.689 56.932C107.953 56.272 108.109 55.504 108.337 54.832C108.433 54.568 108.517 54.328 108.625 54.064C108.841 53.596 109.057 52.744 109.489 52.468C109.645 52.384 110.077 52.648 110.257 52.744C110.425 52.816 110.857 53.284 110.929 53.476C111.013 53.704 111.145 53.908 111.265 54.136C112.249 55.96 112.441 56.992 113.053 58.396C113.293 58.936 113.485 59.56 113.557 60.148ZM113.238 53.74C113.01 52.732 113.394 52.732 113.622 52.648C113.862 52.576 114.126 52.78 114.378 53.008C114.63 53.236 114.798 54.94 115.062 55.756C115.338 56.572 116.226 58.66 116.226 58.66C116.454 58.324 117.042 56.572 117.234 55.876C117.402 55.192 117.666 53.476 117.714 53.272C117.774 52.912 117.882 52.42 118.338 52.42C118.602 52.42 118.902 52.6 119.07 52.936C119.286 53.356 119.022 54.82 118.902 55.384C118.794 55.96 117.87 58.516 117.594 59.212C117.33 59.92 116.898 61.012 116.454 61C115.974 60.988 115.77 60.532 115.506 60.268C115.29 60.004 114.81 58.372 114.642 57.928C114.486 57.46 113.754 55.384 113.586 54.94C113.406 54.484 113.322 54.172 113.238 53.74ZM121.868 57.16C122.528 57.04 123.26 57.004 123.932 57.004H124.052C123.896 56.572 123.728 56.152 123.512 55.732C123.308 55.336 123.092 54.916 122.924 54.52C122.9 54.472 122.888 54.436 122.876 54.376C122.576 54.784 122.336 55.636 122.18 56.104C122.072 56.452 121.976 56.8 121.868 57.16ZM126.284 60.148C126.296 60.424 126.356 61.228 125.828 61.12C125.324 61 125.36 60.544 125.204 60.184C125.024 59.752 124.88 59.296 124.736 58.84C124.688 58.672 124.556 58.516 124.508 58.36C124.436 58.36 124.148 58.396 124.088 58.396C123.704 58.396 123.548 58.42 123.188 58.48C122.804 58.54 122.42 58.54 122.036 58.588C121.844 58.612 121.64 58.72 121.436 58.756C121.364 59.188 121.172 59.572 121.064 59.992C121.004 60.196 120.92 60.412 120.872 60.652C120.824 60.844 120.752 61.048 120.5 61.072C120.272 61.072 119.768 61.156 119.636 60.256C119.456 59.176 120.14 57.976 120.416 56.932C120.68 56.272 120.836 55.504 121.064 54.832C121.16 54.568 121.244 54.328 121.352 54.064C121.568 53.596 121.784 52.744 122.216 52.468C122.372 52.384 122.804 52.648 122.984 52.744C123.152 52.816 123.584 53.284 123.656 53.476C123.74 53.704 123.872 53.908 123.992 54.136C124.976 55.96 125.168 56.992 125.78 58.396C126.02 58.936 126.212 59.56 126.284 60.148ZM131.098 59.848C131.266 59.86 131.422 59.872 131.578 59.872C133.306 59.872 133.534 58.972 133.534 58.972C133.138 58.708 130.966 57.868 130.51 57.712C129.418 57.328 128.062 56.92 127.51 55.876C127.258 55.408 127.234 55.036 127.354 54.556C127.402 54.328 127.486 54.124 127.606 53.944C127.762 53.716 128.026 53.596 128.218 53.428C128.806 52.9 129.634 52.636 130.438 52.636C131.218 52.636 131.926 52.864 132.55 53.332C133.054 53.716 134.026 54.556 133.846 55.06C133.786 55.24 133.462 55.384 133.198 55.384C132.838 55.384 132.358 54.808 132.214 54.532C132.082 54.292 131.626 53.932 131.35 53.932C130.966 53.896 130.114 54.088 129.766 54.244C129.538 54.34 129.346 54.496 129.154 54.676C129.058 54.796 128.95 54.916 128.83 55.024C128.77 55.072 128.614 55.228 128.602 55.3C128.59 55.408 130.042 56.344 130.198 56.392C130.63 56.536 130.978 56.704 131.422 56.824C132.262 57.124 133.174 57.496 133.954 57.928C134.602 58.288 135.07 59.056 134.758 59.8C134.602 60.22 134.434 60.616 134.026 60.844C133.534 61.084 133.054 61.108 132.526 61.168C132.286 61.216 132.046 61.228 131.818 61.228C131.458 61.228 131.11 61.18 130.738 61.036C129.982 60.784 128.77 60.376 128.17 59.836C127.954 59.668 127.786 59.452 127.606 59.224C127.402 58.948 127.246 58.48 127.426 58.168C127.498 58.036 127.63 57.988 127.762 57.988C127.954 57.988 128.158 58.072 128.302 58.156C128.746 58.36 128.674 58.864 129.058 59.128C129.454 59.404 130.63 59.812 131.098 59.848ZM142.157 53.644C142.409 53.872 142.793 54.592 142.781 54.952C142.757 55.216 142.793 55.504 142.541 55.648C142.469 55.684 142.397 55.708 142.349 55.708C142.193 55.708 142.073 55.588 141.881 55.456C141.653 55.3 141.557 55.132 141.473 54.904C141.353 54.652 141.197 54.532 140.969 54.34C140.717 54.16 140.465 53.968 140.141 53.968C140.081 53.968 140.021 53.968 139.961 53.98C138.857 54.208 138.389 54.7 137.813 55.648C137.513 56.116 137.249 56.644 137.285 57.196C137.285 57.58 137.393 58.012 137.621 58.336C137.861 58.684 138.065 58.78 138.401 59.068C138.857 59.488 139.505 59.584 140.153 59.584C141.137 59.584 142.157 59.476 143.093 59.164C143.357 59.068 143.825 59.284 143.837 59.572C143.861 59.788 143.561 60.112 143.405 60.268C143.033 60.628 141.209 61.072 140.645 61.072C138.761 61.072 137.309 60.184 136.277 58.636C135.929 58.132 135.701 57.232 135.737 56.644C135.773 55.996 136.145 55.384 136.469 54.832C136.781 54.316 137.009 53.752 137.477 53.32C137.933 52.924 138.665 52.516 139.325 52.504C139.841 52.504 140.417 52.648 140.897 52.816C141.377 52.984 141.785 53.32 142.157 53.644ZM146.441 54.316V54.988C146.465 55.564 146.381 55.792 146.417 56.356C146.417 56.536 146.501 56.884 146.465 57.052C146.657 56.956 146.945 56.884 147.077 56.884C147.389 56.884 149.705 56.008 150.053 55.84C150.305 55.696 151.133 55.336 151.025 55.06C150.797 54.376 148.913 54.076 148.193 54.076C147.605 54.076 147.221 54.22 146.441 54.316ZM152.345 59.524C152.465 59.632 152.729 59.8 152.537 60.136C152.357 60.448 151.289 60.64 150.905 60.64C150.533 60.64 150.101 60.496 149.753 60.388C149.213 60.244 146.957 58.972 146.537 58.636C146.501 59.212 146.525 59.728 146.537 60.292C146.561 60.496 146.573 60.964 146.465 61.156C146.393 61.288 146.321 61.336 146.225 61.336C146.141 61.336 146.057 61.3 145.949 61.264C145.493 61.072 145.409 60.652 145.409 60.328C145.433 60.004 145.529 59.488 145.529 59.176C145.517 58.408 145.409 57.652 145.361 56.86C145.325 56.416 145.289 55.984 145.289 55.504C145.289 55.072 145.013 54.292 144.989 53.86C144.977 53.584 144.929 53.308 145.205 53.116C145.661 52.816 147.581 52.624 148.097 52.624C148.397 52.624 148.685 52.648 148.985 52.708C149.861 52.9 150.941 53.128 151.469 53.824C151.805 54.244 152.009 54.448 152.117 54.94C152.297 55.612 151.817 56.224 151.289 56.608C150.461 57.196 149.825 57.628 148.385 58.06L147.917 58.204C148.265 58.396 148.637 58.624 148.769 58.66C148.937 58.72 149.753 59.092 150.941 59.212C152.129 59.332 152.225 59.44 152.345 59.524ZM154.325 59.644C154.313 59.44 154.277 59.248 154.253 59.032C154.253 58.564 154.217 58.12 154.205 57.652C154.181 56.668 154.085 55.72 154.097 54.76C154.121 54.292 154.013 53.836 154.013 53.368C154.025 53.092 153.965 52.888 154.133 52.648C154.229 52.516 154.325 52.468 154.421 52.468C154.793 52.468 155.057 52.972 155.141 53.272C155.249 53.596 155.213 53.968 155.261 54.316C155.285 54.4 155.417 57.304 155.417 57.388C155.417 57.664 155.477 57.94 155.477 58.24C155.489 58.528 155.477 58.828 155.501 59.104C155.597 59.716 155.693 60.448 155.381 60.988C155.333 61.084 155.213 61.12 155.093 61.12C154.985 61.12 154.877 61.096 154.781 61.048C154.253 60.832 154.361 60.04 154.325 59.644ZM161.717 56.14C162.029 55.984 162.857 55 162.857 55C162.857 55 162.689 54.712 162.461 54.592C162.101 54.376 160.829 54.124 160.337 54.124C159.437 54.124 158.321 54.448 158.321 54.448C158.465 55.096 158.297 56.8 158.297 56.8C158.429 56.824 158.561 56.836 158.717 56.836C159.809 56.836 161.441 56.272 161.717 56.14ZM163.985 54.82C164.165 56.08 162.161 57.58 161.285 57.856C160.589 58.072 159.665 58.276 158.969 58.276C158.765 58.276 158.573 58.264 158.417 58.216C158.417 58.216 158.309 59.212 158.393 59.416C158.537 59.8 158.609 60.508 158.513 60.796C158.465 60.952 158.393 61.288 158.081 61.288C157.505 61.288 157.397 60.676 157.337 60.232C157.301 59.992 157.157 58.672 157.157 58.024C157.181 57.388 157.157 55.66 157.145 55.264C157.109 54.868 156.905 53.908 157.037 53.464C157.157 53.008 157.817 52.888 158.189 52.852C158.429 52.816 159.269 52.66 160.109 52.66C160.541 52.66 160.961 52.708 161.309 52.828C162.317 53.2 163.829 53.548 163.985 54.82ZM171.998 54.064C171.902 54.124 171.758 54.136 171.614 54.136C170.894 54.136 170.174 54.124 169.454 54.076C169.598 55.096 169.25 56.284 169.346 57.268C169.406 57.904 169.394 58.564 169.454 59.212C169.478 59.476 169.538 59.716 169.61 59.944C169.682 60.184 169.778 60.316 169.682 60.58C169.598 60.808 169.406 61.024 169.142 61.024C168.914 61.024 168.782 60.82 168.686 60.604C168.434 59.992 168.374 59.332 168.302 58.684C168.206 57.928 168.278 56.992 168.242 56.224C168.218 55.876 168.218 55.096 168.158 54.772C168.11 54.544 168.062 54.28 168.038 54.04C167.33 54.028 166.814 54.04 166.154 54.22C166.01 54.268 165.83 54.292 165.662 54.292C165.458 54.292 165.266 54.244 165.122 54.112C164.822 53.824 164.774 53.14 165.002 52.996C165.17 52.888 165.302 52.852 165.482 52.828C165.77 52.804 166.01 52.636 166.286 52.612C166.658 52.576 167.03 52.576 167.402 52.6C168.266 52.636 169.118 52.696 169.97 52.756C170.318 52.78 171.506 52.876 171.722 53.176C171.83 53.332 172.166 53.968 171.998 54.064ZM173.581 58.9C173.605 58.888 173.629 58.888 173.653 58.888C174.061 58.888 174.157 59.716 174.157 60.076C174.157 60.46 173.809 61.456 173.317 62.2C173.113 62.524 172.477 63.244 172.045 63.244C171.769 63.244 171.565 62.692 171.673 62.368C171.793 62.02 172.069 61.576 172.453 61.096C172.825 60.628 172.693 59.872 172.717 59.644C172.777 59.128 173.197 58.972 173.581 58.9ZM186.822 54.064C186.726 54.124 186.582 54.136 186.438 54.136C185.718 54.136 184.998 54.124 184.278 54.076C184.422 55.096 184.074 56.284 184.17 57.268C184.23 57.904 184.218 58.564 184.278 59.212C184.302 59.476 184.362 59.716 184.434 59.944C184.506 60.184 184.602 60.316 184.506 60.58C184.422 60.808 184.23 61.024 183.966 61.024C183.738 61.024 183.606 60.82 183.51 60.604C183.258 59.992 183.198 59.332 183.126 58.684C183.03 57.928 183.102 56.992 183.066 56.224C183.042 55.876 183.042 55.096 182.982 54.772C182.934 54.544 182.886 54.28 182.862 54.04C182.154 54.028 181.638 54.04 180.978 54.22C180.834 54.268 180.654 54.292 180.486 54.292C180.282 54.292 180.09 54.244 179.946 54.112C179.646 53.824 179.598 53.14 179.826 52.996C179.994 52.888 180.126 52.852 180.306 52.828C180.594 52.804 180.834 52.636 181.11 52.612C181.482 52.576 181.854 52.576 182.226 52.6C183.09 52.636 183.942 52.696 184.794 52.756C185.142 52.78 186.33 52.876 186.546 53.176C186.654 53.332 186.99 53.968 186.822 54.064ZM194.393 53.548C194.213 53.86 193.121 55.66 193.061 55.804C192.881 56.152 192.773 56.344 192.617 56.644C192.245 57.364 191.489 59.8 191.369 60.568C191.345 60.7 191.261 61 191.081 61.12C191.009 61.18 190.925 61.204 190.853 61.204C190.637 61.204 190.409 61.036 190.289 60.808C190.097 60.484 190.169 59.692 190.181 59.56C190.205 59.26 190.361 58.396 190.721 57.496C190.565 57.328 190.409 57.172 190.289 57.052C189.953 56.728 187.949 54.088 187.781 53.512C187.697 53.2 187.745 52.888 187.937 52.852C187.973 52.852 188.009 52.84 188.045 52.84C188.249 52.84 188.525 52.924 188.657 53.092C188.789 53.284 189.569 54.412 189.713 54.592C190.049 55.072 190.673 56.032 191.117 56.296C191.117 56.296 191.381 55.6 191.489 55.408C191.573 55.216 192.401 53.68 192.557 53.428C192.713 53.176 192.929 53.02 193.049 52.924C193.121 52.852 193.517 52.672 193.709 52.66C193.889 52.66 194.141 52.888 194.213 52.936C194.285 52.972 194.549 53.236 194.393 53.548ZM200.307 56.14C200.619 55.984 201.447 55 201.447 55C201.447 55 201.279 54.712 201.051 54.592C200.691 54.376 199.419 54.124 198.927 54.124C198.027 54.124 196.911 54.448 196.911 54.448C197.055 55.096 196.887 56.8 196.887 56.8C197.019 56.824 197.151 56.836 197.307 56.836C198.399 56.836 200.031 56.272 200.307 56.14ZM202.575 54.82C202.755 56.08 200.751 57.58 199.875 57.856C199.179 58.072 198.255 58.276 197.559 58.276C197.355 58.276 197.163 58.264 197.007 58.216C197.007 58.216 196.899 59.212 196.983 59.416C197.127 59.8 197.199 60.508 197.103 60.796C197.055 60.952 196.983 61.288 196.671 61.288C196.095 61.288 195.987 60.676 195.927 60.232C195.891 59.992 195.747 58.672 195.747 58.024C195.771 57.388 195.747 55.66 195.735 55.264C195.699 54.868 195.495 53.908 195.627 53.464C195.747 53.008 196.407 52.888 196.779 52.852C197.019 52.816 197.859 52.66 198.699 52.66C199.131 52.66 199.551 52.708 199.899 52.828C200.907 53.2 202.419 53.548 202.575 54.82ZM204.996 54.952C204.924 55.456 204.948 55.852 204.948 56.356C204.948 56.392 204.948 56.416 204.948 56.452C205.224 56.416 205.428 56.356 205.704 56.344C206.244 56.308 206.772 56.344 207.288 56.38C207.936 56.416 208.728 56.38 209.328 56.608C209.496 56.668 209.604 56.86 209.64 57.052C209.676 57.244 209.7 57.388 209.568 57.508C209.292 57.736 209.016 57.712 208.668 57.736C207.852 57.772 207 57.7 206.148 57.736C205.812 57.736 205.62 57.808 205.296 57.856C205.236 57.856 205.176 57.868 205.104 57.892C205.032 58.216 204.888 59.26 205.08 59.572C205.224 59.608 205.356 59.596 205.5 59.596C205.728 59.596 205.812 59.536 206.04 59.5C206.508 59.416 206.94 59.44 207.408 59.344C207.792 59.284 208.14 59.248 208.524 59.224C208.836 59.212 209.1 59.224 209.412 59.212C209.688 59.176 210.192 59.176 210.264 59.44C210.336 59.752 210.264 60.112 210.084 60.196C209.796 60.376 208.644 60.544 208.284 60.616C207.828 60.724 207.408 60.844 206.964 60.844C206.472 60.844 205.98 61.048 205.5 61.048C205.056 61.048 204.54 60.76 204.288 60.388C204.096 60.148 203.88 59.608 203.856 59.32C203.796 58.744 203.856 58.168 203.82 57.592C203.784 57.16 203.748 56.728 203.748 56.296C203.748 55.648 203.664 54.976 203.76 54.34C203.832 53.932 203.628 53.08 203.952 52.828C204.288 52.588 204.576 52.504 204.984 52.552C205.452 52.612 206.772 52.696 207.744 52.708C208.068 52.708 210.552 53.008 210.084 53.812C209.916 54.1 209.424 54.088 209.172 54.1C208.8 54.124 208.404 54.136 208.032 54.148C207.408 54.184 206.928 54.244 206.304 54.22C206.016 54.22 205.752 54.136 205.476 54.136C205.2 54.136 205.128 54.148 205.08 54.448C205.044 54.604 205.02 54.784 204.996 54.952ZM215.508 59.848C215.676 59.86 215.832 59.872 215.988 59.872C217.716 59.872 217.944 58.972 217.944 58.972C217.548 58.708 215.376 57.868 214.92 57.712C213.828 57.328 212.472 56.92 211.92 55.876C211.668 55.408 211.644 55.036 211.764 54.556C211.812 54.328 211.896 54.124 212.016 53.944C212.172 53.716 212.436 53.596 212.628 53.428C213.216 52.9 214.044 52.636 214.848 52.636C215.628 52.636 216.336 52.864 216.96 53.332C217.464 53.716 218.436 54.556 218.256 55.06C218.196 55.24 217.872 55.384 217.608 55.384C217.248 55.384 216.768 54.808 216.624 54.532C216.492 54.292 216.036 53.932 215.76 53.932C215.376 53.896 214.524 54.088 214.176 54.244C213.948 54.34 213.756 54.496 213.564 54.676C213.468 54.796 213.36 54.916 213.24 55.024C213.18 55.072 213.024 55.228 213.012 55.3C213 55.408 214.452 56.344 214.608 56.392C215.04 56.536 215.388 56.704 215.832 56.824C216.672 57.124 217.584 57.496 218.364 57.928C219.012 58.288 219.48 59.056 219.168 59.8C219.012 60.22 218.844 60.616 218.436 60.844C217.944 61.084 217.464 61.108 216.936 61.168C216.696 61.216 216.456 61.228 216.228 61.228C215.868 61.228 215.52 61.18 215.148 61.036C214.392 60.784 213.18 60.376 212.58 59.836C212.364 59.668 212.196 59.452 212.016 59.224C211.812 58.948 211.656 58.48 211.836 58.168C211.908 58.036 212.04 57.988 212.172 57.988C212.364 57.988 212.568 58.072 212.712 58.156C213.156 58.36 213.084 58.864 213.468 59.128C213.864 59.404 215.04 59.812 215.508 59.848ZM226.567 53.644C226.819 53.872 227.203 54.592 227.191 54.952C227.167 55.216 227.203 55.504 226.951 55.648C226.879 55.684 226.807 55.708 226.759 55.708C226.603 55.708 226.483 55.588 226.291 55.456C226.063 55.3 225.967 55.132 225.883 54.904C225.763 54.652 225.607 54.532 225.379 54.34C225.127 54.16 224.875 53.968 224.551 53.968C224.491 53.968 224.431 53.968 224.371 53.98C223.267 54.208 222.799 54.7 222.223 55.648C221.923 56.116 221.659 56.644 221.695 57.196C221.695 57.58 221.803 58.012 222.031 58.336C222.271 58.684 222.475 58.78 222.811 59.068C223.267 59.488 223.915 59.584 224.563 59.584C225.547 59.584 226.567 59.476 227.503 59.164C227.767 59.068 228.235 59.284 228.247 59.572C228.271 59.788 227.971 60.112 227.815 60.268C227.443 60.628 225.619 61.072 225.055 61.072C223.171 61.072 221.719 60.184 220.687 58.636C220.339 58.132 220.111 57.232 220.147 56.644C220.183 55.996 220.555 55.384 220.879 54.832C221.191 54.316 221.419 53.752 221.887 53.32C222.343 52.924 223.075 52.516 223.735 52.504C224.251 52.504 224.827 52.648 225.307 52.816C225.787 52.984 226.195 53.32 226.567 53.644ZM230.851 54.316V54.988C230.875 55.564 230.791 55.792 230.827 56.356C230.827 56.536 230.911 56.884 230.875 57.052C231.067 56.956 231.355 56.884 231.487 56.884C231.799 56.884 234.115 56.008 234.463 55.84C234.715 55.696 235.543 55.336 235.435 55.06C235.207 54.376 233.323 54.076 232.603 54.076C232.015 54.076 231.631 54.22 230.851 54.316ZM236.755 59.524C236.875 59.632 237.139 59.8 236.947 60.136C236.767 60.448 235.699 60.64 235.315 60.64C234.943 60.64 234.511 60.496 234.163 60.388C233.623 60.244 231.367 58.972 230.947 58.636C230.911 59.212 230.935 59.728 230.947 60.292C230.971 60.496 230.983 60.964 230.875 61.156C230.803 61.288 230.731 61.336 230.635 61.336C230.551 61.336 230.467 61.3 230.359 61.264C229.903 61.072 229.819 60.652 229.819 60.328C229.843 60.004 229.939 59.488 229.939 59.176C229.927 58.408 229.819 57.652 229.771 56.86C229.735 56.416 229.699 55.984 229.699 55.504C229.699 55.072 229.423 54.292 229.399 53.86C229.387 53.584 229.339 53.308 229.615 53.116C230.071 52.816 231.991 52.624 232.507 52.624C232.807 52.624 233.095 52.648 233.395 52.708C234.271 52.9 235.351 53.128 235.879 53.824C236.215 54.244 236.419 54.448 236.527 54.94C236.707 55.612 236.227 56.224 235.699 56.608C234.871 57.196 234.235 57.628 232.795 58.06L232.327 58.204C232.675 58.396 233.047 58.624 233.179 58.66C233.347 58.72 234.163 59.092 235.351 59.212C236.539 59.332 236.635 59.44 236.755 59.524ZM238.735 59.644C238.723 59.44 238.687 59.248 238.663 59.032C238.663 58.564 238.627 58.12 238.615 57.652C238.591 56.668 238.495 55.72 238.507 54.76C238.531 54.292 238.423 53.836 238.423 53.368C238.435 53.092 238.375 52.888 238.543 52.648C238.639 52.516 238.735 52.468 238.831 52.468C239.203 52.468 239.467 52.972 239.551 53.272C239.659 53.596 239.623 53.968 239.671 54.316C239.695 54.4 239.827 57.304 239.827 57.388C239.827 57.664 239.887 57.94 239.887 58.24C239.899 58.528 239.887 58.828 239.911 59.104C240.007 59.716 240.103 60.448 239.791 60.988C239.743 61.084 239.623 61.12 239.503 61.12C239.395 61.12 239.287 61.096 239.191 61.048C238.663 60.832 238.771 60.04 238.735 59.644ZM246.127 56.14C246.439 55.984 247.267 55 247.267 55C247.267 55 247.099 54.712 246.871 54.592C246.511 54.376 245.239 54.124 244.747 54.124C243.847 54.124 242.731 54.448 242.731 54.448C242.875 55.096 242.707 56.8 242.707 56.8C242.839 56.824 242.971 56.836 243.127 56.836C244.219 56.836 245.851 56.272 246.127 56.14ZM248.395 54.82C248.575 56.08 246.571 57.58 245.695 57.856C244.999 58.072 244.075 58.276 243.379 58.276C243.175 58.276 242.983 58.264 242.827 58.216C242.827 58.216 242.719 59.212 242.803 59.416C242.947 59.8 243.019 60.508 242.923 60.796C242.875 60.952 242.803 61.288 242.491 61.288C241.915 61.288 241.807 60.676 241.747 60.232C241.711 59.992 241.567 58.672 241.567 58.024C241.591 57.388 241.567 55.66 241.555 55.264C241.519 54.868 241.315 53.908 241.447 53.464C241.567 53.008 242.227 52.888 242.599 52.852C242.839 52.816 243.679 52.66 244.519 52.66C244.951 52.66 245.371 52.708 245.719 52.828C246.727 53.2 248.239 53.548 248.395 54.82ZM256.408 54.064C256.312 54.124 256.168 54.136 256.024 54.136C255.304 54.136 254.584 54.124 253.864 54.076C254.008 55.096 253.66 56.284 253.756 57.268C253.816 57.904 253.804 58.564 253.864 59.212C253.888 59.476 253.948 59.716 254.02 59.944C254.092 60.184 254.188 60.316 254.092 60.58C254.008 60.808 253.816 61.024 253.552 61.024C253.324 61.024 253.192 60.82 253.096 60.604C252.844 59.992 252.784 59.332 252.712 58.684C252.616 57.928 252.688 56.992 252.652 56.224C252.628 55.876 252.628 55.096 252.568 54.772C252.52 54.544 252.472 54.28 252.448 54.04C251.74 54.028 251.224 54.04 250.564 54.22C250.42 54.268 250.24 54.292 250.072 54.292C249.868 54.292 249.676 54.244 249.532 54.112C249.232 53.824 249.184 53.14 249.412 52.996C249.58 52.888 249.712 52.852 249.892 52.828C250.18 52.804 250.42 52.636 250.696 52.612C251.068 52.576 251.44 52.576 251.812 52.6C252.676 52.636 253.528 52.696 254.38 52.756C254.728 52.78 255.916 52.876 256.132 53.176C256.24 53.332 256.576 53.968 256.408 54.064ZM257.992 58.9C258.016 58.888 258.04 58.888 258.064 58.888C258.472 58.888 258.568 59.716 258.568 60.076C258.568 60.46 258.22 61.456 257.728 62.2C257.524 62.524 256.888 63.244 256.456 63.244C256.18 63.244 255.976 62.692 256.084 62.368C256.204 62.02 256.48 61.576 256.864 61.096C257.236 60.628 257.104 59.872 257.128 59.644C257.188 59.128 257.608 58.972 257.992 58.9ZM35.7 73.16C36.36 73.04 37.092 73.004 37.764 73.004H37.884C37.728 72.572 37.56 72.152 37.344 71.732C37.14 71.336 36.924 70.916 36.756 70.52C36.732 70.472 36.72 70.436 36.708 70.376C36.408 70.784 36.168 71.636 36.012 72.104C35.904 72.452 35.808 72.8 35.7 73.16ZM40.116 76.148C40.128 76.424 40.188 77.228 39.66 77.12C39.156 77 39.192 76.544 39.036 76.184C38.856 75.752 38.712 75.296 38.568 74.84C38.52 74.672 38.388 74.516 38.34 74.36C38.268 74.36 37.98 74.396 37.92 74.396C37.536 74.396 37.38 74.42 37.02 74.48C36.636 74.54 36.252 74.54 35.868 74.588C35.676 74.612 35.472 74.72 35.268 74.756C35.196 75.188 35.004 75.572 34.896 75.992C34.836 76.196 34.752 76.412 34.704 76.652C34.656 76.844 34.584 77.048 34.332 77.072C34.104 77.072 33.6 77.156 33.468 76.256C33.288 75.176 33.972 73.976 34.248 72.932C34.512 72.272 34.668 71.504 34.896 70.832C34.992 70.568 35.076 70.328 35.184 70.064C35.4 69.596 35.616 68.744 36.048 68.468C36.204 68.384 36.636 68.648 36.816 68.744C36.984 68.816 37.416 69.284 37.488 69.476C37.572 69.704 37.704 69.908 37.824 70.136C38.808 71.96 39 72.992 39.612 74.396C39.852 74.936 40.044 75.56 40.116 76.148ZM42.8487 77.228C42.8487 77.228 42.7167 77.324 42.5367 77.324C42.4047 77.324 42.2367 77.264 42.0687 77.084C41.8887 76.892 41.1927 74.252 41.1447 72.92C41.0967 71.576 40.7247 69.752 40.8687 69.392C40.9887 69.008 41.0367 68.804 41.2167 68.768C41.4087 68.732 41.5647 68.744 41.8167 68.9C42.0807 69.056 42.8607 70.676 43.2687 71.096C43.6407 71.504 45.6927 73.556 46.2567 73.988C46.6407 74.3 47.0847 74.312 47.1327 74.312C47.1447 74.312 47.1567 71.456 47.1567 71.096C47.1567 70.724 47.1927 69.716 47.3247 69.332C47.4687 68.96 47.8167 68.66 48.1527 68.744C48.3087 68.804 48.4047 69.176 48.3927 69.644C48.3927 70.124 48.3927 73.268 48.3327 73.832C48.2847 74.432 48.4887 76.304 48.4287 76.568C48.3087 77.036 47.9607 76.928 47.7447 76.928C47.0847 76.916 45.6087 75.368 44.9967 74.864C44.3967 74.36 42.4527 72.224 42.2367 71.852C42.2367 71.852 42.4167 73.46 42.5727 74.084C42.7287 74.72 42.9207 75.644 42.9687 76.1C43.0167 76.532 43.1127 77.072 42.8487 77.228ZM54.8007 73.808C55.0767 73.424 55.4487 72.536 55.4127 72.068C55.3887 71.6 55.0047 71.372 54.5727 71.096C54.1527 70.82 53.7567 70.496 53.2767 70.316C52.9407 70.172 52.5807 70.064 52.2327 69.968C51.9207 69.86 51.5487 69.74 51.2007 69.752C51.2007 69.932 51.1887 70.088 51.1887 70.256C51.1887 71.096 51.3567 71.924 51.3567 72.764C51.3567 73.424 51.4287 74.06 51.4647 74.72C51.4767 75.068 51.4767 75.416 51.5127 75.764C52.6407 75.572 54.1047 74.708 54.8007 73.808ZM56.0847 70.868C56.3487 71.372 56.6487 71.96 56.5167 72.488C56.4567 72.896 55.7847 74.456 55.5447 74.78C54.5607 76.064 54.0927 76.484 52.5447 77.012C52.3287 77.084 51.5727 77.336 51.3687 77.336C51.1887 77.336 51.0207 77.252 50.8767 77.12C50.5047 76.808 50.3127 76.568 50.3367 76.376C50.3487 75.98 50.2527 75.38 50.2527 74.984C50.2527 73.664 50.1567 72.32 50.0727 71C50.0607 70.712 50.0607 70.412 50.0607 70.136C50.0607 69.908 49.9887 69.776 49.9167 69.428C49.8807 69.2 49.7847 68.924 49.8687 68.672C49.9407 68.432 50.0367 68.312 50.2887 68.276C50.4327 68.252 50.5887 68.252 50.7207 68.252C51.1287 68.252 51.5007 68.312 51.9207 68.432C52.4607 68.576 53.0127 68.732 53.5287 68.9C54.5847 69.32 55.5927 69.776 56.0847 70.868ZM68.2468 69.644C68.4988 69.872 68.8828 70.592 68.8708 70.952C68.8468 71.216 68.8828 71.504 68.6308 71.648C68.5588 71.684 68.4868 71.708 68.4388 71.708C68.2828 71.708 68.1628 71.588 67.9708 71.456C67.7428 71.3 67.6468 71.132 67.5628 70.904C67.4428 70.652 67.2868 70.532 67.0588 70.34C66.8068 70.16 66.5548 69.968 66.2308 69.968C66.1708 69.968 66.1108 69.968 66.0508 69.98C64.9468 70.208 64.4788 70.7 63.9028 71.648C63.6028 72.116 63.3388 72.644 63.3748 73.196C63.3748 73.58 63.4828 74.012 63.7108 74.336C63.9508 74.684 64.1548 74.78 64.4908 75.068C64.9468 75.488 65.5948 75.584 66.2428 75.584C67.2268 75.584 68.2468 75.476 69.1828 75.164C69.4468 75.068 69.9148 75.284 69.9268 75.572C69.9508 75.788 69.6508 76.112 69.4948 76.268C69.1228 76.628 67.2988 77.072 66.7348 77.072C64.8508 77.072 63.3988 76.184 62.3668 74.636C62.0188 74.132 61.7908 73.232 61.8268 72.644C61.8628 71.996 62.2348 71.384 62.5588 70.832C62.8708 70.316 63.0988 69.752 63.5668 69.32C64.0228 68.924 64.7548 68.516 65.4148 68.504C65.9308 68.504 66.5068 68.648 66.9868 68.816C67.4668 68.984 67.8748 69.32 68.2468 69.644ZM74.8831 75.848C75.0511 75.86 75.2071 75.872 75.3631 75.872C77.0911 75.872 77.3191 74.972 77.3191 74.972C76.9231 74.708 74.7511 73.868 74.2951 73.712C73.2031 73.328 71.8471 72.92 71.2951 71.876C71.0431 71.408 71.0191 71.036 71.1391 70.556C71.1871 70.328 71.2711 70.124 71.3911 69.944C71.5471 69.716 71.8111 69.596 72.0031 69.428C72.5911 68.9 73.4191 68.636 74.2231 68.636C75.0031 68.636 75.7111 68.864 76.3351 69.332C76.8391 69.716 77.8111 70.556 77.6311 71.06C77.5711 71.24 77.2471 71.384 76.9831 71.384C76.6231 71.384 76.1431 70.808 75.9991 70.532C75.8671 70.292 75.4111 69.932 75.1351 69.932C74.7511 69.896 73.8991 70.088 73.5511 70.244C73.3231 70.34 73.1311 70.496 72.9391 70.676C72.8431 70.796 72.7351 70.916 72.6151 71.024C72.5551 71.072 72.3991 71.228 72.3871 71.3C72.3751 71.408 73.8271 72.344 73.9831 72.392C74.4151 72.536 74.7631 72.704 75.2071 72.824C76.0471 73.124 76.9591 73.496 77.7391 73.928C78.3871 74.288 78.8551 75.056 78.5431 75.8C78.3871 76.22 78.2191 76.616 77.8111 76.844C77.3191 77.084 76.8391 77.108 76.3111 77.168C76.0711 77.216 75.8311 77.228 75.6031 77.228C75.2431 77.228 74.8951 77.18 74.5231 77.036C73.7671 76.784 72.5551 76.376 71.9551 75.836C71.7391 75.668 71.5711 75.452 71.3911 75.224C71.1871 74.948 71.0311 74.48 71.2111 74.168C71.2831 74.036 71.4151 73.988 71.5471 73.988C71.7391 73.988 71.9431 74.072 72.0871 74.156C72.5311 74.36 72.4591 74.864 72.8431 75.128C73.2391 75.404 74.4151 75.812 74.8831 75.848ZM83.5901 75.848C83.7581 75.86 83.9141 75.872 84.0701 75.872C85.7981 75.872 86.0261 74.972 86.0261 74.972C85.6301 74.708 83.4581 73.868 83.0021 73.712C81.9101 73.328 80.5541 72.92 80.0021 71.876C79.7501 71.408 79.7261 71.036 79.8461 70.556C79.8941 70.328 79.9781 70.124 80.0981 69.944C80.2541 69.716 80.5181 69.596 80.7101 69.428C81.2981 68.9 82.1261 68.636 82.9301 68.636C83.7101 68.636 84.4181 68.864 85.0421 69.332C85.5461 69.716 86.5181 70.556 86.3381 71.06C86.2781 71.24 85.9541 71.384 85.6901 71.384C85.3301 71.384 84.8501 70.808 84.7061 70.532C84.5741 70.292 84.1181 69.932 83.8421 69.932C83.4581 69.896 82.6061 70.088 82.2581 70.244C82.0301 70.34 81.8381 70.496 81.6461 70.676C81.5501 70.796 81.4421 70.916 81.3221 71.024C81.2621 71.072 81.1061 71.228 81.0941 71.3C81.0821 71.408 82.5341 72.344 82.6901 72.392C83.1221 72.536 83.4701 72.704 83.9141 72.824C84.7541 73.124 85.6661 73.496 86.4461 73.928C87.0941 74.288 87.5621 75.056 87.2501 75.8C87.0941 76.22 86.9261 76.616 86.5181 76.844C86.0261 77.084 85.5461 77.108 85.0181 77.168C84.7781 77.216 84.5381 77.228 84.3101 77.228C83.9501 77.228 83.6021 77.18 83.2301 77.036C82.4741 76.784 81.2621 76.376 80.6621 75.836C80.4461 75.668 80.2781 75.452 80.0981 75.224C79.8941 74.948 79.7381 74.48 79.9181 74.168C79.9901 74.036 80.1221 73.988 80.2541 73.988C80.4461 73.988 80.6501 74.072 80.7941 74.156C81.2381 74.36 81.1661 74.864 81.5501 75.128C81.9461 75.404 83.1221 75.812 83.5901 75.848ZM90.0652 75.752C90.0772 75.884 90.0292 76.604 89.8372 76.832C89.6572 77.048 89.2132 77.348 88.9132 77.36C88.6372 77.36 88.3732 76.88 88.5292 76.46C88.6732 76.028 88.9132 75.632 89.3692 75.5C89.4892 75.476 90.0412 75.608 90.0652 75.752Z" fill="black"/>
<defs>
<filter id="filter0_d_14_31" x="-0.000167847" y="0" width="276" height="126" filterUnits="userSpaceOnUse" color-interpolation-filters="sRGB">
<feFlood flood-opacity="0" result="BackgroundImageFix"/>
<feColorMatrix in="SourceAlpha" type="matrix" values="0 0 0 0 0 0 0 0 0 0 0 0 0 0 0 0 0 0 127 0" result="hardAlpha"/>
<feOffset dy="4"/>
<feComposite in2="hardAlpha" operator="out"/>
<feColorMatrix type="matrix" values="0 0 0 0 0 0 0 0 0 0 0 0 0 0 0 0 0 0 1 0"/>
<feBlend mode="normal" in2="BackgroundImageFix" result="effect1_dropShadow_14_31"/>
<feBlend mode="normal" in="SourceGraphic" in2="effect1_dropShadow_14_31" result="shape"/>
</filter>
</defs>
</svg>
