<svg width="359" height="177" viewBox="0 0 359 177" fill="none" xmlns="http://www.w3.org/2000/svg">
<path d="M252.316 13.4082C253.642 34.3561 282.214 20.3399 291.125 15.2952C282.961 24.0483 275.338 40.8853 314.441 34.9421C303.919 46.1208 310.664 52.9904 330.009 49.7275C320.691 56.8845 320.322 70.9977 348.652 63.7194C333.269 71.1844 336.303 84.225 357.159 82.9047C347.702 87.1278 331.877 98.2614 344.226 109.01C324.916 114.532 333.293 126.645 341.115 135C320.522 130.993 305.535 123.918 306.95 146.266C298.726 143.247 281.279 134.733 282.97 161.439C263.614 143.447 248.78 153.995 246.227 163.765C237.066 159.288 217.326 158.009 210.292 172.109C193.975 158.779 177.175 168.221 170.815 174.608C152.853 161.332 136.593 169.948 130.612 175.636C123.151 162.96 105.76 163.723 95.8982 168.225C89.4354 161.301 73.4695 159.53 61.4748 170.404C64.9765 153.594 47.3902 154.944 38.1593 157.72C51.9833 127.512 21.4612 129.36 8.5183 130.263C23.4699 126.03 24.5614 103.202 1.95728 91.7369C23.7337 87.1215 20.0088 69.3639 15.4243 61.062C28.9056 61.3754 46.2172 57.4789 40.5383 41.7351C58.0151 40.6287 63.6678 36.3811 56.6617 17.6148C80.5197 32.1105 102.268 26.0589 105.494 18.4536C111.439 22.9889 125.833 28.168 135.85 12.6015C149.547 25.5546 164.388 17.9835 166.777 10.6436C174.23 17.4014 186.798 17.556 192.176 1.0764C190.927 13.045 198.22 18.6971 216.378 11.4337C213.465 22.6611 234.192 26.1294 252.316 13.4082Z" fill="#E7BB3E" stroke="black" stroke-width="2" stroke-linecap="round" stroke-linejoin="round"/>
</svg>
