<?xml version="1.0" encoding="UTF-8" standalone="no"?>
<svg
   width="129"
   height="67"
   viewBox="0 0 129 67"
   fill="none"
   version="1.1"
   id="svg9"
   sodipodi:docname="24.svg"
   inkscape:version="1.3.2 (091e20ef0f, 2023-11-25)"
   xmlns:inkscape="http://www.inkscape.org/namespaces/inkscape"
   xmlns:sodipodi="http://sodipodi.sourceforge.net/DTD/sodipodi-0.dtd"
   xmlns="http://www.w3.org/2000/svg"
   xmlns:svg="http://www.w3.org/2000/svg">
  <defs
     id="defs9" />
  <sodipodi:namedview
     id="namedview9"
     pagecolor="#ffffff"
     bordercolor="#000000"
     borderopacity="0.25"
     inkscape:showpageshadow="2"
     inkscape:pageopacity="0.0"
     inkscape:pagecheckerboard="0"
     inkscape:deskcolor="#d1d1d1"
     inkscape:zoom="1.658371"
     inkscape:cx="138.99181"
     inkscape:cy="0.60300136"
     inkscape:window-width="1268"
     inkscape:window-height="1544"
     inkscape:window-x="0"
     inkscape:window-y="0"
     inkscape:window-maximized="1"
     inkscape:current-layer="svg9" />
  <mask
     id="path-1-outside-1_143_37"
     maskUnits="userSpaceOnUse"
     x="9.8114"
     y="0.922119"
     width="112"
     height="53"
     fill="#000000">
    <rect
       fill="#ffffff"
       x="9.8114004"
       y="0.92211902"
       width="112"
       height="53"
       id="rect1" />
    <path
       d="M 16.3778,43.4553 34.2196,28.5139 c 2.4023,-2.0117 3.6035,-4.1113 3.6035,-6.2988 0,-1.1524 -0.3808,-2.0996 -1.1426,-2.8418 C 35.9384,18.6311 35.0009,18.26 33.868,18.26 c -1.1328,0 -2.2558,0.1856 -3.3691,0.5567 -3.7109,1.2109 -7.3145,3.6816 -10.8105,7.4121 l -6.8848,-9.8731 c 2.3828,-3.9453 5.9375,-7.01171 10.6641,-9.19921 4.7265,-2.1875 9.7656,-3.28125 15.1171,-3.28125 5.3711,0 9.8829,1.25977 13.5352,3.7793 4.0234,2.77346 6.0352,6.61136 6.0352,11.51366 0,3.9063 -1.67,7.5391 -5.0098,10.8985 -1.7383,1.7578 -3.5156,3.3105 -5.332,4.6582 -1.8165,1.3281 -3.2325,2.3828 -4.2481,3.164 H 58.4481 V 51.9221 H 16.3778 Z M 68.7548,31.8245 87.1825,5.07642 H 115.307 V 31.3557 h 4.161 v 14.2676 h -4.161 v 6.2988 H 95.5321 V 45.6233 H 68.7548 Z m 18.2519,0 h 8.5254 V 18.553 Z"
       id="path1" />
  </mask>
  <path
     d="M 16.3778,43.4553 34.2196,28.5139 c 2.4023,-2.0117 3.6035,-4.1113 3.6035,-6.2988 0,-1.1524 -0.3808,-2.0996 -1.1426,-2.8418 C 35.9384,18.6311 35.0009,18.26 33.868,18.26 c -1.1328,0 -2.2558,0.1856 -3.3691,0.5567 -3.7109,1.2109 -7.3145,3.6816 -10.8105,7.4121 l -6.8848,-9.8731 c 2.3828,-3.9453 5.9375,-7.01171 10.6641,-9.19921 4.7265,-2.1875 9.7656,-3.28125 15.1171,-3.28125 5.3711,0 9.8829,1.25977 13.5352,3.7793 4.0234,2.77346 6.0352,6.61136 6.0352,11.51366 0,3.9063 -1.67,7.5391 -5.0098,10.8985 -1.7383,1.7578 -3.5156,3.3105 -5.332,4.6582 -1.8165,1.3281 -3.2325,2.3828 -4.2481,3.164 H 58.4481 V 51.9221 H 16.3778 Z M 68.7548,31.8245 87.1825,5.07642 H 115.307 V 31.3557 h 4.161 v 14.2676 h -4.161 v 6.2988 H 95.5321 V 45.6233 H 68.7548 Z m 18.2519,0 h 8.5254 V 18.553 Z"
     fill="#c14500"
     id="path2" />
  <path
     d="m 16.3778,43.4553 -1.2841,-1.5333 -0.7159,0.5995 v 0.9338 z m 17.8418,-14.9414 -1.284,-1.5334 -1e-4,10e-5 z m 2.4609,-9.1406 -1.4142,1.4142 0.0092,0.0092 0.0093,0.0091 z m -6.1816,-0.5566 0.6204,1.9013 0.0121,-0.004 z m -10.8105,7.4121 -1.6406,1.1439 1.4119,2.0248 1.688,-1.8011 z m -6.8848,-9.8731 -1.712,-1.034 -0.6717,1.1122 0.7432,1.0658 z M 52.12,7.65454 l -1.1357,1.64628 6e-4,4e-4 z m 1.0254,22.41216 -1.4183,-1.4101 -0.0038,0.0038 z m -5.332,4.6582 1.1805,1.6145 0.0111,-0.0084 z m -4.2481,3.164 -1.2194,-1.5852 -4.6608,3.5852 h 5.8802 z m 14.8828,0 h 2 v -2 h -2 z m 0,14.0332 v 2 h 2 v -2 z m -42.0703,0 h -2 v 2 h 2 z M 17.6619,44.9887 35.5037,30.0473 32.9355,26.9806 15.0937,41.922 Z M 35.5036,30.0473 c 2.653,-2.2216 4.3195,-4.831 4.3195,-7.8322 h -4 c 0,1.3738 -0.7358,2.9636 -2.8875,4.7654 z m 4.3195,-7.8322 c 0,-1.6419 -0.5644,-3.1222 -1.7468,-4.2743 l -2.7915,2.865 c 0.341,0.3322 0.5383,0.7465 0.5383,1.4093 z m -1.7283,-4.256 C 36.9459,16.8102 35.4848,16.26 33.868,16.26 v 4 c 0.6489,0 1.0628,0.192 1.3983,0.5275 z M 33.868,16.26 c -1.3554,0 -2.6917,0.2227 -4.0016,0.6593 l 1.265,3.7947 c 0.9167,-0.3056 1.8265,-0.454 2.7366,-0.454 z m -3.9895,0.6553 c -4.115,1.3428 -7.9922,4.0434 -11.6495,7.9458 l 2.9187,2.7353 c 3.3349,-3.5585 6.6648,-5.7993 9.9716,-6.8784 z m -8.5496,8.1695 -6.8848,-9.8731 -3.281,2.288 6.8847,9.873 z M 14.5156,17.3897 C 16.666,13.8291 19.8944,11.014 24.3077,8.97153 L 22.6276,5.34145 C 17.5877,7.67397 13.7068,10.9917 11.0916,15.3217 Z M 24.3077,8.97153 C 28.7636,6.90929 33.5152,5.87524 38.5848,5.87524 v -4 c -5.6334,0 -10.96,1.15346 -15.9572,3.46621 z M 38.5848,5.87524 c 5.0522,0 9.146,1.18119 12.3995,3.42558 L 53.2557,6.00826 C 49.2045,3.21359 44.2749,1.87524 38.5848,1.87524 Z m 12.4001,3.42598 c 3.4798,2.39868 5.1703,5.61988 5.1703,9.86698 h 4 c 0,-5.5575 -2.3331,-10.01219 -6.9001,-13.16034 z m 5.1703,9.86698 c 0,3.269 -1.3764,6.4188 -4.4281,9.4884 l 2.8366,2.8201 c 3.628,-3.6491 5.5915,-7.765 5.5915,-12.3085 z m -4.4319,9.4922 c -1.6732,1.692 -3.3741,3.1766 -5.1016,4.4583 l 2.3833,3.2123 c 1.9054,-1.4136 3.7591,-3.0345 5.5625,-4.8581 z m -5.0904,4.45 c -1.8213,1.3317 -3.2524,2.3974 -4.287,3.1933 l 2.4388,3.1705 c 0.9967,-0.7667 2.3976,-1.8104 4.2091,-3.1349 z m -3.0676,6.7785 h 14.8828 v -4 H 43.5653 Z m 12.8828,-2 v 14.0332 h 4 V 37.8889 Z m 2,12.0332 H 16.3778 v 4 h 42.0703 z m -40.0703,2 v -8.4668 h -4 v 8.4668 z m 50.377,-20.0976 -1.647,-1.1347 -0.353,0.5124 v 0.6223 z M 87.1825,5.07642 v -2 h -1.0508 l -0.5962,0.86533 z m 28.1245,0 h 2 v -2 h -2 z m 0,26.27928 h -2 v 2 h 2 z m 4.161,0 h 2 v -2 h -2 z m 0,14.2676 v 2 h 2 v -2 z m -4.161,0 v -2 h -2 v 2 z m 0,6.2988 v 2 h 2 v -2 z m -19.7749,0 h -2 v 2 h 2 z m 0,-6.2988 h 2 v -2 h -2 z m -26.7773,0 h -2 v 2 h 2 z m 18.2519,-13.7988 -1.6827,-1.081 -1.9792,3.081 h 3.6619 z m 8.5254,0 v 2 h 2 v -2 z m 0,-13.2715 h 2 V 11.7391 L 93.8494,17.472 Z M 70.4017,32.9591 88.8295,6.21108 85.5355,3.94175 67.1078,30.6898 Z M 87.1825,7.07642 h 28.1245 v -4 H 87.1825 Z m 26.1245,-2 V 31.3557 h 4 V 5.07642 Z m 2,28.27928 h 4.161 v -4 h -4.161 z m 2.161,-2 v 14.2676 h 4 V 31.3557 Z m 2,12.2676 h -4.161 v 4 h 4.161 z m -6.161,2 v 6.2988 h 4 v -6.2988 z m 2,4.2988 H 95.5321 v 4 h 19.7749 z m -17.7749,2 v -6.2988 h -4 v 6.2988 z m -2,-8.2988 H 68.7548 v 4 h 26.7773 z m -24.7773,2 V 31.8245 h -4 V 45.6233 Z M 87.0067,33.8245 h 8.5254 v -4 h -8.5254 z m 10.5254,-2 V 18.553 h -4 V 31.8245 Z M 93.8494,17.472 85.324,30.7435 l 3.3654,2.1619 8.5254,-13.2715 z"
     fill="#000000"
     mask="url(#path-1-outside-1_143_37)"
     id="path3" />
  <mask
     id="path-3-outside-2_143_37"
     maskUnits="userSpaceOnUse"
     x="4.73682"
     y="5.03589"
     width="112"
     height="53"
     fill="#000000">
    <rect
       fill="#ffffff"
       x="4.7368202"
       y="5.0358901"
       width="112"
       height="53"
       id="rect3" />
    <path
       d="M 11.3032,47.5691 29.145,32.6277 c 2.4024,-2.0117 3.6035,-4.1113 3.6035,-6.2988 0,-1.1524 -0.3808,-2.0997 -1.1425,-2.8418 -0.7422,-0.7422 -1.6797,-1.1133 -2.8125,-1.1133 -1.1329,0 -2.2559,0.1855 -3.3692,0.5566 -3.7109,1.211 -7.3144,3.6817 -10.8105,7.4121 L 7.729,20.4695 c 2.3828,-3.9453 5.9375,-7.0117 10.6641,-9.1992 4.7265,-2.18754 9.7656,-3.28129 15.1172,-3.28129 5.371,0 9.8828,1.25977 13.5351,3.77929 4.0234,2.7734 6.0352,6.6113 6.0352,11.5137 0,3.9062 -1.67,7.539 -5.0098,10.8984 -1.7383,1.7578 -3.5156,3.3106 -5.332,4.6582 -1.8164,1.3281 -3.2325,2.3828 -4.2481,3.1641 H 53.3735 V 56.0359 H 11.3032 Z M 63.6802,35.9382 82.1079,9.19019 H 110.233 V 35.4695 h 4.16 v 14.2676 h -4.16 v 6.2988 H 90.4575 V 49.7371 H 63.6802 Z m 18.2519,0 h 8.5254 V 22.6667 Z"
       id="path4" />
  </mask>
  <path
     d="M 11.3032,47.5691 29.145,32.6277 c 2.4024,-2.0117 3.6035,-4.1113 3.6035,-6.2988 0,-1.1524 -0.3808,-2.0997 -1.1425,-2.8418 -0.7422,-0.7422 -1.6797,-1.1133 -2.8125,-1.1133 -1.1329,0 -2.2559,0.1855 -3.3692,0.5566 -3.7109,1.211 -7.3144,3.6817 -10.8105,7.4121 L 7.729,20.4695 c 2.3828,-3.9453 5.9375,-7.0117 10.6641,-9.1992 4.7265,-2.18754 9.7656,-3.28129 15.1172,-3.28129 5.371,0 9.8828,1.25977 13.5351,3.77929 4.0234,2.7734 6.0352,6.6113 6.0352,11.5137 0,3.9062 -1.67,7.539 -5.0098,10.8984 -1.7383,1.7578 -3.5156,3.3106 -5.332,4.6582 -1.8164,1.3281 -3.2325,2.3828 -4.2481,3.1641 H 53.3735 V 56.0359 H 11.3032 Z M 63.6802,35.9382 82.1079,9.19019 H 110.233 V 35.4695 h 4.16 v 14.2676 h -4.16 v 6.2988 H 90.4575 V 49.7371 H 63.6802 Z m 18.2519,0 h 8.5254 V 22.6667 Z"
     fill="#58cdc5"
     id="path5" />
  <path
     d="m 11.3032,47.5691 -1.2841,-1.5334 -0.71588,0.5996 v 0.9338 z M 29.145,32.6277 27.861,31.0943 h -10e-5 z m 2.461,-9.1406 -1.4143,1.4142 0.0092,0.0092 0.0093,0.009 z m -6.1817,-0.5567 0.6205,1.9014 0.012,-0.004 z m -10.8105,7.4121 -1.6405,1.144 1.4119,2.0247 1.6879,-1.801 z M 7.729,20.4695 6.01702,19.4355 5.3453,20.5477 6.08848,21.6135 Z m 39.3164,-8.7012 -1.1357,1.6463 6e-4,4e-4 z m 1.0254,22.4121 -1.4183,-1.4101 -0.0038,0.0038 z m -5.332,4.6582 1.1805,1.6145 0.0112,-0.0083 z m -4.2481,3.1641 -1.2194,-1.5853 -4.6608,3.5853 h 5.8802 z m 14.8828,0 h 2 v -2 h -2 z m 0,14.0332 v 2 h 2 v -2 z m -42.0703,0 H 9.30322 v 2 H 11.3032 Z M 12.5873,49.1024 30.4291,34.161 27.8609,31.0943 10.0191,46.0357 Z M 30.4291,34.1611 c 2.6529,-2.2216 4.3194,-4.831 4.3194,-7.8322 h -4 c 0,1.3737 -0.7358,2.9635 -2.8875,4.7654 z m 4.3194,-7.8322 c 0,-1.6419 -0.5644,-3.1222 -1.7468,-4.2743 l -2.7915,2.8649 c 0.341,0.3323 0.5383,0.7465 0.5383,1.4094 z m -1.7283,-4.2561 c -1.1489,-1.1488 -2.6099,-1.699 -4.2267,-1.699 v 4 c 0.6488,0 1.0627,0.192 1.3982,0.5275 z m -4.2267,-1.699 c -1.3555,0 -2.6918,0.2226 -4.0016,0.6593 l 1.2649,3.7947 c 0.9167,-0.3056 1.8265,-0.454 2.7367,-0.454 z m -3.9896,0.6553 c -4.115,1.3428 -7.9922,4.0434 -11.6494,7.9458 l 2.9186,2.7353 c 3.3349,-3.5586 6.6648,-5.7994 9.9717,-6.8784 z m -8.5496,8.1694 -6.88478,-9.873 -3.28104,2.288 6.88482,9.873 z M 9.44099,21.5035 C 11.5914,17.9429 14.8199,15.1278 19.2331,13.0853 L 17.553,9.45522 C 12.5131,11.7877 8.63218,15.1055 6.01702,19.4355 Z M 19.2331,13.0853 C 23.689,11.0231 28.4406,9.98901 33.5103,9.98901 v -4 c -5.6335,0 -10.9601,1.15346 -15.9573,3.46621 z M 33.5103,9.98901 c 5.0521,0 9.1459,1.18119 12.3994,3.42559 L 48.1811,10.122 C 44.1299,7.32736 39.2003,5.98901 33.5103,5.98901 Z m 12.4,3.42599 c 3.4798,2.3987 5.1703,5.6198 5.1703,9.867 h 4 c 0,-5.5576 -2.3331,-10.0122 -6.9001,-13.1604 z m 5.1703,9.867 c 0,3.269 -1.3764,6.4187 -4.4281,9.4883 l 2.8366,2.8202 c 3.628,-3.6492 5.5915,-7.7651 5.5915,-12.3085 z m -4.4319,9.4921 c -1.6732,1.692 -3.3741,3.1766 -5.1016,4.4583 l 2.3834,3.2124 c 1.9053,-1.4136 3.759,-3.0345 5.5624,-4.8581 z m -5.0904,4.4501 c -1.8213,1.3317 -3.2524,2.3974 -4.287,3.1932 l 2.4388,3.1705 c 0.9967,-0.7666 2.3977,-1.8103 4.2091,-3.1348 z m -3.0676,6.7785 h 14.8828 v -4 H 38.4907 Z m 12.8828,-2 v 14.0332 h 4 V 42.0027 Z m 2,12.0332 H 11.3032 v 4 h 42.0703 z m -40.0703,2 V 47.5691 H 9.30322 v 8.4668 z m 50.377,-20.0977 -1.647,-1.1346 -0.353,0.5124 v 0.6222 z M 82.1079,9.19019 v -2 h -1.0508 l -0.5962,0.86533 z m 28.1251,0 h 2 v -2 h -2 z m 0,26.27931 h -2 v 2 h 2 z m 4.16,0 h 2 v -2 h -2 z m 0,14.2676 v 2 h 2 v -2 z m -4.16,0 v -2 h -2 v 2 z m 0,6.2988 v 2 h 2 v -2 z m -19.7755,0 h -2 v 2 h 2 z m 0,-6.2988 h 2 v -2 h -2 z m -26.7773,0 h -2 v 2 h 2 z m 18.2519,-13.7989 -1.6827,-1.0809 -1.9791,3.0809 h 3.6618 z m 8.5254,0 v 2 h 2 v -2 z m 0,-13.2715 h 2 v -6.8138 l -3.6827,5.7329 z M 65.3272,37.0729 83.7549,10.3249 80.4609,8.05552 62.0332,34.8036 Z M 82.1079,11.1902 H 110.233 V 7.19019 H 82.1079 Z M 108.233,9.19019 V 35.4695 h 4 V 9.19019 Z m 2,28.27931 h 4.16 v -4 h -4.16 z m 2.16,-2 v 14.2676 h 4 V 35.4695 Z m 2,12.2676 h -4.16 v 4 h 4.16 z m -6.16,2 v 6.2988 h 4 v -6.2988 z m 2,4.2988 H 90.4575 v 4 h 19.7755 z m -17.7755,2 v -6.2988 h -4 v 6.2988 z m -2,-8.2988 H 63.6802 v 4 h 26.7773 z m -24.7773,2 V 35.9382 h -4 V 49.7371 Z M 81.9321,37.9382 h 8.5254 v -4 h -8.5254 z m 10.5254,-2 V 22.6667 h -4 v 13.2715 z m -3.6827,-14.3524 -8.5254,13.2715 3.3654,2.1619 8.5254,-13.2715 z"
     fill="#000000"
     mask="url(#path-3-outside-2_143_37)"
     id="path6" />
  <mask
     id="path-5-outside-3_143_37"
     maskUnits="userSpaceOnUse"
     x="-0.492432"
     y="10.1497"
     width="112"
     height="53"
     fill="#000000">
    <rect
       fill="#ffffff"
       x="-0.492432"
       y="10.1497"
       width="112"
       height="53"
       id="rect6" />
    <path
       d="M 6.07397,52.6829 23.9158,37.7415 c 2.4023,-2.0118 3.6035,-4.1114 3.6035,-6.2989 0,-1.1523 -0.3809,-2.0996 -1.1426,-2.8418 -0.7422,-0.7422 -1.6797,-1.1133 -2.8125,-1.1133 -1.1328,0 -2.2559,0.1856 -3.3691,0.5567 -3.711,1.2109 -7.3145,3.6816 -10.81058,7.4121 l -6.88476,-9.873 c 2.38281,-3.9454 5.9375,-7.0118 10.66404,-9.1993 4.7266,-2.1875 9.7656,-3.2812 15.1172,-3.2812 5.3711,0 9.8828,1.2597 13.5352,3.7793 4.0234,2.7734 6.0351,6.6113 6.0351,11.5137 0,3.9062 -1.6699,7.539 -5.0097,10.8984 -1.7383,1.7578 -3.5157,3.3105 -5.3321,4.6582 -1.8164,1.3281 -3.2324,2.3828 -4.248,3.1641 H 48.1443 V 61.1497 H 6.07397 Z M 58.4509,41.052 76.8787,14.304 h 28.1253 v 26.2793 h 4.16 v 14.2675 h -4.16 v 6.2989 H 85.2283 V 54.8508 H 58.4509 Z m 18.252,0 h 8.5254 V 27.7805 Z"
       id="path7" />
  </mask>
  <path
     d="M 6.07397,52.6829 23.9158,37.7415 c 2.4023,-2.0118 3.6035,-4.1114 3.6035,-6.2989 0,-1.1523 -0.3809,-2.0996 -1.1426,-2.8418 -0.7422,-0.7422 -1.6797,-1.1133 -2.8125,-1.1133 -1.1328,0 -2.2559,0.1856 -3.3691,0.5567 -3.711,1.2109 -7.3145,3.6816 -10.81058,7.4121 l -6.88476,-9.873 c 2.38281,-3.9454 5.9375,-7.0118 10.66404,-9.1993 4.7266,-2.1875 9.7656,-3.2812 15.1172,-3.2812 5.3711,0 9.8828,1.2597 13.5352,3.7793 4.0234,2.7734 6.0351,6.6113 6.0351,11.5137 0,3.9062 -1.6699,7.539 -5.0097,10.8984 -1.7383,1.7578 -3.5157,3.3105 -5.3321,4.6582 -1.8164,1.3281 -3.2324,2.3828 -4.248,3.1641 H 48.1443 V 61.1497 H 6.07397 Z M 58.4509,41.052 76.8787,14.304 h 28.1253 v 26.2793 h 4.16 v 14.2675 h -4.16 v 6.2989 H 85.2283 V 54.8508 H 58.4509 Z m 18.252,0 h 8.5254 V 27.7805 Z"
     fill="#e7bb3e"
     id="path8" />
  <path
     d="M 6.07397,52.6829 4.78989,51.1495 4.07397,51.7491 v 0.9338 z M 23.9158,37.7415 22.6317,36.2081 v 0 z m 2.4609,-9.1407 -1.4142,1.4142 0.0092,0.0092 0.0093,0.0091 z m -6.1816,-0.5566 0.6204,1.9014 0.012,-0.004 z M 9.38452,35.4563 7.744,36.6003 9.15591,38.625 10.8438,36.8239 Z m -6.88476,-9.873 -1.711992,-1.034 -0.671719,1.1122 0.743187,1.0657 z m 39.31644,-8.7012 -1.1357,1.6463 6e-4,4e-4 z m 1.0254,22.4121 -1.4184,-1.4101 -0.0037,0.0038 z m -5.3321,4.6582 1.1805,1.6145 0.0112,-0.0083 z m -4.248,3.1641 -1.2194,-1.5853 -4.6609,3.5853 h 5.8803 z m 14.8828,0 h 2 v -2 h -2 z m 0,14.0332 v 2 h 2 v -2 z m -42.07033,0 h -2 v 2 h 2 z M 7.35805,54.2162 25.1999,39.2748 22.6317,36.2081 4.78989,51.1495 Z M 25.1998,39.2748 c 2.6529,-2.2215 4.3195,-4.8309 4.3195,-7.8322 h -4 c 0,1.3738 -0.7358,2.9636 -2.8876,4.7655 z m 4.3195,-7.8322 c 0,-1.6418 -0.5644,-3.1221 -1.7469,-4.2742 l -2.7914,2.8649 c 0.341,0.3323 0.5383,0.7465 0.5383,1.4093 z m -1.7284,-4.256 C 26.6421,26.0377 25.181,25.4875 23.5642,25.4875 v 4 c 0.6488,0 1.0628,0.192 1.3983,0.5275 z m -4.2267,-1.6991 c -1.3554,0 -2.6918,0.2227 -4.0016,0.6593 l 1.2649,3.7948 c 0.9168,-0.3056 1.8265,-0.4541 2.7367,-0.4541 z m -3.9896,0.6554 c -4.115,1.3428 -7.9921,4.0433 -11.64939,7.9458 l 2.91859,2.7352 c 3.335,-3.5585 6.6648,-5.7993 9.9717,-6.8784 z M 11.025,34.3123 4.14028,24.4393 0.859236,26.7272 7.744,36.6003 Z M 4.21174,26.6172 C 6.3622,23.0566 9.59062,20.2416 14.0038,18.1991 l -1.68,-3.6301 C 7.2839,16.9015 3.40294,20.2192 0.787768,24.5493 Z m 9.79206,-8.4181 c 4.456,-2.0623 9.2075,-3.0963 14.2772,-3.0963 v -4 c -5.6334,0 -10.96,1.1534 -15.9572,3.4662 z M 28.281,15.1028 c 5.0522,0 9.146,1.1812 12.3995,3.4256 l 2.2713,-3.2926 C 38.9007,12.4411 33.971,11.1028 28.281,11.1028 Z m 12.4001,3.426 c 3.4798,2.3987 5.1702,5.6198 5.1702,9.867 h 4 c 0,-5.5576 -2.333,-10.0122 -6.9,-13.1604 z m 5.1702,9.867 c 0,3.269 -1.3763,6.4187 -4.4281,9.4883 l 2.8367,2.8202 c 3.6279,-3.6492 5.5914,-7.7651 5.5914,-12.3085 z m -4.4318,9.4921 c -1.6733,1.692 -3.3742,3.1766 -5.1017,4.4583 l 2.3834,3.2124 c 1.9053,-1.4136 3.7591,-3.0345 5.5624,-4.8581 z m -5.0904,4.45 c -1.8214,1.3318 -3.2525,2.3975 -4.287,3.1933 l 2.4388,3.1705 c 0.9967,-0.7667 2.3976,-1.8103 4.2091,-3.1348 z m -3.0676,6.7786 h 14.8828 v -4 H 33.2615 Z m 12.8828,-2 v 14.0332 h 4 V 47.1165 Z m 2,12.0332 H 6.07397 v 4 H 48.1443 Z m -40.07033,2 v -8.4668 h -4 v 8.4668 z M 58.4509,41.052 l -1.647,-1.1347 -0.353,0.5125 V 41.052 Z M 76.8787,14.304 v -2 h -1.0509 l -0.5961,0.8653 z m 28.1253,0 h 2 v -2 h -2 z m 0,26.2793 h -2 v 2 h 2 z m 4.16,0 h 2 v -2 h -2 z m 0,14.2675 v 2 h 2 v -2 z m -4.16,0 v -2 h -2 v 2 z m 0,6.2989 v 2 h 2 v -2 z m -19.7757,0 h -2 v 2 h 2 z m 0,-6.2989 h 2 v -2 h -2 z m -26.7774,0 h -2 v 2 h 2 z M 76.7029,41.052 75.0202,39.9711 73.041,43.052 h 3.6619 z m 8.5254,0 v 2 h 2 v -2 z m 0,-13.2715 h 2 v -6.8138 l -3.6827,5.7329 z M 60.0979,42.1867 78.5256,15.4386 75.2317,13.1693 56.8039,39.9173 Z M 76.8787,16.304 h 28.1253 v -4 H 76.8787 Z m 26.1253,-2 v 26.2793 h 4 V 14.304 Z m 2,28.2793 h 4.16 v -4 h -4.16 z m 2.16,-2 v 14.2675 h 4 V 40.5833 Z m 2,12.2675 h -4.16 v 4 h 4.16 z m -6.16,2 v 6.2989 h 4 v -6.2989 z m 2,4.2989 H 85.2283 v 4 h 19.7757 z m -17.7757,2 v -6.2989 h -4 v 6.2989 z m -2,-8.2989 H 58.4509 v 4 h 26.7774 z m -24.7774,2 V 41.052 h -4 V 54.8508 Z M 76.7029,43.052 h 8.5254 v -4 h -8.5254 z m 10.5254,-2 V 27.7805 h -4 V 41.052 Z M 83.5456,26.6996 75.0202,39.9711 78.3856,42.133 86.911,28.8615 Z"
     fill="#000000"
     mask="url(#path-5-outside-3_143_37)"
     id="path9" />
</svg>
