<svg width="442" height="67" viewBox="0 0 442 67" fill="none" xmlns="http://www.w3.org/2000/svg">
    <mask id="path-1-outside-1_143_37" maskUnits="userSpaceOnUse" x="9.8114" y="0.922119" width="112" height="53"
        fill="black">
        <rect fill="white" x="9.8114" y="0.922119" width="112" height="53" />
        <path
            d="M16.3778 43.4553L34.2196 28.5139C36.6219 26.5022 37.8231 24.4026 37.8231 22.2151C37.8231 21.0627 37.4423 20.1155 36.6805 19.3733C35.9384 18.6311 35.0009 18.26 33.868 18.26C32.7352 18.26 31.6122 18.4456 30.4989 18.8167C26.788 20.0276 23.1844 22.4983 19.6884 26.2288L12.8036 16.3557C15.1864 12.4104 18.7411 9.34399 23.4677 7.15649C28.1942 4.96899 33.2333 3.87524 38.5848 3.87524C43.9559 3.87524 48.4677 5.13501 52.12 7.65454C56.1434 10.428 58.1552 14.2659 58.1552 19.1682C58.1552 23.0745 56.4852 26.7073 53.1454 30.0667C51.4071 31.8245 49.6298 33.3772 47.8134 34.7249C45.9969 36.053 44.5809 37.1077 43.5653 37.8889H58.4481V51.9221H16.3778V43.4553ZM68.7548 31.8245L87.1825 5.07642L115.307 5.07642V31.3557H119.468V45.6233H115.307V51.9221H95.5321V45.6233L68.7548 45.6233V31.8245ZM87.0067 31.8245H95.5321V18.553L87.0067 31.8245Z" />
    </mask>
    <path
        d="M16.3778 43.4553L34.2196 28.5139C36.6219 26.5022 37.8231 24.4026 37.8231 22.2151C37.8231 21.0627 37.4423 20.1155 36.6805 19.3733C35.9384 18.6311 35.0009 18.26 33.868 18.26C32.7352 18.26 31.6122 18.4456 30.4989 18.8167C26.788 20.0276 23.1844 22.4983 19.6884 26.2288L12.8036 16.3557C15.1864 12.4104 18.7411 9.34399 23.4677 7.15649C28.1942 4.96899 33.2333 3.87524 38.5848 3.87524C43.9559 3.87524 48.4677 5.13501 52.12 7.65454C56.1434 10.428 58.1552 14.2659 58.1552 19.1682C58.1552 23.0745 56.4852 26.7073 53.1454 30.0667C51.4071 31.8245 49.6298 33.3772 47.8134 34.7249C45.9969 36.053 44.5809 37.1077 43.5653 37.8889H58.4481V51.9221H16.3778V43.4553ZM68.7548 31.8245L87.1825 5.07642L115.307 5.07642V31.3557H119.468V45.6233H115.307V51.9221H95.5321V45.6233L68.7548 45.6233V31.8245ZM87.0067 31.8245H95.5321V18.553L87.0067 31.8245Z"
        fill="#C14500" />
    <path
        d="M16.3778 43.4553L15.0937 41.922L14.3778 42.5215V43.4553H16.3778ZM34.2196 28.5139L32.9356 26.9805L32.9355 26.9806L34.2196 28.5139ZM36.6805 19.3733L35.2663 20.7875L35.2755 20.7967L35.2848 20.8058L36.6805 19.3733ZM30.4989 18.8167L31.1193 20.718L31.1314 20.714L30.4989 18.8167ZM19.6884 26.2288L18.0478 27.3727L19.4597 29.3975L21.1477 27.5964L19.6884 26.2288ZM12.8036 16.3557L11.0916 15.3217L10.4199 16.4339L11.1631 17.4997L12.8036 16.3557ZM52.12 7.65454L50.9843 9.30082L50.9849 9.30122L52.12 7.65454ZM53.1454 30.0667L51.7271 28.6566L51.7233 28.6604L53.1454 30.0667ZM47.8134 34.7249L48.9939 36.3394L49.005 36.331L47.8134 34.7249ZM43.5653 37.8889L42.3459 36.3037L37.6851 39.8889H43.5653V37.8889ZM58.4481 37.8889H60.4481V35.8889H58.4481V37.8889ZM58.4481 51.9221V53.9221H60.4481V51.9221H58.4481ZM16.3778 51.9221H14.3778V53.9221H16.3778V51.9221ZM17.6619 44.9887L35.5037 30.0473L32.9355 26.9806L15.0937 41.922L17.6619 44.9887ZM35.5036 30.0473C38.1566 27.8257 39.8231 25.2163 39.8231 22.2151H35.8231C35.8231 23.5889 35.0873 25.1787 32.9356 26.9805L35.5036 30.0473ZM39.8231 22.2151C39.8231 20.5732 39.2587 19.0929 38.0763 17.9408L35.2848 20.8058C35.6258 21.138 35.8231 21.5523 35.8231 22.2151H39.8231ZM38.0948 17.9591C36.9459 16.8102 35.4848 16.26 33.868 16.26V20.26C34.5169 20.26 34.9308 20.452 35.2663 20.7875L38.0948 17.9591ZM33.868 16.26C32.5126 16.26 31.1763 16.4827 29.8664 16.9193L31.1314 20.714C32.0481 20.4084 32.9579 20.26 33.868 20.26V16.26ZM29.8785 16.9153C25.7635 18.2581 21.8863 20.9587 18.229 24.8611L21.1477 27.5964C24.4826 24.0379 27.8125 21.7971 31.1193 20.718L29.8785 16.9153ZM21.3289 25.0848L14.4441 15.2117L11.1631 17.4997L18.0478 27.3727L21.3289 25.0848ZM14.5156 17.3897C16.666 13.8291 19.8944 11.014 24.3077 8.97153L22.6276 5.34145C17.5877 7.67397 13.7068 10.9917 11.0916 15.3217L14.5156 17.3897ZM24.3077 8.97153C28.7636 6.90929 33.5152 5.87524 38.5848 5.87524V1.87524C32.9514 1.87524 27.6248 3.0287 22.6276 5.34145L24.3077 8.97153ZM38.5848 5.87524C43.637 5.87524 47.7308 7.05643 50.9843 9.30082L53.2557 6.00826C49.2045 3.21359 44.2749 1.87524 38.5848 1.87524V5.87524ZM50.9849 9.30122C54.4647 11.6999 56.1552 14.9211 56.1552 19.1682H60.1552C60.1552 13.6107 57.8221 9.15601 53.2551 6.00786L50.9849 9.30122ZM56.1552 19.1682C56.1552 22.4372 54.7788 25.587 51.7271 28.6566L54.5637 31.4767C58.1917 27.8276 60.1552 23.7117 60.1552 19.1682H56.1552ZM51.7233 28.6604C50.0501 30.3524 48.3492 31.837 46.6217 33.1187L49.005 36.331C50.9104 34.9174 52.7641 33.2965 54.5675 31.4729L51.7233 28.6604ZM46.6329 33.1104C44.8116 34.4421 43.3805 35.5078 42.3459 36.3037L44.7847 39.4742C45.7814 38.7075 47.1823 37.6638 48.9938 36.3393L46.6329 33.1104ZM43.5653 39.8889H58.4481V35.8889H43.5653V39.8889ZM56.4481 37.8889V51.9221H60.4481V37.8889H56.4481ZM58.4481 49.9221H16.3778V53.9221H58.4481V49.9221ZM18.3778 51.9221V43.4553H14.3778L14.3778 51.9221H18.3778ZM68.7548 31.8245L67.1078 30.6898L66.7548 31.2022V31.8245H68.7548ZM87.1825 5.07642V3.07642L86.1317 3.07642L85.5355 3.94175L87.1825 5.07642ZM115.307 5.07642H117.307V3.07642H115.307V5.07642ZM115.307 31.3557H113.307V33.3557H115.307V31.3557ZM119.468 31.3557H121.468V29.3557H119.468V31.3557ZM119.468 45.6233V47.6233H121.468V45.6233H119.468ZM115.307 45.6233V43.6233H113.307V45.6233H115.307ZM115.307 51.9221V53.9221H117.307V51.9221H115.307ZM95.5321 51.9221H93.5321V53.9221H95.5321V51.9221ZM95.5321 45.6233H97.5321V43.6233H95.5321V45.6233ZM68.7548 45.6233H66.7548V47.6233H68.7548V45.6233ZM87.0067 31.8245L85.324 30.7435L83.3448 33.8245H87.0067V31.8245ZM95.5321 31.8245V33.8245H97.5321V31.8245H95.5321ZM95.5321 18.553H97.5321V11.7391L93.8494 17.472L95.5321 18.553ZM70.4017 32.9591L88.8295 6.21108L85.5355 3.94175L67.1078 30.6898L70.4017 32.9591ZM87.1825 7.07642L115.307 7.07642V3.07642L87.1825 3.07642V7.07642ZM113.307 5.07642V31.3557H117.307V5.07642L113.307 5.07642ZM115.307 33.3557H119.468V29.3557H115.307V33.3557ZM117.468 31.3557V45.6233H121.468V31.3557H117.468ZM119.468 43.6233H115.307V47.6233H119.468V43.6233ZM113.307 45.6233V51.9221H117.307V45.6233H113.307ZM115.307 49.9221H95.5321V53.9221H115.307V49.9221ZM97.5321 51.9221V45.6233H93.5321V51.9221H97.5321ZM95.5321 43.6233L68.7548 43.6233V47.6233L95.5321 47.6233V43.6233ZM70.7548 45.6233V31.8245H66.7548V45.6233H70.7548ZM87.0067 33.8245H95.5321V29.8245H87.0067V33.8245ZM97.5321 31.8245V18.553H93.5321V31.8245H97.5321ZM93.8494 17.472L85.324 30.7435L88.6894 32.9054L97.2148 19.6339L93.8494 17.472Z"
        fill="black" mask="url(#path-1-outside-1_143_37)" />
    <mask id="path-3-outside-2_143_37" maskUnits="userSpaceOnUse" x="4.73682" y="5.03589" width="112" height="53"
        fill="black">
        <rect fill="white" x="4.73682" y="5.03589" width="112" height="53" />
        <path
            d="M11.3032 47.5691L29.145 32.6277C31.5474 30.616 32.7485 28.5164 32.7485 26.3289C32.7485 25.1765 32.3677 24.2292 31.606 23.4871C30.8638 22.7449 29.9263 22.3738 28.7935 22.3738C27.6606 22.3738 26.5376 22.5593 25.4243 22.9304C21.7134 24.1414 18.1099 26.6121 14.6138 30.3425L7.729 20.4695C10.1118 16.5242 13.6665 13.4578 18.3931 11.2703C23.1196 9.08276 28.1587 7.98901 33.5103 7.98901C38.8813 7.98901 43.3931 9.24878 47.0454 11.7683C51.0688 14.5417 53.0806 18.3796 53.0806 23.282C53.0806 27.1882 51.4106 30.821 48.0708 34.1804C46.3325 35.9382 44.5552 37.491 42.7388 38.8386C40.9224 40.1667 39.5063 41.2214 38.4907 42.0027H53.3735V56.0359H11.3032V47.5691ZM63.6802 35.9382L82.1079 9.19019L110.233 9.19019V35.4695H114.393V49.7371H110.233V56.0359H90.4575V49.7371L63.6802 49.7371V35.9382ZM81.9321 35.9382H90.4575V22.6667L81.9321 35.9382Z" />
    </mask>
    <path
        d="M11.3032 47.5691L29.145 32.6277C31.5474 30.616 32.7485 28.5164 32.7485 26.3289C32.7485 25.1765 32.3677 24.2292 31.606 23.4871C30.8638 22.7449 29.9263 22.3738 28.7935 22.3738C27.6606 22.3738 26.5376 22.5593 25.4243 22.9304C21.7134 24.1414 18.1099 26.6121 14.6138 30.3425L7.729 20.4695C10.1118 16.5242 13.6665 13.4578 18.3931 11.2703C23.1196 9.08276 28.1587 7.98901 33.5103 7.98901C38.8813 7.98901 43.3931 9.24878 47.0454 11.7683C51.0688 14.5417 53.0806 18.3796 53.0806 23.282C53.0806 27.1882 51.4106 30.821 48.0708 34.1804C46.3325 35.9382 44.5552 37.491 42.7388 38.8386C40.9224 40.1667 39.5063 41.2214 38.4907 42.0027H53.3735V56.0359H11.3032V47.5691ZM63.6802 35.9382L82.1079 9.19019L110.233 9.19019V35.4695H114.393V49.7371H110.233V56.0359H90.4575V49.7371L63.6802 49.7371V35.9382ZM81.9321 35.9382H90.4575V22.6667L81.9321 35.9382Z"
        fill="#58CDC5" />
    <path
        d="M11.3032 47.5691L10.0191 46.0357L9.30322 46.6353V47.5691H11.3032ZM29.145 32.6277L27.861 31.0943L27.8609 31.0943L29.145 32.6277ZM31.606 23.4871L30.1917 24.9013L30.2009 24.9105L30.2102 24.9195L31.606 23.4871ZM25.4243 22.9304L26.0448 24.8318L26.0568 24.8278L25.4243 22.9304ZM14.6138 30.3425L12.9733 31.4865L14.3852 33.5112L16.0731 31.7102L14.6138 30.3425ZM7.729 20.4695L6.01702 19.4355L5.3453 20.5477L6.08848 21.6135L7.729 20.4695ZM47.0454 11.7683L45.9097 13.4146L45.9103 13.415L47.0454 11.7683ZM48.0708 34.1804L46.6525 32.7703L46.6487 32.7741L48.0708 34.1804ZM42.7388 38.8386L43.9193 40.4531L43.9305 40.4448L42.7388 38.8386ZM38.4907 42.0027L37.2713 40.4174L32.6105 44.0027H38.4907V42.0027ZM53.3735 42.0027H55.3735V40.0027H53.3735V42.0027ZM53.3735 56.0359V58.0359H55.3735V56.0359H53.3735ZM11.3032 56.0359H9.30322V58.0359H11.3032V56.0359ZM12.5873 49.1024L30.4291 34.161L27.8609 31.0943L10.0191 46.0357L12.5873 49.1024ZM30.4291 34.1611C33.082 31.9395 34.7485 29.3301 34.7485 26.3289H30.7485C30.7485 27.7026 30.0127 29.2924 27.861 31.0943L30.4291 34.1611ZM34.7485 26.3289C34.7485 24.687 34.1841 23.2067 33.0017 22.0546L30.2102 24.9195C30.5512 25.2518 30.7485 25.666 30.7485 26.3289H34.7485ZM33.0202 22.0728C31.8713 20.924 30.4103 20.3738 28.7935 20.3738V24.3738C29.4423 24.3738 29.8562 24.5658 30.1917 24.9013L33.0202 22.0728ZM28.7935 20.3738C27.438 20.3738 26.1017 20.5964 24.7919 21.0331L26.0568 24.8278C26.9735 24.5222 27.8833 24.3738 28.7935 24.3738V20.3738ZM24.8039 21.0291C20.6889 22.3719 16.8117 25.0725 13.1545 28.9749L16.0731 31.7102C19.408 28.1516 22.7379 25.9108 26.0448 24.8318L24.8039 21.0291ZM16.2543 29.1985L9.36952 19.3255L6.08848 21.6135L12.9733 31.4865L16.2543 29.1985ZM9.44099 21.5035C11.5914 17.9429 14.8199 15.1278 19.2331 13.0853L17.553 9.45522C12.5131 11.7877 8.63218 15.1055 6.01702 19.4355L9.44099 21.5035ZM19.2331 13.0853C23.689 11.0231 28.4406 9.98901 33.5103 9.98901V5.98901C27.8768 5.98901 22.5502 7.14247 17.553 9.45522L19.2331 13.0853ZM33.5103 9.98901C38.5624 9.98901 42.6562 11.1702 45.9097 13.4146L48.1811 10.122C44.1299 7.32736 39.2003 5.98901 33.5103 5.98901V9.98901ZM45.9103 13.415C49.3901 15.8137 51.0806 19.0348 51.0806 23.282H55.0806C55.0806 17.7244 52.7475 13.2698 48.1805 10.1216L45.9103 13.415ZM51.0806 23.282C51.0806 26.551 49.7042 29.7007 46.6525 32.7703L49.4891 35.5905C53.1171 31.9413 55.0806 27.8254 55.0806 23.282H51.0806ZM46.6487 32.7741C44.9755 34.4661 43.2746 35.9507 41.5471 37.2324L43.9305 40.4448C45.8358 39.0312 47.6895 37.4103 49.4929 35.5867L46.6487 32.7741ZM41.5583 37.2242C39.737 38.5559 38.3059 39.6216 37.2713 40.4174L39.7101 43.5879C40.7068 42.8213 42.1078 41.7776 43.9192 40.4531L41.5583 37.2242ZM38.4907 44.0027H53.3735V40.0027H38.4907V44.0027ZM51.3735 42.0027V56.0359H55.3735V42.0027H51.3735ZM53.3735 54.0359H11.3032V58.0359H53.3735V54.0359ZM13.3032 56.0359V47.5691H9.30322L9.30322 56.0359H13.3032ZM63.6802 35.9382L62.0332 34.8036L61.6802 35.316V35.9382H63.6802ZM82.1079 9.19019V7.19019L81.0571 7.19019L80.4609 8.05552L82.1079 9.19019ZM110.233 9.19019H112.233V7.19019H110.233V9.19019ZM110.233 35.4695H108.233V37.4695H110.233V35.4695ZM114.393 35.4695H116.393V33.4695H114.393V35.4695ZM114.393 49.7371V51.7371H116.393V49.7371H114.393ZM110.233 49.7371V47.7371H108.233V49.7371H110.233ZM110.233 56.0359V58.0359H112.233V56.0359H110.233ZM90.4575 56.0359H88.4575V58.0359H90.4575V56.0359ZM90.4575 49.7371H92.4575V47.7371H90.4575V49.7371ZM63.6802 49.7371H61.6802V51.7371H63.6802V49.7371ZM81.9321 35.9382L80.2494 34.8573L78.2703 37.9382H81.9321V35.9382ZM90.4575 35.9382V37.9382H92.4575V35.9382H90.4575ZM90.4575 22.6667H92.4575V15.8529L88.7748 21.5858L90.4575 22.6667ZM65.3272 37.0729L83.7549 10.3249L80.4609 8.05552L62.0332 34.8036L65.3272 37.0729ZM82.1079 11.1902L110.233 11.1902V7.19019L82.1079 7.19019V11.1902ZM108.233 9.19019V35.4695H112.233V9.19019L108.233 9.19019ZM110.233 37.4695H114.393V33.4695H110.233V37.4695ZM112.393 35.4695V49.7371H116.393V35.4695H112.393ZM114.393 47.7371H110.233V51.7371H114.393V47.7371ZM108.233 49.7371V56.0359H112.233V49.7371H108.233ZM110.233 54.0359H90.4575V58.0359H110.233V54.0359ZM92.4575 56.0359V49.7371H88.4575V56.0359H92.4575ZM90.4575 47.7371L63.6802 47.7371V51.7371L90.4575 51.7371V47.7371ZM65.6802 49.7371V35.9382H61.6802V49.7371H65.6802ZM81.9321 37.9382H90.4575V33.9382H81.9321V37.9382ZM92.4575 35.9382V22.6667H88.4575V35.9382H92.4575ZM88.7748 21.5858L80.2494 34.8573L83.6148 37.0192L92.1402 23.7477L88.7748 21.5858Z"
        fill="black" mask="url(#path-3-outside-2_143_37)" />
    <mask id="path-5-outside-3_143_37" maskUnits="userSpaceOnUse" x="-0.492432" y="10.1497" width="112" height="53"
        fill="black">
        <rect fill="white" x="-0.492432" y="10.1497" width="112" height="53" />
        <path
            d="M6.07397 52.6829L23.9158 37.7415C26.3181 35.7297 27.5193 33.6301 27.5193 31.4426C27.5193 30.2903 27.1384 29.343 26.3767 28.6008C25.6345 27.8586 24.697 27.4875 23.5642 27.4875C22.4314 27.4875 21.3083 27.6731 20.1951 28.0442C16.4841 29.2551 12.8806 31.7258 9.38452 35.4563L2.49976 25.5833C4.88257 21.6379 8.43726 18.5715 13.1638 16.384C17.8904 14.1965 22.9294 13.1028 28.281 13.1028C33.6521 13.1028 38.1638 14.3625 41.8162 16.8821C45.8396 19.6555 47.8513 23.4934 47.8513 28.3958C47.8513 32.302 46.1814 35.9348 42.8416 39.2942C41.1033 41.052 39.3259 42.6047 37.5095 43.9524C35.6931 45.2805 34.2771 46.3352 33.2615 47.1165H48.1443V61.1497H6.07397V52.6829ZM58.4509 41.052L76.8787 14.304L105.004 14.304V40.5833H109.164V54.8508H105.004V61.1497H85.2283V54.8508L58.4509 54.8508V41.052ZM76.7029 41.052H85.2283V27.7805L76.7029 41.052Z" />
    </mask>
    <path
        d="M6.07397 52.6829L23.9158 37.7415C26.3181 35.7297 27.5193 33.6301 27.5193 31.4426C27.5193 30.2903 27.1384 29.343 26.3767 28.6008C25.6345 27.8586 24.697 27.4875 23.5642 27.4875C22.4314 27.4875 21.3083 27.6731 20.1951 28.0442C16.4841 29.2551 12.8806 31.7258 9.38452 35.4563L2.49976 25.5833C4.88257 21.6379 8.43726 18.5715 13.1638 16.384C17.8904 14.1965 22.9294 13.1028 28.281 13.1028C33.6521 13.1028 38.1638 14.3625 41.8162 16.8821C45.8396 19.6555 47.8513 23.4934 47.8513 28.3958C47.8513 32.302 46.1814 35.9348 42.8416 39.2942C41.1033 41.052 39.3259 42.6047 37.5095 43.9524C35.6931 45.2805 34.2771 46.3352 33.2615 47.1165H48.1443V61.1497H6.07397V52.6829ZM58.4509 41.052L76.8787 14.304L105.004 14.304V40.5833H109.164V54.8508H105.004V61.1497H85.2283V54.8508L58.4509 54.8508V41.052ZM76.7029 41.052H85.2283V27.7805L76.7029 41.052Z"
        fill="#E7BB3E" />
    <path
        d="M6.07397 52.6829L4.78989 51.1495L4.07397 51.7491V52.6829H6.07397ZM23.9158 37.7415L22.6317 36.2081L22.6317 36.2081L23.9158 37.7415ZM26.3767 28.6008L24.9625 30.015L24.9717 30.0242L24.981 30.0333L26.3767 28.6008ZM20.1951 28.0442L20.8155 29.9456L20.8275 29.9416L20.1951 28.0442ZM9.38452 35.4563L7.744 36.6003L9.15591 38.625L10.8438 36.8239L9.38452 35.4563ZM2.49976 25.5833L0.787768 24.5493L0.116049 25.6615L0.859236 26.7272L2.49976 25.5833ZM41.8162 16.8821L40.6805 18.5284L40.6811 18.5288L41.8162 16.8821ZM42.8416 39.2942L41.4232 37.8841L41.4195 37.8879L42.8416 39.2942ZM37.5095 43.9524L38.69 45.5669L38.7012 45.5586L37.5095 43.9524ZM33.2615 47.1165L32.0421 45.5312L27.3812 49.1165H33.2615V47.1165ZM48.1443 47.1165H50.1443V45.1165H48.1443V47.1165ZM48.1443 61.1497V63.1497H50.1443V61.1497H48.1443ZM6.07397 61.1497H4.07397L4.07397 63.1497H6.07397V61.1497ZM7.35805 54.2162L25.1999 39.2748L22.6317 36.2081L4.78989 51.1495L7.35805 54.2162ZM25.1998 39.2748C27.8527 37.0533 29.5193 34.4439 29.5193 31.4426H25.5193C25.5193 32.8164 24.7835 34.4062 22.6317 36.2081L25.1998 39.2748ZM29.5193 31.4426C29.5193 29.8008 28.9549 28.3205 27.7724 27.1684L24.981 30.0333C25.322 30.3656 25.5193 30.7798 25.5193 31.4426H29.5193ZM27.7909 27.1866C26.6421 26.0377 25.181 25.4875 23.5642 25.4875V29.4875C24.213 29.4875 24.627 29.6795 24.9625 30.015L27.7909 27.1866ZM23.5642 25.4875C22.2088 25.4875 20.8724 25.7102 19.5626 26.1468L20.8275 29.9416C21.7443 29.636 22.654 29.4875 23.5642 29.4875V25.4875ZM19.5746 26.1429C15.4596 27.4857 11.5825 30.1862 7.92521 34.0887L10.8438 36.8239C14.1788 33.2654 17.5086 31.0246 20.8155 29.9455L19.5746 26.1429ZM11.025 34.3123L4.14028 24.4393L0.859236 26.7272L7.744 36.6003L11.025 34.3123ZM4.21174 26.6172C6.3622 23.0566 9.59062 20.2416 14.0038 18.1991L12.3238 14.569C7.2839 16.9015 3.40294 20.2192 0.787768 24.5493L4.21174 26.6172ZM14.0038 18.1991C18.4598 16.1368 23.2113 15.1028 28.281 15.1028V11.1028C22.6476 11.1028 17.321 12.2562 12.3238 14.569L14.0038 18.1991ZM28.281 15.1028C33.3332 15.1028 37.427 16.284 40.6805 18.5284L42.9518 15.2358C38.9007 12.4411 33.971 11.1028 28.281 11.1028V15.1028ZM40.6811 18.5288C44.1609 20.9275 45.8513 24.1486 45.8513 28.3958H49.8513C49.8513 22.8382 47.5183 18.3836 42.9513 15.2354L40.6811 18.5288ZM45.8513 28.3958C45.8513 31.6648 44.475 34.8145 41.4232 37.8841L44.2599 40.7043C47.8878 37.0551 49.8513 32.9392 49.8513 28.3958H45.8513ZM41.4195 37.8879C39.7462 39.5799 38.0453 41.0645 36.3178 42.3462L38.7012 45.5586C40.6065 44.145 42.4603 42.5241 44.2636 40.7005L41.4195 37.8879ZM36.3291 42.3379C34.5077 43.6697 33.0766 44.7354 32.0421 45.5312L34.4809 48.7017C35.4776 47.935 36.8785 46.8914 38.69 45.5669L36.3291 42.3379ZM33.2615 49.1165H48.1443V45.1165H33.2615V49.1165ZM46.1443 47.1165V61.1497H50.1443V47.1165H46.1443ZM48.1443 59.1497H6.07397V63.1497H48.1443V59.1497ZM8.07397 61.1497V52.6829H4.07397L4.07397 61.1497H8.07397ZM58.4509 41.052L56.8039 39.9173L56.4509 40.4298V41.052H58.4509ZM76.8787 14.304V12.304H75.8278L75.2317 13.1693L76.8787 14.304ZM105.004 14.304H107.004V12.304H105.004V14.304ZM105.004 40.5833H103.004V42.5833H105.004V40.5833ZM109.164 40.5833H111.164V38.5833H109.164V40.5833ZM109.164 54.8508V56.8508H111.164V54.8508H109.164ZM105.004 54.8508V52.8508H103.004V54.8508H105.004ZM105.004 61.1497V63.1497H107.004V61.1497H105.004ZM85.2283 61.1497H83.2283V63.1497H85.2283V61.1497ZM85.2283 54.8508H87.2283V52.8508H85.2283V54.8508ZM58.4509 54.8508H56.4509V56.8508H58.4509V54.8508ZM76.7029 41.052L75.0202 39.9711L73.041 43.052H76.7029V41.052ZM85.2283 41.052V43.052H87.2283V41.052H85.2283ZM85.2283 27.7805H87.2283V20.9667L83.5456 26.6996L85.2283 27.7805ZM60.0979 42.1867L78.5256 15.4386L75.2317 13.1693L56.8039 39.9173L60.0979 42.1867ZM76.8787 16.304L105.004 16.304V12.304L76.8787 12.304V16.304ZM103.004 14.304V40.5833H107.004V14.304L103.004 14.304ZM105.004 42.5833H109.164V38.5833H105.004V42.5833ZM107.164 40.5833V54.8508H111.164V40.5833H107.164ZM109.164 52.8508H105.004V56.8508H109.164V52.8508ZM103.004 54.8508V61.1497H107.004V54.8508H103.004ZM105.004 59.1497H85.2283V63.1497H105.004V59.1497ZM87.2283 61.1497V54.8508H83.2283V61.1497H87.2283ZM85.2283 52.8508L58.4509 52.8508V56.8508L85.2283 56.8508V52.8508ZM60.4509 54.8508V41.052H56.4509V54.8508H60.4509ZM76.7029 43.052H85.2283V39.052H76.7029V43.052ZM87.2283 41.052V27.7805H83.2283V41.052H87.2283ZM83.5456 26.6996L75.0202 39.9711L78.3856 42.133L86.911 28.8615L83.5456 26.6996Z"
        fill="black" mask="url(#path-5-outside-3_143_37)" />
</svg>