<svg width="317" height="66" viewBox="0 0 317 66" fill="none" xmlns="http://www.w3.org/2000/svg">
    <mask id="path-1-outside-1_143_36" maskUnits="userSpaceOnUse" x="8.13257" y="0.323059" width="301" height="55"
        fill="black">
        <rect fill="white" x="8.13257" y="0.323059" width="301" height="55" />
        <path
            d="M12.0994 51.3231L35.3611 6.909C36.1619 5.32697 37.6365 4.27228 39.7849 3.74493C40.4099 3.58868 41.1814 3.51056 42.0994 3.51056C43.0173 3.51056 44.0134 3.77423 45.0876 4.30157C46.1814 4.80939 47.0408 5.61993 47.6658 6.73322L72.6267 51.3231H48.8669L47.0212 46.6942H34.365L32.783 51.3231H12.0994ZM35.8005 37.407H45.2634L40.781 24.7508L35.8005 37.407ZM83.0798 4.53595C93.6853 4.04767 101.302 3.80353 105.931 3.80353C114.545 3.80353 120.726 4.78009 124.476 6.73322C127.836 8.49103 129.515 11.157 129.515 14.7313C129.515 16.8797 128.949 18.6863 127.816 20.1512C126.703 21.5965 124.994 22.8465 122.689 23.9012C125.58 24.8777 127.806 26.2645 129.369 28.0613C131.42 30.4246 132.445 33.6668 132.445 37.7879C132.445 46.6746 125.57 51.3719 111.82 51.8797C109.847 51.9578 108.314 51.9969 107.22 51.9969C106.127 51.9969 105.179 51.9871 104.379 51.9676C103.578 51.9481 102.66 51.9188 101.625 51.8797C100.609 51.8602 99.4958 51.8309 98.2849 51.7918C97.0935 51.7723 95.8826 51.7332 94.6521 51.6746C93.4216 51.6356 92.2107 51.5965 91.0193 51.5574C89.8279 51.5184 88.7146 51.4695 87.6794 51.4109C86.6443 51.3719 85.7263 51.3426 84.9255 51.3231C84.1248 51.284 83.5095 51.2449 83.0798 51.2059V4.53595ZM112.963 33.1297C112.963 31.4891 111.996 30.6688 110.062 30.6688C108.597 30.6492 106.322 31.4988 103.236 33.2176C102.513 33.6082 101.898 33.9402 101.39 34.2137V41.5965C101.664 41.4988 101.918 41.4012 102.152 41.3035C102.406 41.2059 102.972 40.991 103.851 40.659C106.976 39.4871 109.105 38.5203 110.238 37.7586C112.074 36.5281 112.982 34.9852 112.963 33.1297ZM101.39 25.952C104.711 24.6629 106.918 23.6375 108.011 22.8758C110.277 21.3524 111.41 19.7117 111.41 17.9539C111.41 16.7234 110.765 15.9324 109.476 15.5809C109.125 15.4832 108.754 15.4344 108.363 15.4344C107.972 15.4344 107.513 15.5027 106.986 15.6395C106.478 15.7762 105.97 15.952 105.463 16.1668C104.681 16.4598 103.812 16.8895 102.855 17.4559C101.918 18.0027 101.429 18.2957 101.39 18.3348V25.952ZM177.146 22.3192C177.146 19.0184 175.564 17.368 172.4 17.368C171.033 17.368 169.51 18.2274 167.83 19.9461C165.31 22.5438 163.552 25.6395 162.556 29.2332C162.244 30.366 162.088 31.4109 162.088 32.368C162.088 35.6102 163.728 37.2313 167.01 37.2313C168.318 37.2508 169.812 36.3817 171.492 34.6238C173.933 32.0457 175.662 28.9207 176.677 25.2488C176.99 24.116 177.146 23.1395 177.146 22.3192ZM169.148 52.4656C162.215 52.4656 156.199 50.2195 151.101 45.7274C149.48 44.3016 148.074 42.6707 146.883 40.8348C144.344 36.9481 143.074 32.6024 143.074 27.7977C143.074 22.9734 144.246 18.7059 146.59 14.9949C148.933 11.284 152.078 8.39337 156.023 6.32306C159.969 4.25275 164.051 3.21759 168.269 3.21759C172.508 3.21759 176.238 3.784 179.461 4.91681C182.683 6.04962 185.486 7.68048 187.869 9.80939C190.271 11.9188 192.156 14.5067 193.523 17.5731C194.89 20.6395 195.574 24.1063 195.574 27.9734C195.574 32.7781 194.353 37.0555 191.912 40.8055C189.47 44.5359 186.219 47.4168 182.156 49.4481C178.094 51.4598 173.758 52.4656 169.148 52.4656ZM230.197 52.4656C214.67 52.4656 206.906 45.8641 206.906 32.6609V4.53595L225.392 4.53595V32.1336C225.392 34.907 226.32 36.7137 228.176 37.5535C228.82 37.8465 229.592 37.993 230.49 37.993C233.029 37.993 234.631 36.782 235.295 34.3602C235.49 33.6375 235.588 32.8563 235.588 32.0164V4.53595L251.789 4.53595V32.6609C251.789 45.8641 244.592 52.4656 230.197 52.4656ZM262.623 4.53595L306.92 4.53595V19.7117L293.883 19.7117V51.3231H275.66V19.7117H262.623V4.53595Z" />
    </mask>
    <path
        d="M12.0994 51.3231L35.3611 6.909C36.1619 5.32697 37.6365 4.27228 39.7849 3.74493C40.4099 3.58868 41.1814 3.51056 42.0994 3.51056C43.0173 3.51056 44.0134 3.77423 45.0876 4.30157C46.1814 4.80939 47.0408 5.61993 47.6658 6.73322L72.6267 51.3231H48.8669L47.0212 46.6942H34.365L32.783 51.3231H12.0994ZM35.8005 37.407H45.2634L40.781 24.7508L35.8005 37.407ZM83.0798 4.53595C93.6853 4.04767 101.302 3.80353 105.931 3.80353C114.545 3.80353 120.726 4.78009 124.476 6.73322C127.836 8.49103 129.515 11.157 129.515 14.7313C129.515 16.8797 128.949 18.6863 127.816 20.1512C126.703 21.5965 124.994 22.8465 122.689 23.9012C125.58 24.8777 127.806 26.2645 129.369 28.0613C131.42 30.4246 132.445 33.6668 132.445 37.7879C132.445 46.6746 125.57 51.3719 111.82 51.8797C109.847 51.9578 108.314 51.9969 107.22 51.9969C106.127 51.9969 105.179 51.9871 104.379 51.9676C103.578 51.9481 102.66 51.9188 101.625 51.8797C100.609 51.8602 99.4958 51.8309 98.2849 51.7918C97.0935 51.7723 95.8826 51.7332 94.6521 51.6746C93.4216 51.6356 92.2107 51.5965 91.0193 51.5574C89.8279 51.5184 88.7146 51.4695 87.6794 51.4109C86.6443 51.3719 85.7263 51.3426 84.9255 51.3231C84.1248 51.284 83.5095 51.2449 83.0798 51.2059V4.53595ZM112.963 33.1297C112.963 31.4891 111.996 30.6688 110.062 30.6688C108.597 30.6492 106.322 31.4988 103.236 33.2176C102.513 33.6082 101.898 33.9402 101.39 34.2137V41.5965C101.664 41.4988 101.918 41.4012 102.152 41.3035C102.406 41.2059 102.972 40.991 103.851 40.659C106.976 39.4871 109.105 38.5203 110.238 37.7586C112.074 36.5281 112.982 34.9852 112.963 33.1297ZM101.39 25.952C104.711 24.6629 106.918 23.6375 108.011 22.8758C110.277 21.3524 111.41 19.7117 111.41 17.9539C111.41 16.7234 110.765 15.9324 109.476 15.5809C109.125 15.4832 108.754 15.4344 108.363 15.4344C107.972 15.4344 107.513 15.5027 106.986 15.6395C106.478 15.7762 105.97 15.952 105.463 16.1668C104.681 16.4598 103.812 16.8895 102.855 17.4559C101.918 18.0027 101.429 18.2957 101.39 18.3348V25.952ZM177.146 22.3192C177.146 19.0184 175.564 17.368 172.4 17.368C171.033 17.368 169.51 18.2274 167.83 19.9461C165.31 22.5438 163.552 25.6395 162.556 29.2332C162.244 30.366 162.088 31.4109 162.088 32.368C162.088 35.6102 163.728 37.2313 167.01 37.2313C168.318 37.2508 169.812 36.3817 171.492 34.6238C173.933 32.0457 175.662 28.9207 176.677 25.2488C176.99 24.116 177.146 23.1395 177.146 22.3192ZM169.148 52.4656C162.215 52.4656 156.199 50.2195 151.101 45.7274C149.48 44.3016 148.074 42.6707 146.883 40.8348C144.344 36.9481 143.074 32.6024 143.074 27.7977C143.074 22.9734 144.246 18.7059 146.59 14.9949C148.933 11.284 152.078 8.39337 156.023 6.32306C159.969 4.25275 164.051 3.21759 168.269 3.21759C172.508 3.21759 176.238 3.784 179.461 4.91681C182.683 6.04962 185.486 7.68048 187.869 9.80939C190.271 11.9188 192.156 14.5067 193.523 17.5731C194.89 20.6395 195.574 24.1063 195.574 27.9734C195.574 32.7781 194.353 37.0555 191.912 40.8055C189.47 44.5359 186.219 47.4168 182.156 49.4481C178.094 51.4598 173.758 52.4656 169.148 52.4656ZM230.197 52.4656C214.67 52.4656 206.906 45.8641 206.906 32.6609V4.53595L225.392 4.53595V32.1336C225.392 34.907 226.32 36.7137 228.176 37.5535C228.82 37.8465 229.592 37.993 230.49 37.993C233.029 37.993 234.631 36.782 235.295 34.3602C235.49 33.6375 235.588 32.8563 235.588 32.0164V4.53595L251.789 4.53595V32.6609C251.789 45.8641 244.592 52.4656 230.197 52.4656ZM262.623 4.53595L306.92 4.53595V19.7117L293.883 19.7117V51.3231H275.66V19.7117H262.623V4.53595Z"
        fill="#C14500" />
    <path
        d="M12.0994 51.3231L10.3277 50.3951L8.79416 53.3231H12.0994V51.3231ZM35.3611 6.909L37.1328 7.83692L37.1392 7.82462L37.1455 7.81222L35.3611 6.909ZM39.7849 3.74493L40.2617 5.6873L40.27 5.68522L39.7849 3.74493ZM45.0876 4.30157L44.2063 6.09691L44.2258 6.10646L44.2454 6.11559L45.0876 4.30157ZM47.6658 6.73322L49.4109 5.75629L49.4097 5.75415L47.6658 6.73322ZM72.6267 51.3231V53.3231L76.0383 53.3231L74.3719 50.3461L72.6267 51.3231ZM48.8669 51.3231L47.0092 52.0638L47.5113 53.3231H48.8669V51.3231ZM47.0212 46.6942L48.879 45.9534L48.3769 44.6942H47.0212V46.6942ZM34.365 46.6942V44.6942H32.935L32.4725 46.0473L34.365 46.6942ZM32.783 51.3231V53.3231H34.213L34.6755 51.9699L32.783 51.3231ZM35.8005 37.407L33.9395 36.6747L32.8642 39.407H35.8005V37.407ZM45.2634 37.407V39.407H48.0935L47.1487 36.7393L45.2634 37.407ZM40.781 24.7508L42.6663 24.0831L40.8796 19.0385L38.9199 24.0184L40.781 24.7508ZM13.8711 52.251L37.1328 7.83692L33.5894 5.98107L10.3277 50.3951L13.8711 52.251ZM37.1455 7.81222C37.6195 6.87582 38.5278 6.11287 40.2617 5.68728L39.3082 1.80259C36.7452 2.43168 34.7042 3.77811 33.5767 6.00577L37.1455 7.81222ZM40.27 5.68522C40.6851 5.58145 41.2819 5.51056 42.0994 5.51056V1.51056C41.0809 1.51056 40.1348 1.59592 39.2998 1.80465L40.27 5.68522ZM42.0994 5.51056C42.6335 5.51056 43.3262 5.66488 44.2063 6.09691L45.969 2.50624C44.7006 1.88358 43.4011 1.51056 42.0994 1.51056V5.51056ZM44.2454 6.11559C44.9353 6.43591 45.4895 6.94223 45.9218 7.71229L49.4097 5.75415C48.592 4.29764 47.4275 3.18287 45.9299 2.48756L44.2454 6.11559ZM45.9206 7.71014L70.8815 52.3L74.3719 50.3461L49.4109 5.75629L45.9206 7.71014ZM72.6267 49.3231H48.8669V53.3231H72.6267V49.3231ZM50.7247 50.5823L48.879 45.9534L45.1635 47.4349L47.0092 52.0638L50.7247 50.5823ZM47.0212 44.6942H34.365V48.6942H47.0212V44.6942ZM32.4725 46.0473L30.8904 50.6762L34.6755 51.9699L36.2575 47.341L32.4725 46.0473ZM32.783 49.3231H12.0994V53.3231H32.783V49.3231ZM35.8005 39.407H45.2634V35.407H35.8005V39.407ZM47.1487 36.7393L42.6663 24.0831L38.8958 25.4185L43.3782 38.0747L47.1487 36.7393ZM38.9199 24.0184L33.9395 36.6747L37.6616 38.1394L42.6421 25.4832L38.9199 24.0184ZM83.0798 4.53595L82.9879 2.53807L81.0798 2.62591V4.53595H83.0798ZM124.476 6.73322L125.404 4.96115L125.4 4.95939L124.476 6.73322ZM127.816 20.1512L126.234 18.9277L126.232 18.9307L127.816 20.1512ZM122.689 23.9012L121.857 22.0826L117.27 24.1815L122.049 25.796L122.689 23.9012ZM129.369 28.0613L130.879 26.7505L130.878 26.749L129.369 28.0613ZM111.82 51.8797L111.746 49.8811L111.741 49.8813L111.82 51.8797ZM101.625 51.8797L101.7 49.8811L101.682 49.8804L101.663 49.8801L101.625 51.8797ZM98.2849 51.7918L98.3494 49.7929L98.3335 49.7923L98.3177 49.7921L98.2849 51.7918ZM94.6521 51.6746L94.7472 49.6769L94.7314 49.6761L94.7156 49.6756L94.6521 51.6746ZM87.6794 51.4109L87.7925 49.4141L87.7737 49.4131L87.7549 49.4124L87.6794 51.4109ZM84.9255 51.3231L84.8281 53.3207L84.8524 53.3219L84.8768 53.3225L84.9255 51.3231ZM83.0798 51.2059H81.0798V53.0323L82.8988 53.1977L83.0798 51.2059ZM112.963 33.1297H110.963V33.1402L110.963 33.1508L112.963 33.1297ZM110.062 30.6688L110.036 32.6686L110.049 32.6688H110.062V30.6688ZM103.236 33.2176L104.187 34.977L104.198 34.971L104.209 34.9649L103.236 33.2176ZM101.39 34.2137L100.442 32.4527L99.3904 33.0191V34.2137H101.39ZM101.39 41.5965H99.3904V44.4345L102.063 43.48L101.39 41.5965ZM102.152 41.3035L101.434 39.4368L101.408 39.4468L101.383 39.4574L102.152 41.3035ZM103.851 40.659L103.149 38.7863L103.145 38.7881L103.851 40.659ZM110.238 37.7586L109.125 36.0972L109.122 36.0989L110.238 37.7586ZM101.39 25.952H99.3904V28.8739L102.114 27.8164L101.39 25.952ZM108.011 22.8758L106.895 21.2161L106.882 21.2252L106.868 21.2346L108.011 22.8758ZM109.476 15.5809L108.941 17.5079L108.95 17.5104L109.476 15.5809ZM106.986 15.6395L106.484 13.7035L106.475 13.7058L106.466 13.7082L106.986 15.6395ZM105.463 16.1668L106.165 18.0395L106.204 18.0249L106.242 18.0087L105.463 16.1668ZM102.855 17.4559L103.863 19.1835L103.874 19.177L102.855 17.4559ZM101.39 18.3348L99.9762 16.9206L99.3904 17.5064V18.3348H101.39ZM83.1718 6.53383C93.7755 6.04564 101.353 5.80353 105.931 5.80353V1.80353C101.252 1.80353 93.5952 2.0497 82.9879 2.53807L83.1718 6.53383ZM105.931 5.80353C114.491 5.80353 120.256 6.79015 123.552 8.50704L125.4 4.95939C121.197 2.77003 114.599 1.80353 105.931 1.80353V5.80353ZM123.549 8.50528C124.98 9.2538 125.947 10.1383 126.563 11.1172C127.176 12.0897 127.515 13.2694 127.515 14.7313H131.515C131.515 12.6189 131.015 10.6785 129.948 8.98497C128.885 7.29786 127.332 5.97044 125.404 4.96115L123.549 8.50528ZM127.515 14.7313C127.515 16.5109 127.054 17.8675 126.234 18.9277L129.398 21.3747C130.844 19.5052 131.515 17.2485 131.515 14.7313H127.515ZM126.232 18.9307C125.379 20.0379 123.975 21.1134 121.857 22.0826L123.521 25.7198C126.013 24.5796 128.027 23.1551 129.401 21.3716L126.232 18.9307ZM122.049 25.796C124.696 26.6903 126.587 27.91 127.86 29.3737L130.878 26.749C129.026 24.619 126.463 23.0652 123.329 22.0064L122.049 25.796ZM127.858 29.3722C129.505 31.2695 130.445 33.9932 130.445 37.7879H134.445C134.445 33.3404 133.335 29.5798 130.879 26.7505L127.858 29.3722ZM130.445 37.7879C130.445 41.6233 129.01 44.3773 126.161 46.3245C123.177 48.3629 118.465 49.6329 111.746 49.8811L111.894 53.8783C118.925 53.6187 124.525 52.2862 128.417 49.6273C132.442 46.8772 134.445 42.8393 134.445 37.7879H130.445ZM111.741 49.8813C109.777 49.959 108.275 49.9969 107.22 49.9969V53.9969C108.354 53.9969 109.918 53.9566 111.899 53.8781L111.741 49.8813ZM107.22 49.9969C106.138 49.9969 105.207 49.9872 104.427 49.9682L104.33 53.967C105.152 53.987 106.116 53.9969 107.22 53.9969V49.9969ZM104.427 49.9682C103.638 49.9489 102.729 49.9199 101.7 49.8811L101.549 53.8783C102.591 53.9176 103.518 53.9472 104.33 53.967L104.427 49.9682ZM101.663 49.8801C100.658 49.8607 99.5533 49.8317 98.3494 49.7929L98.2204 53.7908C99.4384 53.8301 100.561 53.8596 101.586 53.8793L101.663 49.8801ZM98.3177 49.7921C97.1478 49.7729 95.9576 49.7345 94.7472 49.6769L94.557 53.6724C95.8075 53.7319 97.0392 53.7717 98.2521 53.7915L98.3177 49.7921ZM94.7156 49.6756C93.4858 49.6366 92.2755 49.5975 91.0848 49.5585L90.9538 53.5564C92.1459 53.5954 93.3575 53.6345 94.5886 53.6736L94.7156 49.6756ZM91.0848 49.5585C89.907 49.5199 88.8097 49.4717 87.7925 49.4141L87.5664 53.4078C88.6195 53.4674 89.7488 53.5169 90.9538 53.5564L91.0848 49.5585ZM87.7549 49.4124C86.7132 49.3731 85.7861 49.3435 84.9743 49.3237L84.8768 53.3225C85.6665 53.3417 86.5753 53.3707 87.604 53.4095L87.7549 49.4124ZM85.023 49.3254C84.2308 49.2868 83.6486 49.2493 83.2609 49.2141L82.8988 53.1977C83.3705 53.2405 84.0187 53.2812 84.8281 53.3207L85.023 49.3254ZM85.0798 51.2059V4.53595L81.0798 4.53595V51.2059H85.0798ZM114.963 33.1297C114.963 31.9072 114.587 30.6545 113.532 29.759C112.539 28.9168 111.264 28.6688 110.062 28.6688V32.6688C110.794 32.6688 110.969 32.8309 110.944 32.809C110.923 32.7912 110.914 32.7705 110.92 32.7843C110.93 32.8103 110.963 32.9116 110.963 33.1297H114.963ZM110.089 28.6689C108.998 28.6544 107.795 28.9556 106.557 29.4177C105.294 29.8895 103.858 30.5819 102.263 31.4703L104.209 34.9649C105.7 34.1346 106.945 33.5427 107.957 33.165C108.995 32.7774 109.661 32.6636 110.036 32.6686L110.089 28.6689ZM102.285 31.4582C101.563 31.8485 100.949 32.18 100.442 32.4527L102.339 35.9746C102.848 35.7005 103.464 35.3679 104.187 34.977L102.285 31.4582ZM99.3904 34.2137V41.5965H103.39V34.2137H99.3904ZM102.063 43.48C102.364 43.3723 102.651 43.2623 102.921 43.1497L101.383 39.4574C101.184 39.54 100.963 39.6254 100.718 39.713L102.063 43.48ZM102.87 43.1702C103.117 43.0751 103.678 42.8625 104.558 42.5299L103.145 38.7881C102.267 39.1195 101.695 39.3366 101.434 39.4368L102.87 43.1702ZM104.554 42.5317C107.675 41.3611 110.006 40.325 111.354 39.4183L109.122 36.0989C108.205 36.7157 106.278 37.6132 103.149 38.7863L104.554 42.5317ZM111.352 39.42C113.624 37.8969 114.991 35.775 114.963 33.1086L110.963 33.1508C110.974 34.1954 110.524 35.1593 109.125 36.0972L111.352 39.42ZM102.114 27.8164C105.416 26.5347 107.838 25.434 109.154 24.517L106.868 21.2346C105.998 21.8411 104.006 22.7911 100.667 24.0875L102.114 27.8164ZM109.127 24.5355C111.627 22.8546 113.41 20.6866 113.41 17.9539H109.41C109.41 18.7369 108.927 19.8501 106.895 21.2161L109.127 24.5355ZM113.41 17.9539C113.41 16.9767 113.147 15.9963 112.477 15.1745C111.82 14.3685 110.926 13.9031 110.003 13.6513L108.95 17.5104C109.132 17.5599 109.243 17.6121 109.305 17.6488C109.335 17.6668 109.354 17.6808 109.363 17.6891C109.368 17.6933 109.371 17.6963 109.373 17.6982C109.375 17.7 109.376 17.701 109.376 17.7012C109.376 17.7013 109.376 17.7011 109.376 17.7007C109.375 17.7003 109.375 17.7002 109.376 17.7007C109.376 17.7012 109.379 17.7071 109.384 17.721C109.392 17.7488 109.41 17.8203 109.41 17.9539H113.41ZM110.012 13.6538C109.474 13.5045 108.922 13.4344 108.363 13.4344V17.4344C108.585 17.4344 108.776 17.462 108.941 17.5079L110.012 13.6538ZM108.363 13.4344C107.751 13.4344 107.116 13.5396 106.484 13.7035L107.488 17.5755C107.911 17.4659 108.194 17.4344 108.363 17.4344V13.4344ZM106.466 13.7082C105.866 13.8699 105.271 14.0761 104.683 14.3249L106.242 18.0087C106.669 17.8279 107.091 17.6825 107.506 17.5707L106.466 13.7082ZM104.76 14.2942C103.84 14.6392 102.863 15.127 101.837 15.7347L103.874 19.177C104.761 18.6519 105.523 18.2803 106.165 18.0395L104.76 14.2942ZM101.847 15.7283C101.377 16.0029 101.012 16.2178 100.757 16.3708C100.631 16.4464 100.522 16.5124 100.438 16.5654C100.398 16.5911 100.35 16.6214 100.304 16.6524C100.282 16.6675 100.248 16.691 100.21 16.7196C100.193 16.7318 100.089 16.808 99.9762 16.9206L102.805 19.749C102.697 19.8566 102.601 19.926 102.596 19.9294C102.57 19.9491 102.551 19.9618 102.548 19.9641C102.54 19.9694 102.544 19.9662 102.57 19.9503C102.617 19.9203 102.697 19.8716 102.815 19.8007C103.048 19.6607 103.396 19.4557 103.863 19.1834L101.847 15.7283ZM99.3904 18.3348V25.952H103.39V18.3348H99.3904ZM167.83 19.9461L166.399 18.5482L166.394 18.5536L167.83 19.9461ZM162.556 29.2332L160.629 28.699L160.628 28.7014L162.556 29.2332ZM167.01 37.2313L167.039 35.2315L167.024 35.2313H167.01V37.2313ZM171.492 34.6238L172.938 36.0056L172.944 35.999L171.492 34.6238ZM176.677 25.2488L178.605 25.782L178.605 25.7807L176.677 25.2488ZM151.101 45.7274L152.424 44.2268L152.422 44.2256L151.101 45.7274ZM146.883 40.8348L148.56 39.7461L148.557 39.741L146.883 40.8348ZM187.869 9.80939L186.536 11.3008L186.543 11.3066L186.549 11.3123L187.869 9.80939ZM191.912 40.8055L193.585 41.9007L193.588 41.8967L191.912 40.8055ZM182.156 49.4481L183.044 51.2404L183.05 51.2369L182.156 49.4481ZM179.146 22.3192C179.146 20.3811 178.683 18.5566 177.404 17.2218C176.109 15.8711 174.313 15.368 172.4 15.368V19.368C173.652 19.368 174.229 19.69 174.516 19.9898C174.818 20.3053 175.146 20.9564 175.146 22.3192H179.146ZM172.4 15.368C170.208 15.368 168.191 16.7148 166.399 18.5482L169.26 21.344C170.828 19.74 171.858 19.368 172.4 19.368V15.368ZM166.394 18.5536C163.634 21.3992 161.712 24.7928 160.629 28.699L164.484 29.7674C165.393 26.4862 166.986 23.6883 169.265 21.3386L166.394 18.5536ZM160.628 28.7014C160.279 29.9697 160.088 31.1959 160.088 32.368H164.088C164.088 31.626 164.209 30.7624 164.484 29.7651L160.628 28.7014ZM160.088 32.368C160.088 34.3035 160.58 36.1211 161.912 37.4381C163.241 38.7507 165.067 39.2313 167.01 39.2313V35.2313C165.671 35.2313 165.036 34.9012 164.724 34.5928C164.416 34.2887 164.088 33.6747 164.088 32.368H160.088ZM166.98 39.231C169.166 39.2637 171.174 37.8517 172.938 36.0056L170.046 33.2421C168.451 34.9116 167.47 35.2379 167.039 35.2315L166.98 39.231ZM172.944 35.999C175.627 33.1661 177.509 29.7456 178.605 25.782L174.75 24.7157C173.815 28.0958 172.24 30.9253 170.04 33.2487L172.944 35.999ZM178.605 25.7807C178.947 24.5426 179.146 23.3782 179.146 22.3192H175.146C175.146 22.9007 175.033 23.6894 174.75 24.717L178.605 25.7807ZM169.148 50.4656C162.691 50.4656 157.148 48.39 152.424 44.2268L149.779 47.2279C155.25 52.0491 161.739 54.4656 169.148 54.4656V50.4656ZM152.422 44.2256C150.94 42.9222 149.654 41.4308 148.56 39.7461L145.205 41.9235C146.494 43.9107 148.02 45.681 149.78 47.2291L152.422 44.2256ZM148.557 39.741C146.238 36.1913 145.074 32.2282 145.074 27.7977H141.074C141.074 32.9765 142.449 37.7048 145.208 41.9286L148.557 39.741ZM145.074 27.7977C145.074 23.3127 146.158 19.4229 148.281 16.0629L144.899 13.9269C142.333 17.9888 141.074 22.6342 141.074 27.7977H145.074ZM148.281 16.0629C150.434 12.6539 153.314 10.0036 156.953 8.09404L155.094 4.55208C150.842 6.78313 147.433 9.91414 144.899 13.9269L148.281 16.0629ZM156.953 8.09404C160.628 6.16545 164.393 5.21759 168.269 5.21759V1.21759C163.709 1.21759 159.309 2.34004 155.094 4.55208L156.953 8.09404ZM168.269 5.21759C172.334 5.21759 175.832 5.76129 178.797 6.80363L180.124 3.02999C176.644 1.8067 172.681 1.21759 168.269 1.21759V5.21759ZM178.797 6.80363C181.791 7.85575 184.362 9.35799 186.536 11.3008L189.201 8.31795C186.61 6.00297 183.576 4.24349 180.124 3.02999L178.797 6.80363ZM186.549 11.3123C188.724 13.2219 190.441 15.5709 191.697 18.3875L195.35 16.7586C193.871 13.4424 191.818 10.6157 189.188 8.30651L186.549 11.3123ZM191.697 18.3875C192.933 21.1615 193.574 24.3445 193.574 27.9734H197.574C197.574 23.868 196.847 20.1174 195.35 16.7586L191.697 18.3875ZM193.574 27.9734C193.574 32.4206 192.45 36.3131 190.236 39.7143L193.588 41.8967C196.256 37.7978 197.574 33.1357 197.574 27.9734H193.574ZM190.238 39.7103C187.995 43.1389 185.014 45.7831 181.262 47.6592L183.05 51.2369C187.423 49.0505 190.946 45.933 193.585 41.9007L190.238 39.7103ZM181.268 47.6558C177.487 49.5285 173.455 50.4656 169.148 50.4656V54.4656C174.06 54.4656 178.7 53.3911 183.044 51.2403L181.268 47.6558ZM206.906 4.53595V2.53595H204.906V4.53595H206.906ZM225.392 4.53595L227.392 4.53595V2.53595H225.392V4.53595ZM228.176 37.5535L229.003 35.7328L229 35.7315L228.176 37.5535ZM235.295 34.3602L237.223 34.889L237.225 34.882L235.295 34.3602ZM235.588 4.53595V2.53595H233.588V4.53595H235.588ZM251.789 4.53595H253.789V2.53595H251.789V4.53595ZM230.197 50.4656C222.67 50.4656 217.397 48.8586 214.024 45.9908C210.714 43.1759 208.906 38.8617 208.906 32.6609H204.906C204.906 39.6633 206.98 45.2515 211.433 49.0381C215.824 52.7719 222.197 54.4656 230.197 54.4656V50.4656ZM208.906 32.6609V4.53595H204.906V32.6609H208.906ZM206.906 6.53595L225.392 6.53595V2.53595L206.906 2.53595V6.53595ZM223.392 4.53595V32.1336H227.392V4.53595L223.392 4.53595ZM223.392 32.1336C223.392 35.3566 224.517 38.093 227.351 39.3756L229 35.7315C228.123 35.3343 227.392 34.4574 227.392 32.1336H223.392ZM227.348 39.3743C228.312 39.8126 229.38 39.993 230.49 39.993V35.993C229.803 35.993 229.328 35.8804 229.003 35.7328L227.348 39.3743ZM230.49 39.993C232.078 39.993 233.571 39.6107 234.802 38.6801C236.035 37.7478 236.805 36.4168 237.223 34.889L233.366 33.8313C233.121 34.7254 232.758 35.2108 232.389 35.4895C232.019 35.7698 231.441 35.993 230.49 35.993V39.993ZM237.225 34.882C237.472 33.97 237.588 33.0114 237.588 32.0164H233.588C233.588 32.7011 233.508 33.3051 233.364 33.8384L237.225 34.882ZM237.588 32.0164V4.53595H233.588V32.0164H237.588ZM235.588 6.53595L251.789 6.53595V2.53595L235.588 2.53595V6.53595ZM249.789 4.53595V32.6609H253.789V4.53595H249.789ZM249.789 32.6609C249.789 38.9076 248.094 43.2382 245.039 46.0406C241.951 48.8729 237.127 50.4656 230.197 50.4656V54.4656C237.662 54.4656 243.633 52.7576 247.743 48.9884C251.885 45.1892 253.789 39.6174 253.789 32.6609H249.789ZM262.623 4.53595V2.53595H260.623V4.53595H262.623ZM306.92 4.53595L308.92 4.53595V2.53595H306.92V4.53595ZM306.92 19.7117V21.7117H308.92V19.7117H306.92ZM293.883 19.7117V17.7117H291.883V19.7117H293.883ZM293.883 51.3231V53.3231H295.883V51.3231H293.883ZM275.66 51.3231H273.66V53.3231H275.66V51.3231ZM275.66 19.7117H277.66V17.7117H275.66V19.7117ZM262.623 19.7117H260.623V21.7117H262.623V19.7117ZM262.623 6.53595L306.92 6.53595V2.53595L262.623 2.53595V6.53595ZM304.92 4.53595V19.7117H308.92V4.53595L304.92 4.53595ZM306.92 17.7117L293.883 17.7117V21.7117L306.92 21.7117V17.7117ZM291.883 19.7117V51.3231H295.883V19.7117H291.883ZM293.883 49.3231H275.66V53.3231H293.883V49.3231ZM277.66 51.3231V19.7117H273.66V51.3231H277.66ZM275.66 17.7117H262.623V21.7117H275.66V17.7117ZM264.623 19.7117V4.53595H260.623V19.7117H264.623Z"
        fill="black" mask="url(#path-1-outside-1_143_36)" />
    <mask id="path-3-outside-2_143_36" maskUnits="userSpaceOnUse" x="3.05792" y="4.43683" width="301" height="55"
        fill="black">
        <rect fill="white" x="3.05792" y="4.43683" width="301" height="55" />
        <path
            d="M7.02472 55.4368L30.2864 11.0228C31.0872 9.44073 32.5618 8.38605 34.7103 7.8587C35.3353 7.70245 36.1068 7.62433 37.0247 7.62433C37.9427 7.62433 38.9388 7.888 40.013 8.41534C41.1068 8.92316 41.9661 9.7337 42.5911 10.847L67.5521 55.4368H43.7923L41.9466 50.8079H29.2903L27.7083 55.4368H7.02472ZM30.7259 41.5208H40.1888L35.7064 28.8646L30.7259 41.5208ZM78.0052 8.64972C88.6107 8.16144 96.2278 7.9173 100.857 7.9173C109.47 7.9173 115.652 8.89386 119.402 10.847C122.761 12.6048 124.441 15.2708 124.441 18.845C124.441 20.9935 123.874 22.8001 122.742 24.265C121.628 25.7103 119.919 26.9603 117.615 28.015C120.505 28.9915 122.732 30.3782 124.294 32.1751C126.345 34.5384 127.37 37.7806 127.37 41.9017C127.37 50.7884 120.495 55.4857 106.745 55.9935C104.773 56.0716 103.24 56.1107 102.146 56.1107C101.052 56.1107 100.105 56.1009 99.304 56.0814C98.5032 56.0618 97.5853 56.0325 96.5501 55.9935C95.5345 55.9739 94.4212 55.9446 93.2103 55.9056C92.0189 55.886 90.8079 55.847 89.5775 55.7884C88.347 55.7493 87.136 55.7103 85.9446 55.6712C84.7532 55.6321 83.64 55.5833 82.6048 55.5247C81.5696 55.4857 80.6517 55.4564 79.8509 55.4368C79.0501 55.3978 78.4349 55.3587 78.0052 55.3196V8.64972ZM107.888 37.2435C107.888 35.6028 106.921 34.7825 104.988 34.7825C103.523 34.763 101.247 35.6126 98.1614 37.3314C97.4388 37.722 96.8235 38.054 96.3157 38.3275V45.7103C96.5892 45.6126 96.8431 45.515 97.0775 45.4173C97.3314 45.3196 97.8978 45.1048 98.7767 44.7728C101.902 43.6009 104.031 42.6341 105.163 41.8724C106.999 40.6419 107.908 39.0989 107.888 37.2435ZM96.3157 30.0657C99.636 28.7767 101.843 27.7513 102.937 26.9896C105.202 25.4661 106.335 23.8255 106.335 22.0677C106.335 20.8372 105.691 20.0462 104.402 19.6946C104.05 19.597 103.679 19.5482 103.288 19.5482C102.898 19.5482 102.439 19.6165 101.911 19.7532C101.404 19.89 100.896 20.0657 100.388 20.2806C99.6068 20.5735 98.7376 21.0032 97.7806 21.5696C96.8431 22.1165 96.3548 22.4095 96.3157 22.4485V30.0657ZM172.072 26.4329C172.072 23.1321 170.49 21.4818 167.326 21.4818C165.958 21.4818 164.435 22.3411 162.755 24.0599C160.236 26.6575 158.478 29.7532 157.482 33.347C157.169 34.4798 157.013 35.5247 157.013 36.4818C157.013 39.7239 158.654 41.345 161.935 41.345C163.243 41.3646 164.738 40.4954 166.417 38.7376C168.859 36.1595 170.587 33.0345 171.603 29.3626C171.915 28.2298 172.072 27.2532 172.072 26.4329ZM164.074 56.5794C157.14 56.5794 151.124 54.3333 146.027 49.8411C144.406 48.4153 142.999 46.7845 141.808 44.9485C139.269 41.0618 137.999 36.7161 137.999 31.9114C137.999 27.0872 139.171 22.8196 141.515 19.1087C143.859 15.3978 147.003 12.5071 150.949 10.4368C154.894 8.36652 158.976 7.33136 163.195 7.33136C167.433 7.33136 171.163 7.89777 174.386 9.03058C177.609 10.1634 180.411 11.7943 182.794 13.9232C185.197 16.0325 187.081 18.6204 188.449 21.6868C189.816 24.7532 190.499 28.22 190.499 32.0872C190.499 36.8919 189.279 41.1693 186.837 44.9193C184.396 48.6497 181.144 51.5306 177.081 53.5618C173.019 55.5735 168.683 56.5794 164.074 56.5794ZM225.122 56.5794C209.595 56.5794 201.831 49.9778 201.831 36.7747V8.64972H220.318V36.2474C220.318 39.0208 221.245 40.8275 223.101 41.6673C223.745 41.9603 224.517 42.1068 225.415 42.1068C227.954 42.1068 229.556 40.8958 230.22 38.4739C230.415 37.7513 230.513 36.97 230.513 36.1302V8.64972L246.714 8.64972V36.7747C246.714 49.9778 239.517 56.5794 225.122 56.5794ZM257.548 8.64972L301.845 8.64972V23.8255L288.808 23.8255V55.4368H270.585V23.8255H257.548V8.64972Z" />
    </mask>
    <path
        d="M7.02472 55.4368L30.2864 11.0228C31.0872 9.44073 32.5618 8.38605 34.7103 7.8587C35.3353 7.70245 36.1068 7.62433 37.0247 7.62433C37.9427 7.62433 38.9388 7.888 40.013 8.41534C41.1068 8.92316 41.9661 9.7337 42.5911 10.847L67.5521 55.4368H43.7923L41.9466 50.8079H29.2903L27.7083 55.4368H7.02472ZM30.7259 41.5208H40.1888L35.7064 28.8646L30.7259 41.5208ZM78.0052 8.64972C88.6107 8.16144 96.2278 7.9173 100.857 7.9173C109.47 7.9173 115.652 8.89386 119.402 10.847C122.761 12.6048 124.441 15.2708 124.441 18.845C124.441 20.9935 123.874 22.8001 122.742 24.265C121.628 25.7103 119.919 26.9603 117.615 28.015C120.505 28.9915 122.732 30.3782 124.294 32.1751C126.345 34.5384 127.37 37.7806 127.37 41.9017C127.37 50.7884 120.495 55.4857 106.745 55.9935C104.773 56.0716 103.24 56.1107 102.146 56.1107C101.052 56.1107 100.105 56.1009 99.304 56.0814C98.5032 56.0618 97.5853 56.0325 96.5501 55.9935C95.5345 55.9739 94.4212 55.9446 93.2103 55.9056C92.0189 55.886 90.8079 55.847 89.5775 55.7884C88.347 55.7493 87.136 55.7103 85.9446 55.6712C84.7532 55.6321 83.64 55.5833 82.6048 55.5247C81.5696 55.4857 80.6517 55.4564 79.8509 55.4368C79.0501 55.3978 78.4349 55.3587 78.0052 55.3196V8.64972ZM107.888 37.2435C107.888 35.6028 106.921 34.7825 104.988 34.7825C103.523 34.763 101.247 35.6126 98.1614 37.3314C97.4388 37.722 96.8235 38.054 96.3157 38.3275V45.7103C96.5892 45.6126 96.8431 45.515 97.0775 45.4173C97.3314 45.3196 97.8978 45.1048 98.7767 44.7728C101.902 43.6009 104.031 42.6341 105.163 41.8724C106.999 40.6419 107.908 39.0989 107.888 37.2435ZM96.3157 30.0657C99.636 28.7767 101.843 27.7513 102.937 26.9896C105.202 25.4661 106.335 23.8255 106.335 22.0677C106.335 20.8372 105.691 20.0462 104.402 19.6946C104.05 19.597 103.679 19.5482 103.288 19.5482C102.898 19.5482 102.439 19.6165 101.911 19.7532C101.404 19.89 100.896 20.0657 100.388 20.2806C99.6068 20.5735 98.7376 21.0032 97.7806 21.5696C96.8431 22.1165 96.3548 22.4095 96.3157 22.4485V30.0657ZM172.072 26.4329C172.072 23.1321 170.49 21.4818 167.326 21.4818C165.958 21.4818 164.435 22.3411 162.755 24.0599C160.236 26.6575 158.478 29.7532 157.482 33.347C157.169 34.4798 157.013 35.5247 157.013 36.4818C157.013 39.7239 158.654 41.345 161.935 41.345C163.243 41.3646 164.738 40.4954 166.417 38.7376C168.859 36.1595 170.587 33.0345 171.603 29.3626C171.915 28.2298 172.072 27.2532 172.072 26.4329ZM164.074 56.5794C157.14 56.5794 151.124 54.3333 146.027 49.8411C144.406 48.4153 142.999 46.7845 141.808 44.9485C139.269 41.0618 137.999 36.7161 137.999 31.9114C137.999 27.0872 139.171 22.8196 141.515 19.1087C143.859 15.3978 147.003 12.5071 150.949 10.4368C154.894 8.36652 158.976 7.33136 163.195 7.33136C167.433 7.33136 171.163 7.89777 174.386 9.03058C177.609 10.1634 180.411 11.7943 182.794 13.9232C185.197 16.0325 187.081 18.6204 188.449 21.6868C189.816 24.7532 190.499 28.22 190.499 32.0872C190.499 36.8919 189.279 41.1693 186.837 44.9193C184.396 48.6497 181.144 51.5306 177.081 53.5618C173.019 55.5735 168.683 56.5794 164.074 56.5794ZM225.122 56.5794C209.595 56.5794 201.831 49.9778 201.831 36.7747V8.64972H220.318V36.2474C220.318 39.0208 221.245 40.8275 223.101 41.6673C223.745 41.9603 224.517 42.1068 225.415 42.1068C227.954 42.1068 229.556 40.8958 230.22 38.4739C230.415 37.7513 230.513 36.97 230.513 36.1302V8.64972L246.714 8.64972V36.7747C246.714 49.9778 239.517 56.5794 225.122 56.5794ZM257.548 8.64972L301.845 8.64972V23.8255L288.808 23.8255V55.4368H270.585V23.8255H257.548V8.64972Z"
        fill="#58CDC5" />
    <path
        d="M7.02472 55.4368L5.25301 54.5089L3.71952 57.4368H7.02472V55.4368ZM30.2864 11.0228L32.0581 11.9507L32.0646 11.9384L32.0709 11.926L30.2864 11.0228ZM34.7103 7.8587L35.187 9.80107L35.1953 9.79899L34.7103 7.8587ZM40.013 8.41534L39.1317 10.2107L39.1511 10.2202L39.1708 10.2294L40.013 8.41534ZM42.5911 10.847L44.3363 9.87006L44.3351 9.86792L42.5911 10.847ZM67.5521 55.4368V57.4368L70.9637 57.4368L69.2972 54.4599L67.5521 55.4368ZM43.7923 55.4368L41.9345 56.1776L42.4366 57.4368H43.7923V55.4368ZM41.9466 50.8079L43.8044 50.0672L43.3023 48.8079H41.9466V50.8079ZM29.2903 50.8079V48.8079H27.8603L27.3978 50.1611L29.2903 50.8079ZM27.7083 55.4368V57.4368H29.1384L29.6008 56.0836L27.7083 55.4368ZM30.7259 41.5208L28.8648 40.7884L27.7896 43.5208H30.7259V41.5208ZM40.1888 41.5208V43.5208H43.0188L42.074 40.8531L40.1888 41.5208ZM35.7064 28.8646L37.5916 28.1969L35.805 23.1522L33.8453 28.1322L35.7064 28.8646ZM8.79643 56.3648L32.0581 11.9507L28.5147 10.0948L5.25301 54.5089L8.79643 56.3648ZM32.0709 11.926C32.5448 10.9896 33.4531 10.2266 35.187 9.80105L34.2335 5.91636C31.6705 6.54545 29.6296 7.89188 28.502 10.1195L32.0709 11.926ZM35.1953 9.79899C35.6104 9.69522 36.2073 9.62433 37.0247 9.62433V5.62433C36.0062 5.62433 35.0601 5.70969 34.2252 5.91842L35.1953 9.79899ZM37.0247 9.62433C37.5589 9.62433 38.2516 9.77865 39.1317 10.2107L40.8943 6.62001C39.626 5.99735 38.3265 5.62433 37.0247 5.62433V9.62433ZM39.1708 10.2294C39.8607 10.5497 40.4148 11.056 40.8472 11.8261L44.3351 9.86792C43.5174 8.41141 42.3528 7.29663 40.8552 6.60133L39.1708 10.2294ZM40.846 11.8239L65.8069 56.4138L69.2972 54.4599L44.3363 9.87006L40.846 11.8239ZM67.5521 53.4368H43.7923V57.4368H67.5521V53.4368ZM45.6501 54.6961L43.8044 50.0672L40.0888 51.5487L41.9345 56.1776L45.6501 54.6961ZM41.9466 48.8079H29.2903V52.8079H41.9466V48.8079ZM27.3978 50.1611L25.8158 54.79L29.6008 56.0836L31.1829 51.4547L27.3978 50.1611ZM27.7083 53.4368H7.02472V57.4368H27.7083V53.4368ZM30.7259 43.5208H40.1888V39.5208H30.7259V43.5208ZM42.074 40.8531L37.5916 28.1969L33.8211 29.5323L38.3035 42.1885L42.074 40.8531ZM33.8453 28.1322L28.8648 40.7884L32.587 42.2532L37.5674 29.5969L33.8453 28.1322ZM78.0052 8.64972L77.9132 6.65184L76.0052 6.73968V8.64972H78.0052ZM119.402 10.847L120.329 9.07492L120.326 9.07316L119.402 10.847ZM122.742 24.265L121.159 23.0415L121.157 23.0445L122.742 24.265ZM117.615 28.015L116.782 26.1963L112.196 28.2953L116.974 29.9097L117.615 28.015ZM124.294 32.1751L125.805 30.8643L125.803 30.8628L124.294 32.1751ZM106.745 55.9935L106.672 53.9948L106.666 53.995L106.745 55.9935ZM96.5501 55.9935L96.6255 53.9949L96.607 53.9942L96.5886 53.9938L96.5501 55.9935ZM93.2103 55.9056L93.2747 53.9066L93.2589 53.9061L93.243 53.9058L93.2103 55.9056ZM89.5775 55.7884L89.6726 53.7907L89.6568 53.7899L89.6409 53.7894L89.5775 55.7884ZM82.6048 55.5247L82.7178 53.5279L82.699 53.5269L82.6802 53.5261L82.6048 55.5247ZM79.8509 55.4368L79.7534 57.4345L79.7778 57.4356L79.8021 57.4362L79.8509 55.4368ZM78.0052 55.3196H76.0052V57.1461L77.8241 57.3114L78.0052 55.3196ZM107.888 37.2435H105.888V37.254L105.888 37.2645L107.888 37.2435ZM104.988 34.7825L104.961 36.7824L104.974 36.7825H104.988V34.7825ZM98.1614 37.3314L99.1125 39.0908L99.1236 39.0848L99.1346 39.0786L98.1614 37.3314ZM96.3157 38.3275L95.3675 36.5665L94.3157 37.1329V38.3275H96.3157ZM96.3157 45.7103H94.3157V48.5483L96.9884 47.5937L96.3157 45.7103ZM97.0775 45.4173L96.3595 43.5506L96.3337 43.5605L96.3082 43.5711L97.0775 45.4173ZM98.7767 44.7728L98.0744 42.9001L98.0699 42.9018L98.7767 44.7728ZM105.163 41.8724L104.05 40.211L104.047 40.2127L105.163 41.8724ZM96.3157 30.0657H94.3157V32.9876L97.0396 31.9302L96.3157 30.0657ZM102.937 26.9896L101.821 25.3299L101.807 25.339L101.794 25.3484L102.937 26.9896ZM104.402 19.6946L103.866 21.6217L103.875 21.6242L104.402 19.6946ZM101.911 19.7532L101.41 17.8172L101.4 17.8196L101.391 17.822L101.911 19.7532ZM100.388 20.2806L101.09 22.1532L101.129 22.1387L101.167 22.1225L100.388 20.2806ZM97.7806 21.5696L98.7883 23.2972L98.7992 23.2908L97.7806 21.5696ZM96.3157 22.4485L94.9015 21.0343L94.3157 21.6201V22.4485H96.3157ZM78.0972 10.6476C88.7008 10.1594 96.2779 9.9173 100.857 9.9173V5.9173C96.1778 5.9173 88.5205 6.16347 77.9132 6.65184L78.0972 10.6476ZM100.857 9.9173C109.416 9.9173 115.181 10.9039 118.478 12.6208L120.326 9.07316C116.122 6.8838 109.524 5.9173 100.857 5.9173V9.9173ZM118.474 12.6191C119.905 13.3676 120.872 14.2521 121.489 15.231C122.102 16.2034 122.441 17.3832 122.441 18.845H126.441C126.441 16.7326 125.94 14.7923 124.873 13.0987C123.81 11.4116 122.258 10.0842 120.329 9.07492L118.474 12.6191ZM122.441 18.845C122.441 20.6246 121.979 21.9813 121.159 23.0415L124.324 25.4884C125.769 23.6189 126.441 21.3623 126.441 18.845H122.441ZM121.157 23.0445C120.304 24.1517 118.9 25.2271 116.782 26.1963L118.447 29.8336C120.938 28.6934 122.952 27.2688 124.326 25.4854L121.157 23.0445ZM116.974 29.9097C119.622 30.8041 121.512 32.0237 122.785 33.4875L125.803 30.8628C123.951 28.7327 121.389 27.179 118.255 26.1202L116.974 29.9097ZM122.784 33.4859C124.43 35.3832 125.37 38.107 125.37 41.9017H129.37C129.37 37.4541 128.26 33.6935 125.805 30.8643L122.784 33.4859ZM125.37 41.9017C125.37 45.737 123.936 48.4911 121.086 50.4383C118.103 52.4766 113.39 53.7467 106.672 53.9948L106.819 57.9921C113.851 57.7324 119.451 56.4 123.342 53.741C127.368 50.9909 129.37 46.953 129.37 41.9017H125.37ZM106.666 53.995C104.703 54.0728 103.2 54.1107 102.146 54.1107V58.1107C103.279 58.1107 104.843 58.0704 106.825 57.9919L106.666 53.995ZM102.146 54.1107C101.063 54.1107 100.133 54.101 99.3528 54.082L99.2552 58.0808C100.077 58.1008 101.041 58.1107 102.146 58.1107V54.1107ZM99.3528 54.082C98.563 54.0627 97.6542 54.0337 96.6255 53.9949L96.4747 57.992C97.5163 58.0314 98.4435 58.061 99.2552 58.0808L99.3528 54.082ZM96.5886 53.9938C95.5831 53.9745 94.4786 53.9455 93.2747 53.9066L93.1458 57.9045C94.3638 57.9438 95.4859 57.9734 96.5117 57.9931L96.5886 53.9938ZM93.243 53.9058C92.0731 53.8867 90.883 53.8483 89.6726 53.7907L89.4823 57.7861C90.7329 57.8457 91.9646 57.8854 93.1775 57.9053L93.243 53.9058ZM89.6409 53.7894C88.4111 53.7504 87.2009 53.7113 86.0102 53.6723L85.8791 57.6701C87.0712 57.7092 88.2829 57.7483 89.514 57.7874L89.6409 53.7894ZM86.0102 53.6723C84.8323 53.6337 83.735 53.5855 82.7178 53.5279L82.4918 57.5215C83.5449 57.5811 84.6741 57.6306 85.8791 57.6701L86.0102 53.6723ZM82.6802 53.5261C81.6386 53.4868 80.7114 53.4572 79.8997 53.4374L79.8021 57.4362C80.5919 57.4555 81.5007 57.4845 82.5294 57.5233L82.6802 53.5261ZM79.9483 53.4392C79.1562 53.4006 78.5739 53.3631 78.1863 53.3279L77.8241 57.3114C78.2958 57.3543 78.944 57.395 79.7534 57.4345L79.9483 53.4392ZM80.0052 55.3196V8.64972H76.0052V55.3196H80.0052ZM109.888 37.2435C109.888 36.021 109.512 34.7683 108.457 33.8727C107.464 33.0306 106.19 32.7825 104.988 32.7825V36.7825C105.719 36.7825 105.895 36.9446 105.869 36.9228C105.848 36.905 105.84 36.8843 105.845 36.8981C105.855 36.9241 105.888 37.0254 105.888 37.2435H109.888ZM105.014 32.7827C103.924 32.7682 102.72 33.0694 101.483 33.5314C100.219 34.0033 98.7834 34.6957 97.1883 35.5841L99.1346 39.0786C100.625 38.2483 101.87 37.6565 102.882 37.2787C103.92 36.8912 104.587 36.7774 104.961 36.7824L105.014 32.7827ZM97.2104 35.5719C96.4883 35.9623 95.8741 36.2937 95.3675 36.5665L97.2639 40.0884C97.773 39.8143 98.3892 39.4817 99.1125 39.0908L97.2104 35.5719ZM94.3157 38.3275V45.7103H98.3157V38.3275H94.3157ZM96.9884 47.5937C97.2898 47.4861 97.5763 47.3761 97.8467 47.2635L96.3082 43.5711C96.1098 43.6538 95.8885 43.7391 95.6431 43.8268L96.9884 47.5937ZM97.7954 47.284C98.0426 47.1889 98.6031 46.9763 99.4835 46.6437L98.0699 42.9018C97.1925 43.2333 96.6201 43.4504 96.3595 43.5506L97.7954 47.284ZM99.4789 46.6454C102.6 45.4749 104.931 44.4387 106.279 43.5321L104.047 40.2127C103.13 40.8295 101.203 41.7269 98.0744 42.9001L99.4789 46.6454ZM106.277 43.5338C108.549 42.0107 109.916 39.8887 109.888 37.2224L105.888 37.2645C105.899 38.3091 105.449 39.2731 104.05 40.211L106.277 43.5338ZM97.0396 31.9302C100.341 30.6485 102.763 29.5477 104.08 28.6308L101.794 25.3484C100.923 25.9548 98.9312 26.9049 95.5919 28.2013L97.0396 31.9302ZM104.053 28.6492C106.553 26.9684 108.335 24.8004 108.335 22.0677H104.335C104.335 22.8506 103.852 23.9639 101.821 25.3299L104.053 28.6492ZM108.335 22.0677C108.335 21.0905 108.072 20.11 107.402 19.2882C106.746 18.4823 105.851 18.0169 104.928 17.7651L103.875 21.6242C104.057 21.6737 104.168 21.7259 104.23 21.7626C104.261 21.7806 104.279 21.7946 104.289 21.8028C104.294 21.807 104.297 21.8101 104.299 21.812C104.3 21.8138 104.301 21.8148 104.301 21.8149C104.302 21.8151 104.301 21.8149 104.301 21.8144C104.301 21.814 104.301 21.8139 104.301 21.8144C104.301 21.815 104.305 21.8209 104.309 21.8348C104.318 21.8625 104.335 21.934 104.335 22.0677H108.335ZM104.937 17.7676C104.399 17.6182 103.847 17.5482 103.288 17.5482V21.5482C103.511 21.5482 103.701 21.5757 103.866 21.6217L104.937 17.7676ZM103.288 17.5482C102.677 17.5482 102.042 17.6534 101.41 17.8172L102.413 21.6892C102.836 21.5797 103.119 21.5482 103.288 21.5482V17.5482ZM101.391 17.822C100.791 17.9836 100.197 18.1898 99.6087 18.4386L101.167 22.1225C101.595 21.9416 102.016 21.7963 102.431 21.6845L101.391 17.822ZM99.6858 18.4079C98.7656 18.753 97.7888 19.2408 96.7619 19.8485L98.7992 23.2908C99.6864 22.7657 100.448 22.3941 101.09 22.1532L99.6858 18.4079ZM96.7728 19.8421C96.3021 20.1167 95.9372 20.3316 95.6823 20.4845C95.5561 20.5602 95.4477 20.6262 95.3636 20.6792C95.3229 20.7048 95.2755 20.7351 95.2297 20.7662C95.2075 20.7813 95.1733 20.8047 95.1349 20.8333C95.1184 20.8456 95.014 20.9218 94.9015 21.0343L97.7299 23.8628C97.6223 23.9704 97.5263 24.0398 97.5217 24.0432C97.4952 24.0629 97.4765 24.0755 97.4731 24.0778C97.4652 24.0832 97.4697 24.08 97.4949 24.0641C97.5426 24.0341 97.6222 23.9853 97.7402 23.9145C97.9736 23.7745 98.3216 23.5695 98.7883 23.2972L96.7728 19.8421ZM94.3157 22.4485V30.0657H98.3157V22.4485H94.3157ZM162.755 24.0599L161.325 22.662L161.32 22.6674L162.755 24.0599ZM157.482 33.347L155.554 32.8128L155.554 32.8151L157.482 33.347ZM161.935 41.345L161.965 39.3453L161.95 39.345H161.935V41.345ZM166.417 38.7376L167.863 40.1193L167.869 40.1128L166.417 38.7376ZM171.603 29.3626L173.53 29.8958L173.531 29.8945L171.603 29.3626ZM146.027 49.8411L147.349 48.3406L147.348 48.3393L146.027 49.8411ZM141.808 44.9485L143.486 43.8598L143.482 43.8547L141.808 44.9485ZM182.794 13.9232L181.462 15.4146L181.468 15.4203L181.475 15.426L182.794 13.9232ZM186.837 44.9193L188.511 46.0145L188.513 46.0105L186.837 44.9193ZM177.081 53.5618L177.969 55.3541L177.976 55.3507L177.081 53.5618ZM174.072 26.4329C174.072 24.4949 173.608 22.6704 172.329 21.3355C171.034 19.9849 169.238 19.4818 167.326 19.4818V23.4818C168.577 23.4818 169.154 23.8038 169.441 24.1035C169.744 24.4191 170.072 25.0702 170.072 26.4329H174.072ZM167.326 19.4818C165.133 19.4818 163.117 20.8285 161.325 22.662L164.186 25.4577C165.753 23.8537 166.784 23.4818 167.326 23.4818V19.4818ZM161.32 22.6674C158.56 25.513 156.637 28.9065 155.554 32.8128L159.409 33.8812C160.319 30.5999 161.912 27.8021 164.191 25.4523L161.32 22.6674ZM155.554 32.8151C155.204 34.0834 155.013 35.3096 155.013 36.4818H159.013C159.013 35.7398 159.135 34.8762 159.41 33.8788L155.554 32.8151ZM155.013 36.4818C155.013 38.4172 155.505 40.2349 156.838 41.5519C158.166 42.8645 159.992 43.345 161.935 43.345V39.345C160.597 39.345 159.961 39.015 159.649 38.7066C159.341 38.4025 159.013 37.7885 159.013 36.4818H155.013ZM161.905 43.3448C164.092 43.3774 166.099 41.9655 167.863 40.1193L164.971 37.3559C163.376 39.0254 162.395 39.3517 161.965 39.3453L161.905 43.3448ZM167.869 40.1128C170.552 37.2799 172.434 33.8594 173.53 29.8958L169.675 28.8294C168.74 32.2096 167.165 35.039 164.965 37.3624L167.869 40.1128ZM173.531 29.8945C173.872 28.6564 174.072 27.492 174.072 26.4329H170.072C170.072 27.0145 169.958 27.8032 169.675 28.8308L173.531 29.8945ZM164.074 54.5794C157.616 54.5794 152.073 52.5037 147.349 48.3406L144.704 51.3416C150.175 56.1629 156.664 58.5794 164.074 58.5794V54.5794ZM147.348 48.3393C145.866 47.036 144.579 45.5445 143.486 43.8598L140.13 46.0373C141.42 48.0244 142.946 49.7947 144.706 51.3429L147.348 48.3393ZM143.482 43.8547C141.163 40.305 139.999 36.342 139.999 31.9114H135.999C135.999 37.0903 137.374 41.8186 140.134 46.0424L143.482 43.8547ZM139.999 31.9114C139.999 27.4264 141.084 23.5367 143.206 20.1767L139.824 18.0407C137.259 22.1026 135.999 26.748 135.999 31.9114H139.999ZM143.206 20.1767C145.359 16.7676 148.239 14.1174 151.878 12.2078L150.019 8.66585C145.768 10.8969 142.358 14.0279 139.824 18.0407L143.206 20.1767ZM151.878 12.2078C155.553 10.2792 159.318 9.33136 163.195 9.33136V5.33136C158.634 5.33136 154.235 6.45381 150.019 8.66585L151.878 12.2078ZM163.195 9.33136C167.259 9.33136 170.758 9.87506 173.723 10.9174L175.049 7.14375C171.569 5.92047 167.607 5.33136 163.195 5.33136V9.33136ZM173.723 10.9174C176.716 11.9695 179.287 13.4718 181.462 15.4146L184.127 12.4317C181.536 10.1167 178.502 8.35726 175.049 7.14375L173.723 10.9174ZM181.475 15.426C183.649 17.3356 185.366 19.6847 186.622 22.5013L190.275 20.8724C188.797 17.5562 186.744 14.7294 184.114 12.4203L181.475 15.426ZM186.622 22.5013C187.859 25.2753 188.499 28.4583 188.499 32.0872H192.499C192.499 27.9818 191.773 24.2312 190.275 20.8724L186.622 22.5013ZM188.499 32.0872C188.499 36.5344 187.375 40.4269 185.161 43.828L188.513 46.0105C191.182 41.9116 192.499 37.2495 192.499 32.0872H188.499ZM185.164 43.824C182.92 47.2527 179.939 49.8968 176.187 51.773L177.976 55.3507C182.349 53.1643 185.872 50.0468 188.511 46.0145L185.164 43.824ZM176.194 51.7695C172.412 53.6423 168.38 54.5794 164.074 54.5794V58.5794C168.985 58.5794 173.626 57.5048 177.969 55.3541L176.194 51.7695ZM201.831 8.64972V6.64972H199.831V8.64972H201.831ZM220.318 8.64972L222.318 8.64972V6.64972H220.318V8.64972ZM223.101 41.6673L223.928 39.8466L223.926 39.8453L223.101 41.6673ZM230.22 38.4739L232.149 39.0028L232.151 38.9958L230.22 38.4739ZM230.513 8.64972V6.64972H228.513V8.64972H230.513ZM246.714 8.64972H248.714V6.64972H246.714V8.64972ZM225.122 54.5794C217.595 54.5794 212.322 52.9724 208.95 50.1046C205.639 47.2896 203.831 42.9755 203.831 36.7747H199.831C199.831 43.7771 201.905 49.3653 206.359 53.1519C210.75 56.8857 217.123 58.5794 225.122 58.5794V54.5794ZM203.831 36.7747V8.64972H199.831V36.7747H203.831ZM201.831 10.6497H220.318V6.64972L201.831 6.64972V10.6497ZM218.318 8.64972V36.2474H222.318V8.64972L218.318 8.64972ZM218.318 36.2474C218.318 39.4704 219.443 42.2068 222.276 43.4893L223.926 39.8453C223.048 39.4481 222.318 38.5712 222.318 36.2474H218.318ZM222.273 43.488C223.238 43.9264 224.306 44.1068 225.415 44.1068V40.1068C224.728 40.1068 224.253 39.9941 223.928 39.8466L222.273 43.488ZM225.415 44.1068C227.004 44.1068 228.496 43.7245 229.727 42.7939C230.96 41.8616 231.73 40.5306 232.149 39.0028L228.291 37.9451C228.046 38.8392 227.683 39.3246 227.315 39.6032C226.944 39.8835 226.366 40.1068 225.415 40.1068V44.1068ZM232.151 38.9958C232.397 38.0837 232.513 37.1252 232.513 36.1302H228.513C228.513 36.8149 228.433 37.4188 228.289 37.9521L232.151 38.9958ZM232.513 36.1302V8.64972H228.513V36.1302H232.513ZM230.513 10.6497L246.714 10.6497V6.64972L230.513 6.64972V10.6497ZM244.714 8.64972V36.7747H248.714V8.64972H244.714ZM244.714 36.7747C244.714 43.0214 243.02 47.352 239.964 50.1543C236.876 52.9867 232.052 54.5794 225.122 54.5794V58.5794C232.587 58.5794 238.559 56.8713 242.668 53.1021C246.81 49.3029 248.714 43.7311 248.714 36.7747H244.714ZM257.548 8.64972V6.64972H255.548V8.64972H257.548ZM301.845 8.64972L303.845 8.64972V6.64972H301.845V8.64972ZM301.845 23.8255V25.8255H303.845V23.8255H301.845ZM288.808 23.8255V21.8255H286.808V23.8255H288.808ZM288.808 55.4368V57.4368H290.808V55.4368H288.808ZM270.585 55.4368H268.585V57.4368H270.585V55.4368ZM270.585 23.8255H272.585V21.8255H270.585V23.8255ZM257.548 23.8255H255.548V25.8255H257.548V23.8255ZM257.548 10.6497L301.845 10.6497V6.64972L257.548 6.64972V10.6497ZM299.845 8.64972V23.8255H303.845V8.64972L299.845 8.64972ZM301.845 21.8255L288.808 21.8255V25.8255L301.845 25.8255V21.8255ZM286.808 23.8255V55.4368H290.808V23.8255H286.808ZM288.808 53.4368H270.585V57.4368H288.808V53.4368ZM272.585 55.4368V23.8255H268.585V55.4368H272.585ZM270.585 21.8255H257.548V25.8255H270.585V21.8255ZM259.548 23.8255V8.64972H255.548V23.8255H259.548Z"
        fill="black" mask="url(#path-3-outside-2_143_36)" />
    <mask id="path-5-outside-3_143_36" maskUnits="userSpaceOnUse" x="-2.17133" y="9.5506" width="301" height="55"
        fill="black">
        <rect fill="white" x="-2.17133" y="9.5506" width="301" height="55" />
        <path
            d="M1.79547 60.5506L25.0572 16.1365C25.858 14.5545 27.3326 13.4998 29.481 12.9725C30.106 12.8162 30.8775 12.7381 31.7955 12.7381C32.7134 12.7381 33.7095 13.0018 34.7838 13.5291C35.8775 14.0369 36.7369 14.8475 37.3619 15.9608L62.3228 60.5506H38.563L36.7173 55.9217H24.0611L22.4791 60.5506H1.79547ZM25.4966 46.6346H34.9595L30.4771 33.9783L25.4966 46.6346ZM72.7759 13.7635C83.3814 13.2752 90.9986 13.0311 95.6275 13.0311C104.241 13.0311 110.422 14.0076 114.172 15.9608C117.532 17.7186 119.211 20.3846 119.211 23.9588C119.211 26.1072 118.645 27.9139 117.512 29.3787C116.399 30.824 114.69 32.074 112.385 33.1287C115.276 34.1053 117.503 35.492 119.065 37.2889C121.116 39.6522 122.141 42.8943 122.141 47.0154C122.141 55.9022 115.266 60.5994 101.516 61.1072C99.5435 61.1854 98.0103 61.2244 96.9166 61.2244C95.8228 61.2244 94.8755 61.2147 94.0748 61.1951C93.274 61.1756 92.356 61.1463 91.3209 61.1072C90.3052 61.0877 89.192 61.0584 87.981 61.0193C86.7896 60.9998 85.5787 60.9608 84.3482 60.9022C83.1177 60.8631 81.9068 60.824 80.7154 60.785C79.524 60.7459 78.4107 60.6971 77.3755 60.6385C76.3404 60.5994 75.4224 60.5701 74.6216 60.5506C73.8209 60.5115 73.2056 60.4725 72.7759 60.4334V13.7635ZM102.659 42.3572C102.659 40.7166 101.692 39.8963 99.7584 39.8963C98.2935 39.8768 96.0181 40.7264 92.9322 42.4451C92.2095 42.8358 91.5943 43.1678 91.0865 43.4412V50.824C91.3599 50.7264 91.6138 50.6287 91.8482 50.5311C92.1021 50.4334 92.6685 50.2186 93.5474 49.8865C96.6724 48.7147 98.8013 47.7479 99.9341 46.9861C101.77 45.7557 102.678 44.2127 102.659 42.3572ZM91.0865 35.1795C94.4068 33.8904 96.6138 32.8651 97.7076 32.1033C99.9732 30.5799 101.106 28.9393 101.106 27.1815C101.106 25.951 100.461 25.16 99.1724 24.8084C98.8209 24.7108 98.4498 24.6619 98.0591 24.6619C97.6685 24.6619 97.2095 24.7303 96.6822 24.867C96.1744 25.0037 95.6666 25.1795 95.1588 25.3943C94.3775 25.6873 93.5084 26.117 92.5513 26.6834C91.6138 27.2303 91.1255 27.5233 91.0865 27.5623V35.1795ZM166.842 31.5467C166.842 28.2459 165.26 26.5955 162.096 26.5955C160.729 26.5955 159.206 27.4549 157.526 29.1736C155.006 31.7713 153.249 34.867 152.253 38.4608C151.94 39.5936 151.784 40.6385 151.784 41.5955C151.784 44.8377 153.424 46.4588 156.706 46.4588C158.014 46.4783 159.508 45.6092 161.188 43.8514C163.629 41.2733 165.358 38.1483 166.374 34.4764C166.686 33.3436 166.842 32.367 166.842 31.5467ZM158.844 61.6932C151.911 61.6932 145.895 59.4471 140.797 54.9549C139.176 53.5291 137.77 51.8983 136.579 50.0623C134.04 46.1756 132.77 41.8299 132.77 37.0252C132.77 32.201 133.942 27.9334 136.286 24.2225C138.629 20.5115 141.774 17.6209 145.719 15.5506C149.665 13.4803 153.747 12.4451 157.965 12.4451C162.204 12.4451 165.934 13.0115 169.157 14.1443C172.379 15.2772 175.182 16.908 177.565 19.0369C179.967 21.1463 181.852 23.7342 183.219 26.8006C184.586 29.867 185.27 33.3338 185.27 37.201C185.27 42.0057 184.049 46.283 181.608 50.033C179.167 53.7635 175.915 56.6443 171.852 58.6756C167.79 60.6873 163.454 61.6932 158.844 61.6932ZM219.893 61.6932C204.366 61.6932 196.602 55.0916 196.602 41.8885V13.7635H215.088V41.3611C215.088 44.1346 216.016 45.9412 217.872 46.7811C218.516 47.074 219.288 47.2205 220.186 47.2205C222.725 47.2205 224.327 46.0096 224.991 43.5877C225.186 42.8651 225.284 42.0838 225.284 41.244V13.7635L241.485 13.7635V41.8885C241.485 55.0916 234.288 61.6932 219.893 61.6932ZM252.319 13.7635L296.616 13.7635V28.9393L283.579 28.9393V60.5506H265.356V28.9393H252.319V13.7635Z" />
    </mask>
    <path
        d="M1.79547 60.5506L25.0572 16.1365C25.858 14.5545 27.3326 13.4998 29.481 12.9725C30.106 12.8162 30.8775 12.7381 31.7955 12.7381C32.7134 12.7381 33.7095 13.0018 34.7838 13.5291C35.8775 14.0369 36.7369 14.8475 37.3619 15.9608L62.3228 60.5506H38.563L36.7173 55.9217H24.0611L22.4791 60.5506H1.79547ZM25.4966 46.6346H34.9595L30.4771 33.9783L25.4966 46.6346ZM72.7759 13.7635C83.3814 13.2752 90.9986 13.0311 95.6275 13.0311C104.241 13.0311 110.422 14.0076 114.172 15.9608C117.532 17.7186 119.211 20.3846 119.211 23.9588C119.211 26.1072 118.645 27.9139 117.512 29.3787C116.399 30.824 114.69 32.074 112.385 33.1287C115.276 34.1053 117.503 35.492 119.065 37.2889C121.116 39.6522 122.141 42.8943 122.141 47.0154C122.141 55.9022 115.266 60.5994 101.516 61.1072C99.5435 61.1854 98.0103 61.2244 96.9166 61.2244C95.8228 61.2244 94.8755 61.2147 94.0748 61.1951C93.274 61.1756 92.356 61.1463 91.3209 61.1072C90.3052 61.0877 89.192 61.0584 87.981 61.0193C86.7896 60.9998 85.5787 60.9608 84.3482 60.9022C83.1177 60.8631 81.9068 60.824 80.7154 60.785C79.524 60.7459 78.4107 60.6971 77.3755 60.6385C76.3404 60.5994 75.4224 60.5701 74.6216 60.5506C73.8209 60.5115 73.2056 60.4725 72.7759 60.4334V13.7635ZM102.659 42.3572C102.659 40.7166 101.692 39.8963 99.7584 39.8963C98.2935 39.8768 96.0181 40.7264 92.9322 42.4451C92.2095 42.8358 91.5943 43.1678 91.0865 43.4412V50.824C91.3599 50.7264 91.6138 50.6287 91.8482 50.5311C92.1021 50.4334 92.6685 50.2186 93.5474 49.8865C96.6724 48.7147 98.8013 47.7479 99.9341 46.9861C101.77 45.7557 102.678 44.2127 102.659 42.3572ZM91.0865 35.1795C94.4068 33.8904 96.6138 32.8651 97.7076 32.1033C99.9732 30.5799 101.106 28.9393 101.106 27.1815C101.106 25.951 100.461 25.16 99.1724 24.8084C98.8209 24.7108 98.4498 24.6619 98.0591 24.6619C97.6685 24.6619 97.2095 24.7303 96.6822 24.867C96.1744 25.0037 95.6666 25.1795 95.1588 25.3943C94.3775 25.6873 93.5084 26.117 92.5513 26.6834C91.6138 27.2303 91.1255 27.5233 91.0865 27.5623V35.1795ZM166.842 31.5467C166.842 28.2459 165.26 26.5955 162.096 26.5955C160.729 26.5955 159.206 27.4549 157.526 29.1736C155.006 31.7713 153.249 34.867 152.253 38.4608C151.94 39.5936 151.784 40.6385 151.784 41.5955C151.784 44.8377 153.424 46.4588 156.706 46.4588C158.014 46.4783 159.508 45.6092 161.188 43.8514C163.629 41.2733 165.358 38.1483 166.374 34.4764C166.686 33.3436 166.842 32.367 166.842 31.5467ZM158.844 61.6932C151.911 61.6932 145.895 59.4471 140.797 54.9549C139.176 53.5291 137.77 51.8983 136.579 50.0623C134.04 46.1756 132.77 41.8299 132.77 37.0252C132.77 32.201 133.942 27.9334 136.286 24.2225C138.629 20.5115 141.774 17.6209 145.719 15.5506C149.665 13.4803 153.747 12.4451 157.965 12.4451C162.204 12.4451 165.934 13.0115 169.157 14.1443C172.379 15.2772 175.182 16.908 177.565 19.0369C179.967 21.1463 181.852 23.7342 183.219 26.8006C184.586 29.867 185.27 33.3338 185.27 37.201C185.27 42.0057 184.049 46.283 181.608 50.033C179.167 53.7635 175.915 56.6443 171.852 58.6756C167.79 60.6873 163.454 61.6932 158.844 61.6932ZM219.893 61.6932C204.366 61.6932 196.602 55.0916 196.602 41.8885V13.7635H215.088V41.3611C215.088 44.1346 216.016 45.9412 217.872 46.7811C218.516 47.074 219.288 47.2205 220.186 47.2205C222.725 47.2205 224.327 46.0096 224.991 43.5877C225.186 42.8651 225.284 42.0838 225.284 41.244V13.7635L241.485 13.7635V41.8885C241.485 55.0916 234.288 61.6932 219.893 61.6932ZM252.319 13.7635L296.616 13.7635V28.9393L283.579 28.9393V60.5506H265.356V28.9393H252.319V13.7635Z"
        fill="#E7BB3E" />
    <path
        d="M1.79547 60.5506L0.0237623 59.6227L-1.50973 62.5506H1.79547V60.5506ZM25.0572 16.1365L26.8289 17.0645L26.8353 17.0522L26.8416 17.0398L25.0572 16.1365ZM29.481 12.9725L29.9578 14.9148L29.9661 14.9128L29.481 12.9725ZM34.7838 13.5291L33.9024 15.3244L33.9219 15.334L33.9415 15.3431L34.7838 13.5291ZM37.3619 15.9608L39.107 14.9838L39.1058 14.9817L37.3619 15.9608ZM62.3228 60.5506V62.5506L65.7344 62.5506L64.068 59.5737L62.3228 60.5506ZM38.563 60.5506L36.7053 61.2914L37.2074 62.5506H38.563V60.5506ZM36.7173 55.9217L38.5751 55.1809L38.073 53.9217H36.7173V55.9217ZM24.0611 55.9217V53.9217H22.6311L22.1686 55.2749L24.0611 55.9217ZM22.4791 60.5506V62.5506H23.9091L24.3716 61.1974L22.4791 60.5506ZM25.4966 46.6346L23.6356 45.9022L22.5603 48.6346H25.4966V46.6346ZM34.9595 46.6346V48.6346H37.7896L36.8448 45.9669L34.9595 46.6346ZM30.4771 33.9783L32.3624 33.3106L30.5757 28.266L28.616 33.246L30.4771 33.9783ZM3.56718 61.4785L26.8289 17.0645L23.2855 15.2086L0.0237623 59.6227L3.56718 61.4785ZM26.8416 17.0398C27.3156 16.1034 28.2239 15.3404 29.9578 14.9148L29.0043 11.0301C26.4413 11.6592 24.4003 13.0057 23.2728 15.2333L26.8416 17.0398ZM29.9661 14.9128C30.3812 14.809 30.978 14.7381 31.7955 14.7381V10.7381C30.777 10.7381 29.8309 10.8235 28.9959 11.0322L29.9661 14.9128ZM31.7955 14.7381C32.3296 14.7381 33.0223 14.8924 33.9024 15.3244L35.6651 11.7338C34.3967 11.1111 33.0972 10.7381 31.7955 10.7381V14.7381ZM33.9415 15.3431C34.6314 15.6634 35.1856 16.1698 35.6179 16.9398L39.1058 14.9817C38.2882 13.5252 37.1236 12.4104 35.626 11.7151L33.9415 15.3431ZM35.6167 16.9377L60.5776 61.5275L64.068 59.5737L39.107 14.9838L35.6167 16.9377ZM62.3228 58.5506H38.563V62.5506H62.3228V58.5506ZM40.4208 59.8098L38.5751 55.1809L34.8596 56.6624L36.7053 61.2914L40.4208 59.8098ZM36.7173 53.9217H24.0611V57.9217H36.7173V53.9217ZM22.1686 55.2749L20.5865 59.9038L24.3716 61.1974L25.9536 56.5685L22.1686 55.2749ZM22.4791 58.5506H1.79547L1.79547 62.5506H22.4791V58.5506ZM25.4966 48.6346H34.9595V44.6346H25.4966V48.6346ZM36.8448 45.9669L32.3624 33.3106L28.5919 34.646L33.0743 47.3023L36.8448 45.9669ZM28.616 33.246L23.6356 45.9022L27.3577 47.367L32.3382 34.7107L28.616 33.246ZM72.7759 13.7635L72.684 11.7656L70.7759 11.8535V13.7635H72.7759ZM114.172 15.9608L115.1 14.1887L115.096 14.1869L114.172 15.9608ZM117.512 29.3787L115.93 28.1552L115.928 28.1583L117.512 29.3787ZM112.385 33.1287L111.553 31.3101L106.966 33.4091L111.745 35.0235L112.385 33.1287ZM119.065 37.2889L120.576 35.9781L120.574 35.9765L119.065 37.2889ZM101.516 61.1072L101.442 59.1086L101.437 59.1088L101.516 61.1072ZM91.3209 61.1072L91.3963 59.1087L91.3778 59.108L91.3593 59.1076L91.3209 61.1072ZM87.981 61.0193L88.0455 59.0204L88.0297 59.0199L88.0138 59.0196L87.981 61.0193ZM84.3482 60.9022L84.4433 58.9044L84.4275 58.9037L84.4117 58.9032L84.3482 60.9022ZM77.3755 60.6385L77.4886 58.6417L77.4698 58.6406L77.451 58.6399L77.3755 60.6385ZM74.6216 60.5506L74.5242 62.5482L74.5485 62.5494L74.5729 62.55L74.6216 60.5506ZM72.7759 60.4334H70.7759V62.2598L72.5949 62.4252L72.7759 60.4334ZM102.659 42.3572H100.659V42.3678L100.659 42.3783L102.659 42.3572ZM99.7584 39.8963L99.7317 41.8961L99.745 41.8963H99.7584V39.8963ZM92.9322 42.4451L93.8832 44.2045L93.8943 44.1985L93.9053 44.1924L92.9322 42.4451ZM91.0865 43.4412L90.1383 41.6803L89.0865 42.2466V43.4412H91.0865ZM91.0865 50.824H89.0865V53.662L91.7592 52.7075L91.0865 50.824ZM91.8482 50.5311L91.1302 48.6644L91.1045 48.6743L91.079 48.6849L91.8482 50.5311ZM93.5474 49.8865L92.8452 48.0139L92.8406 48.0156L93.5474 49.8865ZM99.9341 46.9861L98.8207 45.3248L98.8181 45.3265L99.9341 46.9861ZM91.0865 35.1795H89.0865V38.1014L91.8103 37.0439L91.0865 35.1795ZM97.7076 32.1033L96.5916 30.4436L96.578 30.4528L96.5646 30.4621L97.7076 32.1033ZM99.1724 24.8084L98.6371 26.7355L98.6462 26.7379L99.1724 24.8084ZM96.6822 24.867L96.1803 22.931L96.1712 22.9333L96.1622 22.9358L96.6822 24.867ZM95.1588 25.3943L95.861 27.267L95.8998 27.2524L95.938 27.2363L95.1588 25.3943ZM92.5513 26.6834L93.5591 28.411L93.57 28.4046L92.5513 26.6834ZM91.0865 27.5623L89.6723 26.1481L89.0865 26.7339V27.5623H91.0865ZM72.8679 15.7614C83.4716 15.2732 91.0486 15.0311 95.6275 15.0311V11.0311C90.9486 11.0311 83.2913 11.2772 72.684 11.7656L72.8679 15.7614ZM95.6275 15.0311C104.187 15.0311 109.952 16.0177 113.249 17.7346L115.096 14.1869C110.893 11.9976 104.295 11.0311 95.6275 11.0311V15.0311ZM113.245 17.7328C114.676 18.4813 115.643 19.3658 116.26 20.3447C116.872 21.3172 117.211 22.497 117.211 23.9588H121.211C121.211 21.8464 120.711 19.9061 119.644 18.2125C118.581 16.5254 117.029 15.198 115.1 14.1887L113.245 17.7328ZM117.211 23.9588C117.211 25.7384 116.75 27.0951 115.93 28.1552L119.094 30.6022C120.54 28.7327 121.211 26.4761 121.211 23.9588H117.211ZM115.928 28.1583C115.075 29.2655 113.671 30.3409 111.553 31.3101L113.218 34.9473C115.709 33.8072 117.723 32.3826 119.097 30.5992L115.928 28.1583ZM111.745 35.0235C114.392 35.9178 116.283 37.1375 117.556 38.6012L120.574 35.9765C118.722 33.8465 116.16 32.2927 113.025 31.2339L111.745 35.0235ZM117.554 38.5997C119.201 40.497 120.141 43.2208 120.141 47.0154H124.141C124.141 42.5679 123.031 38.8073 120.576 35.9781L117.554 38.5997ZM120.141 47.0154C120.141 50.8508 118.707 53.6049 115.857 55.5521C112.873 57.5904 108.161 58.8605 101.442 59.1086L101.59 63.1059C108.621 62.8462 114.222 61.5137 118.113 58.8548C122.138 56.1047 124.141 52.0668 124.141 47.0154H120.141ZM101.437 59.1088C99.4734 59.1866 97.9709 59.2244 96.9166 59.2244V63.2244C98.0497 63.2244 99.6136 63.1842 101.595 63.1057L101.437 59.1088ZM96.9166 59.2244C95.8337 59.2244 94.9034 59.2147 94.1235 59.1957L94.026 63.1945C94.8477 63.2146 95.812 63.2244 96.9166 63.2244V59.2244ZM94.1235 59.1957C93.3338 59.1765 92.425 59.1475 91.3963 59.1087L91.2454 63.1058C92.2871 63.1451 93.2142 63.1747 94.026 63.1945L94.1235 59.1957ZM91.3593 59.1076C90.3538 59.0883 89.2494 59.0592 88.0455 59.0204L87.9165 63.0183C89.1346 63.0576 90.2566 63.0871 91.2824 63.1069L91.3593 59.1076ZM88.0138 59.0196C86.8439 59.0004 85.6537 58.9621 84.4433 58.9044L84.2531 62.8999C85.5036 62.9594 86.7354 62.9992 87.9482 63.0191L88.0138 59.0196ZM84.4117 58.9032C83.1819 58.8641 81.9716 58.8251 80.7809 58.786L80.6499 62.7839C81.842 62.823 83.0536 62.8621 84.2847 62.9012L84.4117 58.9032ZM80.7809 58.786C79.6031 58.7474 78.5058 58.6993 77.4886 58.6417L77.2625 62.6353C78.3156 62.6949 79.4449 62.7444 80.6499 62.7839L80.7809 58.786ZM77.451 58.6399C76.4093 58.6006 75.4822 58.571 74.6704 58.5512L74.5729 62.55C75.3626 62.5693 76.2714 62.5982 77.3001 62.6371L77.451 58.6399ZM74.7191 58.553C73.9269 58.5143 73.3447 58.4769 72.957 58.4416L72.5949 62.4252C73.0666 62.4681 73.7148 62.5087 74.5242 62.5482L74.7191 58.553ZM74.7759 60.4334V13.7635H70.7759V60.4334H74.7759ZM104.659 42.3572C104.659 41.1347 104.283 39.8821 103.228 38.9865C102.235 38.1444 100.961 37.8963 99.7584 37.8963V41.8963C100.49 41.8963 100.665 42.0584 100.64 42.0366C100.619 42.0187 100.611 41.998 100.616 42.0119C100.626 42.0379 100.659 42.1391 100.659 42.3572H104.659ZM99.785 37.8965C98.6946 37.8819 97.491 38.1832 96.2536 38.6452C94.9899 39.1171 93.5542 39.8094 91.959 40.6979L93.9053 44.1924C95.3961 43.3621 96.6411 42.7703 97.6528 42.3925C98.6907 42.005 99.3573 41.8911 99.7317 41.8961L99.785 37.8965ZM91.9812 40.6857C91.2591 41.076 90.6449 41.4075 90.1383 41.6803L92.0347 45.2022C92.5437 44.9281 93.16 44.5955 93.8832 44.2045L91.9812 40.6857ZM89.0865 43.4412V50.824H93.0865V43.4412H89.0865ZM91.7592 52.7075C92.0606 52.5999 92.3471 52.4899 92.6174 52.3772L91.079 48.6849C90.8806 48.7676 90.6592 48.8529 90.4138 48.9406L91.7592 52.7075ZM92.5662 52.3978C92.8134 52.3027 93.3738 52.0901 94.2542 51.7575L92.8406 48.0156C91.9632 48.3471 91.3908 48.5642 91.1302 48.6644L92.5662 52.3978ZM94.2497 51.7592C97.3712 50.5886 99.7018 49.5525 101.05 48.6458L98.8181 45.3265C97.9009 45.9432 95.9737 46.8407 92.8452 48.0139L94.2497 51.7592ZM101.048 48.6475C103.32 47.1245 104.687 45.0025 104.659 42.3362L100.659 42.3783C100.67 43.4229 100.22 44.3869 98.8207 45.3248L101.048 48.6475ZM91.8103 37.0439C95.1116 35.7622 97.5339 34.6615 98.8506 33.7445L96.5646 30.4621C95.6938 31.0686 93.702 32.0186 90.3627 33.3151L91.8103 37.0439ZM98.8236 33.763C101.323 32.0822 103.106 29.9141 103.106 27.1815H99.106C99.106 27.9644 98.6231 29.0776 96.5916 30.4436L98.8236 33.763ZM103.106 27.1815C103.106 26.2043 102.843 25.2238 102.173 24.402C101.516 23.596 100.622 23.1307 99.6987 22.8789L98.6462 26.7379C98.8278 26.7875 98.9388 26.8396 99.0009 26.8763C99.0314 26.8943 99.0497 26.9084 99.0594 26.9166C99.0644 26.9208 99.0676 26.9239 99.0694 26.9257C99.0712 26.9276 99.072 26.9285 99.0722 26.9287C99.0723 26.9288 99.0721 26.9286 99.0718 26.9282C99.0715 26.9278 99.0715 26.9277 99.0718 26.9282C99.0721 26.9288 99.0753 26.9347 99.0797 26.9486C99.0885 26.9763 99.106 27.0478 99.106 27.1815H103.106ZM99.7077 22.8814C99.17 22.732 98.618 22.6619 98.0591 22.6619V26.6619C98.2816 26.6619 98.4717 26.6895 98.6371 26.7354L99.7077 22.8814ZM98.0591 22.6619C97.4473 22.6619 96.8124 22.7671 96.1803 22.931L97.1841 26.803C97.6067 26.6934 97.8897 26.6619 98.0591 26.6619V22.6619ZM96.1622 22.9358C95.5619 23.0974 94.9675 23.3036 94.3795 23.5524L95.938 27.2363C96.3656 27.0554 96.7869 26.91 97.2021 26.7982L96.1622 22.9358ZM94.4565 23.5217C93.5363 23.8668 92.5595 24.3545 91.5327 24.9623L93.57 28.4046C94.4572 27.8795 95.2187 27.5079 95.861 27.267L94.4565 23.5217ZM91.5436 24.9559C91.0729 25.2304 90.7079 25.4454 90.453 25.5983C90.3269 25.674 90.2185 25.74 90.1344 25.7929C90.0937 25.8186 90.0463 25.8489 90.0005 25.8799C89.9782 25.895 89.9441 25.9185 89.9057 25.9471C89.8892 25.9593 89.7848 26.0356 89.6723 26.1481L92.5007 28.9765C92.3931 29.0842 92.2971 29.1535 92.2925 29.1569C92.266 29.1767 92.2473 29.1893 92.2439 29.1916C92.2359 29.197 92.2404 29.1937 92.2656 29.1779C92.3134 29.1478 92.393 29.0991 92.511 29.0283C92.7444 28.8883 93.0923 28.6832 93.5591 28.411L91.5436 24.9559ZM89.0865 27.5623V35.1795H93.0865V27.5623H89.0865ZM157.526 29.1736L156.096 27.7758L156.09 27.7812L157.526 29.1736ZM152.253 38.4608L150.325 37.9265L150.325 37.9289L152.253 38.4608ZM156.706 46.4588L156.735 44.459L156.721 44.4588H156.706V46.4588ZM161.188 43.8514L162.634 45.2331L162.64 45.2266L161.188 43.8514ZM166.374 34.4764L168.301 35.0096L168.302 35.0082L166.374 34.4764ZM140.797 54.9549L142.12 53.4544L142.118 53.4531L140.797 54.9549ZM136.579 50.0623L138.256 48.9736L138.253 48.9685L136.579 50.0623ZM177.565 19.0369L176.232 20.5284L176.239 20.5341L176.245 20.5398L177.565 19.0369ZM181.608 50.033L183.281 51.1282L183.284 51.1242L181.608 50.033ZM171.852 58.6756L172.74 60.4679L172.747 60.4645L171.852 58.6756ZM168.842 31.5467C168.842 29.6087 168.379 27.7842 167.1 26.4493C165.805 25.0987 164.009 24.5955 162.096 24.5955V28.5955C163.348 28.5955 163.925 28.9176 164.212 29.2173C164.514 29.5328 164.842 30.1839 164.842 31.5467H168.842ZM162.096 24.5955C159.904 24.5955 157.887 25.9423 156.096 27.7758L158.956 30.5715C160.524 28.9675 161.554 28.5955 162.096 28.5955V24.5955ZM156.09 27.7812C153.33 30.6268 151.408 34.0203 150.325 37.9265L154.18 38.995C155.089 35.7137 156.683 32.9158 158.962 30.5661L156.09 27.7812ZM150.325 37.9289C149.975 39.1972 149.784 40.4234 149.784 41.5955H153.784C153.784 40.8536 153.905 39.9899 154.18 38.9926L150.325 37.9289ZM149.784 41.5955C149.784 43.531 150.276 45.3486 151.609 46.6656C152.937 47.9783 154.763 48.4588 156.706 48.4588V44.4588C155.367 44.4588 154.732 44.1288 154.42 43.8203C154.112 43.5162 153.784 42.9022 153.784 41.5955H149.784ZM156.676 48.4586C158.862 48.4912 160.87 47.0792 162.634 45.2331L159.742 42.4697C158.147 44.1391 157.166 44.4655 156.735 44.459L156.676 48.4586ZM162.64 45.2266C165.323 42.3937 167.205 38.9731 168.301 35.0096L164.446 33.9432C163.511 37.3234 161.936 40.1528 159.736 42.4762L162.64 45.2266ZM168.302 35.0082C168.643 33.7702 168.842 32.6057 168.842 31.5467H164.842C164.842 32.1283 164.729 32.917 164.446 33.9445L168.302 35.0082ZM158.844 59.6932C152.387 59.6932 146.844 57.6175 142.12 53.4544L139.475 56.4554C144.946 61.2767 151.435 63.6932 158.844 63.6932V59.6932ZM142.118 53.4531C140.636 52.1497 139.35 50.6583 138.256 48.9736L134.901 51.151C136.191 53.1382 137.716 54.9085 139.477 56.4567L142.118 53.4531ZM138.253 48.9685C135.934 45.4188 134.77 41.4557 134.77 37.0252H130.77C130.77 42.2041 132.145 46.9324 134.904 51.1561L138.253 48.9685ZM134.77 37.0252C134.77 32.5402 135.855 28.6504 137.977 25.2905L134.595 23.1545C132.029 27.2164 130.77 31.8618 130.77 37.0252H134.77ZM137.977 25.2905C140.13 21.8814 143.01 19.2312 146.649 17.3216L144.79 13.7796C140.538 16.0107 137.129 19.1417 134.595 23.1545L137.977 25.2905ZM146.649 17.3216C150.324 15.393 154.089 14.4451 157.965 14.4451V10.4451C153.405 10.4451 149.005 11.5676 144.79 13.7796L146.649 17.3216ZM157.965 14.4451C162.03 14.4451 165.528 14.9888 168.494 16.0312L169.82 12.2575C166.34 11.0342 162.377 10.4451 157.965 10.4451V14.4451ZM168.494 16.0312C171.487 17.0833 174.058 18.5855 176.232 20.5284L178.898 17.5455C176.306 15.2305 173.272 13.471 169.82 12.2575L168.494 16.0312ZM176.245 20.5398C178.42 22.4494 180.137 24.7985 181.393 27.615L185.046 25.9862C183.567 22.6699 181.514 19.8432 178.885 17.534L176.245 20.5398ZM181.393 27.615C182.629 30.3891 183.27 33.572 183.27 37.201H187.27C187.27 33.0956 186.544 29.345 185.046 25.9862L181.393 27.615ZM183.27 37.201C183.27 41.6481 182.146 45.5407 179.932 48.9418L183.284 51.1242C185.953 47.0254 187.27 42.3632 187.27 37.201H183.27ZM179.934 48.9378C177.691 52.3664 174.71 55.0106 170.958 56.8867L172.747 60.4645C177.119 58.2781 180.643 55.1605 183.281 51.1282L179.934 48.9378ZM170.965 56.8833C167.183 58.756 163.151 59.6932 158.844 59.6932V63.6932C163.756 63.6932 168.396 62.6186 172.74 60.4679L170.965 56.8833ZM196.602 13.7635V11.7635H194.602V13.7635H196.602ZM215.088 13.7635L217.088 13.7635V11.7635H215.088V13.7635ZM217.872 46.7811L218.699 44.9603L218.696 44.959L217.872 46.7811ZM224.991 43.5877L226.92 44.1166L226.922 44.1095L224.991 43.5877ZM225.284 13.7635V11.7635H223.284V13.7635H225.284ZM241.485 13.7635H243.485V11.7635H241.485V13.7635ZM219.893 59.6932C212.366 59.6932 207.093 58.0861 203.72 55.2184C200.41 52.4034 198.602 48.0892 198.602 41.8885H194.602C194.602 48.8909 196.676 54.479 201.129 58.2656C205.52 61.9994 211.893 63.6932 219.893 63.6932V59.6932ZM198.602 41.8885V13.7635H194.602V41.8885H198.602ZM196.602 15.7635H215.088V11.7635L196.602 11.7635V15.7635ZM213.088 13.7635V41.3611H217.088V13.7635L213.088 13.7635ZM213.088 41.3611C213.088 44.5842 214.213 47.3206 217.047 48.6031L218.696 44.959C217.819 44.5619 217.088 43.685 217.088 41.3611H213.088ZM217.044 48.6018C218.008 49.0402 219.076 49.2205 220.186 49.2205V45.2205C219.499 45.2205 219.024 45.1079 218.699 44.9603L217.044 48.6018ZM220.186 49.2205C221.774 49.2205 223.267 48.8383 224.498 47.9076C225.731 46.9754 226.501 45.6444 226.92 44.1166L223.062 43.0588C222.817 43.9529 222.454 44.4383 222.085 44.717C221.715 44.9973 221.137 45.2205 220.186 45.2205V49.2205ZM226.922 44.1095C227.168 43.1975 227.284 42.2389 227.284 41.244H223.284C223.284 41.9287 223.204 42.5326 223.06 43.0659L226.922 44.1095ZM227.284 41.244V13.7635H223.284V41.244H227.284ZM225.284 15.7635L241.485 15.7635V11.7635L225.284 11.7635V15.7635ZM239.485 13.7635V41.8885H243.485V13.7635H239.485ZM239.485 41.8885C239.485 48.1352 237.79 52.4657 234.735 55.2681C231.647 58.1005 226.823 59.6932 219.893 59.6932V63.6932C227.358 63.6932 233.33 61.9851 237.439 58.2159C241.581 54.4167 243.485 48.8449 243.485 41.8885H239.485ZM252.319 13.7635V11.7635H250.319V13.7635H252.319ZM296.616 13.7635L298.616 13.7635V11.7635H296.616V13.7635ZM296.616 28.9393V30.9393H298.616V28.9393H296.616ZM283.579 28.9393V26.9393H281.579V28.9393H283.579ZM283.579 60.5506V62.5506H285.579V60.5506H283.579ZM265.356 60.5506H263.356V62.5506H265.356V60.5506ZM265.356 28.9393H267.356V26.9393H265.356V28.9393ZM252.319 28.9393H250.319V30.9393H252.319V28.9393ZM252.319 15.7635L296.616 15.7635V11.7635L252.319 11.7635V15.7635ZM294.616 13.7635V28.9393H298.616V13.7635L294.616 13.7635ZM296.616 26.9393L283.579 26.9393V30.9393L296.616 30.9393V26.9393ZM281.579 28.9393V60.5506H285.579V28.9393H281.579ZM283.579 58.5506H265.356V62.5506H283.579V58.5506ZM267.356 60.5506V28.9393H263.356V60.5506H267.356ZM265.356 26.9393H252.319V30.9393H265.356V26.9393ZM254.319 28.9393V13.7635H250.319V28.9393H254.319Z"
        fill="black" mask="url(#path-5-outside-3_143_36)" />
</svg>