<svg width="661" height="77" viewBox="0 0 661 77" fill="none" xmlns="http://www.w3.org/2000/svg">
    <mask id="path-1-outside-1_61_2" maskUnits="userSpaceOnUse" x="8.34131" y="-2.17529" width="655" height="71"
        fill="black">
        <rect fill="white" x="8.34131" y="-2.17529" width="655" height="71" />
        <path
            d="M11.146 2.44189C26.9533 1.27002 37.2658 0.684082 42.0835 0.684082C46.9272 0.684082 50.7424 1.13981 53.5288 2.05127C56.3413 2.93669 58.8543 4.17367 61.0679 5.76221C65.3647 8.80908 68.6069 12.8586 70.7944 17.9106C73.008 22.9627 74.1147 28.0799 74.1147 33.2622C74.1147 38.4445 73.2684 42.9757 71.5757 46.856C69.909 50.7101 67.5913 53.9653 64.6226 56.6216C58.5549 62.1164 50.7033 64.8507 41.0679 64.8247H11.146L11.146 2.44189ZM35.4429 22.2466V46.0356C36.8231 44.8638 38.3205 43.7049 39.9351 42.5591C46.133 38.106 49.2319 33.4445 49.2319 28.5747C49.2319 26.2049 48.5288 24.0174 47.1226 22.0122C45.7163 19.981 43.8804 18.9653 41.6147 18.9653C39.3752 18.9653 37.3179 20.0591 35.4429 22.2466ZM89.8491 2.44189L134.81 2.44189V20.4106H114.146V25.5278H134.732V40.8403H114.146V46.7388H136.177V64.8247H89.8491V2.44189ZM177.966 2.44189L187.693 22.0122L196.755 2.44189L219.646 2.44189L188.982 64.7466C188.305 66.0226 187.12 66.6606 185.427 66.6606C183.761 66.6606 182.602 66.0226 181.951 64.7466L149.646 2.44189L177.966 2.44189ZM233.505 2.44189L278.388 2.44189V20.0981H257.802V25.8794H278.388V42.9106H257.802V64.8247H233.505V2.44189ZM293.224 2.44189L338.185 2.44189V20.4106H317.521V25.5278H338.107V40.8403L317.521 40.8403V46.7388L339.552 46.7388V64.8247L293.224 64.8247V2.44189ZM379.232 66.3481C367.539 66.3481 359.779 64.9028 355.951 62.0122V44.1216C356.055 44.1476 356.432 44.2648 357.083 44.4731C357.761 44.6815 358.607 44.9419 359.623 45.2544C361.992 45.9836 364.479 46.6737 367.083 47.3247C369.714 47.9497 371.823 48.2622 373.412 48.2622C376.016 48.2622 377.318 47.4679 377.318 45.8794C377.318 44.6554 376.198 43.3534 373.958 41.9731C372.943 41.3481 371.784 40.6971 370.482 40.02C369.206 39.3429 367.904 38.5877 366.576 37.7544C363.32 35.7492 360.703 33.4054 358.724 30.7231C356.771 28.0409 355.794 24.6554 355.794 20.5669C355.794 11.6346 360.508 5.632 369.935 2.55908C373.763 1.30908 378.177 0.684082 383.177 0.684082C388.203 0.684082 393.451 1.257 398.919 2.40283C400.039 2.63721 400.781 2.80648 401.146 2.91064V20.8403C394.063 19.3299 388.972 18.5747 385.873 18.5747C384.675 18.5747 383.776 18.783 383.177 19.1997C382.578 19.6164 382.279 20.0851 382.279 20.606C382.279 21.1268 382.539 21.6737 383.06 22.2466C383.581 22.7935 384.479 23.3534 385.755 23.9263C387.031 24.4731 388.516 25.1502 390.208 25.9575C391.927 26.7388 393.529 27.5851 395.013 28.4966C401.68 32.5851 405.013 38.1711 405.013 45.2544C405.013 51.9731 402.748 57.1685 398.216 60.8403C393.633 64.4862 387.305 66.3221 379.232 66.3481ZM418.755 2.44189L477.818 2.44189V22.6763L460.435 22.6763V64.8247H436.138V22.6763H418.755V2.44189Z" />
        <path
            d="M523.388 53.5356L547.177 33.6138C550.38 30.9315 551.982 28.132 551.982 25.2153C551.982 23.6789 551.474 22.4159 550.458 21.4263C549.469 20.4367 548.219 19.9419 546.708 19.9419C545.198 19.9419 543.701 20.1893 542.216 20.6841C537.268 22.2987 532.464 25.5929 527.802 30.5669L518.623 17.4028C521.8 12.1424 526.539 8.05387 532.841 5.13721C539.143 2.22054 545.862 0.762207 552.998 0.762207C560.159 0.762207 566.175 2.44189 571.044 5.80127C576.409 9.49919 579.091 14.6164 579.091 21.1528C579.091 26.3612 576.865 31.2049 572.412 35.6841C570.094 38.0278 567.724 40.0981 565.302 41.895C562.88 43.6659 560.992 45.0721 559.638 46.1138H579.482V64.8247H523.388V53.5356ZM593.224 38.0278L617.794 2.36377L655.294 2.36377V37.4028H660.841V56.4263H655.294V64.8247H628.927V56.4263H593.224V38.0278ZM617.56 38.0278H628.927V20.3325L617.56 38.0278Z" />
    </mask>
    <path
        d="M11.146 2.44189C26.9533 1.27002 37.2658 0.684082 42.0835 0.684082C46.9272 0.684082 50.7424 1.13981 53.5288 2.05127C56.3413 2.93669 58.8543 4.17367 61.0679 5.76221C65.3647 8.80908 68.6069 12.8586 70.7944 17.9106C73.008 22.9627 74.1147 28.0799 74.1147 33.2622C74.1147 38.4445 73.2684 42.9757 71.5757 46.856C69.909 50.7101 67.5913 53.9653 64.6226 56.6216C58.5549 62.1164 50.7033 64.8507 41.0679 64.8247H11.146L11.146 2.44189ZM35.4429 22.2466V46.0356C36.8231 44.8638 38.3205 43.7049 39.9351 42.5591C46.133 38.106 49.2319 33.4445 49.2319 28.5747C49.2319 26.2049 48.5288 24.0174 47.1226 22.0122C45.7163 19.981 43.8804 18.9653 41.6147 18.9653C39.3752 18.9653 37.3179 20.0591 35.4429 22.2466ZM89.8491 2.44189L134.81 2.44189V20.4106H114.146V25.5278H134.732V40.8403H114.146V46.7388H136.177V64.8247H89.8491V2.44189ZM177.966 2.44189L187.693 22.0122L196.755 2.44189L219.646 2.44189L188.982 64.7466C188.305 66.0226 187.12 66.6606 185.427 66.6606C183.761 66.6606 182.602 66.0226 181.951 64.7466L149.646 2.44189L177.966 2.44189ZM233.505 2.44189L278.388 2.44189V20.0981H257.802V25.8794H278.388V42.9106H257.802V64.8247H233.505V2.44189ZM293.224 2.44189L338.185 2.44189V20.4106H317.521V25.5278H338.107V40.8403L317.521 40.8403V46.7388L339.552 46.7388V64.8247L293.224 64.8247V2.44189ZM379.232 66.3481C367.539 66.3481 359.779 64.9028 355.951 62.0122V44.1216C356.055 44.1476 356.432 44.2648 357.083 44.4731C357.761 44.6815 358.607 44.9419 359.623 45.2544C361.992 45.9836 364.479 46.6737 367.083 47.3247C369.714 47.9497 371.823 48.2622 373.412 48.2622C376.016 48.2622 377.318 47.4679 377.318 45.8794C377.318 44.6554 376.198 43.3534 373.958 41.9731C372.943 41.3481 371.784 40.6971 370.482 40.02C369.206 39.3429 367.904 38.5877 366.576 37.7544C363.32 35.7492 360.703 33.4054 358.724 30.7231C356.771 28.0409 355.794 24.6554 355.794 20.5669C355.794 11.6346 360.508 5.632 369.935 2.55908C373.763 1.30908 378.177 0.684082 383.177 0.684082C388.203 0.684082 393.451 1.257 398.919 2.40283C400.039 2.63721 400.781 2.80648 401.146 2.91064V20.8403C394.063 19.3299 388.972 18.5747 385.873 18.5747C384.675 18.5747 383.776 18.783 383.177 19.1997C382.578 19.6164 382.279 20.0851 382.279 20.606C382.279 21.1268 382.539 21.6737 383.06 22.2466C383.581 22.7935 384.479 23.3534 385.755 23.9263C387.031 24.4731 388.516 25.1502 390.208 25.9575C391.927 26.7388 393.529 27.5851 395.013 28.4966C401.68 32.5851 405.013 38.1711 405.013 45.2544C405.013 51.9731 402.748 57.1685 398.216 60.8403C393.633 64.4862 387.305 66.3221 379.232 66.3481ZM418.755 2.44189L477.818 2.44189V22.6763L460.435 22.6763V64.8247H436.138V22.6763H418.755V2.44189Z"
        fill="#C14500" />
    <path
        d="M523.388 53.5356L547.177 33.6138C550.38 30.9315 551.982 28.132 551.982 25.2153C551.982 23.6789 551.474 22.4159 550.458 21.4263C549.469 20.4367 548.219 19.9419 546.708 19.9419C545.198 19.9419 543.701 20.1893 542.216 20.6841C537.268 22.2987 532.464 25.5929 527.802 30.5669L518.623 17.4028C521.8 12.1424 526.539 8.05387 532.841 5.13721C539.143 2.22054 545.862 0.762207 552.998 0.762207C560.159 0.762207 566.175 2.44189 571.044 5.80127C576.409 9.49919 579.091 14.6164 579.091 21.1528C579.091 26.3612 576.865 31.2049 572.412 35.6841C570.094 38.0278 567.724 40.0981 565.302 41.895C562.88 43.6659 560.992 45.0721 559.638 46.1138H579.482V64.8247H523.388V53.5356ZM593.224 38.0278L617.794 2.36377L655.294 2.36377V37.4028H660.841V56.4263H655.294V64.8247H628.927V56.4263H593.224V38.0278ZM617.56 38.0278H628.927V20.3325L617.56 38.0278Z"
        fill="#58CDC5" />
    <path
        d="M11.146 2.44189L10.9981 0.447368L9.146 0.584676V2.44189H11.146ZM53.5288 2.05127L52.907 3.95216L52.9176 3.95562L52.9282 3.95897L53.5288 2.05127ZM61.0679 5.76221L59.9018 7.38711L59.911 7.39367L61.0679 5.76221ZM70.7944 17.9106L68.9591 18.7053L68.9626 18.7133L70.7944 17.9106ZM71.5757 46.856L69.7425 46.0563L69.74 46.0621L71.5757 46.856ZM64.6226 56.6216L63.2889 55.1311L63.2801 55.1391L64.6226 56.6216ZM41.0679 64.8247L41.0733 62.8247H41.0679V64.8247ZM11.146 64.8247H9.146V66.8247H11.146V64.8247ZM35.4429 22.2466L33.9244 20.945L33.4429 21.5067V22.2466H35.4429ZM35.4429 46.0356H33.4429V50.3574L36.7373 47.5602L35.4429 46.0356ZM39.9351 42.5591L41.0926 44.1901L41.102 44.1833L39.9351 42.5591ZM47.1226 22.0122L45.4781 23.1506L45.4851 23.1606L47.1226 22.0122ZM11.2939 4.43642C27.1186 3.26326 37.3538 2.68408 42.0835 2.68408V-1.31592C37.1778 -1.31592 26.788 -0.723217 10.9981 0.447368L11.2939 4.43642ZM42.0835 2.68408C46.8348 2.68408 50.4095 3.1352 52.907 3.95216L54.1506 0.15038C51.0752 -0.855577 47.0197 -1.31592 42.0835 -1.31592V2.68408ZM52.9282 3.95897C55.555 4.78592 57.8742 5.93196 59.9018 7.38709L62.234 4.13733C59.8345 2.41537 57.1276 1.08745 54.1294 0.143571L52.9282 3.95897ZM59.911 7.39367C63.8957 10.2191 66.9101 13.9731 68.9591 18.7053L72.6298 17.116C70.3038 11.744 66.8338 7.39902 62.2247 4.13074L59.911 7.39367ZM68.9626 18.7133C71.0725 23.5288 72.1147 28.3737 72.1147 33.2622H76.1147C76.1147 27.7861 74.9435 22.3966 72.6263 17.108L68.9626 18.7133ZM72.1147 33.2622C72.1147 38.2294 71.3034 42.4781 69.7425 46.0563L73.4088 47.6557C75.2333 43.4734 76.1147 38.6596 76.1147 33.2622H72.1147ZM69.74 46.0621C68.1819 49.6652 66.0303 52.6784 63.289 55.1311L65.9561 58.1121C69.1524 55.2523 71.6361 51.7551 73.4114 47.6498L69.74 46.0621ZM63.2801 55.1391C57.6455 60.2416 50.3043 62.8497 41.0733 62.8247L41.0625 66.8247C51.1023 66.8518 59.4642 63.9911 65.9651 58.1041L63.2801 55.1391ZM41.0679 62.8247H11.146V66.8247H41.0679V62.8247ZM13.146 64.8247L13.146 2.44189H9.146L9.146 64.8247H13.146ZM33.4429 22.2466V46.0356H37.4429V22.2466H33.4429ZM36.7373 47.5602C38.0696 46.4291 39.5208 45.3055 41.0926 44.1901L38.7776 40.9281C37.1201 42.1043 35.5766 43.2985 34.1484 44.5111L36.7373 47.5602ZM41.102 44.1833C47.5187 39.573 51.2319 34.3887 51.2319 28.5747H47.2319C47.2319 32.5003 44.7472 36.6389 38.7681 40.9348L41.102 44.1833ZM51.2319 28.5747C51.2319 25.7796 50.3938 23.1935 48.76 20.8639L45.4851 23.1606C46.6638 24.8413 47.2319 26.6303 47.2319 28.5747H51.2319ZM48.7669 20.8738C47.0268 18.3602 44.6034 16.9653 41.6147 16.9653V20.9653C43.1573 20.9653 44.4058 21.6017 45.4782 23.1506L48.7669 20.8738ZM41.6147 16.9653C38.633 16.9653 36.0626 18.4504 33.9244 20.945L36.9614 23.5482C38.5732 21.6677 40.1173 20.9653 41.6147 20.9653V16.9653ZM89.8491 2.44189V0.441895H87.8491V2.44189H89.8491ZM134.81 2.44189H136.81V0.441895H134.81V2.44189ZM134.81 20.4106V22.4106H136.81V20.4106H134.81ZM114.146 20.4106V18.4106H112.146V20.4106H114.146ZM114.146 25.5278H112.146V27.5278H114.146V25.5278ZM134.732 25.5278H136.732V23.5278H134.732V25.5278ZM134.732 40.8403V42.8403H136.732V40.8403H134.732ZM114.146 40.8403V38.8403H112.146V40.8403H114.146ZM114.146 46.7388H112.146V48.7388H114.146V46.7388ZM136.177 46.7388H138.177V44.7388H136.177V46.7388ZM136.177 64.8247V66.8247H138.177V64.8247H136.177ZM89.8491 64.8247H87.8491V66.8247H89.8491V64.8247ZM89.8491 4.44189L134.81 4.44189V0.441895L89.8491 0.441895V4.44189ZM132.81 2.44189V20.4106H136.81V2.44189H132.81ZM134.81 18.4106H114.146V22.4106H134.81V18.4106ZM112.146 20.4106V25.5278H116.146V20.4106H112.146ZM114.146 27.5278H134.732V23.5278H114.146V27.5278ZM132.732 25.5278V40.8403H136.732V25.5278H132.732ZM134.732 38.8403H114.146V42.8403H134.732V38.8403ZM112.146 40.8403V46.7388H116.146V40.8403H112.146ZM114.146 48.7388H136.177V44.7388H114.146V48.7388ZM134.177 46.7388V64.8247H138.177V46.7388H134.177ZM136.177 62.8247H89.8491V66.8247H136.177V62.8247ZM91.8491 64.8247V2.44189H87.8491V64.8247H91.8491ZM177.966 2.44189L179.757 1.55176L179.206 0.441895H177.966V2.44189ZM187.693 22.0122L185.902 22.9023L187.757 26.6341L189.508 22.8526L187.693 22.0122ZM196.755 2.44189V0.441895H195.477L194.941 1.60148L196.755 2.44189ZM219.646 2.44189L221.44 3.32505L222.859 0.441895L219.646 0.441895V2.44189ZM188.982 64.7466L190.749 65.684L190.763 65.6571L190.776 65.6297L188.982 64.7466ZM181.951 64.7466L183.732 63.8376L183.726 63.826L181.951 64.7466ZM149.646 2.44189V0.441895H146.356L147.87 3.3625L149.646 2.44189ZM176.175 3.33203L185.902 22.9023L189.484 21.1221L179.757 1.55176L176.175 3.33203ZM189.508 22.8526L198.57 3.28231L194.941 1.60148L185.878 21.1718L189.508 22.8526ZM196.755 4.44189L219.646 4.44189V0.441895L196.755 0.441895V4.44189ZM217.852 1.55874L187.187 63.8634L190.776 65.6297L221.44 3.32505L217.852 1.55874ZM187.215 63.8092C186.952 64.3059 186.534 64.6606 185.427 64.6606V68.6606C187.706 68.6606 189.658 67.7393 190.749 65.684L187.215 63.8092ZM185.427 64.6606C184.845 64.6606 184.489 64.5495 184.273 64.4301C184.073 64.3202 183.892 64.1502 183.732 63.8376L180.169 65.6555C180.661 66.619 181.384 67.406 182.344 67.9341C183.286 68.4528 184.343 68.6606 185.427 68.6606V64.6606ZM183.726 63.826L151.422 1.52129L147.87 3.3625L180.175 65.6672L183.726 63.826ZM149.646 4.44189L177.966 4.44189V0.441895L149.646 0.441895V4.44189ZM233.505 2.44189V0.441895H231.505V2.44189H233.505ZM278.388 2.44189H280.388V0.441895H278.388V2.44189ZM278.388 20.0981V22.0981H280.388V20.0981H278.388ZM257.802 20.0981V18.0981H255.802V20.0981H257.802ZM257.802 25.8794H255.802V27.8794H257.802V25.8794ZM278.388 25.8794H280.388V23.8794H278.388V25.8794ZM278.388 42.9106V44.9106H280.388V42.9106H278.388ZM257.802 42.9106V40.9106H255.802V42.9106H257.802ZM257.802 64.8247V66.8247H259.802V64.8247H257.802ZM233.505 64.8247H231.505V66.8247H233.505V64.8247ZM233.505 4.44189L278.388 4.44189V0.441895L233.505 0.441895V4.44189ZM276.388 2.44189V20.0981H280.388V2.44189H276.388ZM278.388 18.0981H257.802V22.0981H278.388V18.0981ZM255.802 20.0981V25.8794H259.802V20.0981H255.802ZM257.802 27.8794H278.388V23.8794H257.802V27.8794ZM276.388 25.8794V42.9106H280.388V25.8794H276.388ZM278.388 40.9106H257.802V44.9106H278.388V40.9106ZM255.802 42.9106V64.8247H259.802V42.9106H255.802ZM257.802 62.8247H233.505V66.8247H257.802V62.8247ZM235.505 64.8247V2.44189H231.505V64.8247H235.505ZM293.224 2.44189V0.441895H291.224V2.44189H293.224ZM338.185 2.44189H340.185V0.441895H338.185V2.44189ZM338.185 20.4106V22.4106H340.185V20.4106H338.185ZM317.521 20.4106V18.4106H315.521V20.4106H317.521ZM317.521 25.5278H315.521V27.5278H317.521V25.5278ZM338.107 25.5278H340.107V23.5278H338.107V25.5278ZM338.107 40.8403V42.8403H340.107V40.8403H338.107ZM317.521 40.8403V38.8403H315.521V40.8403H317.521ZM317.521 46.7388H315.521V48.7388H317.521V46.7388ZM339.552 46.7388H341.552V44.7388H339.552V46.7388ZM339.552 64.8247V66.8247H341.552V64.8247H339.552ZM293.224 64.8247H291.224V66.8247H293.224V64.8247ZM293.224 4.44189L338.185 4.44189V0.441895L293.224 0.441895V4.44189ZM336.185 2.44189V20.4106H340.185V2.44189H336.185ZM338.185 18.4106H317.521V22.4106H338.185V18.4106ZM315.521 20.4106V25.5278H319.521V20.4106H315.521ZM317.521 27.5278H338.107V23.5278H317.521V27.5278ZM336.107 25.5278V40.8403H340.107V25.5278H336.107ZM338.107 38.8403L317.521 38.8403V42.8403L338.107 42.8403V38.8403ZM315.521 40.8403V46.7388H319.521V40.8403H315.521ZM317.521 48.7388L339.552 48.7388V44.7388L317.521 44.7388V48.7388ZM337.552 46.7388V64.8247H341.552V46.7388H337.552ZM339.552 62.8247L293.224 62.8247V66.8247L339.552 66.8247V62.8247ZM295.224 64.8247V2.44189H291.224V64.8247H295.224ZM379.232 66.3481V68.3482L379.238 68.3481L379.232 66.3481ZM355.951 62.0122H353.951V63.0081L354.745 63.6083L355.951 62.0122ZM355.951 44.1216L356.436 42.1813L353.951 41.56V44.1216H355.951ZM357.083 44.4731L356.474 46.378L356.485 46.3814L356.495 46.3847L357.083 44.4731ZM367.083 47.3247L366.598 49.265L366.61 49.2678L366.621 49.2705L367.083 47.3247ZM373.958 41.9731L375.008 40.2705L375.007 40.2698L373.958 41.9731ZM370.482 40.02L369.545 41.7867L369.552 41.7906L369.559 41.7945L370.482 40.02ZM366.576 37.7544L367.639 36.0603L367.632 36.0559L367.625 36.0515L366.576 37.7544ZM358.724 30.7231L357.107 31.9004L357.115 31.9106L358.724 30.7231ZM369.935 2.55908L370.555 4.46061L370.556 4.46029L369.935 2.55908ZM398.919 2.40283L398.509 4.36033L398.51 4.36041L398.919 2.40283ZM401.146 2.91064L403.146 2.91064V1.40204L401.695 0.987597L401.146 2.91064ZM401.146 20.8403L400.729 22.7964L403.146 23.3118V20.8403H401.146ZM383.06 22.2466L381.58 23.5919L381.596 23.6091L381.612 23.6259L383.06 22.2466ZM385.755 23.9263L384.936 25.7508L384.952 25.7578L384.968 25.7646L385.755 23.9263ZM390.208 25.9575L389.348 27.7627L389.364 27.7706L389.381 27.7783L390.208 25.9575ZM395.013 28.4966L393.967 30.2009L393.968 30.2015L395.013 28.4966ZM398.216 60.8403L399.461 62.4055L399.468 62.3999L399.475 62.3942L398.216 60.8403ZM379.232 64.3481C373.456 64.3481 368.725 63.9902 365.008 63.298C361.259 62.5997 358.713 61.5916 357.156 60.4161L354.745 63.6083C357.017 65.3235 360.265 66.4833 364.276 67.2304C368.319 67.9834 373.315 68.3481 379.232 68.3481V64.3481ZM357.951 62.0122V44.1216H353.951V62.0122H357.951ZM355.466 46.0619C355.452 46.0584 355.514 46.0753 355.719 46.1391C355.9 46.1952 356.151 46.2745 356.474 46.378L357.693 42.5683C357.083 42.373 356.621 42.2275 356.436 42.1813L355.466 46.0619ZM356.495 46.3847C356.638 46.4286 356.609 46.4197 356.757 46.4653C356.84 46.4908 356.81 46.4814 356.894 46.5074C356.937 46.5205 356.921 46.5157 356.964 46.5289C356.972 46.5313 356.974 46.5319 356.982 46.5343C356.983 46.5346 356.998 46.5395 356.999 46.5398C357.01 46.5431 357.006 46.5419 357.017 46.5452C357.023 46.5472 357.02 46.546 357.026 46.548C357.027 46.5484 357.029 46.5489 357.03 46.5493C357.032 46.5498 357.033 46.5503 357.035 46.5507C357.058 46.5578 357.155 46.5877 357.18 46.5953C357.27 46.623 357.237 46.6129 357.328 46.6411C357.515 46.6984 357.446 46.6773 357.638 46.7363C357.736 46.7663 357.7 46.7553 357.799 46.7857C357.848 46.801 357.83 46.7954 357.88 46.8109C357.892 46.8144 357.89 46.8137 357.901 46.8172C357.914 46.8211 357.909 46.8197 357.922 46.8236C357.934 46.8275 357.93 46.8261 357.942 46.83C357.95 46.8323 357.945 46.8309 357.953 46.8332C357.955 46.8337 357.956 46.8342 357.958 46.8348C357.96 46.8353 357.961 46.8358 357.963 46.8364C358.036 46.8586 358.227 46.9175 358.304 46.9413C358.52 47.0078 358.44 46.9832 358.661 47.0512C358.774 47.0857 358.732 47.0731 358.846 47.108C358.846 47.108 359.033 47.1655 359.034 47.166L360.211 43.3428C359.942 43.2601 360.101 43.3092 359.838 43.2281C359.726 43.1938 359.767 43.2065 359.657 43.1725C359.598 43.1542 359.539 43.1361 359.481 43.1182C359.467 43.1141 359.472 43.1156 359.459 43.1115C359.451 43.1089 359.446 43.1074 359.437 43.1048C359.435 43.1043 359.434 43.1037 359.432 43.1032C359.43 43.1026 359.428 43.1021 359.426 43.1015C359.415 43.098 359.427 43.1017 359.416 43.0982C359.414 43.0978 359.395 43.0919 359.394 43.0915C359.308 43.0652 359.393 43.0914 359.308 43.0651C359.289 43.0593 359.157 43.0187 359.14 43.0132C359.011 42.9736 358.938 42.9511 358.814 42.9131C358.567 42.8372 358.437 42.797 358.211 42.7276C358.156 42.7106 358.124 42.7009 358.07 42.6843C358.04 42.6748 358.032 42.6725 358.001 42.6631C357.949 42.6468 357.986 42.6583 357.934 42.6422C357.913 42.6358 357.92 42.6381 357.9 42.6318C357.883 42.6267 357.883 42.6267 357.867 42.6216C357.865 42.6211 357.864 42.6207 357.862 42.6203C357.861 42.6199 357.86 42.6194 357.858 42.619C357.857 42.6186 357.855 42.6181 357.854 42.6177C357.853 42.6173 357.851 42.6169 357.85 42.6165C357.835 42.6119 357.848 42.6159 357.833 42.6114C357.815 42.6057 357.819 42.6069 357.801 42.6013C357.658 42.5574 357.813 42.605 357.672 42.5616L356.495 46.3847ZM359.034 47.166C361.441 47.9064 363.962 48.606 366.598 49.265L367.569 45.3844C364.996 44.7413 362.544 44.0607 360.211 43.3428L359.034 47.166ZM366.621 49.2705C369.313 49.9102 371.596 50.2622 373.412 50.2622V46.2622C372.05 46.2622 370.114 45.9892 367.546 45.3789L366.621 49.2705ZM373.412 50.2622C374.852 50.2622 376.268 50.0542 377.383 49.3739C378.659 48.5957 379.318 47.3357 379.318 45.8794H375.318C375.318 45.9986 375.295 46.0055 375.319 45.9628C375.344 45.9164 375.364 45.9201 375.3 45.9591C375.113 46.0731 374.575 46.2622 373.412 46.2622V50.2622ZM379.318 45.8794C379.318 44.6271 378.742 43.5495 377.994 42.6808C377.249 41.8139 376.22 41.0176 375.008 40.2705L372.909 43.6758C373.937 44.3089 374.587 44.8537 374.962 45.2889C375.144 45.5005 375.235 45.6577 375.28 45.7573C375.301 45.8056 375.31 45.8382 375.314 45.856C375.316 45.865 375.317 45.8711 375.317 45.8745C375.318 45.8778 375.318 45.8793 375.318 45.8794H379.318ZM375.007 40.2698C373.942 39.6147 372.74 38.94 371.405 38.2456L369.559 41.7945C370.828 42.4542 371.944 43.0816 372.91 43.6765L375.007 40.2698ZM371.419 38.2533C370.189 37.6007 368.929 36.8701 367.639 36.0603L365.513 39.4485C366.878 40.3054 368.222 41.0851 369.545 41.7867L371.419 38.2533ZM367.625 36.0515C364.556 34.1611 362.14 31.9839 360.333 29.5357L357.115 31.9106C359.267 34.827 362.085 37.3373 365.527 39.4572L367.625 36.0515ZM360.341 29.5459C358.69 27.2783 357.794 24.3322 357.794 20.5669H353.794C353.794 24.9787 354.852 28.8034 357.107 31.9004L360.341 29.5459ZM357.794 20.5669C357.794 16.4691 358.868 13.1921 360.903 10.6009C362.951 7.9922 366.107 5.91062 370.555 4.46061L369.315 0.657555C364.336 2.28046 360.422 4.73664 357.757 8.13053C355.078 11.542 353.794 15.7324 353.794 20.5669H357.794ZM370.556 4.46029C374.142 3.28934 378.339 2.68408 383.177 2.68408V-1.31592C378.015 -1.31592 373.384 -0.671176 369.314 0.657871L370.556 4.46029ZM383.177 2.68408C388.051 2.68408 393.161 3.23966 398.509 4.36033L399.33 0.445338C393.741 -0.725663 388.355 -1.31592 383.177 -1.31592V2.68408ZM398.51 4.36041C399.642 4.59732 400.313 4.75263 400.597 4.83369L401.695 0.987597C401.25 0.860322 400.437 0.677095 399.329 0.445251L398.51 4.36041ZM399.146 2.91064V20.8403H403.146V2.91064L399.146 2.91064ZM401.563 18.8843C394.476 17.373 389.202 16.5747 385.873 16.5747V20.5747C388.741 20.5747 393.65 21.2868 400.729 22.7964L401.563 18.8843ZM385.873 16.5747C384.504 16.5747 383.122 16.8015 382.035 17.5579L384.319 20.8415C384.43 20.7646 384.845 20.5747 385.873 20.5747V16.5747ZM382.035 17.5579C381.131 18.1867 380.279 19.1907 380.279 20.606H384.279C384.279 20.6705 384.269 20.7388 384.249 20.8044C384.23 20.869 384.205 20.9149 384.189 20.9405C384.16 20.9861 384.172 20.9438 384.319 20.8415L382.035 17.5579ZM380.279 20.606C380.279 21.8189 380.884 22.8261 381.58 23.5919L384.54 20.9012C384.377 20.7216 384.306 20.6022 384.28 20.5469C384.257 20.4984 384.279 20.5241 384.279 20.606H380.279ZM381.612 23.6259C382.405 24.4586 383.59 25.1466 384.936 25.7508L386.575 22.1017C385.368 21.5601 384.757 21.1283 384.508 20.8673L381.612 23.6259ZM384.968 25.7646C386.212 26.298 387.671 26.9633 389.348 27.7627L391.069 24.1523C389.36 23.3372 387.851 22.6483 386.543 22.088L384.968 25.7646ZM389.381 27.7783C391.031 28.5281 392.558 29.3362 393.967 30.2009L396.06 26.7922C394.499 25.8341 392.824 24.9494 391.036 24.1368L389.381 27.7783ZM393.968 30.2015C400.115 33.9717 403.013 38.9492 403.013 45.2544H407.013C407.013 37.393 403.245 31.1986 396.059 26.7917L393.968 30.2015ZM403.013 45.2544C403.013 51.4729 400.945 56.0547 396.957 59.2865L399.475 62.3942C404.55 58.2822 407.013 52.4734 407.013 45.2544H403.013ZM396.971 59.2751C392.852 62.5515 387.017 64.323 379.225 64.3482L379.238 68.3481C387.593 68.3212 394.414 66.4208 399.461 62.4055L396.971 59.2751ZM418.755 2.44189V0.441895H416.755V2.44189H418.755ZM477.818 2.44189L479.818 2.44189V0.441895L477.818 0.441895V2.44189ZM477.818 22.6763V24.6763H479.818V22.6763H477.818ZM460.435 22.6763V20.6763H458.435V22.6763H460.435ZM460.435 64.8247V66.8247H462.435V64.8247H460.435ZM436.138 64.8247H434.138V66.8247H436.138V64.8247ZM436.138 22.6763H438.138V20.6763H436.138V22.6763ZM418.755 22.6763H416.755V24.6763H418.755V22.6763ZM418.755 4.44189L477.818 4.44189V0.441895L418.755 0.441895V4.44189ZM475.818 2.44189V22.6763H479.818V2.44189L475.818 2.44189ZM477.818 20.6763L460.435 20.6763V24.6763H477.818V20.6763ZM458.435 22.6763V64.8247H462.435V22.6763H458.435ZM460.435 62.8247L436.138 62.8247V66.8247H460.435V62.8247ZM438.138 64.8247V22.6763H434.138V64.8247H438.138ZM436.138 20.6763H418.755V24.6763L436.138 24.6763V20.6763ZM420.755 22.6763V2.44189H416.755V22.6763H420.755ZM523.388 53.5356L522.104 52.0023L521.388 52.6018V53.5356H523.388ZM547.177 33.6138L545.893 32.0804L545.893 32.0804L547.177 33.6138ZM550.458 21.4263L549.044 22.8405L549.053 22.8497L549.063 22.8587L550.458 21.4263ZM542.216 20.6841L542.837 22.5855L542.849 22.5814L542.216 20.6841ZM527.802 30.5669L526.162 31.7109L527.574 33.7356L529.262 31.9345L527.802 30.5669ZM518.623 17.4028L516.911 16.3689L516.239 17.4811L516.982 18.5468L518.623 17.4028ZM532.841 5.13721L532.001 3.32217L532.841 5.13721ZM571.044 5.80127L569.909 7.44755L569.909 7.44795L571.044 5.80127ZM572.412 35.6841L570.993 34.274L570.99 34.2778L572.412 35.6841ZM565.302 41.895L566.483 43.5095L566.494 43.5012L565.302 41.895ZM559.638 46.1138L558.419 44.5285L553.758 48.1138H559.638V46.1138ZM579.482 46.1138H581.482V44.1138H579.482V46.1138ZM579.482 64.8247V66.8247H581.482V64.8247H579.482ZM523.388 64.8247H521.388V66.8247H523.388V64.8247ZM524.672 55.069L548.461 35.1471L545.893 32.0804L522.104 52.0023L524.672 55.069ZM548.461 35.1471C551.915 32.255 553.982 28.9457 553.982 25.2153L549.982 25.2153C549.982 27.3183 548.846 29.6079 545.893 32.0804L548.461 35.1471ZM553.982 25.2153C553.982 23.1894 553.291 21.3933 551.854 19.9938L549.063 22.8587C549.658 23.4384 549.982 24.1684 549.982 25.2153L553.982 25.2153ZM551.873 20.0121C550.476 18.6158 548.703 17.9419 546.708 17.9419V21.9419C547.735 21.9419 548.461 22.2576 549.044 22.8405L551.873 20.0121ZM546.708 17.9419C544.975 17.9419 543.265 18.2264 541.584 18.7867L542.849 22.5814C544.137 22.1522 545.421 21.9419 546.708 21.9419V17.9419ZM541.596 18.7828C536.244 20.5292 531.166 24.0534 526.343 29.1993L529.262 31.9345C533.762 27.1325 538.293 24.0681 542.837 22.5854L541.596 18.7828ZM529.443 29.4229L520.263 16.2588L516.982 18.5468L526.162 31.7109L529.443 29.4229ZM520.335 18.4368C523.279 13.5611 527.693 9.7239 533.681 6.95225L532.001 3.32217C525.386 6.38385 520.32 10.7237 516.911 16.3689L520.335 18.4368ZM533.681 6.95225C539.713 4.16083 546.144 2.76221 552.998 2.76221V-1.23779C545.58 -1.23779 538.574 0.280249 532.001 3.32217L533.681 6.95225ZM552.998 2.76221C559.84 2.76221 565.438 4.36331 569.909 7.44755L572.18 4.15499C566.911 0.520476 560.478 -1.23779 552.998 -1.23779V2.76221ZM569.909 7.44795C574.73 10.7712 577.091 15.2716 577.091 21.1528H581.091C581.091 13.9612 578.088 8.22722 572.18 4.15459L569.909 7.44795ZM577.091 21.1528C577.091 25.724 575.158 30.0846 570.993 34.274L573.83 37.0942C578.571 32.3252 581.091 26.9984 581.091 21.1528H577.091ZM570.99 34.2778C568.737 36.5557 566.444 38.5579 564.111 40.2888L566.494 43.5012C569.005 41.6384 571.451 39.4999 573.834 37.0904L570.99 34.2778ZM564.122 40.2806C561.695 42.055 559.792 43.4723 558.419 44.5285L560.858 47.699C562.193 46.6719 564.066 45.2767 566.483 43.5095L564.122 40.2806ZM559.638 48.1138H579.482V44.1138H559.638V48.1138ZM577.482 46.1138V64.8247H581.482V46.1138H577.482ZM579.482 62.8247H523.388V66.8247H579.482V62.8247ZM525.388 64.8247V53.5356H521.388V64.8247H525.388ZM593.224 38.0278L591.577 36.8932L591.224 37.4056V38.0278H593.224ZM617.794 2.36377V0.36377H616.744L616.147 1.2291L617.794 2.36377ZM655.294 2.36377H657.294V0.36377H655.294V2.36377ZM655.294 37.4028H653.294V39.4028H655.294V37.4028ZM660.841 37.4028H662.841V35.4028H660.841V37.4028ZM660.841 56.4263V58.4263H662.841V56.4263H660.841ZM655.294 56.4263V54.4263H653.294V56.4263H655.294ZM655.294 64.8247V66.8247H657.294V64.8247H655.294ZM628.927 64.8247H626.927V66.8247H628.927V64.8247ZM628.927 56.4263H630.927V54.4263H628.927V56.4263ZM593.224 56.4263H591.224V58.4263H593.224V56.4263ZM617.56 38.0278L615.877 36.9469L613.898 40.0278H617.56V38.0278ZM628.927 38.0278V40.0278H630.927V38.0278H628.927ZM628.927 20.3325H630.927V13.5187L627.245 19.2516L628.927 20.3325ZM594.871 39.1625L619.441 3.49843L616.147 1.2291L591.577 36.8932L594.871 39.1625ZM617.794 4.36377L655.294 4.36377V0.36377L617.794 0.36377V4.36377ZM653.294 2.36377V37.4028H657.294V2.36377L653.294 2.36377ZM655.294 39.4028H660.841V35.4028H655.294V39.4028ZM658.841 37.4028V56.4263H662.841V37.4028H658.841ZM660.841 54.4263H655.294V58.4263H660.841V54.4263ZM653.294 56.4263V64.8247H657.294V56.4263H653.294ZM655.294 62.8247H628.927V66.8247H655.294V62.8247ZM630.927 64.8247V56.4263H626.927V64.8247H630.927ZM628.927 54.4263H593.224V58.4263H628.927V54.4263ZM595.224 56.4263V38.0278H591.224V56.4263H595.224ZM617.56 40.0278H628.927V36.0278H617.56V40.0278ZM630.927 38.0278V20.3325H626.927V38.0278H630.927ZM627.245 19.2516L615.877 36.9469L619.243 39.1088L630.61 21.4135L627.245 19.2516Z"
        fill="black" mask="url(#path-1-outside-1_61_2)" />
    <mask id="path-3-outside-2_61_2" maskUnits="userSpaceOnUse" x="3.26672" y="1.93848" width="655" height="71"
        fill="black">
        <rect fill="white" x="3.26672" y="1.93848" width="655" height="71" />
        <path
            d="M6.07141 6.55566C21.8787 5.38379 32.1912 4.79785 37.0089 4.79785C41.8527 4.79785 45.6678 5.25358 48.4542 6.16504C51.2667 7.05046 53.7797 8.28743 55.9933 9.87598C60.2902 12.9229 63.5323 16.9723 65.7198 22.0244C67.9334 27.0765 69.0402 32.1937 69.0402 37.376C69.0402 42.5583 68.1938 47.0895 66.5011 50.9697C64.8344 54.8239 62.5167 58.0791 59.548 60.7354C53.4803 66.2301 45.6287 68.9645 35.9933 68.9385H6.07141L6.07141 6.55566ZM30.3683 26.3604L30.3683 50.1494C31.7485 48.9775 33.2459 47.8187 34.8605 46.6729C41.0584 42.2197 44.1573 37.5583 44.1573 32.6885C44.1573 30.3187 43.4542 28.1312 42.048 26.126C40.6417 24.0947 38.8058 23.0791 36.5402 23.0791C34.3006 23.0791 32.2433 24.1729 30.3683 26.3604ZM84.7745 6.55566L129.735 6.55566V24.5244H109.071V29.6416H129.657V44.9541H109.071V50.8525H131.103V68.9385H84.7745V6.55566ZM172.892 6.55566L182.618 26.126L191.681 6.55566L214.571 6.55566L183.907 68.8604C183.23 70.1364 182.045 70.7744 180.353 70.7744C178.686 70.7744 177.527 70.1364 176.876 68.8604L144.571 6.55566L172.892 6.55566ZM228.431 6.55566L273.314 6.55566V24.2119H252.728V29.9932H273.314V47.0244H252.728V68.9385H228.431V6.55566ZM288.15 6.55566L333.11 6.55566V24.5244H312.446V29.6416H333.032V44.9541L312.446 44.9541V50.8525L334.478 50.8525V68.9385L288.15 68.9385V6.55566ZM374.157 70.4619C362.465 70.4619 354.704 69.0166 350.876 66.126V48.2354C350.98 48.2614 351.358 48.3786 352.009 48.5869C352.686 48.7952 353.532 49.0557 354.548 49.3682C356.918 50.0973 359.405 50.7874 362.009 51.4385C364.639 52.0635 366.748 52.376 368.337 52.376C370.941 52.376 372.243 51.5817 372.243 49.9932C372.243 48.7692 371.123 47.4671 368.884 46.0869C367.868 45.4619 366.709 44.8109 365.407 44.1338C364.131 43.4567 362.829 42.7015 361.501 41.8682C358.246 39.863 355.629 37.5192 353.65 34.8369C351.696 32.1546 350.72 28.7692 350.72 24.6807C350.72 15.7484 355.433 9.74577 364.86 6.67285C368.689 5.42285 373.103 4.79785 378.103 4.79785C383.129 4.79785 388.376 5.37077 393.845 6.5166C394.965 6.75098 395.707 6.92025 396.071 7.02441V24.9541C388.988 23.4437 383.897 22.6885 380.798 22.6885C379.6 22.6885 378.702 22.8968 378.103 23.3135C377.504 23.7301 377.204 24.1989 377.204 24.7197C377.204 25.2406 377.465 25.7874 377.985 26.3604C378.506 26.9072 379.405 27.4671 380.681 28.04C381.957 28.5869 383.441 29.264 385.134 30.0713C386.853 30.8525 388.454 31.6989 389.939 32.6104C396.605 36.6989 399.939 42.2848 399.939 49.3682C399.939 56.0869 397.673 61.2822 393.142 64.9541C388.558 68.5999 382.23 70.4359 374.157 70.4619ZM413.681 6.55566L472.743 6.55566V26.79L455.36 26.79V68.9385H431.064V26.79H413.681V6.55566Z" />
        <path
            d="M518.314 57.6494L542.103 37.7275C545.306 35.0452 546.907 32.2458 546.907 29.3291C546.907 27.7926 546.4 26.5296 545.384 25.54C544.394 24.5505 543.144 24.0557 541.634 24.0557C540.123 24.0557 538.626 24.3031 537.142 24.7979C532.194 26.4124 527.389 29.7067 522.728 34.6807L513.548 21.5166C516.725 16.2562 521.465 12.1676 527.767 9.25098C534.069 6.33431 540.788 4.87598 547.923 4.87598C555.084 4.87598 561.1 6.55566 565.97 9.91504C571.334 13.613 574.017 18.7301 574.017 25.2666C574.017 30.4749 571.79 35.3187 567.337 39.7979C565.019 42.1416 562.65 44.2119 560.228 46.0088C557.806 47.7796 555.918 49.1859 554.564 50.2275H574.407V68.9385H518.314V57.6494ZM588.15 42.1416L612.72 6.47754L650.22 6.47754V41.5166H655.767V60.54H650.22V68.9385H623.853V60.54H588.15V42.1416ZM612.485 42.1416H623.853V24.4463L612.485 42.1416Z" />
    </mask>
    <path
        d="M6.07141 6.55566C21.8787 5.38379 32.1912 4.79785 37.0089 4.79785C41.8527 4.79785 45.6678 5.25358 48.4542 6.16504C51.2667 7.05046 53.7797 8.28743 55.9933 9.87598C60.2902 12.9229 63.5323 16.9723 65.7198 22.0244C67.9334 27.0765 69.0402 32.1937 69.0402 37.376C69.0402 42.5583 68.1938 47.0895 66.5011 50.9697C64.8344 54.8239 62.5167 58.0791 59.548 60.7354C53.4803 66.2301 45.6287 68.9645 35.9933 68.9385H6.07141L6.07141 6.55566ZM30.3683 26.3604L30.3683 50.1494C31.7485 48.9775 33.2459 47.8187 34.8605 46.6729C41.0584 42.2197 44.1573 37.5583 44.1573 32.6885C44.1573 30.3187 43.4542 28.1312 42.048 26.126C40.6417 24.0947 38.8058 23.0791 36.5402 23.0791C34.3006 23.0791 32.2433 24.1729 30.3683 26.3604ZM84.7745 6.55566L129.735 6.55566V24.5244H109.071V29.6416H129.657V44.9541H109.071V50.8525H131.103V68.9385H84.7745V6.55566ZM172.892 6.55566L182.618 26.126L191.681 6.55566L214.571 6.55566L183.907 68.8604C183.23 70.1364 182.045 70.7744 180.353 70.7744C178.686 70.7744 177.527 70.1364 176.876 68.8604L144.571 6.55566L172.892 6.55566ZM228.431 6.55566L273.314 6.55566V24.2119H252.728V29.9932H273.314V47.0244H252.728V68.9385H228.431V6.55566ZM288.15 6.55566L333.11 6.55566V24.5244H312.446V29.6416H333.032V44.9541L312.446 44.9541V50.8525L334.478 50.8525V68.9385L288.15 68.9385V6.55566ZM374.157 70.4619C362.465 70.4619 354.704 69.0166 350.876 66.126V48.2354C350.98 48.2614 351.358 48.3786 352.009 48.5869C352.686 48.7952 353.532 49.0557 354.548 49.3682C356.918 50.0973 359.405 50.7874 362.009 51.4385C364.639 52.0635 366.748 52.376 368.337 52.376C370.941 52.376 372.243 51.5817 372.243 49.9932C372.243 48.7692 371.123 47.4671 368.884 46.0869C367.868 45.4619 366.709 44.8109 365.407 44.1338C364.131 43.4567 362.829 42.7015 361.501 41.8682C358.246 39.863 355.629 37.5192 353.65 34.8369C351.696 32.1546 350.72 28.7692 350.72 24.6807C350.72 15.7484 355.433 9.74577 364.86 6.67285C368.689 5.42285 373.103 4.79785 378.103 4.79785C383.129 4.79785 388.376 5.37077 393.845 6.5166C394.965 6.75098 395.707 6.92025 396.071 7.02441V24.9541C388.988 23.4437 383.897 22.6885 380.798 22.6885C379.6 22.6885 378.702 22.8968 378.103 23.3135C377.504 23.7301 377.204 24.1989 377.204 24.7197C377.204 25.2406 377.465 25.7874 377.985 26.3604C378.506 26.9072 379.405 27.4671 380.681 28.04C381.957 28.5869 383.441 29.264 385.134 30.0713C386.853 30.8525 388.454 31.6989 389.939 32.6104C396.605 36.6989 399.939 42.2848 399.939 49.3682C399.939 56.0869 397.673 61.2822 393.142 64.9541C388.558 68.5999 382.23 70.4359 374.157 70.4619ZM413.681 6.55566L472.743 6.55566V26.79L455.36 26.79V68.9385H431.064V26.79H413.681V6.55566Z"
        fill="#E7BB3E" />
    <path
        d="M518.314 57.6494L542.103 37.7275C545.306 35.0452 546.907 32.2458 546.907 29.3291C546.907 27.7926 546.4 26.5296 545.384 25.54C544.394 24.5505 543.144 24.0557 541.634 24.0557C540.123 24.0557 538.626 24.3031 537.142 24.7979C532.194 26.4124 527.389 29.7067 522.728 34.6807L513.548 21.5166C516.725 16.2562 521.465 12.1676 527.767 9.25098C534.069 6.33431 540.788 4.87598 547.923 4.87598C555.084 4.87598 561.1 6.55566 565.97 9.91504C571.334 13.613 574.017 18.7301 574.017 25.2666C574.017 30.4749 571.79 35.3187 567.337 39.7979C565.019 42.1416 562.65 44.2119 560.228 46.0088C557.806 47.7796 555.918 49.1859 554.564 50.2275H574.407V68.9385H518.314V57.6494ZM588.15 42.1416L612.72 6.47754L650.22 6.47754V41.5166H655.767V60.54H650.22V68.9385H623.853V60.54H588.15V42.1416ZM612.485 42.1416H623.853V24.4463L612.485 42.1416Z"
        fill="#C14500" />
    <path
        d="M6.07141 6.55566L5.92355 4.56114L4.07141 4.69845V6.55566H6.07141ZM48.4542 6.16504L47.8324 8.06593L47.843 8.06939L47.8537 8.07274L48.4542 6.16504ZM55.9933 9.87598L54.8272 11.5009L54.8364 11.5074L55.9933 9.87598ZM65.7198 22.0244L63.8845 22.8191L63.888 22.827L65.7198 22.0244ZM66.5011 50.9697L64.6679 50.17L64.6654 50.1759L66.5011 50.9697ZM59.548 60.7354L58.2144 59.2448L58.2055 59.2529L59.548 60.7354ZM35.9933 68.9385L35.9987 66.9385H35.9933V68.9385ZM6.07141 68.9385H4.07141V70.9385H6.07141V68.9385ZM30.3683 26.3604L28.8498 25.0588L28.3683 25.6205V26.3604H30.3683ZM30.3683 50.1494H28.3683V54.4712L31.6627 51.674L30.3683 50.1494ZM34.8605 46.6729L36.018 48.3039L36.0275 48.2971L34.8605 46.6729ZM42.048 26.126L40.4036 27.2644L40.4105 27.2743L42.048 26.126ZM6.21928 8.55019C22.044 7.37703 32.2792 6.79785 37.0089 6.79785V2.79785C32.1032 2.79785 21.7134 3.39055 5.92355 4.56114L6.21928 8.55019ZM37.0089 6.79785C41.7602 6.79785 45.3349 7.24897 47.8324 8.06593L49.076 4.26415C46.0007 3.25819 41.9451 2.79785 37.0089 2.79785V6.79785ZM47.8537 8.07274C50.4804 8.89969 52.7996 10.0457 54.8272 11.5009L57.1594 8.2511C54.7599 6.52914 52.053 5.20122 49.0548 4.25734L47.8537 8.07274ZM54.8364 11.5074C58.8211 14.3329 61.8355 18.0869 63.8845 22.8191L67.5552 21.2297C65.2292 15.8578 61.7592 11.5128 57.1501 8.24451L54.8364 11.5074ZM63.888 22.827C65.9979 27.6426 67.0402 32.4875 67.0402 37.376H71.0402C71.0402 31.8999 69.8689 26.5104 67.5517 21.2218L63.888 22.827ZM67.0402 37.376C67.0402 42.3432 66.2289 46.5919 64.6679 50.17L68.3343 51.7694C70.1588 47.5871 71.0402 42.7733 71.0402 37.376H67.0402ZM64.6654 50.1759C63.1073 53.7789 60.9557 56.7921 58.2144 59.2449L60.8816 62.2258C64.0778 59.3661 66.5615 55.8689 68.3368 51.7635L64.6654 50.1759ZM58.2055 59.2529C52.5709 64.3554 45.2297 66.9634 35.9987 66.9385L35.9879 70.9385C46.0277 70.9656 54.3896 68.1049 60.8905 62.2178L58.2055 59.2529ZM35.9933 66.9385H6.07141V70.9385H35.9933V66.9385ZM8.07141 68.9385L8.07141 6.55566H4.07141L4.07141 68.9385H8.07141ZM28.3683 26.3604L28.3683 50.1494H32.3683V26.3604H28.3683ZM31.6627 51.674C32.995 50.5428 34.4462 49.4193 36.018 48.3039L33.703 45.0418C32.0455 46.2181 30.502 47.4122 29.0738 48.6248L31.6627 51.674ZM36.0275 48.2971C42.4441 43.6868 46.1573 38.5025 46.1573 32.6885H42.1573C42.1573 36.6141 39.6726 40.7527 33.6935 45.0486L36.0275 48.2971ZM46.1573 32.6885C46.1573 29.8933 45.3192 27.3073 43.6854 24.9776L40.4105 27.2743C41.5892 28.9551 42.1573 30.744 42.1573 32.6885H46.1573ZM43.6924 24.9876C41.9522 22.474 39.5288 21.0791 36.5402 21.0791V25.0791C38.0827 25.0791 39.3312 25.7154 40.4036 27.2644L43.6924 24.9876ZM36.5402 21.0791C33.5584 21.0791 30.988 22.5642 28.8498 25.0588L31.8868 27.6619C33.4986 25.7815 35.0427 25.0791 36.5402 25.0791V21.0791ZM84.7745 6.55566V4.55566H82.7745V6.55566H84.7745ZM129.735 6.55566H131.735V4.55566H129.735V6.55566ZM129.735 24.5244V26.5244H131.735V24.5244H129.735ZM109.071 24.5244V22.5244H107.071V24.5244H109.071ZM109.071 29.6416H107.071V31.6416H109.071V29.6416ZM129.657 29.6416H131.657V27.6416H129.657V29.6416ZM129.657 44.9541V46.9541H131.657V44.9541H129.657ZM109.071 44.9541V42.9541H107.071V44.9541H109.071ZM109.071 50.8525H107.071V52.8525H109.071V50.8525ZM131.103 50.8525H133.103V48.8525H131.103V50.8525ZM131.103 68.9385V70.9385H133.103V68.9385H131.103ZM84.7745 68.9385H82.7745V70.9385H84.7745V68.9385ZM84.7745 8.55566L129.735 8.55566V4.55566L84.7745 4.55566V8.55566ZM127.735 6.55566V24.5244H131.735V6.55566H127.735ZM129.735 22.5244H109.071V26.5244H129.735V22.5244ZM107.071 24.5244V29.6416H111.071V24.5244H107.071ZM109.071 31.6416H129.657V27.6416H109.071V31.6416ZM127.657 29.6416V44.9541H131.657V29.6416H127.657ZM129.657 42.9541H109.071V46.9541H129.657V42.9541ZM107.071 44.9541V50.8525H111.071V44.9541H107.071ZM109.071 52.8525H131.103V48.8525H109.071V52.8525ZM129.103 50.8525V68.9385H133.103V50.8525H129.103ZM131.103 66.9385H84.7745V70.9385H131.103V66.9385ZM86.7745 68.9385V6.55566H82.7745V68.9385H86.7745ZM172.892 6.55566L174.683 5.66553L174.131 4.55566H172.892V6.55566ZM182.618 26.126L180.827 27.0161L182.682 30.7479L184.433 26.9664L182.618 26.126ZM191.681 6.55566V4.55566H190.403L189.866 5.71525L191.681 6.55566ZM214.571 6.55566L216.366 7.43882L217.785 4.55566L214.571 4.55566V6.55566ZM183.907 68.8604L185.674 69.7978L185.688 69.7709L185.702 69.7435L183.907 68.8604ZM176.876 68.8604L178.658 67.9514L178.652 67.9397L176.876 68.8604ZM144.571 6.55566V4.55566H141.282L142.796 7.47627L144.571 6.55566ZM171.101 7.4458L180.827 27.0161L184.409 25.2358L174.683 5.66553L171.101 7.4458ZM184.433 26.9664L193.496 7.39608L189.866 5.71525L180.803 25.2856L184.433 26.9664ZM191.681 8.55566L214.571 8.55566V4.55566L191.681 4.55566V8.55566ZM212.777 5.6725L182.113 67.9772L185.702 69.7435L216.366 7.43882L212.777 5.6725ZM182.141 67.9229C181.877 68.4197 181.459 68.7744 180.353 68.7744V72.7744C182.632 72.7744 184.583 71.8531 185.674 69.7978L182.141 67.9229ZM180.353 68.7744C179.771 68.7744 179.415 68.6632 179.198 68.5439C178.998 68.434 178.817 68.264 178.658 67.9514L175.095 69.7693C175.586 70.7328 176.31 71.5198 177.269 72.0479C178.211 72.5666 179.268 72.7744 180.353 72.7744V68.7744ZM178.652 67.9397L146.347 5.63506L142.796 7.47627L175.101 69.781L178.652 67.9397ZM144.571 8.55566L172.892 8.55566V4.55566L144.571 4.55566V8.55566ZM228.431 6.55566V4.55566H226.431V6.55566H228.431ZM273.314 6.55566H275.314V4.55566H273.314V6.55566ZM273.314 24.2119V26.2119H275.314V24.2119H273.314ZM252.728 24.2119V22.2119H250.728V24.2119H252.728ZM252.728 29.9932H250.728V31.9932H252.728V29.9932ZM273.314 29.9932H275.314V27.9932H273.314V29.9932ZM273.314 47.0244V49.0244H275.314V47.0244H273.314ZM252.728 47.0244V45.0244H250.728V47.0244H252.728ZM252.728 68.9385V70.9385H254.728V68.9385H252.728ZM228.431 68.9385H226.431V70.9385H228.431V68.9385ZM228.431 8.55566L273.314 8.55566V4.55566L228.431 4.55566V8.55566ZM271.314 6.55566V24.2119H275.314V6.55566H271.314ZM273.314 22.2119H252.728V26.2119H273.314V22.2119ZM250.728 24.2119V29.9932H254.728V24.2119H250.728ZM252.728 31.9932H273.314V27.9932H252.728V31.9932ZM271.314 29.9932V47.0244H275.314V29.9932H271.314ZM273.314 45.0244H252.728V49.0244H273.314V45.0244ZM250.728 47.0244V68.9385H254.728V47.0244H250.728ZM252.728 66.9385H228.431V70.9385H252.728V66.9385ZM230.431 68.9385V6.55566H226.431V68.9385H230.431ZM288.15 6.55566V4.55566H286.15V6.55566H288.15ZM333.11 6.55566H335.11V4.55566H333.11V6.55566ZM333.11 24.5244V26.5244H335.11V24.5244H333.11ZM312.446 24.5244V22.5244H310.446V24.5244H312.446ZM312.446 29.6416H310.446V31.6416H312.446V29.6416ZM333.032 29.6416H335.032V27.6416H333.032V29.6416ZM333.032 44.9541V46.9541H335.032V44.9541H333.032ZM312.446 44.9541V42.9541H310.446V44.9541H312.446ZM312.446 50.8525H310.446V52.8525H312.446V50.8525ZM334.478 50.8525H336.478V48.8525H334.478V50.8525ZM334.478 68.9385V70.9385H336.478V68.9385H334.478ZM288.15 68.9385H286.15V70.9385H288.15V68.9385ZM288.15 8.55566L333.11 8.55566V4.55566L288.15 4.55566V8.55566ZM331.11 6.55566V24.5244H335.11V6.55566H331.11ZM333.11 22.5244H312.446V26.5244H333.11V22.5244ZM310.446 24.5244V29.6416H314.446V24.5244H310.446ZM312.446 31.6416H333.032V27.6416H312.446V31.6416ZM331.032 29.6416V44.9541H335.032V29.6416H331.032ZM333.032 42.9541L312.446 42.9541V46.9541L333.032 46.9541V42.9541ZM310.446 44.9541V50.8525H314.446V44.9541H310.446ZM312.446 52.8525L334.478 52.8525V48.8525L312.446 48.8525V52.8525ZM332.478 50.8525V68.9385H336.478V50.8525H332.478ZM334.478 66.9385L288.15 66.9385V70.9385L334.478 70.9385V66.9385ZM290.15 68.9385V6.55566H286.15V68.9385H290.15ZM374.157 70.4619V72.4619L374.164 72.4619L374.157 70.4619ZM350.876 66.126H348.876V67.1219L349.671 67.7221L350.876 66.126ZM350.876 48.2354L351.361 46.2951L348.876 45.6738V48.2354H350.876ZM352.009 48.5869L351.399 50.4918L351.41 50.4952L351.421 50.4985L352.009 48.5869ZM362.009 51.4385L361.524 53.3788L361.535 53.3816L361.547 53.3843L362.009 51.4385ZM368.884 46.0869L369.933 44.3843L369.932 44.3836L368.884 46.0869ZM365.407 44.1338L364.47 45.9005L364.477 45.9044L364.485 45.9082L365.407 44.1338ZM361.501 41.8682L362.564 40.174L362.557 40.1696L362.55 40.1653L361.501 41.8682ZM353.65 34.8369L352.033 36.0142L352.04 36.0244L353.65 34.8369ZM364.86 6.67285L365.48 8.57438L365.481 8.57406L364.86 6.67285ZM393.845 6.5166L393.435 8.4741L393.435 8.47418L393.845 6.5166ZM396.071 7.02441L398.071 7.02441V5.51581L396.621 5.10137L396.071 7.02441ZM396.071 24.9541L395.654 26.9101L398.071 27.4255V24.9541H396.071ZM377.985 26.3604L376.506 27.7057L376.521 27.7229L376.537 27.7397L377.985 26.3604ZM380.681 28.04L379.862 29.8646L379.877 29.8716L379.893 29.8783L380.681 28.04ZM385.134 30.0713L384.273 31.8765L384.29 31.8844L384.306 31.892L385.134 30.0713ZM389.939 32.6104L388.892 34.3147L388.893 34.3153L389.939 32.6104ZM393.142 64.9541L394.387 66.5193L394.394 66.5137L394.401 66.508L393.142 64.9541ZM374.157 68.4619C368.381 68.4619 363.651 68.104 359.934 67.4117C356.185 66.7135 353.638 65.7053 352.081 64.5299L349.671 67.7221C351.942 69.4372 355.19 70.597 359.201 71.3441C363.245 72.0972 368.241 72.4619 374.157 72.4619V68.4619ZM352.876 66.126V48.2354H348.876V66.126H352.876ZM350.391 50.1756C350.377 50.1722 350.439 50.1891 350.645 50.2529C350.825 50.309 351.076 50.3883 351.399 50.4918L352.618 46.6821C352.008 46.4867 351.546 46.3413 351.361 46.2951L350.391 50.1756ZM351.421 50.4985C351.564 50.5424 351.535 50.5335 351.683 50.579C351.766 50.6046 351.735 50.5952 351.819 50.6212C351.862 50.6342 351.846 50.6295 351.889 50.6427C351.897 50.6451 351.899 50.6457 351.907 50.6481C351.908 50.6484 351.924 50.6532 351.925 50.6535C351.936 50.6569 351.932 50.6557 351.942 50.659C351.949 50.661 351.945 50.6598 351.951 50.6617C351.953 50.6622 351.954 50.6627 351.956 50.6631C351.957 50.6636 351.959 50.664 351.96 50.6645C351.983 50.6716 352.081 50.7015 352.105 50.709C352.195 50.7368 352.162 50.7266 352.254 50.7548C352.44 50.8122 352.372 50.7911 352.563 50.85C352.661 50.8801 352.625 50.869 352.724 50.8995C352.774 50.9148 352.756 50.9092 352.806 50.9247C352.817 50.9282 352.815 50.9275 352.826 50.931C352.839 50.9349 352.834 50.9335 352.847 50.9374C352.86 50.9412 352.855 50.9398 352.868 50.9437C352.875 50.946 352.871 50.9446 352.878 50.9469C352.88 50.9475 352.882 50.948 352.883 50.9485C352.885 50.9491 352.887 50.9496 352.889 50.9501C352.961 50.9724 353.152 51.0312 353.23 51.0551C353.446 51.1215 353.366 51.0969 353.587 51.165C353.699 51.1995 353.658 51.1868 353.771 51.2217C353.771 51.2217 353.958 51.2793 353.96 51.2797L355.136 47.4566C354.867 47.3739 355.027 47.423 354.763 47.3419C354.652 47.3075 354.693 47.3202 354.583 47.2863C354.523 47.268 354.464 47.2499 354.406 47.232C354.393 47.2279 354.398 47.2294 354.384 47.2253C354.376 47.2227 354.371 47.2212 354.363 47.2186C354.361 47.2181 354.359 47.2175 354.357 47.2169C354.355 47.2164 354.354 47.2158 354.352 47.2153C354.34 47.2118 354.352 47.2155 354.341 47.2119C354.34 47.2116 354.321 47.2057 354.319 47.2053C354.234 47.1789 354.319 47.2051 354.234 47.1789C354.215 47.1731 354.083 47.1324 354.065 47.127C353.936 47.0874 353.863 47.0649 353.74 47.0269C353.493 46.951 353.362 46.9108 353.137 46.8414C353.081 46.8243 353.05 46.8147 352.996 46.798C352.965 46.7885 352.957 46.7862 352.927 46.7768C352.874 46.7606 352.911 46.7721 352.859 46.7559C352.838 46.7496 352.846 46.7519 352.825 46.7456C352.809 46.7404 352.809 46.7404 352.792 46.7353C352.791 46.7349 352.789 46.7345 352.788 46.734C352.786 46.7336 352.785 46.7332 352.784 46.7328C352.782 46.7323 352.781 46.7319 352.78 46.7315C352.778 46.7311 352.777 46.7306 352.775 46.7302C352.761 46.7257 352.774 46.7296 352.759 46.7251C352.741 46.7195 352.744 46.7206 352.726 46.715C352.584 46.6712 352.738 46.7188 352.597 46.6754L351.421 50.4985ZM353.96 51.2797C356.366 52.0202 358.888 52.7198 361.524 53.3788L362.494 49.4982C359.922 48.8551 357.469 48.1745 355.136 47.4566L353.96 51.2797ZM361.547 53.3843C364.238 54.024 366.522 54.376 368.337 54.376V50.376C366.975 50.376 365.04 50.103 362.471 49.4927L361.547 53.3843ZM368.337 54.376C369.777 54.376 371.193 54.168 372.308 53.4877C373.584 52.7094 374.243 51.4495 374.243 49.9932H370.243C370.243 50.1124 370.221 50.1193 370.244 50.0766C370.269 50.0302 370.289 50.0339 370.225 50.0729C370.038 50.1868 369.501 50.376 368.337 50.376V54.376ZM374.243 49.9932C374.243 48.7408 373.667 47.6633 372.92 46.7946C372.174 45.9277 371.145 45.1314 369.933 44.3843L367.835 47.7896C368.862 48.4227 369.513 48.9675 369.887 49.4027C370.069 49.6143 370.161 49.7715 370.205 49.8711C370.226 49.9194 370.236 49.9519 370.24 49.9698C370.242 49.9788 370.243 49.9849 370.243 49.9882C370.243 49.9916 370.243 49.9931 370.243 49.9932H374.243ZM369.932 44.3836C368.867 43.7284 367.666 43.0538 366.33 42.3594L364.485 45.9082C365.753 46.5679 366.869 47.1954 367.836 47.7902L369.932 44.3836ZM366.345 42.3671C365.115 41.7145 363.855 40.9838 362.564 40.174L360.438 43.5623C361.804 44.4192 363.148 45.1989 364.47 45.9005L366.345 42.3671ZM362.55 40.1653C359.481 38.2749 357.065 36.0976 355.259 33.6495L352.04 36.0244C354.192 38.9408 357.011 41.451 360.452 43.571L362.55 40.1653ZM355.266 33.6596C353.615 31.3921 352.72 28.446 352.72 24.6807H348.72C348.72 29.0924 349.778 32.9171 352.033 36.0142L355.266 33.6596ZM352.72 24.6807C352.72 20.5829 353.793 17.3059 355.828 14.7147C357.876 12.106 361.032 10.0244 365.48 8.57438L364.241 4.77132C359.262 6.39423 355.347 8.85041 352.682 12.2443C350.003 15.6557 348.72 19.8461 348.72 24.6807H352.72ZM365.481 8.57406C369.067 7.40311 373.265 6.79785 378.103 6.79785V2.79785C372.941 2.79785 368.31 3.44259 364.24 4.77164L365.481 8.57406ZM378.103 6.79785C382.977 6.79785 388.086 7.35343 393.435 8.4741L394.255 4.55911C388.666 3.38811 383.281 2.79785 378.103 2.79785V6.79785ZM393.435 8.47418C394.567 8.71109 395.238 8.8664 395.522 8.94746L396.621 5.10137C396.175 4.97409 395.362 4.79086 394.255 4.55902L393.435 8.47418ZM394.071 7.02441V24.9541H398.071V7.02441L394.071 7.02441ZM396.489 22.9981C389.401 21.4868 384.128 20.6885 380.798 20.6885V24.6885C383.666 24.6885 388.575 25.4006 395.654 26.9101L396.489 22.9981ZM380.798 20.6885C379.43 20.6885 378.048 20.9153 376.961 21.6717L379.245 24.9553C379.355 24.8784 379.77 24.6885 380.798 24.6885V20.6885ZM376.961 21.6717C376.057 22.3004 375.204 23.3045 375.204 24.7197H379.204C379.204 24.7843 379.194 24.8526 379.175 24.9182C379.155 24.9828 379.131 25.0287 379.114 25.0543C379.085 25.0998 379.098 25.0576 379.245 24.9553L376.961 21.6717ZM375.204 24.7197C375.204 25.9327 375.809 26.9398 376.506 27.7057L379.465 25.015C379.302 24.8353 379.232 24.7159 379.205 24.6606C379.182 24.6122 379.204 24.6379 379.204 24.7197H375.204ZM376.537 27.7397C377.33 28.5724 378.516 29.2604 379.862 29.8646L381.5 26.2155C380.294 25.6739 379.682 25.2421 379.434 24.981L376.537 27.7397ZM379.893 29.8783C381.138 30.4118 382.597 31.077 384.273 31.8765L385.995 28.2661C384.286 27.451 382.776 26.7621 381.469 26.2017L379.893 29.8783ZM384.306 31.892C385.956 32.6419 387.484 33.4499 388.892 34.3147L390.985 30.906C389.425 29.9478 387.749 29.0632 385.962 28.2506L384.306 31.892ZM388.893 34.3153C395.041 38.0855 397.939 43.0629 397.939 49.3682H401.939C401.939 41.5067 398.17 35.3123 390.984 30.9054L388.893 34.3153ZM397.939 49.3682C397.939 55.5867 395.871 60.1685 391.883 63.4002L394.401 66.508C399.475 62.396 401.939 56.5871 401.939 49.3682H397.939ZM391.897 63.3889C387.778 66.6653 381.942 68.4368 374.151 68.4619L374.164 72.4619C382.519 72.435 389.339 70.5346 394.387 66.5193L391.897 63.3889ZM413.681 6.55566V4.55566H411.681V6.55566H413.681ZM472.743 6.55566L474.743 6.55566V4.55566L472.743 4.55566V6.55566ZM472.743 26.79V28.79H474.743V26.79H472.743ZM455.36 26.79V24.79H453.36V26.79H455.36ZM455.36 68.9385V70.9385H457.36V68.9385H455.36ZM431.064 68.9385H429.064V70.9385H431.064V68.9385ZM431.064 26.79H433.064V24.79H431.064V26.79ZM413.681 26.79H411.681V28.79H413.681V26.79ZM413.681 8.55566L472.743 8.55566V4.55566L413.681 4.55566V8.55566ZM470.743 6.55566V26.79H474.743V6.55566L470.743 6.55566ZM472.743 24.79L455.36 24.79V28.79H472.743V24.79ZM453.36 26.79V68.9385H457.36V26.79H453.36ZM455.36 66.9385H431.064V70.9385H455.36V66.9385ZM433.064 68.9385V26.79H429.064V68.9385H433.064ZM431.064 24.79H413.681V28.79L431.064 28.79V24.79ZM415.681 26.79V6.55566H411.681V26.79H415.681ZM518.314 57.6494L517.03 56.1161L516.314 56.7156V57.6494H518.314ZM542.103 37.7275L540.819 36.1942L540.819 36.1942L542.103 37.7275ZM545.384 25.54L543.97 26.9543L543.979 26.9634L543.988 26.9725L545.384 25.54ZM537.142 24.7979L537.762 26.6992L537.774 26.6952L537.142 24.7979ZM522.728 34.6807L521.087 35.8246L522.499 37.8494L524.187 36.0483L522.728 34.6807ZM513.548 21.5166L511.836 20.4826L511.164 21.5948L511.907 22.6606L513.548 21.5166ZM527.767 9.25098L526.927 7.43594L527.767 9.25098ZM565.97 9.91504L564.834 11.5613L564.835 11.5617L565.97 9.91504ZM567.337 39.7979L565.919 38.3878L565.915 38.3916L567.337 39.7979ZM560.228 46.0088L561.408 47.6233L561.419 47.615L560.228 46.0088ZM554.564 50.2275L553.344 48.6423L548.683 52.2275H554.564V50.2275ZM574.407 50.2275H576.407V48.2275H574.407V50.2275ZM574.407 68.9385V70.9385H576.407V68.9385H574.407ZM518.314 68.9385H516.314V70.9385H518.314V68.9385ZM519.598 59.1828L543.387 39.2609L540.819 36.1942L517.03 56.1161L519.598 59.1828ZM543.387 39.2609C546.84 36.3688 548.907 33.0595 548.907 29.3291L544.907 29.3291C544.907 31.432 543.771 33.7217 540.819 36.1942L543.387 39.2609ZM548.907 29.3291C548.907 27.3031 548.216 25.5071 546.78 24.1076L543.988 26.9725C544.583 27.5522 544.907 28.2822 544.907 29.3291L548.907 29.3291ZM546.798 24.1258C545.402 22.7296 543.628 22.0557 541.634 22.0557V26.0557C542.66 26.0557 543.387 26.3714 543.97 26.9543L546.798 24.1258ZM541.634 22.0557C539.901 22.0557 538.19 22.3402 536.509 22.9005L537.774 26.6952C539.062 26.2659 540.346 26.0557 541.634 26.0557V22.0557ZM536.521 22.8965C531.169 24.643 526.091 28.1671 521.268 33.313L524.187 36.0483C528.687 31.2463 533.218 28.1819 537.762 26.6992L536.521 22.8965ZM524.368 33.5367L515.188 20.3726L511.907 22.6606L521.087 35.8246L524.368 33.5367ZM515.26 22.5506C518.205 17.6749 522.618 13.8377 528.607 11.066L526.927 7.43594C520.311 10.4976 515.245 14.8375 511.836 20.4826L515.26 22.5506ZM528.607 11.066C534.638 8.2746 541.069 6.87598 547.923 6.87598V2.87598C540.506 2.87598 533.499 4.39402 526.927 7.43594L528.607 11.066ZM547.923 6.87598C554.766 6.87598 560.363 8.47708 564.834 11.5613L567.106 8.26876C561.837 4.63425 555.403 2.87598 547.923 2.87598V6.87598ZM564.835 11.5617C569.656 14.8849 572.017 19.3853 572.017 25.2666H576.017C576.017 18.075 573.013 12.341 567.105 8.26836L564.835 11.5617ZM572.017 25.2666C572.017 29.8377 570.084 34.1984 565.919 38.3878L568.755 41.2079C573.497 36.439 576.017 31.1121 576.017 25.2666H572.017ZM565.915 38.3916C563.662 40.6695 561.369 42.6717 559.036 44.4026L561.419 47.615C563.93 45.7521 566.376 43.6137 568.759 41.2041L565.915 38.3916ZM559.047 44.3943C556.62 46.1688 554.717 47.586 553.344 48.6423L555.783 51.8128C557.118 50.7857 558.991 49.3905 561.408 47.6233L559.047 44.3943ZM554.564 52.2275H574.407V48.2275H554.564V52.2275ZM572.407 50.2275V68.9385H576.407V50.2275H572.407ZM574.407 66.9385H518.314V70.9385H574.407V66.9385ZM520.314 68.9385V57.6494H516.314V68.9385H520.314ZM588.15 42.1416L586.503 41.0069L586.15 41.5194V42.1416H588.15ZM612.72 6.47754V4.47754H611.669L611.073 5.34287L612.72 6.47754ZM650.22 6.47754H652.22V4.47754H650.22V6.47754ZM650.22 41.5166H648.22V43.5166H650.22V41.5166ZM655.767 41.5166H657.767V39.5166H655.767V41.5166ZM655.767 60.54V62.54H657.767V60.54H655.767ZM650.22 60.54V58.54H648.22V60.54H650.22ZM650.22 68.9385V70.9385H652.22V68.9385H650.22ZM623.853 68.9385H621.853V70.9385H623.853V68.9385ZM623.853 60.54H625.853V58.54H623.853V60.54ZM588.15 60.54H586.15V62.54H588.15V60.54ZM612.485 42.1416L610.803 41.0606L608.824 44.1416H612.485V42.1416ZM623.853 42.1416V44.1416H625.853V42.1416H623.853ZM623.853 24.4463H625.853V17.6324L622.17 23.3653L623.853 24.4463ZM589.797 43.2763L614.367 7.6122L611.073 5.34287L586.503 41.0069L589.797 43.2763ZM612.72 8.47754L650.22 8.47754V4.47754L612.72 4.47754V8.47754ZM648.22 6.47754V41.5166H652.22V6.47754L648.22 6.47754ZM650.22 43.5166H655.767V39.5166H650.22V43.5166ZM653.767 41.5166V60.54H657.767V41.5166H653.767ZM655.767 58.54H650.22V62.54H655.767V58.54ZM648.22 60.54V68.9385H652.22V60.54H648.22ZM650.22 66.9385H623.853V70.9385H650.22V66.9385ZM625.853 68.9385V60.54H621.853V68.9385H625.853ZM623.853 58.54H588.15V62.54H623.853V58.54ZM590.15 60.54V42.1416H586.15V60.54H590.15ZM612.485 44.1416H623.853V40.1416H612.485V44.1416ZM625.853 42.1416V24.4463H621.853V42.1416H625.853ZM622.17 23.3653L610.803 41.0606L614.168 43.2226L625.535 25.5272L622.17 23.3653Z"
        fill="black" mask="url(#path-3-outside-2_61_2)" />
    <mask id="path-5-outside-3_61_2" maskUnits="userSpaceOnUse" x="-1.96252" y="8.05225" width="655" height="71"
        fill="black">
        <rect fill="white" x="-1.96252" y="8.05225" width="655" height="71" />
        <path
            d="M0.842163 12.6694C16.6495 11.4976 26.962 10.9116 31.7797 10.9116C36.6234 10.9116 40.4385 11.3674 43.225 12.2788C46.0375 13.1642 48.5505 14.4012 50.764 15.9897C55.0609 19.0366 58.3031 23.0861 60.4906 28.1382C62.7041 33.1903 63.8109 38.3075 63.8109 43.4897C63.8109 48.672 62.9646 53.2033 61.2719 57.0835C59.6052 60.9377 57.2875 64.1929 54.3187 66.8491C48.251 72.3439 40.3995 75.0783 30.764 75.0522H0.842163L0.842163 12.6694ZM25.139 32.4741L25.139 56.2632C26.5192 55.0913 28.0166 53.9325 29.6312 52.7866C35.8291 48.3335 38.9281 43.672 38.9281 38.8022C38.9281 36.4325 38.225 34.245 36.8187 32.2397C35.4125 30.2085 33.5765 29.1929 31.3109 29.1929C29.0713 29.1929 27.014 30.2866 25.139 32.4741ZM79.5453 12.6694L124.506 12.6694V30.6382H103.842V35.7554H124.428V51.0679H103.842V56.9663H125.873V75.0522H79.5453V12.6694ZM167.662 12.6694L177.389 32.2397L186.452 12.6694H209.342L178.678 74.9741C178.001 76.2502 176.816 76.8882 175.123 76.8882C173.457 76.8882 172.298 76.2502 171.647 74.9741L139.342 12.6694L167.662 12.6694ZM223.202 12.6694L268.084 12.6694V30.3257H247.498V36.1069H268.084V53.1382H247.498V75.0522H223.202V12.6694ZM282.92 12.6694L327.881 12.6694V30.6382H307.217V35.7554H327.803V51.0679L307.217 51.0679V56.9663L329.248 56.9663V75.0522L282.92 75.0522V12.6694ZM368.928 76.5757C357.235 76.5757 349.475 75.1304 345.647 72.2397V54.3491C345.751 54.3752 346.129 54.4924 346.78 54.7007C347.457 54.909 348.303 55.1694 349.319 55.4819C351.689 56.2111 354.175 56.9012 356.78 57.5522C359.41 58.1772 361.519 58.4897 363.108 58.4897C365.712 58.4897 367.014 57.6955 367.014 56.1069C367.014 54.883 365.894 53.5809 363.655 52.2007C362.639 51.5757 361.48 50.9246 360.178 50.2476C358.902 49.5705 357.6 48.8153 356.272 47.9819C353.017 45.9767 350.399 43.633 348.42 40.9507C346.467 38.2684 345.491 34.883 345.491 30.7944C345.491 21.8621 350.204 15.8595 359.631 12.7866C363.459 11.5366 367.873 10.9116 372.873 10.9116C377.899 10.9116 383.147 11.4845 388.616 12.6304C389.735 12.8647 390.478 13.034 390.842 13.1382V31.0679C383.759 29.5575 378.668 28.8022 375.569 28.8022C374.371 28.8022 373.472 29.0106 372.873 29.4272C372.274 29.8439 371.975 30.3127 371.975 30.8335C371.975 31.3543 372.235 31.9012 372.756 32.4741C373.277 33.021 374.175 33.5809 375.452 34.1538C376.728 34.7007 378.212 35.3778 379.905 36.1851C381.623 36.9663 383.225 37.8127 384.709 38.7241C391.376 42.8127 394.709 48.3986 394.709 55.4819C394.709 62.2007 392.444 67.396 387.912 71.0679C383.329 74.7137 377.001 76.5496 368.928 76.5757ZM408.452 12.6694L467.514 12.6694V32.9038H450.131V75.0522H425.834V32.9038H408.452V12.6694Z" />
        <path
            d="M513.084 63.7632L536.873 43.8413C540.077 41.159 541.678 38.3595 541.678 35.4429C541.678 33.9064 541.17 32.6434 540.155 31.6538C539.165 30.6642 537.915 30.1694 536.405 30.1694C534.894 30.1694 533.397 30.4168 531.912 30.9116C526.965 32.5262 522.16 35.8205 517.498 40.7944L508.319 27.6304C511.496 22.37 516.235 18.2814 522.537 15.3647C528.84 12.4481 535.558 10.9897 542.694 10.9897C549.855 10.9897 555.871 12.6694 560.741 16.0288C566.105 19.7267 568.787 24.8439 568.787 31.3804C568.787 36.5887 566.561 41.4325 562.108 45.9116C559.79 48.2554 557.42 50.3257 554.998 52.1226C552.577 53.8934 550.689 55.2996 549.334 56.3413H569.178V75.0522H513.084V63.7632ZM582.92 48.2554L607.491 12.5913L644.991 12.5913V47.6304H650.537V66.6538H644.991V75.0522H618.623V66.6538H582.92V48.2554ZM607.256 48.2554H618.623V30.5601L607.256 48.2554Z" />
    </mask>
    <path
        d="M0.842163 12.6694C16.6495 11.4976 26.962 10.9116 31.7797 10.9116C36.6234 10.9116 40.4385 11.3674 43.225 12.2788C46.0375 13.1642 48.5505 14.4012 50.764 15.9897C55.0609 19.0366 58.3031 23.0861 60.4906 28.1382C62.7041 33.1903 63.8109 38.3075 63.8109 43.4897C63.8109 48.672 62.9646 53.2033 61.2719 57.0835C59.6052 60.9377 57.2875 64.1929 54.3187 66.8491C48.251 72.3439 40.3995 75.0783 30.764 75.0522H0.842163L0.842163 12.6694ZM25.139 32.4741L25.139 56.2632C26.5192 55.0913 28.0166 53.9325 29.6312 52.7866C35.8291 48.3335 38.9281 43.672 38.9281 38.8022C38.9281 36.4325 38.225 34.245 36.8187 32.2397C35.4125 30.2085 33.5765 29.1929 31.3109 29.1929C29.0713 29.1929 27.014 30.2866 25.139 32.4741ZM79.5453 12.6694L124.506 12.6694V30.6382H103.842V35.7554H124.428V51.0679H103.842V56.9663H125.873V75.0522H79.5453V12.6694ZM167.662 12.6694L177.389 32.2397L186.452 12.6694H209.342L178.678 74.9741C178.001 76.2502 176.816 76.8882 175.123 76.8882C173.457 76.8882 172.298 76.2502 171.647 74.9741L139.342 12.6694L167.662 12.6694ZM223.202 12.6694L268.084 12.6694V30.3257H247.498V36.1069H268.084V53.1382H247.498V75.0522H223.202V12.6694ZM282.92 12.6694L327.881 12.6694V30.6382H307.217V35.7554H327.803V51.0679L307.217 51.0679V56.9663L329.248 56.9663V75.0522L282.92 75.0522V12.6694ZM368.928 76.5757C357.235 76.5757 349.475 75.1304 345.647 72.2397V54.3491C345.751 54.3752 346.129 54.4924 346.78 54.7007C347.457 54.909 348.303 55.1694 349.319 55.4819C351.689 56.2111 354.175 56.9012 356.78 57.5522C359.41 58.1772 361.519 58.4897 363.108 58.4897C365.712 58.4897 367.014 57.6955 367.014 56.1069C367.014 54.883 365.894 53.5809 363.655 52.2007C362.639 51.5757 361.48 50.9246 360.178 50.2476C358.902 49.5705 357.6 48.8153 356.272 47.9819C353.017 45.9767 350.399 43.633 348.42 40.9507C346.467 38.2684 345.491 34.883 345.491 30.7944C345.491 21.8621 350.204 15.8595 359.631 12.7866C363.459 11.5366 367.873 10.9116 372.873 10.9116C377.899 10.9116 383.147 11.4845 388.616 12.6304C389.735 12.8647 390.478 13.034 390.842 13.1382V31.0679C383.759 29.5575 378.668 28.8022 375.569 28.8022C374.371 28.8022 373.472 29.0106 372.873 29.4272C372.274 29.8439 371.975 30.3127 371.975 30.8335C371.975 31.3543 372.235 31.9012 372.756 32.4741C373.277 33.021 374.175 33.5809 375.452 34.1538C376.728 34.7007 378.212 35.3778 379.905 36.1851C381.623 36.9663 383.225 37.8127 384.709 38.7241C391.376 42.8127 394.709 48.3986 394.709 55.4819C394.709 62.2007 392.444 67.396 387.912 71.0679C383.329 74.7137 377.001 76.5496 368.928 76.5757ZM408.452 12.6694L467.514 12.6694V32.9038H450.131V75.0522H425.834V32.9038H408.452V12.6694Z"
        fill="#58CDC5" />
    <path
        d="M513.084 63.7632L536.873 43.8413C540.077 41.159 541.678 38.3595 541.678 35.4429C541.678 33.9064 541.17 32.6434 540.155 31.6538C539.165 30.6642 537.915 30.1694 536.405 30.1694C534.894 30.1694 533.397 30.4168 531.912 30.9116C526.965 32.5262 522.16 35.8205 517.498 40.7944L508.319 27.6304C511.496 22.37 516.235 18.2814 522.537 15.3647C528.84 12.4481 535.558 10.9897 542.694 10.9897C549.855 10.9897 555.871 12.6694 560.741 16.0288C566.105 19.7267 568.787 24.8439 568.787 31.3804C568.787 36.5887 566.561 41.4325 562.108 45.9116C559.79 48.2554 557.42 50.3257 554.998 52.1226C552.577 53.8934 550.689 55.2996 549.334 56.3413H569.178V75.0522H513.084V63.7632ZM582.92 48.2554L607.491 12.5913L644.991 12.5913V47.6304H650.537V66.6538H644.991V75.0522H618.623V66.6538H582.92V48.2554ZM607.256 48.2554H618.623V30.5601L607.256 48.2554Z"
        fill="#E7BB3E" />
    <path
        d="M0.842163 12.6694L0.694299 10.6749L-1.15784 10.8122V12.6694H0.842163ZM43.225 12.2788L42.6032 14.1797L42.6138 14.1832L42.6244 14.1865L43.225 12.2788ZM50.764 15.9897L49.5979 17.6147L49.6072 17.6212L50.764 15.9897ZM60.4906 28.1382L58.6552 28.9329L58.6587 28.9408L60.4906 28.1382ZM61.2719 57.0835L59.4387 56.2838L59.4361 56.2897L61.2719 57.0835ZM54.3187 66.8491L52.9851 65.3586L52.9762 65.3667L54.3187 66.8491ZM30.764 75.0522L30.7694 73.0522H30.764V75.0522ZM0.842163 75.0522H-1.15784L-1.15784 77.0522H0.842163V75.0522ZM25.139 32.4741L23.6205 31.1725L23.139 31.7343V32.4741H25.139ZM25.139 56.2632H23.139V60.585L26.4335 57.7878L25.139 56.2632ZM29.6312 52.7866L30.7887 54.4177L30.7982 54.4109L29.6312 52.7866ZM36.8187 32.2397L35.1743 33.3782L35.1813 33.3881L36.8187 32.2397ZM0.990027 14.664C16.8147 13.4908 27.0499 12.9116 31.7797 12.9116V8.91162C26.874 8.91162 16.4842 9.50432 0.694299 10.6749L0.990027 14.664ZM31.7797 12.9116C36.531 12.9116 40.1056 13.3627 42.6032 14.1797L43.8468 10.3779C40.7714 9.37196 36.7158 8.91162 31.7797 8.91162V12.9116ZM42.6244 14.1865C45.2512 15.0135 47.5703 16.1595 49.5979 17.6146L51.9301 14.3649C49.5307 12.6429 46.8238 11.315 43.8255 10.3711L42.6244 14.1865ZM49.6072 17.6212C53.5918 20.4467 56.6063 24.2007 58.6553 28.9329L62.3259 27.3435C59.9999 21.9715 56.53 17.6266 51.9209 14.3583L49.6072 17.6212ZM58.6587 28.9408C60.7686 33.7564 61.8109 38.6012 61.8109 43.4897H65.8109C65.8109 38.0137 64.6397 32.6242 62.3225 27.3356L58.6587 28.9408ZM61.8109 43.4897C61.8109 48.457 60.9996 52.7057 59.4387 56.2838L63.105 57.8832C64.9295 53.7009 65.8109 48.8871 65.8109 43.4897H61.8109ZM59.4361 56.2897C57.8781 59.8927 55.7264 62.9059 52.9851 65.3586L55.6523 68.3396C58.8485 65.4798 61.3323 61.9826 63.1076 57.8773L59.4361 56.2897ZM52.9762 65.3667C47.3417 70.4692 40.0004 73.0772 30.7694 73.0523L30.7586 77.0522C40.7985 77.0794 49.1603 74.2186 55.6612 68.3316L52.9762 65.3667ZM30.764 73.0522H0.842163V77.0522H30.764V73.0522ZM2.84216 75.0522L2.84216 12.6694H-1.15784L-1.15784 75.0522H2.84216ZM23.139 32.4741L23.139 56.2632H27.139L27.139 32.4741H23.139ZM26.4335 57.7878C27.7658 56.6566 29.217 55.5331 30.7887 54.4176L28.4737 51.1556C26.8163 52.3319 25.2727 53.526 23.8446 54.7386L26.4335 57.7878ZM30.7982 54.4109C37.2149 49.8006 40.9281 44.6162 40.9281 38.8022H36.9281C36.9281 42.7278 34.4434 46.8664 28.4642 51.1624L30.7982 54.4109ZM40.9281 38.8022C40.9281 36.0071 40.09 33.421 38.4562 31.0914L35.1813 33.3881C36.36 35.0689 36.9281 36.8578 36.9281 38.8022H40.9281ZM38.4631 31.1013C36.723 28.5878 34.2996 27.1929 31.3109 27.1929V31.1929C32.8535 31.1929 34.102 31.8292 35.1743 33.3782L38.4631 31.1013ZM31.3109 27.1929C28.3292 27.1929 25.7587 28.678 23.6205 31.1725L26.6576 33.7757C28.2694 31.8953 29.8135 31.1929 31.3109 31.1929V27.1929ZM79.5453 12.6694V10.6694H77.5453V12.6694H79.5453ZM124.506 12.6694H126.506V10.6694H124.506V12.6694ZM124.506 30.6382V32.6382H126.506V30.6382H124.506ZM103.842 30.6382V28.6382H101.842V30.6382H103.842ZM103.842 35.7554H101.842V37.7554H103.842V35.7554ZM124.428 35.7554H126.428V33.7554H124.428V35.7554ZM124.428 51.0679V53.0679H126.428V51.0679H124.428ZM103.842 51.0679V49.0679H101.842V51.0679H103.842ZM103.842 56.9663H101.842V58.9663H103.842V56.9663ZM125.873 56.9663H127.873V54.9663H125.873V56.9663ZM125.873 75.0522V77.0522H127.873V75.0522H125.873ZM79.5453 75.0522H77.5453V77.0522H79.5453V75.0522ZM79.5453 14.6694L124.506 14.6694V10.6694L79.5453 10.6694V14.6694ZM122.506 12.6694V30.6382H126.506V12.6694H122.506ZM124.506 28.6382H103.842V32.6382H124.506V28.6382ZM101.842 30.6382V35.7554H105.842V30.6382H101.842ZM103.842 37.7554H124.428V33.7554H103.842V37.7554ZM122.428 35.7554V51.0679H126.428V35.7554H122.428ZM124.428 49.0679H103.842V53.0679H124.428V49.0679ZM101.842 51.0679V56.9663H105.842V51.0679H101.842ZM103.842 58.9663H125.873V54.9663H103.842V58.9663ZM123.873 56.9663V75.0522H127.873V56.9663H123.873ZM125.873 73.0522H79.5453V77.0522H125.873V73.0522ZM81.5453 75.0522V12.6694H77.5453V75.0522H81.5453ZM167.662 12.6694L169.453 11.7793L168.902 10.6694H167.662V12.6694ZM177.389 32.2397L175.598 33.1299L177.453 36.8617L179.204 33.0802L177.389 32.2397ZM186.452 12.6694V10.6694H185.174L184.637 11.829L186.452 12.6694ZM209.342 12.6694L211.137 13.5526L212.556 10.6694L209.342 10.6694V12.6694ZM178.678 74.9741L180.445 75.9116L180.459 75.8846L180.473 75.8573L178.678 74.9741ZM171.647 74.9741L173.428 74.0652L173.422 74.0535L171.647 74.9741ZM139.342 12.6694V10.6694H136.052L137.567 13.59L139.342 12.6694ZM165.871 13.5596L175.598 33.1299L179.18 31.3496L169.453 11.7793L165.871 13.5596ZM179.204 33.0802L188.266 13.5098L184.637 11.829L175.574 31.3993L179.204 33.0802ZM186.452 14.6694L209.342 14.6694V10.6694H186.452V14.6694ZM207.548 11.7863L176.884 74.091L180.473 75.8573L211.137 13.5526L207.548 11.7863ZM176.911 74.0367C176.648 74.5335 176.23 74.8882 175.123 74.8882V78.8882C177.403 78.8882 179.354 77.9669 180.445 75.9116L176.911 74.0367ZM175.123 74.8882C174.541 74.8882 174.186 74.777 173.969 74.6577C173.769 74.5477 173.588 74.3777 173.428 74.0652L169.865 75.8831C170.357 76.8465 171.08 77.6336 172.04 78.1617C172.982 78.6804 174.039 78.8882 175.123 78.8882V74.8882ZM173.422 74.0535L141.118 11.7488L137.567 13.59L169.871 75.8947L173.422 74.0535ZM139.342 14.6694L167.662 14.6694V10.6694L139.342 10.6694V14.6694ZM223.202 12.6694V10.6694H221.202V12.6694H223.202ZM268.084 12.6694H270.084V10.6694H268.084V12.6694ZM268.084 30.3257V32.3257H270.084V30.3257H268.084ZM247.498 30.3257V28.3257H245.498V30.3257H247.498ZM247.498 36.1069H245.498V38.1069H247.498V36.1069ZM268.084 36.1069H270.084V34.1069H268.084V36.1069ZM268.084 53.1382V55.1382H270.084V53.1382H268.084ZM247.498 53.1382V51.1382H245.498V53.1382H247.498ZM247.498 75.0522V77.0522H249.498V75.0522H247.498ZM223.202 75.0522H221.202V77.0522H223.202V75.0522ZM223.202 14.6694L268.084 14.6694V10.6694L223.202 10.6694V14.6694ZM266.084 12.6694V30.3257H270.084V12.6694H266.084ZM268.084 28.3257H247.498V32.3257H268.084V28.3257ZM245.498 30.3257V36.1069H249.498V30.3257H245.498ZM247.498 38.1069H268.084V34.1069H247.498V38.1069ZM266.084 36.1069V53.1382H270.084V36.1069H266.084ZM268.084 51.1382H247.498V55.1382H268.084V51.1382ZM245.498 53.1382V75.0522H249.498V53.1382H245.498ZM247.498 73.0522H223.202V77.0522H247.498V73.0522ZM225.202 75.0522V12.6694H221.202V75.0522H225.202ZM282.92 12.6694V10.6694H280.92V12.6694H282.92ZM327.881 12.6694H329.881V10.6694H327.881V12.6694ZM327.881 30.6382V32.6382H329.881V30.6382H327.881ZM307.217 30.6382V28.6382H305.217V30.6382H307.217ZM307.217 35.7554H305.217V37.7554H307.217V35.7554ZM327.803 35.7554H329.803V33.7554H327.803V35.7554ZM327.803 51.0679V53.0679H329.803V51.0679H327.803ZM307.217 51.0679V49.0679H305.217V51.0679H307.217ZM307.217 56.9663H305.217V58.9663H307.217V56.9663ZM329.248 56.9663H331.248V54.9663H329.248V56.9663ZM329.248 75.0522V77.0522H331.248V75.0522H329.248ZM282.92 75.0522H280.92V77.0522H282.92V75.0522ZM282.92 14.6694L327.881 14.6694V10.6694L282.92 10.6694V14.6694ZM325.881 12.6694V30.6382H329.881V12.6694H325.881ZM327.881 28.6382H307.217V32.6382H327.881V28.6382ZM305.217 30.6382V35.7554H309.217V30.6382H305.217ZM307.217 37.7554H327.803V33.7554H307.217V37.7554ZM325.803 35.7554V51.0679H329.803V35.7554H325.803ZM327.803 49.0679L307.217 49.0679V53.0679L327.803 53.0679V49.0679ZM305.217 51.0679V56.9663H309.217V51.0679H305.217ZM307.217 58.9663L329.248 58.9663V54.9663L307.217 54.9663V58.9663ZM327.248 56.9663V75.0522H331.248V56.9663H327.248ZM329.248 73.0522L282.92 73.0522V77.0522L329.248 77.0522V73.0522ZM284.92 75.0522V12.6694H280.92V75.0522H284.92ZM368.928 76.5757V78.5757L368.935 78.5757L368.928 76.5757ZM345.647 72.2397H343.647V73.2357L344.442 73.8358L345.647 72.2397ZM345.647 54.3491L346.132 52.4088L343.647 51.7876V54.3491H345.647ZM346.78 54.7007L346.17 56.6055L346.181 56.6089L346.191 56.6122L346.78 54.7007ZM356.78 57.5522L356.295 59.4925L356.306 59.4954L356.317 59.4981L356.78 57.5522ZM363.655 52.2007L364.704 50.498L364.703 50.4974L363.655 52.2007ZM360.178 50.2476L359.241 52.0143L359.248 52.0182L359.255 52.022L360.178 50.2476ZM356.272 47.9819L357.335 46.2878L357.328 46.2834L357.321 46.2791L356.272 47.9819ZM348.42 40.9507L346.803 42.128L346.811 42.1381L348.42 40.9507ZM359.631 12.7866L360.251 14.6881L360.252 14.6878L359.631 12.7866ZM388.616 12.6304L388.205 14.5879L388.206 14.588L388.616 12.6304ZM390.842 13.1382H392.842V11.6296L391.392 11.2151L390.842 13.1382ZM390.842 31.0679L390.425 33.0239L392.842 33.5393V31.0679H390.842ZM372.756 32.4741L371.276 33.8195L371.292 33.8366L371.308 33.8534L372.756 32.4741ZM375.452 34.1538L374.632 35.9783L374.648 35.9854L374.664 35.9921L375.452 34.1538ZM379.905 36.1851L379.044 37.9903L379.06 37.9982L379.077 38.0058L379.905 36.1851ZM384.709 38.7241L383.663 40.4285L383.664 40.429L384.709 38.7241ZM387.912 71.0679L389.158 72.6331L389.165 72.6274L389.172 72.6217L387.912 71.0679ZM368.928 74.5757C363.152 74.5757 358.421 74.2177 354.704 73.5255C350.955 72.8273 348.409 71.8191 346.852 70.6437L344.442 73.8358C346.713 75.551 349.961 76.7108 353.972 77.4579C358.016 78.211 363.012 78.5757 368.928 78.5757V74.5757ZM347.647 72.2397V54.3491H343.647V72.2397H347.647ZM345.162 56.2894C345.148 56.286 345.21 56.3028 345.415 56.3667C345.596 56.4227 345.847 56.5021 346.17 56.6055L347.389 52.7958C346.779 52.6005 346.317 52.455 346.132 52.4088L345.162 56.2894ZM346.191 56.6122C346.334 56.6562 346.305 56.6473 346.453 56.6928C346.536 56.7183 346.506 56.709 346.59 56.7349C346.633 56.748 346.617 56.7432 346.66 56.7564C346.668 56.7588 346.67 56.7594 346.678 56.7619C346.679 56.7622 346.694 56.767 346.695 56.7673C346.706 56.7706 346.702 56.7694 346.713 56.7728C346.72 56.7748 346.716 56.7735 346.722 56.7755C346.724 56.776 346.725 56.7764 346.727 56.7769C346.728 56.7773 346.73 56.7778 346.731 56.7783C346.754 56.7854 346.851 56.8153 346.876 56.8228C346.966 56.8506 346.933 56.8404 347.025 56.8686C347.211 56.9259 347.142 56.9048 347.334 56.9638C347.432 56.9938 347.396 56.9828 347.495 57.0132C347.545 57.0286 347.526 57.023 347.577 57.0384C347.588 57.0419 347.586 57.0412 347.597 57.0448C347.61 57.0486 347.605 57.0472 347.618 57.0511C347.631 57.055 347.626 57.0536 347.639 57.0575C347.646 57.0598 347.641 57.0584 347.649 57.0607C347.651 57.0612 347.652 57.0618 347.654 57.0623C347.656 57.0628 347.658 57.0634 347.659 57.0639C347.732 57.0861 347.923 57.145 348.001 57.1689C348.216 57.2353 348.137 57.2107 348.358 57.2787C348.47 57.3133 348.429 57.3006 348.542 57.3355C348.542 57.3355 348.729 57.3931 348.731 57.3935L349.907 53.5704C349.638 53.4876 349.798 53.5367 349.534 53.4556C349.422 53.4213 349.464 53.434 349.353 53.4001C349.294 53.3818 349.235 53.3637 349.177 53.3458C349.164 53.3417 349.168 53.3432 349.155 53.3391C349.147 53.3365 349.142 53.335 349.133 53.3324C349.132 53.3318 349.13 53.3313 349.128 53.3307C349.126 53.3302 349.124 53.3296 349.123 53.329C349.111 53.3255 349.123 53.3292 349.112 53.3257C349.111 53.3253 349.091 53.3194 349.09 53.3191C349.005 53.2927 349.09 53.3189 349.004 53.2927C348.985 53.2868 348.853 53.2462 348.836 53.2408C348.707 53.2012 348.634 53.1787 348.51 53.1407C348.264 53.0647 348.133 53.0246 347.907 52.9551C347.852 52.9381 347.821 52.9284 347.767 52.9118C347.736 52.9023 347.728 52.9 347.698 52.8906C347.645 52.8744 347.682 52.8858 347.63 52.8697C347.609 52.8634 347.617 52.8657 347.596 52.8594C347.579 52.8542 347.579 52.8542 347.563 52.8491C347.561 52.8487 347.56 52.8482 347.559 52.8478C347.557 52.8474 347.556 52.847 347.554 52.8465C347.553 52.8461 347.552 52.8457 347.55 52.8453C347.549 52.8448 347.548 52.8444 347.546 52.844C347.531 52.8395 347.544 52.8434 347.53 52.8389C347.511 52.8333 347.515 52.8344 347.497 52.8288C347.354 52.785 347.509 52.8325 347.368 52.7891L346.191 56.6122ZM348.731 57.3935C351.137 58.134 353.659 58.8335 356.295 59.4925L357.265 55.612C354.692 54.9689 352.24 54.2882 349.907 53.5704L348.731 57.3935ZM356.317 59.4981C359.009 60.1377 361.292 60.4897 363.108 60.4897V56.4897C361.746 56.4897 359.811 56.2168 357.242 55.6064L356.317 59.4981ZM363.108 60.4897C364.548 60.4897 365.964 60.2818 367.079 59.6015C368.355 58.8232 369.014 57.5632 369.014 56.1069H365.014C365.014 56.2261 364.992 56.2331 365.015 56.1904C365.04 56.144 365.06 56.1477 364.996 56.1866C364.809 56.3006 364.272 56.4897 363.108 56.4897V60.4897ZM369.014 56.1069C369.014 54.8546 368.438 53.7771 367.691 52.9083C366.945 52.0415 365.916 51.2451 364.704 50.498L362.605 53.9033C363.633 54.5364 364.284 55.0813 364.658 55.5165C364.84 55.7281 364.932 55.8852 364.976 55.9848C364.997 56.0332 365.006 56.0657 365.01 56.0836C365.012 56.0926 365.013 56.0986 365.014 56.102C365.014 56.1053 365.014 56.1069 365.014 56.1069H369.014ZM364.703 50.4974C363.638 49.8422 362.436 49.1676 361.101 48.4731L359.255 52.022C360.524 52.6817 361.64 53.3092 362.606 53.904L364.703 50.4974ZM361.116 48.4809C359.886 47.8283 358.625 47.0976 357.335 46.2878L355.209 49.6761C356.575 50.5329 357.918 51.3127 359.241 52.0143L361.116 48.4809ZM357.321 46.2791C354.252 44.3887 351.836 42.2114 350.03 39.7632L346.811 42.1381C348.963 45.0545 351.781 47.5648 355.223 49.6848L357.321 46.2791ZM350.037 39.7734C348.386 37.5059 347.491 34.5597 347.491 30.7944H343.491C343.491 35.2062 344.548 39.0309 346.803 42.128L350.037 39.7734ZM347.491 30.7944C347.491 26.6967 348.564 23.4196 350.599 20.8285C352.647 18.2197 355.803 16.1382 360.251 14.6881L359.011 10.8851C354.033 12.508 350.118 14.9642 347.453 18.3581C344.774 21.7695 343.491 25.9599 343.491 30.7944H347.491ZM360.252 14.6878C363.838 13.5169 368.035 12.9116 372.873 12.9116V8.91162C367.711 8.91162 363.081 9.55636 359.01 10.8854L360.252 14.6878ZM372.873 12.9116C377.747 12.9116 382.857 13.4672 388.205 14.5879L389.026 10.6729C383.437 9.50188 378.052 8.91162 372.873 8.91162V12.9116ZM388.206 14.588C389.338 14.8249 390.009 14.9802 390.293 15.0612L391.392 11.2151C390.946 11.0879 390.133 10.9046 389.025 10.6728L388.206 14.588ZM388.842 13.1382V31.0679H392.842V13.1382H388.842ZM391.259 29.1118C384.172 27.6005 378.898 26.8022 375.569 26.8022V30.8022C378.437 30.8022 383.346 31.5144 390.425 33.0239L391.259 29.1118ZM375.569 26.8022C374.201 26.8022 372.819 27.029 371.731 27.7854L374.016 31.0691C374.126 30.9921 374.541 30.8022 375.569 30.8022V26.8022ZM371.731 27.7854C370.827 28.4142 369.975 29.4182 369.975 30.8335H373.975C373.975 30.8981 373.965 30.9664 373.945 31.032C373.926 31.0966 373.901 31.1424 373.885 31.1681C373.856 31.2136 373.868 31.1714 374.016 31.0691L371.731 27.7854ZM369.975 30.8335C369.975 32.0465 370.58 33.0536 371.276 33.8195L374.236 31.1288C374.073 30.9491 374.002 30.8297 373.976 30.7744C373.953 30.726 373.975 30.7516 373.975 30.8335H369.975ZM371.308 33.8534C372.101 34.6861 373.287 35.3741 374.632 35.9783L376.271 32.3293C375.064 31.7877 374.453 31.3558 374.205 31.0948L371.308 33.8534ZM374.664 35.9921C375.908 36.5255 377.367 37.1908 379.044 37.9903L380.766 34.3799C379.057 33.5647 377.547 32.8758 376.239 32.3155L374.664 35.9921ZM379.077 38.0058C380.727 38.7556 382.255 39.5637 383.663 40.4285L385.756 37.0198C384.195 36.0616 382.52 35.177 380.732 34.3643L379.077 38.0058ZM383.664 40.429C389.811 44.1992 392.709 49.1767 392.709 55.4819H396.709C396.709 47.6205 392.941 41.4261 385.755 37.0192L383.664 40.429ZM392.709 55.4819C392.709 61.7005 390.641 66.2823 386.653 69.514L389.172 72.6217C394.246 68.5097 396.709 62.7009 396.709 55.4819H392.709ZM386.667 69.5027C382.549 72.7791 376.713 74.5506 368.922 74.5757L368.935 78.5757C377.289 78.5487 384.11 76.6483 389.158 72.6331L386.667 69.5027ZM408.452 12.6694V10.6694H406.452V12.6694H408.452ZM467.514 12.6694L469.514 12.6694V10.6694L467.514 10.6694V12.6694ZM467.514 32.9038V34.9038H469.514V32.9038H467.514ZM450.131 32.9038V30.9038H448.131V32.9038H450.131ZM450.131 75.0522V77.0522H452.131V75.0522H450.131ZM425.834 75.0522H423.834V77.0522H425.834V75.0522ZM425.834 32.9038H427.834V30.9038H425.834V32.9038ZM408.452 32.9038H406.452V34.9038H408.452V32.9038ZM408.452 14.6694L467.514 14.6694V10.6694L408.452 10.6694V14.6694ZM465.514 12.6694V32.9038H469.514V12.6694L465.514 12.6694ZM467.514 30.9038L450.131 30.9038V34.9038H467.514V30.9038ZM448.131 32.9038V75.0522H452.131V32.9038H448.131ZM450.131 73.0522H425.834V77.0522H450.131V73.0522ZM427.834 75.0522V32.9038H423.834V75.0522H427.834ZM425.834 30.9038H408.452V34.9038L425.834 34.9038V30.9038ZM410.452 32.9038V12.6694H406.452V32.9038H410.452ZM513.084 63.7632L511.8 62.2298L511.084 62.8294V63.7632H513.084ZM536.873 43.8413L535.589 42.3079L535.589 42.308L536.873 43.8413ZM540.155 31.6538L538.74 33.068L538.75 33.0772L538.759 33.0863L540.155 31.6538ZM531.912 30.9116L532.533 32.813L532.545 32.809L531.912 30.9116ZM517.498 40.7944L515.858 41.9384L517.27 43.9631L518.958 42.1621L517.498 40.7944ZM508.319 27.6304L506.607 26.5964L505.935 27.7086L506.678 28.7744L508.319 27.6304ZM522.537 15.3647L521.697 13.5497L522.537 15.3647ZM560.741 16.0288L559.605 17.6751L559.606 17.6755L560.741 16.0288ZM562.108 45.9116L560.689 44.5015L560.686 44.5053L562.108 45.9116ZM554.998 52.1226L556.179 53.7371L556.19 53.7288L554.998 52.1226ZM549.334 56.3413L548.115 54.7561L543.454 58.3413H549.334V56.3413ZM569.178 56.3413H571.178V54.3413H569.178V56.3413ZM569.178 75.0522V77.0522H571.178V75.0522H569.178ZM513.084 75.0522H511.084V77.0522H513.084V75.0522ZM514.368 65.2965L538.157 45.3747L535.589 42.308L511.8 62.2298L514.368 65.2965ZM538.157 45.3747C541.611 42.4826 543.678 39.1733 543.678 35.4429H539.678C539.678 37.5458 538.542 39.8355 535.589 42.3079L538.157 45.3747ZM543.678 35.4429C543.678 33.4169 542.987 31.6209 541.55 30.2213L538.759 33.0863C539.354 33.6659 539.678 34.3959 539.678 35.4429H543.678ZM541.569 30.2396C540.173 28.8433 538.399 28.1694 536.405 28.1694V32.1694C537.431 32.1694 538.158 32.4851 538.74 33.068L541.569 30.2396ZM536.405 28.1694C534.672 28.1694 532.961 28.454 531.28 29.0143L532.545 32.809C533.833 32.3797 535.117 32.1694 536.405 32.1694V28.1694ZM531.292 29.0103C525.94 30.7567 520.862 34.2809 516.039 39.4268L518.958 42.1621C523.458 37.3601 527.989 34.2957 532.533 32.813L531.292 29.0103ZM519.139 39.6505L509.959 26.4864L506.678 28.7744L515.858 41.9384L519.139 39.6505ZM510.031 28.6643C512.975 23.7886 517.389 19.9514 523.377 17.1798L521.697 13.5497C515.082 16.6114 510.016 20.9513 506.607 26.5964L510.031 28.6643ZM523.377 17.1798C529.409 14.3884 535.84 12.9897 542.694 12.9897V8.98975C535.276 8.98975 528.27 10.5078 521.697 13.5497L523.377 17.1798ZM542.694 12.9897C549.536 12.9897 555.134 14.5909 559.605 17.6751L561.876 14.3825C556.608 10.748 550.174 8.98975 542.694 8.98975V12.9897ZM559.606 17.6755C564.426 20.9987 566.787 25.4991 566.787 31.3804H570.787C570.787 24.1887 567.784 18.4548 561.876 14.3821L559.606 17.6755ZM566.787 31.3804C566.787 35.9515 564.854 40.3122 560.689 44.5015L563.526 47.3217C568.267 42.5528 570.787 37.2259 570.787 31.3804H566.787ZM560.686 44.5053C558.433 46.7833 556.14 48.7855 553.807 50.5164L556.19 53.7288C558.701 51.8659 561.147 49.7275 563.53 47.3179L560.686 44.5053ZM553.818 50.5081C551.391 52.2825 549.488 53.6998 548.115 54.7561L550.554 57.9266C551.889 56.8995 553.762 55.5043 556.179 53.737L553.818 50.5081ZM549.334 58.3413H569.178V54.3413H549.334V58.3413ZM567.178 56.3413V75.0522H571.178V56.3413H567.178ZM569.178 73.0522H513.084V77.0522H569.178V73.0522ZM515.084 75.0522V63.7632H511.084V75.0522H515.084ZM582.92 48.2554L581.273 47.1207L580.92 47.6331V48.2554H582.92ZM607.491 12.5913V10.5913H606.44L605.844 11.4566L607.491 12.5913ZM644.991 12.5913H646.991V10.5913H644.991V12.5913ZM644.991 47.6304H642.991V49.6304H644.991V47.6304ZM650.537 47.6304H652.537V45.6304H650.537V47.6304ZM650.537 66.6538V68.6538H652.537V66.6538H650.537ZM644.991 66.6538V64.6538H642.991V66.6538H644.991ZM644.991 75.0522V77.0522H646.991V75.0522H644.991ZM618.623 75.0522H616.623V77.0522H618.623V75.0522ZM618.623 66.6538H620.623V64.6538H618.623V66.6538ZM582.92 66.6538H580.92V68.6538H582.92V66.6538ZM607.256 48.2554L605.574 47.1744L603.594 50.2554H607.256V48.2554ZM618.623 48.2554V50.2554H620.623V48.2554H618.623ZM618.623 30.5601H620.623V23.7462L616.941 29.4791L618.623 30.5601ZM584.567 49.39L609.138 13.726L605.844 11.4566L581.273 47.1207L584.567 49.39ZM607.491 14.5913L644.991 14.5913V10.5913L607.491 10.5913V14.5913ZM642.991 12.5913V47.6304H646.991V12.5913H642.991ZM644.991 49.6304H650.537V45.6304H644.991V49.6304ZM648.537 47.6304V66.6538H652.537V47.6304H648.537ZM650.537 64.6538H644.991V68.6538H650.537V64.6538ZM642.991 66.6538V75.0522H646.991V66.6538H642.991ZM644.991 73.0522H618.623V77.0522H644.991V73.0522ZM620.623 75.0522V66.6538H616.623V75.0522H620.623ZM618.623 64.6538H582.92V68.6538H618.623V64.6538ZM584.92 66.6538V48.2554H580.92V66.6538H584.92ZM607.256 50.2554H618.623V46.2554H607.256V50.2554ZM620.623 48.2554V30.5601H616.623V48.2554H620.623ZM616.941 29.4791L605.574 47.1744L608.939 49.3363L620.306 31.641L616.941 29.4791Z"
        fill="black" mask="url(#path-5-outside-3_61_2)" />
</svg>