<svg width="745" height="77" viewBox="0 0 745 77" fill="none" xmlns="http://www.w3.org/2000/svg">
    <mask id="path-1-outside-1_151_53" maskUnits="userSpaceOnUse" x="12.3413" y="-2.17529" width="654" height="71"
        fill="black">
        <rect fill="white" x="12.3413" y="-2.17529" width="654" height="71" />
        <path
            d="M15.146 2.44189C30.9533 1.27002 41.2658 0.684082 46.0835 0.684082C50.9272 0.684082 54.7424 1.13981 57.5288 2.05127C60.3413 2.93669 62.8543 4.17367 65.0679 5.76221C69.3647 8.80908 72.6069 12.8586 74.7944 17.9106C77.008 22.9627 78.1147 28.0799 78.1147 33.2622C78.1147 38.4445 77.2684 42.9757 75.5757 46.856C73.909 50.7101 71.5913 53.9653 68.6226 56.6216C62.5549 62.1164 54.7033 64.8507 45.0679 64.8247H15.146L15.146 2.44189ZM39.4429 22.2466V46.0356C40.8231 44.8638 42.3205 43.7049 43.9351 42.5591C50.133 38.106 53.2319 33.4445 53.2319 28.5747C53.2319 26.2049 52.5288 24.0174 51.1226 22.0122C49.7163 19.981 47.8804 18.9653 45.6147 18.9653C43.3752 18.9653 41.3179 20.0591 39.4429 22.2466ZM93.8491 2.44189L138.81 2.44189V20.4106H118.146V25.5278H138.732V40.8403H118.146V46.7388H140.177V64.8247H93.8491V2.44189ZM181.966 2.44189L191.693 22.0122L200.755 2.44189L223.646 2.44189L192.982 64.7466C192.305 66.0226 191.12 66.6606 189.427 66.6606C187.761 66.6606 186.602 66.0226 185.951 64.7466L153.646 2.44189L181.966 2.44189ZM237.505 2.44189L282.388 2.44189V20.0981H261.802V25.8794H282.388V42.9106H261.802V64.8247H237.505V2.44189ZM297.224 2.44189L342.185 2.44189V20.4106H321.521V25.5278H342.107V40.8403L321.521 40.8403V46.7388L343.552 46.7388V64.8247L297.224 64.8247V2.44189ZM383.232 66.3481C371.539 66.3481 363.779 64.9028 359.951 62.0122V44.1216C360.055 44.1476 360.432 44.2648 361.083 44.4731C361.761 44.6815 362.607 44.9419 363.623 45.2544C365.992 45.9836 368.479 46.6737 371.083 47.3247C373.714 47.9497 375.823 48.2622 377.412 48.2622C380.016 48.2622 381.318 47.4679 381.318 45.8794C381.318 44.6554 380.198 43.3534 377.958 41.9731C376.943 41.3481 375.784 40.6971 374.482 40.02C373.206 39.3429 371.904 38.5877 370.576 37.7544C367.32 35.7492 364.703 33.4054 362.724 30.7231C360.771 28.0409 359.794 24.6554 359.794 20.5669C359.794 11.6346 364.508 5.632 373.935 2.55908C377.763 1.30908 382.177 0.684082 387.177 0.684082C392.203 0.684082 397.451 1.257 402.919 2.40283C404.039 2.63721 404.781 2.80648 405.146 2.91064V20.8403C398.063 19.3299 392.972 18.5747 389.873 18.5747C388.675 18.5747 387.776 18.783 387.177 19.1997C386.578 19.6164 386.279 20.0851 386.279 20.606C386.279 21.1268 386.539 21.6737 387.06 22.2466C387.581 22.7935 388.479 23.3534 389.755 23.9263C391.031 24.4731 392.516 25.1502 394.208 25.9575C395.927 26.7388 397.529 27.5851 399.013 28.4966C405.68 32.5851 409.013 38.1711 409.013 45.2544C409.013 51.9731 406.748 57.1685 402.216 60.8403C397.633 64.4862 391.305 66.3221 383.232 66.3481ZM422.755 2.44189L481.818 2.44189V22.6763L464.435 22.6763V64.8247H440.138V22.6763H422.755V2.44189Z" />
        <path
            d="M527.388 53.5356L551.177 33.6138C554.38 30.9315 555.982 28.132 555.982 25.2153C555.982 23.6789 555.474 22.4159 554.458 21.4263C553.469 20.4367 552.219 19.9419 550.708 19.9419C549.198 19.9419 547.701 20.1893 546.216 20.6841C541.268 22.2987 536.464 25.5929 531.802 30.5669L522.623 17.4028C525.8 12.1424 530.539 8.05387 536.841 5.13721C543.143 2.22054 549.862 0.762207 556.998 0.762207C564.159 0.762207 570.175 2.44189 575.044 5.80127C580.409 9.49919 583.091 14.6164 583.091 21.1528C583.091 26.3612 580.865 31.2049 576.412 35.6841C574.094 38.0278 571.724 40.0981 569.302 41.895C566.88 43.6659 564.992 45.0721 563.638 46.1138H583.482V64.8247H527.388V53.5356ZM607.771 41.3872C614.386 45.8143 621.847 48.0278 630.154 48.0278C632.445 48.0278 634.229 47.52 635.505 46.5044C636.807 45.4888 637.458 44.3299 637.458 43.0278C637.458 41.7257 637.237 40.6971 636.794 39.9419C636.352 39.1606 635.753 38.4966 634.998 37.9497C632.602 36.1789 628.956 35.2935 624.06 35.2935C622.159 35.2935 620.896 35.3455 620.271 35.4497L615.544 27.2075C615.544 26.7648 619.086 24.1867 626.169 19.4731H602.576V2.44189L662.81 2.44189V9.47314L642.732 24.7466C657.029 26.4914 664.177 33.0278 664.177 44.356C664.151 49.8768 662.445 54.382 659.06 57.8716C653.643 63.4705 644.607 66.27 631.951 66.27C622.68 66.2961 614.294 64.6945 606.794 61.4653C603.852 60.2153 601.091 58.5617 598.513 56.5044L607.771 41.3872Z" />
    </mask>
    <path
        d="M15.146 2.44189C30.9533 1.27002 41.2658 0.684082 46.0835 0.684082C50.9272 0.684082 54.7424 1.13981 57.5288 2.05127C60.3413 2.93669 62.8543 4.17367 65.0679 5.76221C69.3647 8.80908 72.6069 12.8586 74.7944 17.9106C77.008 22.9627 78.1147 28.0799 78.1147 33.2622C78.1147 38.4445 77.2684 42.9757 75.5757 46.856C73.909 50.7101 71.5913 53.9653 68.6226 56.6216C62.5549 62.1164 54.7033 64.8507 45.0679 64.8247H15.146L15.146 2.44189ZM39.4429 22.2466V46.0356C40.8231 44.8638 42.3205 43.7049 43.9351 42.5591C50.133 38.106 53.2319 33.4445 53.2319 28.5747C53.2319 26.2049 52.5288 24.0174 51.1226 22.0122C49.7163 19.981 47.8804 18.9653 45.6147 18.9653C43.3752 18.9653 41.3179 20.0591 39.4429 22.2466ZM93.8491 2.44189L138.81 2.44189V20.4106H118.146V25.5278H138.732V40.8403H118.146V46.7388H140.177V64.8247H93.8491V2.44189ZM181.966 2.44189L191.693 22.0122L200.755 2.44189L223.646 2.44189L192.982 64.7466C192.305 66.0226 191.12 66.6606 189.427 66.6606C187.761 66.6606 186.602 66.0226 185.951 64.7466L153.646 2.44189L181.966 2.44189ZM237.505 2.44189L282.388 2.44189V20.0981H261.802V25.8794H282.388V42.9106H261.802V64.8247H237.505V2.44189ZM297.224 2.44189L342.185 2.44189V20.4106H321.521V25.5278H342.107V40.8403L321.521 40.8403V46.7388L343.552 46.7388V64.8247L297.224 64.8247V2.44189ZM383.232 66.3481C371.539 66.3481 363.779 64.9028 359.951 62.0122V44.1216C360.055 44.1476 360.432 44.2648 361.083 44.4731C361.761 44.6815 362.607 44.9419 363.623 45.2544C365.992 45.9836 368.479 46.6737 371.083 47.3247C373.714 47.9497 375.823 48.2622 377.412 48.2622C380.016 48.2622 381.318 47.4679 381.318 45.8794C381.318 44.6554 380.198 43.3534 377.958 41.9731C376.943 41.3481 375.784 40.6971 374.482 40.02C373.206 39.3429 371.904 38.5877 370.576 37.7544C367.32 35.7492 364.703 33.4054 362.724 30.7231C360.771 28.0409 359.794 24.6554 359.794 20.5669C359.794 11.6346 364.508 5.632 373.935 2.55908C377.763 1.30908 382.177 0.684082 387.177 0.684082C392.203 0.684082 397.451 1.257 402.919 2.40283C404.039 2.63721 404.781 2.80648 405.146 2.91064V20.8403C398.063 19.3299 392.972 18.5747 389.873 18.5747C388.675 18.5747 387.776 18.783 387.177 19.1997C386.578 19.6164 386.279 20.0851 386.279 20.606C386.279 21.1268 386.539 21.6737 387.06 22.2466C387.581 22.7935 388.479 23.3534 389.755 23.9263C391.031 24.4731 392.516 25.1502 394.208 25.9575C395.927 26.7388 397.529 27.5851 399.013 28.4966C405.68 32.5851 409.013 38.1711 409.013 45.2544C409.013 51.9731 406.748 57.1685 402.216 60.8403C397.633 64.4862 391.305 66.3221 383.232 66.3481ZM422.755 2.44189L481.818 2.44189V22.6763L464.435 22.6763V64.8247H440.138V22.6763H422.755V2.44189Z"
        fill="#C14500" />
    <path
        d="M527.388 53.5356L551.177 33.6138C554.38 30.9315 555.982 28.132 555.982 25.2153C555.982 23.6789 555.474 22.4159 554.458 21.4263C553.469 20.4367 552.219 19.9419 550.708 19.9419C549.198 19.9419 547.701 20.1893 546.216 20.6841C541.268 22.2987 536.464 25.5929 531.802 30.5669L522.623 17.4028C525.8 12.1424 530.539 8.05387 536.841 5.13721C543.143 2.22054 549.862 0.762207 556.998 0.762207C564.159 0.762207 570.175 2.44189 575.044 5.80127C580.409 9.49919 583.091 14.6164 583.091 21.1528C583.091 26.3612 580.865 31.2049 576.412 35.6841C574.094 38.0278 571.724 40.0981 569.302 41.895C566.88 43.6659 564.992 45.0721 563.638 46.1138H583.482V64.8247H527.388V53.5356ZM607.771 41.3872C614.386 45.8143 621.847 48.0278 630.154 48.0278C632.445 48.0278 634.229 47.52 635.505 46.5044C636.807 45.4888 637.458 44.3299 637.458 43.0278C637.458 41.7257 637.237 40.6971 636.794 39.9419C636.352 39.1606 635.753 38.4966 634.998 37.9497C632.602 36.1789 628.956 35.2935 624.06 35.2935C622.159 35.2935 620.896 35.3455 620.271 35.4497L615.544 27.2075C615.544 26.7648 619.086 24.1867 626.169 19.4731H602.576V2.44189L662.81 2.44189V9.47314L642.732 24.7466C657.029 26.4914 664.177 33.0278 664.177 44.356C664.151 49.8768 662.445 54.382 659.06 57.8716C653.643 63.4705 644.607 66.27 631.951 66.27C622.68 66.2961 614.294 64.6945 606.794 61.4653C603.852 60.2153 601.091 58.5617 598.513 56.5044L607.771 41.3872Z"
        fill="#58CDC5" />
    <path
        d="M15.146 2.44189L14.9981 0.447368L13.146 0.584676V2.44189H15.146ZM57.5288 2.05127L56.907 3.95216L56.9176 3.95562L56.9282 3.95897L57.5288 2.05127ZM65.0679 5.76221L63.9018 7.38711L63.911 7.39367L65.0679 5.76221ZM74.7944 17.9106L72.9591 18.7053L72.9626 18.7133L74.7944 17.9106ZM75.5757 46.856L73.7425 46.0563L73.74 46.0621L75.5757 46.856ZM68.6226 56.6216L67.2889 55.1311L67.2801 55.1391L68.6226 56.6216ZM45.0679 64.8247L45.0733 62.8247H45.0679V64.8247ZM15.146 64.8247H13.146V66.8247H15.146V64.8247ZM39.4429 22.2466L37.9244 20.945L37.4429 21.5067V22.2466H39.4429ZM39.4429 46.0356H37.4429V50.3574L40.7373 47.5602L39.4429 46.0356ZM43.9351 42.5591L45.0926 44.1901L45.1021 44.1833L43.9351 42.5591ZM51.1226 22.0122L49.4781 23.1506L49.4851 23.1606L51.1226 22.0122ZM15.2939 4.43642C31.1186 3.26326 41.3538 2.68408 46.0835 2.68408V-1.31592C41.1778 -1.31592 30.788 -0.723217 14.9981 0.447368L15.2939 4.43642ZM46.0835 2.68408C50.8348 2.68408 54.4095 3.1352 56.907 3.95216L58.1506 0.15038C55.0752 -0.855577 51.0197 -1.31592 46.0835 -1.31592V2.68408ZM56.9282 3.95897C59.555 4.78592 61.8742 5.93196 63.9018 7.38709L66.234 4.13733C63.8345 2.41537 61.1276 1.08745 58.1294 0.143571L56.9282 3.95897ZM63.911 7.39367C67.8957 10.2191 70.9101 13.9731 72.9591 18.7053L76.6298 17.116C74.3038 11.744 70.8338 7.39902 66.2247 4.13074L63.911 7.39367ZM72.9626 18.7133C75.0725 23.5288 76.1147 28.3737 76.1147 33.2622H80.1147C80.1147 27.7861 78.9435 22.3966 76.6263 17.108L72.9626 18.7133ZM76.1147 33.2622C76.1147 38.2294 75.3034 42.4781 73.7425 46.0563L77.4088 47.6557C79.2333 43.4734 80.1147 38.6596 80.1147 33.2622H76.1147ZM73.74 46.0621C72.1819 49.6652 70.0303 52.6784 67.289 55.1311L69.9562 58.1121C73.1524 55.2523 75.6361 51.7551 77.4114 47.6498L73.74 46.0621ZM67.2801 55.1391C61.6455 60.2416 54.3043 62.8497 45.0733 62.8247L45.0625 66.8247C55.1023 66.8518 63.4642 63.9911 69.965 58.104L67.2801 55.1391ZM45.0679 62.8247H15.146V66.8247H45.0679V62.8247ZM17.146 64.8247L17.146 2.44189H13.146L13.146 64.8247H17.146ZM37.4429 22.2466V46.0356H41.4429V22.2466H37.4429ZM40.7373 47.5602C42.0696 46.4291 43.5208 45.3055 45.0926 44.1901L42.7776 40.9281C41.1201 42.1043 39.5766 43.2985 38.1484 44.5111L40.7373 47.5602ZM45.1021 44.1833C51.5187 39.573 55.2319 34.3887 55.2319 28.5747H51.2319C51.2319 32.5003 48.7472 36.6389 42.7681 40.9348L45.1021 44.1833ZM55.2319 28.5747C55.2319 25.7796 54.3938 23.1935 52.76 20.8639L49.4851 23.1606C50.6638 24.8413 51.2319 26.6303 51.2319 28.5747H55.2319ZM52.7669 20.8738C51.0268 18.3602 48.6034 16.9653 45.6147 16.9653V20.9653C47.1573 20.9653 48.4058 21.6017 49.4782 23.1506L52.7669 20.8738ZM45.6147 16.9653C42.633 16.9653 40.0626 18.4504 37.9244 20.945L40.9614 23.5482C42.5732 21.6677 44.1173 20.9653 45.6147 20.9653V16.9653ZM93.8491 2.44189V0.441895H91.8491V2.44189H93.8491ZM138.81 2.44189H140.81V0.441895H138.81V2.44189ZM138.81 20.4106V22.4106H140.81V20.4106H138.81ZM118.146 20.4106V18.4106H116.146V20.4106H118.146ZM118.146 25.5278H116.146V27.5278H118.146V25.5278ZM138.732 25.5278H140.732V23.5278H138.732V25.5278ZM138.732 40.8403V42.8403H140.732V40.8403H138.732ZM118.146 40.8403V38.8403H116.146V40.8403H118.146ZM118.146 46.7388H116.146V48.7388H118.146V46.7388ZM140.177 46.7388H142.177V44.7388H140.177V46.7388ZM140.177 64.8247V66.8247H142.177V64.8247H140.177ZM93.8491 64.8247H91.8491V66.8247H93.8491V64.8247ZM93.8491 4.44189L138.81 4.44189V0.441895L93.8491 0.441895V4.44189ZM136.81 2.44189V20.4106H140.81V2.44189H136.81ZM138.81 18.4106H118.146V22.4106H138.81V18.4106ZM116.146 20.4106V25.5278H120.146V20.4106H116.146ZM118.146 27.5278H138.732V23.5278H118.146V27.5278ZM136.732 25.5278V40.8403H140.732V25.5278H136.732ZM138.732 38.8403H118.146V42.8403H138.732V38.8403ZM116.146 40.8403V46.7388H120.146V40.8403H116.146ZM118.146 48.7388H140.177V44.7388H118.146V48.7388ZM138.177 46.7388V64.8247H142.177V46.7388H138.177ZM140.177 62.8247H93.8491V66.8247H140.177V62.8247ZM95.8491 64.8247V2.44189H91.8491V64.8247H95.8491ZM181.966 2.44189L183.757 1.55176L183.206 0.441895H181.966V2.44189ZM191.693 22.0122L189.902 22.9023L191.757 26.6341L193.508 22.8526L191.693 22.0122ZM200.755 2.44189V0.441895H199.477L198.941 1.60148L200.755 2.44189ZM223.646 2.44189L225.44 3.32505L226.859 0.441895L223.646 0.441895V2.44189ZM192.982 64.7466L194.749 65.684L194.763 65.6571L194.776 65.6297L192.982 64.7466ZM185.951 64.7466L187.732 63.8376L187.726 63.826L185.951 64.7466ZM153.646 2.44189V0.441895H150.356L151.87 3.3625L153.646 2.44189ZM180.175 3.33203L189.902 22.9023L193.484 21.1221L183.757 1.55176L180.175 3.33203ZM193.508 22.8526L202.57 3.28231L198.941 1.60148L189.878 21.1718L193.508 22.8526ZM200.755 4.44189L223.646 4.44189V0.441895L200.755 0.441895V4.44189ZM221.852 1.55874L191.187 63.8634L194.776 65.6297L225.44 3.32505L221.852 1.55874ZM191.215 63.8092C190.952 64.3059 190.534 64.6606 189.427 64.6606V68.6606C191.706 68.6606 193.658 67.7393 194.749 65.684L191.215 63.8092ZM189.427 64.6606C188.845 64.6606 188.489 64.5495 188.273 64.4301C188.073 64.3202 187.892 64.1502 187.732 63.8376L184.169 65.6555C184.661 66.619 185.384 67.406 186.344 67.9341C187.286 68.4528 188.343 68.6606 189.427 68.6606V64.6606ZM187.726 63.826L155.422 1.52129L151.87 3.3625L184.175 65.6672L187.726 63.826ZM153.646 4.44189L181.966 4.44189V0.441895L153.646 0.441895V4.44189ZM237.505 2.44189V0.441895H235.505V2.44189H237.505ZM282.388 2.44189H284.388V0.441895H282.388V2.44189ZM282.388 20.0981V22.0981H284.388V20.0981H282.388ZM261.802 20.0981V18.0981H259.802V20.0981H261.802ZM261.802 25.8794H259.802V27.8794H261.802V25.8794ZM282.388 25.8794H284.388V23.8794H282.388V25.8794ZM282.388 42.9106V44.9106H284.388V42.9106H282.388ZM261.802 42.9106V40.9106H259.802V42.9106H261.802ZM261.802 64.8247V66.8247H263.802V64.8247H261.802ZM237.505 64.8247H235.505V66.8247H237.505V64.8247ZM237.505 4.44189L282.388 4.44189V0.441895L237.505 0.441895V4.44189ZM280.388 2.44189V20.0981H284.388V2.44189H280.388ZM282.388 18.0981H261.802V22.0981H282.388V18.0981ZM259.802 20.0981V25.8794H263.802V20.0981H259.802ZM261.802 27.8794H282.388V23.8794H261.802V27.8794ZM280.388 25.8794V42.9106H284.388V25.8794H280.388ZM282.388 40.9106H261.802V44.9106H282.388V40.9106ZM259.802 42.9106V64.8247H263.802V42.9106H259.802ZM261.802 62.8247H237.505V66.8247H261.802V62.8247ZM239.505 64.8247V2.44189H235.505V64.8247H239.505ZM297.224 2.44189V0.441895H295.224V2.44189H297.224ZM342.185 2.44189H344.185V0.441895H342.185V2.44189ZM342.185 20.4106V22.4106H344.185V20.4106H342.185ZM321.521 20.4106V18.4106H319.521V20.4106H321.521ZM321.521 25.5278H319.521V27.5278H321.521V25.5278ZM342.107 25.5278H344.107V23.5278H342.107V25.5278ZM342.107 40.8403V42.8403H344.107V40.8403H342.107ZM321.521 40.8403V38.8403H319.521V40.8403H321.521ZM321.521 46.7388H319.521V48.7388H321.521V46.7388ZM343.552 46.7388H345.552V44.7388H343.552V46.7388ZM343.552 64.8247V66.8247H345.552V64.8247H343.552ZM297.224 64.8247H295.224V66.8247H297.224V64.8247ZM297.224 4.44189L342.185 4.44189V0.441895L297.224 0.441895V4.44189ZM340.185 2.44189V20.4106H344.185V2.44189H340.185ZM342.185 18.4106H321.521V22.4106H342.185V18.4106ZM319.521 20.4106V25.5278H323.521V20.4106H319.521ZM321.521 27.5278H342.107V23.5278H321.521V27.5278ZM340.107 25.5278V40.8403H344.107V25.5278H340.107ZM342.107 38.8403L321.521 38.8403V42.8403L342.107 42.8403V38.8403ZM319.521 40.8403V46.7388H323.521V40.8403H319.521ZM321.521 48.7388L343.552 48.7388V44.7388L321.521 44.7388V48.7388ZM341.552 46.7388V64.8247H345.552V46.7388H341.552ZM343.552 62.8247L297.224 62.8247V66.8247L343.552 66.8247V62.8247ZM299.224 64.8247V2.44189H295.224V64.8247H299.224ZM383.232 66.3481V68.3482L383.238 68.3481L383.232 66.3481ZM359.951 62.0122H357.951V63.0081L358.745 63.6083L359.951 62.0122ZM359.951 44.1216L360.436 42.1813L357.951 41.56V44.1216H359.951ZM361.083 44.4731L360.474 46.378L360.485 46.3814L360.495 46.3847L361.083 44.4731ZM371.083 47.3247L370.598 49.265L370.61 49.2678L370.621 49.2705L371.083 47.3247ZM377.958 41.9731L379.008 40.2705L379.007 40.2698L377.958 41.9731ZM374.482 40.02L373.544 41.7867L373.552 41.7906L373.559 41.7945L374.482 40.02ZM370.576 37.7544L371.639 36.0603L371.632 36.0559L371.625 36.0515L370.576 37.7544ZM362.724 30.7231L361.107 31.9004L361.115 31.9106L362.724 30.7231ZM373.935 2.55908L374.555 4.46061L374.556 4.46029L373.935 2.55908ZM402.919 2.40283L402.509 4.36033L402.51 4.36041L402.919 2.40283ZM405.146 2.91064L407.146 2.91064V1.40204L405.695 0.987597L405.146 2.91064ZM405.146 20.8403L404.729 22.7964L407.146 23.3118V20.8403H405.146ZM387.06 22.2466L385.58 23.5919L385.596 23.6091L385.612 23.6259L387.06 22.2466ZM389.755 23.9263L388.936 25.7508L388.952 25.7578L388.968 25.7646L389.755 23.9263ZM394.208 25.9575L393.348 27.7627L393.364 27.7706L393.381 27.7783L394.208 25.9575ZM399.013 28.4966L397.967 30.2009L397.968 30.2015L399.013 28.4966ZM402.216 60.8403L403.461 62.4055L403.468 62.3999L403.475 62.3942L402.216 60.8403ZM383.232 64.3481C377.456 64.3481 372.725 63.9902 369.008 63.298C365.259 62.5997 362.713 61.5916 361.156 60.4161L358.745 63.6083C361.017 65.3235 364.265 66.4833 368.276 67.2304C372.319 67.9834 377.315 68.3481 383.232 68.3481V64.3481ZM361.951 62.0122V44.1216H357.951V62.0122H361.951ZM359.466 46.0619C359.452 46.0584 359.514 46.0753 359.719 46.1391C359.9 46.1952 360.151 46.2745 360.474 46.378L361.693 42.5683C361.083 42.373 360.621 42.2275 360.436 42.1813L359.466 46.0619ZM360.495 46.3847C360.638 46.4286 360.609 46.4197 360.757 46.4653C360.84 46.4908 360.81 46.4814 360.894 46.5074C360.937 46.5205 360.921 46.5157 360.964 46.5289C360.972 46.5313 360.974 46.5319 360.982 46.5343C360.983 46.5346 360.998 46.5395 360.999 46.5398C361.01 46.5431 361.006 46.5419 361.017 46.5452C361.023 46.5472 361.02 46.546 361.026 46.548C361.027 46.5484 361.029 46.5489 361.03 46.5493C361.032 46.5498 361.033 46.5503 361.035 46.5507C361.058 46.5578 361.155 46.5877 361.18 46.5953C361.27 46.623 361.237 46.6129 361.328 46.641C361.515 46.6984 361.446 46.6773 361.638 46.7363C361.736 46.7663 361.7 46.7553 361.799 46.7857C361.848 46.801 361.83 46.7954 361.88 46.8109C361.892 46.8144 361.89 46.8137 361.901 46.8172C361.914 46.8211 361.909 46.8197 361.922 46.8236C361.934 46.8275 361.93 46.8261 361.942 46.83C361.95 46.8323 361.945 46.8309 361.953 46.8332C361.955 46.8337 361.956 46.8342 361.958 46.8348C361.96 46.8353 361.961 46.8358 361.963 46.8364C362.036 46.8586 362.227 46.9175 362.304 46.9413C362.52 47.0078 362.44 46.9832 362.661 47.0512C362.774 47.0857 362.732 47.0731 362.846 47.108C362.846 47.108 363.033 47.1655 363.034 47.166L364.211 43.3428C363.942 43.2601 364.101 43.3092 363.838 43.2281C363.726 43.1938 363.767 43.2065 363.657 43.1726C363.598 43.1542 363.539 43.1361 363.481 43.1182C363.467 43.1141 363.472 43.1156 363.459 43.1115C363.451 43.1089 363.446 43.1074 363.437 43.1048C363.435 43.1043 363.434 43.1037 363.432 43.1032C363.43 43.1026 363.428 43.1021 363.426 43.1015C363.415 43.098 363.427 43.1017 363.416 43.0982C363.414 43.0978 363.395 43.0919 363.394 43.0915C363.308 43.0652 363.393 43.0914 363.308 43.0651C363.289 43.0593 363.157 43.0187 363.14 43.0132C363.011 42.9736 362.938 42.9511 362.814 42.9132C362.567 42.8372 362.437 42.797 362.211 42.7276C362.156 42.7106 362.124 42.7009 362.07 42.6843C362.04 42.6748 362.032 42.6725 362.001 42.6631C361.949 42.6468 361.986 42.6583 361.934 42.6422C361.913 42.6358 361.92 42.6381 361.9 42.6318C361.883 42.6267 361.883 42.6267 361.867 42.6216C361.865 42.6211 361.864 42.6207 361.862 42.6203C361.861 42.6199 361.86 42.6194 361.858 42.619C361.857 42.6186 361.855 42.6181 361.854 42.6177C361.853 42.6173 361.851 42.6169 361.85 42.6165C361.835 42.6119 361.848 42.6159 361.833 42.6114C361.815 42.6057 361.819 42.6069 361.801 42.6013C361.658 42.5574 361.813 42.605 361.672 42.5616L360.495 46.3847ZM363.034 47.166C365.441 47.9064 367.962 48.606 370.598 49.265L371.569 45.3844C368.996 44.7413 366.544 44.0607 364.211 43.3428L363.034 47.166ZM370.621 49.2705C373.313 49.9102 375.596 50.2622 377.412 50.2622V46.2622C376.05 46.2622 374.114 45.9892 371.546 45.3789L370.621 49.2705ZM377.412 50.2622C378.852 50.2622 380.268 50.0542 381.383 49.3739C382.659 48.5956 383.318 47.3357 383.318 45.8794H379.318C379.318 45.9986 379.295 46.0055 379.319 45.9628C379.344 45.9164 379.364 45.9201 379.3 45.9591C379.113 46.0731 378.575 46.2622 377.412 46.2622V50.2622ZM383.318 45.8794C383.318 44.6271 382.742 43.5495 381.994 42.6808C381.249 41.8139 380.22 41.0176 379.008 40.2705L376.909 43.6758C377.936 44.3089 378.587 44.8537 378.962 45.2889C379.144 45.5005 379.235 45.6577 379.28 45.7573C379.301 45.8056 379.31 45.8382 379.314 45.856C379.316 45.865 379.317 45.8711 379.318 45.8745C379.318 45.8778 379.318 45.8793 379.318 45.8794H383.318ZM379.007 40.2698C377.942 39.6147 376.74 38.94 375.405 38.2456L373.559 41.7945C374.828 42.4542 375.944 43.0816 376.91 43.6765L379.007 40.2698ZM375.419 38.2533C374.189 37.6007 372.929 36.8701 371.639 36.0603L369.513 39.4485C370.878 40.3054 372.222 41.0851 373.544 41.7867L375.419 38.2533ZM371.625 36.0515C368.556 34.1611 366.14 31.9839 364.333 29.5357L361.115 31.9106C363.267 34.827 366.085 37.3373 369.527 39.4572L371.625 36.0515ZM364.341 29.5459C362.69 27.2783 361.794 24.3322 361.794 20.5669H357.794C357.794 24.9787 358.852 28.8034 361.107 31.9004L364.341 29.5459ZM361.794 20.5669C361.794 16.4691 362.868 13.1921 364.903 10.6009C366.951 7.9922 370.107 5.91062 374.555 4.46061L373.315 0.657555C368.336 2.28046 364.422 4.73664 361.757 8.13053C359.078 11.542 357.794 15.7324 357.794 20.5669H361.794ZM374.556 4.46029C378.142 3.28934 382.339 2.68408 387.177 2.68408V-1.31592C382.015 -1.31592 377.384 -0.671175 373.314 0.657871L374.556 4.46029ZM387.177 2.68408C392.051 2.68408 397.161 3.23966 402.509 4.36033L403.33 0.445338C397.741 -0.725663 392.355 -1.31592 387.177 -1.31592V2.68408ZM402.51 4.36041C403.642 4.59732 404.313 4.75263 404.597 4.83369L405.695 0.987597C405.25 0.860322 404.437 0.677095 403.329 0.445251L402.51 4.36041ZM403.146 2.91064V20.8403H407.146V2.91064L403.146 2.91064ZM405.563 18.8843C398.475 17.373 393.202 16.5747 389.873 16.5747V20.5747C392.741 20.5747 397.65 21.2868 404.729 22.7964L405.563 18.8843ZM389.873 16.5747C388.504 16.5747 387.122 16.8015 386.035 17.5579L388.319 20.8415C388.43 20.7646 388.845 20.5747 389.873 20.5747V16.5747ZM386.035 17.5579C385.131 18.1867 384.279 19.1907 384.279 20.606H388.279C388.279 20.6705 388.269 20.7388 388.249 20.8044C388.23 20.869 388.205 20.9149 388.189 20.9405C388.16 20.9861 388.172 20.9438 388.319 20.8415L386.035 17.5579ZM384.279 20.606C384.279 21.8189 384.884 22.8261 385.58 23.5919L388.54 20.9012C388.377 20.7216 388.306 20.6022 388.28 20.5469C388.257 20.4984 388.279 20.5241 388.279 20.606H384.279ZM385.612 23.6259C386.405 24.4586 387.59 25.1466 388.936 25.7508L390.575 22.1017C389.368 21.5601 388.757 21.1283 388.508 20.8673L385.612 23.6259ZM388.968 25.7646C390.212 26.298 391.671 26.9633 393.348 27.7627L395.069 24.1523C393.36 23.3372 391.851 22.6483 390.543 22.088L388.968 25.7646ZM393.381 27.7783C395.031 28.5281 396.558 29.3362 397.967 30.2009L400.06 26.7922C398.499 25.8341 396.824 24.9494 395.036 24.1368L393.381 27.7783ZM397.968 30.2015C404.115 33.9717 407.013 38.9492 407.013 45.2544H411.013C411.013 37.393 407.245 31.1986 400.059 26.7917L397.968 30.2015ZM407.013 45.2544C407.013 51.4729 404.945 56.0547 400.957 59.2865L403.475 62.3942C408.55 58.2822 411.013 52.4734 411.013 45.2544H407.013ZM400.971 59.2751C396.852 62.5515 391.017 64.323 383.225 64.3482L383.238 68.3481C391.593 68.3212 398.414 66.4208 403.461 62.4055L400.971 59.2751ZM422.755 2.44189V0.441895H420.755V2.44189H422.755ZM481.818 2.44189L483.818 2.44189V0.441895L481.818 0.441895V2.44189ZM481.818 22.6763V24.6763H483.818V22.6763H481.818ZM464.435 22.6763V20.6763H462.435V22.6763H464.435ZM464.435 64.8247V66.8247H466.435V64.8247H464.435ZM440.138 64.8247H438.138V66.8247H440.138V64.8247ZM440.138 22.6763H442.138V20.6763H440.138V22.6763ZM422.755 22.6763H420.755V24.6763H422.755V22.6763ZM422.755 4.44189L481.818 4.44189V0.441895L422.755 0.441895V4.44189ZM479.818 2.44189V22.6763H483.818V2.44189L479.818 2.44189ZM481.818 20.6763L464.435 20.6763V24.6763H481.818V20.6763ZM462.435 22.6763V64.8247H466.435V22.6763H462.435ZM464.435 62.8247L440.138 62.8247V66.8247H464.435V62.8247ZM442.138 64.8247V22.6763H438.138V64.8247H442.138ZM440.138 20.6763H422.755V24.6763L440.138 24.6763V20.6763ZM424.755 22.6763V2.44189H420.755V22.6763H424.755ZM527.388 53.5356L526.104 52.0023L525.388 52.6018V53.5356H527.388ZM551.177 33.6138L549.893 32.0804V32.0804L551.177 33.6138ZM554.458 21.4263L553.044 22.8405L553.053 22.8497L553.063 22.8587L554.458 21.4263ZM546.216 20.6841L546.837 22.5855L546.849 22.5814L546.216 20.6841ZM531.802 30.5669L530.162 31.7109L531.574 33.7356L533.262 31.9345L531.802 30.5669ZM522.623 17.4028L520.911 16.3689L520.239 17.4811L520.982 18.5468L522.623 17.4028ZM536.841 5.13721L536.001 3.32217L536.841 5.13721ZM575.044 5.80127L573.909 7.44755L573.909 7.44795L575.044 5.80127ZM576.412 35.6841L574.993 34.274L574.99 34.2778L576.412 35.6841ZM569.302 41.895L570.483 43.5095L570.494 43.5012L569.302 41.895ZM563.638 46.1138L562.419 44.5285L557.758 48.1138H563.638V46.1138ZM583.482 46.1138H585.482V44.1138H583.482V46.1138ZM583.482 64.8247V66.8247H585.482V64.8247H583.482ZM527.388 64.8247H525.388V66.8247H527.388V64.8247ZM528.672 55.069L552.461 35.1471L549.893 32.0804L526.104 52.0023L528.672 55.069ZM552.461 35.1471C555.915 32.255 557.982 28.9457 557.982 25.2153L553.982 25.2153C553.982 27.3183 552.846 29.6079 549.893 32.0804L552.461 35.1471ZM557.982 25.2153C557.982 23.1894 557.291 21.3933 555.854 19.9938L553.063 22.8587C553.658 23.4384 553.982 24.1684 553.982 25.2153L557.982 25.2153ZM555.873 20.0121C554.476 18.6158 552.703 17.9419 550.708 17.9419V21.9419C551.735 21.9419 552.461 22.2576 553.044 22.8405L555.873 20.0121ZM550.708 17.9419C548.975 17.9419 547.265 18.2264 545.584 18.7867L546.849 22.5814C548.137 22.1522 549.421 21.9419 550.708 21.9419V17.9419ZM545.596 18.7828C540.244 20.5292 535.166 24.0534 530.343 29.1993L533.262 31.9345C537.762 27.1325 542.293 24.0681 546.837 22.5854L545.596 18.7828ZM533.443 29.4229L524.263 16.2588L520.982 18.5468L530.162 31.7109L533.443 29.4229ZM524.335 18.4368C527.279 13.5611 531.693 9.7239 537.681 6.95225L536.001 3.32217C529.386 6.38385 524.32 10.7237 520.911 16.3689L524.335 18.4368ZM537.681 6.95225C543.713 4.16083 550.144 2.76221 556.998 2.76221V-1.23779C549.58 -1.23779 542.574 0.280249 536.001 3.32217L537.681 6.95225ZM556.998 2.76221C563.84 2.76221 569.438 4.36331 573.909 7.44755L576.18 4.15499C570.911 0.520476 564.478 -1.23779 556.998 -1.23779V2.76221ZM573.909 7.44795C578.73 10.7712 581.091 15.2716 581.091 21.1528H585.091C585.091 13.9612 582.088 8.22722 576.18 4.15459L573.909 7.44795ZM581.091 21.1528C581.091 25.724 579.158 30.0846 574.993 34.274L577.83 37.0942C582.571 32.3252 585.091 26.9984 585.091 21.1528H581.091ZM574.99 34.2778C572.737 36.5557 570.444 38.5579 568.111 40.2888L570.494 43.5012C573.005 41.6384 575.451 39.4999 577.834 37.0904L574.99 34.2778ZM568.122 40.2806C565.695 42.055 563.792 43.4723 562.419 44.5285L564.858 47.699C566.193 46.6719 568.066 45.2767 570.483 43.5095L568.122 40.2806ZM563.638 48.1138H583.482V44.1138H563.638V48.1138ZM581.482 46.1138V64.8247H585.482V46.1138H581.482ZM583.482 62.8247H527.388V66.8247H583.482V62.8247ZM529.388 64.8247V53.5356H525.388V64.8247H529.388ZM607.771 41.3872L608.883 39.7251L607.153 38.5669L606.065 40.3427L607.771 41.3872ZM635.505 46.5044L634.275 44.9274L634.268 44.9334L634.26 44.9395L635.505 46.5044ZM636.794 39.9419L635.054 40.9279L635.062 40.9407L635.069 40.9533L636.794 39.9419ZM634.998 37.9497L633.809 39.5581L633.817 39.5639L633.825 39.5696L634.998 37.9497ZM620.271 35.4497L618.536 36.4446L619.228 37.6511L620.6 37.4225L620.271 35.4497ZM615.544 27.2075H613.544V27.7403L613.809 28.2025L615.544 27.2075ZM626.169 19.4731L627.277 21.1382L632.785 17.4731H626.169V19.4731ZM602.576 19.4731L600.576 19.4731V21.4731L602.576 21.4731V19.4731ZM602.576 2.44189V0.441895H600.576V2.44189H602.576ZM662.81 2.44189H664.81V0.441895H662.81V2.44189ZM662.81 9.47314L664.021 11.0649L664.81 10.4646V9.47314H662.81ZM642.732 24.7466L641.521 23.1548L637.603 26.1355L642.49 26.7319L642.732 24.7466ZM664.177 44.356L666.177 44.3654V44.356H664.177ZM659.06 57.8716L657.625 56.479L657.623 56.481L659.06 57.8716ZM631.951 66.27V64.27L631.945 64.27L631.951 66.27ZM606.794 61.4653L607.585 59.6283L607.576 59.6245L606.794 61.4653ZM598.513 56.5044L596.808 55.4599L595.885 56.9661L597.266 58.0677L598.513 56.5044ZM606.659 43.0493C613.617 47.7066 621.469 50.0278 630.154 50.0278V46.0278C622.224 46.0278 615.154 43.9219 608.883 39.7251L606.659 43.0493ZM630.154 50.0278C632.718 50.0278 635.002 49.4613 636.751 48.0692L634.26 44.9395C633.457 45.5788 632.173 46.0278 630.154 46.0278V50.0278ZM636.735 48.0814C638.381 46.7982 639.458 45.1071 639.458 43.0278H635.458C635.458 43.5528 635.234 44.1793 634.275 44.9274L636.735 48.0814ZM639.458 43.0278C639.458 41.5314 639.209 40.1066 638.52 38.9305L635.069 40.9533C635.265 41.2876 635.458 41.9201 635.458 43.0278H639.458ZM638.534 38.9559C637.945 37.9155 637.149 37.0383 636.171 36.3298L633.825 39.5696C634.357 39.9549 634.759 40.4058 635.054 40.9279L638.534 38.9559ZM636.186 36.3414C633.288 34.199 629.132 33.2935 624.06 33.2935V37.2935C628.78 37.2935 631.916 38.1588 633.809 39.5581L636.186 36.3414ZM624.06 33.2935C622.187 33.2935 620.758 33.341 619.942 33.4769L620.6 37.4225C621.034 37.3501 622.131 37.2935 624.06 37.2935V33.2935ZM622.006 34.4548L617.279 26.2126L613.809 28.2025L618.536 36.4446L622.006 34.4548ZM617.544 27.2075C617.544 27.7603 617.305 28.1232 617.283 28.1581C617.222 28.2553 617.177 28.3017 617.192 28.2848C617.218 28.2563 617.309 28.1652 617.506 27.9968C617.89 27.6697 618.505 27.1945 619.378 26.5589C621.114 25.2952 623.742 23.491 627.277 21.1382L625.061 17.8081C621.514 20.1689 618.829 22.0105 617.024 23.3249C616.126 23.9783 615.413 24.5252 614.911 24.9534C614.665 25.1626 614.424 25.3824 614.229 25.598C614.133 25.7032 614.005 25.855 613.889 26.0409C613.812 26.1644 613.544 26.5994 613.544 27.2075H617.544ZM626.169 17.4731H602.576V21.4731H626.169V17.4731ZM604.576 19.4731V2.44189H600.576V19.4731L604.576 19.4731ZM602.576 4.44189L662.81 4.44189V0.441895L602.576 0.441895V4.44189ZM660.81 2.44189V9.47314H664.81V2.44189H660.81ZM661.599 7.88136L641.521 23.1548L643.943 26.3384L664.021 11.0649L661.599 7.88136ZM642.49 26.7319C649.416 27.5771 654.316 29.5527 657.466 32.4335C660.555 35.2578 662.177 39.1492 662.177 44.356H666.177C666.177 38.2346 664.225 33.1937 660.166 29.4815C656.168 25.8259 650.345 23.6608 642.974 22.7613L642.49 26.7319ZM662.177 44.3465C662.153 49.4264 660.601 53.4112 657.625 56.479L660.496 59.2642C664.29 55.3528 666.149 50.3271 666.177 44.3654L662.177 44.3465ZM657.623 56.481C652.761 61.5063 644.39 64.27 631.951 64.27V68.27C644.824 68.27 654.526 65.4348 660.497 59.2622L657.623 56.481ZM631.945 64.27C622.911 64.2954 614.802 62.7355 607.585 59.6284L606.004 63.3023C613.787 66.6535 622.449 68.2967 631.956 68.27L631.945 64.27ZM607.576 59.6245C604.806 58.4477 602.201 56.8888 599.761 54.9411L597.266 58.0677C599.981 60.2346 602.898 61.983 606.013 63.3061L607.576 59.6245ZM600.219 57.5489L609.477 42.4317L606.065 40.3427L596.808 55.4599L600.219 57.5489Z"
        fill="black" mask="url(#path-1-outside-1_151_53)" />
    <mask id="path-3-outside-2_151_53" maskUnits="userSpaceOnUse" x="7.26672" y="1.93848" width="654" height="71"
        fill="black">
        <rect fill="white" x="7.26672" y="1.93848" width="654" height="71" />
        <path
            d="M10.0714 6.55566C25.8787 5.38379 36.1912 4.79785 41.0089 4.79785C45.8527 4.79785 49.6678 5.25358 52.4542 6.16504C55.2667 7.05046 57.7797 8.28743 59.9933 9.87598C64.2902 12.9229 67.5323 16.9723 69.7198 22.0244C71.9334 27.0765 73.0402 32.1937 73.0402 37.376C73.0402 42.5583 72.1938 47.0895 70.5011 50.9697C68.8344 54.8239 66.5167 58.0791 63.548 60.7354C57.4803 66.2301 49.6287 68.9645 39.9933 68.9385H10.0714L10.0714 6.55566ZM34.3683 26.3604V50.1494C35.7485 48.9775 37.2459 47.8187 38.8605 46.6729C45.0584 42.2197 48.1573 37.5583 48.1573 32.6885C48.1573 30.3187 47.4542 28.1312 46.048 26.126C44.6417 24.0947 42.8058 23.0791 40.5402 23.0791C38.3006 23.0791 36.2433 24.1729 34.3683 26.3604ZM88.7745 6.55566L133.735 6.55566V24.5244H113.071V29.6416H133.657V44.9541H113.071V50.8525H135.103V68.9385H88.7745V6.55566ZM176.892 6.55566L186.618 26.126L195.681 6.55566L218.571 6.55566L187.907 68.8604C187.23 70.1364 186.045 70.7744 184.353 70.7744C182.686 70.7744 181.527 70.1364 180.876 68.8604L148.571 6.55566L176.892 6.55566ZM232.431 6.55566L277.314 6.55566V24.2119H256.728V29.9932H277.314V47.0244H256.728V68.9385H232.431V6.55566ZM292.15 6.55566L337.11 6.55566V24.5244H316.446V29.6416H337.032V44.9541L316.446 44.9541V50.8525L338.478 50.8525V68.9385L292.15 68.9385V6.55566ZM378.157 70.4619C366.465 70.4619 358.704 69.0166 354.876 66.126V48.2354C354.98 48.2614 355.358 48.3786 356.009 48.5869C356.686 48.7952 357.532 49.0557 358.548 49.3682C360.918 50.0973 363.405 50.7874 366.009 51.4385C368.639 52.0635 370.748 52.376 372.337 52.376C374.941 52.376 376.243 51.5817 376.243 49.9932C376.243 48.7692 375.123 47.4671 372.884 46.0869C371.868 45.4619 370.709 44.8109 369.407 44.1338C368.131 43.4567 366.829 42.7015 365.501 41.8682C362.246 39.863 359.629 37.5192 357.65 34.8369C355.696 32.1546 354.72 28.7692 354.72 24.6807C354.72 15.7484 359.433 9.74577 368.86 6.67285C372.689 5.42285 377.103 4.79785 382.103 4.79785C387.129 4.79785 392.376 5.37077 397.845 6.5166C398.965 6.75098 399.707 6.92025 400.071 7.02441V24.9541C392.988 23.4437 387.897 22.6885 384.798 22.6885C383.6 22.6885 382.702 22.8968 382.103 23.3135C381.504 23.7301 381.204 24.1989 381.204 24.7197C381.204 25.2406 381.465 25.7874 381.985 26.3604C382.506 26.9072 383.405 27.4671 384.681 28.04C385.957 28.5869 387.441 29.264 389.134 30.0713C390.853 30.8525 392.454 31.6989 393.939 32.6104C400.605 36.6989 403.939 42.2848 403.939 49.3682C403.939 56.0869 401.673 61.2822 397.142 64.9541C392.558 68.5999 386.23 70.4359 378.157 70.4619ZM417.681 6.55566L476.743 6.55566V26.79L459.36 26.79V68.9385H435.064V26.79H417.681V6.55566Z" />
        <path
            d="M522.314 57.6494L546.103 37.7275C549.306 35.0452 550.907 32.2458 550.907 29.3291C550.907 27.7926 550.4 26.5296 549.384 25.54C548.394 24.5505 547.144 24.0557 545.634 24.0557C544.123 24.0557 542.626 24.3031 541.142 24.7979C536.194 26.4124 531.389 29.7067 526.728 34.6807L517.548 21.5166C520.725 16.2562 525.465 12.1676 531.767 9.25098C538.069 6.33431 544.788 4.87598 551.923 4.87598C559.084 4.87598 565.1 6.55566 569.97 9.91504C575.334 13.613 578.017 18.7301 578.017 25.2666C578.017 30.4749 575.79 35.3187 571.337 39.7979C569.019 42.1416 566.65 44.2119 564.228 46.0088C561.806 47.7796 559.918 49.1859 558.564 50.2275H578.407V68.9385H522.314V57.6494ZM602.696 45.501C609.311 49.9281 616.772 52.1416 625.079 52.1416C627.371 52.1416 629.155 51.6338 630.431 50.6182C631.733 49.6025 632.384 48.4437 632.384 47.1416C632.384 45.8395 632.163 44.8109 631.72 44.0557C631.277 43.2744 630.678 42.6104 629.923 42.0635C627.527 40.2926 623.881 39.4072 618.985 39.4072C617.084 39.4072 615.821 39.4593 615.196 39.5635L610.47 31.3213C610.47 30.8786 614.012 28.3005 621.095 23.5869H597.501V6.55566L657.735 6.55566V13.5869L637.657 28.8604C651.954 30.6051 659.103 37.1416 659.103 48.4697C659.077 53.9906 657.371 58.4958 653.985 61.9854C648.569 67.5843 639.532 70.3838 626.876 70.3838C617.605 70.4098 609.22 68.8083 601.72 65.5791C598.777 64.3291 596.017 62.6755 593.439 60.6182L602.696 45.501Z" />
    </mask>
    <path
        d="M10.0714 6.55566C25.8787 5.38379 36.1912 4.79785 41.0089 4.79785C45.8527 4.79785 49.6678 5.25358 52.4542 6.16504C55.2667 7.05046 57.7797 8.28743 59.9933 9.87598C64.2902 12.9229 67.5323 16.9723 69.7198 22.0244C71.9334 27.0765 73.0402 32.1937 73.0402 37.376C73.0402 42.5583 72.1938 47.0895 70.5011 50.9697C68.8344 54.8239 66.5167 58.0791 63.548 60.7354C57.4803 66.2301 49.6287 68.9645 39.9933 68.9385H10.0714L10.0714 6.55566ZM34.3683 26.3604V50.1494C35.7485 48.9775 37.2459 47.8187 38.8605 46.6729C45.0584 42.2197 48.1573 37.5583 48.1573 32.6885C48.1573 30.3187 47.4542 28.1312 46.048 26.126C44.6417 24.0947 42.8058 23.0791 40.5402 23.0791C38.3006 23.0791 36.2433 24.1729 34.3683 26.3604ZM88.7745 6.55566L133.735 6.55566V24.5244H113.071V29.6416H133.657V44.9541H113.071V50.8525H135.103V68.9385H88.7745V6.55566ZM176.892 6.55566L186.618 26.126L195.681 6.55566L218.571 6.55566L187.907 68.8604C187.23 70.1364 186.045 70.7744 184.353 70.7744C182.686 70.7744 181.527 70.1364 180.876 68.8604L148.571 6.55566L176.892 6.55566ZM232.431 6.55566L277.314 6.55566V24.2119H256.728V29.9932H277.314V47.0244H256.728V68.9385H232.431V6.55566ZM292.15 6.55566L337.11 6.55566V24.5244H316.446V29.6416H337.032V44.9541L316.446 44.9541V50.8525L338.478 50.8525V68.9385L292.15 68.9385V6.55566ZM378.157 70.4619C366.465 70.4619 358.704 69.0166 354.876 66.126V48.2354C354.98 48.2614 355.358 48.3786 356.009 48.5869C356.686 48.7952 357.532 49.0557 358.548 49.3682C360.918 50.0973 363.405 50.7874 366.009 51.4385C368.639 52.0635 370.748 52.376 372.337 52.376C374.941 52.376 376.243 51.5817 376.243 49.9932C376.243 48.7692 375.123 47.4671 372.884 46.0869C371.868 45.4619 370.709 44.8109 369.407 44.1338C368.131 43.4567 366.829 42.7015 365.501 41.8682C362.246 39.863 359.629 37.5192 357.65 34.8369C355.696 32.1546 354.72 28.7692 354.72 24.6807C354.72 15.7484 359.433 9.74577 368.86 6.67285C372.689 5.42285 377.103 4.79785 382.103 4.79785C387.129 4.79785 392.376 5.37077 397.845 6.5166C398.965 6.75098 399.707 6.92025 400.071 7.02441V24.9541C392.988 23.4437 387.897 22.6885 384.798 22.6885C383.6 22.6885 382.702 22.8968 382.103 23.3135C381.504 23.7301 381.204 24.1989 381.204 24.7197C381.204 25.2406 381.465 25.7874 381.985 26.3604C382.506 26.9072 383.405 27.4671 384.681 28.04C385.957 28.5869 387.441 29.264 389.134 30.0713C390.853 30.8525 392.454 31.6989 393.939 32.6104C400.605 36.6989 403.939 42.2848 403.939 49.3682C403.939 56.0869 401.673 61.2822 397.142 64.9541C392.558 68.5999 386.23 70.4359 378.157 70.4619ZM417.681 6.55566L476.743 6.55566V26.79L459.36 26.79V68.9385H435.064V26.79H417.681V6.55566Z"
        fill="#E7BB3E" />
    <path
        d="M522.314 57.6494L546.103 37.7275C549.306 35.0452 550.907 32.2458 550.907 29.3291C550.907 27.7926 550.4 26.5296 549.384 25.54C548.394 24.5505 547.144 24.0557 545.634 24.0557C544.123 24.0557 542.626 24.3031 541.142 24.7979C536.194 26.4124 531.389 29.7067 526.728 34.6807L517.548 21.5166C520.725 16.2562 525.465 12.1676 531.767 9.25098C538.069 6.33431 544.788 4.87598 551.923 4.87598C559.084 4.87598 565.1 6.55566 569.97 9.91504C575.334 13.613 578.017 18.7301 578.017 25.2666C578.017 30.4749 575.79 35.3187 571.337 39.7979C569.019 42.1416 566.65 44.2119 564.228 46.0088C561.806 47.7796 559.918 49.1859 558.564 50.2275H578.407V68.9385H522.314V57.6494ZM602.696 45.501C609.311 49.9281 616.772 52.1416 625.079 52.1416C627.371 52.1416 629.155 51.6338 630.431 50.6182C631.733 49.6025 632.384 48.4437 632.384 47.1416C632.384 45.8395 632.163 44.8109 631.72 44.0557C631.277 43.2744 630.678 42.6104 629.923 42.0635C627.527 40.2926 623.881 39.4072 618.985 39.4072C617.084 39.4072 615.821 39.4593 615.196 39.5635L610.47 31.3213C610.47 30.8786 614.012 28.3005 621.095 23.5869H597.501V6.55566L657.735 6.55566V13.5869L637.657 28.8604C651.954 30.6051 659.103 37.1416 659.103 48.4697C659.077 53.9906 657.371 58.4958 653.985 61.9854C648.569 67.5843 639.532 70.3838 626.876 70.3838C617.605 70.4098 609.22 68.8083 601.72 65.5791C598.777 64.3291 596.017 62.6755 593.439 60.6182L602.696 45.501Z"
        fill="#C14500" />
    <path
        d="M10.0714 6.55566L9.92355 4.56114L8.07141 4.69845V6.55566H10.0714ZM52.4542 6.16504L51.8324 8.06593L51.843 8.06939L51.8537 8.07274L52.4542 6.16504ZM59.9933 9.87598L58.8272 11.5009L58.8364 11.5074L59.9933 9.87598ZM69.7198 22.0244L67.8845 22.8191L67.888 22.827L69.7198 22.0244ZM70.5011 50.9697L68.6679 50.17L68.6654 50.1759L70.5011 50.9697ZM63.548 60.7354L62.2144 59.2448L62.2055 59.2529L63.548 60.7354ZM39.9933 68.9385L39.9987 66.9385H39.9933V68.9385ZM10.0714 68.9385H8.07141V70.9385H10.0714V68.9385ZM34.3683 26.3604L32.8498 25.0588L32.3683 25.6205V26.3604H34.3683ZM34.3683 50.1494H32.3683V54.4712L35.6627 51.674L34.3683 50.1494ZM38.8605 46.6729L40.018 48.3039L40.0275 48.2971L38.8605 46.6729ZM46.048 26.126L44.4036 27.2644L44.4105 27.2743L46.048 26.126ZM10.2193 8.55019C26.044 7.37703 36.2792 6.79785 41.0089 6.79785V2.79785C36.1032 2.79785 25.7134 3.39055 9.92355 4.56114L10.2193 8.55019ZM41.0089 6.79785C45.7602 6.79785 49.3349 7.24897 51.8324 8.06593L53.076 4.26415C50.0007 3.25819 45.9451 2.79785 41.0089 2.79785V6.79785ZM51.8537 8.07274C54.4804 8.89969 56.7996 10.0457 58.8272 11.5009L61.1594 8.2511C58.7599 6.52914 56.053 5.20122 53.0548 4.25734L51.8537 8.07274ZM58.8364 11.5074C62.8211 14.3329 65.8355 18.0869 67.8845 22.8191L71.5552 21.2297C69.2292 15.8578 65.7593 11.5128 61.1501 8.24451L58.8364 11.5074ZM67.888 22.827C69.9979 27.6426 71.0402 32.4875 71.0402 37.376H75.0402C75.0402 31.8999 73.8689 26.5104 71.5517 21.2218L67.888 22.827ZM71.0402 37.376C71.0402 42.3432 70.2289 46.5919 68.6679 50.17L72.3343 51.7694C74.1588 47.5871 75.0402 42.7733 75.0402 37.376H71.0402ZM68.6654 50.1759C67.1073 53.7789 64.9557 56.7921 62.2144 59.2449L64.8816 62.2258C68.0778 59.3661 70.5615 55.8689 72.3368 51.7635L68.6654 50.1759ZM62.2055 59.2529C56.5709 64.3554 49.2297 66.9634 39.9987 66.9385L39.9879 70.9385C50.0277 70.9656 58.3896 68.1049 64.8905 62.2178L62.2055 59.2529ZM39.9933 66.9385H10.0714V70.9385H39.9933V66.9385ZM12.0714 68.9385L12.0714 6.55566H8.07141L8.07141 68.9385H12.0714ZM32.3683 26.3604V50.1494H36.3683V26.3604H32.3683ZM35.6627 51.674C36.995 50.5428 38.4462 49.4193 40.018 48.3039L37.703 45.0418C36.0455 46.2181 34.502 47.4122 33.0738 48.6248L35.6627 51.674ZM40.0275 48.2971C46.4441 43.6868 50.1573 38.5025 50.1573 32.6885H46.1573C46.1573 36.6141 43.6726 40.7527 37.6935 45.0486L40.0275 48.2971ZM50.1573 32.6885C50.1573 29.8933 49.3192 27.3073 47.6854 24.9776L44.4105 27.2743C45.5892 28.9551 46.1573 30.744 46.1573 32.6885H50.1573ZM47.6924 24.9876C45.9522 22.474 43.5288 21.0791 40.5402 21.0791V25.0791C42.0827 25.0791 43.3312 25.7154 44.4036 27.2644L47.6924 24.9876ZM40.5402 21.0791C37.5584 21.0791 34.988 22.5642 32.8498 25.0588L35.8868 27.6619C37.4986 25.7815 39.0427 25.0791 40.5402 25.0791V21.0791ZM88.7745 6.55566V4.55566H86.7745V6.55566H88.7745ZM133.735 6.55566H135.735V4.55566H133.735V6.55566ZM133.735 24.5244V26.5244H135.735V24.5244H133.735ZM113.071 24.5244V22.5244H111.071V24.5244H113.071ZM113.071 29.6416H111.071V31.6416H113.071V29.6416ZM133.657 29.6416H135.657V27.6416H133.657V29.6416ZM133.657 44.9541V46.9541H135.657V44.9541H133.657ZM113.071 44.9541V42.9541H111.071V44.9541H113.071ZM113.071 50.8525H111.071V52.8525H113.071V50.8525ZM135.103 50.8525H137.103V48.8525H135.103V50.8525ZM135.103 68.9385V70.9385H137.103V68.9385H135.103ZM88.7745 68.9385H86.7745V70.9385H88.7745V68.9385ZM88.7745 8.55566L133.735 8.55566V4.55566L88.7745 4.55566V8.55566ZM131.735 6.55566V24.5244H135.735V6.55566H131.735ZM133.735 22.5244H113.071V26.5244H133.735V22.5244ZM111.071 24.5244V29.6416H115.071V24.5244H111.071ZM113.071 31.6416H133.657V27.6416H113.071V31.6416ZM131.657 29.6416V44.9541H135.657V29.6416H131.657ZM133.657 42.9541H113.071V46.9541H133.657V42.9541ZM111.071 44.9541V50.8525H115.071V44.9541H111.071ZM113.071 52.8525H135.103V48.8525H113.071V52.8525ZM133.103 50.8525V68.9385H137.103V50.8525H133.103ZM135.103 66.9385H88.7745V70.9385H135.103V66.9385ZM90.7745 68.9385V6.55566H86.7745V68.9385H90.7745ZM176.892 6.55566L178.683 5.66553L178.131 4.55566H176.892V6.55566ZM186.618 26.126L184.827 27.0161L186.682 30.7479L188.433 26.9664L186.618 26.126ZM195.681 6.55566V4.55566H194.403L193.866 5.71525L195.681 6.55566ZM218.571 6.55566L220.366 7.43882L221.785 4.55566L218.571 4.55566V6.55566ZM187.907 68.8604L189.674 69.7978L189.688 69.7709L189.702 69.7435L187.907 68.8604ZM180.876 68.8604L182.658 67.9514L182.652 67.9398L180.876 68.8604ZM148.571 6.55566V4.55566H145.282L146.796 7.47627L148.571 6.55566ZM175.101 7.4458L184.827 27.0161L188.409 25.2358L178.683 5.66553L175.101 7.4458ZM188.433 26.9664L197.496 7.39608L193.866 5.71525L184.803 25.2856L188.433 26.9664ZM195.681 8.55566L218.571 8.55566V4.55566L195.681 4.55566V8.55566ZM216.777 5.6725L186.113 67.9772L189.702 69.7435L220.366 7.43882L216.777 5.6725ZM186.141 67.9229C185.877 68.4197 185.459 68.7744 184.353 68.7744V72.7744C186.632 72.7744 188.583 71.8531 189.674 69.7978L186.141 67.9229ZM184.353 68.7744C183.771 68.7744 183.415 68.6632 183.198 68.5439C182.998 68.434 182.817 68.264 182.658 67.9514L179.095 69.7693C179.586 70.7328 180.31 71.5198 181.269 72.0479C182.211 72.5666 183.268 72.7744 184.353 72.7744V68.7744ZM182.652 67.9398L150.347 5.63506L146.796 7.47627L179.101 69.781L182.652 67.9398ZM148.571 8.55566L176.892 8.55566V4.55566L148.571 4.55566V8.55566ZM232.431 6.55566V4.55566H230.431V6.55566H232.431ZM277.314 6.55566H279.314V4.55566H277.314V6.55566ZM277.314 24.2119V26.2119H279.314V24.2119H277.314ZM256.728 24.2119V22.2119H254.728V24.2119H256.728ZM256.728 29.9932H254.728V31.9932H256.728V29.9932ZM277.314 29.9932H279.314V27.9932H277.314V29.9932ZM277.314 47.0244V49.0244H279.314V47.0244H277.314ZM256.728 47.0244V45.0244H254.728V47.0244H256.728ZM256.728 68.9385V70.9385H258.728V68.9385H256.728ZM232.431 68.9385H230.431V70.9385H232.431V68.9385ZM232.431 8.55566L277.314 8.55566V4.55566L232.431 4.55566V8.55566ZM275.314 6.55566V24.2119H279.314V6.55566H275.314ZM277.314 22.2119H256.728V26.2119H277.314V22.2119ZM254.728 24.2119V29.9932H258.728V24.2119H254.728ZM256.728 31.9932H277.314V27.9932H256.728V31.9932ZM275.314 29.9932V47.0244H279.314V29.9932H275.314ZM277.314 45.0244H256.728V49.0244H277.314V45.0244ZM254.728 47.0244V68.9385H258.728V47.0244H254.728ZM256.728 66.9385H232.431V70.9385H256.728V66.9385ZM234.431 68.9385V6.55566H230.431V68.9385H234.431ZM292.15 6.55566V4.55566H290.15V6.55566H292.15ZM337.11 6.55566H339.11V4.55566H337.11V6.55566ZM337.11 24.5244V26.5244H339.11V24.5244H337.11ZM316.446 24.5244V22.5244H314.446V24.5244H316.446ZM316.446 29.6416H314.446V31.6416H316.446V29.6416ZM337.032 29.6416H339.032V27.6416H337.032V29.6416ZM337.032 44.9541V46.9541H339.032V44.9541H337.032ZM316.446 44.9541V42.9541H314.446V44.9541H316.446ZM316.446 50.8525H314.446V52.8525H316.446V50.8525ZM338.478 50.8525H340.478V48.8525H338.478V50.8525ZM338.478 68.9385V70.9385H340.478V68.9385H338.478ZM292.15 68.9385H290.15V70.9385H292.15V68.9385ZM292.15 8.55566L337.11 8.55566V4.55566L292.15 4.55566V8.55566ZM335.11 6.55566V24.5244H339.11V6.55566H335.11ZM337.11 22.5244H316.446V26.5244H337.11V22.5244ZM314.446 24.5244V29.6416H318.446V24.5244H314.446ZM316.446 31.6416H337.032V27.6416H316.446V31.6416ZM335.032 29.6416V44.9541H339.032V29.6416H335.032ZM337.032 42.9541L316.446 42.9541V46.9541L337.032 46.9541V42.9541ZM314.446 44.9541V50.8525H318.446V44.9541H314.446ZM316.446 52.8525L338.478 52.8525V48.8525L316.446 48.8525V52.8525ZM336.478 50.8525V68.9385H340.478V50.8525H336.478ZM338.478 66.9385L292.15 66.9385V70.9385L338.478 70.9385V66.9385ZM294.15 68.9385V6.55566H290.15V68.9385H294.15ZM378.157 70.4619V72.4619L378.164 72.4619L378.157 70.4619ZM354.876 66.126H352.876V67.1219L353.671 67.7221L354.876 66.126ZM354.876 48.2354L355.361 46.2951L352.876 45.6738V48.2354H354.876ZM356.009 48.5869L355.399 50.4918L355.41 50.4952L355.421 50.4985L356.009 48.5869ZM366.009 51.4385L365.524 53.3788L365.535 53.3816L365.547 53.3843L366.009 51.4385ZM372.884 46.0869L373.933 44.3843L373.932 44.3836L372.884 46.0869ZM369.407 44.1338L368.47 45.9005L368.477 45.9044L368.485 45.9082L369.407 44.1338ZM365.501 41.8682L366.564 40.174L366.557 40.1696L366.55 40.1653L365.501 41.8682ZM357.65 34.8369L356.033 36.0142L356.04 36.0244L357.65 34.8369ZM368.86 6.67285L369.48 8.57438L369.481 8.57406L368.86 6.67285ZM397.845 6.5166L397.435 8.4741L397.435 8.47418L397.845 6.5166ZM400.071 7.02441L402.071 7.02441V5.51581L400.621 5.10137L400.071 7.02441ZM400.071 24.9541L399.654 26.9101L402.071 27.4255V24.9541H400.071ZM381.985 26.3604L380.506 27.7057L380.521 27.7229L380.537 27.7397L381.985 26.3604ZM384.681 28.04L383.862 29.8646L383.877 29.8716L383.893 29.8783L384.681 28.04ZM389.134 30.0713L388.273 31.8765L388.29 31.8844L388.306 31.892L389.134 30.0713ZM393.939 32.6104L392.892 34.3147L392.893 34.3153L393.939 32.6104ZM397.142 64.9541L398.387 66.5193L398.394 66.5137L398.401 66.508L397.142 64.9541ZM378.157 68.4619C372.381 68.4619 367.651 68.104 363.934 67.4117C360.185 66.7135 357.638 65.7053 356.081 64.5299L353.671 67.7221C355.942 69.4372 359.19 70.597 363.201 71.3441C367.245 72.0972 372.241 72.4619 378.157 72.4619V68.4619ZM356.876 66.126V48.2354H352.876V66.126H356.876ZM354.391 50.1756C354.377 50.1722 354.439 50.1891 354.645 50.2529C354.825 50.309 355.076 50.3883 355.399 50.4918L356.618 46.6821C356.008 46.4867 355.546 46.3413 355.361 46.2951L354.391 50.1756ZM355.421 50.4985C355.564 50.5424 355.535 50.5335 355.683 50.579C355.766 50.6046 355.735 50.5952 355.819 50.6212C355.862 50.6343 355.846 50.6295 355.889 50.6427C355.897 50.6451 355.899 50.6457 355.907 50.6481C355.908 50.6484 355.924 50.6532 355.925 50.6535C355.936 50.6569 355.932 50.6557 355.942 50.659C355.949 50.661 355.945 50.6598 355.951 50.6617C355.953 50.6622 355.954 50.6627 355.956 50.6631C355.957 50.6636 355.959 50.664 355.96 50.6645C355.983 50.6716 356.081 50.7015 356.105 50.709C356.195 50.7368 356.162 50.7266 356.254 50.7548C356.44 50.8122 356.372 50.791 356.563 50.85C356.661 50.8801 356.625 50.869 356.724 50.8995C356.774 50.9148 356.756 50.9092 356.806 50.9246C356.817 50.9282 356.815 50.9275 356.826 50.931C356.839 50.9349 356.834 50.9335 356.847 50.9374C356.86 50.9412 356.855 50.9398 356.868 50.9437C356.875 50.946 356.871 50.9446 356.878 50.9469C356.88 50.9475 356.882 50.948 356.883 50.9485C356.885 50.9491 356.887 50.9496 356.889 50.9501C356.961 50.9724 357.152 51.0312 357.23 51.0551C357.446 51.1215 357.366 51.0969 357.587 51.165C357.699 51.1995 357.658 51.1868 357.771 51.2217C357.771 51.2217 357.958 51.2793 357.96 51.2797L359.136 47.4566C358.867 47.3739 359.027 47.423 358.763 47.3419C358.652 47.3075 358.693 47.3202 358.583 47.2863C358.523 47.268 358.464 47.2499 358.406 47.232C358.393 47.2279 358.398 47.2294 358.384 47.2253C358.376 47.2227 358.371 47.2212 358.363 47.2186C358.361 47.2181 358.359 47.2175 358.357 47.2169C358.355 47.2164 358.354 47.2158 358.352 47.2153C358.34 47.2118 358.352 47.2155 358.341 47.2119C358.34 47.2116 358.321 47.2057 358.319 47.2053C358.234 47.1789 358.319 47.2051 358.234 47.1789C358.215 47.1731 358.083 47.1324 358.065 47.127C357.936 47.0874 357.863 47.0649 357.74 47.0269C357.493 46.951 357.362 46.9108 357.137 46.8414C357.081 46.8243 357.05 46.8147 356.996 46.798C356.965 46.7885 356.957 46.7862 356.927 46.7768C356.874 46.7606 356.911 46.7721 356.859 46.7559C356.838 46.7496 356.846 46.7519 356.825 46.7456C356.809 46.7404 356.809 46.7404 356.792 46.7353C356.791 46.7349 356.789 46.7345 356.788 46.734C356.786 46.7336 356.785 46.7332 356.784 46.7328C356.782 46.7323 356.781 46.7319 356.78 46.7315C356.778 46.7311 356.777 46.7306 356.775 46.7302C356.761 46.7257 356.774 46.7296 356.759 46.7251C356.741 46.7195 356.744 46.7206 356.726 46.715C356.584 46.6712 356.738 46.7188 356.597 46.6754L355.421 50.4985ZM357.96 51.2797C360.366 52.0202 362.888 52.7198 365.524 53.3788L366.494 49.4982C363.922 48.8551 361.469 48.1745 359.136 47.4566L357.96 51.2797ZM365.547 53.3843C368.238 54.024 370.522 54.376 372.337 54.376V50.376C370.975 50.376 369.04 50.103 366.471 49.4927L365.547 53.3843ZM372.337 54.376C373.777 54.376 375.193 54.168 376.308 53.4877C377.584 52.7094 378.243 51.4495 378.243 49.9932H374.243C374.243 50.1124 374.221 50.1193 374.244 50.0766C374.269 50.0302 374.289 50.0339 374.225 50.0729C374.038 50.1868 373.501 50.376 372.337 50.376V54.376ZM378.243 49.9932C378.243 48.7408 377.667 47.6633 376.92 46.7946C376.174 45.9277 375.145 45.1314 373.933 44.3843L371.835 47.7896C372.862 48.4227 373.513 48.9675 373.887 49.4027C374.069 49.6143 374.161 49.7715 374.205 49.8711C374.226 49.9194 374.236 49.9519 374.24 49.9698C374.242 49.9788 374.243 49.9849 374.243 49.9882C374.243 49.9916 374.243 49.9931 374.243 49.9932H378.243ZM373.932 44.3836C372.867 43.7284 371.666 43.0538 370.33 42.3594L368.485 45.9082C369.753 46.5679 370.869 47.1954 371.836 47.7902L373.932 44.3836ZM370.345 42.3671C369.115 41.7145 367.855 40.9838 366.564 40.174L364.438 43.5623C365.804 44.4192 367.148 45.1989 368.47 45.9005L370.345 42.3671ZM366.55 40.1653C363.481 38.2749 361.065 36.0976 359.259 33.6495L356.04 36.0244C358.192 38.9408 361.011 41.451 364.452 43.571L366.55 40.1653ZM359.266 33.6596C357.615 31.3921 356.72 28.446 356.72 24.6807H352.72C352.72 29.0924 353.778 32.9172 356.033 36.0142L359.266 33.6596ZM356.72 24.6807C356.72 20.5829 357.793 17.3059 359.828 14.7147C361.876 12.106 365.032 10.0244 369.48 8.57438L368.241 4.77132C363.262 6.39423 359.347 8.85041 356.682 12.2443C354.003 15.6557 352.72 19.8461 352.72 24.6807H356.72ZM369.481 8.57406C373.067 7.40311 377.265 6.79785 382.103 6.79785V2.79785C376.941 2.79785 372.31 3.44259 368.24 4.77164L369.481 8.57406ZM382.103 6.79785C386.977 6.79785 392.086 7.35343 397.435 8.4741L398.255 4.55911C392.666 3.38811 387.281 2.79785 382.103 2.79785V6.79785ZM397.435 8.47418C398.567 8.71109 399.238 8.8664 399.522 8.94746L400.621 5.10137C400.175 4.97409 399.362 4.79086 398.255 4.55902L397.435 8.47418ZM398.071 7.02441V24.9541H402.071V7.02441L398.071 7.02441ZM400.488 22.9981C393.401 21.4868 388.128 20.6885 384.798 20.6885V24.6885C387.666 24.6885 392.575 25.4006 399.654 26.9101L400.488 22.9981ZM384.798 20.6885C383.43 20.6885 382.048 20.9153 380.961 21.6717L383.245 24.9553C383.355 24.8784 383.77 24.6885 384.798 24.6885V20.6885ZM380.961 21.6717C380.057 22.3004 379.204 23.3045 379.204 24.7197H383.204C383.204 24.7843 383.194 24.8526 383.175 24.9182C383.155 24.9828 383.131 25.0287 383.114 25.0543C383.085 25.0998 383.098 25.0576 383.245 24.9553L380.961 21.6717ZM379.204 24.7197C379.204 25.9327 379.809 26.9398 380.506 27.7057L383.465 25.015C383.302 24.8353 383.232 24.7159 383.205 24.6606C383.182 24.6122 383.204 24.6379 383.204 24.7197H379.204ZM380.537 27.7397C381.33 28.5724 382.516 29.2604 383.862 29.8646L385.5 26.2155C384.294 25.6739 383.682 25.2421 383.434 24.981L380.537 27.7397ZM383.893 29.8783C385.138 30.4118 386.597 31.077 388.273 31.8765L389.995 28.2661C388.286 27.451 386.776 26.7621 385.469 26.2017L383.893 29.8783ZM388.306 31.892C389.956 32.6419 391.484 33.4499 392.892 34.3147L394.985 30.906C393.425 29.9478 391.749 29.0632 389.962 28.2506L388.306 31.892ZM392.893 34.3153C399.041 38.0855 401.939 43.0629 401.939 49.3682H405.939C405.939 41.5067 402.17 35.3123 394.984 30.9054L392.893 34.3153ZM401.939 49.3682C401.939 55.5867 399.871 60.1685 395.883 63.4002L398.401 66.508C403.475 62.396 405.939 56.5871 405.939 49.3682H401.939ZM395.897 63.3889C391.778 66.6653 385.942 68.4368 378.151 68.4619L378.164 72.4619C386.519 72.435 393.339 70.5346 398.387 66.5193L395.897 63.3889ZM417.681 6.55566V4.55566H415.681V6.55566H417.681ZM476.743 6.55566L478.743 6.55566V4.55566L476.743 4.55566V6.55566ZM476.743 26.79V28.79H478.743V26.79H476.743ZM459.36 26.79V24.79H457.36V26.79H459.36ZM459.36 68.9385V70.9385H461.36V68.9385H459.36ZM435.064 68.9385H433.064V70.9385H435.064V68.9385ZM435.064 26.79H437.064V24.79H435.064V26.79ZM417.681 26.79H415.681V28.79H417.681V26.79ZM417.681 8.55566L476.743 8.55566V4.55566L417.681 4.55566V8.55566ZM474.743 6.55566V26.79H478.743V6.55566L474.743 6.55566ZM476.743 24.79L459.36 24.79V28.79H476.743V24.79ZM457.36 26.79V68.9385H461.36V26.79H457.36ZM459.36 66.9385H435.064V70.9385H459.36V66.9385ZM437.064 68.9385V26.79H433.064V68.9385H437.064ZM435.064 24.79H417.681V28.79L435.064 28.79V24.79ZM419.681 26.79V6.55566H415.681V26.79H419.681ZM522.314 57.6494L521.03 56.1161L520.314 56.7156V57.6494H522.314ZM546.103 37.7275L544.819 36.1942V36.1942L546.103 37.7275ZM549.384 25.54L547.97 26.9543L547.979 26.9634L547.988 26.9725L549.384 25.54ZM541.142 24.7979L541.762 26.6992L541.774 26.6952L541.142 24.7979ZM526.728 34.6807L525.087 35.8246L526.499 37.8494L528.187 36.0483L526.728 34.6807ZM517.548 21.5166L515.836 20.4826L515.164 21.5948L515.907 22.6606L517.548 21.5166ZM531.767 9.25098L530.927 7.43594L531.767 9.25098ZM569.97 9.91504L568.834 11.5613L568.835 11.5617L569.97 9.91504ZM571.337 39.7979L569.919 38.3878L569.915 38.3916L571.337 39.7979ZM564.228 46.0088L565.408 47.6233L565.419 47.615L564.228 46.0088ZM558.564 50.2275L557.344 48.6423L552.683 52.2275H558.564V50.2275ZM578.407 50.2275H580.407V48.2275H578.407V50.2275ZM578.407 68.9385V70.9385H580.407V68.9385H578.407ZM522.314 68.9385H520.314V70.9385H522.314V68.9385ZM523.598 59.1828L547.387 39.2609L544.819 36.1942L521.03 56.1161L523.598 59.1828ZM547.387 39.2609C550.84 36.3688 552.907 33.0595 552.907 29.3291L548.907 29.3291C548.907 31.432 547.771 33.7217 544.819 36.1942L547.387 39.2609ZM552.907 29.3291C552.907 27.3031 552.216 25.5071 550.78 24.1076L547.988 26.9725C548.583 27.5522 548.907 28.2822 548.907 29.3291L552.907 29.3291ZM550.798 24.1258C549.402 22.7296 547.628 22.0557 545.634 22.0557V26.0557C546.66 26.0557 547.387 26.3714 547.97 26.9543L550.798 24.1258ZM545.634 22.0557C543.901 22.0557 542.19 22.3402 540.509 22.9005L541.774 26.6952C543.062 26.2659 544.346 26.0557 545.634 26.0557V22.0557ZM540.521 22.8965C535.169 24.643 530.091 28.1671 525.268 33.313L528.187 36.0483C532.687 31.2463 537.218 28.1819 541.762 26.6992L540.521 22.8965ZM528.368 33.5367L519.188 20.3726L515.907 22.6606L525.087 35.8246L528.368 33.5367ZM519.26 22.5506C522.205 17.6749 526.618 13.8377 532.607 11.066L530.927 7.43594C524.311 10.4976 519.245 14.8375 515.836 20.4826L519.26 22.5506ZM532.607 11.066C538.638 8.2746 545.069 6.87598 551.923 6.87598V2.87598C544.506 2.87598 537.499 4.39402 530.927 7.43594L532.607 11.066ZM551.923 6.87598C558.766 6.87598 564.363 8.47708 568.834 11.5613L571.106 8.26876C565.837 4.63425 559.403 2.87598 551.923 2.87598V6.87598ZM568.835 11.5617C573.656 14.8849 576.017 19.3853 576.017 25.2666H580.017C580.017 18.075 577.013 12.341 571.105 8.26836L568.835 11.5617ZM576.017 25.2666C576.017 29.8377 574.084 34.1984 569.919 38.3878L572.755 41.2079C577.497 36.439 580.017 31.1121 580.017 25.2666H576.017ZM569.915 38.3916C567.662 40.6695 565.369 42.6717 563.036 44.4026L565.419 47.615C567.93 45.7521 570.376 43.6137 572.759 41.2041L569.915 38.3916ZM563.047 44.3943C560.62 46.1688 558.717 47.586 557.344 48.6423L559.783 51.8128C561.118 50.7857 562.991 49.3905 565.408 47.6233L563.047 44.3943ZM558.564 52.2275H578.407V48.2275H558.564V52.2275ZM576.407 50.2275V68.9385H580.407V50.2275H576.407ZM578.407 66.9385H522.314V70.9385H578.407V66.9385ZM524.314 68.9385V57.6494H520.314V68.9385H524.314ZM602.696 45.501L603.809 43.8389L602.078 42.6807L600.991 44.4565L602.696 45.501ZM630.431 50.6182L629.201 49.0412L629.193 49.0472L629.185 49.0533L630.431 50.6182ZM631.72 44.0557L629.98 45.0417L629.987 45.0545L629.994 45.0671L631.72 44.0557ZM629.923 42.0635L628.734 43.6718L628.742 43.6776L628.75 43.6834L629.923 42.0635ZM615.196 39.5635L613.461 40.5584L614.153 41.7649L615.525 41.5363L615.196 39.5635ZM610.47 31.3213H608.47V31.8541L608.735 32.3162L610.47 31.3213ZM621.095 23.5869L622.203 25.252L627.711 21.5869H621.095V23.5869ZM597.501 23.5869L595.501 23.5869V25.5869L597.501 25.5869V23.5869ZM597.501 6.55566V4.55566H595.501V6.55566H597.501ZM657.735 6.55566H659.735V4.55566H657.735V6.55566ZM657.735 13.5869L658.946 15.1787L659.735 14.5784V13.5869H657.735ZM637.657 28.8604L636.446 27.2686L632.528 30.2492L637.415 30.8456L637.657 28.8604ZM659.103 48.4697L661.103 48.4792V48.4697H659.103ZM653.985 61.9854L652.55 60.5927L652.548 60.5947L653.985 61.9854ZM626.876 70.3838V68.3838L626.87 68.3838L626.876 70.3838ZM601.72 65.5791L602.511 63.7421L602.502 63.7383L601.72 65.5791ZM593.439 60.6182L591.733 59.5737L590.811 61.0798L592.191 62.1814L593.439 60.6182ZM601.584 47.1631C608.543 51.8204 616.394 54.1416 625.079 54.1416V50.1416C617.15 50.1416 610.079 48.0357 603.809 43.8389L601.584 47.1631ZM625.079 54.1416C627.643 54.1416 629.927 53.575 631.676 52.183L629.185 49.0533C628.382 49.6925 627.098 50.1416 625.079 50.1416V54.1416ZM631.661 52.1952C633.306 50.912 634.384 49.2208 634.384 47.1416H630.384C630.384 47.6665 630.16 48.2931 629.201 49.0412L631.661 52.1952ZM634.384 47.1416C634.384 45.6451 634.135 44.2204 633.445 43.0442L629.994 45.0671C630.19 45.4013 630.384 46.0339 630.384 47.1416H634.384ZM633.46 43.0696C632.87 42.0293 632.074 41.152 631.096 40.4436L628.75 43.6834C629.282 44.0687 629.684 44.5196 629.98 45.0417L633.46 43.0696ZM631.112 40.4551C628.213 38.3127 624.058 37.4072 618.985 37.4072V41.4072C623.705 41.4072 626.841 42.2725 628.734 43.6718L631.112 40.4551ZM618.985 37.4072C617.113 37.4072 615.683 37.4548 614.868 37.5907L615.525 41.5363C615.96 41.4639 617.056 41.4072 618.985 41.4072V37.4072ZM616.931 38.5685L612.205 30.3264L608.735 32.3162L613.461 40.5584L616.931 38.5685ZM612.47 31.3213C612.47 31.874 612.23 32.237 612.208 32.2719C612.148 32.3691 612.102 32.4154 612.118 32.3986C612.143 32.3701 612.234 32.2789 612.432 32.1105C612.815 31.7835 613.43 31.3083 614.303 30.6726C616.039 29.409 618.667 27.6047 622.203 25.252L619.987 21.9219C616.439 24.2826 613.755 26.1242 611.949 27.4387C611.051 28.0921 610.338 28.639 609.836 29.0672C609.591 29.2764 609.35 29.4962 609.154 29.7118C609.059 29.817 608.93 29.9687 608.814 30.1547C608.737 30.2782 608.47 30.7132 608.47 31.3213H612.47ZM621.095 21.5869H597.501V25.5869H621.095V21.5869ZM599.501 23.5869V6.55566H595.501V23.5869L599.501 23.5869ZM597.501 8.55566L657.735 8.55566V4.55566L597.501 4.55566V8.55566ZM655.735 6.55566V13.5869H659.735V6.55566H655.735ZM656.525 11.9951L636.446 27.2686L638.868 30.4521L658.946 15.1787L656.525 11.9951ZM637.415 30.8456C644.341 31.6909 649.241 33.6664 652.392 36.5473C655.48 39.3716 657.103 43.263 657.103 48.4697H661.103C661.103 42.3484 659.151 37.3074 655.091 33.5953C651.093 29.9397 645.27 27.7746 637.9 26.8751L637.415 30.8456ZM657.103 48.4603C657.079 53.5402 655.526 57.525 652.55 60.5927L655.421 63.378C659.216 59.4665 661.075 54.4409 661.103 48.4792L657.103 48.4603ZM652.548 60.5947C647.686 65.6201 639.316 68.3838 626.876 68.3838V72.3838C639.749 72.3838 649.451 69.5486 655.423 63.376L652.548 60.5947ZM626.87 68.3838C617.837 68.4092 609.727 66.8493 602.511 63.7421L600.929 67.4161C608.712 70.7673 617.374 72.4105 626.882 72.3838L626.87 68.3838ZM602.502 63.7383C599.731 62.5615 597.127 61.0026 594.686 59.0549L592.191 62.1814C594.907 64.3483 597.823 66.0967 600.938 67.4199L602.502 63.7383ZM595.144 61.6627L604.402 46.5455L600.991 44.4565L591.733 59.5737L595.144 61.6627Z"
        fill="black" mask="url(#path-3-outside-2_151_53)" />
    <mask id="path-5-outside-3_151_53" maskUnits="userSpaceOnUse" x="2.03748" y="8.05225" width="654" height="71"
        fill="black">
        <rect fill="white" x="2.03748" y="8.05225" width="654" height="71" />
        <path
            d="M4.84216 12.6694C20.6495 11.4976 30.962 10.9116 35.7797 10.9116C40.6234 10.9116 44.4385 11.3674 47.225 12.2788C50.0375 13.1642 52.5505 14.4012 54.764 15.9897C59.0609 19.0366 62.3031 23.0861 64.4906 28.1382C66.7041 33.1903 67.8109 38.3075 67.8109 43.4897C67.8109 48.672 66.9646 53.2033 65.2719 57.0835C63.6052 60.9377 61.2875 64.1929 58.3187 66.8491C52.251 72.3439 44.3995 75.0783 34.764 75.0522H4.84216L4.84216 12.6694ZM29.139 32.4741L29.139 56.2632C30.5192 55.0913 32.0166 53.9325 33.6312 52.7866C39.8291 48.3335 42.9281 43.672 42.9281 38.8022C42.9281 36.4325 42.225 34.245 40.8187 32.2397C39.4125 30.2085 37.5765 29.1929 35.3109 29.1929C33.0713 29.1929 31.014 30.2866 29.139 32.4741ZM83.5453 12.6694L128.506 12.6694V30.6382H107.842V35.7554H128.428V51.0679H107.842V56.9663H129.873V75.0522H83.5453V12.6694ZM171.662 12.6694L181.389 32.2397L190.452 12.6694H213.342L182.678 74.9741C182.001 76.2502 180.816 76.8882 179.123 76.8882C177.457 76.8882 176.298 76.2502 175.647 74.9741L143.342 12.6694L171.662 12.6694ZM227.202 12.6694L272.084 12.6694V30.3257H251.498V36.1069H272.084V53.1382H251.498V75.0522H227.202V12.6694ZM286.92 12.6694L331.881 12.6694V30.6382H311.217V35.7554H331.803V51.0679L311.217 51.0679V56.9663L333.248 56.9663V75.0522L286.92 75.0522V12.6694ZM372.928 76.5757C361.235 76.5757 353.475 75.1304 349.647 72.2397V54.3491C349.751 54.3752 350.129 54.4924 350.78 54.7007C351.457 54.909 352.303 55.1694 353.319 55.4819C355.689 56.2111 358.175 56.9012 360.78 57.5522C363.41 58.1772 365.519 58.4897 367.108 58.4897C369.712 58.4897 371.014 57.6955 371.014 56.1069C371.014 54.883 369.894 53.5809 367.655 52.2007C366.639 51.5757 365.48 50.9246 364.178 50.2476C362.902 49.5705 361.6 48.8153 360.272 47.9819C357.017 45.9767 354.399 43.633 352.42 40.9507C350.467 38.2684 349.491 34.883 349.491 30.7944C349.491 21.8621 354.204 15.8595 363.631 12.7866C367.459 11.5366 371.873 10.9116 376.873 10.9116C381.899 10.9116 387.147 11.4845 392.616 12.6304C393.735 12.8647 394.478 13.034 394.842 13.1382V31.0679C387.759 29.5575 382.668 28.8022 379.569 28.8022C378.371 28.8022 377.472 29.0106 376.873 29.4272C376.274 29.8439 375.975 30.3127 375.975 30.8335C375.975 31.3543 376.235 31.9012 376.756 32.4741C377.277 33.021 378.175 33.5809 379.452 34.1538C380.728 34.7007 382.212 35.3778 383.905 36.1851C385.623 36.9663 387.225 37.8127 388.709 38.7241C395.376 42.8127 398.709 48.3986 398.709 55.4819C398.709 62.2007 396.444 67.396 391.912 71.0679C387.329 74.7137 381.001 76.5496 372.928 76.5757ZM412.452 12.6694L471.514 12.6694V32.9038H454.131V75.0522H429.834V32.9038H412.452V12.6694Z" />
        <path
            d="M517.084 63.7632L540.873 43.8413C544.077 41.159 545.678 38.3595 545.678 35.4429C545.678 33.9064 545.17 32.6434 544.155 31.6538C543.165 30.6642 541.915 30.1694 540.405 30.1694C538.894 30.1694 537.397 30.4168 535.912 30.9116C530.965 32.5262 526.16 35.8205 521.498 40.7944L512.319 27.6304C515.496 22.37 520.235 18.2814 526.537 15.3647C532.84 12.4481 539.558 10.9897 546.694 10.9897C553.855 10.9897 559.871 12.6694 564.741 16.0288C570.105 19.7267 572.787 24.8439 572.787 31.3804C572.787 36.5887 570.561 41.4325 566.108 45.9116C563.79 48.2554 561.42 50.3257 558.998 52.1226C556.577 53.8934 554.689 55.2996 553.334 56.3413H573.178V75.0522H517.084V63.7632ZM597.467 51.6147C604.082 56.0418 611.543 58.2554 619.85 58.2554C622.142 58.2554 623.925 57.7476 625.202 56.7319C626.504 55.7163 627.155 54.5575 627.155 53.2554C627.155 51.9533 626.933 50.9246 626.491 50.1694C626.048 49.3882 625.449 48.7241 624.694 48.1772C622.298 46.4064 618.652 45.521 613.756 45.521C611.855 45.521 610.592 45.5731 609.967 45.6772L605.241 37.4351C605.241 36.9924 608.782 34.4142 615.866 29.7007H592.272V12.6694L652.506 12.6694V19.7007L632.428 34.9741C646.725 36.7189 653.873 43.2554 653.873 54.5835C653.847 60.1043 652.142 64.6095 648.756 68.0991C643.34 73.6981 634.303 76.4976 621.647 76.4976C612.376 76.5236 603.991 74.922 596.491 71.6929C593.548 70.4429 590.787 68.7892 588.209 66.7319L597.467 51.6147Z" />
    </mask>
    <path
        d="M4.84216 12.6694C20.6495 11.4976 30.962 10.9116 35.7797 10.9116C40.6234 10.9116 44.4385 11.3674 47.225 12.2788C50.0375 13.1642 52.5505 14.4012 54.764 15.9897C59.0609 19.0366 62.3031 23.0861 64.4906 28.1382C66.7041 33.1903 67.8109 38.3075 67.8109 43.4897C67.8109 48.672 66.9646 53.2033 65.2719 57.0835C63.6052 60.9377 61.2875 64.1929 58.3187 66.8491C52.251 72.3439 44.3995 75.0783 34.764 75.0522H4.84216L4.84216 12.6694ZM29.139 32.4741L29.139 56.2632C30.5192 55.0913 32.0166 53.9325 33.6312 52.7866C39.8291 48.3335 42.9281 43.672 42.9281 38.8022C42.9281 36.4325 42.225 34.245 40.8187 32.2397C39.4125 30.2085 37.5765 29.1929 35.3109 29.1929C33.0713 29.1929 31.014 30.2866 29.139 32.4741ZM83.5453 12.6694L128.506 12.6694V30.6382H107.842V35.7554H128.428V51.0679H107.842V56.9663H129.873V75.0522H83.5453V12.6694ZM171.662 12.6694L181.389 32.2397L190.452 12.6694H213.342L182.678 74.9741C182.001 76.2502 180.816 76.8882 179.123 76.8882C177.457 76.8882 176.298 76.2502 175.647 74.9741L143.342 12.6694L171.662 12.6694ZM227.202 12.6694L272.084 12.6694V30.3257H251.498V36.1069H272.084V53.1382H251.498V75.0522H227.202V12.6694ZM286.92 12.6694L331.881 12.6694V30.6382H311.217V35.7554H331.803V51.0679L311.217 51.0679V56.9663L333.248 56.9663V75.0522L286.92 75.0522V12.6694ZM372.928 76.5757C361.235 76.5757 353.475 75.1304 349.647 72.2397V54.3491C349.751 54.3752 350.129 54.4924 350.78 54.7007C351.457 54.909 352.303 55.1694 353.319 55.4819C355.689 56.2111 358.175 56.9012 360.78 57.5522C363.41 58.1772 365.519 58.4897 367.108 58.4897C369.712 58.4897 371.014 57.6955 371.014 56.1069C371.014 54.883 369.894 53.5809 367.655 52.2007C366.639 51.5757 365.48 50.9246 364.178 50.2476C362.902 49.5705 361.6 48.8153 360.272 47.9819C357.017 45.9767 354.399 43.633 352.42 40.9507C350.467 38.2684 349.491 34.883 349.491 30.7944C349.491 21.8621 354.204 15.8595 363.631 12.7866C367.459 11.5366 371.873 10.9116 376.873 10.9116C381.899 10.9116 387.147 11.4845 392.616 12.6304C393.735 12.8647 394.478 13.034 394.842 13.1382V31.0679C387.759 29.5575 382.668 28.8022 379.569 28.8022C378.371 28.8022 377.472 29.0106 376.873 29.4272C376.274 29.8439 375.975 30.3127 375.975 30.8335C375.975 31.3543 376.235 31.9012 376.756 32.4741C377.277 33.021 378.175 33.5809 379.452 34.1538C380.728 34.7007 382.212 35.3778 383.905 36.1851C385.623 36.9663 387.225 37.8127 388.709 38.7241C395.376 42.8127 398.709 48.3986 398.709 55.4819C398.709 62.2007 396.444 67.396 391.912 71.0679C387.329 74.7137 381.001 76.5496 372.928 76.5757ZM412.452 12.6694L471.514 12.6694V32.9038H454.131V75.0522H429.834V32.9038H412.452V12.6694Z"
        fill="#58CDC5" />
    <path
        d="M517.084 63.7632L540.873 43.8413C544.077 41.159 545.678 38.3595 545.678 35.4429C545.678 33.9064 545.17 32.6434 544.155 31.6538C543.165 30.6642 541.915 30.1694 540.405 30.1694C538.894 30.1694 537.397 30.4168 535.912 30.9116C530.965 32.5262 526.16 35.8205 521.498 40.7944L512.319 27.6304C515.496 22.37 520.235 18.2814 526.537 15.3647C532.84 12.4481 539.558 10.9897 546.694 10.9897C553.855 10.9897 559.871 12.6694 564.741 16.0288C570.105 19.7267 572.787 24.8439 572.787 31.3804C572.787 36.5887 570.561 41.4325 566.108 45.9116C563.79 48.2554 561.42 50.3257 558.998 52.1226C556.577 53.8934 554.689 55.2996 553.334 56.3413H573.178V75.0522H517.084V63.7632ZM597.467 51.6147C604.082 56.0418 611.543 58.2554 619.85 58.2554C622.142 58.2554 623.925 57.7476 625.202 56.7319C626.504 55.7163 627.155 54.5575 627.155 53.2554C627.155 51.9533 626.933 50.9246 626.491 50.1694C626.048 49.3882 625.449 48.7241 624.694 48.1772C622.298 46.4064 618.652 45.521 613.756 45.521C611.855 45.521 610.592 45.5731 609.967 45.6772L605.241 37.4351C605.241 36.9924 608.782 34.4142 615.866 29.7007H592.272V12.6694L652.506 12.6694V19.7007L632.428 34.9741C646.725 36.7189 653.873 43.2554 653.873 54.5835C653.847 60.1043 652.142 64.6095 648.756 68.0991C643.34 73.6981 634.303 76.4976 621.647 76.4976C612.376 76.5236 603.991 74.922 596.491 71.6929C593.548 70.4429 590.787 68.7892 588.209 66.7319L597.467 51.6147Z"
        fill="#E7BB3E" />
    <path
        d="M4.84216 12.6694L4.6943 10.6749L2.84216 10.8122V12.6694H4.84216ZM47.225 12.2788L46.6032 14.1797L46.6138 14.1832L46.6244 14.1865L47.225 12.2788ZM54.764 15.9897L53.5979 17.6147L53.6072 17.6212L54.764 15.9897ZM64.4906 28.1382L62.6552 28.9329L62.6587 28.9408L64.4906 28.1382ZM65.2719 57.0835L63.4387 56.2838L63.4361 56.2897L65.2719 57.0835ZM58.3187 66.8491L56.9851 65.3586L56.9762 65.3667L58.3187 66.8491ZM34.764 75.0522L34.7694 73.0522H34.764V75.0522ZM4.84216 75.0522H2.84216L2.84216 77.0522H4.84216V75.0522ZM29.139 32.4741L27.6205 31.1725L27.139 31.7343V32.4741H29.139ZM29.139 56.2632H27.139V60.585L30.4335 57.7878L29.139 56.2632ZM33.6312 52.7866L34.7887 54.4177L34.7982 54.4109L33.6312 52.7866ZM40.8187 32.2397L39.1743 33.3782L39.1813 33.3881L40.8187 32.2397ZM4.99003 14.664C20.8147 13.4908 31.0499 12.9116 35.7797 12.9116V8.91162C30.874 8.91162 20.4842 9.50432 4.6943 10.6749L4.99003 14.664ZM35.7797 12.9116C40.531 12.9116 44.1056 13.3627 46.6032 14.1797L47.8468 10.3779C44.7714 9.37196 40.7159 8.91162 35.7797 8.91162V12.9116ZM46.6244 14.1865C49.2512 15.0135 51.5703 16.1595 53.5979 17.6146L55.9301 14.3649C53.5307 12.6429 50.8238 11.315 47.8255 10.3711L46.6244 14.1865ZM53.6072 17.6212C57.5918 20.4467 60.6063 24.2007 62.6553 28.9329L66.3259 27.3435C63.9999 21.9715 60.53 17.6266 55.9209 14.3583L53.6072 17.6212ZM62.6587 28.9408C64.7686 33.7564 65.8109 38.6012 65.8109 43.4897H69.8109C69.8109 38.0137 68.6396 32.6242 66.3225 27.3356L62.6587 28.9408ZM65.8109 43.4897C65.8109 48.457 64.9996 52.7057 63.4387 56.2838L67.105 57.8832C68.9295 53.7009 69.8109 48.8871 69.8109 43.4897H65.8109ZM63.4361 56.2897C61.8781 59.8927 59.7264 62.9059 56.9851 65.3586L59.6523 68.3396C62.8485 65.4798 65.3323 61.9826 67.1076 57.8773L63.4361 56.2897ZM56.9762 65.3667C51.3417 70.4692 44.0004 73.0772 34.7694 73.0523L34.7586 77.0522C44.7985 77.0794 53.1603 74.2186 59.6612 68.3316L56.9762 65.3667ZM34.764 73.0522H4.84216V77.0522H34.764V73.0522ZM6.84216 75.0522L6.84216 12.6694H2.84216L2.84216 75.0522H6.84216ZM27.139 32.4741L27.139 56.2632H31.139L31.139 32.4741H27.139ZM30.4335 57.7878C31.7658 56.6566 33.217 55.5331 34.7887 54.4176L32.4737 51.1556C30.8163 52.3319 29.2727 53.526 27.8446 54.7386L30.4335 57.7878ZM34.7982 54.4109C41.2149 49.8006 44.9281 44.6162 44.9281 38.8022H40.9281C40.9281 42.7278 38.4434 46.8664 32.4642 51.1624L34.7982 54.4109ZM44.9281 38.8022C44.9281 36.0071 44.09 33.421 42.4562 31.0914L39.1813 33.3881C40.36 35.0689 40.9281 36.8578 40.9281 38.8022H44.9281ZM42.4631 31.1013C40.723 28.5878 38.2996 27.1929 35.3109 27.1929V31.1929C36.8535 31.1929 38.102 31.8292 39.1743 33.3782L42.4631 31.1013ZM35.3109 27.1929C32.3292 27.1929 29.7587 28.678 27.6205 31.1725L30.6576 33.7757C32.2693 31.8953 33.8135 31.1929 35.3109 31.1929V27.1929ZM83.5453 12.6694V10.6694H81.5453V12.6694H83.5453ZM128.506 12.6694H130.506V10.6694H128.506V12.6694ZM128.506 30.6382V32.6382H130.506V30.6382H128.506ZM107.842 30.6382V28.6382H105.842V30.6382H107.842ZM107.842 35.7554H105.842V37.7554H107.842V35.7554ZM128.428 35.7554H130.428V33.7554H128.428V35.7554ZM128.428 51.0679V53.0679H130.428V51.0679H128.428ZM107.842 51.0679V49.0679H105.842V51.0679H107.842ZM107.842 56.9663H105.842V58.9663H107.842V56.9663ZM129.873 56.9663H131.873V54.9663H129.873V56.9663ZM129.873 75.0522V77.0522H131.873V75.0522H129.873ZM83.5453 75.0522H81.5453V77.0522H83.5453V75.0522ZM83.5453 14.6694L128.506 14.6694V10.6694L83.5453 10.6694V14.6694ZM126.506 12.6694V30.6382H130.506V12.6694H126.506ZM128.506 28.6382H107.842V32.6382H128.506V28.6382ZM105.842 30.6382V35.7554H109.842V30.6382H105.842ZM107.842 37.7554H128.428V33.7554H107.842V37.7554ZM126.428 35.7554V51.0679H130.428V35.7554H126.428ZM128.428 49.0679H107.842V53.0679H128.428V49.0679ZM105.842 51.0679V56.9663H109.842V51.0679H105.842ZM107.842 58.9663H129.873V54.9663H107.842V58.9663ZM127.873 56.9663V75.0522H131.873V56.9663H127.873ZM129.873 73.0522H83.5453V77.0522H129.873V73.0522ZM85.5453 75.0522V12.6694H81.5453V75.0522H85.5453ZM171.662 12.6694L173.453 11.7793L172.902 10.6694H171.662V12.6694ZM181.389 32.2397L179.598 33.1299L181.453 36.8617L183.204 33.0802L181.389 32.2397ZM190.452 12.6694V10.6694H189.174L188.637 11.829L190.452 12.6694ZM213.342 12.6694L215.137 13.5526L216.556 10.6694L213.342 10.6694V12.6694ZM182.678 74.9741L184.445 75.9116L184.459 75.8846L184.473 75.8573L182.678 74.9741ZM175.647 74.9741L177.428 74.0652L177.422 74.0535L175.647 74.9741ZM143.342 12.6694V10.6694H140.052L141.567 13.59L143.342 12.6694ZM169.871 13.5596L179.598 33.1299L183.18 31.3496L173.453 11.7793L169.871 13.5596ZM183.204 33.0802L192.266 13.5098L188.637 11.829L179.574 31.3993L183.204 33.0802ZM190.452 14.6694L213.342 14.6694V10.6694H190.452V14.6694ZM211.548 11.7863L180.884 74.091L184.473 75.8573L215.137 13.5526L211.548 11.7863ZM180.911 74.0367C180.648 74.5335 180.23 74.8882 179.123 74.8882V78.8882C181.403 78.8882 183.354 77.9669 184.445 75.9116L180.911 74.0367ZM179.123 74.8882C178.541 74.8882 178.186 74.777 177.969 74.6577C177.769 74.5477 177.588 74.3777 177.428 74.0652L173.865 75.8831C174.357 76.8465 175.08 77.6336 176.04 78.1617C176.982 78.6804 178.039 78.8882 179.123 78.8882V74.8882ZM177.422 74.0535L145.118 11.7488L141.567 13.59L173.871 75.8947L177.422 74.0535ZM143.342 14.6694L171.662 14.6694V10.6694L143.342 10.6694V14.6694ZM227.202 12.6694V10.6694H225.202V12.6694H227.202ZM272.084 12.6694H274.084V10.6694H272.084V12.6694ZM272.084 30.3257V32.3257H274.084V30.3257H272.084ZM251.498 30.3257V28.3257H249.498V30.3257H251.498ZM251.498 36.1069H249.498V38.1069H251.498V36.1069ZM272.084 36.1069H274.084V34.1069H272.084V36.1069ZM272.084 53.1382V55.1382H274.084V53.1382H272.084ZM251.498 53.1382V51.1382H249.498V53.1382H251.498ZM251.498 75.0522V77.0522H253.498V75.0522H251.498ZM227.202 75.0522H225.202V77.0522H227.202V75.0522ZM227.202 14.6694L272.084 14.6694V10.6694L227.202 10.6694V14.6694ZM270.084 12.6694V30.3257H274.084V12.6694H270.084ZM272.084 28.3257H251.498V32.3257H272.084V28.3257ZM249.498 30.3257V36.1069H253.498V30.3257H249.498ZM251.498 38.1069H272.084V34.1069H251.498V38.1069ZM270.084 36.1069V53.1382H274.084V36.1069H270.084ZM272.084 51.1382H251.498V55.1382H272.084V51.1382ZM249.498 53.1382V75.0522H253.498V53.1382H249.498ZM251.498 73.0522H227.202V77.0522H251.498V73.0522ZM229.202 75.0522V12.6694H225.202V75.0522H229.202ZM286.92 12.6694V10.6694H284.92V12.6694H286.92ZM331.881 12.6694H333.881V10.6694H331.881V12.6694ZM331.881 30.6382V32.6382H333.881V30.6382H331.881ZM311.217 30.6382V28.6382H309.217V30.6382H311.217ZM311.217 35.7554H309.217V37.7554H311.217V35.7554ZM331.803 35.7554H333.803V33.7554H331.803V35.7554ZM331.803 51.0679V53.0679H333.803V51.0679H331.803ZM311.217 51.0679V49.0679H309.217V51.0679H311.217ZM311.217 56.9663H309.217V58.9663H311.217V56.9663ZM333.248 56.9663H335.248V54.9663H333.248V56.9663ZM333.248 75.0522V77.0522H335.248V75.0522H333.248ZM286.92 75.0522H284.92V77.0522H286.92V75.0522ZM286.92 14.6694L331.881 14.6694V10.6694L286.92 10.6694V14.6694ZM329.881 12.6694V30.6382H333.881V12.6694H329.881ZM331.881 28.6382H311.217V32.6382H331.881V28.6382ZM309.217 30.6382V35.7554H313.217V30.6382H309.217ZM311.217 37.7554H331.803V33.7554H311.217V37.7554ZM329.803 35.7554V51.0679H333.803V35.7554H329.803ZM331.803 49.0679L311.217 49.0679V53.0679L331.803 53.0679V49.0679ZM309.217 51.0679V56.9663H313.217V51.0679H309.217ZM311.217 58.9663L333.248 58.9663V54.9663L311.217 54.9663V58.9663ZM331.248 56.9663V75.0522H335.248V56.9663H331.248ZM333.248 73.0522L286.92 73.0522V77.0522L333.248 77.0522V73.0522ZM288.92 75.0522V12.6694H284.92V75.0522H288.92ZM372.928 76.5757V78.5757L372.935 78.5757L372.928 76.5757ZM349.647 72.2397H347.647V73.2357L348.442 73.8358L349.647 72.2397ZM349.647 54.3491L350.132 52.4088L347.647 51.7876V54.3491H349.647ZM350.78 54.7007L350.17 56.6055L350.181 56.6089L350.191 56.6122L350.78 54.7007ZM360.78 57.5522L360.295 59.4925L360.306 59.4954L360.317 59.4981L360.78 57.5522ZM367.655 52.2007L368.704 50.498L368.703 50.4974L367.655 52.2007ZM364.178 50.2476L363.241 52.0143L363.248 52.0182L363.255 52.022L364.178 50.2476ZM360.272 47.9819L361.335 46.2878L361.328 46.2834L361.321 46.2791L360.272 47.9819ZM352.42 40.9507L350.803 42.128L350.811 42.1381L352.42 40.9507ZM363.631 12.7866L364.251 14.6881L364.252 14.6878L363.631 12.7866ZM392.616 12.6304L392.205 14.5879L392.206 14.588L392.616 12.6304ZM394.842 13.1382H396.842V11.6296L395.392 11.2151L394.842 13.1382ZM394.842 31.0679L394.425 33.0239L396.842 33.5393V31.0679H394.842ZM376.756 32.4741L375.276 33.8195L375.292 33.8366L375.308 33.8534L376.756 32.4741ZM379.452 34.1538L378.632 35.9783L378.648 35.9854L378.664 35.9921L379.452 34.1538ZM383.905 36.1851L383.044 37.9903L383.06 37.9982L383.077 38.0058L383.905 36.1851ZM388.709 38.7241L387.663 40.4285L387.664 40.429L388.709 38.7241ZM391.912 71.0679L393.158 72.6331L393.165 72.6274L393.172 72.6217L391.912 71.0679ZM372.928 74.5757C367.152 74.5757 362.421 74.2177 358.704 73.5255C354.955 72.8273 352.409 71.8191 350.852 70.6437L348.442 73.8358C350.713 75.551 353.961 76.7108 357.972 77.4579C362.016 78.211 367.012 78.5757 372.928 78.5757V74.5757ZM351.647 72.2397V54.3491H347.647V72.2397H351.647ZM349.162 56.2894C349.148 56.286 349.21 56.3028 349.415 56.3667C349.596 56.4227 349.847 56.5021 350.17 56.6055L351.389 52.7958C350.779 52.6005 350.317 52.455 350.132 52.4088L349.162 56.2894ZM350.191 56.6122C350.334 56.6562 350.305 56.6473 350.453 56.6928C350.536 56.7183 350.506 56.709 350.59 56.7349C350.633 56.748 350.617 56.7432 350.66 56.7564C350.668 56.7588 350.67 56.7594 350.678 56.7619C350.679 56.7622 350.694 56.767 350.695 56.7673C350.706 56.7706 350.702 56.7694 350.713 56.7728C350.72 56.7747 350.716 56.7735 350.722 56.7755C350.724 56.776 350.725 56.7764 350.727 56.7769C350.728 56.7773 350.73 56.7778 350.731 56.7783C350.754 56.7854 350.851 56.8153 350.876 56.8228C350.966 56.8506 350.933 56.8404 351.025 56.8686C351.211 56.9259 351.142 56.9048 351.334 56.9638C351.432 56.9938 351.396 56.9828 351.495 57.0132C351.545 57.0286 351.526 57.023 351.577 57.0384C351.588 57.0419 351.586 57.0412 351.597 57.0448C351.61 57.0486 351.605 57.0472 351.618 57.0511C351.631 57.055 351.626 57.0536 351.639 57.0575C351.646 57.0598 351.641 57.0584 351.649 57.0607C351.651 57.0612 351.652 57.0618 351.654 57.0623C351.656 57.0628 351.658 57.0634 351.659 57.0639C351.732 57.0861 351.923 57.145 352.001 57.1689C352.216 57.2353 352.137 57.2107 352.358 57.2787C352.47 57.3133 352.429 57.3006 352.542 57.3355C352.542 57.3355 352.729 57.3931 352.731 57.3935L353.907 53.5704C353.638 53.4876 353.798 53.5367 353.534 53.4556C353.422 53.4213 353.464 53.434 353.353 53.4001C353.294 53.3818 353.235 53.3637 353.177 53.3458C353.164 53.3417 353.168 53.3432 353.155 53.3391C353.147 53.3365 353.142 53.335 353.133 53.3324C353.132 53.3318 353.13 53.3313 353.128 53.3307C353.126 53.3302 353.124 53.3296 353.123 53.329C353.111 53.3255 353.123 53.3292 353.112 53.3257C353.111 53.3253 353.091 53.3194 353.09 53.3191C353.005 53.2927 353.09 53.3189 353.004 53.2927C352.985 53.2868 352.853 53.2462 352.836 53.2408C352.707 53.2012 352.634 53.1787 352.51 53.1407C352.264 53.0647 352.133 53.0246 351.907 52.9551C351.852 52.9381 351.821 52.9284 351.767 52.9118C351.736 52.9023 351.728 52.9 351.698 52.8906C351.645 52.8744 351.682 52.8858 351.63 52.8697C351.609 52.8633 351.617 52.8657 351.596 52.8594C351.579 52.8542 351.579 52.8542 351.563 52.8491C351.561 52.8487 351.56 52.8482 351.559 52.8478C351.557 52.8474 351.556 52.847 351.554 52.8465C351.553 52.8461 351.552 52.8457 351.55 52.8453C351.549 52.8448 351.548 52.8444 351.546 52.844C351.531 52.8395 351.544 52.8434 351.53 52.8389C351.511 52.8333 351.515 52.8344 351.497 52.8288C351.354 52.785 351.509 52.8325 351.368 52.7891L350.191 56.6122ZM352.731 57.3935C355.137 58.134 357.659 58.8335 360.295 59.4925L361.265 55.612C358.692 54.9689 356.24 54.2882 353.907 53.5704L352.731 57.3935ZM360.317 59.4981C363.009 60.1377 365.292 60.4897 367.108 60.4897V56.4897C365.746 56.4897 363.811 56.2168 361.242 55.6064L360.317 59.4981ZM367.108 60.4897C368.548 60.4897 369.964 60.2818 371.079 59.6015C372.355 58.8232 373.014 57.5632 373.014 56.1069H369.014C369.014 56.2261 368.992 56.2331 369.015 56.1904C369.04 56.144 369.06 56.1477 368.996 56.1866C368.809 56.3006 368.272 56.4897 367.108 56.4897V60.4897ZM373.014 56.1069C373.014 54.8546 372.438 53.7771 371.691 52.9083C370.945 52.0415 369.916 51.2451 368.704 50.498L366.605 53.9033C367.633 54.5364 368.284 55.0813 368.658 55.5165C368.84 55.7281 368.932 55.8853 368.976 55.9848C368.997 56.0332 369.006 56.0657 369.01 56.0836C369.012 56.0926 369.013 56.0986 369.014 56.102C369.014 56.1053 369.014 56.1068 369.014 56.1069H373.014ZM368.703 50.4974C367.638 49.8422 366.436 49.1676 365.101 48.4731L363.255 52.022C364.524 52.6817 365.64 53.3092 366.606 53.904L368.703 50.4974ZM365.116 48.4809C363.886 47.8283 362.625 47.0976 361.335 46.2878L359.209 49.6761C360.575 50.5329 361.918 51.3127 363.241 52.0143L365.116 48.4809ZM361.321 46.2791C358.252 44.3887 355.836 42.2114 354.03 39.7632L350.811 42.1381C352.963 45.0545 355.781 47.5648 359.223 49.6848L361.321 46.2791ZM354.037 39.7734C352.386 37.5059 351.491 34.5597 351.491 30.7944H347.491C347.491 35.2062 348.548 39.0309 350.803 42.128L354.037 39.7734ZM351.491 30.7944C351.491 26.6967 352.564 23.4196 354.599 20.8285C356.647 18.2197 359.803 16.1382 364.251 14.6881L363.011 10.8851C358.033 12.508 354.118 14.9642 351.453 18.3581C348.774 21.7695 347.491 25.9599 347.491 30.7944H351.491ZM364.252 14.6878C367.838 13.5169 372.035 12.9116 376.873 12.9116V8.91162C371.711 8.91162 367.081 9.55636 363.01 10.8854L364.252 14.6878ZM376.873 12.9116C381.747 12.9116 386.857 13.4672 392.205 14.5879L393.026 10.6729C387.437 9.50188 382.052 8.91162 376.873 8.91162V12.9116ZM392.206 14.588C393.338 14.8249 394.009 14.9802 394.293 15.0612L395.392 11.2151C394.946 11.0879 394.133 10.9046 393.025 10.6728L392.206 14.588ZM392.842 13.1382V31.0679H396.842V13.1382H392.842ZM395.259 29.1118C388.172 27.6005 382.898 26.8022 379.569 26.8022V30.8022C382.437 30.8022 387.346 31.5144 394.425 33.0239L395.259 29.1118ZM379.569 26.8022C378.201 26.8022 376.819 27.029 375.731 27.7854L378.016 31.0691C378.126 30.9921 378.541 30.8022 379.569 30.8022V26.8022ZM375.731 27.7854C374.827 28.4142 373.975 29.4182 373.975 30.8335H377.975C377.975 30.8981 377.965 30.9664 377.945 31.032C377.926 31.0966 377.901 31.1424 377.885 31.1681C377.856 31.2136 377.868 31.1714 378.016 31.0691L375.731 27.7854ZM373.975 30.8335C373.975 32.0465 374.58 33.0536 375.276 33.8195L378.236 31.1288C378.073 30.9491 378.002 30.8297 377.976 30.7744C377.953 30.726 377.975 30.7516 377.975 30.8335H373.975ZM375.308 33.8534C376.101 34.6861 377.287 35.3741 378.632 35.9783L380.271 32.3293C379.064 31.7877 378.453 31.3558 378.204 31.0948L375.308 33.8534ZM378.664 35.9921C379.908 36.5255 381.367 37.1908 383.044 37.9903L384.766 34.3799C383.056 33.5647 381.547 32.8758 380.239 32.3155L378.664 35.9921ZM383.077 38.0058C384.727 38.7556 386.255 39.5637 387.663 40.4285L389.756 37.0198C388.195 36.0616 386.52 35.177 384.732 34.3643L383.077 38.0058ZM387.664 40.429C393.811 44.1992 396.709 49.1767 396.709 55.4819H400.709C400.709 47.6205 396.941 41.4261 389.755 37.0192L387.664 40.429ZM396.709 55.4819C396.709 61.7005 394.641 66.2823 390.653 69.514L393.172 72.6217C398.246 68.5097 400.709 62.7009 400.709 55.4819H396.709ZM390.667 69.5027C386.549 72.7791 380.713 74.5506 372.922 74.5757L372.935 78.5757C381.289 78.5487 388.11 76.6483 393.158 72.6331L390.667 69.5027ZM412.452 12.6694V10.6694H410.452V12.6694H412.452ZM471.514 12.6694L473.514 12.6694V10.6694L471.514 10.6694V12.6694ZM471.514 32.9038V34.9038H473.514V32.9038H471.514ZM454.131 32.9038V30.9038H452.131V32.9038H454.131ZM454.131 75.0522V77.0522H456.131V75.0522H454.131ZM429.834 75.0522H427.834V77.0522H429.834V75.0522ZM429.834 32.9038H431.834V30.9038H429.834V32.9038ZM412.452 32.9038H410.452V34.9038H412.452V32.9038ZM412.452 14.6694L471.514 14.6694V10.6694L412.452 10.6694V14.6694ZM469.514 12.6694V32.9038H473.514V12.6694L469.514 12.6694ZM471.514 30.9038L454.131 30.9038V34.9038H471.514V30.9038ZM452.131 32.9038V75.0522H456.131V32.9038H452.131ZM454.131 73.0522H429.834V77.0522H454.131V73.0522ZM431.834 75.0522V32.9038H427.834V75.0522H431.834ZM429.834 30.9038H412.452V34.9038L429.834 34.9038V30.9038ZM414.452 32.9038V12.6694H410.452V32.9038H414.452ZM517.084 63.7632L515.8 62.2298L515.084 62.8294V63.7632H517.084ZM540.873 43.8413L539.589 42.3079V42.308L540.873 43.8413ZM544.155 31.6538L542.74 33.068L542.75 33.0772L542.759 33.0863L544.155 31.6538ZM535.912 30.9116L536.533 32.813L536.545 32.809L535.912 30.9116ZM521.498 40.7944L519.858 41.9384L521.27 43.9631L522.958 42.1621L521.498 40.7944ZM512.319 27.6304L510.607 26.5964L509.935 27.7086L510.678 28.7744L512.319 27.6304ZM526.537 15.3647L525.697 13.5497L526.537 15.3647ZM564.741 16.0288L563.605 17.6751L563.606 17.6755L564.741 16.0288ZM566.108 45.9116L564.689 44.5015L564.686 44.5053L566.108 45.9116ZM558.998 52.1226L560.179 53.7371L560.19 53.7288L558.998 52.1226ZM553.334 56.3413L552.115 54.7561L547.454 58.3413H553.334V56.3413ZM573.178 56.3413H575.178V54.3413H573.178V56.3413ZM573.178 75.0522V77.0522H575.178V75.0522H573.178ZM517.084 75.0522H515.084V77.0522H517.084V75.0522ZM518.368 65.2965L542.157 45.3747L539.589 42.308L515.8 62.2298L518.368 65.2965ZM542.157 45.3747C545.611 42.4826 547.678 39.1733 547.678 35.4429H543.678C543.678 37.5458 542.542 39.8355 539.589 42.3079L542.157 45.3747ZM547.678 35.4429C547.678 33.4169 546.987 31.6209 545.55 30.2213L542.759 33.0863C543.354 33.6659 543.678 34.3959 543.678 35.4429H547.678ZM545.569 30.2396C544.173 28.8433 542.399 28.1694 540.405 28.1694V32.1694C541.431 32.1694 542.158 32.4851 542.74 33.068L545.569 30.2396ZM540.405 28.1694C538.672 28.1694 536.961 28.454 535.28 29.0143L536.545 32.809C537.833 32.3797 539.117 32.1694 540.405 32.1694V28.1694ZM535.292 29.0103C529.94 30.7567 524.862 34.2809 520.039 39.4268L522.958 42.1621C527.458 37.3601 531.989 34.2957 536.533 32.813L535.292 29.0103ZM523.139 39.6505L513.959 26.4864L510.678 28.7744L519.858 41.9384L523.139 39.6505ZM514.031 28.6643C516.975 23.7886 521.389 19.9514 527.378 17.1798L525.697 13.5497C519.082 16.6114 514.016 20.9513 510.607 26.5964L514.031 28.6643ZM527.378 17.1798C533.409 14.3884 539.84 12.9897 546.694 12.9897V8.98975C539.276 8.98975 532.27 10.5078 525.697 13.5497L527.378 17.1798ZM546.694 12.9897C553.536 12.9897 559.134 14.5909 563.605 17.6751L565.876 14.3825C560.608 10.748 554.174 8.98975 546.694 8.98975V12.9897ZM563.606 17.6755C568.427 20.9987 570.787 25.4991 570.787 31.3804H574.787C574.787 24.1887 571.784 18.4548 565.876 14.3821L563.606 17.6755ZM570.787 31.3804C570.787 35.9515 568.854 40.3122 564.689 44.5015L567.526 47.3217C572.267 42.5528 574.787 37.2259 574.787 31.3804H570.787ZM564.686 44.5053C562.433 46.7833 560.14 48.7855 557.807 50.5164L560.19 53.7288C562.701 51.8659 565.147 49.7275 567.53 47.3179L564.686 44.5053ZM557.818 50.5081C555.391 52.2825 553.488 53.6998 552.115 54.7561L554.554 57.9266C555.889 56.8995 557.762 55.5043 560.179 53.737L557.818 50.5081ZM553.334 58.3413H573.178V54.3413H553.334V58.3413ZM571.178 56.3413V75.0522H575.178V56.3413H571.178ZM573.178 73.0522H517.084V77.0522H573.178V73.0522ZM519.084 75.0522V63.7632H515.084V75.0522H519.084ZM597.467 51.6147L598.58 49.9527L596.849 48.7945L595.762 50.5702L597.467 51.6147ZM625.202 56.7319L623.971 55.1549L623.964 55.161L623.956 55.1671L625.202 56.7319ZM626.491 50.1694L624.751 51.1555L624.758 51.1682L624.765 51.1809L626.491 50.1694ZM624.694 48.1772L623.505 49.7856L623.513 49.7914L623.521 49.7971L624.694 48.1772ZM609.967 45.6772L608.232 46.6722L608.924 47.8787L610.296 47.65L609.967 45.6772ZM605.241 37.4351H603.241V37.9678L603.506 38.43L605.241 37.4351ZM615.866 29.7007L616.974 31.3657L622.481 27.7007H615.866V29.7007ZM592.272 29.7007L590.272 29.7007V31.7007L592.272 31.7007V29.7007ZM592.272 12.6694V10.6694H590.272V12.6694H592.272ZM652.506 12.6694H654.506V10.6694H652.506V12.6694ZM652.506 19.7007L653.717 21.2925L654.506 20.6922V19.7007H652.506ZM632.428 34.9741L631.217 33.3823L627.299 36.363L632.186 36.9594L632.428 34.9741ZM653.873 54.5835L655.873 54.5929V54.5835H653.873ZM648.756 68.0991L647.321 66.7065L647.319 66.7085L648.756 68.0991ZM621.647 76.4976V74.4976L621.641 74.4976L621.647 76.4976ZM596.491 71.6929L597.282 69.8559L597.273 69.8521L596.491 71.6929ZM588.209 66.7319L586.504 65.6874L585.581 67.1936L586.962 68.2952L588.209 66.7319ZM596.355 53.2768C603.313 57.9342 611.165 60.2554 619.85 60.2554V56.2554C611.92 56.2554 604.85 54.1495 598.58 49.9527L596.355 53.2768ZM619.85 60.2554C622.414 60.2554 624.698 59.6888 626.447 58.2968L623.956 55.1671C623.153 55.8063 621.869 56.2554 619.85 56.2554V60.2554ZM626.432 58.3089C628.077 57.0257 629.155 55.3346 629.155 53.2554H625.155C625.155 53.7803 624.931 54.4069 623.971 55.1549L626.432 58.3089ZM629.155 53.2554C629.155 51.7589 628.906 50.3342 628.216 49.158L624.765 51.1809C624.961 51.5151 625.155 52.1477 625.155 53.2554H629.155ZM628.231 49.1834C627.641 48.143 626.845 47.2658 625.867 46.5574L623.521 49.7971C624.053 50.1824 624.455 50.6333 624.751 51.1555L628.231 49.1834ZM625.883 46.5689C622.984 44.4265 618.828 43.521 613.756 43.521V47.521C618.476 47.521 621.612 48.3863 623.505 49.7856L625.883 46.5689ZM613.756 43.521C611.883 43.521 610.454 43.5685 609.638 43.7045L610.296 47.65C610.73 47.5776 611.827 47.521 613.756 47.521V43.521ZM611.702 44.6823L606.976 36.4401L603.506 38.43L608.232 46.6722L611.702 44.6823ZM607.241 37.4351C607.241 37.9878 607.001 38.3508 606.979 38.3856C606.918 38.4828 606.873 38.5292 606.888 38.5123C606.914 38.4838 607.005 38.3927 607.203 38.2243C607.586 37.8973 608.201 37.4221 609.074 36.7864C610.81 35.5227 613.438 33.7185 616.974 31.3657L614.758 28.0356C611.21 30.3964 608.526 32.238 606.72 33.5525C605.822 34.2059 605.109 34.7528 604.607 35.181C604.362 35.3902 604.12 35.6099 603.925 35.8256C603.83 35.9308 603.701 36.0825 603.585 36.2684C603.508 36.392 603.241 36.827 603.241 37.4351H607.241ZM615.866 27.7007H592.272V31.7007H615.866V27.7007ZM594.272 29.7007V12.6694H590.272V29.7007L594.272 29.7007ZM592.272 14.6694L652.506 14.6694V10.6694L592.272 10.6694V14.6694ZM650.506 12.6694V19.7007H654.506V12.6694H650.506ZM651.295 18.1089L631.217 33.3823L633.639 36.5659L653.717 21.2925L651.295 18.1089ZM632.186 36.9594C639.112 37.8046 644.012 39.7802 647.162 42.661C650.251 45.4854 651.873 49.3767 651.873 54.5835H655.873C655.873 48.4621 653.921 43.4212 649.862 39.7091C645.864 36.0534 640.041 33.8884 632.67 32.9889L632.186 36.9594ZM651.873 54.5741C651.849 59.654 650.297 63.6388 647.321 66.7065L650.192 69.4917C653.986 65.5803 655.845 60.5547 655.873 54.5929L651.873 54.5741ZM647.319 66.7085C642.457 71.7338 634.086 74.4976 621.647 74.4976V78.4976C634.52 78.4976 644.222 75.6623 650.194 69.4897L647.319 66.7085ZM621.641 74.4976C612.607 74.5229 604.498 72.963 597.281 69.8559L595.7 73.5298C603.483 76.881 612.145 78.5243 621.652 78.4976L621.641 74.4976ZM597.273 69.8521C594.502 68.6752 591.898 67.1163 589.457 65.1687L586.962 68.2952C589.677 70.4621 592.594 72.2105 595.709 73.5337L597.273 69.8521ZM589.915 67.7764L599.173 52.6592L595.762 50.5702L586.504 65.6874L589.915 67.7764Z"
        fill="black" mask="url(#path-5-outside-3_151_53)" />
</svg>