<svg width="745" height="78" viewBox="0 0 745 78" fill="none" xmlns="http://www.w3.org/2000/svg">
<mask id="path-1-outside-1_1_6" maskUnits="userSpaceOnUse" x="11.3039" y="-2" width="542" height="71" fill="black">
<rect fill="white" x="11.3039" y="-2" width="542" height="71"/>
<path d="M37.4914 66.5234C25.7987 66.5234 18.0382 65.0781 14.2101 62.1875L14.2101 44.2969C14.3143 44.3229 14.6919 44.4401 15.3429 44.6484C16.02 44.8568 16.8664 45.1172 17.882 45.4297C20.2518 46.1589 22.7388 46.849 25.3429 47.5C27.9731 48.125 30.0825 48.4375 31.6711 48.4375C34.2752 48.4375 35.5773 47.6432 35.5773 46.0547C35.5773 44.8307 34.4575 43.5286 32.2179 42.1484C31.2023 41.5234 30.0434 40.8724 28.7414 40.1953C27.4653 39.5182 26.1632 38.763 24.8351 37.9297C21.5799 35.9245 18.9627 33.5807 16.9836 30.8984C15.0304 28.2161 14.0539 24.8307 14.0539 20.7422C14.0539 11.8099 18.7674 5.80729 28.1945 2.73437C32.0226 1.48437 36.4367 0.859375 41.4367 0.859375C46.4627 0.859375 51.7101 1.43229 57.1789 2.57812C58.2987 2.8125 59.0408 2.98177 59.4054 3.08594V21.0156C52.3221 19.5052 47.2309 18.75 44.132 18.75C42.9341 18.75 42.0356 18.9583 41.4367 19.375C40.8377 19.7917 40.5382 20.2604 40.5382 20.7812C40.5382 21.3021 40.7987 21.849 41.3195 22.4219C41.8403 22.9688 42.7388 23.5286 44.0148 24.1016C45.2908 24.6484 46.7752 25.3255 48.4679 26.1328C50.1867 26.9141 51.7882 27.7604 53.2726 28.6719C59.9393 32.7604 63.2726 38.3464 63.2726 45.4297C63.2726 52.1484 61.007 57.3438 56.4757 61.0156C51.8924 64.6615 45.5643 66.4974 37.4914 66.5234ZM128.773 22.9297C127.08 22.2786 125.27 21.9531 123.343 21.9531C119.385 21.9531 115.934 23.3984 112.991 26.2891C110.075 29.1536 108.616 32.5911 108.616 36.6016C108.616 39.2839 109.137 41.3802 110.179 42.8906C111.221 44.401 112.64 45.1562 114.437 45.1562C116.234 45.1562 118.213 44.7005 120.374 43.7891C122.562 42.8516 125.765 40.8333 129.984 37.7344V63.1641C124.437 65.4036 118.538 66.5234 112.288 66.5234C106.064 66.5234 100.322 65.3255 95.0617 62.9297C86.7023 59.1016 81.1945 53.112 78.5382 44.9609C77.6528 42.1745 77.1971 39.1016 77.1711 35.7422C77.1711 32.3828 77.5877 29.1667 78.4211 26.0937C79.2544 23.0208 80.4653 20.1823 82.0539 17.5781C85.2309 12.3437 89.6841 8.24219 95.4132 5.27344C101.168 2.30469 107.757 0.833333 115.179 0.859375C120.83 0.859375 125.361 1.4974 128.773 2.77344V22.9297ZM184.468 2.61719L208.804 2.61719V65L184.468 65V41.9531L171.499 43.0859V65H147.202V2.61719L171.499 2.61719V25.1562L184.468 24.1016V2.61719ZM226.452 2.61719L271.413 2.61719V20.5859H250.749V25.7031H271.335V41.0156H250.749V46.9141H272.78V65H226.452V2.61719ZM290.077 2.61719C305.885 1.44531 316.197 0.859375 321.015 0.859375C325.859 0.859375 329.674 1.3151 332.46 2.22656C335.273 3.11198 337.786 4.34896 339.999 5.9375C344.296 8.98437 347.538 13.0339 349.726 18.0859C351.939 23.138 353.046 28.2552 353.046 33.4375C353.046 38.6198 352.2 43.151 350.507 47.0312C348.84 50.8854 346.523 54.1406 343.554 56.7969C337.486 62.2917 329.635 65.026 319.999 65H290.077V2.61719ZM314.374 22.4219V46.2109C315.754 45.0391 317.252 43.8802 318.866 42.7344C325.064 38.2812 328.163 33.6198 328.163 28.75C328.163 26.3802 327.46 24.1927 326.054 22.1875C324.648 20.1562 322.812 19.1406 320.546 19.1406C318.306 19.1406 316.249 20.2344 314.374 22.4219ZM399.171 66.5234C378.468 66.5234 368.116 57.7214 368.116 40.1172V2.61719L392.765 2.61719V39.4141C392.765 43.112 394.002 45.5208 396.476 46.6406C397.335 47.0312 398.364 47.2266 399.562 47.2266C402.947 47.2266 405.083 45.612 405.968 42.3828C406.228 41.4193 406.359 40.3776 406.359 39.2578V2.61719L427.96 2.61719V40.1172C427.96 57.7214 418.364 66.5234 399.171 66.5234ZM444.984 2.61719L469.28 2.61719V46.2109H490.257V65H444.984V2.61719ZM504.312 2.61719L549.273 2.61719V20.5859H528.609V25.7031H549.194V41.0156H528.609V46.9141H550.64V65H504.312V2.61719Z"/>
</mask>
<path d="M37.4914 66.5234C25.7987 66.5234 18.0382 65.0781 14.2101 62.1875L14.2101 44.2969C14.3143 44.3229 14.6919 44.4401 15.3429 44.6484C16.02 44.8568 16.8664 45.1172 17.882 45.4297C20.2518 46.1589 22.7388 46.849 25.3429 47.5C27.9731 48.125 30.0825 48.4375 31.6711 48.4375C34.2752 48.4375 35.5773 47.6432 35.5773 46.0547C35.5773 44.8307 34.4575 43.5286 32.2179 42.1484C31.2023 41.5234 30.0434 40.8724 28.7414 40.1953C27.4653 39.5182 26.1632 38.763 24.8351 37.9297C21.5799 35.9245 18.9627 33.5807 16.9836 30.8984C15.0304 28.2161 14.0539 24.8307 14.0539 20.7422C14.0539 11.8099 18.7674 5.80729 28.1945 2.73437C32.0226 1.48437 36.4367 0.859375 41.4367 0.859375C46.4627 0.859375 51.7101 1.43229 57.1789 2.57812C58.2987 2.8125 59.0408 2.98177 59.4054 3.08594V21.0156C52.3221 19.5052 47.2309 18.75 44.132 18.75C42.9341 18.75 42.0356 18.9583 41.4367 19.375C40.8377 19.7917 40.5382 20.2604 40.5382 20.7812C40.5382 21.3021 40.7987 21.849 41.3195 22.4219C41.8403 22.9688 42.7388 23.5286 44.0148 24.1016C45.2908 24.6484 46.7752 25.3255 48.4679 26.1328C50.1867 26.9141 51.7882 27.7604 53.2726 28.6719C59.9393 32.7604 63.2726 38.3464 63.2726 45.4297C63.2726 52.1484 61.007 57.3438 56.4757 61.0156C51.8924 64.6615 45.5643 66.4974 37.4914 66.5234ZM128.773 22.9297C127.08 22.2786 125.27 21.9531 123.343 21.9531C119.385 21.9531 115.934 23.3984 112.991 26.2891C110.075 29.1536 108.616 32.5911 108.616 36.6016C108.616 39.2839 109.137 41.3802 110.179 42.8906C111.221 44.401 112.64 45.1562 114.437 45.1562C116.234 45.1562 118.213 44.7005 120.374 43.7891C122.562 42.8516 125.765 40.8333 129.984 37.7344V63.1641C124.437 65.4036 118.538 66.5234 112.288 66.5234C106.064 66.5234 100.322 65.3255 95.0617 62.9297C86.7023 59.1016 81.1945 53.112 78.5382 44.9609C77.6528 42.1745 77.1971 39.1016 77.1711 35.7422C77.1711 32.3828 77.5877 29.1667 78.4211 26.0937C79.2544 23.0208 80.4653 20.1823 82.0539 17.5781C85.2309 12.3437 89.6841 8.24219 95.4132 5.27344C101.168 2.30469 107.757 0.833333 115.179 0.859375C120.83 0.859375 125.361 1.4974 128.773 2.77344V22.9297ZM184.468 2.61719L208.804 2.61719V65L184.468 65V41.9531L171.499 43.0859V65H147.202V2.61719L171.499 2.61719V25.1562L184.468 24.1016V2.61719ZM226.452 2.61719L271.413 2.61719V20.5859H250.749V25.7031H271.335V41.0156H250.749V46.9141H272.78V65H226.452V2.61719ZM290.077 2.61719C305.885 1.44531 316.197 0.859375 321.015 0.859375C325.859 0.859375 329.674 1.3151 332.46 2.22656C335.273 3.11198 337.786 4.34896 339.999 5.9375C344.296 8.98437 347.538 13.0339 349.726 18.0859C351.939 23.138 353.046 28.2552 353.046 33.4375C353.046 38.6198 352.2 43.151 350.507 47.0312C348.84 50.8854 346.523 54.1406 343.554 56.7969C337.486 62.2917 329.635 65.026 319.999 65H290.077V2.61719ZM314.374 22.4219V46.2109C315.754 45.0391 317.252 43.8802 318.866 42.7344C325.064 38.2812 328.163 33.6198 328.163 28.75C328.163 26.3802 327.46 24.1927 326.054 22.1875C324.648 20.1562 322.812 19.1406 320.546 19.1406C318.306 19.1406 316.249 20.2344 314.374 22.4219ZM399.171 66.5234C378.468 66.5234 368.116 57.7214 368.116 40.1172V2.61719L392.765 2.61719V39.4141C392.765 43.112 394.002 45.5208 396.476 46.6406C397.335 47.0312 398.364 47.2266 399.562 47.2266C402.947 47.2266 405.083 45.612 405.968 42.3828C406.228 41.4193 406.359 40.3776 406.359 39.2578V2.61719L427.96 2.61719V40.1172C427.96 57.7214 418.364 66.5234 399.171 66.5234ZM444.984 2.61719L469.28 2.61719V46.2109H490.257V65H444.984V2.61719ZM504.312 2.61719L549.273 2.61719V20.5859H528.609V25.7031H549.194V41.0156H528.609V46.9141H550.64V65H504.312V2.61719Z" fill="#E7BB3E"/>
<path d="M37.4914 66.5234L37.4914 68.5234L37.4978 68.5234L37.4914 66.5234ZM14.2101 62.1875H12.2101V63.1834L13.0049 63.7836L14.2101 62.1875ZM14.2101 44.2969L14.6952 42.3566L12.2101 41.7353V44.2969H14.2101ZM15.3429 44.6484L14.7334 46.5533L14.744 46.5567L14.7548 46.56L15.3429 44.6484ZM25.3429 47.5L24.8579 49.4403L24.8692 49.4431L24.8806 49.4458L25.3429 47.5ZM32.2179 42.1484L33.2672 40.4458L33.2661 40.4451L32.2179 42.1484ZM28.7414 40.1953L27.8039 41.962L27.8113 41.9659L27.8187 41.9697L28.7414 40.1953ZM24.8351 37.9297L25.8981 36.2356L25.8911 36.2312L25.8841 36.2268L24.8351 37.9297ZM16.9836 30.8984L15.3667 32.0757L15.3742 32.0859L16.9836 30.8984ZM28.1945 2.73437L28.8143 4.6359L28.8153 4.63559L28.1945 2.73437ZM57.1789 2.57812L56.7687 4.53562L56.7691 4.53571L57.1789 2.57812ZM59.4054 3.08594H61.4054V1.57733L59.9549 1.16289L59.4054 3.08594ZM59.4054 21.0156L58.9883 22.9716L61.4054 23.4871V21.0156H59.4054ZM41.3195 22.4219L39.8396 23.7672L39.8552 23.7844L39.8712 23.8012L41.3195 22.4219ZM44.0148 24.1016L43.1956 25.9261L43.2112 25.9331L43.227 25.9399L44.0148 24.1016ZM48.4679 26.1328L47.607 27.938L47.6236 27.9459L47.6403 27.9535L48.4679 26.1328ZM53.2726 28.6719L52.2261 30.3762L52.227 30.3768L53.2726 28.6719ZM56.4757 61.0156L57.7208 62.5808L57.7279 62.5752L57.7349 62.5695L56.4757 61.0156ZM37.4914 64.5234C31.7153 64.5234 26.9846 64.1655 23.2677 63.4733C19.5187 62.775 16.972 61.7669 15.4153 60.5914L13.0049 63.7836C15.2764 65.4988 18.524 66.6586 22.5353 67.4056C26.5789 68.1587 31.5748 68.5234 37.4914 68.5234V64.5234ZM16.2101 62.1875L16.2101 44.2969H12.2101L12.2101 62.1875H16.2101ZM13.725 46.2372C13.7113 46.2337 13.7729 46.2506 13.9786 46.3144C14.1593 46.3705 14.4101 46.4498 14.7334 46.5533L15.9525 42.7436C15.3421 42.5483 14.88 42.4028 14.6952 42.3566L13.725 46.2372ZM14.7548 46.56C14.8975 46.6039 14.8685 46.595 15.0166 46.6406C15.0996 46.6661 15.0692 46.6567 15.1535 46.6827C15.196 46.6958 15.1805 46.691 15.2234 46.7042C15.2312 46.7066 15.2332 46.7072 15.241 46.7096C15.242 46.7099 15.2577 46.7148 15.2587 46.7151C15.2696 46.7184 15.2656 46.7172 15.2765 46.7205C15.2829 46.7225 15.279 46.7213 15.2854 46.7233C15.2869 46.7237 15.2884 46.7242 15.2898 46.7246C15.2913 46.7251 15.2928 46.7256 15.2943 46.726C15.3174 46.7331 15.4146 46.763 15.4391 46.7706C15.5294 46.7983 15.4963 46.7882 15.5879 46.8163C15.7743 46.8737 15.7056 46.8526 15.8973 46.9116C15.9949 46.9416 15.9591 46.9306 16.058 46.961C16.1079 46.9763 16.0896 46.9707 16.1398 46.9862C16.1513 46.9897 16.149 46.989 16.1604 46.9925C16.1731 46.9964 16.1685 46.995 16.1811 46.9989C16.1938 47.0028 16.1892 47.0014 16.2019 47.0053C16.2094 47.0076 16.2047 47.0061 16.2122 47.0085C16.214 47.009 16.2157 47.0095 16.2174 47.0101C16.2192 47.0106 16.2209 47.0111 16.2226 47.0117C16.2949 47.0339 16.4863 47.0928 16.5638 47.1166C16.7797 47.183 16.6998 47.1585 16.9209 47.2265C17.033 47.261 16.9919 47.2483 17.1054 47.2833C17.1054 47.2833 17.2925 47.3408 17.2938 47.3412L18.4702 43.5181C18.2013 43.4354 18.3608 43.4845 18.0972 43.4034C17.9857 43.3691 18.0269 43.3817 17.9167 43.3478C17.8572 43.3295 17.7984 43.3114 17.7402 43.2935C17.7268 43.2894 17.7317 43.2909 17.7184 43.2868C17.7099 43.2842 17.7051 43.2827 17.6967 43.2801C17.6949 43.2796 17.693 43.279 17.6912 43.2785C17.6894 43.2779 17.6876 43.2774 17.6858 43.2768C17.6744 43.2733 17.6864 43.277 17.675 43.2735C17.6738 43.2731 17.6546 43.2672 17.6534 43.2668C17.5678 43.2405 17.6529 43.2667 17.5676 43.2404C17.5486 43.2346 17.4166 43.194 17.399 43.1885C17.2703 43.1489 17.1971 43.1264 17.0737 43.0884C16.8268 43.0125 16.6963 42.9723 16.4706 42.9029C16.4153 42.8859 16.3838 42.8762 16.3298 42.8596C16.299 42.8501 16.2914 42.8477 16.2609 42.8384C16.2081 42.8221 16.2454 42.8336 16.1929 42.8174C16.1723 42.8111 16.1799 42.8134 16.1593 42.8071C16.1426 42.802 16.1426 42.802 16.126 42.7968C16.1246 42.7964 16.1232 42.796 16.1218 42.7956C16.1205 42.7951 16.1191 42.7947 16.1177 42.7943C16.1163 42.7939 16.1149 42.7934 16.1135 42.793C16.1122 42.7926 16.1108 42.7922 16.1094 42.7917C16.0947 42.7872 16.1075 42.7912 16.0929 42.7867C16.0746 42.781 16.0783 42.7822 16.06 42.7766C15.9177 42.7327 16.0722 42.7803 15.9311 42.7369L14.7548 46.56ZM17.2938 47.3412C19.7004 48.0817 22.2219 48.7813 24.8579 49.4403L25.828 45.5597C23.2556 44.9166 20.8032 44.236 18.4702 43.5181L17.2938 47.3412ZM24.8806 49.4458C27.5725 50.0855 29.8557 50.4375 31.6711 50.4375V46.4375C30.3093 46.4375 28.3738 46.1645 25.8053 45.5542L24.8806 49.4458ZM31.6711 50.4375C33.1114 50.4375 34.527 50.2295 35.6423 49.5492C36.9181 48.7709 37.5773 47.511 37.5773 46.0547H33.5773C33.5773 46.1739 33.5548 46.1808 33.5781 46.1381C33.6035 46.0917 33.6231 46.0954 33.5592 46.1344C33.3724 46.2483 32.8349 46.4375 31.6711 46.4375V50.4375ZM37.5773 46.0547C37.5773 44.8024 37.001 43.7248 36.2538 42.8561C35.5083 41.9892 34.4795 41.1929 33.2672 40.4458L31.1686 43.8511C32.1959 44.4842 32.8468 45.029 33.2211 45.4642C33.4031 45.6758 33.4948 45.833 33.5389 45.9326C33.5604 45.9809 33.5696 46.0135 33.5736 46.0313C33.5757 46.0403 33.5765 46.0464 33.5769 46.0497C33.5773 46.0531 33.5773 46.0546 33.5773 46.0547H37.5773ZM33.2661 40.4451C32.2015 39.79 30.9995 39.1153 29.6641 38.4209L27.8187 41.9697C29.0874 42.6295 30.2031 43.2569 31.1697 43.8518L33.2661 40.4451ZM29.6788 38.4286C28.4489 37.776 27.1887 37.0453 25.8981 36.2356L23.7721 39.6238C25.1378 40.4807 26.4817 41.2604 27.8039 41.962L29.6788 38.4286ZM25.8841 36.2268C22.8152 34.3364 20.3993 32.1592 18.5929 29.711L15.3742 32.0859C17.5261 35.0023 20.3446 37.5125 23.7862 39.6325L25.8841 36.2268ZM18.6003 29.7212C16.9492 27.4536 16.0539 24.5075 16.0539 20.7422H12.0539C12.0539 25.154 13.1116 28.9787 15.3668 32.0757L18.6003 29.7212ZM16.0539 20.7422C16.0539 16.6444 17.1273 13.3674 19.162 10.7762C21.2105 8.1675 24.366 6.08591 28.8143 4.6359L27.5747 0.832848C22.5959 2.45576 18.6811 4.91193 16.016 8.30582C13.3372 11.7173 12.0539 15.9076 12.0539 20.7422H16.0539ZM28.8153 4.63559C32.4013 3.46463 36.5987 2.85937 41.4367 2.85937V-1.14063C36.2746 -1.14063 31.6439 -0.495883 27.5737 0.833164L28.8153 4.63559ZM41.4367 2.85937C46.3106 2.85937 51.4201 3.41495 56.7687 4.53562L57.589 0.620631C52.0001 -0.55037 46.6148 -1.14063 41.4367 -1.14063V2.85937ZM56.7691 4.53571C57.901 4.77261 58.5723 4.92793 58.856 5.00899L59.9549 1.16289C59.5094 1.03562 58.6963 0.852388 57.5886 0.620544L56.7691 4.53571ZM57.4054 3.08594V21.0156L61.4054 21.0156V3.08594H57.4054ZM59.8225 19.0596C52.7349 17.5483 47.4616 16.75 44.132 16.75V20.75C47.0002 20.75 51.9093 21.4621 58.9883 22.9716L59.8225 19.0596ZM44.132 16.75C42.7638 16.75 41.3819 16.9768 40.2945 17.7332L42.5788 21.0168C42.6894 20.9399 43.1043 20.75 44.132 20.75V16.75ZM40.2945 17.7332C39.3907 18.3619 38.5382 19.366 38.5382 20.7812H42.5382C42.5382 20.8458 42.5285 20.9141 42.5087 20.9797C42.4891 21.0443 42.4646 21.0902 42.4482 21.1158C42.4192 21.1614 42.4317 21.1191 42.5788 21.0168L40.2945 17.7332ZM38.5382 20.7812C38.5382 21.9942 39.1434 23.0013 39.8396 23.7672L42.7994 21.0765C42.636 20.8969 42.5656 20.7775 42.5393 20.7222C42.5162 20.6737 42.5382 20.6994 42.5382 20.7812H38.5382ZM39.8712 23.8012C40.6643 24.6339 41.8499 25.3219 43.1956 25.9261L44.834 22.277C43.6277 21.7354 43.0164 21.3036 42.7678 21.0426L39.8712 23.8012ZM43.227 25.9399C44.4716 26.4733 45.9307 27.1385 47.607 27.938L49.3289 24.3276C47.6198 23.5125 46.1101 22.8236 44.8026 22.2633L43.227 25.9399ZM47.6403 27.9535C49.29 28.7034 50.8178 29.5115 52.2261 30.3762L54.3191 26.9675C52.7587 26.0094 51.0834 25.1247 49.2955 24.3121L47.6403 27.9535ZM52.227 30.3768C58.3746 34.147 61.2726 39.1245 61.2726 45.4297H65.2726C65.2726 37.5682 61.504 31.3738 54.3182 26.967L52.227 30.3768ZM61.2726 45.4297C61.2726 51.6482 59.2047 56.23 55.2166 59.4618L57.7349 62.5695C62.8093 58.4575 65.2726 52.6487 65.2726 45.4297H61.2726ZM55.2307 59.4504C51.1118 62.7268 45.276 64.4983 37.4849 64.5234L37.4978 68.5234C45.8526 68.4965 52.673 66.5961 57.7208 62.5808L55.2307 59.4504ZM128.773 22.9297L128.055 24.7964L130.773 25.8417V22.9297H128.773ZM112.991 26.2891L114.393 27.716L114.393 27.7158L112.991 26.2891ZM120.374 43.7891L121.151 45.6319L121.162 45.6274L120.374 43.7891ZM129.984 37.7344H131.984V33.7836L128.8 36.1225L129.984 37.7344ZM129.984 63.1641L130.732 65.0186L131.984 64.5134V63.1641H129.984ZM95.0617 62.9297L94.229 64.7481L94.2327 64.7498L95.0617 62.9297ZM78.5382 44.9609L76.6322 45.5666L76.6344 45.5736L76.6367 45.5806L78.5382 44.9609ZM77.1711 35.7422H75.1711V35.7499L75.1711 35.7577L77.1711 35.7422ZM82.0539 17.5781L83.7613 18.6196L83.7636 18.6159L82.0539 17.5781ZM95.4132 5.27344L94.4964 3.49598L94.4931 3.49768L95.4132 5.27344ZM115.179 0.859375L115.172 2.85937H115.179V0.859375ZM128.773 2.77344L130.773 2.77344V1.3862L129.473 0.900192L128.773 2.77344ZM129.491 21.063C127.555 20.3184 125.5 19.9531 123.343 19.9531V23.9531C125.04 23.9531 126.605 24.2389 128.055 24.7964L129.491 21.063ZM123.343 19.9531C118.836 19.9531 114.889 21.6215 111.59 24.8623L114.393 27.7158C116.979 25.1754 119.933 23.9531 123.343 23.9531V19.9531ZM111.59 24.8622C108.299 28.0946 106.616 32.0429 106.616 36.6016H110.616C110.616 33.1394 111.851 30.2127 114.393 27.716L111.59 24.8622ZM106.616 36.6016C106.616 39.5113 107.177 42.0603 108.532 44.0261L111.825 41.7552C111.098 40.7002 110.616 39.0564 110.616 36.6016H106.616ZM108.532 44.0261C109.938 46.0642 111.966 47.1562 114.437 47.1562V43.1562C113.314 43.1562 112.503 42.7379 111.825 41.7552L108.532 44.0261ZM114.437 47.1562C116.569 47.1562 118.815 46.6169 121.151 45.6319L119.597 41.9462C117.61 42.7841 115.899 43.1562 114.437 43.1562V47.1562ZM121.162 45.6274C123.576 44.5928 126.936 42.4544 131.168 39.3462L128.8 36.1225C124.593 39.2123 121.547 41.1103 119.586 41.9508L121.162 45.6274ZM127.984 37.7344V63.1641H131.984V37.7344H127.984ZM129.235 61.3095C123.936 63.4487 118.293 64.5234 112.288 64.5234V68.5234C118.783 68.5234 124.937 67.3585 130.732 65.0186L129.235 61.3095ZM112.288 64.5234C106.328 64.5234 100.871 63.378 95.8906 61.1096L94.2327 64.7498C99.773 67.2731 105.801 68.5234 112.288 68.5234V64.5234ZM95.8944 61.1113C88.0019 57.4969 82.9093 51.9192 80.4398 44.3413L76.6367 45.5806C79.4797 54.3047 85.4028 60.7062 94.229 64.7481L95.8944 61.1113ZM80.4443 44.3553C79.6278 41.7857 79.1957 38.915 79.171 35.7267L75.1711 35.7577C75.1985 39.2881 75.6778 42.5632 76.6322 45.5666L80.4443 44.3553ZM79.1711 35.7422C79.1711 32.5499 79.5668 29.5103 80.3513 26.6172L76.4908 25.5703C75.6087 28.823 75.1711 32.2157 75.1711 35.7422H79.1711ZM80.3513 26.6172C81.1374 23.7186 82.2753 21.0556 83.7613 18.6196L80.3465 16.5366C78.6553 19.309 77.3714 22.323 76.4908 25.5703L80.3513 26.6172ZM83.7636 18.6159C86.7398 13.7125 90.9118 9.85855 96.3334 7.04919L94.4931 3.49768C88.4563 6.62583 83.7221 10.975 80.3442 16.5404L83.7636 18.6159ZM96.3301 7.05089C101.76 4.24971 108.024 2.83428 115.172 2.85936L115.186 -1.14061C107.49 -1.16762 100.576 0.359666 94.4964 3.49598L96.3301 7.05089ZM115.179 2.85937C120.708 2.85937 124.973 3.48755 128.072 4.64668L129.473 0.900192C125.749 -0.49276 120.952 -1.14063 115.179 -1.14063V2.85937ZM126.773 2.77344V22.9297H130.773V2.77344L126.773 2.77344ZM184.468 2.61719V0.617187H182.468V2.61719H184.468ZM208.804 2.61719L210.804 2.61719V0.617187L208.804 0.617187V2.61719ZM208.804 65V67H210.804V65H208.804ZM184.468 65H182.468V67H184.468V65ZM184.468 41.9531H186.468V39.7708L184.294 39.9607L184.468 41.9531ZM171.499 43.0859L171.325 41.0935L169.499 41.253V43.0859H171.499ZM171.499 65V67H173.499V65H171.499ZM147.202 65H145.202V67H147.202V65ZM147.202 2.61719V0.617187L145.202 0.617187V2.61719L147.202 2.61719ZM171.499 2.61719H173.499V0.617187H171.499V2.61719ZM171.499 25.1562L169.499 25.1562V27.3255L171.661 27.1497L171.499 25.1562ZM184.468 24.1016L184.63 26.095L186.468 25.9455V24.1016H184.468ZM184.468 4.61719L208.804 4.61719V0.617187L184.468 0.617187V4.61719ZM206.804 2.61719V65H210.804V2.61719L206.804 2.61719ZM208.804 63L184.468 63V67L208.804 67V63ZM186.468 65V41.9531H182.468V65H186.468ZM184.294 39.9607L171.325 41.0935L171.673 45.0784L184.642 43.9455L184.294 39.9607ZM169.499 43.0859V65H173.499V43.0859H169.499ZM171.499 63H147.202V67H171.499V63ZM149.202 65V2.61719L145.202 2.61719V65H149.202ZM147.202 4.61719L171.499 4.61719V0.617187L147.202 0.617187V4.61719ZM169.499 2.61719V25.1562L173.499 25.1562V2.61719H169.499ZM171.661 27.1497L184.63 26.095L184.306 22.1081L171.337 23.1628L171.661 27.1497ZM186.468 24.1016V2.61719H182.468V24.1016H186.468ZM226.452 2.61719V0.617187L224.452 0.617187V2.61719L226.452 2.61719ZM271.413 2.61719H273.413V0.617187H271.413V2.61719ZM271.413 20.5859V22.5859H273.413V20.5859H271.413ZM250.749 20.5859V18.5859H248.749V20.5859H250.749ZM250.749 25.7031H248.749V27.7031H250.749V25.7031ZM271.335 25.7031H273.335V23.7031H271.335V25.7031ZM271.335 41.0156V43.0156H273.335V41.0156H271.335ZM250.749 41.0156V39.0156H248.749V41.0156H250.749ZM250.749 46.9141H248.749V48.9141H250.749V46.9141ZM272.78 46.9141H274.78V44.9141H272.78V46.9141ZM272.78 65V67H274.78V65H272.78ZM226.452 65H224.452V67H226.452V65ZM226.452 4.61719L271.413 4.61719V0.617187L226.452 0.617187V4.61719ZM269.413 2.61719V20.5859H273.413V2.61719H269.413ZM271.413 18.5859H250.749V22.5859H271.413V18.5859ZM248.749 20.5859V25.7031H252.749V20.5859H248.749ZM250.749 27.7031H271.335V23.7031H250.749V27.7031ZM269.335 25.7031V41.0156H273.335V25.7031H269.335ZM271.335 39.0156H250.749V43.0156H271.335V39.0156ZM248.749 41.0156V46.9141H252.749V41.0156H248.749ZM250.749 48.9141H272.78V44.9141H250.749V48.9141ZM270.78 46.9141V65H274.78V46.9141H270.78ZM272.78 63H226.452V67H272.78V63ZM228.452 65V2.61719L224.452 2.61719V65H228.452ZM290.077 2.61719L289.929 0.622661L288.077 0.759969V2.61719H290.077ZM332.46 2.22656L331.838 4.12745L331.849 4.13092L331.86 4.13426L332.46 2.22656ZM339.999 5.9375L338.833 7.56241L338.842 7.56897L339.999 5.9375ZM349.726 18.0859L347.89 18.8806L347.894 18.8886L349.726 18.0859ZM350.507 47.0312L348.674 46.2315L348.671 46.2374L350.507 47.0312ZM343.554 56.7969L342.22 55.3064L342.211 55.3144L343.554 56.7969ZM319.999 65L320.005 63H319.999V65ZM290.077 65H288.077V67H290.077V65ZM314.374 22.4219L312.856 21.1203L312.374 21.682V22.4219L314.374 22.4219ZM314.374 46.2109H312.374V50.5327L315.669 47.7355L314.374 46.2109ZM318.866 42.7344L320.024 44.3654L320.033 44.3586L318.866 42.7344ZM326.054 22.1875L324.409 23.3259L324.416 23.3359L326.054 22.1875ZM290.225 4.61171C306.05 3.43855 316.285 2.85937 321.015 2.85937V-1.14063C316.109 -1.14063 305.719 -0.547924 289.929 0.622661L290.225 4.61171ZM321.015 2.85937C325.766 2.85937 329.341 3.31049 331.838 4.12745L333.082 0.325673C330.007 -0.680284 325.951 -1.14063 321.015 -1.14063V2.85937ZM331.86 4.13426C334.486 4.96122 336.805 6.10726 338.833 7.56238L341.165 4.31262C338.766 2.59066 336.059 1.26274 333.061 0.318864L331.86 4.13426ZM338.842 7.56897C342.827 10.3944 345.841 14.1484 347.89 18.8806L351.561 17.2913C349.235 11.9193 345.765 7.57431 341.156 4.30603L338.842 7.56897ZM347.894 18.8886C350.004 23.7041 351.046 28.549 351.046 33.4375H355.046C355.046 27.9614 353.875 22.5719 351.558 17.2833L347.894 18.8886ZM351.046 33.4375C351.046 38.4047 350.235 42.6534 348.674 46.2315L352.34 47.831C354.165 43.6487 355.046 38.8348 355.046 33.4375H351.046ZM348.671 46.2374C347.113 49.8405 344.962 52.8537 342.22 55.3064L344.887 58.2874C348.084 55.4276 350.567 51.9304 352.343 47.8251L348.671 46.2374ZM342.211 55.3144C336.577 60.4169 329.236 63.025 320.005 63L319.994 67C330.034 67.0271 338.395 64.1664 344.896 58.2793L342.211 55.3144ZM319.999 63H290.077V67H319.999V63ZM292.077 65V2.61719L288.077 2.61719V65H292.077ZM312.374 22.4219V46.2109H316.374V22.4219L312.374 22.4219ZM315.669 47.7355C317.001 46.6044 318.452 45.4808 320.024 44.3654L317.709 41.1034C316.051 42.2796 314.508 43.4738 313.08 44.6863L315.669 47.7355ZM320.033 44.3586C326.45 39.7483 330.163 34.564 330.163 28.75H326.163C326.163 32.6756 323.679 36.8142 317.699 41.1101L320.033 44.3586ZM330.163 28.75C330.163 25.9548 329.325 23.3688 327.691 21.0391L324.416 23.3359C325.595 25.0166 326.163 26.8056 326.163 28.75H330.163ZM327.698 21.0491C325.958 18.5355 323.535 17.1406 320.546 17.1406V21.1406C322.089 21.1406 323.337 21.777 324.409 23.3259L327.698 21.0491ZM320.546 17.1406C317.564 17.1406 314.994 18.6257 312.856 21.1203L315.893 23.7235C317.504 21.843 319.049 21.1406 320.546 21.1406V17.1406ZM368.116 2.61719V0.617187H366.116V2.61719H368.116ZM392.765 2.61719H394.765V0.617187H392.765V2.61719ZM396.476 46.6406L397.303 44.8199L397.3 44.8186L396.476 46.6406ZM405.968 42.3828L407.897 42.9117L407.899 42.9046L405.968 42.3828ZM406.359 2.61719V0.617187H404.359V2.61719H406.359ZM427.96 2.61719H429.96V0.617187H427.96V2.61719ZM399.171 64.5234C389.056 64.5234 381.842 62.3663 377.176 58.3982C372.571 54.483 370.116 48.5185 370.116 40.1172H366.116C366.116 49.3201 368.837 56.5587 374.584 61.4455C380.269 66.2796 388.583 68.5234 399.171 68.5234V64.5234ZM370.116 40.1172V2.61719H366.116V40.1172H370.116ZM368.116 4.61719L392.765 4.61719V0.617187L368.116 0.617187V4.61719ZM390.765 2.61719V39.4141H394.765V2.61719H390.765ZM390.765 39.4141C390.765 43.5616 392.199 46.9002 395.651 48.4627L397.3 44.8186C395.805 44.1415 394.765 42.6624 394.765 39.4141H390.765ZM395.648 48.4614C396.827 48.9974 398.152 49.2266 399.562 49.2266V45.2266C398.575 45.2266 397.843 45.0651 397.303 44.8199L395.648 48.4614ZM399.562 49.2266C401.573 49.2266 403.411 48.7434 404.909 47.6109C406.408 46.4768 407.367 44.8431 407.897 42.9117L404.039 41.8539C403.683 43.1517 403.132 43.9398 402.496 44.4203C401.858 44.9024 400.936 45.2266 399.562 45.2266V49.2266ZM407.899 42.9046C408.21 41.7517 408.359 40.5327 408.359 39.2578H404.359C404.359 40.2225 404.246 41.0868 404.037 41.861L407.899 42.9046ZM408.359 39.2578V2.61719H404.359V39.2578H408.359ZM406.359 4.61719L427.96 4.61719V0.617187L406.359 0.617187V4.61719ZM425.96 2.61719V40.1172H429.96V2.61719H425.96ZM425.96 40.1172C425.96 48.5644 423.666 54.5454 419.411 58.448C415.123 62.3806 408.5 64.5234 399.171 64.5234V68.5234C409.035 68.5234 416.806 66.2652 422.115 61.3958C427.456 56.4963 429.96 49.2741 429.96 40.1172H425.96ZM444.984 2.61719V0.617187H442.984V2.61719H444.984ZM469.28 2.61719H471.28V0.617187H469.28V2.61719ZM469.28 46.2109H467.28V48.2109H469.28V46.2109ZM490.257 46.2109H492.257V44.2109H490.257V46.2109ZM490.257 65V67H492.257V65H490.257ZM444.984 65H442.984V67H444.984V65ZM444.984 4.61719L469.28 4.61719V0.617187L444.984 0.617187V4.61719ZM467.28 2.61719V46.2109H471.28V2.61719H467.28ZM469.28 48.2109H490.257V44.2109H469.28V48.2109ZM488.257 46.2109V65H492.257V46.2109H488.257ZM490.257 63L444.984 63V67H490.257V63ZM446.984 65V2.61719H442.984V65H446.984ZM504.312 2.61719V0.617187H502.312V2.61719H504.312ZM549.273 2.61719H551.273V0.617187H549.273V2.61719ZM549.273 20.5859V22.5859H551.273V20.5859H549.273ZM528.609 20.5859V18.5859H526.609V20.5859H528.609ZM528.609 25.7031H526.609V27.7031H528.609V25.7031ZM549.194 25.7031H551.194V23.7031H549.194V25.7031ZM549.194 41.0156V43.0156H551.194V41.0156H549.194ZM528.609 41.0156V39.0156H526.609V41.0156H528.609ZM528.609 46.9141H526.609V48.9141H528.609V46.9141ZM550.64 46.9141H552.64V44.9141H550.64V46.9141ZM550.64 65V67H552.64V65H550.64ZM504.312 65H502.312V67H504.312V65ZM504.312 4.61719L549.273 4.61719V0.617187L504.312 0.617187V4.61719ZM547.273 2.61719V20.5859H551.273V2.61719H547.273ZM549.273 18.5859H528.609V22.5859H549.273V18.5859ZM526.609 20.5859V25.7031H530.609V20.5859H526.609ZM528.609 27.7031H549.194V23.7031H528.609V27.7031ZM547.194 25.7031V41.0156H551.194V25.7031H547.194ZM549.194 39.0156H528.609V43.0156H549.194V39.0156ZM526.609 41.0156V46.9141H530.609V41.0156H526.609ZM528.609 48.9141H550.64V44.9141H528.609V48.9141ZM548.64 46.9141V65H552.64V46.9141H548.64ZM550.64 63H504.312V67H550.64V63ZM506.312 65V2.61719H502.312V65H506.312Z" fill="black" mask="url(#path-1-outside-1_1_6)"/>
<mask id="path-3-outside-2_1_6" maskUnits="userSpaceOnUse" x="6.22925" y="2.11377" width="542" height="71" fill="black">
<rect fill="white" x="6.22925" y="2.11377" width="542" height="71"/>
<path d="M32.4167 70.6372C20.724 70.6372 12.9636 69.1919 9.1355 66.3013L9.1355 48.4106C9.23966 48.4367 9.61727 48.5539 10.2683 48.7622C10.9454 48.9705 11.7917 49.231 12.8074 49.5435C15.1772 50.2726 17.6641 50.9627 20.2683 51.6138C22.8985 52.2388 25.0079 52.5513 26.5964 52.5513C29.2006 52.5513 30.5027 51.757 30.5027 50.1685C30.5027 48.9445 29.3829 47.6424 27.1433 46.2622C26.1277 45.6372 24.9688 44.9862 23.6667 44.3091C22.3907 43.632 21.0886 42.8768 19.7605 42.0435C16.5053 40.0382 13.8881 37.6945 11.9089 35.0122C9.95581 32.3299 8.97925 28.9445 8.97925 24.856C8.97925 15.9237 13.6928 9.92106 23.1199 6.84814C26.948 5.59814 31.3621 4.97314 36.3621 4.97314C41.3881 4.97314 46.6355 5.54606 52.1042 6.69189C53.224 6.92627 53.9662 7.09554 54.3308 7.19971V25.1294C47.2475 23.619 42.1563 22.8638 39.0574 22.8638C37.8595 22.8638 36.961 23.0721 36.3621 23.4888C35.7631 23.9054 35.4636 24.3742 35.4636 24.895C35.4636 25.4159 35.724 25.9627 36.2449 26.5356C36.7657 27.0825 37.6641 27.6424 38.9402 28.2153C40.2162 28.7622 41.7006 29.4393 43.3933 30.2466C45.1121 31.0278 46.7136 31.8742 48.198 32.7856C54.8647 36.8742 58.198 42.4601 58.198 49.5435C58.198 56.2622 55.9324 61.4575 51.4011 65.1294C46.8178 68.7752 40.4897 70.6112 32.4167 70.6372ZM123.698 27.0435C122.005 26.3924 120.195 26.0669 118.268 26.0669C114.31 26.0669 110.859 27.5122 107.917 30.4028C105 33.2674 103.542 36.7049 103.542 40.7153C103.542 43.3976 104.063 45.494 105.104 47.0044C106.146 48.5148 107.565 49.27 109.362 49.27C111.159 49.27 113.138 48.8143 115.3 47.9028C117.487 46.9653 120.69 44.9471 124.909 41.8481V67.2778C119.362 69.5174 113.464 70.6372 107.214 70.6372C100.99 70.6372 95.2475 69.4393 89.9871 67.0435C81.6277 63.2153 76.1199 57.2257 73.4636 49.0747C72.5782 46.2882 72.1225 43.2153 72.0964 39.856C72.0964 36.4966 72.5131 33.2804 73.3464 30.2075C74.1798 27.1346 75.3907 24.2961 76.9792 21.6919C80.1563 16.4575 84.6095 12.356 90.3386 9.38721C96.0938 6.41846 102.682 4.9471 110.104 4.97314C115.755 4.97314 120.287 5.61117 123.698 6.88721V27.0435ZM179.393 6.73096L203.729 6.73096V69.1138L179.393 69.1138V46.0669L166.425 47.1997V69.1138H142.128V6.73096L166.425 6.73096V29.27L179.393 28.2153V6.73096ZM221.378 6.73096L266.339 6.73096V24.6997H245.675V29.8169H266.26V45.1294H245.675V51.0278H267.706V69.1138H221.378V6.73096ZM285.003 6.73096C300.81 5.55908 311.122 4.97314 315.94 4.97314C320.784 4.97314 324.599 5.42887 327.385 6.34033C330.198 7.22575 332.711 8.46273 334.925 10.0513C339.221 13.0981 342.464 17.1476 344.651 22.1997C346.865 27.2518 347.971 32.369 347.971 37.5513C347.971 42.7336 347.125 47.2648 345.432 51.145C343.766 54.9992 341.448 58.2544 338.479 60.9106C332.412 66.4054 324.56 69.1398 314.925 69.1138H285.003V6.73096ZM309.3 26.5356V50.3247C310.68 49.1528 312.177 47.994 313.792 46.8481C319.99 42.395 323.089 37.7336 323.089 32.8638C323.089 30.494 322.385 28.3065 320.979 26.3013C319.573 24.27 317.737 23.2544 315.471 23.2544C313.232 23.2544 311.175 24.3481 309.3 26.5356ZM394.096 70.6372C373.393 70.6372 363.042 61.8351 363.042 44.231V6.73096L387.69 6.73096V43.5278C387.69 47.2257 388.927 49.6346 391.401 50.7544C392.26 51.145 393.289 51.3403 394.487 51.3403C397.872 51.3403 400.008 49.7257 400.893 46.4966C401.154 45.533 401.284 44.4914 401.284 43.3716V6.73096L422.885 6.73096V44.231C422.885 61.8351 413.289 70.6372 394.096 70.6372ZM439.909 6.73096L464.206 6.73096V50.3247H485.182V69.1138H439.909V6.73096ZM499.237 6.73096L544.198 6.73096V24.6997H523.534V29.8169H544.12V45.1294H523.534V51.0278H545.565V69.1138H499.237V6.73096Z"/>
</mask>
<path d="M32.4167 70.6372C20.724 70.6372 12.9636 69.1919 9.1355 66.3013L9.1355 48.4106C9.23966 48.4367 9.61727 48.5539 10.2683 48.7622C10.9454 48.9705 11.7917 49.231 12.8074 49.5435C15.1772 50.2726 17.6641 50.9627 20.2683 51.6138C22.8985 52.2388 25.0079 52.5513 26.5964 52.5513C29.2006 52.5513 30.5027 51.757 30.5027 50.1685C30.5027 48.9445 29.3829 47.6424 27.1433 46.2622C26.1277 45.6372 24.9688 44.9862 23.6667 44.3091C22.3907 43.632 21.0886 42.8768 19.7605 42.0435C16.5053 40.0382 13.8881 37.6945 11.9089 35.0122C9.95581 32.3299 8.97925 28.9445 8.97925 24.856C8.97925 15.9237 13.6928 9.92106 23.1199 6.84814C26.948 5.59814 31.3621 4.97314 36.3621 4.97314C41.3881 4.97314 46.6355 5.54606 52.1042 6.69189C53.224 6.92627 53.9662 7.09554 54.3308 7.19971V25.1294C47.2475 23.619 42.1563 22.8638 39.0574 22.8638C37.8595 22.8638 36.961 23.0721 36.3621 23.4888C35.7631 23.9054 35.4636 24.3742 35.4636 24.895C35.4636 25.4159 35.724 25.9627 36.2449 26.5356C36.7657 27.0825 37.6641 27.6424 38.9402 28.2153C40.2162 28.7622 41.7006 29.4393 43.3933 30.2466C45.1121 31.0278 46.7136 31.8742 48.198 32.7856C54.8647 36.8742 58.198 42.4601 58.198 49.5435C58.198 56.2622 55.9324 61.4575 51.4011 65.1294C46.8178 68.7752 40.4897 70.6112 32.4167 70.6372ZM123.698 27.0435C122.005 26.3924 120.195 26.0669 118.268 26.0669C114.31 26.0669 110.859 27.5122 107.917 30.4028C105 33.2674 103.542 36.7049 103.542 40.7153C103.542 43.3976 104.063 45.494 105.104 47.0044C106.146 48.5148 107.565 49.27 109.362 49.27C111.159 49.27 113.138 48.8143 115.3 47.9028C117.487 46.9653 120.69 44.9471 124.909 41.8481V67.2778C119.362 69.5174 113.464 70.6372 107.214 70.6372C100.99 70.6372 95.2475 69.4393 89.9871 67.0435C81.6277 63.2153 76.1199 57.2257 73.4636 49.0747C72.5782 46.2882 72.1225 43.2153 72.0964 39.856C72.0964 36.4966 72.5131 33.2804 73.3464 30.2075C74.1798 27.1346 75.3907 24.2961 76.9792 21.6919C80.1563 16.4575 84.6095 12.356 90.3386 9.38721C96.0938 6.41846 102.682 4.9471 110.104 4.97314C115.755 4.97314 120.287 5.61117 123.698 6.88721V27.0435ZM179.393 6.73096L203.729 6.73096V69.1138L179.393 69.1138V46.0669L166.425 47.1997V69.1138H142.128V6.73096L166.425 6.73096V29.27L179.393 28.2153V6.73096ZM221.378 6.73096L266.339 6.73096V24.6997H245.675V29.8169H266.26V45.1294H245.675V51.0278H267.706V69.1138H221.378V6.73096ZM285.003 6.73096C300.81 5.55908 311.122 4.97314 315.94 4.97314C320.784 4.97314 324.599 5.42887 327.385 6.34033C330.198 7.22575 332.711 8.46273 334.925 10.0513C339.221 13.0981 342.464 17.1476 344.651 22.1997C346.865 27.2518 347.971 32.369 347.971 37.5513C347.971 42.7336 347.125 47.2648 345.432 51.145C343.766 54.9992 341.448 58.2544 338.479 60.9106C332.412 66.4054 324.56 69.1398 314.925 69.1138H285.003V6.73096ZM309.3 26.5356V50.3247C310.68 49.1528 312.177 47.994 313.792 46.8481C319.99 42.395 323.089 37.7336 323.089 32.8638C323.089 30.494 322.385 28.3065 320.979 26.3013C319.573 24.27 317.737 23.2544 315.471 23.2544C313.232 23.2544 311.175 24.3481 309.3 26.5356ZM394.096 70.6372C373.393 70.6372 363.042 61.8351 363.042 44.231V6.73096L387.69 6.73096V43.5278C387.69 47.2257 388.927 49.6346 391.401 50.7544C392.26 51.145 393.289 51.3403 394.487 51.3403C397.872 51.3403 400.008 49.7257 400.893 46.4966C401.154 45.533 401.284 44.4914 401.284 43.3716V6.73096L422.885 6.73096V44.231C422.885 61.8351 413.289 70.6372 394.096 70.6372ZM439.909 6.73096L464.206 6.73096V50.3247H485.182V69.1138H439.909V6.73096ZM499.237 6.73096L544.198 6.73096V24.6997H523.534V29.8169H544.12V45.1294H523.534V51.0278H545.565V69.1138H499.237V6.73096Z" fill="#58CDC5"/>
<path d="M32.4167 70.6372L32.4167 72.6372L32.4232 72.6372L32.4167 70.6372ZM9.1355 66.3013H7.1355V67.2972L7.93029 67.8974L9.1355 66.3013ZM9.1355 48.4106L9.62057 46.4704L7.1355 45.8491V48.4106H9.1355ZM10.2683 48.7622L9.65876 50.6671L9.66943 50.6705L9.68014 50.6738L10.2683 48.7622ZM20.2683 51.6138L19.7832 53.5541L19.7946 53.5569L19.8059 53.5596L20.2683 51.6138ZM27.1433 46.2622L28.1926 44.5596L28.1915 44.5589L27.1433 46.2622ZM23.6667 44.3091L22.7293 46.0758L22.7367 46.0797L22.744 46.0835L23.6667 44.3091ZM19.7605 42.0435L20.8235 40.3493L20.8165 40.3449L20.8095 40.3406L19.7605 42.0435ZM11.9089 35.0122L10.2921 36.1895L10.2996 36.1997L11.9089 35.0122ZM23.1199 6.84814L23.7397 8.74967L23.7407 8.74936L23.1199 6.84814ZM52.1042 6.69189L51.6941 8.64939L51.6945 8.64948L52.1042 6.69189ZM54.3308 7.19971H56.3308V5.6911L54.8803 5.27666L54.3308 7.19971ZM54.3308 25.1294L53.9137 27.0854L56.3308 27.6008V25.1294H54.3308ZM36.2449 26.5356L34.765 27.881L34.7806 27.8982L34.7966 27.915L36.2449 26.5356ZM38.9402 28.2153L38.121 30.0399L38.1366 30.0469L38.1523 30.0536L38.9402 28.2153ZM43.3933 30.2466L42.5324 32.0518L42.549 32.0597L42.5657 32.0673L43.3933 30.2466ZM48.198 32.7856L47.1515 34.49L47.1524 34.4906L48.198 32.7856ZM51.4011 65.1294L52.6462 66.6946L52.6533 66.689L52.6603 66.6833L51.4011 65.1294ZM32.4167 68.6372C26.6406 68.6372 21.91 68.2793 18.1931 67.587C14.4441 66.8888 11.8974 65.8806 10.3407 64.7052L7.93029 67.8974C10.2018 69.6125 13.4493 70.7723 17.4607 71.5194C21.5043 72.2725 26.5001 72.6372 32.4167 72.6372V68.6372ZM11.1355 66.3013L11.1355 48.4106H7.1355L7.1355 66.3013H11.1355ZM8.65043 50.3509C8.63673 50.3475 8.69832 50.3644 8.90403 50.4282C9.08465 50.4842 9.33544 50.5636 9.65876 50.6671L10.8779 46.8574C10.2675 46.662 9.8054 46.5166 9.62057 46.4704L8.65043 50.3509ZM9.68014 50.6738C9.82291 50.7177 9.79392 50.7088 9.94198 50.7543C10.025 50.7799 9.99455 50.7705 10.0789 50.7964C10.1214 50.8095 10.1059 50.8048 10.1488 50.818C10.1566 50.8204 10.1586 50.821 10.1664 50.8234C10.1674 50.8237 10.1831 50.8285 10.1841 50.8288C10.195 50.8322 10.191 50.831 10.2019 50.8343C10.2083 50.8363 10.2043 50.8351 10.2108 50.837C10.2123 50.8375 10.2137 50.838 10.2152 50.8384C10.2167 50.8389 10.2182 50.8393 10.2197 50.8398C10.2428 50.8469 10.34 50.8768 10.3645 50.8843C10.4547 50.9121 10.4217 50.9019 10.5133 50.9301C10.6997 50.9875 10.631 50.9663 10.8227 51.0253C10.9203 51.0554 10.8845 51.0443 10.9834 51.0748C11.0333 51.0901 11.015 51.0845 11.0652 51.0999C11.0767 51.1035 11.0744 51.1028 11.0858 51.1063C11.0985 51.1102 11.0938 51.1088 11.1065 51.1126C11.1192 51.1165 11.1146 51.1151 11.1272 51.119C11.1347 51.1213 11.1301 51.1199 11.1376 51.1222C11.1394 51.1228 11.1411 51.1233 11.1428 51.1238C11.1446 51.1244 11.1463 51.1249 11.148 51.1254C11.2203 51.1477 11.4116 51.2065 11.4892 51.2304C11.7051 51.2968 11.6252 51.2722 11.8463 51.3403C11.9584 51.3748 11.9173 51.3621 12.0308 51.397C12.0308 51.397 12.2179 51.4546 12.2192 51.455L13.3955 47.6319C13.1267 47.5492 13.2862 47.5983 13.0226 47.5172C12.9111 47.4828 12.9523 47.4955 12.8421 47.4616C12.7826 47.4433 12.7238 47.4252 12.6656 47.4073C12.6522 47.4032 12.6571 47.4047 12.6438 47.4006C12.6353 47.398 12.6305 47.3965 12.622 47.3939C12.6202 47.3933 12.6184 47.3928 12.6166 47.3922C12.6148 47.3917 12.613 47.3911 12.6112 47.3906C12.5998 47.387 12.6118 47.3907 12.6004 47.3872C12.5992 47.3869 12.58 47.381 12.5788 47.3806C12.4932 47.3542 12.5783 47.3804 12.493 47.3542C12.474 47.3484 12.342 47.3077 12.3244 47.3023C12.1957 47.2627 12.1225 47.2402 11.9991 47.2022C11.7522 47.1263 11.6217 47.0861 11.396 47.0167C11.3407 46.9996 11.3092 46.9899 11.2552 46.9733C11.2243 46.9638 11.2168 46.9615 11.1863 46.9521C11.1335 46.9359 11.1708 46.9474 11.1183 46.9312C11.0977 46.9249 11.1053 46.9272 11.0847 46.9209C11.068 46.9157 11.068 46.9157 11.0514 46.9106C11.05 46.9102 11.0486 46.9098 11.0472 46.9093C11.0458 46.9089 11.0445 46.9085 11.0431 46.9081C11.0417 46.9076 11.0403 46.9072 11.0389 46.9068C11.0376 46.9064 11.0362 46.9059 11.0348 46.9055C11.0201 46.901 11.0329 46.9049 11.0183 46.9004C11 46.8948 11.0037 46.8959 10.9854 46.8903C10.843 46.8465 10.9975 46.8941 10.8565 46.8506L9.68014 50.6738ZM12.2192 51.455C14.6258 52.1955 17.1473 52.8951 19.7832 53.5541L20.7534 49.6735C18.181 49.0304 15.7286 48.3498 13.3955 47.6319L12.2192 51.455ZM19.8059 53.5596C22.4978 54.1992 24.7811 54.5513 26.5964 54.5513V50.5513C25.2347 50.5513 23.2992 50.2783 20.7307 49.668L19.8059 53.5596ZM26.5964 54.5513C28.0368 54.5513 29.4524 54.3433 30.5676 53.663C31.8435 52.8847 32.5027 51.6248 32.5027 50.1685H28.5027C28.5027 50.2877 28.4802 50.2946 28.5035 50.2519C28.5288 50.2055 28.5485 50.2092 28.4846 50.2482C28.2978 50.3621 27.7603 50.5513 26.5964 50.5513V54.5513ZM32.5027 50.1685C32.5027 48.9161 31.9263 47.8386 31.1792 46.9698C30.4337 46.103 29.4049 45.3067 28.1926 44.5596L26.094 47.9648C27.1213 48.598 27.7722 49.1428 28.1465 49.578C28.3284 49.7896 28.4202 49.9468 28.4643 50.0464C28.4857 50.0947 28.495 50.1272 28.499 50.1451C28.5011 50.1541 28.5019 50.1602 28.5023 50.1635C28.5027 50.1668 28.5027 50.1684 28.5027 50.1685H32.5027ZM28.1915 44.5589C27.1269 43.9037 25.9249 43.2291 24.5895 42.5346L22.744 46.0835C24.0127 46.7432 25.1285 47.3707 26.0951 47.9655L28.1915 44.5589ZM24.6042 42.5424C23.3743 41.8898 22.1141 41.1591 20.8235 40.3493L18.6975 43.7376C20.0632 44.5945 21.4071 45.3742 22.7293 46.0758L24.6042 42.5424ZM20.8095 40.3406C17.7406 38.4502 15.3247 36.2729 13.5183 33.8247L10.2996 36.1997C12.4515 39.1161 15.27 41.6263 18.7115 43.7463L20.8095 40.3406ZM13.5257 33.8349C11.8746 31.5674 10.9792 28.6213 10.9792 24.856H6.97925C6.97925 29.2677 8.03702 33.0924 10.2921 36.1895L13.5257 33.8349ZM10.9792 24.856C10.9792 20.7582 12.0527 17.4811 14.0874 14.89C16.1359 12.2813 19.2914 10.1997 23.7397 8.74967L22.5 4.94662C17.5213 6.56953 13.6065 9.0257 10.9414 12.4196C8.26259 15.831 6.97925 20.0214 6.97925 24.856H10.9792ZM23.7407 8.74936C27.3267 7.5784 31.5241 6.97314 36.3621 6.97314V2.97314C31.2 2.97314 26.5693 3.61789 22.4991 4.94693L23.7407 8.74936ZM36.3621 6.97314C41.236 6.97314 46.3455 7.52872 51.6941 8.64939L52.5144 4.7344C46.9255 3.5634 41.5402 2.97314 36.3621 2.97314V6.97314ZM51.6945 8.64948C52.8264 8.88638 53.4977 9.0417 53.7814 9.12275L54.8803 5.27666C54.4348 5.14938 53.6217 4.96616 52.514 4.73431L51.6945 8.64948ZM52.3308 7.19971V25.1294L56.3308 25.1294V7.19971H52.3308ZM54.7479 23.1734C47.6603 21.662 42.387 20.8638 39.0574 20.8638V24.8638C41.9256 24.8638 46.8346 25.5759 53.9137 27.0854L54.7479 23.1734ZM39.0574 20.8638C37.6892 20.8638 36.3073 21.0906 35.2199 21.847L37.5042 25.1306C37.6148 25.0536 38.0297 24.8638 39.0574 24.8638V20.8638ZM35.2199 21.847C34.3161 22.4757 33.4636 23.4798 33.4636 24.895H37.4636C37.4636 24.9596 37.4539 25.0279 37.434 25.0935C37.4145 25.1581 37.39 25.2039 37.3736 25.2296C37.3445 25.2751 37.3571 25.2329 37.5042 25.1306L35.2199 21.847ZM33.4636 24.895C33.4636 26.108 34.0687 27.1151 34.765 27.881L37.7248 25.1903C37.5614 25.0106 37.491 24.8912 37.4647 24.8359C37.4416 24.7875 37.4636 24.8132 37.4636 24.895H33.4636ZM34.7966 27.915C35.5897 28.7477 36.7752 29.4357 38.121 30.0399L39.7594 26.3908C38.553 25.8492 37.9418 25.4174 37.6931 25.1563L34.7966 27.915ZM38.1523 30.0536C39.397 30.587 40.8561 31.2523 42.5324 32.0518L44.2543 28.4414C42.5451 27.6263 41.0354 26.9374 39.728 26.377L38.1523 30.0536ZM42.5657 32.0673C44.2153 32.8172 45.7432 33.6252 47.1515 34.49L49.2445 31.0813C47.6841 30.1231 46.0088 29.2385 44.2209 28.4258L42.5657 32.0673ZM47.1524 34.4906C53.3 38.2608 56.198 43.2382 56.198 49.5435H60.198C60.198 41.682 56.4293 35.4876 49.2436 31.0807L47.1524 34.4906ZM56.198 49.5435C56.198 55.762 54.1301 60.3438 50.142 63.5755L52.6603 66.6833C57.7347 62.5713 60.198 56.7624 60.198 49.5435H56.198ZM50.1561 63.5642C46.0372 66.8406 40.2014 68.6121 32.4103 68.6372L32.4232 72.6372C40.7779 72.6102 47.5984 70.7099 52.6462 66.6946L50.1561 63.5642ZM123.698 27.0435L122.98 28.9101L125.698 29.9555V27.0435H123.698ZM107.917 30.4028L109.318 31.8297L109.318 31.8296L107.917 30.4028ZM115.3 47.9028L116.077 49.7457L116.087 49.7411L115.3 47.9028ZM124.909 41.8481H126.909V37.8974L123.725 40.2363L124.909 41.8481ZM124.909 67.2778L125.658 69.1324L126.909 68.6272V67.2778H124.909ZM89.9871 67.0435L89.1543 68.8619L89.1581 68.8636L89.9871 67.0435ZM73.4636 49.0747L71.5575 49.6804L71.5598 49.6874L71.562 49.6944L73.4636 49.0747ZM72.0964 39.856H70.0964V39.8637L70.0965 39.8715L72.0964 39.856ZM76.9792 21.6919L78.6867 22.7334L78.689 22.7296L76.9792 21.6919ZM90.3386 9.38721L89.4217 7.60975L89.4185 7.61145L90.3386 9.38721ZM110.104 4.97314L110.097 6.97314H110.104V4.97314ZM123.698 6.88721L125.698 6.88721V5.49997L124.399 5.01396L123.698 6.88721ZM124.416 25.1768C122.48 24.4322 120.425 24.0669 118.268 24.0669V28.0669C119.965 28.0669 121.53 28.3526 122.98 28.9101L124.416 25.1768ZM118.268 24.0669C113.762 24.0669 109.814 25.7352 106.515 28.976L109.318 31.8296C111.904 29.2892 114.858 28.0669 118.268 28.0669V24.0669ZM106.515 28.9759C103.224 32.2084 101.542 36.1567 101.542 40.7153H105.542C105.542 37.2532 106.776 34.3265 109.318 31.8297L106.515 28.9759ZM101.542 40.7153C101.542 43.625 102.102 46.174 103.458 48.1399L106.751 45.8689C106.023 44.8139 105.542 43.1702 105.542 40.7153H101.542ZM103.458 48.1399C104.863 50.1779 106.891 51.27 109.362 51.27V47.27C108.239 47.27 107.428 46.8517 106.751 45.8689L103.458 48.1399ZM109.362 51.27C111.494 51.27 113.741 50.7307 116.077 49.7457L114.522 46.06C112.535 46.8979 110.824 47.27 109.362 47.27V51.27ZM116.087 49.7411C118.501 48.7066 121.862 46.5682 126.093 43.46L123.725 40.2363C119.519 43.326 116.473 45.2241 114.512 46.0645L116.087 49.7411ZM122.909 41.8481V67.2778H126.909V41.8481H122.909ZM124.16 65.4233C118.862 67.5625 113.219 68.6372 107.214 68.6372V72.6372C113.709 72.6372 119.862 71.4723 125.658 69.1324L124.16 65.4233ZM107.214 68.6372C101.253 68.6372 95.7966 67.4917 90.816 65.2233L89.1581 68.8636C94.6983 71.3869 100.726 72.6372 107.214 72.6372V68.6372ZM90.8198 65.2251C82.9272 61.6107 77.8347 56.033 75.3652 48.455L71.562 49.6944C74.405 58.4185 80.3281 64.8199 89.1543 68.8619L90.8198 65.2251ZM75.3697 48.469C74.5532 45.8995 74.1211 43.0288 74.0964 39.8405L70.0965 39.8715C70.1239 43.4019 70.6032 46.677 71.5575 49.6804L75.3697 48.469ZM74.0964 39.856C74.0964 36.6636 74.4921 33.6241 75.2767 30.731L71.4162 29.6841C70.5341 32.9368 70.0964 36.3295 70.0964 39.856H74.0964ZM75.2767 30.731C76.0628 27.8324 77.2007 25.1694 78.6867 22.7334L75.2718 20.6504C73.5807 23.4228 72.2968 26.4368 71.4162 29.6841L75.2767 30.731ZM78.689 22.7296C81.6651 17.8262 85.8372 13.9723 91.2588 11.163L89.4185 7.61145C83.3817 10.7396 78.6475 15.0888 75.2695 20.6542L78.689 22.7296ZM91.2555 11.1647C96.6859 8.36348 102.949 6.94805 110.097 6.97313L110.111 2.97316C102.415 2.94615 95.5018 4.47344 89.4217 7.60975L91.2555 11.1647ZM110.104 6.97314C115.633 6.97314 119.898 7.60132 122.997 8.76045L124.399 5.01396C120.675 3.62101 115.877 2.97314 110.104 2.97314V6.97314ZM121.698 6.88721V27.0435H125.698V6.88721L121.698 6.88721ZM179.393 6.73096V4.73096H177.393V6.73096H179.393ZM203.729 6.73096L205.729 6.73096V4.73096L203.729 4.73096V6.73096ZM203.729 69.1138V71.1138H205.729V69.1138H203.729ZM179.393 69.1138H177.393V71.1138H179.393V69.1138ZM179.393 46.0669H181.393V43.8846L179.219 44.0745L179.393 46.0669ZM166.425 47.1997L166.251 45.2073L164.425 45.3668V47.1997H166.425ZM166.425 69.1138V71.1138H168.425V69.1138H166.425ZM142.128 69.1138H140.128V71.1138H142.128V69.1138ZM142.128 6.73096V4.73096L140.128 4.73096V6.73096L142.128 6.73096ZM166.425 6.73096H168.425V4.73096H166.425V6.73096ZM166.425 29.27L164.425 29.27V31.4393L166.587 31.2634L166.425 29.27ZM179.393 28.2153L179.555 30.2088L181.393 30.0593V28.2153H179.393ZM179.393 8.73096H203.729V4.73096L179.393 4.73096V8.73096ZM201.729 6.73096V69.1138H205.729V6.73096L201.729 6.73096ZM203.729 67.1138L179.393 67.1138V71.1138L203.729 71.1138V67.1138ZM181.393 69.1138V46.0669H177.393V69.1138H181.393ZM179.219 44.0745L166.251 45.2073L166.599 49.1921L179.567 48.0593L179.219 44.0745ZM164.425 47.1997V69.1138H168.425V47.1997H164.425ZM166.425 67.1138H142.128V71.1138H166.425V67.1138ZM144.128 69.1138V6.73096L140.128 6.73096V69.1138H144.128ZM142.128 8.73096L166.425 8.73096V4.73096L142.128 4.73096V8.73096ZM164.425 6.73096V29.27L168.425 29.27V6.73096H164.425ZM166.587 31.2634L179.555 30.2088L179.231 26.2219L166.262 27.2766L166.587 31.2634ZM181.393 28.2153V6.73096H177.393V28.2153H181.393ZM221.378 6.73096V4.73096L219.378 4.73096V6.73096L221.378 6.73096ZM266.339 6.73096H268.339V4.73096H266.339V6.73096ZM266.339 24.6997V26.6997H268.339V24.6997H266.339ZM245.675 24.6997V22.6997H243.675V24.6997H245.675ZM245.675 29.8169H243.675V31.8169H245.675V29.8169ZM266.26 29.8169H268.26V27.8169H266.26V29.8169ZM266.26 45.1294V47.1294H268.26V45.1294H266.26ZM245.675 45.1294V43.1294H243.675V45.1294H245.675ZM245.675 51.0278H243.675V53.0278H245.675V51.0278ZM267.706 51.0278H269.706V49.0278H267.706V51.0278ZM267.706 69.1138V71.1138H269.706V69.1138H267.706ZM221.378 69.1138H219.378V71.1138H221.378V69.1138ZM221.378 8.73096L266.339 8.73096V4.73096L221.378 4.73096V8.73096ZM264.339 6.73096V24.6997H268.339V6.73096H264.339ZM266.339 22.6997H245.675V26.6997H266.339V22.6997ZM243.675 24.6997V29.8169H247.675V24.6997H243.675ZM245.675 31.8169H266.26V27.8169H245.675V31.8169ZM264.26 29.8169V45.1294H268.26V29.8169H264.26ZM266.26 43.1294H245.675V47.1294H266.26V43.1294ZM243.675 45.1294V51.0278H247.675V45.1294H243.675ZM245.675 53.0278H267.706V49.0278H245.675V53.0278ZM265.706 51.0278V69.1138H269.706V51.0278H265.706ZM267.706 67.1138H221.378V71.1138H267.706V67.1138ZM223.378 69.1138V6.73096L219.378 6.73096V69.1138H223.378ZM285.003 6.73096L284.855 4.73643L283.003 4.87374V6.73096H285.003ZM327.385 6.34033L326.764 8.24122L326.774 8.24469L326.785 8.24803L327.385 6.34033ZM334.925 10.0513L333.758 11.6762L333.768 11.6827L334.925 10.0513ZM344.651 22.1997L342.816 22.9944L342.819 23.0023L344.651 22.1997ZM345.432 51.145L343.599 50.3453L343.597 50.3512L345.432 51.145ZM338.479 60.9106L337.146 59.4201L337.137 59.4282L338.479 60.9106ZM314.925 69.1138L314.93 67.1138H314.925V69.1138ZM285.003 69.1138H283.003V71.1138H285.003V69.1138ZM309.3 26.5356L307.781 25.2341L307.3 25.7958V26.5356L309.3 26.5356ZM309.3 50.3247H307.3V54.6465L310.594 51.8493L309.3 50.3247ZM313.792 46.8481L314.949 48.4792L314.959 48.4724L313.792 46.8481ZM320.979 26.3013L319.335 27.4397L319.342 27.4496L320.979 26.3013ZM285.151 8.72548C300.975 7.55232 311.21 6.97314 315.94 6.97314V2.97314C311.034 2.97314 300.645 3.56585 284.855 4.73643L285.151 8.72548ZM315.94 6.97314C320.691 6.97314 324.266 7.42426 326.764 8.24122L328.007 4.43944C324.932 3.43349 320.876 2.97314 315.94 2.97314V6.97314ZM326.785 8.24803C329.412 9.07498 331.731 10.221 333.758 11.6761L336.091 8.42639C333.691 6.70443 330.984 5.37651 327.986 4.43263L326.785 8.24803ZM333.768 11.6827C337.752 14.5082 340.767 18.2622 342.816 22.9944L346.486 21.405C344.16 16.0331 340.691 11.6881 336.081 8.4198L333.768 11.6827ZM342.819 23.0023C344.929 27.8179 345.971 32.6628 345.971 37.5513H349.971C349.971 32.0752 348.8 26.6857 346.483 21.3971L342.819 23.0023ZM345.971 37.5513C345.971 42.5185 345.16 46.7672 343.599 50.3453L347.266 51.9447C349.09 47.7624 349.971 42.9486 349.971 37.5513H345.971ZM343.597 50.3512C342.039 53.9542 339.887 56.9674 337.146 59.4202L339.813 62.4011C343.009 59.5414 345.493 56.0441 347.268 51.9388L343.597 50.3512ZM337.137 59.4282C331.502 64.5307 324.161 67.1387 314.93 67.1138L314.919 71.1138C324.959 71.1409 333.321 68.2802 339.822 62.3931L337.137 59.4282ZM314.925 67.1138H285.003V71.1138H314.925V67.1138ZM287.003 69.1138V6.73096L283.003 6.73096V69.1138H287.003ZM307.3 26.5356V50.3247H311.3V26.5356L307.3 26.5356ZM310.594 51.8493C311.926 50.7181 313.378 49.5946 314.949 48.4792L312.634 45.2171C310.977 46.3934 309.433 47.5875 308.005 48.8001L310.594 51.8493ZM314.959 48.4724C321.375 43.8621 325.089 38.6778 325.089 32.8638H321.089C321.089 36.7894 318.604 40.928 312.625 45.2239L314.959 48.4724ZM325.089 32.8638C325.089 30.0686 324.25 27.4826 322.617 25.1529L319.342 27.4496C320.521 29.1304 321.089 30.9193 321.089 32.8638H325.089ZM322.624 25.1628C320.883 22.6493 318.46 21.2544 315.471 21.2544V25.2544C317.014 25.2544 318.263 25.8907 319.335 27.4397L322.624 25.1628ZM315.471 21.2544C312.49 21.2544 309.919 22.7395 307.781 25.2341L310.818 27.8372C312.43 25.9568 313.974 25.2544 315.471 25.2544V21.2544ZM363.042 6.73096V4.73096H361.042V6.73096H363.042ZM387.69 6.73096H389.69V4.73096H387.69V6.73096ZM391.401 50.7544L392.229 48.9337L392.226 48.9324L391.401 50.7544ZM400.893 46.4966L402.822 47.0255L402.824 47.0184L400.893 46.4966ZM401.284 6.73096V4.73096H399.284V6.73096H401.284ZM422.885 6.73096H424.885V4.73096H422.885V6.73096ZM394.096 68.6372C383.981 68.6372 376.768 66.48 372.101 62.512C367.497 58.5968 365.042 52.6322 365.042 44.231H361.042C361.042 53.4338 363.763 60.6724 369.51 65.5593C375.195 70.3933 383.509 72.6372 394.096 72.6372V68.6372ZM365.042 44.231V6.73096H361.042V44.231H365.042ZM363.042 8.73096L387.69 8.73096V4.73096L363.042 4.73096V8.73096ZM385.69 6.73096V43.5278H389.69V6.73096H385.69ZM385.69 43.5278C385.69 47.6754 387.124 51.0139 390.576 52.5764L392.226 48.9324C390.73 48.2553 389.69 46.7761 389.69 43.5278H385.69ZM390.574 52.5751C391.753 53.1112 393.078 53.3403 394.487 53.3403V49.3403C393.5 49.3403 392.768 49.1789 392.229 48.9337L390.574 52.5751ZM394.487 53.3403C396.499 53.3403 398.336 52.8572 399.834 51.7247C401.334 50.5906 402.293 48.9569 402.822 47.0254L398.965 45.9677C398.609 47.2654 398.057 48.0536 397.421 48.5341C396.784 49.0162 395.861 49.3403 394.487 49.3403V53.3403ZM402.824 47.0184C403.136 45.8655 403.284 44.6465 403.284 43.3716H399.284C399.284 44.3362 399.172 45.2006 398.963 45.9748L402.824 47.0184ZM403.284 43.3716V6.73096H399.284V43.3716H403.284ZM401.284 8.73096L422.885 8.73096V4.73096L401.284 4.73096V8.73096ZM420.885 6.73096V44.231H424.885V6.73096H420.885ZM420.885 44.231C420.885 52.6782 418.591 58.6591 414.336 62.5618C410.049 66.4944 403.425 68.6372 394.096 68.6372V72.6372C403.96 72.6372 411.731 70.379 417.04 65.5095C422.382 60.6101 424.885 53.3879 424.885 44.231H420.885ZM439.909 6.73096V4.73096H437.909V6.73096H439.909ZM464.206 6.73096H466.206V4.73096H464.206V6.73096ZM464.206 50.3247H462.206V52.3247H464.206V50.3247ZM485.182 50.3247H487.182V48.3247H485.182V50.3247ZM485.182 69.1138V71.1138H487.182V69.1138H485.182ZM439.909 69.1138H437.909V71.1138H439.909V69.1138ZM439.909 8.73096H464.206V4.73096L439.909 4.73096V8.73096ZM462.206 6.73096V50.3247H466.206V6.73096H462.206ZM464.206 52.3247H485.182V48.3247H464.206V52.3247ZM483.182 50.3247V69.1138H487.182V50.3247H483.182ZM485.182 67.1138H439.909V71.1138H485.182V67.1138ZM441.909 69.1138V6.73096H437.909V69.1138H441.909ZM499.237 6.73096V4.73096H497.237V6.73096H499.237ZM544.198 6.73096H546.198V4.73096H544.198V6.73096ZM544.198 24.6997V26.6997H546.198V24.6997H544.198ZM523.534 24.6997V22.6997H521.534V24.6997H523.534ZM523.534 29.8169H521.534V31.8169H523.534V29.8169ZM544.12 29.8169H546.12V27.8169H544.12V29.8169ZM544.12 45.1294V47.1294H546.12V45.1294H544.12ZM523.534 45.1294V43.1294H521.534V45.1294H523.534ZM523.534 51.0278H521.534V53.0278H523.534V51.0278ZM545.565 51.0278H547.565V49.0278H545.565V51.0278ZM545.565 69.1138V71.1138H547.565V69.1138H545.565ZM499.237 69.1138H497.237V71.1138H499.237V69.1138ZM499.237 8.73096L544.198 8.73096V4.73096L499.237 4.73096V8.73096ZM542.198 6.73096V24.6997H546.198V6.73096H542.198ZM544.198 22.6997H523.534V26.6997H544.198V22.6997ZM521.534 24.6997V29.8169H525.534V24.6997H521.534ZM523.534 31.8169H544.12V27.8169H523.534V31.8169ZM542.12 29.8169V45.1294H546.12V29.8169H542.12ZM544.12 43.1294H523.534V47.1294H544.12V43.1294ZM521.534 45.1294V51.0278H525.534V45.1294H521.534ZM523.534 53.0278H545.565V49.0278H523.534V53.0278ZM543.565 51.0278V69.1138H547.565V51.0278H543.565ZM545.565 67.1138H499.237V71.1138H545.565V67.1138ZM501.237 69.1138V6.73096H497.237V69.1138H501.237Z" fill="black" mask="url(#path-3-outside-2_1_6)"/>
<mask id="path-5-outside-3_1_6" maskUnits="userSpaceOnUse" x="1" y="8.22754" width="542" height="71" fill="black">
<rect fill="white" x="1" y="8.22754" width="542" height="71"/>
<path d="M27.1875 76.751C15.4948 76.751 7.73438 75.3057 3.90625 72.415L3.90625 54.5244C4.01042 54.5505 4.38802 54.6676 5.03906 54.876C5.71615 55.0843 6.5625 55.3447 7.57813 55.6572C9.94792 56.3864 12.4349 57.0765 15.0391 57.7275C17.6693 58.3525 19.7786 58.665 21.3672 58.665C23.9714 58.665 25.2734 57.8708 25.2734 56.2822C25.2734 55.0583 24.1536 53.7562 21.9141 52.376C20.8984 51.751 19.7396 51.0999 18.4375 50.4229C17.1615 49.7458 15.8594 48.9906 14.5313 48.1572C11.276 46.152 8.65885 43.8083 6.67969 41.126C4.72656 38.4437 3.75 35.0583 3.75 30.9697C3.75 22.0374 8.46354 16.0348 17.8906 12.9619C21.7188 11.7119 26.1328 11.0869 31.1328 11.0869C36.1589 11.0869 41.4062 11.6598 46.875 12.8057C47.9948 13.04 48.737 13.2093 49.1016 13.3135V31.2432C42.0182 29.7327 36.9271 28.9775 33.8281 28.9775C32.6302 28.9775 31.7318 29.1859 31.1328 29.6025C30.5339 30.0192 30.2344 30.488 30.2344 31.0088C30.2344 31.5296 30.4948 32.0765 31.0156 32.6494C31.5365 33.1963 32.4349 33.7562 33.7109 34.3291C34.987 34.876 36.4714 35.5531 38.1641 36.3604C39.8828 37.1416 41.4844 37.988 42.9688 38.8994C49.6354 42.988 52.9688 48.5739 52.9688 55.6572C52.9688 62.376 50.7031 67.5713 46.1719 71.2432C41.5885 74.889 35.2604 76.7249 27.1875 76.751ZM118.469 33.1572C116.776 32.5062 114.966 32.1807 113.039 32.1807C109.081 32.1807 105.63 33.626 102.688 36.5166C99.7708 39.3812 98.3125 42.8187 98.3125 46.8291C98.3125 49.5114 98.8333 51.6077 99.875 53.1182C100.917 54.6286 102.336 55.3838 104.133 55.3838C105.93 55.3838 107.909 54.9281 110.07 54.0166C112.258 53.0791 115.461 51.0609 119.68 47.9619V73.3916C114.133 75.6312 108.234 76.751 101.984 76.751C95.7604 76.751 90.0182 75.5531 84.7578 73.1572C76.3984 69.3291 70.8906 63.3395 68.2344 55.1885C67.349 52.402 66.8932 49.3291 66.8672 45.9697C66.8672 42.6104 67.2839 39.3942 68.1172 36.3213C68.9505 33.2484 70.1615 30.4098 71.75 27.8057C74.9271 22.5713 79.3802 18.4697 85.1094 15.501C90.8646 12.5322 97.4531 11.0609 104.875 11.0869C110.526 11.0869 115.057 11.7249 118.469 13.001V33.1572ZM174.164 12.8447H198.5V75.2275L174.164 75.2275V52.1807L161.195 53.3135V75.2275H136.898V12.8447L161.195 12.8447V35.3838L174.164 34.3291V12.8447ZM216.148 12.8447L261.109 12.8447V30.8135H240.445V35.9307H261.031V51.2432H240.445V57.1416H262.477V75.2275H216.148V12.8447ZM279.773 12.8447C295.581 11.6729 305.893 11.0869 310.711 11.0869C315.555 11.0869 319.37 11.5426 322.156 12.4541C324.969 13.3395 327.482 14.5765 329.695 16.165C333.992 19.2119 337.234 23.2614 339.422 28.3135C341.635 33.3656 342.742 38.4827 342.742 43.665C342.742 48.8473 341.896 53.3786 340.203 57.2588C338.536 61.113 336.219 64.3682 333.25 67.0244C327.182 72.5192 319.331 75.2536 309.695 75.2275H279.773V12.8447ZM304.07 32.6494V56.4385C305.451 55.2666 306.948 54.1077 308.562 52.9619C314.76 48.5088 317.859 43.8473 317.859 38.9775C317.859 36.6077 317.156 34.4202 315.75 32.415C314.344 30.3838 312.508 29.3682 310.242 29.3682C308.003 29.3682 305.945 30.4619 304.07 32.6494ZM388.867 76.751C368.164 76.751 357.812 67.9489 357.812 50.3447V12.8447L382.461 12.8447V49.6416C382.461 53.3395 383.698 55.7484 386.172 56.8682C387.031 57.2588 388.06 57.4541 389.258 57.4541C392.643 57.4541 394.779 55.8395 395.664 52.6104C395.924 51.6468 396.055 50.6051 396.055 49.4854V12.8447L417.656 12.8447V50.3447C417.656 67.9489 408.06 76.751 388.867 76.751ZM434.68 12.8447H458.977V56.4385H479.953V75.2275H434.68V12.8447ZM494.008 12.8447L538.969 12.8447V30.8135H518.305V35.9307H538.891V51.2432H518.305V57.1416H540.336V75.2275H494.008V12.8447Z"/>
</mask>
<path d="M27.1875 76.751C15.4948 76.751 7.73438 75.3057 3.90625 72.415L3.90625 54.5244C4.01042 54.5505 4.38802 54.6676 5.03906 54.876C5.71615 55.0843 6.5625 55.3447 7.57813 55.6572C9.94792 56.3864 12.4349 57.0765 15.0391 57.7275C17.6693 58.3525 19.7786 58.665 21.3672 58.665C23.9714 58.665 25.2734 57.8708 25.2734 56.2822C25.2734 55.0583 24.1536 53.7562 21.9141 52.376C20.8984 51.751 19.7396 51.0999 18.4375 50.4229C17.1615 49.7458 15.8594 48.9906 14.5313 48.1572C11.276 46.152 8.65885 43.8083 6.67969 41.126C4.72656 38.4437 3.75 35.0583 3.75 30.9697C3.75 22.0374 8.46354 16.0348 17.8906 12.9619C21.7188 11.7119 26.1328 11.0869 31.1328 11.0869C36.1589 11.0869 41.4062 11.6598 46.875 12.8057C47.9948 13.04 48.737 13.2093 49.1016 13.3135V31.2432C42.0182 29.7327 36.9271 28.9775 33.8281 28.9775C32.6302 28.9775 31.7318 29.1859 31.1328 29.6025C30.5339 30.0192 30.2344 30.488 30.2344 31.0088C30.2344 31.5296 30.4948 32.0765 31.0156 32.6494C31.5365 33.1963 32.4349 33.7562 33.7109 34.3291C34.987 34.876 36.4714 35.5531 38.1641 36.3604C39.8828 37.1416 41.4844 37.988 42.9688 38.8994C49.6354 42.988 52.9688 48.5739 52.9688 55.6572C52.9688 62.376 50.7031 67.5713 46.1719 71.2432C41.5885 74.889 35.2604 76.7249 27.1875 76.751ZM118.469 33.1572C116.776 32.5062 114.966 32.1807 113.039 32.1807C109.081 32.1807 105.63 33.626 102.688 36.5166C99.7708 39.3812 98.3125 42.8187 98.3125 46.8291C98.3125 49.5114 98.8333 51.6077 99.875 53.1182C100.917 54.6286 102.336 55.3838 104.133 55.3838C105.93 55.3838 107.909 54.9281 110.07 54.0166C112.258 53.0791 115.461 51.0609 119.68 47.9619V73.3916C114.133 75.6312 108.234 76.751 101.984 76.751C95.7604 76.751 90.0182 75.5531 84.7578 73.1572C76.3984 69.3291 70.8906 63.3395 68.2344 55.1885C67.349 52.402 66.8932 49.3291 66.8672 45.9697C66.8672 42.6104 67.2839 39.3942 68.1172 36.3213C68.9505 33.2484 70.1615 30.4098 71.75 27.8057C74.9271 22.5713 79.3802 18.4697 85.1094 15.501C90.8646 12.5322 97.4531 11.0609 104.875 11.0869C110.526 11.0869 115.057 11.7249 118.469 13.001V33.1572ZM174.164 12.8447H198.5V75.2275L174.164 75.2275V52.1807L161.195 53.3135V75.2275H136.898V12.8447L161.195 12.8447V35.3838L174.164 34.3291V12.8447ZM216.148 12.8447L261.109 12.8447V30.8135H240.445V35.9307H261.031V51.2432H240.445V57.1416H262.477V75.2275H216.148V12.8447ZM279.773 12.8447C295.581 11.6729 305.893 11.0869 310.711 11.0869C315.555 11.0869 319.37 11.5426 322.156 12.4541C324.969 13.3395 327.482 14.5765 329.695 16.165C333.992 19.2119 337.234 23.2614 339.422 28.3135C341.635 33.3656 342.742 38.4827 342.742 43.665C342.742 48.8473 341.896 53.3786 340.203 57.2588C338.536 61.113 336.219 64.3682 333.25 67.0244C327.182 72.5192 319.331 75.2536 309.695 75.2275H279.773V12.8447ZM304.07 32.6494V56.4385C305.451 55.2666 306.948 54.1077 308.562 52.9619C314.76 48.5088 317.859 43.8473 317.859 38.9775C317.859 36.6077 317.156 34.4202 315.75 32.415C314.344 30.3838 312.508 29.3682 310.242 29.3682C308.003 29.3682 305.945 30.4619 304.07 32.6494ZM388.867 76.751C368.164 76.751 357.812 67.9489 357.812 50.3447V12.8447L382.461 12.8447V49.6416C382.461 53.3395 383.698 55.7484 386.172 56.8682C387.031 57.2588 388.06 57.4541 389.258 57.4541C392.643 57.4541 394.779 55.8395 395.664 52.6104C395.924 51.6468 396.055 50.6051 396.055 49.4854V12.8447L417.656 12.8447V50.3447C417.656 67.9489 408.06 76.751 388.867 76.751ZM434.68 12.8447H458.977V56.4385H479.953V75.2275H434.68V12.8447ZM494.008 12.8447L538.969 12.8447V30.8135H518.305V35.9307H538.891V51.2432H518.305V57.1416H540.336V75.2275H494.008V12.8447Z" fill="#C14500"/>
<path d="M27.1875 76.751L27.1875 78.751L27.194 78.751L27.1875 76.751ZM3.90625 72.415H1.90625V73.411L2.70104 74.0111L3.90625 72.415ZM3.90625 54.5244L4.39132 52.5841L1.90625 51.9629V54.5244H3.90625ZM5.03906 54.876L4.42951 56.7808L4.44018 56.7842L4.45089 56.7875L5.03906 54.876ZM15.0391 57.7275L14.554 59.6678L14.5653 59.6707L14.5767 59.6734L15.0391 57.7275ZM21.9141 52.376L22.9634 50.6733L22.9623 50.6727L21.9141 52.376ZM18.4375 50.4229L17.5001 52.1895L17.5074 52.1934L17.5148 52.1973L18.4375 50.4229ZM14.5313 48.1572L15.5942 46.4631L15.5872 46.4587L15.5802 46.4544L14.5313 48.1572ZM6.67969 41.126L5.06286 42.3033L5.07036 42.3134L6.67969 41.126ZM17.8906 12.9619L18.5105 14.8634L18.5114 14.8631L17.8906 12.9619ZM46.875 12.8057L46.4649 14.7632L46.4653 14.7632L46.875 12.8057ZM49.1016 13.3135H51.1016V11.8049L49.651 11.3904L49.1016 13.3135ZM49.1016 31.2432L48.6845 33.1992L51.1016 33.7146V31.2432H49.1016ZM31.0156 32.6494L29.5357 33.9948L29.5514 34.0119L29.5673 34.0287L31.0156 32.6494ZM33.7109 34.3291L32.8918 36.1536L32.9074 36.1607L32.9231 36.1674L33.7109 34.3291ZM38.1641 36.3604L37.3031 38.1656L37.3197 38.1735L37.3365 38.1811L38.1641 36.3604ZM42.9688 38.8994L41.9222 40.6038L41.9232 40.6043L42.9688 38.8994ZM46.1719 71.2432L47.4169 72.8084L47.424 72.8027L47.431 72.797L46.1719 71.2432ZM27.1875 74.751C21.4114 74.751 16.6807 74.393 12.9638 73.7008C9.21481 73.0026 6.66812 71.9944 5.11146 70.819L2.70104 74.0111C4.9725 75.7263 8.22009 76.8861 12.2315 77.6332C16.275 78.3863 21.2709 78.751 27.1875 78.751V74.751ZM5.90625 72.415L5.90625 54.5244H1.90625L1.90625 72.415H5.90625ZM3.42118 56.4647C3.40748 56.4613 3.46907 56.4781 3.67478 56.542C3.8554 56.598 4.10619 56.6774 4.42951 56.7808L5.64861 52.9711C5.0382 52.7758 4.57615 52.6303 4.39132 52.5841L3.42118 56.4647ZM4.45089 56.7875C4.59366 56.8315 4.56467 56.8225 4.71273 56.8681C4.79571 56.8936 4.76531 56.8843 4.8496 56.9102C4.89217 56.9233 4.87663 56.9185 4.91953 56.9317C4.92735 56.9341 4.92932 56.9347 4.93716 56.9372C4.93813 56.9375 4.95388 56.9423 4.95486 56.9426C4.9657 56.9459 4.96176 56.9447 4.97262 56.9481C4.97905 56.95 4.97509 56.9488 4.98152 56.9508C4.98301 56.9513 4.98449 56.9517 4.98598 56.9522C4.98747 56.9526 4.98895 56.9531 4.99044 56.9536C5.01358 56.9607 5.11078 56.9906 5.13525 56.9981C5.2255 57.0259 5.19245 57.0157 5.28402 57.0439C5.47043 57.1012 5.40177 57.0801 5.59347 57.1391C5.69107 57.1691 5.65522 57.1581 5.75414 57.1885C5.804 57.2039 5.78578 57.1983 5.83597 57.2137C5.8474 57.2172 5.84513 57.2165 5.85658 57.2201C5.86921 57.2239 5.8646 57.2225 5.87725 57.2264C5.88992 57.2303 5.88531 57.2289 5.89799 57.2328C5.90549 57.2351 5.90087 57.2337 5.90838 57.236C5.91011 57.2365 5.91185 57.2371 5.91358 57.2376C5.91532 57.2381 5.91705 57.2387 5.91879 57.2392C5.99108 57.2614 6.18239 57.3203 6.25997 57.3442C6.47581 57.4106 6.3959 57.386 6.61703 57.454C6.72918 57.4885 6.68803 57.4759 6.80151 57.5108C6.80151 57.5108 6.98863 57.5684 6.98995 57.5688L8.1663 53.7457C7.8974 53.6629 8.05698 53.712 7.79337 53.6309C7.68185 53.5966 7.72306 53.6093 7.61286 53.5754C7.55335 53.5571 7.4945 53.539 7.43632 53.5211C7.42298 53.517 7.42784 53.5185 7.41453 53.5144C7.40607 53.5118 7.40124 53.5103 7.3928 53.5077C7.39099 53.5071 7.38918 53.5066 7.38738 53.506C7.38557 53.5054 7.38377 53.5049 7.38196 53.5043C7.37054 53.5008 7.38255 53.5045 7.37113 53.501C7.36993 53.5006 7.35071 53.4947 7.34953 53.4944C7.2639 53.468 7.34904 53.4942 7.26374 53.468C7.24478 53.4621 7.11276 53.4215 7.09513 53.4161C6.96641 53.3765 6.89324 53.354 6.76981 53.316C6.52296 53.24 6.39248 53.1999 6.16678 53.1304C6.11146 53.1134 6.07995 53.1037 6.02595 53.0871C5.99509 53.0776 5.98754 53.0753 5.95701 53.0659C5.90423 53.0496 5.94153 53.0611 5.88908 53.045C5.86847 53.0386 5.876 53.041 5.85548 53.0346C5.83878 53.0295 5.83874 53.0295 5.82213 53.0244C5.82074 53.024 5.81936 53.0235 5.81798 53.0231C5.81659 53.0227 5.81521 53.0223 5.81383 53.0218C5.81245 53.0214 5.81107 53.021 5.80968 53.0206C5.8083 53.0201 5.80692 53.0197 5.80555 53.0193C5.79087 53.0148 5.80368 53.0187 5.78903 53.0142C5.7707 53.0086 5.77441 53.0097 5.75617 53.0041C5.61379 52.9603 5.76829 53.0078 5.62723 52.9644L4.45089 56.7875ZM6.98995 57.5688C9.3965 58.3093 11.918 59.0088 14.554 59.6678L15.5241 55.7873C12.9518 55.1442 10.4993 54.4635 8.1663 53.7457L6.98995 57.5688ZM14.5767 59.6734C17.2686 60.313 19.5519 60.665 21.3672 60.665V56.665C20.0054 56.665 18.07 56.3921 15.5014 55.7817L14.5767 59.6734ZM21.3672 60.665C22.8075 60.665 24.2231 60.4571 25.3384 59.7767C26.6142 58.9985 27.2734 57.7385 27.2734 56.2822H23.2734C23.2734 56.4014 23.2509 56.4083 23.2742 56.3657C23.2996 56.3193 23.3193 56.323 23.2554 56.3619C23.0685 56.4759 22.531 56.665 21.3672 56.665V60.665ZM27.2734 56.2822C27.2734 55.0299 26.6971 53.9524 25.95 53.0836C25.2045 52.2167 24.1756 51.4204 22.9634 50.6733L20.8648 54.0786C21.8921 54.7117 22.5429 55.2566 22.9172 55.6918C23.0992 55.9034 23.1909 56.0605 23.2351 56.1601C23.2565 56.2085 23.2658 56.241 23.2698 56.2588C23.2718 56.2679 23.2727 56.2739 23.2731 56.2773C23.2734 56.2806 23.2734 56.2821 23.2734 56.2822H27.2734ZM22.9623 50.6727C21.8976 50.0175 20.6957 49.3429 19.3602 48.6484L17.5148 52.1973C18.7835 52.857 19.8992 53.4844 20.8659 54.0793L22.9623 50.6727ZM19.3749 48.6562C18.145 48.0036 16.8848 47.2729 15.5942 46.4631L13.4683 49.8514C14.8339 50.7082 16.1779 51.488 17.5001 52.1895L19.3749 48.6562ZM15.5802 46.4544C12.5113 44.5639 10.0954 42.3867 8.28901 39.9385L5.07036 42.3134C7.22226 45.2298 10.0408 47.7401 13.4823 49.8601L15.5802 46.4544ZM8.29648 39.9487C6.64536 37.6812 5.75 34.735 5.75 30.9697H1.75C1.75 35.3815 2.80777 39.2062 5.06289 42.3033L8.29648 39.9487ZM5.75 30.9697C5.75 26.872 6.82343 23.5949 8.85815 21.0037C10.9066 18.395 14.0621 16.3134 18.5105 14.8634L17.2708 11.0604C12.292 12.6833 8.37722 15.1395 5.71216 18.5334C3.03334 21.9448 1.75 26.1352 1.75 30.9697H5.75ZM18.5114 14.8631C22.0975 13.6922 26.2949 13.0869 31.1328 13.0869V9.08691C25.9708 9.08691 21.34 9.73166 17.2698 11.0607L18.5114 14.8631ZM31.1328 13.0869C36.0067 13.0869 41.1162 13.6425 46.4649 14.7632L47.2851 10.8482C41.6963 9.67717 36.311 9.08691 31.1328 9.08691V13.0869ZM46.4653 14.7632C47.5972 15.0002 48.2684 15.1555 48.5521 15.2365L49.651 11.3904C49.2055 11.2632 48.3924 11.0799 47.2847 10.8481L46.4653 14.7632ZM47.1016 13.3135V31.2432L51.1016 31.2432V13.3135H47.1016ZM49.5187 29.2871C42.4311 27.7758 37.1578 26.9775 33.8281 26.9775V30.9775C36.6964 30.9775 41.6054 31.6897 48.6845 33.1992L49.5187 29.2871ZM33.8281 26.9775C32.4599 26.9775 31.078 27.2043 29.9907 27.9607L32.2749 31.2443C32.3855 31.1674 32.8005 30.9775 33.8281 30.9775V26.9775ZM29.9907 27.9607C29.0869 28.5895 28.2344 29.5935 28.2344 31.0088H32.2344C32.2344 31.0734 32.2246 31.1417 32.2048 31.2072C32.1852 31.2719 32.1608 31.3177 32.1444 31.3434C32.1153 31.3889 32.1279 31.3467 32.2749 31.2443L29.9907 27.9607ZM28.2344 31.0088C28.2344 32.2218 28.8395 33.2289 29.5357 33.9948L32.4955 31.3041C32.3322 31.1244 32.2617 31.005 32.2354 30.9497C32.2123 30.9013 32.2344 30.9269 32.2344 31.0088H28.2344ZM29.5673 34.0287C30.3604 34.8614 31.546 35.5494 32.8918 36.1536L34.5301 32.5046C33.3238 31.9629 32.7125 31.5311 32.4639 31.2701L29.5673 34.0287ZM32.9231 36.1674C34.1678 36.7008 35.6268 37.3661 37.3031 38.1656L39.025 34.5551C37.3159 33.74 35.8062 33.0511 34.4988 32.4908L32.9231 36.1674ZM37.3365 38.1811C38.9861 38.9309 40.5139 39.739 41.9222 40.6038L44.0153 37.1951C42.4548 36.2369 40.7795 35.3523 38.9917 34.5396L37.3365 38.1811ZM41.9232 40.6043C48.0707 44.3745 50.9688 49.352 50.9688 55.6572H54.9688C54.9688 47.7958 51.2001 41.6014 44.0143 37.1945L41.9232 40.6043ZM50.9688 55.6572C50.9688 61.8757 48.9008 66.4576 44.9127 69.6893L47.431 72.797C52.5054 68.685 54.9688 62.8762 54.9688 55.6572H50.9688ZM44.9268 69.678C40.8079 72.9544 34.9721 74.7259 27.181 74.751L27.194 78.751C35.5487 78.724 42.3692 76.8236 47.4169 72.8084L44.9268 69.678ZM118.469 33.1572L117.751 35.0239L120.469 36.0693V33.1572H118.469ZM102.688 36.5166L104.089 37.9435L104.089 37.9434L102.688 36.5166ZM110.07 54.0166L110.847 55.8595L110.858 55.8549L110.07 54.0166ZM119.68 47.9619H121.68V44.0112L118.496 46.3501L119.68 47.9619ZM119.68 73.3916L120.428 75.2461L121.68 74.741V73.3916H119.68ZM84.7578 73.1572L83.9251 74.9756L83.9288 74.9773L84.7578 73.1572ZM68.2344 55.1885L66.3283 55.7941L66.3305 55.8012L66.3328 55.8082L68.2344 55.1885ZM66.8672 45.9697H64.8672V45.9775L64.8672 45.9852L66.8672 45.9697ZM71.75 27.8057L73.4574 28.8472L73.4597 28.8434L71.75 27.8057ZM85.1094 15.501L84.1925 13.7235L84.1892 13.7252L85.1094 15.501ZM104.875 11.0869L104.868 13.0869H104.875V11.0869ZM118.469 13.001H120.469V11.6137L119.169 11.1277L118.469 13.001ZM119.187 31.2905C117.251 30.546 115.196 30.1807 113.039 30.1807V34.1807C114.736 34.1807 116.301 34.4664 117.751 35.0239L119.187 31.2905ZM113.039 30.1807C108.532 30.1807 104.585 31.849 101.286 35.0898L104.089 37.9434C106.675 35.4029 109.629 34.1807 113.039 34.1807V30.1807ZM101.286 35.0897C97.9949 38.3221 96.3125 42.2704 96.3125 46.8291H100.312C100.312 43.3669 101.547 40.4402 104.089 37.9435L101.286 35.0897ZM96.3125 46.8291C96.3125 49.7388 96.8728 52.2878 98.2286 54.2536L101.521 51.9827C100.794 50.9277 100.312 49.284 100.312 46.8291H96.3125ZM98.2286 54.2536C99.6341 56.2917 101.662 57.3838 104.133 57.3838V53.3838C103.01 53.3838 102.199 52.9655 101.521 51.9827L98.2286 54.2536ZM104.133 57.3838C106.265 57.3838 108.512 56.8444 110.847 55.8595L109.293 52.1737C107.306 53.0117 105.595 53.3838 104.133 53.3838V57.3838ZM110.858 55.8549C113.272 54.8203 116.632 52.6819 120.864 49.5738L118.496 46.3501C114.289 49.4398 111.243 51.3379 109.282 52.1783L110.858 55.8549ZM117.68 47.9619V73.3916H121.68V47.9619H117.68ZM118.931 71.5371C113.633 73.6763 107.989 74.751 101.984 74.751V78.751C108.479 78.751 114.633 77.5861 120.428 75.2461L118.931 71.5371ZM101.984 74.751C96.0241 74.751 90.5674 73.6055 85.5868 71.3371L83.9288 74.9773C89.4691 77.5006 95.4967 78.751 101.984 78.751V74.751ZM85.5905 71.3388C77.698 67.7245 72.6055 62.1468 70.136 54.5688L66.3328 55.8082C69.1758 64.5323 75.0989 70.9337 83.9251 74.9756L85.5905 71.3388ZM70.1405 54.5828C69.324 52.0133 68.8918 49.1425 68.8671 45.9542L64.8672 45.9852C64.8946 49.5157 65.3739 52.7908 66.3283 55.7941L70.1405 54.5828ZM68.8672 45.9697C68.8672 42.7774 69.2629 39.7379 70.0475 36.8448L66.1869 35.7978C65.3048 39.0505 64.8672 42.4433 64.8672 45.9697H68.8672ZM70.0475 36.8448C70.8335 33.9462 71.9715 31.2831 73.4574 28.8472L70.0426 26.7641C68.3514 29.5365 67.0675 32.5506 66.1869 35.7978L70.0475 36.8448ZM73.4597 28.8434C76.4359 23.94 80.608 20.0861 86.0295 17.2767L84.1892 13.7252C78.1524 16.8534 73.4183 21.2026 70.0403 26.7679L73.4597 28.8434ZM86.0263 17.2784C91.4566 14.4772 97.7202 13.0618 104.868 13.0869L104.882 9.08693C97.186 9.05992 90.2726 10.5872 84.1925 13.7235L86.0263 17.2784ZM104.875 13.0869C110.404 13.0869 114.669 13.7151 117.768 14.8742L119.169 11.1277C115.445 9.73478 110.648 9.08691 104.875 9.08691V13.0869ZM116.469 13.001V33.1572H120.469V13.001H116.469ZM174.164 12.8447V10.8447H172.164V12.8447H174.164ZM198.5 12.8447H200.5V10.8447H198.5V12.8447ZM198.5 75.2275V77.2275H200.5V75.2275H198.5ZM174.164 75.2275H172.164V77.2275H174.164V75.2275ZM174.164 52.1807H176.164V49.9983L173.99 50.1883L174.164 52.1807ZM161.195 53.3135L161.021 51.3211L159.195 51.4806V53.3135H161.195ZM161.195 75.2275V77.2275H163.195V75.2275H161.195ZM136.898 75.2275H134.898V77.2275H136.898V75.2275ZM136.898 12.8447V10.8447H134.898V12.8447H136.898ZM161.195 12.8447H163.195V10.8447H161.195V12.8447ZM161.195 35.3838L159.195 35.3838V37.553L161.357 37.3772L161.195 35.3838ZM174.164 34.3291L174.326 36.3225L176.164 36.1731V34.3291H174.164ZM174.164 14.8447H198.5V10.8447H174.164V14.8447ZM196.5 12.8447V75.2275H200.5V12.8447H196.5ZM198.5 73.2275L174.164 73.2275V77.2275L198.5 77.2275V73.2275ZM176.164 75.2275V52.1807H172.164V75.2275H176.164ZM173.99 50.1883L161.021 51.3211L161.369 55.3059L174.338 54.1731L173.99 50.1883ZM159.195 53.3135V75.2275H163.195V53.3135H159.195ZM161.195 73.2275H136.898V77.2275H161.195V73.2275ZM138.898 75.2275V12.8447H134.898V75.2275H138.898ZM136.898 14.8447L161.195 14.8447V10.8447L136.898 10.8447V14.8447ZM159.195 12.8447V35.3838L163.195 35.3838V12.8447H159.195ZM161.357 37.3772L174.326 36.3225L174.002 32.3357L161.033 33.3904L161.357 37.3772ZM176.164 34.3291V12.8447H172.164V34.3291H176.164ZM216.148 12.8447V10.8447L214.148 10.8447V12.8447L216.148 12.8447ZM261.109 12.8447H263.109V10.8447H261.109V12.8447ZM261.109 30.8135V32.8135H263.109V30.8135H261.109ZM240.445 30.8135V28.8135H238.445V30.8135H240.445ZM240.445 35.9307H238.445V37.9307H240.445V35.9307ZM261.031 35.9307H263.031V33.9307H261.031V35.9307ZM261.031 51.2432V53.2432H263.031V51.2432H261.031ZM240.445 51.2432V49.2432H238.445V51.2432H240.445ZM240.445 57.1416H238.445V59.1416H240.445V57.1416ZM262.477 57.1416H264.477V55.1416H262.477V57.1416ZM262.477 75.2275V77.2275H264.477V75.2275H262.477ZM216.148 75.2275H214.148V77.2275H216.148V75.2275ZM216.148 14.8447L261.109 14.8447V10.8447L216.148 10.8447V14.8447ZM259.109 12.8447V30.8135H263.109V12.8447H259.109ZM261.109 28.8135H240.445V32.8135H261.109V28.8135ZM238.445 30.8135V35.9307H242.445V30.8135H238.445ZM240.445 37.9307H261.031V33.9307H240.445V37.9307ZM259.031 35.9307V51.2432H263.031V35.9307H259.031ZM261.031 49.2432H240.445V53.2432H261.031V49.2432ZM238.445 51.2432V57.1416H242.445V51.2432H238.445ZM240.445 59.1416H262.477V55.1416H240.445V59.1416ZM260.477 57.1416V75.2275H264.477V57.1416H260.477ZM262.477 73.2275H216.148V77.2275H262.477V73.2275ZM218.148 75.2275V12.8447L214.148 12.8447V75.2275H218.148ZM279.773 12.8447L279.626 10.8502L277.773 10.9875V12.8447H279.773ZM322.156 12.4541L321.534 14.355L321.545 14.3585L321.556 14.3618L322.156 12.4541ZM329.695 16.165L328.529 17.7899L328.538 17.7965L329.695 16.165ZM339.422 28.3135L337.587 29.1082L337.59 29.1161L339.422 28.3135ZM340.203 57.2588L338.37 56.4591L338.367 56.465L340.203 57.2588ZM333.25 67.0244L331.916 65.5339L331.908 65.5419L333.25 67.0244ZM309.695 75.2275L309.701 73.2275H309.695V75.2275ZM279.773 75.2275H277.773V77.2275H279.773V75.2275ZM304.07 32.6494L302.552 31.3478L302.07 31.9096V32.6494H304.07ZM304.07 56.4385H302.07V60.7602L305.365 57.9631L304.07 56.4385ZM308.562 52.9619L309.72 54.593L309.729 54.5861L308.562 52.9619ZM315.75 32.415L314.106 33.5535L314.113 33.5634L315.75 32.415ZM279.921 14.8393C295.746 13.6661 305.981 13.0869 310.711 13.0869V9.08691C305.805 9.08691 295.415 9.67962 279.626 10.8502L279.921 14.8393ZM310.711 13.0869C315.462 13.0869 319.037 13.538 321.534 14.355L322.778 10.5532C319.703 9.54726 315.647 9.08691 310.711 9.08691V13.0869ZM321.556 14.3618C324.182 15.1888 326.502 16.3348 328.529 17.7899L330.861 14.5402C328.462 12.8182 325.755 11.4903 322.757 10.5464L321.556 14.3618ZM328.538 17.7965C332.523 20.622 335.538 24.3759 337.587 29.1082L341.257 27.5188C338.931 22.1468 335.461 17.8018 330.852 14.5336L328.538 17.7965ZM337.59 29.1161C339.7 33.9317 340.742 38.7765 340.742 43.665H344.742C344.742 38.189 343.571 32.7994 341.254 27.5108L337.59 29.1161ZM340.742 43.665C340.742 48.6323 339.931 52.881 338.37 56.4591L342.036 58.0585C343.861 53.8762 344.742 49.0624 344.742 43.665H340.742ZM338.367 56.465C336.809 60.068 334.658 63.0812 331.916 65.5339L334.584 68.5149C337.78 65.6551 340.264 62.1579 342.039 58.0526L338.367 56.465ZM331.908 65.5419C326.273 70.6445 318.932 73.2525 309.701 73.2275L309.69 77.2275C319.73 77.2547 328.092 74.3939 334.592 68.5069L331.908 65.5419ZM309.695 73.2275H279.773V77.2275H309.695V73.2275ZM281.773 75.2275V12.8447L277.773 12.8447V75.2275H281.773ZM302.07 32.6494V56.4385H306.07V32.6494H302.07ZM305.365 57.9631C306.697 56.8319 308.148 55.7083 309.72 54.5929L307.405 51.3309C305.748 52.5072 304.204 53.7013 302.776 54.9139L305.365 57.9631ZM309.729 54.5861C316.146 49.9758 319.859 44.7915 319.859 38.9775H315.859C315.859 42.9031 313.375 47.0417 307.396 51.3377L309.729 54.5861ZM319.859 38.9775C319.859 36.1824 319.021 33.5963 317.387 31.2667L314.113 33.5634C315.291 35.2442 315.859 37.0331 315.859 38.9775H319.859ZM317.394 31.2766C315.654 28.7631 313.231 27.3682 310.242 27.3682V31.3682C311.785 31.3682 313.033 32.0045 314.106 33.5535L317.394 31.2766ZM310.242 27.3682C307.26 27.3682 304.69 28.8533 302.552 31.3478L305.589 33.951C307.201 32.0706 308.745 31.3682 310.242 31.3682V27.3682ZM357.812 12.8447V10.8447H355.812V12.8447H357.812ZM382.461 12.8447H384.461V10.8447H382.461V12.8447ZM386.172 56.8682L386.999 55.0474L386.997 55.0461L386.172 56.8682ZM395.664 52.6104L397.593 53.1392L397.595 53.1322L395.664 52.6104ZM396.055 12.8447V10.8447H394.055V12.8447H396.055ZM417.656 12.8447H419.656V10.8447H417.656V12.8447ZM388.867 74.751C378.752 74.751 371.538 72.5938 366.872 68.6258C362.267 64.7105 359.812 58.746 359.812 50.3447H355.812C355.812 59.5476 358.533 66.7862 364.281 71.6731C369.966 76.5071 378.279 78.751 388.867 78.751V74.751ZM359.812 50.3447V12.8447H355.812V50.3447H359.812ZM357.812 14.8447L382.461 14.8447V10.8447L357.812 10.8447V14.8447ZM380.461 12.8447V49.6416H384.461V12.8447H380.461ZM380.461 49.6416C380.461 53.7891 381.895 57.1277 385.347 58.6902L386.997 55.0461C385.501 54.369 384.461 52.8899 384.461 49.6416H380.461ZM385.344 58.6889C386.524 59.2249 387.849 59.4541 389.258 59.4541V55.4541C388.271 55.4541 387.539 55.2926 386.999 55.0474L385.344 58.6889ZM389.258 59.4541C391.269 59.4541 393.107 58.9709 394.605 57.8385C396.105 56.7044 397.063 55.0707 397.593 53.1392L393.735 52.0815C393.379 53.3792 392.828 54.1674 392.192 54.6478C391.555 55.13 390.632 55.4541 389.258 55.4541V59.4541ZM397.595 53.1322C397.906 51.9793 398.055 50.7603 398.055 49.4854H394.055C394.055 50.45 393.943 51.3144 393.733 52.0885L397.595 53.1322ZM398.055 49.4854V12.8447H394.055V49.4854H398.055ZM396.055 14.8447L417.656 14.8447V10.8447L396.055 10.8447V14.8447ZM415.656 12.8447V50.3447H419.656V12.8447H415.656ZM415.656 50.3447C415.656 58.7919 413.362 64.7729 409.107 68.6755C404.82 72.6081 398.196 74.751 388.867 74.751V78.751C398.731 78.751 406.502 76.4928 411.811 71.6233C417.152 66.7239 419.656 59.5017 419.656 50.3447H415.656ZM434.68 12.8447V10.8447H432.68V12.8447H434.68ZM458.977 12.8447H460.977V10.8447H458.977V12.8447ZM458.977 56.4385H456.977V58.4385H458.977V56.4385ZM479.953 56.4385H481.953V54.4385H479.953V56.4385ZM479.953 75.2275V77.2275H481.953V75.2275H479.953ZM434.68 75.2275H432.68V77.2275H434.68V75.2275ZM434.68 14.8447H458.977V10.8447H434.68V14.8447ZM456.977 12.8447V56.4385H460.977V12.8447H456.977ZM458.977 58.4385H479.953V54.4385H458.977V58.4385ZM477.953 56.4385V75.2275H481.953V56.4385H477.953ZM479.953 73.2275H434.68V77.2275H479.953V73.2275ZM436.68 75.2275V12.8447H432.68V75.2275H436.68ZM494.008 12.8447V10.8447H492.008V12.8447H494.008ZM538.969 12.8447H540.969V10.8447H538.969V12.8447ZM538.969 30.8135V32.8135H540.969V30.8135H538.969ZM518.305 30.8135V28.8135H516.305V30.8135H518.305ZM518.305 35.9307H516.305V37.9307H518.305V35.9307ZM538.891 35.9307H540.891V33.9307H538.891V35.9307ZM538.891 51.2432V53.2432H540.891V51.2432H538.891ZM518.305 51.2432V49.2432H516.305V51.2432H518.305ZM518.305 57.1416H516.305V59.1416H518.305V57.1416ZM540.336 57.1416H542.336V55.1416H540.336V57.1416ZM540.336 75.2275V77.2275H542.336V75.2275H540.336ZM494.008 75.2275H492.008V77.2275H494.008V75.2275ZM494.008 14.8447L538.969 14.8447V10.8447L494.008 10.8447V14.8447ZM536.969 12.8447V30.8135H540.969V12.8447H536.969ZM538.969 28.8135H518.305V32.8135H538.969V28.8135ZM516.305 30.8135V35.9307H520.305V30.8135H516.305ZM518.305 37.9307H538.891V33.9307H518.305V37.9307ZM536.891 35.9307V51.2432H540.891V35.9307H536.891ZM538.891 49.2432H518.305V53.2432H538.891V49.2432ZM516.305 51.2432V57.1416H520.305V51.2432H516.305ZM518.305 59.1416H540.336V55.1416H518.305V59.1416ZM538.336 57.1416V75.2275H542.336V57.1416H538.336ZM540.336 73.2275H494.008V77.2275H540.336V73.2275ZM496.008 75.2275V12.8447H492.008V75.2275H496.008Z" fill="black" mask="url(#path-5-outside-3_1_6)"/>
</svg>
