<?xml version="1.0" encoding="UTF-8" standalone="no"?>
<svg
   width="554"
   height="78"
   viewBox="0 0 554 78"
   fill="none"
   version="1.1"
   id="svg9"
   sodipodi:docname="schedule.svg"
   inkscape:version="1.3.2 (091e20ef0f, 2023-11-25)"
   xmlns:inkscape="http://www.inkscape.org/namespaces/inkscape"
   xmlns:sodipodi="http://sodipodi.sourceforge.net/DTD/sodipodi-0.dtd"
   xmlns="http://www.w3.org/2000/svg"
   xmlns:svg="http://www.w3.org/2000/svg">
  <defs
     id="defs9" />
  <sodipodi:namedview
     id="namedview9"
     pagecolor="#ffffff"
     bordercolor="#000000"
     borderopacity="0.25"
     inkscape:showpageshadow="2"
     inkscape:pageopacity="0.0"
     inkscape:pagecheckerboard="0"
     inkscape:deskcolor="#d1d1d1"
     inkscape:zoom="1.910612"
     inkscape:cx="327.9054"
     inkscape:cy="48.675503"
     inkscape:window-width="2560"
     inkscape:window-height="1368"
     inkscape:window-x="1920"
     inkscape:window-y="0"
     inkscape:window-maximized="1"
     inkscape:current-layer="svg9" />
  <mask
     id="path-1-outside-1_1_6"
     maskUnits="userSpaceOnUse"
     x="11.3039"
     y="-2"
     width="542"
     height="71"
     fill="#000000">
    <rect
       fill="#ffffff"
       x="11.3039"
       y="-2"
       width="542"
       height="71"
       id="rect1" />
    <path
       d="m 37.4914,66.5234 c -11.6927,0 -19.4532,-1.4453 -23.2813,-4.3359 V 44.2969 c 0.1042,0.026 0.4818,0.1432 1.1328,0.3515 0.6771,0.2084 1.5235,0.4688 2.5391,0.7813 2.3698,0.7292 4.8568,1.4193 7.4609,2.0703 2.6302,0.625 4.7396,0.9375 6.3282,0.9375 2.6041,0 3.9062,-0.7943 3.9062,-2.3828 0,-1.224 -1.1198,-2.5261 -3.3594,-3.9063 -1.0156,-0.625 -2.1745,-1.276 -3.4765,-1.9531 -1.2761,-0.6771 -2.5782,-1.4323 -3.9063,-2.2656 -3.2552,-2.0052 -5.8724,-4.349 -7.8515,-7.0313 -1.9532,-2.6823 -2.9297,-6.0677 -2.9297,-10.1562 0,-8.9323 4.7135,-14.93491 14.1406,-18.00783 3.8281,-1.25 8.2422,-1.874995 13.2422,-1.874995 5.026,0 10.2734,0.572915 15.7422,1.718745 1.1198,0.23438 1.8619,0.40365 2.2265,0.50782 V 21.0156 C 52.3221,19.5052 47.2309,18.75 44.132,18.75 c -1.1979,0 -2.0964,0.2083 -2.6953,0.625 -0.599,0.4167 -0.8985,0.8854 -0.8985,1.4062 0,0.5209 0.2605,1.0678 0.7813,1.6407 0.5208,0.5469 1.4193,1.1067 2.6953,1.6797 1.276,0.5468 2.7604,1.2239 4.4531,2.0312 1.7188,0.7813 3.3203,1.6276 4.8047,2.5391 6.6667,4.0885 10,9.6745 10,16.7578 0,6.7187 -2.2656,11.9141 -6.7969,15.5859 -4.5833,3.6459 -10.9114,5.4818 -18.9843,5.5078 z M 128.773,22.9297 c -1.693,-0.6511 -3.503,-0.9766 -5.43,-0.9766 -3.958,0 -7.409,1.4453 -10.352,4.336 -2.916,2.8645 -4.375,6.302 -4.375,10.3125 0,2.6823 0.521,4.7786 1.563,6.289 1.042,1.5104 2.461,2.2656 4.258,2.2656 1.797,0 3.776,-0.4557 5.937,-1.3671 2.188,-0.9375 5.391,-2.9558 9.61,-6.0547 v 25.4297 c -5.547,2.2395 -11.446,3.3593 -17.696,3.3593 -6.224,0 -11.966,-1.1979 -17.2263,-3.5937 -8.3594,-3.8281 -13.8672,-9.8177 -16.5235,-17.9688 -0.8854,-2.7864 -1.3411,-5.8593 -1.3671,-9.2187 0,-3.3594 0.4166,-6.5755 1.25,-9.6485 0.8333,-3.0729 2.0442,-5.9114 3.6328,-8.5156 3.177,-5.2344 7.6302,-9.33591 13.3593,-12.30466 5.7548,-2.96875 12.3438,-4.440107 19.7658,-4.414065 5.651,0 10.182,0.638025 13.594,1.914065 z M 184.468,2.61719 h 24.336 V 65 H 184.468 V 41.9531 l -12.969,1.1328 V 65 H 147.202 V 2.61719 h 24.297 V 25.1562 l 12.969,-1.0546 z m 41.984,0 h 44.961 V 20.5859 h -20.664 v 5.1172 h 20.586 v 15.3125 h -20.586 v 5.8985 H 272.78 V 65 h -46.328 z m 63.625,0 c 15.808,-1.17188 26.12,-1.757815 30.938,-1.757815 4.844,0 8.659,0.455725 11.445,1.367185 2.813,0.88542 5.326,2.1224 7.539,3.71094 4.297,3.04687 7.539,7.0964 9.727,12.1484 2.213,5.0521 3.32,10.1693 3.32,15.3516 0,5.1823 -0.846,9.7135 -2.539,13.5937 -1.667,3.8542 -3.984,7.1094 -6.953,9.7657 -6.068,5.4948 -13.919,8.2291 -23.555,8.2031 h -29.922 z m 24.297,19.80471 v 23.789 c 1.38,-1.1718 2.878,-2.3307 4.492,-3.4765 6.198,-4.4532 9.297,-9.1146 9.297,-13.9844 0,-2.3698 -0.703,-4.5573 -2.109,-6.5625 -1.406,-2.0313 -3.242,-3.0469 -5.508,-3.0469 -2.24,0 -4.297,1.0938 -6.172,3.2813 z m 84.797,44.1015 c -20.703,0 -31.055,-8.802 -31.055,-26.4062 V 2.61719 h 24.649 V 39.4141 c 0,3.6979 1.237,6.1067 3.711,7.2265 0.859,0.3906 1.888,0.586 3.086,0.586 3.385,0 5.521,-1.6146 6.406,-4.8438 0.26,-0.9635 0.391,-2.0052 0.391,-3.125 V 2.61719 H 427.96 V 40.1172 c 0,17.6042 -9.596,26.4062 -28.789,26.4062 z M 444.984,2.61719 H 469.28 V 46.2109 h 20.977 V 65 h -45.273 z m 59.328,0 h 44.961 V 20.5859 h -20.664 v 5.1172 h 20.585 v 15.3125 h -20.585 v 5.8985 H 550.64 V 65 h -46.328 z"
       id="path1" />
  </mask>
  <path
     d="m 37.4914,66.5234 c -11.6927,0 -19.4532,-1.4453 -23.2813,-4.3359 V 44.2969 c 0.1042,0.026 0.4818,0.1432 1.1328,0.3515 0.6771,0.2084 1.5235,0.4688 2.5391,0.7813 2.3698,0.7292 4.8568,1.4193 7.4609,2.0703 2.6302,0.625 4.7396,0.9375 6.3282,0.9375 2.6041,0 3.9062,-0.7943 3.9062,-2.3828 0,-1.224 -1.1198,-2.5261 -3.3594,-3.9063 -1.0156,-0.625 -2.1745,-1.276 -3.4765,-1.9531 -1.2761,-0.6771 -2.5782,-1.4323 -3.9063,-2.2656 -3.2552,-2.0052 -5.8724,-4.349 -7.8515,-7.0313 -1.9532,-2.6823 -2.9297,-6.0677 -2.9297,-10.1562 0,-8.9323 4.7135,-14.93491 14.1406,-18.00783 3.8281,-1.25 8.2422,-1.874995 13.2422,-1.874995 5.026,0 10.2734,0.572915 15.7422,1.718745 1.1198,0.23438 1.8619,0.40365 2.2265,0.50782 V 21.0156 C 52.3221,19.5052 47.2309,18.75 44.132,18.75 c -1.1979,0 -2.0964,0.2083 -2.6953,0.625 -0.599,0.4167 -0.8985,0.8854 -0.8985,1.4062 0,0.5209 0.2605,1.0678 0.7813,1.6407 0.5208,0.5469 1.4193,1.1067 2.6953,1.6797 1.276,0.5468 2.7604,1.2239 4.4531,2.0312 1.7188,0.7813 3.3203,1.6276 4.8047,2.5391 6.6667,4.0885 10,9.6745 10,16.7578 0,6.7187 -2.2656,11.9141 -6.7969,15.5859 -4.5833,3.6459 -10.9114,5.4818 -18.9843,5.5078 z M 128.773,22.9297 c -1.693,-0.6511 -3.503,-0.9766 -5.43,-0.9766 -3.958,0 -7.409,1.4453 -10.352,4.336 -2.916,2.8645 -4.375,6.302 -4.375,10.3125 0,2.6823 0.521,4.7786 1.563,6.289 1.042,1.5104 2.461,2.2656 4.258,2.2656 1.797,0 3.776,-0.4557 5.937,-1.3671 2.188,-0.9375 5.391,-2.9558 9.61,-6.0547 v 25.4297 c -5.547,2.2395 -11.446,3.3593 -17.696,3.3593 -6.224,0 -11.966,-1.1979 -17.2263,-3.5937 -8.3594,-3.8281 -13.8672,-9.8177 -16.5235,-17.9688 -0.8854,-2.7864 -1.3411,-5.8593 -1.3671,-9.2187 0,-3.3594 0.4166,-6.5755 1.25,-9.6485 0.8333,-3.0729 2.0442,-5.9114 3.6328,-8.5156 3.177,-5.2344 7.6302,-9.33591 13.3593,-12.30466 5.7548,-2.96875 12.3438,-4.440107 19.7658,-4.414065 5.651,0 10.182,0.638025 13.594,1.914065 z M 184.468,2.61719 h 24.336 V 65 H 184.468 V 41.9531 l -12.969,1.1328 V 65 H 147.202 V 2.61719 h 24.297 V 25.1562 l 12.969,-1.0546 z m 41.984,0 h 44.961 V 20.5859 h -20.664 v 5.1172 h 20.586 v 15.3125 h -20.586 v 5.8985 H 272.78 V 65 h -46.328 z m 63.625,0 c 15.808,-1.17188 26.12,-1.757815 30.938,-1.757815 4.844,0 8.659,0.455725 11.445,1.367185 2.813,0.88542 5.326,2.1224 7.539,3.71094 4.297,3.04687 7.539,7.0964 9.727,12.1484 2.213,5.0521 3.32,10.1693 3.32,15.3516 0,5.1823 -0.846,9.7135 -2.539,13.5937 -1.667,3.8542 -3.984,7.1094 -6.953,9.7657 -6.068,5.4948 -13.919,8.2291 -23.555,8.2031 h -29.922 z m 24.297,19.80471 v 23.789 c 1.38,-1.1718 2.878,-2.3307 4.492,-3.4765 6.198,-4.4532 9.297,-9.1146 9.297,-13.9844 0,-2.3698 -0.703,-4.5573 -2.109,-6.5625 -1.406,-2.0313 -3.242,-3.0469 -5.508,-3.0469 -2.24,0 -4.297,1.0938 -6.172,3.2813 z m 84.797,44.1015 c -20.703,0 -31.055,-8.802 -31.055,-26.4062 V 2.61719 h 24.649 V 39.4141 c 0,3.6979 1.237,6.1067 3.711,7.2265 0.859,0.3906 1.888,0.586 3.086,0.586 3.385,0 5.521,-1.6146 6.406,-4.8438 0.26,-0.9635 0.391,-2.0052 0.391,-3.125 V 2.61719 H 427.96 V 40.1172 c 0,17.6042 -9.596,26.4062 -28.789,26.4062 z M 444.984,2.61719 H 469.28 V 46.2109 h 20.977 V 65 h -45.273 z m 59.328,0 h 44.961 V 20.5859 h -20.664 v 5.1172 h 20.585 v 15.3125 h -20.585 v 5.8985 H 550.64 V 65 h -46.328 z"
     fill="#e7bb3e"
     id="path2" />
  <path
     d="m 37.4914,66.5234 v 2 h 0.0064 z M 14.2101,62.1875 h -2 v 0.9959 l 0.7948,0.6002 z m 0,-17.8906 0.4851,-1.9403 -2.4851,-0.6213 v 2.5616 z m 1.1328,0.3515 -0.6095,1.9049 0.0106,0.0034 0.0108,0.0033 z m 10,2.8516 -0.485,1.9403 0.0113,0.0028 0.0114,0.0027 z m 6.875,-5.3516 1.0493,-1.7026 -0.0011,-7e-4 z m -3.4765,-1.9531 -0.9375,1.7667 0.0074,0.0039 0.0074,0.0038 z m -3.9063,-2.2656 1.063,-1.6941 -0.007,-0.0044 -0.007,-0.0044 z m -7.8515,-7.0313 -1.6169,1.1773 0.0075,0.0102 z m 11.2109,-28.16403 0.6198,1.90153 0.001,-3.1e-4 z m 28.9844,-0.15625 -0.4102,1.9575 4e-4,9e-5 z m 2.2265,0.50782 h 2 V 1.57733 L 59.9549,1.16289 Z m 0,17.92966 -0.4171,1.956 2.4171,0.5155 v -2.4715 z m -18.0859,1.4063 -1.4799,1.3453 0.0156,0.0172 0.016,0.0168 z m 2.6953,1.6797 -0.8192,1.8245 0.0156,0.007 0.0158,0.0068 z m 4.4531,2.0312 -0.8609,1.8052 0.0166,0.0079 0.0167,0.0076 z m 4.8047,2.5391 -1.0465,1.7043 9e-4,6e-4 z m 3.2031,32.3437 1.2451,1.5652 0.0071,-0.0056 0.007,-0.0057 z m -18.9843,3.5078 c -5.7761,0 -10.5068,-0.3579 -14.2237,-1.0501 -3.749,-0.6983 -6.2957,-1.7064 -7.8524,-2.8819 l -2.4104,3.1922 c 2.2715,1.7152 5.5191,2.875 9.5304,3.622 4.0436,0.7531 9.0395,1.1178 14.9561,1.1178 z M 16.2101,62.1875 V 44.2969 h -4 V 62.1875 Z M 13.725,46.2372 c -0.0137,-0.0035 0.0479,0.0134 0.2536,0.0772 0.1807,0.0561 0.4315,0.1354 0.7548,0.2389 l 1.2191,-3.8097 C 15.3421,42.5483 14.88,42.4028 14.6952,42.3566 Z m 1.0298,0.3228 c 0.1427,0.0439 0.1137,0.035 0.2618,0.0806 0.083,0.0255 0.0526,0.0161 0.1369,0.0421 0.0425,0.0131 0.027,0.0083 0.0699,0.0215 0.0078,0.0024 0.0098,0.003 0.0176,0.0054 0.001,3e-4 0.0167,0.0052 0.0177,0.0055 0.0109,0.0033 0.0069,0.0021 0.0178,0.0054 0.0064,0.002 0.0025,8e-4 0.0089,0.0028 0.0015,4e-4 0.003,9e-4 0.0044,0.0013 0.0015,5e-4 0.003,10e-4 0.0045,0.0014 0.0231,0.0071 0.1203,0.037 0.1448,0.0446 0.0903,0.0277 0.0572,0.0176 0.1488,0.0457 0.1864,0.0574 0.1177,0.0363 0.3094,0.0953 0.0976,0.03 0.0618,0.019 0.1607,0.0494 0.0499,0.0153 0.0316,0.0097 0.0818,0.0252 0.0115,0.0035 0.0092,0.0028 0.0206,0.0063 0.0127,0.0039 0.0081,0.0025 0.0207,0.0064 0.0127,0.0039 0.0081,0.0025 0.0208,0.0064 0.0075,0.0023 0.0028,8e-4 0.0103,0.0032 0.0018,5e-4 0.0035,0.001 0.0052,0.0016 0.0018,5e-4 0.0035,10e-4 0.0052,0.0016 0.0723,0.0222 0.2637,0.0811 0.3412,0.1049 0.2159,0.0664 0.136,0.0419 0.3571,0.1099 0.1121,0.0345 0.071,0.0218 0.1845,0.0568 0,0 0.1871,0.0575 0.1884,0.0579 l 1.1764,-3.8231 c -0.2689,-0.0827 -0.1094,-0.0336 -0.373,-0.1147 -0.1115,-0.0343 -0.0703,-0.0217 -0.1805,-0.0556 -0.0595,-0.0183 -0.1183,-0.0364 -0.1765,-0.0543 -0.0134,-0.0041 -0.0085,-0.0026 -0.0218,-0.0067 -0.0085,-0.0026 -0.0133,-0.0041 -0.0217,-0.0067 -0.0018,-5e-4 -0.0037,-0.0011 -0.0055,-0.0016 -0.0018,-6e-4 -0.0036,-0.0011 -0.0054,-0.0017 -0.0114,-0.0035 6e-4,2e-4 -0.0108,-0.0033 -0.0012,-4e-4 -0.0204,-0.0063 -0.0216,-0.0067 -0.0856,-0.0263 -5e-4,-1e-4 -0.0858,-0.0264 -0.019,-0.0058 -0.151,-0.0464 -0.1686,-0.0519 -0.1287,-0.0396 -0.2019,-0.0621 -0.3253,-0.1001 -0.2469,-0.0759 -0.3774,-0.1161 -0.6031,-0.1855 -0.0553,-0.017 -0.0868,-0.0267 -0.1408,-0.0433 -0.0308,-0.0095 -0.0384,-0.0119 -0.0689,-0.0212 -0.0528,-0.0163 -0.0155,-0.0048 -0.068,-0.021 -0.0206,-0.0063 -0.013,-0.004 -0.0336,-0.0103 -0.0167,-0.0051 -0.0167,-0.0051 -0.0333,-0.0103 -0.0014,-4e-4 -0.0028,-8e-4 -0.0042,-0.0012 -0.0013,-5e-4 -0.0027,-9e-4 -0.0041,-0.0013 -0.0014,-4e-4 -0.0028,-9e-4 -0.0042,-0.0013 -0.0013,-4e-4 -0.0027,-8e-4 -0.0041,-0.0013 -0.0147,-0.0045 -0.0019,-5e-4 -0.0165,-0.005 -0.0183,-0.0057 -0.0146,-0.0045 -0.0329,-0.0101 -0.1423,-0.0439 0.0122,0.0037 -0.1289,-0.0397 z m 2.539,0.7812 c 2.4066,0.7405 4.9281,1.4401 7.5641,2.0991 L 25.828,45.5597 C 23.2556,44.9166 20.8032,44.236 18.4702,43.5181 Z m 7.5868,2.1046 c 2.6919,0.6397 4.9751,0.9917 6.7905,0.9917 v -4 c -1.3618,0 -3.2973,-0.273 -5.8658,-0.8833 z m 6.7905,0.9917 c 1.4403,0 2.8559,-0.208 3.9712,-0.8883 1.2758,-0.7783 1.935,-2.0382 1.935,-3.4945 h -4 c 0,0.1192 -0.0225,0.1261 8e-4,0.0834 0.0254,-0.0464 0.045,-0.0427 -0.0189,-0.0037 -0.1868,0.1139 -0.7243,0.3031 -1.8881,0.3031 z m 5.9062,-4.3828 c 0,-1.2523 -0.5763,-2.3299 -1.3235,-3.1986 -0.7455,-0.8669 -1.7743,-1.6632 -2.9866,-2.4103 l -2.0986,3.4053 c 1.0273,0.6331 1.6782,1.1779 2.0525,1.6131 0.182,0.2116 0.2737,0.3688 0.3178,0.4684 0.0215,0.0483 0.0307,0.0809 0.0347,0.0987 0.0021,0.009 0.0029,0.0151 0.0033,0.0184 4e-4,0.0034 4e-4,0.0049 4e-4,0.005 z M 33.2661,40.4451 C 32.2015,39.79 30.9995,39.1153 29.6641,38.4209 l -1.8454,3.5488 c 1.2687,0.6598 2.3844,1.2872 3.351,1.8821 z m -3.5873,-2.0165 c -1.2299,-0.6526 -2.4901,-1.3833 -3.7807,-2.193 l -2.126,3.3882 c 1.3657,0.8569 2.7096,1.6366 4.0318,2.3382 z M 25.8841,36.2268 C 22.8152,34.3364 20.3993,32.1592 18.5929,29.711 l -3.2187,2.3749 c 2.1519,2.9164 4.9704,5.4266 8.412,7.5466 z m -7.2838,-6.5056 c -1.6511,-2.2676 -2.5464,-5.2137 -2.5464,-8.979 h -4 c 0,4.4118 1.0577,8.2365 3.3129,11.3335 z m -2.5464,-8.979 c 0,-4.0978 1.0734,-7.3748 3.1081,-9.966 2.0485,-2.6087 5.204,-4.69029 9.6523,-6.1403 L 27.5747,0.832848 C 22.5959,2.45576 18.6811,4.91193 16.016,8.30582 13.3372,11.7173 12.0539,15.9076 12.0539,20.7422 Z M 28.8153,4.63559 c 3.586,-1.17096 7.7834,-1.77622 12.6214,-1.77622 v -4 c -5.1621,0 -9.7928,0.644747 -13.863,1.973794 z M 41.4367,2.85937 c 4.8739,0 9.9834,0.55558 15.332,1.67625 L 57.589,0.620631 C 52.0001,-0.55037 46.6148,-1.14063 41.4367,-1.14063 Z m 15.3324,1.67634 c 1.1319,0.2369 1.8032,0.39222 2.0869,0.47328 l 1.0989,-3.8461 C 59.5094,1.03562 58.6963,0.852388 57.5886,0.620544 Z M 57.4054,3.08594 V 21.0156 h 4 V 3.08594 Z M 59.8225,19.0596 C 52.7349,17.5483 47.4616,16.75 44.132,16.75 v 4 c 2.8682,0 7.7773,0.7121 14.8563,2.2216 z M 44.132,16.75 c -1.3682,0 -2.7501,0.2268 -3.8375,0.9832 l 2.2843,3.2836 C 42.6894,20.9399 43.1043,20.75 44.132,20.75 Z m -3.8375,0.9832 c -0.9038,0.6287 -1.7563,1.6328 -1.7563,3.048 h 4 c 0,0.0646 -0.0097,0.1329 -0.0295,0.1985 -0.0196,0.0646 -0.0441,0.1105 -0.0605,0.1361 -0.029,0.0456 -0.0165,0.0033 0.1306,-0.099 z m -1.7563,3.048 c 0,1.213 0.6052,2.2201 1.3014,2.986 l 2.9598,-2.6907 c -0.1634,-0.1796 -0.2338,-0.299 -0.2601,-0.3543 -0.0231,-0.0485 -0.0011,-0.0228 -0.0011,0.059 z m 1.333,3.02 c 0.7931,0.8327 1.9787,1.5207 3.3244,2.1249 L 44.834,22.277 c -1.2063,-0.5416 -1.8176,-0.9734 -2.0662,-1.2344 z m 3.3558,2.1387 c 1.2446,0.5334 2.7037,1.1986 4.38,1.9981 l 1.7219,-3.6104 c -1.7091,-0.8151 -3.2188,-1.504 -4.5263,-2.0643 z m 4.4133,2.0136 c 1.6497,0.7499 3.1775,1.558 4.5858,2.4227 l 2.093,-3.4087 c -1.5604,-0.9581 -3.2357,-1.8428 -5.0236,-2.6554 z m 4.5867,2.4233 c 6.1476,3.7702 9.0456,8.7477 9.0456,15.0529 h 4 c 0,-7.8615 -3.7686,-14.0559 -10.9544,-18.4627 z m 9.0456,15.0529 c 0,6.2185 -2.0679,10.8003 -6.056,14.0321 l 2.5183,3.1077 c 5.0744,-4.112 7.5377,-9.9208 7.5377,-17.1398 z m -6.0419,14.0207 c -4.1189,3.2764 -9.9547,5.0479 -17.7458,5.073 l 0.0129,4 c 8.3548,-0.0269 15.1752,-1.9273 20.223,-5.9426 z m 73.5423,-36.5207 -0.718,1.8667 2.718,1.0453 v -2.912 z m -15.782,3.3594 1.402,1.4269 v -2e-4 z m 7.383,17.5 0.777,1.8428 0.011,-0.0045 z m 9.61,-6.0547 h 2 v -3.9508 l -3.184,2.3389 z m 0,25.4297 0.748,1.8545 1.252,-0.5052 v -1.3493 z m -34.9223,-0.2344 -0.8327,1.8184 0.0037,0.0017 z m -16.5235,-17.9688 -1.906,0.6057 0.0022,0.007 0.0023,0.007 z m -1.3671,-9.2187 h -2 v 0.0077 0.0078 z m 4.8828,-18.1641 1.7074,1.0415 0.0023,-0.0037 z M 95.4132,5.27344 94.4964,3.49598 94.4931,3.49768 Z M 115.179,0.859375 115.172,2.85937 h 0.007 z m 13.594,1.914065 h 2 V 1.3862 l -1.3,-0.486008 z m 0.718,18.28956 c -1.936,-0.7446 -3.991,-1.1099 -6.148,-1.1099 v 4 c 1.697,0 3.262,0.2858 4.712,0.8433 z m -6.148,-1.1099 c -4.507,0 -8.454,1.6684 -11.753,4.9092 l 2.803,2.8535 c 2.586,-2.5404 5.54,-3.7627 8.95,-3.7627 z m -11.753,4.9091 c -3.291,3.2324 -4.974,7.1807 -4.974,11.7394 h 4 c 0,-3.4622 1.235,-6.3889 3.777,-8.8856 z m -4.974,11.7394 c 0,2.9097 0.561,5.4587 1.916,7.4245 l 3.293,-2.2709 c -0.727,-1.055 -1.209,-2.6988 -1.209,-5.1536 z m 1.916,7.4245 c 1.406,2.0381 3.434,3.1301 5.905,3.1301 v -4 c -1.123,0 -1.934,-0.4183 -2.612,-1.401 z m 5.905,3.1301 c 2.132,0 4.378,-0.5393 6.714,-1.5243 l -1.554,-3.6857 c -1.987,0.8379 -3.698,1.21 -5.16,1.21 z m 6.725,-1.5288 c 2.414,-1.0346 5.774,-3.173 10.006,-6.2812 L 128.8,36.1225 c -4.207,3.0898 -7.253,4.9878 -9.214,5.8283 z m 6.822,-7.893 v 25.4297 h 4 V 37.7344 Z m 1.251,23.5751 c -5.299,2.1392 -10.942,3.2139 -16.947,3.2139 v 4 c 6.495,0 12.649,-1.1649 18.444,-3.5048 z m -16.947,3.2139 c -5.96,0 -11.417,-1.1454 -16.3974,-3.4138 l -1.6579,3.6402 c 5.5403,2.5233 11.5683,3.7736 18.0553,3.7736 z M 95.8944,61.1113 C 88.0019,57.4969 82.9093,51.9192 80.4398,44.3413 l -3.8031,1.2393 c 2.843,8.7241 8.7661,15.1256 17.5923,19.1675 z M 80.4443,44.3553 C 79.6278,41.7857 79.1957,38.915 79.171,35.7267 l -3.9999,0.031 c 0.0274,3.5304 0.5067,6.8055 1.4611,9.8089 z m -1.2732,-8.6131 c 0,-3.1923 0.3957,-6.2319 1.1802,-9.125 l -3.8605,-1.0469 c -0.8821,3.2527 -1.3197,6.6454 -1.3197,10.1719 z m 1.1802,-9.125 c 0.7861,-2.8986 1.924,-5.5616 3.41,-7.9976 l -3.4148,-2.083 c -1.6912,2.7724 -2.9751,5.7864 -3.8557,9.0337 z m 3.4123,-8.0013 C 86.7398,13.7125 90.9118,9.85855 96.3334,7.04919 L 94.4931,3.49768 C 88.4563,6.62583 83.7221,10.975 80.3442,16.5404 Z M 96.3301,7.05089 C 101.76,4.24971 108.024,2.83428 115.172,2.85936 l 0.014,-3.99997 C 107.49,-1.16762 100.576,0.359666 94.4964,3.49598 Z M 115.179,2.85937 c 5.529,0 9.794,0.62818 12.893,1.78731 l 1.401,-3.746488 C 125.749,-0.49276 120.952,-1.14063 115.179,-1.14063 Z M 126.773,2.77344 V 22.9297 h 4 V 2.77344 Z M 184.468,2.61719 V 0.617187 h -2 V 2.61719 Z m 24.336,0 h 2 V 0.617187 h -2 z m 0,62.38281 v 2 h 2 v -2 z m -24.336,0 h -2 v 2 h 2 z m 0,-23.0469 h 2 v -2.1823 l -2.174,0.1899 z m -12.969,1.1328 -0.174,-1.9924 -1.826,0.1595 v 1.8329 z m 0,21.9141 v 2 h 2 v -2 z m -24.297,0 h -2 v 2 h 2 z m 0,-62.38281 V 0.617187 h -2 V 2.61719 Z m 24.297,0 h 2 V 0.617187 h -2 z m 0,22.53901 h -2 v 2.1693 l 2.162,-0.1758 z m 12.969,-1.0546 0.162,1.9934 1.838,-0.1495 v -1.8439 z m 0,-19.48441 h 24.336 V 0.617187 h -24.336 z m 22.336,-2 V 65 h 4 V 2.61719 Z m 2,60.38281 h -24.336 v 4 h 24.336 z m -22.336,2 V 41.9531 h -4 V 65 Z m -2.174,-25.0393 -12.969,1.1328 0.348,3.9849 12.969,-1.1329 z m -14.795,3.1252 V 65 h 4 V 43.0859 Z m 2,19.9141 h -24.297 v 4 h 24.297 z m -22.297,2 V 2.61719 h -4 V 65 Z m -2,-60.38281 h 24.297 V 0.617187 h -24.297 z m 22.297,-2 V 25.1562 h 4 V 2.61719 Z m 2.162,24.53251 12.969,-1.0547 -0.324,-3.9869 -12.969,1.0547 z m 14.807,-3.0481 V 2.61719 h -4 V 24.1016 Z M 226.452,2.61719 V 0.617187 h -2 V 2.61719 Z m 44.961,0 h 2 V 0.617187 h -2 z m 0,17.96871 v 2 h 2 v -2 z m -20.664,0 v -2 h -2 v 2 z m 0,5.1172 h -2 v 2 h 2 z m 20.586,0 h 2 v -2 h -2 z m 0,15.3125 v 2 h 2 v -2 z m -20.586,0 v -2 h -2 v 2 z m 0,5.8985 h -2 v 2 h 2 z m 22.031,0 h 2 v -2 h -2 z m 0,18.0859 v 2 h 2 v -2 z m -46.328,0 h -2 v 2 h 2 z m 0,-60.38281 h 44.961 V 0.617187 h -44.961 z m 42.961,-2 V 20.5859 h 4 V 2.61719 Z m 2,15.96871 h -20.664 v 4 h 20.664 z m -22.664,2 v 5.1172 h 4 v -5.1172 z m 2,7.1172 h 20.586 v -4 h -20.586 z m 18.586,-2 v 15.3125 h 4 V 25.7031 Z m 2,13.3125 h -20.586 v 4 h 20.586 z m -22.586,2 v 5.8985 h 4 v -5.8985 z m 2,7.8985 h 22.031 v -4 h -22.031 z m 20.031,-2 V 65 h 4 V 46.9141 Z m 2,16.0859 h -46.328 v 4 h 46.328 z m -44.328,2 V 2.61719 h -4 V 65 Z M 290.077,2.61719 289.929,0.622661 288.077,0.759969 V 2.61719 Z m 42.383,-0.39063 -0.622,1.90089 0.011,0.00347 0.011,0.00334 z m 7.539,3.71094 -1.166,1.62491 0.009,0.00656 z m 9.727,12.1484 -1.836,0.7947 0.004,0.008 z m 0.781,28.9453 -1.833,-0.7997 -0.003,0.0059 z m -6.953,9.7657 -1.334,-1.4905 -0.009,0.008 z M 319.999,65 l 0.006,-2 h -0.006 z m -29.922,0 h -2 v 2 h 2 z m 24.297,-42.5781 -1.518,-1.3016 -0.482,0.5617 v 0.7399 z m 0,23.789 h -2 v 4.3218 l 3.295,-2.7972 z m 4.492,-3.4765 1.158,1.631 0.009,-0.0068 z m 7.188,-20.5469 -1.645,1.1384 0.007,0.01 z M 290.225,4.61171 c 15.825,-1.17316 26.06,-1.75234 30.79,-1.75234 v -4 c -4.906,0 -15.296,0.592706 -31.086,1.763291 z m 30.79,-1.75234 c 4.751,0 8.326,0.45112 10.823,1.26808 l 1.244,-3.801777 c -3.075,-1.005957 -7.131,-1.466303 -12.067,-1.466303 z m 10.845,1.27489 c 2.626,0.82696 4.945,1.973 6.973,3.42812 l 2.332,-3.24976 c -2.399,-1.72196 -5.106,-3.04988 -8.104,-3.993756 z m 6.982,3.43471 c 3.985,2.82543 6.999,6.57943 9.048,11.31163 l 3.671,-1.5893 c -2.326,-5.372 -5.796,-9.71699 -10.405,-12.98527 z m 9.052,11.31963 c 2.11,4.8155 3.152,9.6604 3.152,14.5489 h 4 c 0,-5.4761 -1.171,-10.8656 -3.488,-16.1542 z m 3.152,14.5489 c 0,4.9672 -0.811,9.2159 -2.372,12.794 l 3.666,1.5995 c 1.825,-4.1823 2.706,-8.9962 2.706,-14.3935 z m -2.375,12.7999 c -1.558,3.6031 -3.709,6.6163 -6.451,9.069 l 2.667,2.981 c 3.197,-2.8598 5.68,-6.357 7.456,-10.4623 z m -6.46,9.077 C 336.577,60.4169 329.236,63.025 320.005,63 l -0.011,4 c 10.04,0.0271 18.401,-2.8336 24.902,-8.7207 z M 319.999,63 h -29.922 v 4 h 29.922 z m -27.922,2 V 2.61719 h -4 V 65 Z m 20.297,-42.5781 v 23.789 h 4 v -23.789 z m 3.295,25.3136 c 1.332,-1.1311 2.783,-2.2547 4.355,-3.3701 l -2.315,-3.262 c -1.658,1.1762 -3.201,2.3704 -4.629,3.5829 z m 4.364,-3.3769 c 6.417,-4.6103 10.13,-9.7946 10.13,-15.6086 h -4 c 0,3.9256 -2.484,8.0642 -8.464,12.3601 z M 330.163,28.75 c 0,-2.7952 -0.838,-5.3812 -2.472,-7.7109 l -3.275,2.2968 c 1.179,1.6807 1.747,3.4697 1.747,5.4141 z m -2.465,-7.7009 c -1.74,-2.5136 -4.163,-3.9085 -7.152,-3.9085 v 4 c 1.543,0 2.791,0.6364 3.863,2.1853 z m -7.152,-3.9085 c -2.982,0 -5.552,1.4851 -7.69,3.9797 l 3.037,2.6032 c 1.611,-1.8805 3.156,-2.5829 4.653,-2.5829 z M 368.116,2.61719 V 0.617187 h -2 V 2.61719 Z m 24.649,0 h 2 V 0.617187 h -2 z m 3.711,44.02341 0.827,-1.8207 -0.003,-0.0013 z m 9.492,-4.2578 1.929,0.5289 0.002,-0.0071 z M 406.359,2.61719 V 0.617187 h -2 V 2.61719 Z m 21.601,0 h 2 V 0.617187 h -2 z M 399.171,64.5234 c -10.115,0 -17.329,-2.1571 -21.995,-6.1252 -4.605,-3.9152 -7.06,-9.8797 -7.06,-18.281 h -4 c 0,9.2029 2.721,16.4415 8.468,21.3283 5.685,4.8341 13.999,7.0779 24.587,7.0779 z M 370.116,40.1172 V 2.61719 h -4 V 40.1172 Z m -2,-35.50001 h 24.649 V 0.617187 h -24.649 z m 22.649,-2 V 39.4141 h 4 V 2.61719 Z m 0,36.79691 c 0,4.1475 1.434,7.4861 4.886,9.0486 l 1.649,-3.6441 c -1.495,-0.6771 -2.535,-2.1562 -2.535,-5.4045 z m 4.883,9.0473 c 1.179,0.536 2.504,0.7652 3.914,0.7652 v -4 c -0.987,0 -1.719,-0.1615 -2.259,-0.4067 z m 3.914,0.7652 c 2.011,0 3.849,-0.4832 5.347,-1.6157 1.499,-1.1341 2.458,-2.7678 2.988,-4.6992 l -3.858,-1.0578 c -0.356,1.2978 -0.907,2.0859 -1.543,2.5664 -0.638,0.4821 -1.56,0.8063 -2.934,0.8063 z m 8.337,-6.322 c 0.311,-1.1529 0.46,-2.3719 0.46,-3.6468 h -4 c 0,0.9647 -0.113,1.829 -0.322,2.6032 z m 0.46,-3.6468 V 2.61719 h -4 V 39.2578 Z m -2,-34.64061 H 427.96 V 0.617187 h -21.601 z m 19.601,-2 V 40.1172 h 4 V 2.61719 Z m 0,37.50001 c 0,8.4472 -2.294,14.4282 -6.549,18.3308 -4.288,3.9326 -10.911,6.0754 -20.24,6.0754 v 4 c 9.864,0 17.635,-2.2582 22.944,-7.1276 5.341,-4.8995 7.845,-12.1217 7.845,-21.2786 z M 444.984,2.61719 V 0.617187 h -2 V 2.61719 Z m 24.296,0 h 2 V 0.617187 h -2 z m 0,43.59371 h -2 v 2 h 2 z m 20.977,0 h 2 v -2 h -2 z m 0,18.7891 v 2 h 2 v -2 z m -45.273,0 h -2 v 2 h 2 z m 0,-60.38281 H 469.28 V 0.617187 h -24.296 z m 22.296,-2 V 46.2109 h 4 V 2.61719 Z m 2,45.59371 h 20.977 v -4 H 469.28 Z m 18.977,-2 V 65 h 4 V 46.2109 Z m 2,16.7891 h -45.273 v 4 h 45.273 z m -43.273,2 V 2.61719 h -4 V 65 Z M 504.312,2.61719 V 0.617187 h -2 V 2.61719 Z m 44.961,0 h 2 V 0.617187 h -2 z m 0,17.96871 v 2 h 2 v -2 z m -20.664,0 v -2 h -2 v 2 z m 0,5.1172 h -2 v 2 h 2 z m 20.585,0 h 2 v -2 h -2 z m 0,15.3125 v 2 h 2 v -2 z m -20.585,0 v -2 h -2 v 2 z m 0,5.8985 h -2 v 2 h 2 z m 22.031,0 h 2 v -2 h -2 z m 0,18.0859 v 2 h 2 v -2 z m -46.328,0 h -2 v 2 h 2 z m 0,-60.38281 h 44.961 V 0.617187 h -44.961 z m 42.961,-2 V 20.5859 h 4 V 2.61719 Z m 2,15.96871 h -20.664 v 4 h 20.664 z m -22.664,2 v 5.1172 h 4 v -5.1172 z m 2,7.1172 h 20.585 v -4 h -20.585 z m 18.585,-2 v 15.3125 h 4 V 25.7031 Z m 2,13.3125 h -20.585 v 4 h 20.585 z m -22.585,2 v 5.8985 h 4 v -5.8985 z m 2,7.8985 h 22.031 v -4 h -22.031 z m 20.031,-2 V 65 h 4 V 46.9141 Z m 2,16.0859 h -46.328 v 4 h 46.328 z m -44.328,2 V 2.61719 h -4 V 65 Z"
     fill="#000000"
     mask="url(#path-1-outside-1_1_6)"
     id="path3" />
  <mask
     id="path-3-outside-2_1_6"
     maskUnits="userSpaceOnUse"
     x="6.22925"
     y="2.11377"
     width="542"
     height="71"
     fill="#000000">
    <rect
       fill="#ffffff"
       x="6.22925"
       y="2.11377"
       width="542"
       height="71"
       id="rect3" />
    <path
       d="m 32.4167,70.6372 c -11.6927,0 -19.4531,-1.4453 -23.2812,-4.3359 V 48.4106 c 0.10416,0.0261 0.48177,0.1433 1.1328,0.3516 0.6771,0.2083 1.5234,0.4688 2.5391,0.7813 2.3698,0.7291 4.8567,1.4192 7.4609,2.0703 2.6302,0.625 4.7396,0.9375 6.3281,0.9375 2.6042,0 3.9063,-0.7943 3.9063,-2.3828 0,-1.224 -1.1198,-2.5261 -3.3594,-3.9063 -1.0156,-0.625 -2.1745,-1.276 -3.4766,-1.9531 -1.276,-0.6771 -2.5781,-1.4323 -3.9062,-2.2656 -3.2552,-2.0053 -5.8724,-4.349 -7.8516,-7.0313 C 9.95581,32.3299 8.97925,28.9445 8.97925,24.856 c 0,-8.9323 4.71355,-14.93494 14.14065,-18.00786 3.8281,-1.25 8.2422,-1.875 13.2422,-1.875 5.026,0 10.2734,0.57292 15.7421,1.71875 1.1198,0.23438 1.862,0.40365 2.2266,0.50782 V 25.1294 C 47.2475,23.619 42.1563,22.8638 39.0574,22.8638 c -1.1979,0 -2.0964,0.2083 -2.6953,0.625 -0.599,0.4166 -0.8985,0.8854 -0.8985,1.4062 0,0.5209 0.2604,1.0677 0.7813,1.6406 0.5208,0.5469 1.4192,1.1068 2.6953,1.6797 1.276,0.5469 2.7604,1.224 4.4531,2.0313 1.7188,0.7812 3.3203,1.6276 4.8047,2.539 6.6667,4.0886 10,9.6745 10,16.7579 0,6.7187 -2.2656,11.914 -6.7969,15.5859 -4.5833,3.6458 -10.9114,5.4818 -18.9844,5.5078 z M 123.698,27.0435 c -1.693,-0.6511 -3.503,-0.9766 -5.43,-0.9766 -3.958,0 -7.409,1.4453 -10.351,4.3359 -2.917,2.8646 -4.375,6.3021 -4.375,10.3125 0,2.6823 0.521,4.7787 1.562,6.2891 1.042,1.5104 2.461,2.2656 4.258,2.2656 1.797,0 3.776,-0.4557 5.938,-1.3672 2.187,-0.9375 5.39,-2.9557 9.609,-6.0547 v 25.4297 c -5.547,2.2396 -11.445,3.3594 -17.695,3.3594 -6.224,0 -11.9665,-1.1979 -17.2269,-3.5937 -8.3594,-3.8282 -13.8672,-9.8178 -16.5235,-17.9688 -0.8854,-2.7865 -1.3411,-5.8594 -1.3672,-9.2187 0,-3.3594 0.4167,-6.5756 1.25,-9.6485 0.8334,-3.0729 2.0443,-5.9114 3.6328,-8.5156 3.1771,-5.2344 7.6303,-9.3359 13.3594,-12.30469 5.7552,-2.96875 12.3434,-4.44011 19.7654,-4.41407 5.651,0 10.183,0.63803 13.594,1.91407 z M 179.393,6.73096 h 24.336 V 69.1138 H 179.393 V 46.0669 l -12.968,1.1328 V 69.1138 H 142.128 V 6.73096 h 24.297 V 29.27 l 12.968,-1.0547 z m 41.985,0 h 44.961 V 24.6997 h -20.664 v 5.1172 h 20.585 v 15.3125 h -20.585 v 5.8984 h 22.031 v 18.086 h -46.328 z m 63.625,0 c 15.807,-1.17188 26.119,-1.75782 30.937,-1.75782 4.844,0 8.659,0.45573 11.445,1.36719 2.813,0.88542 5.326,2.1224 7.54,3.71097 4.296,3.0468 7.539,7.0963 9.726,12.1484 2.214,5.0521 3.32,10.1693 3.32,15.3516 0,5.1823 -0.846,9.7135 -2.539,13.5937 -1.666,3.8542 -3.984,7.1094 -6.953,9.7656 -6.067,5.4948 -13.919,8.2292 -23.554,8.2032 H 285.003 Z M 309.3,26.5356 v 23.7891 c 1.38,-1.1719 2.877,-2.3307 4.492,-3.4766 6.198,-4.4531 9.297,-9.1145 9.297,-13.9843 0,-2.3698 -0.704,-4.5573 -2.11,-6.5625 -1.406,-2.0313 -3.242,-3.0469 -5.508,-3.0469 -2.239,0 -4.296,1.0937 -6.171,3.2812 z m 84.796,44.1016 c -20.703,0 -31.054,-8.8021 -31.054,-26.4062 V 6.73096 H 387.69 V 43.5278 c 0,3.6979 1.237,6.1068 3.711,7.2266 0.859,0.3906 1.888,0.5859 3.086,0.5859 3.385,0 5.521,-1.6146 6.406,-4.8437 0.261,-0.9636 0.391,-2.0052 0.391,-3.125 V 6.73096 h 21.601 V 44.231 c 0,17.6041 -9.596,26.4062 -28.789,26.4062 z M 439.909,6.73096 h 24.297 V 50.3247 h 20.976 v 18.7891 h -45.273 z m 59.328,0 h 44.961 V 24.6997 h -20.664 v 5.1172 h 20.586 v 15.3125 h -20.586 v 5.8984 h 22.031 v 18.086 h -46.328 z"
       id="path4" />
  </mask>
  <path
     d="m 32.4167,70.6372 c -11.6927,0 -19.4531,-1.4453 -23.2812,-4.3359 V 48.4106 c 0.10416,0.0261 0.48177,0.1433 1.1328,0.3516 0.6771,0.2083 1.5234,0.4688 2.5391,0.7813 2.3698,0.7291 4.8567,1.4192 7.4609,2.0703 2.6302,0.625 4.7396,0.9375 6.3281,0.9375 2.6042,0 3.9063,-0.7943 3.9063,-2.3828 0,-1.224 -1.1198,-2.5261 -3.3594,-3.9063 -1.0156,-0.625 -2.1745,-1.276 -3.4766,-1.9531 -1.276,-0.6771 -2.5781,-1.4323 -3.9062,-2.2656 -3.2552,-2.0053 -5.8724,-4.349 -7.8516,-7.0313 C 9.95581,32.3299 8.97925,28.9445 8.97925,24.856 c 0,-8.9323 4.71355,-14.93494 14.14065,-18.00786 3.8281,-1.25 8.2422,-1.875 13.2422,-1.875 5.026,0 10.2734,0.57292 15.7421,1.71875 1.1198,0.23438 1.862,0.40365 2.2266,0.50782 V 25.1294 C 47.2475,23.619 42.1563,22.8638 39.0574,22.8638 c -1.1979,0 -2.0964,0.2083 -2.6953,0.625 -0.599,0.4166 -0.8985,0.8854 -0.8985,1.4062 0,0.5209 0.2604,1.0677 0.7813,1.6406 0.5208,0.5469 1.4192,1.1068 2.6953,1.6797 1.276,0.5469 2.7604,1.224 4.4531,2.0313 1.7188,0.7812 3.3203,1.6276 4.8047,2.539 6.6667,4.0886 10,9.6745 10,16.7579 0,6.7187 -2.2656,11.914 -6.7969,15.5859 -4.5833,3.6458 -10.9114,5.4818 -18.9844,5.5078 z M 123.698,27.0435 c -1.693,-0.6511 -3.503,-0.9766 -5.43,-0.9766 -3.958,0 -7.409,1.4453 -10.351,4.3359 -2.917,2.8646 -4.375,6.3021 -4.375,10.3125 0,2.6823 0.521,4.7787 1.562,6.2891 1.042,1.5104 2.461,2.2656 4.258,2.2656 1.797,0 3.776,-0.4557 5.938,-1.3672 2.187,-0.9375 5.39,-2.9557 9.609,-6.0547 v 25.4297 c -5.547,2.2396 -11.445,3.3594 -17.695,3.3594 -6.224,0 -11.9665,-1.1979 -17.2269,-3.5937 -8.3594,-3.8282 -13.8672,-9.8178 -16.5235,-17.9688 -0.8854,-2.7865 -1.3411,-5.8594 -1.3672,-9.2187 0,-3.3594 0.4167,-6.5756 1.25,-9.6485 0.8334,-3.0729 2.0443,-5.9114 3.6328,-8.5156 3.1771,-5.2344 7.6303,-9.3359 13.3594,-12.30469 5.7552,-2.96875 12.3434,-4.44011 19.7654,-4.41407 5.651,0 10.183,0.63803 13.594,1.91407 z M 179.393,6.73096 h 24.336 V 69.1138 H 179.393 V 46.0669 l -12.968,1.1328 V 69.1138 H 142.128 V 6.73096 h 24.297 V 29.27 l 12.968,-1.0547 z m 41.985,0 h 44.961 V 24.6997 h -20.664 v 5.1172 h 20.585 v 15.3125 h -20.585 v 5.8984 h 22.031 v 18.086 h -46.328 z m 63.625,0 c 15.807,-1.17188 26.119,-1.75782 30.937,-1.75782 4.844,0 8.659,0.45573 11.445,1.36719 2.813,0.88542 5.326,2.1224 7.54,3.71097 4.296,3.0468 7.539,7.0963 9.726,12.1484 2.214,5.0521 3.32,10.1693 3.32,15.3516 0,5.1823 -0.846,9.7135 -2.539,13.5937 -1.666,3.8542 -3.984,7.1094 -6.953,9.7656 -6.067,5.4948 -13.919,8.2292 -23.554,8.2032 H 285.003 Z M 309.3,26.5356 v 23.7891 c 1.38,-1.1719 2.877,-2.3307 4.492,-3.4766 6.198,-4.4531 9.297,-9.1145 9.297,-13.9843 0,-2.3698 -0.704,-4.5573 -2.11,-6.5625 -1.406,-2.0313 -3.242,-3.0469 -5.508,-3.0469 -2.239,0 -4.296,1.0937 -6.171,3.2812 z m 84.796,44.1016 c -20.703,0 -31.054,-8.8021 -31.054,-26.4062 V 6.73096 H 387.69 V 43.5278 c 0,3.6979 1.237,6.1068 3.711,7.2266 0.859,0.3906 1.888,0.5859 3.086,0.5859 3.385,0 5.521,-1.6146 6.406,-4.8437 0.261,-0.9636 0.391,-2.0052 0.391,-3.125 V 6.73096 h 21.601 V 44.231 c 0,17.6041 -9.596,26.4062 -28.789,26.4062 z M 439.909,6.73096 h 24.297 V 50.3247 h 20.976 v 18.7891 h -45.273 z m 59.328,0 h 44.961 V 24.6997 h -20.664 v 5.1172 h 20.586 v 15.3125 h -20.586 v 5.8984 h 22.031 v 18.086 h -46.328 z"
     fill="#58cdc5"
     id="path5" />
  <path
     d="m 32.4167,70.6372 v 2 h 0.0065 z M 9.1355,66.3013 h -2 v 0.9959 l 0.79479,0.6002 z m 0,-17.8907 0.48507,-1.9402 -2.48507,-0.6213 v 2.5615 z m 1.1328,0.3516 -0.60954,1.9049 0.01067,0.0034 0.01071,0.0033 z m 10,2.8516 -0.4851,1.9403 0.0114,0.0028 0.0113,0.0027 z m 6.875,-5.3516 1.0493,-1.7026 -0.0011,-7e-4 z m -3.4766,-1.9531 -0.9374,1.7667 0.0074,0.0039 0.0073,0.0038 z m -3.9062,-2.2656 1.063,-1.6942 -0.007,-0.0044 -0.007,-0.0043 z m -7.8516,-7.0313 -1.6168,1.1773 0.0075,0.0102 z m 11.211,-28.16406 0.6198,1.90153 0.001,-3.1e-4 z m 28.9843,-0.15625 -0.4101,1.9575 4e-4,9e-5 z m 2.2266,0.50782 h 2 V 5.6911 L 54.8803,5.27666 Z m 0,17.92969 -0.4171,1.956 2.4171,0.5154 v -2.4714 z m -18.0859,1.4062 -1.4799,1.3454 0.0156,0.0172 0.016,0.0168 z m 2.6953,1.6797 -0.8192,1.8246 0.0156,0.007 0.0157,0.0067 z m 4.4531,2.0313 -0.8609,1.8052 0.0166,0.0079 0.0167,0.0076 z m 4.8047,2.539 -1.0465,1.7044 9e-4,6e-4 z m 3.2031,32.3438 1.2451,1.5652 0.0071,-0.0056 0.007,-0.0057 z m -18.9844,3.5078 c -5.7761,0 -10.5067,-0.3579 -14.2236,-1.0502 -3.749,-0.6982 -6.2957,-1.7064 -7.8524,-2.8818 l -2.41041,3.1922 c 2.27151,1.7151 5.51901,2.8749 9.53041,3.622 4.0436,0.7531 9.0394,1.1178 14.956,1.1178 z M 11.1355,66.3013 V 48.4106 h -4 V 66.3013 Z M 8.65043,50.3509 c -0.0137,-0.0034 0.04789,0.0135 0.2536,0.0773 0.18062,0.056 0.43141,0.1354 0.75473,0.2389 L 10.8779,46.8574 C 10.2675,46.662 9.8054,46.5166 9.62057,46.4704 Z m 1.02971,0.3229 c 0.14277,0.0439 0.11378,0.035 0.26184,0.0805 0.08302,0.0256 0.05257,0.0162 0.13692,0.0421 0.0425,0.0131 0.027,0.0084 0.0699,0.0216 0.0078,0.0024 0.0098,0.003 0.0176,0.0054 0.001,3e-4 0.0167,0.0051 0.0177,0.0054 0.0109,0.0034 0.0069,0.0022 0.0178,0.0055 0.0064,0.002 0.0024,8e-4 0.0089,0.0027 0.0015,5e-4 0.0029,10e-4 0.0044,0.0014 0.0015,5e-4 0.003,9e-4 0.0045,0.0014 0.0231,0.0071 0.1203,0.037 0.1448,0.0445 0.0902,0.0278 0.0572,0.0176 0.1488,0.0458 0.1864,0.0574 0.1177,0.0362 0.3094,0.0952 0.0976,0.0301 0.0618,0.019 0.1607,0.0495 0.0499,0.0153 0.0316,0.0097 0.0818,0.0251 0.0115,0.0036 0.0092,0.0029 0.0206,0.0064 0.0127,0.0039 0.008,0.0025 0.0207,0.0063 0.0127,0.0039 0.0081,0.0025 0.0207,0.0064 0.0075,0.0023 0.0029,9e-4 0.0104,0.0032 0.0018,6e-4 0.0035,0.0011 0.0052,0.0016 0.0018,6e-4 0.0035,0.0011 0.0052,0.0016 0.0723,0.0223 0.2636,0.0811 0.3412,0.105 0.2159,0.0664 0.136,0.0418 0.3571,0.1099 0.1121,0.0345 0.071,0.0218 0.1845,0.0567 0,0 0.1871,0.0576 0.1884,0.058 l 1.1763,-3.8231 c -0.2688,-0.0827 -0.1093,-0.0336 -0.3729,-0.1147 -0.1115,-0.0344 -0.0703,-0.0217 -0.1805,-0.0556 -0.0595,-0.0183 -0.1183,-0.0364 -0.1765,-0.0543 -0.0134,-0.0041 -0.0085,-0.0026 -0.0218,-0.0067 -0.0085,-0.0026 -0.0133,-0.0041 -0.0218,-0.0067 -0.0018,-6e-4 -0.0036,-0.0011 -0.0054,-0.0017 -0.0018,-5e-4 -0.0036,-0.0011 -0.0054,-0.0016 -0.0114,-0.0036 6e-4,1e-4 -0.0108,-0.0034 -0.0012,-3e-4 -0.0204,-0.0062 -0.0216,-0.0066 -0.0856,-0.0264 -5e-4,-2e-4 -0.0858,-0.0264 -0.019,-0.0058 -0.151,-0.0465 -0.1686,-0.0519 -0.1287,-0.0396 -0.2019,-0.0621 -0.3253,-0.1001 -0.2469,-0.0759 -0.3774,-0.1161 -0.6031,-0.1855 -0.0553,-0.0171 -0.0868,-0.0268 -0.1408,-0.0434 -0.0309,-0.0095 -0.0384,-0.0118 -0.0689,-0.0212 -0.0528,-0.0162 -0.0155,-0.0047 -0.068,-0.0209 -0.0206,-0.0063 -0.013,-0.004 -0.0336,-0.0103 -0.0167,-0.0052 -0.0167,-0.0052 -0.0333,-0.0103 -0.0014,-4e-4 -0.0028,-8e-4 -0.0042,-0.0013 -0.0014,-4e-4 -0.0027,-8e-4 -0.0041,-0.0012 -0.0014,-5e-4 -0.0028,-9e-4 -0.0042,-0.0013 -0.0013,-4e-4 -0.0027,-9e-4 -0.0041,-0.0013 -0.0147,-0.0045 -0.0019,-6e-4 -0.0165,-0.0051 C 11,46.8948 11.0037,46.8959 10.9854,46.8903 10.843,46.8465 10.9975,46.8941 10.8565,46.8506 Z m 2.53906,0.7812 c 2.4066,0.7405 4.9281,1.4401 7.564,2.0991 l 0.9702,-3.8806 C 18.181,49.0304 15.7286,48.3498 13.3955,47.6319 Z m 7.5867,2.1046 c 2.6919,0.6396 4.9752,0.9917 6.7905,0.9917 v -4 c -1.3617,0 -3.2972,-0.273 -5.8657,-0.8833 z m 6.7905,0.9917 c 1.4404,0 2.856,-0.208 3.9712,-0.8883 1.2759,-0.7783 1.9351,-2.0382 1.9351,-3.4945 h -4 c 0,0.1192 -0.0225,0.1261 8e-4,0.0834 0.0253,-0.0464 0.045,-0.0427 -0.0189,-0.0037 -0.1868,0.1139 -0.7243,0.3031 -1.8882,0.3031 z m 5.9063,-4.3828 c 0,-1.2524 -0.5764,-2.3299 -1.3235,-3.1987 -0.7455,-0.8668 -1.7743,-1.6631 -2.9866,-2.4102 l -2.0986,3.4052 c 1.0273,0.6332 1.6782,1.178 2.0525,1.6132 0.1819,0.2116 0.2737,0.3688 0.3178,0.4684 0.0214,0.0483 0.0307,0.0808 0.0347,0.0987 0.0021,0.009 0.0029,0.0151 0.0033,0.0184 4e-4,0.0033 4e-4,0.0049 4e-4,0.005 z m -4.3112,-5.6096 c -1.0646,-0.6552 -2.2666,-1.3298 -3.602,-2.0243 l -1.8455,3.5489 c 1.2687,0.6597 2.3845,1.2872 3.3511,1.882 z m -3.5873,-2.0165 c -1.2299,-0.6526 -2.4901,-1.3833 -3.7807,-2.1931 l -2.126,3.3883 c 1.3657,0.8569 2.7096,1.6366 4.0318,2.3382 z m -3.7947,-2.2018 c -3.0689,-1.8904 -5.4848,-4.0677 -7.2912,-6.5159 l -3.2187,2.375 c 2.1519,2.9164 4.9704,5.4266 8.4119,7.5466 z M 13.5257,33.8349 C 11.8746,31.5674 10.9792,28.6213 10.9792,24.856 H 6.97925 c 0,4.4117 1.05777,8.2364 3.31285,11.3335 z M 10.9792,24.856 c 0,-4.0978 1.0735,-7.3749 3.1082,-9.966 2.0485,-2.6087 5.204,-4.6903 9.6523,-6.14033 L 22.5,4.94662 C 17.5213,6.56953 13.6065,9.0257 10.9414,12.4196 8.26259,15.831 6.97925,20.0214 6.97925,24.856 Z M 23.7407,8.74936 C 27.3267,7.5784 31.5241,6.97314 36.3621,6.97314 v -4 c -5.1621,0 -9.7928,0.64475 -13.863,1.97379 z M 36.3621,6.97314 c 4.8739,0 9.9834,0.55558 15.332,1.67625 L 52.5144,4.7344 C 46.9255,3.5634 41.5402,2.97314 36.3621,2.97314 Z m 15.3324,1.67634 c 1.1319,0.2369 1.8032,0.39222 2.0869,0.47327 L 54.8803,5.27666 C 54.4348,5.14938 53.6217,4.96616 52.514,4.73431 Z M 52.3308,7.19971 V 25.1294 h 4 V 7.19971 Z M 54.7479,23.1734 C 47.6603,21.662 42.387,20.8638 39.0574,20.8638 v 4 c 2.8682,0 7.7772,0.7121 14.8563,2.2216 z M 39.0574,20.8638 c -1.3682,0 -2.7501,0.2268 -3.8375,0.9832 l 2.2843,3.2836 c 0.1106,-0.077 0.5255,-0.2668 1.5532,-0.2668 z m -3.8375,0.9832 c -0.9038,0.6287 -1.7563,1.6328 -1.7563,3.048 h 4 c 0,0.0646 -0.0097,0.1329 -0.0296,0.1985 -0.0195,0.0646 -0.044,0.1104 -0.0604,0.1361 -0.0291,0.0455 -0.0165,0.0033 0.1306,-0.099 z m -1.7563,3.048 c 0,1.213 0.6051,2.2201 1.3014,2.986 l 2.9598,-2.6907 C 37.5614,25.0106 37.491,24.8912 37.4647,24.8359 37.4416,24.7875 37.4636,24.8132 37.4636,24.895 Z m 1.333,3.02 c 0.7931,0.8327 1.9786,1.5207 3.3244,2.1249 l 1.6384,-3.6491 C 38.553,25.8492 37.9418,25.4174 37.6931,25.1563 Z m 3.3557,2.1386 c 1.2447,0.5334 2.7038,1.1987 4.3801,1.9982 l 1.7219,-3.6104 C 42.5451,27.6263 41.0354,26.9374 39.728,26.377 Z m 4.4134,2.0137 c 1.6496,0.7499 3.1775,1.5579 4.5858,2.4227 l 2.093,-3.4087 c -1.5604,-0.9582 -3.2357,-1.8428 -5.0236,-2.6555 z m 4.5867,2.4233 c 6.1476,3.7702 9.0456,8.7476 9.0456,15.0529 h 4 c 0,-7.8615 -3.7687,-14.0559 -10.9544,-18.4628 z m 9.0456,15.0529 c 0,6.2185 -2.0679,10.8003 -6.056,14.032 l 2.5183,3.1078 c 5.0744,-4.112 7.5377,-9.9209 7.5377,-17.1398 z m -6.0419,14.0207 c -4.1189,3.2764 -9.9547,5.0479 -17.7458,5.073 l 0.0129,4 c 8.3547,-0.027 15.1752,-1.9273 20.223,-5.9426 z m 73.5419,-36.5207 -0.718,1.8666 2.718,1.0454 v -2.912 z m -15.781,3.3593 1.401,1.4269 v -10e-5 z m 7.383,17.5 0.777,1.8429 0.01,-0.0046 z m 9.609,-6.0547 h 2 v -3.9507 l -3.184,2.3389 z m 0,25.4297 0.749,1.8546 1.251,-0.5052 v -1.3494 z m -34.9219,-0.2343 -0.8328,1.8184 0.0038,0.0017 z m -16.5235,-17.9688 -1.9061,0.6057 0.0023,0.007 0.0022,0.007 z M 72.0964,39.856 h -2 v 0.0077 l 1e-4,0.0078 z m 4.8828,-18.1641 1.7075,1.0415 0.0023,-0.0038 z M 90.3386,9.38721 89.4217,7.60975 89.4185,7.61145 Z m 19.7654,-4.41407 -0.007,2 h 0.007 z m 13.594,1.91407 h 2 V 5.49997 l -1.299,-0.48601 z m 0.718,18.28959 c -1.936,-0.7446 -3.991,-1.1099 -6.148,-1.1099 v 4 c 1.697,0 3.262,0.2857 4.712,0.8432 z m -6.148,-1.1099 c -4.506,0 -8.454,1.6683 -11.753,4.9091 l 2.803,2.8536 c 2.586,-2.5404 5.54,-3.7627 8.95,-3.7627 z m -11.753,4.909 c -3.291,3.2325 -4.973,7.1808 -4.973,11.7394 h 4 c 0,-3.4621 1.234,-6.3888 3.776,-8.8856 z m -4.973,11.7394 c 0,2.9097 0.56,5.4587 1.916,7.4246 l 3.293,-2.271 c -0.728,-1.055 -1.209,-2.6987 -1.209,-5.1536 z m 1.916,7.4246 c 1.405,2.038 3.433,3.1301 5.904,3.1301 v -4 c -1.123,0 -1.934,-0.4183 -2.611,-1.4011 z m 5.904,3.1301 c 2.132,0 4.379,-0.5393 6.715,-1.5243 L 114.522,46.06 c -1.987,0.8379 -3.698,1.21 -5.16,1.21 z m 6.725,-1.5289 c 2.414,-1.0345 5.775,-3.1729 10.006,-6.2811 l -2.368,-3.2237 c -4.206,3.0897 -7.252,4.9878 -9.213,5.8282 z m 6.822,-7.893 v 25.4297 h 4 V 41.8481 Z m 1.251,23.5752 c -5.298,2.1392 -10.941,3.2139 -16.946,3.2139 v 4 c 6.495,0 12.648,-1.1649 18.444,-3.5048 z m -16.946,3.2139 c -5.961,0 -11.4174,-1.1455 -16.398,-3.4139 l -1.6579,3.6403 c 5.5402,2.5233 11.5679,3.7736 18.0559,3.7736 z M 90.8198,65.2251 C 82.9272,61.6107 77.8347,56.033 75.3652,48.455 l -3.8032,1.2394 c 2.843,8.7241 8.7661,15.1255 17.5923,19.1675 z M 75.3697,48.469 c -0.8165,-2.5695 -1.2486,-5.4402 -1.2733,-8.6285 l -3.9999,0.031 c 0.0274,3.5304 0.5067,6.8055 1.461,9.8089 z m -1.2733,-8.613 c 0,-3.1924 0.3957,-6.2319 1.1803,-9.125 l -3.8605,-1.0469 c -0.8821,3.2527 -1.3198,6.6454 -1.3198,10.1719 z m 1.1803,-9.125 c 0.7861,-2.8986 1.924,-5.5616 3.41,-7.9976 l -3.4149,-2.083 c -1.6911,2.7724 -2.975,5.7864 -3.8556,9.0337 z M 78.689,22.7296 C 81.6651,17.8262 85.8372,13.9723 91.2588,11.163 L 89.4185,7.61145 C 83.3817,10.7396 78.6475,15.0888 75.2695,20.6542 Z M 91.2555,11.1647 C 96.6859,8.36348 102.949,6.94805 110.097,6.97313 l 0.014,-3.99997 C 102.415,2.94615 95.5018,4.47344 89.4217,7.60975 Z M 110.104,6.97314 c 5.529,0 9.794,0.62818 12.893,1.78731 l 1.402,-3.74649 C 120.675,3.62101 115.877,2.97314 110.104,2.97314 Z M 121.698,6.88721 V 27.0435 h 4 V 6.88721 Z m 57.695,-0.15625 v -2 h -2 v 2 z m 24.336,0 h 2 v -2 h -2 z m 0,62.38284 v 2 h 2 v -2 z m -24.336,0 h -2 v 2 h 2 z m 0,-23.0469 h 2 v -2.1823 l -2.174,0.1899 z m -12.968,1.1328 -0.174,-1.9924 -1.826,0.1595 v 1.8329 z m 0,21.9141 v 2 h 2 v -2 z m -24.297,0 h -2 v 2 h 2 z m 0,-62.38284 v -2 h -2 v 2 z m 24.297,0 h 2 v -2 h -2 z m 0,22.53904 h -2 v 2.1693 l 2.162,-0.1759 z m 12.968,-1.0547 0.162,1.9935 1.838,-0.1495 v -1.844 z m 0,-19.48434 h 24.336 v -4 h -24.336 z m 22.336,-2 V 69.1138 h 4 V 6.73096 Z m 2,60.38284 h -24.336 v 4 h 24.336 z m -22.336,2 V 46.0669 h -4 v 23.0469 z m -2.174,-25.0393 -12.968,1.1328 0.348,3.9848 12.968,-1.1328 z m -14.794,3.1252 v 21.9141 h 4 V 47.1997 Z m 2,19.9141 h -24.297 v 4 h 24.297 z m -22.297,2 V 6.73096 h -4 V 69.1138 Z m -2,-60.38284 h 24.297 v -4 h -24.297 z m 22.297,-2 V 29.27 h 4 V 6.73096 Z m 2.162,24.53244 12.968,-1.0546 -0.324,-3.9869 -12.969,1.0547 z m 14.806,-3.0481 V 6.73096 h -4 V 28.2153 Z M 221.378,6.73096 v -2 h -2 v 2 z m 44.961,0 h 2 v -2 h -2 z m 0,17.96874 v 2 h 2 v -2 z m -20.664,0 v -2 h -2 v 2 z m 0,5.1172 h -2 v 2 h 2 z m 20.585,0 h 2 v -2 h -2 z m 0,15.3125 v 2 h 2 v -2 z m -20.585,0 v -2 h -2 v 2 z m 0,5.8984 h -2 v 2 h 2 z m 22.031,0 h 2 v -2 h -2 z m 0,18.086 v 2 h 2 v -2 z m -46.328,0 h -2 v 2 h 2 z m 0,-60.38284 h 44.961 v -4 h -44.961 z m 42.961,-2 V 24.6997 h 4 V 6.73096 Z m 2,15.96874 h -20.664 v 4 h 20.664 z m -22.664,2 v 5.1172 h 4 v -5.1172 z m 2,7.1172 h 20.585 v -4 h -20.585 z m 18.585,-2 v 15.3125 h 4 V 29.8169 Z m 2,13.3125 h -20.585 v 4 h 20.585 z m -22.585,2 v 5.8984 h 4 v -5.8984 z m 2,7.8984 h 22.031 v -4 h -22.031 z m 20.031,-2 v 18.086 h 4 v -18.086 z m 2,16.086 h -46.328 v 4 h 46.328 z m -44.328,2 V 6.73096 h -4 V 69.1138 Z m 61.625,-62.38284 -0.148,-1.99453 -1.852,0.13731 v 1.85722 z m 42.382,-0.39063 -0.621,1.90089 0.01,0.00347 0.011,0.00334 z m 7.54,3.71097 -1.167,1.6249 0.01,0.0065 z m 9.726,12.1484 -1.835,0.7947 0.003,0.0079 z m 0.781,28.9453 -1.833,-0.7997 -0.002,0.0059 z m -6.953,9.7656 -1.333,-1.4905 -0.009,0.0081 z m -23.554,8.2032 0.005,-2 h -0.005 z m -29.922,0 h -2 v 2 h 2 z M 309.3,26.5356 307.781,25.2341 307.3,25.7958 v 0.7398 z m 0,23.7891 h -2 v 4.3218 l 3.294,-2.7972 z m 4.492,-3.4766 1.157,1.6311 0.01,-0.0068 z m 7.187,-20.5468 -1.644,1.1384 0.007,0.0099 z M 285.151,8.72548 C 300.975,7.55232 311.21,6.97314 315.94,6.97314 v -4 c -4.906,0 -15.295,0.59271 -31.085,1.76329 z M 315.94,6.97314 c 4.751,0 8.326,0.45112 10.824,1.26808 l 1.243,-3.80178 c -3.075,-1.00595 -7.131,-1.4663 -12.067,-1.4663 z m 10.845,1.27489 c 2.627,0.82695 4.946,1.97297 6.973,3.42807 l 2.333,-3.24971 c -2.4,-1.72196 -5.107,-3.04988 -8.105,-3.99376 z m 6.983,3.43467 c 3.984,2.8255 6.999,6.5795 9.048,11.3117 l 3.67,-1.5894 C 344.16,16.0331 340.691,11.6881 336.081,8.4198 Z m 9.051,11.3196 c 2.11,4.8156 3.152,9.6605 3.152,14.549 h 4 c 0,-5.4761 -1.171,-10.8656 -3.488,-16.1542 z m 3.152,14.549 c 0,4.9672 -0.811,9.2159 -2.372,12.794 l 3.667,1.5994 c 1.824,-4.1823 2.705,-8.9961 2.705,-14.3934 z m -2.374,12.7999 c -1.558,3.603 -3.71,6.6162 -6.451,9.069 l 2.667,2.9809 c 3.196,-2.8597 5.68,-6.357 7.455,-10.4623 z m -6.46,9.077 c -5.635,5.1025 -12.976,7.7105 -22.207,7.6856 l -0.011,4 c 10.04,0.0271 18.402,-2.8336 24.903,-8.7207 z m -22.212,7.6856 h -29.922 v 4 h 29.922 z m -27.922,2 V 6.73096 h -4 V 69.1138 Z M 307.3,26.5356 v 23.7891 h 4 V 26.5356 Z m 3.294,25.3137 c 1.332,-1.1312 2.784,-2.2547 4.355,-3.3701 l -2.315,-3.2621 c -1.657,1.1763 -3.201,2.3704 -4.629,3.583 z m 4.365,-3.3769 c 6.416,-4.6103 10.13,-9.7946 10.13,-15.6086 h -4 c 0,3.9256 -2.485,8.0642 -8.464,12.3601 z m 10.13,-15.6086 c 0,-2.7952 -0.839,-5.3812 -2.472,-7.7109 l -3.275,2.2967 c 1.179,1.6808 1.747,3.4697 1.747,5.4142 z m -2.465,-7.701 c -1.741,-2.5135 -4.164,-3.9084 -7.153,-3.9084 v 4 c 1.543,0 2.792,0.6363 3.864,2.1853 z m -7.153,-3.9084 c -2.981,0 -5.552,1.4851 -7.69,3.9797 l 3.037,2.6031 c 1.612,-1.8804 3.156,-2.5828 4.653,-2.5828 z M 363.042,6.73096 v -2 h -2 v 2 z m 24.648,0 h 2 v -2 h -2 z m 3.711,44.02344 0.828,-1.8207 -0.003,-0.0013 z m 9.492,-4.2578 1.929,0.5289 0.002,-0.0071 z m 0.391,-39.76564 v -2 h -2 v 2 z m 21.601,0 h 2 v -2 h -2 z M 394.096,68.6372 c -10.115,0 -17.328,-2.1572 -21.995,-6.1252 -4.604,-3.9152 -7.059,-9.8798 -7.059,-18.281 h -4 c 0,9.2028 2.721,16.4414 8.468,21.3283 5.685,4.834 13.999,7.0779 24.586,7.0779 z M 365.042,44.231 V 6.73096 h -4 V 44.231 Z m -2,-35.50004 h 24.648 v -4 h -24.648 z m 22.648,-2 V 43.5278 h 4 V 6.73096 Z m 0,36.79684 c 0,4.1476 1.434,7.4861 4.886,9.0486 l 1.65,-3.644 c -1.496,-0.6771 -2.536,-2.1563 -2.536,-5.4046 z m 4.884,9.0473 c 1.179,0.5361 2.504,0.7652 3.913,0.7652 v -4 c -0.987,0 -1.719,-0.1614 -2.258,-0.4066 z m 3.913,0.7652 c 2.012,0 3.849,-0.4831 5.347,-1.6156 1.5,-1.1341 2.459,-2.7678 2.988,-4.6993 l -3.857,-1.0577 c -0.356,1.2977 -0.908,2.0859 -1.544,2.5664 -0.637,0.4821 -1.56,0.8062 -2.934,0.8062 z m 8.337,-6.3219 c 0.312,-1.1529 0.46,-2.3719 0.46,-3.6468 h -4 c 0,0.9646 -0.112,1.829 -0.321,2.6032 z m 0.46,-3.6468 V 6.73096 h -4 V 43.3716 Z m -2,-34.64064 h 21.601 v -4 h -21.601 z m 19.601,-2 V 44.231 h 4 V 6.73096 Z m 0,37.50004 c 0,8.4472 -2.294,14.4281 -6.549,18.3308 -4.287,3.9326 -10.911,6.0754 -20.24,6.0754 v 4 c 9.864,0 17.635,-2.2582 22.944,-7.1277 5.342,-4.8994 7.845,-12.1216 7.845,-21.2785 z M 439.909,6.73096 v -2 h -2 v 2 z m 24.297,0 h 2 v -2 h -2 z m 0,43.59374 h -2 v 2 h 2 z m 20.976,0 h 2 v -2 h -2 z m 0,18.7891 v 2 h 2 v -2 z m -45.273,0 h -2 v 2 h 2 z m 0,-60.38284 h 24.297 v -4 h -24.297 z m 22.297,-2 V 50.3247 h 4 V 6.73096 Z m 2,45.59374 h 20.976 v -4 h -20.976 z m 18.976,-2 v 18.7891 h 4 V 50.3247 Z m 2,16.7891 h -45.273 v 4 h 45.273 z m -43.273,2 V 6.73096 h -4 V 69.1138 Z M 499.237,6.73096 v -2 h -2 v 2 z m 44.961,0 h 2 v -2 h -2 z m 0,17.96874 v 2 h 2 v -2 z m -20.664,0 v -2 h -2 v 2 z m 0,5.1172 h -2 v 2 h 2 z m 20.586,0 h 2 v -2 h -2 z m 0,15.3125 v 2 h 2 v -2 z m -20.586,0 v -2 h -2 v 2 z m 0,5.8984 h -2 v 2 h 2 z m 22.031,0 h 2 v -2 h -2 z m 0,18.086 v 2 h 2 v -2 z m -46.328,0 h -2 v 2 h 2 z m 0,-60.38284 h 44.961 v -4 h -44.961 z m 42.961,-2 V 24.6997 h 4 V 6.73096 Z m 2,15.96874 h -20.664 v 4 h 20.664 z m -22.664,2 v 5.1172 h 4 v -5.1172 z m 2,7.1172 h 20.586 v -4 h -20.586 z m 18.586,-2 v 15.3125 h 4 V 29.8169 Z m 2,13.3125 h -20.586 v 4 h 20.586 z m -22.586,2 v 5.8984 h 4 v -5.8984 z m 2,7.8984 h 22.031 v -4 h -22.031 z m 20.031,-2 v 18.086 h 4 v -18.086 z m 2,16.086 h -46.328 v 4 h 46.328 z m -44.328,2 V 6.73096 h -4 V 69.1138 Z"
     fill="#000000"
     mask="url(#path-3-outside-2_1_6)"
     id="path6" />
  <mask
     id="path-5-outside-3_1_6"
     maskUnits="userSpaceOnUse"
     x="1"
     y="8.22754"
     width="542"
     height="71"
     fill="#000000">
    <rect
       fill="#ffffff"
       x="1"
       y="8.22754"
       width="542"
       height="71"
       id="rect6" />
    <path
       d="M 27.1875,76.751 C 15.4948,76.751 7.73438,75.3057 3.90625,72.415 V 54.5244 c 0.10417,0.0261 0.48177,0.1432 1.13281,0.3516 0.67709,0.2083 1.52344,0.4687 2.53907,0.7812 2.36979,0.7292 4.85677,1.4193 7.46097,2.0703 2.6302,0.625 4.7395,0.9375 6.3281,0.9375 2.6042,0 3.9062,-0.7942 3.9062,-2.3828 0,-1.2239 -1.1198,-2.526 -3.3593,-3.9062 -1.0157,-0.625 -2.1745,-1.2761 -3.4766,-1.9531 -1.276,-0.6771 -2.5781,-1.4323 -3.9062,-2.2657 C 11.276,46.152 8.65885,43.8083 6.67969,41.126 4.72656,38.4437 3.75,35.0583 3.75,30.9697 c 0,-8.9323 4.71354,-14.9349 14.1406,-18.0078 3.8282,-1.25 8.2422,-1.875 13.2422,-1.875 5.0261,0 10.2734,0.5729 15.7422,1.7188 1.1198,0.2343 1.862,0.4036 2.2266,0.5078 v 17.9297 c -7.0834,-1.5105 -12.1745,-2.2657 -15.2735,-2.2657 -1.1979,0 -2.0963,0.2084 -2.6953,0.625 -0.5989,0.4167 -0.8984,0.8855 -0.8984,1.4063 0,0.5208 0.2604,1.0677 0.7812,1.6406 0.5209,0.5469 1.4193,1.1068 2.6953,1.6797 1.2761,0.5469 2.7605,1.224 4.4532,2.0313 1.7187,0.7812 3.3203,1.6276 4.8047,2.539 6.6666,4.0886 10,9.6745 10,16.7578 0,6.7188 -2.2657,11.9141 -6.7969,15.586 -4.5834,3.6458 -10.9115,5.4817 -18.9844,5.5078 z M 118.469,33.1572 c -1.693,-0.651 -3.503,-0.9765 -5.43,-0.9765 -3.958,0 -7.409,1.4453 -10.351,4.3359 -2.9172,2.8646 -4.3755,6.3021 -4.3755,10.3125 0,2.6823 0.5208,4.7786 1.5625,6.2891 1.042,1.5104 2.461,2.2656 4.258,2.2656 1.797,0 3.776,-0.4557 5.937,-1.3672 2.188,-0.9375 5.391,-2.9557 9.61,-6.0547 v 25.4297 c -5.547,2.2396 -11.446,3.3594 -17.696,3.3594 -6.2236,0 -11.9658,-1.1979 -17.2262,-3.5938 C 76.3984,69.3291 70.8906,63.3395 68.2344,55.1885 67.349,52.402 66.8932,49.3291 66.8672,45.9697 c 0,-3.3593 0.4167,-6.5755 1.25,-9.6484 0.8333,-3.0729 2.0443,-5.9115 3.6328,-8.5156 3.1771,-5.2344 7.6302,-9.336 13.3594,-12.3047 5.7552,-2.9688 12.3437,-4.4401 19.7656,-4.4141 5.651,0 10.182,0.638 13.594,1.9141 z M 174.164,12.8447 H 198.5 V 75.2275 H 174.164 V 52.1807 l -12.969,1.1328 v 21.914 H 136.898 V 12.8447 h 24.297 v 22.5391 l 12.969,-1.0547 z m 41.984,0 h 44.961 v 17.9688 h -20.664 v 5.1172 h 20.586 v 15.3125 h -20.586 v 5.8984 h 22.032 v 18.0859 h -46.329 z m 63.625,0 c 15.808,-1.1718 26.12,-1.7578 30.938,-1.7578 4.844,0 8.659,0.4557 11.445,1.3672 2.813,0.8854 5.326,2.1224 7.539,3.7109 4.297,3.0469 7.539,7.0964 9.727,12.1485 2.213,5.0521 3.32,10.1692 3.32,15.3515 0,5.1823 -0.846,9.7136 -2.539,13.5938 -1.667,3.8542 -3.984,7.1094 -6.953,9.7656 -6.068,5.4948 -13.919,8.2292 -23.555,8.2031 h -29.922 z m 24.297,19.8047 v 23.7891 c 1.381,-1.1719 2.878,-2.3308 4.492,-3.4766 6.198,-4.4531 9.297,-9.1146 9.297,-13.9844 0,-2.3698 -0.703,-4.5573 -2.109,-6.5625 -1.406,-2.0312 -3.242,-3.0468 -5.508,-3.0468 -2.239,0 -4.297,1.0937 -6.172,3.2812 z m 84.797,44.1016 c -20.703,0 -31.055,-8.8021 -31.055,-26.4063 v -37.5 h 24.649 v 36.7969 c 0,3.6979 1.237,6.1068 3.711,7.2266 0.859,0.3906 1.888,0.5859 3.086,0.5859 3.385,0 5.521,-1.6146 6.406,-4.8437 0.26,-0.9636 0.391,-2.0053 0.391,-3.125 V 12.8447 h 21.601 v 37.5 c 0,17.6042 -9.596,26.4063 -28.789,26.4063 z M 434.68,12.8447 h 24.297 v 43.5938 h 20.976 v 18.789 H 434.68 Z m 59.328,0 h 44.961 v 17.9688 h -20.664 v 5.1172 h 20.586 v 15.3125 h -20.586 v 5.8984 h 22.031 v 18.0859 h -46.328 z"
       id="path7" />
  </mask>
  <path
     d="M 27.1875,76.751 C 15.4948,76.751 7.73438,75.3057 3.90625,72.415 V 54.5244 c 0.10417,0.0261 0.48177,0.1432 1.13281,0.3516 0.67709,0.2083 1.52344,0.4687 2.53907,0.7812 2.36979,0.7292 4.85677,1.4193 7.46097,2.0703 2.6302,0.625 4.7395,0.9375 6.3281,0.9375 2.6042,0 3.9062,-0.7942 3.9062,-2.3828 0,-1.2239 -1.1198,-2.526 -3.3593,-3.9062 -1.0157,-0.625 -2.1745,-1.2761 -3.4766,-1.9531 -1.276,-0.6771 -2.5781,-1.4323 -3.9062,-2.2657 C 11.276,46.152 8.65885,43.8083 6.67969,41.126 4.72656,38.4437 3.75,35.0583 3.75,30.9697 c 0,-8.9323 4.71354,-14.9349 14.1406,-18.0078 3.8282,-1.25 8.2422,-1.875 13.2422,-1.875 5.0261,0 10.2734,0.5729 15.7422,1.7188 1.1198,0.2343 1.862,0.4036 2.2266,0.5078 v 17.9297 c -7.0834,-1.5105 -12.1745,-2.2657 -15.2735,-2.2657 -1.1979,0 -2.0963,0.2084 -2.6953,0.625 -0.5989,0.4167 -0.8984,0.8855 -0.8984,1.4063 0,0.5208 0.2604,1.0677 0.7812,1.6406 0.5209,0.5469 1.4193,1.1068 2.6953,1.6797 1.2761,0.5469 2.7605,1.224 4.4532,2.0313 1.7187,0.7812 3.3203,1.6276 4.8047,2.539 6.6666,4.0886 10,9.6745 10,16.7578 0,6.7188 -2.2657,11.9141 -6.7969,15.586 -4.5834,3.6458 -10.9115,5.4817 -18.9844,5.5078 z M 118.469,33.1572 c -1.693,-0.651 -3.503,-0.9765 -5.43,-0.9765 -3.958,0 -7.409,1.4453 -10.351,4.3359 -2.9172,2.8646 -4.3755,6.3021 -4.3755,10.3125 0,2.6823 0.5208,4.7786 1.5625,6.2891 1.042,1.5104 2.461,2.2656 4.258,2.2656 1.797,0 3.776,-0.4557 5.937,-1.3672 2.188,-0.9375 5.391,-2.9557 9.61,-6.0547 v 25.4297 c -5.547,2.2396 -11.446,3.3594 -17.696,3.3594 -6.2236,0 -11.9658,-1.1979 -17.2262,-3.5938 C 76.3984,69.3291 70.8906,63.3395 68.2344,55.1885 67.349,52.402 66.8932,49.3291 66.8672,45.9697 c 0,-3.3593 0.4167,-6.5755 1.25,-9.6484 0.8333,-3.0729 2.0443,-5.9115 3.6328,-8.5156 3.1771,-5.2344 7.6302,-9.336 13.3594,-12.3047 5.7552,-2.9688 12.3437,-4.4401 19.7656,-4.4141 5.651,0 10.182,0.638 13.594,1.9141 z M 174.164,12.8447 H 198.5 V 75.2275 H 174.164 V 52.1807 l -12.969,1.1328 v 21.914 H 136.898 V 12.8447 h 24.297 v 22.5391 l 12.969,-1.0547 z m 41.984,0 h 44.961 v 17.9688 h -20.664 v 5.1172 h 20.586 v 15.3125 h -20.586 v 5.8984 h 22.032 v 18.0859 h -46.329 z m 63.625,0 c 15.808,-1.1718 26.12,-1.7578 30.938,-1.7578 4.844,0 8.659,0.4557 11.445,1.3672 2.813,0.8854 5.326,2.1224 7.539,3.7109 4.297,3.0469 7.539,7.0964 9.727,12.1485 2.213,5.0521 3.32,10.1692 3.32,15.3515 0,5.1823 -0.846,9.7136 -2.539,13.5938 -1.667,3.8542 -3.984,7.1094 -6.953,9.7656 -6.068,5.4948 -13.919,8.2292 -23.555,8.2031 h -29.922 z m 24.297,19.8047 v 23.7891 c 1.381,-1.1719 2.878,-2.3308 4.492,-3.4766 6.198,-4.4531 9.297,-9.1146 9.297,-13.9844 0,-2.3698 -0.703,-4.5573 -2.109,-6.5625 -1.406,-2.0312 -3.242,-3.0468 -5.508,-3.0468 -2.239,0 -4.297,1.0937 -6.172,3.2812 z m 84.797,44.1016 c -20.703,0 -31.055,-8.8021 -31.055,-26.4063 v -37.5 h 24.649 v 36.7969 c 0,3.6979 1.237,6.1068 3.711,7.2266 0.859,0.3906 1.888,0.5859 3.086,0.5859 3.385,0 5.521,-1.6146 6.406,-4.8437 0.26,-0.9636 0.391,-2.0053 0.391,-3.125 V 12.8447 h 21.601 v 37.5 c 0,17.6042 -9.596,26.4063 -28.789,26.4063 z M 434.68,12.8447 h 24.297 v 43.5938 h 20.976 v 18.789 H 434.68 Z m 59.328,0 h 44.961 v 17.9688 h -20.664 v 5.1172 h 20.586 v 15.3125 h -20.586 v 5.8984 h 22.031 v 18.0859 h -46.328 z"
     fill="#c14500"
     id="path8" />
  <path
     d="m 27.1875,76.751 v 2 H 27.194 Z M 3.90625,72.415 h -2 v 0.996 l 0.79479,0.6001 z m 0,-17.8906 0.48507,-1.9403 -2.48507,-0.6212 v 2.5615 z m 1.13281,0.3516 -0.60955,1.9048 0.01067,0.0034 0.01071,0.0033 z m 10.00004,2.8515 -0.4851,1.9403 0.0113,0.0029 0.0114,0.0027 z m 6.875,-5.3515 1.0493,-1.7027 -0.0011,-6e-4 z m -3.4766,-1.9531 -0.9374,1.7666 0.0073,0.0039 0.0074,0.0039 z m -3.9062,-2.2657 1.0629,-1.6941 -0.007,-0.0044 -0.007,-0.0043 z m -7.85161,-7.0312 -1.61683,1.1773 0.0075,0.0101 z m 11.21091,-28.1641 0.6199,1.9015 9e-4,-3e-4 z m 28.9844,-0.1562 -0.4101,1.9575 h 4e-4 z m 2.2266,0.5078 h 2 V 11.8049 L 49.651,11.3904 Z m 0,17.9297 -0.4171,1.956 2.4171,0.5154 v -2.4714 z m -18.086,1.4062 -1.4799,1.3454 0.0157,0.0171 0.0159,0.0168 z m 2.6953,1.6797 -0.8191,1.8245 0.0156,0.0071 0.0157,0.0067 z m 4.4532,2.0313 -0.861,1.8052 0.0166,0.0079 0.0168,0.0076 z m 4.8047,2.539 -1.0466,1.7044 0.001,5e-4 z m 3.2031,32.3438 1.245,1.5652 0.0071,-0.0057 0.007,-0.0057 z M 27.1875,74.751 c -5.7761,0 -10.5068,-0.358 -14.2237,-1.0502 C 9.21481,73.0026 6.66812,71.9944 5.11146,70.819 l -2.41042,3.1921 c 2.27146,1.7152 5.51905,2.875 9.53046,3.6221 4.0435,0.7531 9.0394,1.1178 14.956,1.1178 z M 5.90625,72.415 V 54.5244 h -4 V 72.415 Z M 3.42118,56.4647 c -0.0137,-0.0034 0.04789,0.0134 0.2536,0.0773 0.18062,0.056 0.43141,0.1354 0.75473,0.2388 l 1.2191,-3.8097 C 5.0382,52.7758 4.57615,52.6303 4.39132,52.5841 Z m 1.02971,0.3228 c 0.14277,0.044 0.11378,0.035 0.26184,0.0806 0.08298,0.0255 0.05258,0.0162 0.13687,0.0421 0.04257,0.0131 0.02703,0.0083 0.06993,0.0215 0.00782,0.0024 0.00979,0.003 0.01763,0.0055 9.7e-4,3e-4 0.01672,0.0051 0.0177,0.0054 0.01084,0.0033 0.0069,0.0021 0.01776,0.0055 0.00643,0.0019 0.00247,7e-4 0.0089,0.0027 0.00149,5e-4 0.00297,9e-4 0.00446,0.0014 0.00149,4e-4 0.00297,9e-4 0.00446,0.0014 0.02314,0.0071 0.12034,0.037 0.14481,0.0445 0.09025,0.0278 0.0572,0.0176 0.14877,0.0458 0.18641,0.0573 0.11775,0.0362 0.30945,0.0952 0.0976,0.03 0.06175,0.019 0.16067,0.0494 0.04986,0.0154 0.03164,0.0098 0.08183,0.0252 0.01143,0.0035 0.00916,0.0028 0.02061,0.0064 0.01263,0.0038 0.00802,0.0024 0.02067,0.0063 0.01267,0.0039 0.00806,0.0025 0.02074,0.0064 0.0075,0.0023 0.00288,9e-4 0.01039,0.0032 0.00173,5e-4 0.00347,0.0011 0.0052,0.0016 0.00174,5e-4 0.00347,0.0011 0.00521,0.0016 0.07229,0.0222 0.2636,0.0811 0.34118,0.105 0.21584,0.0664 0.13593,0.0418 0.35706,0.1098 0.11215,0.0345 0.071,0.0219 0.18448,0.0568 0,0 0.18712,0.0576 0.18844,0.058 L 8.1663,53.7457 C 7.8974,53.6629 8.05698,53.712 7.79337,53.6309 7.68185,53.5966 7.72306,53.6093 7.61286,53.5754 7.55335,53.5571 7.4945,53.539 7.43632,53.5211 7.42298,53.517 7.42784,53.5185 7.41453,53.5144 7.40607,53.5118 7.40124,53.5103 7.3928,53.5077 7.39099,53.5071 7.38918,53.5066 7.38738,53.506 7.38557,53.5054 7.38377,53.5049 7.38196,53.5043 7.37054,53.5008 7.38255,53.5045 7.37113,53.501 7.36993,53.5006 7.35071,53.4947 7.34953,53.4944 7.2639,53.468 7.34904,53.4942 7.26374,53.468 7.24478,53.4621 7.11276,53.4215 7.09513,53.4161 6.96641,53.3765 6.89324,53.354 6.76981,53.316 6.52296,53.24 6.39248,53.1999 6.16678,53.1304 6.11146,53.1134 6.07995,53.1037 6.02595,53.0871 5.99509,53.0776 5.98754,53.0753 5.95701,53.0659 5.90423,53.0496 5.94153,53.0611 5.88908,53.045 5.86847,53.0386 5.876,53.041 5.85548,53.0346 5.83878,53.0295 5.83874,53.0295 5.82213,53.0244 5.82074,53.024 5.81936,53.0235 5.81798,53.0231 5.81659,53.0227 5.81521,53.0223 5.81383,53.0218 5.81245,53.0214 5.81107,53.021 5.80968,53.0206 5.8083,53.0201 5.80692,53.0197 5.80555,53.0193 5.79087,53.0148 5.80368,53.0187 5.78903,53.0142 5.7707,53.0086 5.77441,53.0097 5.75617,53.0041 5.61379,52.9603 5.76829,53.0078 5.62723,52.9644 Z m 2.53906,0.7813 c 2.40655,0.7405 4.92805,1.44 7.56405,2.099 l 0.9701,-3.8805 C 12.9518,55.1442 10.4993,54.4635 8.1663,53.7457 Z m 7.58675,2.1046 c 2.6919,0.6396 4.9752,0.9916 6.7905,0.9916 v -4 c -1.3618,0 -3.2972,-0.2729 -5.8658,-0.8833 z m 6.7905,0.9916 c 1.4403,0 2.8559,-0.2079 3.9712,-0.8883 1.2758,-0.7782 1.935,-2.0382 1.935,-3.4945 h -4 c 0,0.1192 -0.0225,0.1261 8e-4,0.0835 0.0254,-0.0464 0.0451,-0.0427 -0.0188,-0.0038 -0.1869,0.114 -0.7244,0.3031 -1.8882,0.3031 z m 5.9062,-4.3828 c 0,-1.2523 -0.5763,-2.3298 -1.3234,-3.1986 -0.7455,-0.8669 -1.7744,-1.6632 -2.9866,-2.4103 l -2.0986,3.4053 c 1.0273,0.6331 1.6781,1.178 2.0524,1.6132 0.182,0.2116 0.2737,0.3687 0.3179,0.4683 0.0214,0.0484 0.0307,0.0809 0.0347,0.0987 0.002,0.0091 0.0029,0.0151 0.0033,0.0185 3e-4,0.0033 3e-4,0.0048 3e-4,0.0049 z m -4.3111,-5.6095 c -1.0647,-0.6552 -2.2666,-1.3298 -3.6021,-2.0243 l -1.8454,3.5489 c 1.2687,0.6597 2.3844,1.2871 3.3511,1.882 z M 19.3749,48.6562 C 18.145,48.0036 16.8848,47.2729 15.5942,46.4631 l -2.1259,3.3883 c 1.3656,0.8568 2.7096,1.6366 4.0318,2.3381 z M 15.5802,46.4544 C 12.5113,44.5639 10.0954,42.3867 8.28901,39.9385 l -3.21865,2.3749 c 2.1519,2.9164 4.97044,5.4267 8.41194,7.5467 z M 8.29648,39.9487 C 6.64536,37.6812 5.75,34.735 5.75,30.9697 h -4 c 0,4.4118 1.05777,8.2365 3.31289,11.3336 z M 5.75,30.9697 c 0,-4.0977 1.07343,-7.3748 3.10815,-9.966 2.04845,-2.6087 5.20395,-4.6903 9.65235,-6.1403 l -1.2397,-3.803 C 12.292,12.6833 8.37722,15.1395 5.71216,18.5334 3.03334,21.9448 1.75,26.1352 1.75,30.9697 Z M 18.5114,14.8631 c 3.5861,-1.1709 7.7835,-1.7762 12.6214,-1.7762 V 9.08691 c -5.162,0 -9.7928,0.64475 -13.863,1.97379 z m 12.6214,-1.7762 c 4.8739,0 9.9834,0.5556 15.3321,1.6763 l 0.8202,-3.915 C 41.6963,9.67717 36.311,9.08691 31.1328,9.08691 Z m 15.3325,1.6763 c 1.1319,0.237 1.8031,0.3923 2.0868,0.4733 l 1.0989,-3.8461 c -0.4455,-0.1272 -1.2586,-0.3105 -2.3663,-0.5423 z m 0.6363,-1.4497 v 17.9297 h 4 V 13.3135 Z m 2.4171,15.9736 C 42.4311,27.7758 37.1578,26.9775 33.8281,26.9775 v 4 c 2.8683,0 7.7773,0.7122 14.8564,2.2217 z M 33.8281,26.9775 c -1.3682,0 -2.7501,0.2268 -3.8374,0.9832 l 2.2842,3.2836 c 0.1106,-0.0769 0.5256,-0.2668 1.5532,-0.2668 z m -3.8374,0.9832 c -0.9038,0.6288 -1.7563,1.6328 -1.7563,3.0481 h 4 c 0,0.0646 -0.0098,0.1329 -0.0296,0.1984 -0.0196,0.0647 -0.044,0.1105 -0.0604,0.1362 -0.0291,0.0455 -0.0165,0.0033 0.1305,-0.0991 z m -1.7563,3.0481 c 0,1.213 0.6051,2.2201 1.3013,2.986 l 2.9598,-2.6907 c -0.1633,-0.1797 -0.2338,-0.2991 -0.2601,-0.3544 -0.0231,-0.0484 -10e-4,-0.0228 -10e-4,0.0591 z m 1.3329,3.0199 c 0.7931,0.8327 1.9787,1.5207 3.3245,2.1249 l 1.6383,-3.649 c -1.2063,-0.5417 -1.8176,-0.9735 -2.0662,-1.2345 z m 3.3558,2.1387 c 1.2447,0.5334 2.7037,1.1987 4.38,1.9982 L 39.025,34.5551 C 37.3159,33.74 35.8062,33.0511 34.4988,32.4908 Z m 4.4134,2.0137 c 1.6496,0.7498 3.1774,1.5579 4.5857,2.4227 l 2.0931,-3.4087 c -1.5605,-0.9582 -3.2358,-1.8428 -5.0236,-2.6555 z m 4.5867,2.4232 c 6.1475,3.7702 9.0456,8.7477 9.0456,15.0529 h 4 c 0,-7.8614 -3.7687,-14.0558 -10.9545,-18.4627 z m 9.0456,15.0529 c 0,6.2185 -2.068,10.8004 -6.0561,14.0321 l 2.5183,3.1077 c 5.0744,-4.112 7.5378,-9.9208 7.5378,-17.1398 z m -6.042,14.0208 c -4.1189,3.2764 -9.9547,5.0479 -17.7458,5.073 l 0.013,4 c 8.3547,-0.027 15.1752,-1.9274 20.2229,-5.9426 z m 73.5422,-36.5208 -0.718,1.8667 2.718,1.0454 v -2.9121 z m -15.781,3.3594 1.401,1.4269 v -1e-4 z m 7.382,17.5 0.777,1.8429 0.011,-0.0046 z m 9.61,-6.0547 h 2 v -3.9507 l -3.184,2.3389 z m 0,25.4297 0.748,1.8545 1.252,-0.5051 v -1.3494 z m -34.9222,-0.2344 -0.8327,1.8184 0.0037,0.0017 z m -16.5234,-17.9687 -1.9061,0.6056 0.0022,0.0071 0.0023,0.007 z m -1.3672,-9.2188 h -2 v 0.0078 0.0077 z m 4.8828,-18.164 1.7074,1.0415 0.0023,-0.0038 z M 85.1094,15.501 84.1925,13.7235 84.1892,13.7252 Z m 19.7656,-4.4141 -0.007,2 h 0.007 z m 13.594,1.9141 h 2 v -1.3873 l -1.3,-0.486 z m 0.718,18.2895 c -1.936,-0.7445 -3.991,-1.1098 -6.148,-1.1098 v 4 c 1.697,0 3.262,0.2857 4.712,0.8432 z m -6.148,-1.1098 c -4.507,0 -8.454,1.6683 -11.753,4.9091 l 2.803,2.8536 c 2.586,-2.5405 5.54,-3.7627 8.95,-3.7627 z m -11.753,4.909 c -3.2911,3.2324 -4.9735,7.1807 -4.9735,11.7394 h 3.9995 c 0,-3.4622 1.235,-6.3889 3.777,-8.8856 z m -4.9735,11.7394 c 0,2.9097 0.5603,5.4587 1.9161,7.4245 l 3.2924,-2.2709 c -0.727,-1.055 -1.209,-2.6987 -1.209,-5.1536 z m 1.9161,7.4245 c 1.4055,2.0381 3.4334,3.1302 5.9044,3.1302 v -4 c -1.123,0 -1.934,-0.4183 -2.612,-1.4011 z m 5.9044,3.1302 c 2.132,0 4.379,-0.5394 6.714,-1.5243 l -1.554,-3.6858 c -1.987,0.838 -3.698,1.2101 -5.16,1.2101 z m 6.725,-1.5289 c 2.414,-1.0346 5.774,-3.173 10.006,-6.2811 l -2.368,-3.2237 c -4.207,3.0897 -7.253,4.9878 -9.214,5.8282 z m 6.822,-7.893 v 25.4297 h 4 V 47.9619 Z m 1.251,23.5752 c -5.298,2.1392 -10.942,3.2139 -16.947,3.2139 v 4 c 6.495,0 12.649,-1.1649 18.444,-3.5049 z m -16.947,3.2139 c -5.9599,0 -11.4166,-1.1455 -16.3972,-3.4139 l -1.658,3.6402 c 5.5403,2.5233 11.5679,3.7737 18.0552,3.7737 z M 85.5905,71.3388 C 77.698,67.7245 72.6055,62.1468 70.136,54.5688 l -3.8032,1.2394 c 2.843,8.7241 8.7661,15.1255 17.5923,19.1674 z m -15.45,-16.756 C 69.324,52.0133 68.8918,49.1425 68.8671,45.9542 l -3.9999,0.031 c 0.0274,3.5305 0.5067,6.8056 1.4611,9.8089 z m -1.2733,-8.6131 c 0,-3.1923 0.3957,-6.2318 1.1803,-9.1249 l -3.8606,-1.047 c -0.8821,3.2527 -1.3197,6.6455 -1.3197,10.1719 z m 1.1803,-9.1249 c 0.786,-2.8986 1.924,-5.5617 3.4099,-7.9976 l -3.4148,-2.0831 c -1.6912,2.7724 -2.9751,5.7865 -3.8557,9.0337 z m 3.4122,-8.0014 C 76.4359,23.94 80.608,20.0861 86.0295,17.2767 l -1.8403,-3.5515 c -6.0368,3.1282 -10.7709,7.4774 -14.1489,13.0427 z m 12.5666,-11.565 c 5.4303,-2.8012 11.6939,-4.2166 18.8417,-4.1915 l 0.014,-3.99997 C 97.186,9.05992 90.2726,10.5872 84.1925,13.7235 Z m 18.8487,-4.1915 c 5.529,0 9.794,0.6282 12.893,1.7873 l 1.401,-3.7465 C 115.445,9.73478 110.648,9.08691 104.875,9.08691 Z m 11.594,-0.0859 v 20.1562 h 4 V 13.001 Z m 57.695,-0.1563 v -2 h -2 v 2 z m 24.336,0 h 2 v -2 h -2 z m 0,62.3828 v 2 h 2 v -2 z m -24.336,0 h -2 v 2 h 2 z m 0,-23.0468 h 2 v -2.1824 l -2.174,0.19 z m -12.969,1.1328 -0.174,-1.9924 -1.826,0.1595 v 1.8329 z m 0,21.914 v 2 h 2 v -2 z m -24.297,0 h -2 v 2 h 2 z m 0,-62.3828 v -2 h -2 v 2 z m 24.297,0 h 2 v -2 h -2 z m 0,22.5391 h -2 v 2.1692 l 2.162,-0.1758 z m 12.969,-1.0547 0.162,1.9934 1.838,-0.1494 v -1.844 z m 0,-19.4844 H 198.5 v -4 h -24.336 z m 22.336,-2 v 62.3828 h 4 V 12.8447 Z m 2,60.3828 h -24.336 v 4 H 198.5 Z m -22.336,2 V 52.1807 h -4 v 23.0468 z m -2.174,-25.0392 -12.969,1.1328 0.348,3.9848 12.969,-1.1328 z m -14.795,3.1252 v 21.914 h 4 v -21.914 z m 2,19.914 h -24.297 v 4 h 24.297 z m -22.297,2 V 12.8447 h -4 v 62.3828 z m -2,-60.3828 h 24.297 v -4 h -24.297 z m 22.297,-2 v 22.5391 h 4 V 12.8447 Z m 2.162,24.5325 12.969,-1.0547 -0.324,-3.9868 -12.969,1.0547 z m 14.807,-3.0481 V 12.8447 h -4 v 21.4844 z m 39.984,-21.4844 v -2 h -2 v 2 z m 44.961,0 h 2 v -2 h -2 z m 0,17.9688 v 2 h 2 v -2 z m -20.664,0 v -2 h -2 v 2 z m 0,5.1172 h -2 v 2 h 2 z m 20.586,0 h 2 v -2 h -2 z m 0,15.3125 v 2 h 2 v -2 z m -20.586,0 v -2 h -2 v 2 z m 0,5.8984 h -2 v 2 h 2 z m 22.032,0 h 2 v -2 h -2 z m 0,18.0859 v 2 h 2 v -2 z m -46.329,0 h -2 v 2 h 2 z m 0,-60.3828 h 44.961 v -4 h -44.961 z m 42.961,-2 v 17.9688 h 4 V 12.8447 Z m 2,15.9688 h -20.664 v 4 h 20.664 z m -22.664,2 v 5.1172 h 4 v -5.1172 z m 2,7.1172 h 20.586 v -4 h -20.586 z m 18.586,-2 v 15.3125 h 4 V 35.9307 Z m 2,13.3125 h -20.586 v 4 h 20.586 z m -22.586,2 v 5.8984 h 4 v -5.8984 z m 2,7.8984 h 22.032 v -4 h -22.032 z m 20.032,-2 v 18.0859 h 4 V 57.1416 Z m 2,16.0859 h -46.329 v 4 h 46.329 z m -44.329,2 V 12.8447 h -4 v 62.3828 z m 61.625,-62.3828 -0.147,-1.9945 -1.853,0.1373 v 1.8572 z m 42.383,-0.3906 -0.622,1.9009 0.011,0.0035 0.011,0.0033 z m 7.539,3.7109 -1.166,1.6249 0.009,0.0066 z m 9.727,12.1485 -1.835,0.7947 0.003,0.0079 z m 0.781,28.9453 -1.833,-0.7997 -0.003,0.0059 z m -6.953,9.7656 -1.334,-1.4905 -0.008,0.008 z m -23.555,8.2031 0.006,-2 h -0.006 z m -29.922,0 h -2 v 2 h 2 z m 24.297,-42.5781 -1.518,-1.3016 -0.482,0.5618 v 0.7398 z m 0,23.7891 h -2 v 4.3217 l 3.295,-2.7971 z m 4.492,-3.4766 1.158,1.6311 0.009,-0.0069 z m 7.188,-20.5469 -1.644,1.1385 0.007,0.0099 z M 279.921,14.8393 c 15.825,-1.1732 26.06,-1.7524 30.79,-1.7524 V 9.08691 c -4.906,0 -15.296,0.59271 -31.085,1.76329 z m 30.79,-1.7524 c 4.751,0 8.326,0.4511 10.823,1.2681 l 1.244,-3.8018 C 319.703,9.54726 315.647,9.08691 310.711,9.08691 Z m 10.845,1.2749 c 2.626,0.827 4.946,1.973 6.973,3.4281 l 2.332,-3.2497 c -2.399,-1.722 -5.106,-3.0499 -8.104,-3.9938 z m 6.982,3.4347 c 3.985,2.8255 7,6.5794 9.049,11.3117 l 3.67,-1.5894 c -2.326,-5.372 -5.796,-9.717 -10.405,-12.9852 z m 9.052,11.3196 c 2.11,4.8156 3.152,9.6604 3.152,14.5489 h 4 c 0,-5.476 -1.171,-10.8656 -3.488,-16.1542 z m 3.152,14.5489 c 0,4.9673 -0.811,9.216 -2.372,12.7941 l 3.666,1.5994 c 1.825,-4.1823 2.706,-8.9961 2.706,-14.3935 z m -2.375,12.8 c -1.558,3.603 -3.709,6.6162 -6.451,9.0689 l 2.668,2.981 c 3.196,-2.8598 5.68,-6.357 7.455,-10.4623 z m -6.459,9.0769 c -5.635,5.1026 -12.976,7.7106 -22.207,7.6856 l -0.011,4 c 10.04,0.0272 18.402,-2.8336 24.902,-8.7206 z m -22.213,7.6856 h -29.922 v 4 h 29.922 z m -27.922,2 V 12.8447 h -4 V 75.2275 Z M 302.07,32.6494 v 23.7891 h 4 V 32.6494 Z m 3.295,25.3137 c 1.332,-1.1312 2.783,-2.2548 4.355,-3.3702 l -2.315,-3.262 c -1.657,1.1763 -3.201,2.3704 -4.629,3.583 z m 4.364,-3.377 c 6.417,-4.6103 10.13,-9.7946 10.13,-15.6086 h -4 c 0,3.9256 -2.484,8.0642 -8.463,12.3602 z m 10.13,-15.6086 c 0,-2.7951 -0.838,-5.3812 -2.472,-7.7108 l -3.274,2.2967 c 1.178,1.6808 1.746,3.4697 1.746,5.4141 z m -2.465,-7.7009 c -1.74,-2.5135 -4.163,-3.9084 -7.152,-3.9084 v 4 c 1.543,0 2.791,0.6363 3.864,2.1853 z m -7.152,-3.9084 c -2.982,0 -5.552,1.4851 -7.69,3.9796 l 3.037,2.6032 c 1.612,-1.8804 3.156,-2.5828 4.653,-2.5828 z m 47.57,-14.5235 v -2 h -2 v 2 z m 24.649,0 h 2 v -2 h -2 z m 3.711,44.0235 0.827,-1.8208 -0.002,-0.0013 z m 9.492,-4.2578 1.929,0.5288 0.002,-0.007 z m 0.391,-39.7657 v -2 h -2 v 2 z m 21.601,0 h 2 v -2 h -2 z M 388.867,74.751 c -10.115,0 -17.329,-2.1572 -21.995,-6.1252 -4.605,-3.9153 -7.06,-9.8798 -7.06,-18.2811 h -4 c 0,9.2029 2.721,16.4415 8.469,21.3284 5.685,4.834 13.998,7.0779 24.586,7.0779 z M 359.812,50.3447 v -37.5 h -4 v 37.5 z m -2,-35.5 h 24.649 v -4 h -24.649 z m 22.649,-2 v 36.7969 h 4 V 12.8447 Z m 0,36.7969 c 0,4.1475 1.434,7.4861 4.886,9.0486 l 1.65,-3.6441 c -1.496,-0.6771 -2.536,-2.1562 -2.536,-5.4045 z m 4.883,9.0473 c 1.18,0.536 2.505,0.7652 3.914,0.7652 v -4 c -0.987,0 -1.719,-0.1615 -2.259,-0.4067 z m 3.914,0.7652 c 2.011,0 3.849,-0.4832 5.347,-1.6156 1.5,-1.1341 2.458,-2.7678 2.988,-4.6993 l -3.858,-1.0577 c -0.356,1.2977 -0.907,2.0859 -1.543,2.5663 -0.637,0.4822 -1.56,0.8063 -2.934,0.8063 z m 8.337,-6.3219 c 0.311,-1.1529 0.46,-2.3719 0.46,-3.6468 h -4 c 0,0.9646 -0.112,1.829 -0.322,2.6031 z m 0.46,-3.6468 V 12.8447 h -4 v 36.6407 z m -2,-34.6407 h 21.601 v -4 h -21.601 z m 19.601,-2 v 37.5 h 4 v -37.5 z m 0,37.5 c 0,8.4472 -2.294,14.4282 -6.549,18.3308 -4.287,3.9326 -10.911,6.0755 -20.24,6.0755 v 4 c 9.864,0 17.635,-2.2582 22.944,-7.1277 5.341,-4.8994 7.845,-12.1216 7.845,-21.2786 z m 19.024,-37.5 v -2 h -2 v 2 z m 24.297,0 h 2 v -2 h -2 z m 0,43.5938 h -2 v 2 h 2 z m 20.976,0 h 2 v -2 h -2 z m 0,18.789 v 2 h 2 v -2 z m -45.273,0 h -2 v 2 h 2 z m 0,-60.3828 h 24.297 v -4 H 434.68 Z m 22.297,-2 v 43.5938 h 4 V 12.8447 Z m 2,45.5938 h 20.976 v -4 h -20.976 z m 18.976,-2 v 18.789 h 4 v -18.789 z m 2,16.789 H 434.68 v 4 h 45.273 z m -43.273,2 V 12.8447 h -4 v 62.3828 z m 57.328,-62.3828 v -2 h -2 v 2 z m 44.961,0 h 2 v -2 h -2 z m 0,17.9688 v 2 h 2 v -2 z m -20.664,0 v -2 h -2 v 2 z m 0,5.1172 h -2 v 2 h 2 z m 20.586,0 h 2 v -2 h -2 z m 0,15.3125 v 2 h 2 v -2 z m -20.586,0 v -2 h -2 v 2 z m 0,5.8984 h -2 v 2 h 2 z m 22.031,0 h 2 v -2 h -2 z m 0,18.0859 v 2 h 2 v -2 z m -46.328,0 h -2 v 2 h 2 z m 0,-60.3828 h 44.961 v -4 h -44.961 z m 42.961,-2 v 17.9688 h 4 V 12.8447 Z m 2,15.9688 h -20.664 v 4 h 20.664 z m -22.664,2 v 5.1172 h 4 v -5.1172 z m 2,7.1172 h 20.586 v -4 h -20.586 z m 18.586,-2 v 15.3125 h 4 V 35.9307 Z m 2,13.3125 h -20.586 v 4 h 20.586 z m -22.586,2 v 5.8984 h 4 v -5.8984 z m 2,7.8984 h 22.031 v -4 h -22.031 z m 20.031,-2 v 18.0859 h 4 V 57.1416 Z m 2,16.0859 h -46.328 v 4 h 46.328 z m -44.328,2 V 12.8447 h -4 v 62.3828 z"
     fill="#000000"
     mask="url(#path-5-outside-3_1_6)"
     id="path9" />
</svg>
