<svg width="330" height="247" viewBox="0 0 330 247" fill="none" xmlns="http://www.w3.org/2000/svg">
    <path
        d="M38.6839 187.542L114.506 155.949L158.008 245.962L172.963 160.115L268.287 194.148L223.264 129.037L320.611 106.623L213.151 77.7947L221.936 47.6338L155.075 66.1227L119.076 3.11438L113.031 65.5035L3.5757 20.8133L80.4136 77.135L-3.03632 101.255L81.2348 127.496L38.6839 187.542Z"
        fill="#4B4241" />
    <path
        d="M47.939 186.14L123.761 154.546L167.263 244.559L182.219 158.713L277.542 192.745L232.519 127.634L329.866 105.22L222.406 76.3921L231.191 46.2312L164.33 64.7201L128.331 1.71179L122.286 64.1009L12.8308 19.4107L89.6687 75.7324L6.21875 99.8522L90.4899 126.093L47.939 186.14Z"
        fill="#F23C27" stroke="black" />
</svg>